

<svg height="94" width="198" xmlns="http://www.w3.org/2000/svg" fill='#4FA1A7'>
  <style>
  rect {
  rx: 2;
  ry: 2;
  animation: wow .5s backwards;
  }
  .st {
  
  stroke: rgba(27, 31, 35, 0.06);
  stroke-width: 1;
  fill: none;
  }
  @keyframes wow {
  from {opacity: 0;}
  to{ opacity: 1;}}
  .count0 {fill: #ebedf0}
.count1 {fill: #9be9a8}
.count2 {fill: #9be9a8}
.count3 {fill: #40c463}
.count4 {fill: #40c463}
.count5 {fill: #30a14e}
.count6 {fill: #30a14e}
.count7 {fill: #216e39}
.count8 {fill: #216e39}
  </style>
<rect x="3" y="68" width="10" height="10" class="count3" style="animation-delay: 325.3488184152496ms" /><rect x="3.5" y="68.5" width="9" height="9" class="st" style="animation-delay: 325.3488184152496ms" />
<rect x="3" y="81" width="10" height="10" class="count3" style="animation-delay: 469.2341935594167ms" /><rect x="3.5" y="81.5" width="9" height="9" class="st" style="animation-delay: 469.2341935594167ms" />
<rect x="16" y="3" width="10" height="10" class="count1" style="animation-delay: 556.3386537697612ms" /><rect x="16.5" y="3.5" width="9" height="9" class="st" style="animation-delay: 556.3386537697612ms" />
<rect x="16" y="16" width="10" height="10" class="count2" style="animation-delay: 622.3699000246826ms" /><rect x="16.5" y="16.5" width="9" height="9" class="st" style="animation-delay: 622.3699000246826ms" />
<rect x="16" y="29" width="10" height="10" class="count5" style="animation-delay: 676.752814034612ms" /><rect x="16.5" y="29.5" width="9" height="9" class="st" style="animation-delay: 676.752814034612ms" />
<rect x="16" y="42" width="10" height="10" class="count1" style="animation-delay: 723.5692946457665ms" /><rect x="16.5" y="42.5" width="9" height="9" class="st" style="animation-delay: 723.5692946457665ms" />
<rect x="16" y="55" width="10" height="10" class="count3" style="animation-delay: 765.0039623487382ms" /><rect x="16.5" y="55.5" width="9" height="9" class="st" style="animation-delay: 765.0039623487382ms" />
<rect x="16" y="68" width="10" height="10" class="count2" style="animation-delay: 802.37918434484ms" /><rect x="16.5" y="68.5" width="9" height="9" class="st" style="animation-delay: 802.37918434484ms" />
<rect x="16" y="81" width="10" height="10" class="count2" style="animation-delay: 836.5634273335403ms" /><rect x="16.5" y="81.5" width="9" height="9" class="st" style="animation-delay: 836.5634273335403ms" />
<rect x="29" y="3" width="10" height="10" class="count2" style="animation-delay: 868.1613234689886ms" /><rect x="29.5" y="3.5" width="9" height="9" class="st" style="animation-delay: 868.1613234689886ms" />
<rect x="29" y="16" width="10" height="10" class="count1" style="animation-delay: 897.6127208828632ms" /><rect x="29.5" y="16.5" width="9" height="9" class="st" style="animation-delay: 897.6127208828632ms" />
<rect x="29" y="29" width="10" height="10" class="count2" style="animation-delay: 925.2487616248511ms" /><rect x="29.5" y="29.5" width="9" height="9" class="st" style="animation-delay: 925.2487616248511ms" />
<rect x="29" y="42" width="10" height="10" class="count2" style="animation-delay: 951.3257161527865ms" /><rect x="29.5" y="42.5" width="9" height="9" class="st" style="animation-delay: 951.3257161527865ms" />
<rect x="29" y="55" width="10" height="10" class="count1" style="animation-delay: 976.0464552457486ms" /><rect x="29.5" y="55.5" width="9" height="9" class="st" style="animation-delay: 976.0464552457486ms" />
<rect x="29" y="68" width="10" height="10" class="count3" style="animation-delay: 999.5746490341805ms" /><rect x="29.5" y="68.5" width="9" height="9" class="st" style="animation-delay: 999.5746490341805ms" />
<rect x="29" y="81" width="10" height="10" class="count2" style="animation-delay: 1022.0444834480655ms" /><rect x="29.5" y="81.5" width="9" height="9" class="st" style="animation-delay: 1022.0444834480655ms" />
<rect x="42" y="3" width="10" height="10" class="count1" style="animation-delay: 1043.5675042904911ms" /><rect x="42.5" y="3.5" width="9" height="9" class="st" style="animation-delay: 1043.5675042904911ms" />
<rect x="42" y="16" width="10" height="10" class="count1" style="animation-delay: 1064.237558977788ms" /><rect x="42.5" y="16.5" width="9" height="9" class="st" style="animation-delay: 1064.237558977788ms" />
<rect x="42" y="29" width="10" height="10" class="count2" style="animation-delay: 1084.134442130486ms" /><rect x="42.5" y="29.5" width="9" height="9" class="st" style="animation-delay: 1084.134442130486ms" />
<rect x="42" y="42" width="10" height="10" class="count1" style="animation-delay: 1103.3266359809327ms" /><rect x="42.5" y="42.5" width="9" height="9" class="st" style="animation-delay: 1103.3266359809327ms" />
<rect x="42" y="55" width="10" height="10" class="count1" style="animation-delay: 1121.8734047976138ms" /><rect x="42.5" y="55.5" width="9" height="9" class="st" style="animation-delay: 1121.8734047976138ms" />
<rect x="42" y="68" width="10" height="10" class="count1" style="animation-delay: 1139.8264193850978ms" /><rect x="42.5" y="68.5" width="9" height="9" class="st" style="animation-delay: 1139.8264193850978ms" />
<rect x="42" y="81" width="10" height="10" class="count1" style="animation-delay: 1157.2310338449545ms" /><rect x="42.5" y="81.5" width="9" height="9" class="st" style="animation-delay: 1157.2310338449545ms" />
<rect x="55" y="3" width="10" height="10" class="count1" style="animation-delay: 1174.127301039261ms" /><rect x="55.5" y="3.5" width="9" height="9" class="st" style="animation-delay: 1174.127301039261ms" />
<rect x="55" y="16" width="10" height="10" class="count1" style="animation-delay: 1190.5507889761498ms" /><rect x="55.5" y="16.5" width="9" height="9" class="st" style="animation-delay: 1190.5507889761498ms" />
<rect x="55" y="29" width="10" height="10" class="count2" style="animation-delay: 1206.5332436066913ms" /><rect x="55.5" y="29.5" width="9" height="9" class="st" style="animation-delay: 1206.5332436066913ms" />
<rect x="55" y="42" width="10" height="10" class="count3" style="animation-delay: 1222.1031317658603ms" /><rect x="55.5" y="42.5" width="9" height="9" class="st" style="animation-delay: 1222.1031317658603ms" />
<rect x="55" y="55" width="10" height="10" class="count3" style="animation-delay: 1237.2860895980843ms" /><rect x="55.5" y="55.5" width="9" height="9" class="st" style="animation-delay: 1237.2860895980843ms" />
<rect x="55" y="68" width="10" height="10" class="count1" style="animation-delay: 1252.10529573066ms" /><rect x="55.5" y="68.5" width="9" height="9" class="st" style="animation-delay: 1252.10529573066ms" />
<rect x="55" y="81" width="10" height="10" class="count2" style="animation-delay: 1266.5817839991669ms" /><rect x="55.5" y="81.5" width="9" height="9" class="st" style="animation-delay: 1266.5817839991669ms" />
<rect x="68" y="3" width="10" height="10" class="count0" style="animation-delay: 1280.7347072172504ms" /><rect x="68.5" y="3.5" width="9" height="9" class="st" style="animation-delay: 1280.7347072172504ms" />
<rect x="68" y="16" width="10" height="10" class="count2" style="animation-delay: 1294.581560995773ms" /><rect x="68.5" y="16.5" width="9" height="9" class="st" style="animation-delay: 1294.581560995773ms" />
<rect x="68" y="29" width="10" height="10" class="count2" style="animation-delay: 1308.138374728708ms" /><rect x="68.5" y="29.5" width="9" height="9" class="st" style="animation-delay: 1308.138374728708ms" />
<rect x="68" y="42" width="10" height="10" class="count1" style="animation-delay: 1321.4198754167032ms" /><rect x="68.5" y="42.5" width="9" height="9" class="st" style="animation-delay: 1321.4198754167032ms" />
<rect x="68" y="55" width="10" height="10" class="count2" style="animation-delay: 1334.4396288809032ms" /><rect x="68.5" y="55.5" width="9" height="9" class="st" style="animation-delay: 1334.4396288809032ms" />
<rect x="68" y="68" width="10" height="10" class="count2" style="animation-delay: 1347.2101620476183ms" /><rect x="68.5" y="68.5" width="9" height="9" class="st" style="animation-delay: 1347.2101620476183ms" />
<rect x="68" y="81" width="10" height="10" class="count1" style="animation-delay: 1359.7430692991725ms" /><rect x="68.5" y="81.5" width="9" height="9" class="st" style="animation-delay: 1359.7430692991725ms" />
<rect x="81" y="3" width="10" height="10" class="count1" style="animation-delay: 1372.0491053437438ms" /><rect x="81.5" y="3.5" width="9" height="9" class="st" style="animation-delay: 1372.0491053437438ms" />
<rect x="81" y="16" width="10" height="10" class="count3" style="animation-delay: 1384.1382666245095ms" /><rect x="81.5" y="16.5" width="9" height="9" class="st" style="animation-delay: 1384.1382666245095ms" />
<rect x="81" y="29" width="10" height="10" class="count5" style="animation-delay: 1396.0198629413612ms" /><rect x="81.5" y="29.5" width="9" height="9" class="st" style="animation-delay: 1396.0198629413612ms" />
<rect x="81" y="42" width="10" height="10" class="count2" style="animation-delay: 1407.7025806782501ms" /><rect x="81.5" y="42.5" width="9" height="9" class="st" style="animation-delay: 1407.7025806782501ms" />
<rect x="81" y="55" width="10" height="10" class="count4" style="animation-delay: 1419.1945388016456ms" /><rect x="81.5" y="55.5" width="9" height="9" class="st" style="animation-delay: 1419.1945388016456ms" />
<rect x="81" y="68" width="10" height="10" class="count5" style="animation-delay: 1430.5033386097725ms" /><rect x="81.5" y="68.5" width="9" height="9" class="st" style="animation-delay: 1430.5033386097725ms" />
<rect x="81" y="81" width="10" height="10" class="count5" style="animation-delay: 1441.6361080597255ms" /><rect x="81.5" y="81.5" width="9" height="9" class="st" style="animation-delay: 1441.6361080597255ms" />
<rect x="94" y="3" width="10" height="10" class="count5" style="animation-delay: 1452.5995413737098ms" /><rect x="94.5" y="3.5" width="9" height="9" class="st" style="animation-delay: 1452.5995413737098ms" />
<rect x="94" y="16" width="10" height="10" class="count3" style="animation-delay: 1463.399934521336ms" /><rect x="94.5" y="16.5" width="9" height="9" class="st" style="animation-delay: 1463.399934521336ms" />
<rect x="94" y="29" width="10" height="10" class="count5" style="animation-delay: 1474.0432170880297ms" /><rect x="94.5" y="29.5" width="9" height="9" class="st" style="animation-delay: 1474.0432170880297ms" />
<rect x="94" y="42" width="10" height="10" class="count6" style="animation-delay: 1484.5349809669779ms" /><rect x="94.5" y="42.5" width="9" height="9" class="st" style="animation-delay: 1484.5349809669779ms" />
<rect x="94" y="55" width="10" height="10" class="count2" style="animation-delay: 1494.8805062510532ms" /><rect x="94.5" y="55.5" width="9" height="9" class="st" style="animation-delay: 1494.8805062510532ms" />
<rect x="94" y="68" width="10" height="10" class="count2" style="animation-delay: 1505.1194937489465ms" /><rect x="94.5" y="68.5" width="9" height="9" class="st" style="animation-delay: 1505.1194937489465ms" />
<rect x="94" y="81" width="10" height="10" class="count1" style="animation-delay: 1515.465019033022ms" /><rect x="94.5" y="81.5" width="9" height="9" class="st" style="animation-delay: 1515.465019033022ms" />
<rect x="107" y="3" width="10" height="10" class="count4" style="animation-delay: 1525.9567829119703ms" /><rect x="107.5" y="3.5" width="9" height="9" class="st" style="animation-delay: 1525.9567829119703ms" />
<rect x="107" y="16" width="10" height="10" class="count1" style="animation-delay: 1536.6000654786637ms" /><rect x="107.5" y="16.5" width="9" height="9" class="st" style="animation-delay: 1536.6000654786637ms" />
<rect x="107" y="29" width="10" height="10" class="count0" style="animation-delay: 1547.4004586262904ms" /><rect x="107.5" y="29.5" width="9" height="9" class="st" style="animation-delay: 1547.4004586262904ms" />
<rect x="107" y="42" width="10" height="10" class="count1" style="animation-delay: 1558.3638919402745ms" /><rect x="107.5" y="42.5" width="9" height="9" class="st" style="animation-delay: 1558.3638919402745ms" />
<rect x="107" y="55" width="10" height="10" class="count4" style="animation-delay: 1569.4966613902275ms" /><rect x="107.5" y="55.5" width="9" height="9" class="st" style="animation-delay: 1569.4966613902275ms" />
<rect x="107" y="68" width="10" height="10" class="count4" style="animation-delay: 1580.8054611983544ms" /><rect x="107.5" y="68.5" width="9" height="9" class="st" style="animation-delay: 1580.8054611983544ms" />
<rect x="107" y="81" width="10" height="10" class="count5" style="animation-delay: 1592.29741932175ms" /><rect x="107.5" y="81.5" width="9" height="9" class="st" style="animation-delay: 1592.29741932175ms" />
<rect x="120" y="3" width="10" height="10" class="count3" style="animation-delay: 1603.9801370586388ms" /><rect x="120.5" y="3.5" width="9" height="9" class="st" style="animation-delay: 1603.9801370586388ms" />
<rect x="120" y="16" width="10" height="10" class="count4" style="animation-delay: 1615.8617333754905ms" /><rect x="120.5" y="16.5" width="9" height="9" class="st" style="animation-delay: 1615.8617333754905ms" />
<rect x="120" y="29" width="10" height="10" class="count6" style="animation-delay: 1627.950894656256ms" /><rect x="120.5" y="29.5" width="9" height="9" class="st" style="animation-delay: 1627.950894656256ms" />
<rect x="120" y="42" width="10" height="10" class="count6" style="animation-delay: 1640.2569307008275ms" /><rect x="120.5" y="42.5" width="9" height="9" class="st" style="animation-delay: 1640.2569307008275ms" />
<rect x="120" y="55" width="10" height="10" class="count6" style="animation-delay: 1652.7898379523817ms" /><rect x="120.5" y="55.5" width="9" height="9" class="st" style="animation-delay: 1652.7898379523817ms" />
<rect x="120" y="68" width="10" height="10" class="count8" style="animation-delay: 1665.560371119097ms" /><rect x="120.5" y="68.5" width="9" height="9" class="st" style="animation-delay: 1665.560371119097ms" />
<rect x="120" y="81" width="10" height="10" class="count7" style="animation-delay: 1678.5801245832965ms" /><rect x="120.5" y="81.5" width="9" height="9" class="st" style="animation-delay: 1678.5801245832965ms" />
<rect x="133" y="3" width="10" height="10" class="count5" style="animation-delay: 1691.861625271292ms" /><rect x="133.5" y="3.5" width="9" height="9" class="st" style="animation-delay: 1691.861625271292ms" />
<rect x="133" y="16" width="10" height="10" class="count5" style="animation-delay: 1705.418439004227ms" /><rect x="133.5" y="16.5" width="9" height="9" class="st" style="animation-delay: 1705.418439004227ms" />
<rect x="133" y="29" width="10" height="10" class="count5" style="animation-delay: 1719.2652927827496ms" /><rect x="133.5" y="29.5" width="9" height="9" class="st" style="animation-delay: 1719.2652927827496ms" />
<rect x="133" y="42" width="10" height="10" class="count5" style="animation-delay: 1733.4182160008334ms" /><rect x="133.5" y="42.5" width="9" height="9" class="st" style="animation-delay: 1733.4182160008334ms" />
<rect x="133" y="55" width="10" height="10" class="count7" style="animation-delay: 1747.89470426934ms" /><rect x="133.5" y="55.5" width="9" height="9" class="st" style="animation-delay: 1747.89470426934ms" />
<rect x="133" y="68" width="10" height="10" class="count3" style="animation-delay: 1762.7139104019154ms" /><rect x="133.5" y="68.5" width="9" height="9" class="st" style="animation-delay: 1762.7139104019154ms" />
<rect x="133" y="81" width="10" height="10" class="count5" style="animation-delay: 1777.8968682341397ms" /><rect x="133.5" y="81.5" width="9" height="9" class="st" style="animation-delay: 1777.8968682341397ms" />
<rect x="146" y="3" width="10" height="10" class="count6" style="animation-delay: 1793.466756393309ms" /><rect x="146.5" y="3.5" width="9" height="9" class="st" style="animation-delay: 1793.466756393309ms" />
<rect x="146" y="16" width="10" height="10" class="count4" style="animation-delay: 1809.4492110238505ms" /><rect x="146.5" y="16.5" width="9" height="9" class="st" style="animation-delay: 1809.4492110238505ms" />
<rect x="146" y="29" width="10" height="10" class="count3" style="animation-delay: 1825.8726989607387ms" /><rect x="146.5" y="29.5" width="9" height="9" class="st" style="animation-delay: 1825.8726989607387ms" />
<rect x="146" y="42" width="10" height="10" class="count3" style="animation-delay: 1842.7689661550457ms" /><rect x="146.5" y="42.5" width="9" height="9" class="st" style="animation-delay: 1842.7689661550457ms" />
<rect x="146" y="55" width="10" height="10" class="count3" style="animation-delay: 1860.173580614902ms" /><rect x="146.5" y="55.5" width="9" height="9" class="st" style="animation-delay: 1860.173580614902ms" />
<rect x="146" y="68" width="10" height="10" class="count3" style="animation-delay: 1878.126595202386ms" /><rect x="146.5" y="68.5" width="9" height="9" class="st" style="animation-delay: 1878.126595202386ms" />
<rect x="146" y="81" width="10" height="10" class="count3" style="animation-delay: 1896.6733640190673ms" /><rect x="146.5" y="81.5" width="9" height="9" class="st" style="animation-delay: 1896.6733640190673ms" />
<rect x="159" y="3" width="10" height="10" class="count1" style="animation-delay: 1915.8655578695139ms" /><rect x="159.5" y="3.5" width="9" height="9" class="st" style="animation-delay: 1915.8655578695139ms" />
<rect x="159" y="16" width="10" height="10" class="count3" style="animation-delay: 1935.762441022212ms" /><rect x="159.5" y="16.5" width="9" height="9" class="st" style="animation-delay: 1935.762441022212ms" />
<rect x="159" y="29" width="10" height="10" class="count1" style="animation-delay: 1956.4324957095087ms" /><rect x="159.5" y="29.5" width="9" height="9" class="st" style="animation-delay: 1956.4324957095087ms" />
<rect x="159" y="42" width="10" height="10" class="count0" style="animation-delay: 1977.9555165519344ms" /><rect x="159.5" y="42.5" width="9" height="9" class="st" style="animation-delay: 1977.9555165519344ms" />
<rect x="159" y="55" width="10" height="10" class="count1" style="animation-delay: 2000.4253509658195ms" /><rect x="159.5" y="55.5" width="9" height="9" class="st" style="animation-delay: 2000.4253509658195ms" />
<rect x="159" y="68" width="10" height="10" class="count0" style="animation-delay: 2023.9535447542514ms" /><rect x="159.5" y="68.5" width="9" height="9" class="st" style="animation-delay: 2023.9535447542514ms" />
<rect x="159" y="81" width="10" height="10" class="count0" style="animation-delay: 2048.6742838472137ms" /><rect x="159.5" y="81.5" width="9" height="9" class="st" style="animation-delay: 2048.6742838472137ms" />
<rect x="172" y="3" width="10" height="10" class="count0" style="animation-delay: 2074.7512383751487ms" /><rect x="172.5" y="3.5" width="9" height="9" class="st" style="animation-delay: 2074.7512383751487ms" />
<rect x="172" y="16" width="10" height="10" class="count2" style="animation-delay: 2102.387279117137ms" /><rect x="172.5" y="16.5" width="9" height="9" class="st" style="animation-delay: 2102.387279117137ms" />
<rect x="172" y="29" width="10" height="10" class="count0" style="animation-delay: 2131.838676531011ms" /><rect x="172.5" y="29.5" width="9" height="9" class="st" style="animation-delay: 2131.838676531011ms" />
<rect x="172" y="42" width="10" height="10" class="count1" style="animation-delay: 2163.4365726664596ms" /><rect x="172.5" y="42.5" width="9" height="9" class="st" style="animation-delay: 2163.4365726664596ms" />
<rect x="172" y="55" width="10" height="10" class="count1" style="animation-delay: 2197.62081565516ms" /><rect x="172.5" y="55.5" width="9" height="9" class="st" style="animation-delay: 2197.62081565516ms" />
<rect x="172" y="68" width="10" height="10" class="count1" style="animation-delay: 2234.9960376512618ms" /><rect x="172.5" y="68.5" width="9" height="9" class="st" style="animation-delay: 2234.9960376512618ms" />
<rect x="172" y="81" width="10" height="10" class="count1" style="animation-delay: 2276.430705354234ms" /><rect x="172.5" y="81.5" width="9" height="9" class="st" style="animation-delay: 2276.430705354234ms" />
<rect x="185" y="3" width="10" height="10" class="count0" style="animation-delay: 2323.247185965388ms" /><rect x="185.5" y="3.5" width="9" height="9" class="st" style="animation-delay: 2323.247185965388ms" />
<rect x="185" y="16" width="10" height="10" class="count3" style="animation-delay: 2377.6300999753175ms" /><rect x="185.5" y="16.5" width="9" height="9" class="st" style="animation-delay: 2377.6300999753175ms" />
<rect x="185" y="29" width="10" height="10" class="count0" style="animation-delay: 2443.661346230239ms" /><rect x="185.5" y="29.5" width="9" height="9" class="st" style="animation-delay: 2443.661346230239ms" />
<rect x="185" y="42" width="10" height="10" class="count0" style="animation-delay: 2530.7658064405837ms" /><rect x="185.5" y="42.5" width="9" height="9" class="st" style="animation-delay: 2530.7658064405837ms" />
<rect x="185" y="55" width="10" height="10" class="count2" style="animation-delay: 2674.6511815847516ms" /><rect x="185.5" y="55.5" width="9" height="9" class="st" style="animation-delay: 2674.6511815847516ms" />
</svg>

  