

<svg height="94" width="185" xmlns="http://www.w3.org/2000/svg" fill='#4FA1A7'>
  <style>
  rect {
  rx: 2;
  ry: 2;
  animation: wow .5s backwards;
  }
  .st {
  
  stroke: rgba(27, 31, 35, 0.06);
  stroke-width: 1;
  fill: none;
  }
  @keyframes wow {
  from {opacity: 0;}
  to{ opacity: 1;}}
  .count0 {fill: #ebedf0}
.count1 {fill: #9be9a8}
.count2 {fill: #9be9a8}
.count3 {fill: #40c463}
.count4 {fill: #40c463}
.count5 {fill: #30a14e}
.count6 {fill: #30a14e}
.count7 {fill: #216e39}
.count8 {fill: #216e39}
  </style>
<rect x="3" y="68" width="10" height="10" class="count3" style="animation-delay: 333.4858886559278ms" /><rect x="3.5" y="68.5" width="9" height="9" class="st" style="animation-delay: 333.4858886559278ms" />
<rect x="3" y="81" width="10" height="10" class="count3" style="animation-delay: 480.9698796175962ms" /><rect x="3.5" y="81.5" width="9" height="9" class="st" style="animation-delay: 480.9698796175962ms" />
<rect x="16" y="3" width="10" height="10" class="count1" style="animation-delay: 570.2528481577397ms" /><rect x="16.5" y="3.5" width="9" height="9" class="st" style="animation-delay: 570.2528481577397ms" />
<rect x="16" y="16" width="10" height="10" class="count2" style="animation-delay: 637.9355554244852ms" /><rect x="16.5" y="16.5" width="9" height="9" class="st" style="animation-delay: 637.9355554244852ms" />
<rect x="16" y="29" width="10" height="10" class="count5" style="animation-delay: 693.6786022092839ms" /><rect x="16.5" y="29.5" width="9" height="9" class="st" style="animation-delay: 693.6786022092839ms" />
<rect x="16" y="42" width="10" height="10" class="count1" style="animation-delay: 741.6659768565991ms" /><rect x="16.5" y="42.5" width="9" height="9" class="st" style="animation-delay: 741.6659768565991ms" />
<rect x="16" y="55" width="10" height="10" class="count3" style="animation-delay: 784.1369378620653ms" /><rect x="16.5" y="55.5" width="9" height="9" class="st" style="animation-delay: 784.1369378620653ms" />
<rect x="16" y="68" width="10" height="10" class="count2" style="animation-delay: 822.446925222076ms" /><rect x="16.5" y="68.5" width="9" height="9" class="st" style="animation-delay: 822.446925222076ms" />
<rect x="16" y="81" width="10" height="10" class="count2" style="animation-delay: 857.4861262452893ms" /><rect x="16.5" y="81.5" width="9" height="9" class="st" style="animation-delay: 857.4861262452893ms" />
<rect x="29" y="3" width="10" height="10" class="count2" style="animation-delay: 889.8742951149808ms" /><rect x="29.5" y="3.5" width="9" height="9" class="st" style="animation-delay: 889.8742951149808ms" />
<rect x="29" y="16" width="10" height="10" class="count1" style="animation-delay: 920.0622806947816ms" /><rect x="29.5" y="16.5" width="9" height="9" class="st" style="animation-delay: 920.0622806947816ms" />
<rect x="29" y="29" width="10" height="10" class="count2" style="animation-delay: 948.3895069950489ms" /><rect x="29.5" y="29.5" width="9" height="9" class="st" style="animation-delay: 948.3895069950489ms" />
<rect x="29" y="42" width="10" height="10" class="count2" style="animation-delay: 975.1186538736138ms" /><rect x="29.5" y="42.5" width="9" height="9" class="st" style="animation-delay: 975.1186538736138ms" />
<rect x="29" y="55" width="10" height="10" class="count1" style="animation-delay: 1000.4576659677834ms" /><rect x="29.5" y="55.5" width="9" height="9" class="st" style="animation-delay: 1000.4576659677834ms" />
<rect x="29" y="68" width="10" height="10" class="count3" style="animation-delay: 1024.574306846404ms" /><rect x="29.5" y="68.5" width="9" height="9" class="st" style="animation-delay: 1024.574306846404ms" />
<rect x="29" y="81" width="10" height="10" class="count2" style="animation-delay: 1047.606118469282ms" /><rect x="29.5" y="81.5" width="9" height="9" class="st" style="animation-delay: 1047.606118469282ms" />
<rect x="42" y="3" width="10" height="10" class="count1" style="animation-delay: 1069.6674364330543ms" /><rect x="42.5" y="3.5" width="9" height="9" class="st" style="animation-delay: 1069.6674364330543ms" />
<rect x="42" y="16" width="10" height="10" class="count1" style="animation-delay: 1090.8544553057086ms" /><rect x="42.5" y="16.5" width="9" height="9" class="st" style="animation-delay: 1090.8544553057086ms" />
<rect x="42" y="29" width="10" height="10" class="count2" style="animation-delay: 1111.248965394852ms" /><rect x="42.5" y="29.5" width="9" height="9" class="st" style="animation-delay: 1111.248965394852ms" />
<rect x="42" y="42" width="10" height="10" class="count1" style="animation-delay: 1130.9211616937307ms" /><rect x="42.5" y="42.5" width="9" height="9" class="st" style="animation-delay: 1130.9211616937307ms" />
<rect x="42" y="55" width="10" height="10" class="count1" style="animation-delay: 1149.9317906877259ms" /><rect x="42.5" y="55.5" width="9" height="9" class="st" style="animation-delay: 1149.9317906877259ms" />
<rect x="42" y="68" width="10" height="10" class="count1" style="animation-delay: 1168.3338154835205ms" /><rect x="42.5" y="68.5" width="9" height="9" class="st" style="animation-delay: 1168.3338154835205ms" />
<rect x="42" y="81" width="10" height="10" class="count1" style="animation-delay: 1186.1737245021882ms" /><rect x="42.5" y="81.5" width="9" height="9" class="st" style="animation-delay: 1186.1737245021882ms" />
<rect x="55" y="3" width="10" height="10" class="count1" style="animation-delay: 1203.4925723397412ms" /><rect x="55.5" y="3.5" width="9" height="9" class="st" style="animation-delay: 1203.4925723397412ms" />
<rect x="55" y="16" width="10" height="10" class="count1" style="animation-delay: 1220.3268165707216ms" /><rect x="55.5" y="16.5" width="9" height="9" class="st" style="animation-delay: 1220.3268165707216ms" />
<rect x="55" y="29" width="10" height="10" class="count2" style="animation-delay: 1236.7089971218327ms" /><rect x="55.5" y="29.5" width="9" height="9" class="st" style="animation-delay: 1236.7089971218327ms" />
<rect x="55" y="42" width="10" height="10" class="count3" style="animation-delay: 1252.6682927920162ms" /><rect x="55.5" y="42.5" width="9" height="9" class="st" style="animation-delay: 1252.6682927920162ms" />
<rect x="55" y="55" width="10" height="10" class="count3" style="animation-delay: 1268.23098089326ms" /><rect x="55.5" y="55.5" width="9" height="9" class="st" style="animation-delay: 1268.23098089326ms" />
<rect x="55" y="68" width="10" height="10" class="count1" style="animation-delay: 1283.4208197571888ms" /><rect x="55.5" y="68.5" width="9" height="9" class="st" style="animation-delay: 1283.4208197571888ms" />
<rect x="55" y="81" width="10" height="10" class="count2" style="animation-delay: 1298.2593692818364ms" /><rect x="55.5" y="81.5" width="9" height="9" class="st" style="animation-delay: 1298.2593692818364ms" />
<rect x="68" y="3" width="10" height="10" class="count0" style="animation-delay: 1312.7662612983847ms" /><rect x="68.5" y="3.5" width="9" height="9" class="st" style="animation-delay: 1312.7662612983847ms" />
<rect x="68" y="16" width="10" height="10" class="count2" style="animation-delay: 1326.9594289881031ms" /><rect x="68.5" y="16.5" width="9" height="9" class="st" style="animation-delay: 1326.9594289881031ms" />
<rect x="68" y="29" width="10" height="10" class="count2" style="animation-delay: 1340.8553026448515ms" /><rect x="68.5" y="29.5" width="9" height="9" class="st" style="animation-delay: 1340.8553026448515ms" />
<rect x="68" y="42" width="10" height="10" class="count1" style="animation-delay: 1354.4689775959232ms" /><rect x="68.5" y="42.5" width="9" height="9" class="st" style="animation-delay: 1354.4689775959232ms" />
<rect x="68" y="55" width="10" height="10" class="count2" style="animation-delay: 1367.8143589476642ms" /><rect x="68.5" y="55.5" width="9" height="9" class="st" style="animation-delay: 1367.8143589476642ms" />
<rect x="68" y="68" width="10" height="10" class="count2" style="animation-delay: 1380.9042869285192ms" /><rect x="68.5" y="68.5" width="9" height="9" class="st" style="animation-delay: 1380.9042869285192ms" />
<rect x="68" y="81" width="10" height="10" class="count1" style="animation-delay: 1393.7506458997464ms" /><rect x="68.5" y="81.5" width="9" height="9" class="st" style="animation-delay: 1393.7506458997464ms" />
<rect x="81" y="3" width="10" height="10" class="count1" style="animation-delay: 1406.3644595479577ms" /><rect x="81.5" y="3.5" width="9" height="9" class="st" style="animation-delay: 1406.3644595479577ms" />
<rect x="81" y="16" width="10" height="10" class="count3" style="animation-delay: 1418.7559743303332ms" /><rect x="81.5" y="16.5" width="9" height="9" class="st" style="animation-delay: 1418.7559743303332ms" />
<rect x="81" y="29" width="10" height="10" class="count5" style="animation-delay: 1430.9347328876154ms" /><rect x="81.5" y="29.5" width="9" height="9" class="st" style="animation-delay: 1430.9347328876154ms" />
<rect x="81" y="42" width="10" height="10" class="count2" style="animation-delay: 1442.9096388527885ms" /><rect x="81.5" y="42.5" width="9" height="9" class="st" style="animation-delay: 1442.9096388527885ms" />
<rect x="81" y="55" width="10" height="10" class="count4" style="animation-delay: 1454.6890142500763ms" /><rect x="81.5" y="55.5" width="9" height="9" class="st" style="animation-delay: 1454.6890142500763ms" />
<rect x="81" y="68" width="10" height="10" class="count5" style="animation-delay: 1466.2806504884222ms" /><rect x="81.5" y="68.5" width="9" height="9" class="st" style="animation-delay: 1466.2806504884222ms" />
<rect x="81" y="81" width="10" height="10" class="count5" style="animation-delay: 1477.6918537972372ms" /><rect x="81.5" y="81.5" width="9" height="9" class="st" style="animation-delay: 1477.6918537972372ms" />
<rect x="94" y="3" width="10" height="10" class="count5" style="animation-delay: 1488.929485823205ms" /><rect x="94.5" y="3.5" width="9" height="9" class="st" style="animation-delay: 1488.929485823205ms" />
<rect x="94" y="16" width="10" height="10" class="count3" style="animation-delay: 1500ms" /><rect x="94.5" y="16.5" width="9" height="9" class="st" style="animation-delay: 1500ms" />
<rect x="94" y="29" width="10" height="10" class="count5" style="animation-delay: 1511.070514176795ms" /><rect x="94.5" y="29.5" width="9" height="9" class="st" style="animation-delay: 1511.070514176795ms" />
<rect x="94" y="42" width="10" height="10" class="count6" style="animation-delay: 1522.3081462027633ms" /><rect x="94.5" y="42.5" width="9" height="9" class="st" style="animation-delay: 1522.3081462027633ms" />
<rect x="94" y="55" width="10" height="10" class="count2" style="animation-delay: 1533.719349511578ms" /><rect x="94.5" y="55.5" width="9" height="9" class="st" style="animation-delay: 1533.719349511578ms" />
<rect x="94" y="68" width="10" height="10" class="count2" style="animation-delay: 1545.3109857499237ms" /><rect x="94.5" y="68.5" width="9" height="9" class="st" style="animation-delay: 1545.3109857499237ms" />
<rect x="94" y="81" width="10" height="10" class="count1" style="animation-delay: 1557.0903611472118ms" /><rect x="94.5" y="81.5" width="9" height="9" class="st" style="animation-delay: 1557.0903611472118ms" />
<rect x="107" y="3" width="10" height="10" class="count4" style="animation-delay: 1569.0652671123844ms" /><rect x="107.5" y="3.5" width="9" height="9" class="st" style="animation-delay: 1569.0652671123844ms" />
<rect x="107" y="16" width="10" height="10" class="count1" style="animation-delay: 1581.2440256696666ms" /><rect x="107.5" y="16.5" width="9" height="9" class="st" style="animation-delay: 1581.2440256696666ms" />
<rect x="107" y="29" width="10" height="10" class="count0" style="animation-delay: 1593.6355404520423ms" /><rect x="107.5" y="29.5" width="9" height="9" class="st" style="animation-delay: 1593.6355404520423ms" />
<rect x="107" y="42" width="10" height="10" class="count1" style="animation-delay: 1606.2493541002536ms" /><rect x="107.5" y="42.5" width="9" height="9" class="st" style="animation-delay: 1606.2493541002536ms" />
<rect x="107" y="55" width="10" height="10" class="count4" style="animation-delay: 1619.0957130714808ms" /><rect x="107.5" y="55.5" width="9" height="9" class="st" style="animation-delay: 1619.0957130714808ms" />
<rect x="107" y="68" width="10" height="10" class="count4" style="animation-delay: 1632.1856410523358ms" /><rect x="107.5" y="68.5" width="9" height="9" class="st" style="animation-delay: 1632.1856410523358ms" />
<rect x="107" y="81" width="10" height="10" class="count5" style="animation-delay: 1645.5310224040768ms" /><rect x="107.5" y="81.5" width="9" height="9" class="st" style="animation-delay: 1645.5310224040768ms" />
<rect x="120" y="3" width="10" height="10" class="count3" style="animation-delay: 1659.1446973551485ms" /><rect x="120.5" y="3.5" width="9" height="9" class="st" style="animation-delay: 1659.1446973551485ms" />
<rect x="120" y="16" width="10" height="10" class="count4" style="animation-delay: 1673.0405710118969ms" /><rect x="120.5" y="16.5" width="9" height="9" class="st" style="animation-delay: 1673.0405710118969ms" />
<rect x="120" y="29" width="10" height="10" class="count6" style="animation-delay: 1687.2337387016153ms" /><rect x="120.5" y="29.5" width="9" height="9" class="st" style="animation-delay: 1687.2337387016153ms" />
<rect x="120" y="42" width="10" height="10" class="count6" style="animation-delay: 1701.7406307181636ms" /><rect x="120.5" y="42.5" width="9" height="9" class="st" style="animation-delay: 1701.7406307181636ms" />
<rect x="120" y="55" width="10" height="10" class="count6" style="animation-delay: 1716.5791802428112ms" /><rect x="120.5" y="55.5" width="9" height="9" class="st" style="animation-delay: 1716.5791802428112ms" />
<rect x="120" y="68" width="10" height="10" class="count8" style="animation-delay: 1731.7690191067397ms" /><rect x="120.5" y="68.5" width="9" height="9" class="st" style="animation-delay: 1731.7690191067397ms" />
<rect x="120" y="81" width="10" height="10" class="count7" style="animation-delay: 1747.331707207984ms" /><rect x="120.5" y="81.5" width="9" height="9" class="st" style="animation-delay: 1747.331707207984ms" />
<rect x="133" y="3" width="10" height="10" class="count5" style="animation-delay: 1763.2910028781673ms" /><rect x="133.5" y="3.5" width="9" height="9" class="st" style="animation-delay: 1763.2910028781673ms" />
<rect x="133" y="16" width="10" height="10" class="count5" style="animation-delay: 1779.6731834292784ms" /><rect x="133.5" y="16.5" width="9" height="9" class="st" style="animation-delay: 1779.6731834292784ms" />
<rect x="133" y="29" width="10" height="10" class="count5" style="animation-delay: 1796.5074276602588ms" /><rect x="133.5" y="29.5" width="9" height="9" class="st" style="animation-delay: 1796.5074276602588ms" />
<rect x="133" y="42" width="10" height="10" class="count5" style="animation-delay: 1813.8262754978116ms" /><rect x="133.5" y="42.5" width="9" height="9" class="st" style="animation-delay: 1813.8262754978116ms" />
<rect x="133" y="55" width="10" height="10" class="count7" style="animation-delay: 1831.6661845164795ms" /><rect x="133.5" y="55.5" width="9" height="9" class="st" style="animation-delay: 1831.6661845164795ms" />
<rect x="133" y="68" width="10" height="10" class="count3" style="animation-delay: 1850.0682093122741ms" /><rect x="133.5" y="68.5" width="9" height="9" class="st" style="animation-delay: 1850.0682093122741ms" />
<rect x="133" y="81" width="10" height="10" class="count5" style="animation-delay: 1869.0788383062693ms" /><rect x="133.5" y="81.5" width="9" height="9" class="st" style="animation-delay: 1869.0788383062693ms" />
<rect x="146" y="3" width="10" height="10" class="count6" style="animation-delay: 1888.7510346051477ms" /><rect x="146.5" y="3.5" width="9" height="9" class="st" style="animation-delay: 1888.7510346051477ms" />
<rect x="146" y="16" width="10" height="10" class="count4" style="animation-delay: 1909.1455446942916ms" /><rect x="146.5" y="16.5" width="9" height="9" class="st" style="animation-delay: 1909.1455446942916ms" />
<rect x="146" y="29" width="10" height="10" class="count3" style="animation-delay: 1930.3325635669455ms" /><rect x="146.5" y="29.5" width="9" height="9" class="st" style="animation-delay: 1930.3325635669455ms" />
<rect x="146" y="42" width="10" height="10" class="count3" style="animation-delay: 1952.3938815307183ms" /><rect x="146.5" y="42.5" width="9" height="9" class="st" style="animation-delay: 1952.3938815307183ms" />
<rect x="146" y="55" width="10" height="10" class="count3" style="animation-delay: 1975.425693153596ms" /><rect x="146.5" y="55.5" width="9" height="9" class="st" style="animation-delay: 1975.425693153596ms" />
<rect x="146" y="68" width="10" height="10" class="count3" style="animation-delay: 1999.5423340322168ms" /><rect x="146.5" y="68.5" width="9" height="9" class="st" style="animation-delay: 1999.5423340322168ms" />
<rect x="146" y="81" width="10" height="10" class="count3" style="animation-delay: 2024.8813461263865ms" /><rect x="146.5" y="81.5" width="9" height="9" class="st" style="animation-delay: 2024.8813461263865ms" />
<rect x="159" y="3" width="10" height="10" class="count1" style="animation-delay: 2051.610493004951ms" /><rect x="159.5" y="3.5" width="9" height="9" class="st" style="animation-delay: 2051.610493004951ms" />
<rect x="159" y="16" width="10" height="10" class="count3" style="animation-delay: 2079.937719305218ms" /><rect x="159.5" y="16.5" width="9" height="9" class="st" style="animation-delay: 2079.937719305218ms" />
<rect x="159" y="29" width="10" height="10" class="count1" style="animation-delay: 2110.1257048850193ms" /><rect x="159.5" y="29.5" width="9" height="9" class="st" style="animation-delay: 2110.1257048850193ms" />
<rect x="159" y="42" width="10" height="10" class="count0" style="animation-delay: 2142.513873754711ms" /><rect x="159.5" y="42.5" width="9" height="9" class="st" style="animation-delay: 2142.513873754711ms" />
<rect x="159" y="55" width="10" height="10" class="count1" style="animation-delay: 2177.553074777924ms" /><rect x="159.5" y="55.5" width="9" height="9" class="st" style="animation-delay: 2177.553074777924ms" />
<rect x="159" y="68" width="10" height="10" class="count0" style="animation-delay: 2215.863062137935ms" /><rect x="159.5" y="68.5" width="9" height="9" class="st" style="animation-delay: 2215.863062137935ms" />
<rect x="159" y="81" width="10" height="10" class="count0" style="animation-delay: 2258.334023143401ms" /><rect x="159.5" y="81.5" width="9" height="9" class="st" style="animation-delay: 2258.334023143401ms" />
<rect x="172" y="3" width="10" height="10" class="count0" style="animation-delay: 2306.3213977907158ms" /><rect x="172.5" y="3.5" width="9" height="9" class="st" style="animation-delay: 2306.3213977907158ms" />
<rect x="172" y="16" width="10" height="10" class="count2" style="animation-delay: 2362.064444575515ms" /><rect x="172.5" y="16.5" width="9" height="9" class="st" style="animation-delay: 2362.064444575515ms" />
<rect x="172" y="29" width="10" height="10" class="count0" style="animation-delay: 2429.7471518422603ms" /><rect x="172.5" y="29.5" width="9" height="9" class="st" style="animation-delay: 2429.7471518422603ms" />
<rect x="172" y="42" width="10" height="10" class="count1" style="animation-delay: 2519.0301203824033ms" /><rect x="172.5" y="42.5" width="9" height="9" class="st" style="animation-delay: 2519.0301203824033ms" />
<rect x="172" y="55" width="10" height="10" class="count1" style="animation-delay: 2666.5141113440727ms" /><rect x="172.5" y="55.5" width="9" height="9" class="st" style="animation-delay: 2666.5141113440727ms" />
</svg>

  