

<svg height="94" width="276" xmlns="http://www.w3.org/2000/svg" fill='#4FA1A7'>
  <style>
  rect {
  rx: 2;
  ry: 2;
  animation: wow .5s backwards;
  }
  .st {
  
  stroke: rgba(27, 31, 35, 0.06);
  stroke-width: 1;
  fill: none;
  }
  @keyframes wow {
  from {opacity: 0;}
  to{ opacity: 1;}}
  .count0 {fill: #ebedf0}
.count1 {fill: #9be9a8}
.count2 {fill: #9be9a8}
.count3 {fill: #40c463}
.count4 {fill: #40c463}
.count5 {fill: #30a14e}
.count6 {fill: #30a14e}
.count7 {fill: #216e39}
.count8 {fill: #216e39}
  </style>
<rect x="3" y="68" width="10" height="10" class="count3" style="animation-delay: 288.19396901664516ms" /><rect x="3.5" y="68.5" width="9" height="9" class="st" style="animation-delay: 288.19396901664516ms" />
<rect x="3" y="81" width="10" height="10" class="count3" style="animation-delay: 415.64762797944303ms" /><rect x="3.5" y="81.5" width="9" height="9" class="st" style="animation-delay: 415.64762797944303ms" />
<rect x="16" y="3" width="10" height="10" class="count1" style="animation-delay: 492.8047549957525ms" /><rect x="16.5" y="3.5" width="9" height="9" class="st" style="animation-delay: 492.8047549957525ms" />
<rect x="16" y="16" width="10" height="10" class="count2" style="animation-delay: 551.2952300188803ms" /><rect x="16.5" y="16.5" width="9" height="9" class="st" style="animation-delay: 551.2952300188803ms" />
<rect x="16" y="29" width="10" height="10" class="count5" style="animation-delay: 599.4676128526453ms" /><rect x="16.5" y="29.5" width="9" height="9" class="st" style="animation-delay: 599.4676128526453ms" />
<rect x="16" y="42" width="10" height="10" class="count1" style="animation-delay: 640.9376493151691ms" /><rect x="16.5" y="42.5" width="9" height="9" class="st" style="animation-delay: 640.9376493151691ms" />
<rect x="16" y="55" width="10" height="10" class="count3" style="animation-delay: 677.6404761407591ms" /><rect x="16.5" y="55.5" width="9" height="9" class="st" style="animation-delay: 677.6404761407591ms" />
<rect x="16" y="68" width="10" height="10" class="count2" style="animation-delay: 710.7474461380717ms" /><rect x="16.5" y="68.5" width="9" height="9" class="st" style="animation-delay: 710.7474461380717ms" />
<rect x="16" y="81" width="10" height="10" class="count2" style="animation-delay: 741.0278470712296ms" /><rect x="16.5" y="81.5" width="9" height="9" class="st" style="animation-delay: 741.0278470712296ms" />
<rect x="29" y="3" width="10" height="10" class="count2" style="animation-delay: 769.0172620757371ms" /><rect x="29.5" y="3.5" width="9" height="9" class="st" style="animation-delay: 769.0172620757371ms" />
<rect x="29" y="16" width="10" height="10" class="count1" style="animation-delay: 795.105308607254ms" /><rect x="29.5" y="16.5" width="9" height="9" class="st" style="animation-delay: 795.105308607254ms" />
<rect x="29" y="29" width="10" height="10" class="count2" style="animation-delay: 819.5853122788023ms" /><rect x="29.5" y="29.5" width="9" height="9" class="st" style="animation-delay: 819.5853122788023ms" />
<rect x="29" y="42" width="10" height="10" class="count2" style="animation-delay: 842.6842774506397ms" /><rect x="29.5" y="42.5" width="9" height="9" class="st" style="animation-delay: 842.6842774506397ms" />
<rect x="29" y="55" width="10" height="10" class="count1" style="animation-delay: 864.5819070499356ms" /><rect x="29.5" y="55.5" width="9" height="9" class="st" style="animation-delay: 864.5819070499356ms" />
<rect x="29" y="68" width="10" height="10" class="count3" style="animation-delay: 885.4231800710247ms" /><rect x="29.5" y="68.5" width="9" height="9" class="st" style="animation-delay: 885.4231800710247ms" />
<rect x="29" y="81" width="10" height="10" class="count2" style="animation-delay: 905.3269584047737ms" /><rect x="29.5" y="81.5" width="9" height="9" class="st" style="animation-delay: 905.3269584047737ms" />
<rect x="42" y="3" width="10" height="10" class="count1" style="animation-delay: 924.392049318643ms" /><rect x="42.5" y="3.5" width="9" height="9" class="st" style="animation-delay: 924.392049318643ms" />
<rect x="42" y="16" width="10" height="10" class="count1" style="animation-delay: 942.7015828498822ms" /><rect x="42.5" y="16.5" width="9" height="9" class="st" style="animation-delay: 942.7015828498822ms" />
<rect x="42" y="29" width="10" height="10" class="count2" style="animation-delay: 960.3262410698419ms" /><rect x="42.5" y="29.5" width="9" height="9" class="st" style="animation-delay: 960.3262410698419ms" />
<rect x="42" y="42" width="10" height="10" class="count1" style="animation-delay: 977.3266855369174ms" /><rect x="42.5" y="42.5" width="9" height="9" class="st" style="animation-delay: 977.3266855369174ms" />
<rect x="42" y="55" width="10" height="10" class="count1" style="animation-delay: 993.7554125375223ms" /><rect x="42.5" y="55.5" width="9" height="9" class="st" style="animation-delay: 993.7554125375223ms" />
<rect x="42" y="68" width="10" height="10" class="count1" style="animation-delay: 1009.6581920680665ms" /><rect x="42.5" y="68.5" width="9" height="9" class="st" style="animation-delay: 1009.6581920680665ms" />
<rect x="42" y="81" width="10" height="10" class="count1" style="animation-delay: 1025.0751987897218ms" /><rect x="42.5" y="81.5" width="9" height="9" class="st" style="animation-delay: 1025.0751987897218ms" />
<rect x="55" y="3" width="10" height="10" class="count1" style="animation-delay: 1040.041911525952ms" /><rect x="55.5" y="3.5" width="9" height="9" class="st" style="animation-delay: 1040.041911525952ms" />
<rect x="55" y="16" width="10" height="10" class="count1" style="animation-delay: 1054.589836416793ms" /><rect x="55.5" y="16.5" width="9" height="9" class="st" style="animation-delay: 1054.589836416793ms" />
<rect x="55" y="29" width="10" height="10" class="count2" style="animation-delay: 1068.7470940243047ms" /><rect x="55.5" y="29.5" width="9" height="9" class="st" style="animation-delay: 1068.7470940243047ms" />
<rect x="55" y="42" width="10" height="10" class="count3" style="animation-delay: 1082.5389002696534ms" /><rect x="55.5" y="42.5" width="9" height="9" class="st" style="animation-delay: 1082.5389002696534ms" />
<rect x="55" y="55" width="10" height="10" class="count3" style="animation-delay: 1095.9879636484432ms" /><rect x="55.5" y="55.5" width="9" height="9" class="st" style="animation-delay: 1095.9879636484432ms" />
<rect x="55" y="68" width="10" height="10" class="count1" style="animation-delay: 1109.1148157877114ms" /><rect x="55.5" y="68.5" width="9" height="9" class="st" style="animation-delay: 1109.1148157877114ms" />
<rect x="55" y="81" width="10" height="10" class="count2" style="animation-delay: 1121.9380884580892ms" /><rect x="55.5" y="81.5" width="9" height="9" class="st" style="animation-delay: 1121.9380884580892ms" />
<rect x="68" y="3" width="10" height="10" class="count0" style="animation-delay: 1134.4747472210588ms" /><rect x="68.5" y="3.5" width="9" height="9" class="st" style="animation-delay: 1134.4747472210588ms" />
<rect x="68" y="16" width="10" height="10" class="count2" style="animation-delay: 1146.7402896879514ms" /><rect x="68.5" y="16.5" width="9" height="9" class="st" style="animation-delay: 1146.7402896879514ms" />
<rect x="68" y="29" width="10" height="10" class="count2" style="animation-delay: 1158.7489146952423ms" /><rect x="68.5" y="29.5" width="9" height="9" class="st" style="animation-delay: 1158.7489146952423ms" />
<rect x="68" y="42" width="10" height="10" class="count1" style="animation-delay: 1170.5136674194564ms" /><rect x="68.5" y="42.5" width="9" height="9" class="st" style="animation-delay: 1170.5136674194564ms" />
<rect x="68" y="55" width="10" height="10" class="count2" style="animation-delay: 1182.0465644643657ms" /><rect x="68.5" y="55.5" width="9" height="9" class="st" style="animation-delay: 1182.0465644643657ms" />
<rect x="68" y="68" width="10" height="10" class="count2" style="animation-delay: 1193.358702180744ms" /><rect x="68.5" y="68.5" width="9" height="9" class="st" style="animation-delay: 1193.358702180744ms" />
<rect x="68" y="81" width="10" height="10" class="count1" style="animation-delay: 1204.4603508719435ms" /><rect x="68.5" y="81.5" width="9" height="9" class="st" style="animation-delay: 1204.4603508719435ms" />
<rect x="81" y="3" width="10" height="10" class="count1" style="animation-delay: 1215.3610370579938ms" /><rect x="81.5" y="3.5" width="9" height="9" class="st" style="animation-delay: 1215.3610370579938ms" />
<rect x="81" y="16" width="10" height="10" class="count3" style="animation-delay: 1226.069615587821ms" /><rect x="81.5" y="16.5" width="9" height="9" class="st" style="animation-delay: 1226.069615587821ms" />
<rect x="81" y="29" width="10" height="10" class="count5" style="animation-delay: 1236.5943330817593ms" /><rect x="81.5" y="29.5" width="9" height="9" class="st" style="animation-delay: 1236.5943330817593ms" />
<rect x="81" y="42" width="10" height="10" class="count2" style="animation-delay: 1246.9428839383293ms" /><rect x="81.5" y="42.5" width="9" height="9" class="st" style="animation-delay: 1246.9428839383293ms" />
<rect x="81" y="55" width="10" height="10" class="count4" style="animation-delay: 1257.1224599376721ms" /><rect x="81.5" y="55.5" width="9" height="9" class="st" style="animation-delay: 1257.1224599376721ms" />
<rect x="81" y="68" width="10" height="10" class="count5" style="animation-delay: 1267.1397943094205ms" /><rect x="81.5" y="68.5" width="9" height="9" class="st" style="animation-delay: 1267.1397943094205ms" />
<rect x="81" y="81" width="10" height="10" class="count5" style="animation-delay: 1277.0012009976547ms" /><rect x="81.5" y="81.5" width="9" height="9" class="st" style="animation-delay: 1277.0012009976547ms" />
<rect x="94" y="3" width="10" height="10" class="count5" style="animation-delay: 1286.7126097441087ms" /><rect x="94.5" y="3.5" width="9" height="9" class="st" style="animation-delay: 1286.7126097441087ms" />
<rect x="94" y="16" width="10" height="10" class="count3" style="animation-delay: 1296.2795975183872ms" /><rect x="94.5" y="16.5" width="9" height="9" class="st" style="animation-delay: 1296.2795975183872ms" />
<rect x="94" y="29" width="10" height="10" class="count5" style="animation-delay: 1305.707416746998ms" /><rect x="94.5" y="29.5" width="9" height="9" class="st" style="animation-delay: 1305.707416746998ms" />
<rect x="94" y="42" width="10" height="10" class="count6" style="animation-delay: 1315.00102072868ms" /><rect x="94.5" y="42.5" width="9" height="9" class="st" style="animation-delay: 1315.00102072868ms" />
<rect x="94" y="55" width="10" height="10" class="count2" style="animation-delay: 1324.1650865694676ms" /><rect x="94.5" y="55.5" width="9" height="9" class="st" style="animation-delay: 1324.1650865694676ms" />
<rect x="94" y="68" width="10" height="10" class="count2" style="animation-delay: 1333.2040359253976ms" /><rect x="94.5" y="68.5" width="9" height="9" class="st" style="animation-delay: 1333.2040359253976ms" />
<rect x="94" y="81" width="10" height="10" class="count1" style="animation-delay: 1342.1220538022405ms" /><rect x="94.5" y="81.5" width="9" height="9" class="st" style="animation-delay: 1342.1220538022405ms" />
<rect x="107" y="3" width="10" height="10" class="count4" style="animation-delay: 1350.9231056289134ms" /><rect x="107.5" y="3.5" width="9" height="9" class="st" style="animation-delay: 1350.9231056289134ms" />
<rect x="107" y="16" width="10" height="10" class="count1" style="animation-delay: 1359.6109527933563ms" /><rect x="107.5" y="16.5" width="9" height="9" class="st" style="animation-delay: 1359.6109527933563ms" />
<rect x="107" y="29" width="10" height="10" class="count0" style="animation-delay: 1368.1891668058338ms" /><rect x="107.5" y="29.5" width="9" height="9" class="st" style="animation-delay: 1368.1891668058338ms" />
<rect x="107" y="42" width="10" height="10" class="count1" style="animation-delay: 1376.6611422341757ms" /><rect x="107.5" y="42.5" width="9" height="9" class="st" style="animation-delay: 1376.6611422341757ms" />
<rect x="107" y="55" width="10" height="10" class="count4" style="animation-delay: 1385.0301085379083ms" /><rect x="107.5" y="55.5" width="9" height="9" class="st" style="animation-delay: 1385.0301085379083ms" />
<rect x="107" y="68" width="10" height="10" class="count4" style="animation-delay: 1393.2991409130523ms" /><rect x="107.5" y="68.5" width="9" height="9" class="st" style="animation-delay: 1393.2991409130523ms" />
<rect x="107" y="81" width="10" height="10" class="count5" style="animation-delay: 1401.4711702462614ms" /><rect x="107.5" y="81.5" width="9" height="9" class="st" style="animation-delay: 1401.4711702462614ms" />
<rect x="120" y="3" width="10" height="10" class="count3" style="animation-delay: 1409.5489922655827ms" /><rect x="120.5" y="3.5" width="9" height="9" class="st" style="animation-delay: 1409.5489922655827ms" />
<rect x="120" y="16" width="10" height="10" class="count4" style="animation-delay: 1417.5352759652444ms" /><rect x="120.5" y="16.5" width="9" height="9" class="st" style="animation-delay: 1417.5352759652444ms" />
<rect x="120" y="29" width="10" height="10" class="count6" style="animation-delay: 1425.432571373234ms" /><rect x="120.5" y="29.5" width="9" height="9" class="st" style="animation-delay: 1425.432571373234ms" />
<rect x="120" y="42" width="10" height="10" class="count6" style="animation-delay: 1433.243316722903ms" /><rect x="120.5" y="42.5" width="9" height="9" class="st" style="animation-delay: 1433.243316722903ms" />
<rect x="120" y="55" width="10" height="10" class="count6" style="animation-delay: 1440.969845083226ms" /><rect x="120.5" y="55.5" width="9" height="9" class="st" style="animation-delay: 1440.969845083226ms" />
<rect x="120" y="68" width="10" height="10" class="count8" style="animation-delay: 1448.6143904965438ms" /><rect x="120.5" y="68.5" width="9" height="9" class="st" style="animation-delay: 1448.6143904965438ms" />
<rect x="120" y="81" width="10" height="10" class="count7" style="animation-delay: 1456.1790936675236ms" /><rect x="120.5" y="81.5" width="9" height="9" class="st" style="animation-delay: 1456.1790936675236ms" />
<rect x="133" y="3" width="10" height="10" class="count5" style="animation-delay: 1463.666007242567ms" /><rect x="133.5" y="3.5" width="9" height="9" class="st" style="animation-delay: 1463.666007242567ms" />
<rect x="133" y="16" width="10" height="10" class="count5" style="animation-delay: 1471.077100714924ms" /><rect x="133.5" y="16.5" width="9" height="9" class="st" style="animation-delay: 1471.077100714924ms" />
<rect x="133" y="29" width="10" height="10" class="count5" style="animation-delay: 1478.4142649872576ms" /><rect x="133.5" y="29.5" width="9" height="9" class="st" style="animation-delay: 1478.4142649872576ms" />
<rect x="133" y="42" width="10" height="10" class="count5" style="animation-delay: 1485.679316620274ms" /><rect x="133.5" y="42.5" width="9" height="9" class="st" style="animation-delay: 1485.679316620274ms" />
<rect x="133" y="55" width="10" height="10" class="count7" style="animation-delay: 1492.8740017932741ms" /><rect x="133.5" y="55.5" width="9" height="9" class="st" style="animation-delay: 1492.8740017932741ms" />
<rect x="133" y="68" width="10" height="10" class="count3" style="animation-delay: 1500ms" /><rect x="133.5" y="68.5" width="9" height="9" class="st" style="animation-delay: 1500ms" />
<rect x="133" y="81" width="10" height="10" class="count5" style="animation-delay: 1507.125998206726ms" /><rect x="133.5" y="81.5" width="9" height="9" class="st" style="animation-delay: 1507.125998206726ms" />
<rect x="146" y="3" width="10" height="10" class="count6" style="animation-delay: 1514.320683379726ms" /><rect x="146.5" y="3.5" width="9" height="9" class="st" style="animation-delay: 1514.320683379726ms" />
<rect x="146" y="16" width="10" height="10" class="count4" style="animation-delay: 1521.5857350127426ms" /><rect x="146.5" y="16.5" width="9" height="9" class="st" style="animation-delay: 1521.5857350127426ms" />
<rect x="146" y="29" width="10" height="10" class="count3" style="animation-delay: 1528.922899285076ms" /><rect x="146.5" y="29.5" width="9" height="9" class="st" style="animation-delay: 1528.922899285076ms" />
<rect x="146" y="42" width="10" height="10" class="count3" style="animation-delay: 1536.3339927574332ms" /><rect x="146.5" y="42.5" width="9" height="9" class="st" style="animation-delay: 1536.3339927574332ms" />
<rect x="146" y="55" width="10" height="10" class="count3" style="animation-delay: 1543.8209063324764ms" /><rect x="146.5" y="55.5" width="9" height="9" class="st" style="animation-delay: 1543.8209063324764ms" />
<rect x="146" y="68" width="10" height="10" class="count3" style="animation-delay: 1551.3856095034562ms" /><rect x="146.5" y="68.5" width="9" height="9" class="st" style="animation-delay: 1551.3856095034562ms" />
<rect x="146" y="81" width="10" height="10" class="count3" style="animation-delay: 1559.030154916774ms" /><rect x="146.5" y="81.5" width="9" height="9" class="st" style="animation-delay: 1559.030154916774ms" />
<rect x="159" y="3" width="10" height="10" class="count1" style="animation-delay: 1566.756683277097ms" /><rect x="159.5" y="3.5" width="9" height="9" class="st" style="animation-delay: 1566.756683277097ms" />
<rect x="159" y="16" width="10" height="10" class="count3" style="animation-delay: 1574.5674286267658ms" /><rect x="159.5" y="16.5" width="9" height="9" class="st" style="animation-delay: 1574.5674286267658ms" />
<rect x="159" y="29" width="10" height="10" class="count1" style="animation-delay: 1582.4647240347556ms" /><rect x="159.5" y="29.5" width="9" height="9" class="st" style="animation-delay: 1582.4647240347556ms" />
<rect x="159" y="42" width="10" height="10" class="count0" style="animation-delay: 1590.4510077344173ms" /><rect x="159.5" y="42.5" width="9" height="9" class="st" style="animation-delay: 1590.4510077344173ms" />
<rect x="159" y="55" width="10" height="10" class="count1" style="animation-delay: 1598.5288297537388ms" /><rect x="159.5" y="55.5" width="9" height="9" class="st" style="animation-delay: 1598.5288297537388ms" />
<rect x="159" y="68" width="10" height="10" class="count0" style="animation-delay: 1606.7008590869477ms" /><rect x="159.5" y="68.5" width="9" height="9" class="st" style="animation-delay: 1606.7008590869477ms" />
<rect x="159" y="81" width="10" height="10" class="count0" style="animation-delay: 1614.9698914620917ms" /><rect x="159.5" y="81.5" width="9" height="9" class="st" style="animation-delay: 1614.9698914620917ms" />
<rect x="172" y="3" width="10" height="10" class="count0" style="animation-delay: 1623.338857765824ms" /><rect x="172.5" y="3.5" width="9" height="9" class="st" style="animation-delay: 1623.338857765824ms" />
<rect x="172" y="16" width="10" height="10" class="count2" style="animation-delay: 1631.8108331941662ms" /><rect x="172.5" y="16.5" width="9" height="9" class="st" style="animation-delay: 1631.8108331941662ms" />
<rect x="172" y="29" width="10" height="10" class="count0" style="animation-delay: 1640.3890472066437ms" /><rect x="172.5" y="29.5" width="9" height="9" class="st" style="animation-delay: 1640.3890472066437ms" />
<rect x="172" y="42" width="10" height="10" class="count1" style="animation-delay: 1649.0768943710868ms" /><rect x="172.5" y="42.5" width="9" height="9" class="st" style="animation-delay: 1649.0768943710868ms" />
<rect x="172" y="55" width="10" height="10" class="count1" style="animation-delay: 1657.8779461977595ms" /><rect x="172.5" y="55.5" width="9" height="9" class="st" style="animation-delay: 1657.8779461977595ms" />
<rect x="172" y="68" width="10" height="10" class="count1" style="animation-delay: 1666.7959640746024ms" /><rect x="172.5" y="68.5" width="9" height="9" class="st" style="animation-delay: 1666.7959640746024ms" />
<rect x="172" y="81" width="10" height="10" class="count1" style="animation-delay: 1675.8349134305327ms" /><rect x="172.5" y="81.5" width="9" height="9" class="st" style="animation-delay: 1675.8349134305327ms" />
<rect x="185" y="3" width="10" height="10" class="count0" style="animation-delay: 1684.99897927132ms" /><rect x="185.5" y="3.5" width="9" height="9" class="st" style="animation-delay: 1684.99897927132ms" />
<rect x="185" y="16" width="10" height="10" class="count3" style="animation-delay: 1694.292583253002ms" /><rect x="185.5" y="16.5" width="9" height="9" class="st" style="animation-delay: 1694.292583253002ms" />
<rect x="185" y="29" width="10" height="10" class="count0" style="animation-delay: 1703.720402481613ms" /><rect x="185.5" y="29.5" width="9" height="9" class="st" style="animation-delay: 1703.720402481613ms" />
<rect x="185" y="42" width="10" height="10" class="count0" style="animation-delay: 1713.2873902558913ms" /><rect x="185.5" y="42.5" width="9" height="9" class="st" style="animation-delay: 1713.2873902558913ms" />
<rect x="185" y="55" width="10" height="10" class="count2" style="animation-delay: 1722.9987990023453ms" /><rect x="185.5" y="55.5" width="9" height="9" class="st" style="animation-delay: 1722.9987990023453ms" />
<rect x="185" y="68" width="10" height="10" class="count1" style="animation-delay: 1732.8602056905793ms" /><rect x="185.5" y="68.5" width="9" height="9" class="st" style="animation-delay: 1732.8602056905793ms" />
<rect x="185" y="81" width="10" height="10" class="count0" style="animation-delay: 1742.8775400623279ms" /><rect x="185.5" y="81.5" width="9" height="9" class="st" style="animation-delay: 1742.8775400623279ms" />
<rect x="198" y="3" width="10" height="10" class="count0" style="animation-delay: 1753.0571160616707ms" /><rect x="198.5" y="3.5" width="9" height="9" class="st" style="animation-delay: 1753.0571160616707ms" />
<rect x="198" y="16" width="10" height="10" class="count0" style="animation-delay: 1763.4056669182407ms" /><rect x="198.5" y="16.5" width="9" height="9" class="st" style="animation-delay: 1763.4056669182407ms" />
<rect x="198" y="29" width="10" height="10" class="count0" style="animation-delay: 1773.9303844121787ms" /><rect x="198.5" y="29.5" width="9" height="9" class="st" style="animation-delay: 1773.9303844121787ms" />
<rect x="198" y="42" width="10" height="10" class="count0" style="animation-delay: 1784.6389629420062ms" /><rect x="198.5" y="42.5" width="9" height="9" class="st" style="animation-delay: 1784.6389629420062ms" />
<rect x="198" y="55" width="10" height="10" class="count0" style="animation-delay: 1795.5396491280565ms" /><rect x="198.5" y="55.5" width="9" height="9" class="st" style="animation-delay: 1795.5396491280565ms" />
<rect x="198" y="68" width="10" height="10" class="count0" style="animation-delay: 1806.641297819256ms" /><rect x="198.5" y="68.5" width="9" height="9" class="st" style="animation-delay: 1806.641297819256ms" />
<rect x="198" y="81" width="10" height="10" class="count0" style="animation-delay: 1817.9534355356343ms" /><rect x="198.5" y="81.5" width="9" height="9" class="st" style="animation-delay: 1817.9534355356343ms" />
<rect x="211" y="3" width="10" height="10" class="count0" style="animation-delay: 1829.4863325805436ms" /><rect x="211.5" y="3.5" width="9" height="9" class="st" style="animation-delay: 1829.4863325805436ms" />
<rect x="211" y="16" width="10" height="10" class="count0" style="animation-delay: 1841.2510853047577ms" /><rect x="211.5" y="16.5" width="9" height="9" class="st" style="animation-delay: 1841.2510853047577ms" />
<rect x="211" y="29" width="10" height="10" class="count0" style="animation-delay: 1853.2597103120486ms" /><rect x="211.5" y="29.5" width="9" height="9" class="st" style="animation-delay: 1853.2597103120486ms" />
<rect x="211" y="42" width="10" height="10" class="count0" style="animation-delay: 1865.525252778941ms" /><rect x="211.5" y="42.5" width="9" height="9" class="st" style="animation-delay: 1865.525252778941ms" />
<rect x="211" y="55" width="10" height="10" class="count0" style="animation-delay: 1878.0619115419108ms" /><rect x="211.5" y="55.5" width="9" height="9" class="st" style="animation-delay: 1878.0619115419108ms" />
<rect x="211" y="68" width="10" height="10" class="count0" style="animation-delay: 1890.8851842122886ms" /><rect x="211.5" y="68.5" width="9" height="9" class="st" style="animation-delay: 1890.8851842122886ms" />
<rect x="211" y="81" width="10" height="10" class="count0" style="animation-delay: 1904.0120363515568ms" /><rect x="211.5" y="81.5" width="9" height="9" class="st" style="animation-delay: 1904.0120363515568ms" />
<rect x="224" y="3" width="10" height="10" class="count0" style="animation-delay: 1917.4610997303464ms" /><rect x="224.5" y="3.5" width="9" height="9" class="st" style="animation-delay: 1917.4610997303464ms" />
<rect x="224" y="16" width="10" height="10" class="count0" style="animation-delay: 1931.2529059756953ms" /><rect x="224.5" y="16.5" width="9" height="9" class="st" style="animation-delay: 1931.2529059756953ms" />
<rect x="224" y="29" width="10" height="10" class="count0" style="animation-delay: 1945.410163583207ms" /><rect x="224.5" y="29.5" width="9" height="9" class="st" style="animation-delay: 1945.410163583207ms" />
<rect x="224" y="42" width="10" height="10" class="count0" style="animation-delay: 1959.9580884740483ms" /><rect x="224.5" y="42.5" width="9" height="9" class="st" style="animation-delay: 1959.9580884740483ms" />
<rect x="224" y="55" width="10" height="10" class="count0" style="animation-delay: 1974.9248012102785ms" /><rect x="224.5" y="55.5" width="9" height="9" class="st" style="animation-delay: 1974.9248012102785ms" />
<rect x="224" y="68" width="10" height="10" class="count0" style="animation-delay: 1990.3418079319338ms" /><rect x="224.5" y="68.5" width="9" height="9" class="st" style="animation-delay: 1990.3418079319338ms" />
<rect x="224" y="81" width="10" height="10" class="count0" style="animation-delay: 2006.2445874624777ms" /><rect x="224.5" y="81.5" width="9" height="9" class="st" style="animation-delay: 2006.2445874624777ms" />
<rect x="237" y="3" width="10" height="10" class="count1" style="animation-delay: 2022.6733144630825ms" /><rect x="237.5" y="3.5" width="9" height="9" class="st" style="animation-delay: 2022.6733144630825ms" />
<rect x="237" y="16" width="10" height="10" class="count1" style="animation-delay: 2039.673758930158ms" /><rect x="237.5" y="16.5" width="9" height="9" class="st" style="animation-delay: 2039.673758930158ms" />
<rect x="237" y="29" width="10" height="10" class="count1" style="animation-delay: 2057.2984171501175ms" /><rect x="237.5" y="29.5" width="9" height="9" class="st" style="animation-delay: 2057.2984171501175ms" />
<rect x="237" y="42" width="10" height="10" class="count0" style="animation-delay: 2075.607950681357ms" /><rect x="237.5" y="42.5" width="9" height="9" class="st" style="animation-delay: 2075.607950681357ms" />
<rect x="237" y="55" width="10" height="10" class="count0" style="animation-delay: 2094.673041595226ms" /><rect x="237.5" y="55.5" width="9" height="9" class="st" style="animation-delay: 2094.673041595226ms" />
<rect x="237" y="68" width="10" height="10" class="count0" style="animation-delay: 2114.576819928975ms" /><rect x="237.5" y="68.5" width="9" height="9" class="st" style="animation-delay: 2114.576819928975ms" />
<rect x="237" y="81" width="10" height="10" class="count0" style="animation-delay: 2135.4180929500644ms" /><rect x="237.5" y="81.5" width="9" height="9" class="st" style="animation-delay: 2135.4180929500644ms" />
<rect x="250" y="3" width="10" height="10" class="count0" style="animation-delay: 2157.3157225493605ms" /><rect x="250.5" y="3.5" width="9" height="9" class="st" style="animation-delay: 2157.3157225493605ms" />
<rect x="250" y="16" width="10" height="10" class="count0" style="animation-delay: 2180.4146877211974ms" /><rect x="250.5" y="16.5" width="9" height="9" class="st" style="animation-delay: 2180.4146877211974ms" />
<rect x="250" y="29" width="10" height="10" class="count1" style="animation-delay: 2204.8946913927457ms" /><rect x="250.5" y="29.5" width="9" height="9" class="st" style="animation-delay: 2204.8946913927457ms" />
<rect x="250" y="42" width="10" height="10" class="count1" style="animation-delay: 2230.9827379242624ms" /><rect x="250.5" y="42.5" width="9" height="9" class="st" style="animation-delay: 2230.9827379242624ms" />
<rect x="250" y="55" width="10" height="10" class="count0" style="animation-delay: 2258.97215292877ms" /><rect x="250.5" y="55.5" width="9" height="9" class="st" style="animation-delay: 2258.97215292877ms" />
<rect x="250" y="68" width="10" height="10" class="count0" style="animation-delay: 2289.2525538619284ms" /><rect x="250.5" y="68.5" width="9" height="9" class="st" style="animation-delay: 2289.2525538619284ms" />
<rect x="250" y="81" width="10" height="10" class="count0" style="animation-delay: 2322.359523859241ms" /><rect x="250.5" y="81.5" width="9" height="9" class="st" style="animation-delay: 2322.359523859241ms" />
<rect x="263" y="3" width="10" height="10" class="count0" style="animation-delay: 2359.062350684831ms" /><rect x="263.5" y="3.5" width="9" height="9" class="st" style="animation-delay: 2359.062350684831ms" />
<rect x="263" y="16" width="10" height="10" class="count0" style="animation-delay: 2400.5323871473547ms" /><rect x="263.5" y="16.5" width="9" height="9" class="st" style="animation-delay: 2400.5323871473547ms" />
<rect x="263" y="29" width="10" height="10" class="count0" style="animation-delay: 2448.70476998112ms" /><rect x="263.5" y="29.5" width="9" height="9" class="st" style="animation-delay: 2448.70476998112ms" />
<rect x="263" y="42" width="10" height="10" class="count2" style="animation-delay: 2507.1952450042477ms" /><rect x="263.5" y="42.5" width="9" height="9" class="st" style="animation-delay: 2507.1952450042477ms" />
<rect x="263" y="55" width="10" height="10" class="count1" style="animation-delay: 2584.3523720205576ms" /><rect x="263.5" y="55.5" width="9" height="9" class="st" style="animation-delay: 2584.3523720205576ms" />
<rect x="263" y="68" width="10" height="10" class="count3" style="animation-delay: 2711.8060309833563ms" /><rect x="263.5" y="68.5" width="9" height="9" class="st" style="animation-delay: 2711.8060309833563ms" />
</svg>

  