

<svg height="94" width="172" xmlns="http://www.w3.org/2000/svg" fill='#4FA1A7'>
  <style>
  rect {
  rx: 2;
  ry: 2;
  animation: wow .5s backwards;
  }
  .st {
  
  stroke: rgba(27, 31, 35, 0.06);
  stroke-width: 1;
  fill: none;
  }
  @keyframes wow {
  from {opacity: 0;}
  to{ opacity: 1;}}
  .count0 {fill: #ebedf0}
.count1 {fill: #9be9a8}
.count2 {fill: #9be9a8}
.count3 {fill: #40c463}
.count4 {fill: #40c463}
.count5 {fill: #30a14e}
.count6 {fill: #30a14e}
.count7 {fill: #216e39}
.count8 {fill: #216e39}
  </style>
<rect x="3" y="68" width="10" height="10" class="count3" style="animation-delay: 345.26559841804107ms" /><rect x="3.5" y="68.5" width="9" height="9" class="st" style="animation-delay: 345.26559841804107ms" />
<rect x="3" y="81" width="10" height="10" class="count3" style="animation-delay: 497.95916096034995ms" /><rect x="3.5" y="81.5" width="9" height="9" class="st" style="animation-delay: 497.95916096034995ms" />
<rect x="16" y="3" width="10" height="10" class="count1" style="animation-delay: 590.395868509786ms" /><rect x="16.5" y="3.5" width="9" height="9" class="st" style="animation-delay: 590.395868509786ms" />
<rect x="16" y="16" width="10" height="10" class="count2" style="animation-delay: 660.4693295524401ms" /><rect x="16.5" y="16.5" width="9" height="9" class="st" style="animation-delay: 660.4693295524401ms" />
<rect x="16" y="29" width="10" height="10" class="count5" style="animation-delay: 718.1813859257023ms" /><rect x="16.5" y="29.5" width="9" height="9" class="st" style="animation-delay: 718.1813859257023ms" />
<rect x="16" y="42" width="10" height="10" class="count1" style="animation-delay: 767.863816840224ms" /><rect x="16.5" y="42.5" width="9" height="9" class="st" style="animation-delay: 767.863816840224ms" />
<rect x="16" y="55" width="10" height="10" class="count3" style="animation-delay: 811.834978037005ms" /><rect x="16.5" y="55.5" width="9" height="9" class="st" style="animation-delay: 811.834978037005ms" />
<rect x="16" y="68" width="10" height="10" class="count2" style="animation-delay: 851.4981876695082ms" /><rect x="16.5" y="68.5" width="9" height="9" class="st" style="animation-delay: 851.4981876695082ms" />
<rect x="16" y="81" width="10" height="10" class="count2" style="animation-delay: 887.7750770999081ms" /><rect x="16.5" y="81.5" width="9" height="9" class="st" style="animation-delay: 887.7750770999081ms" />
<rect x="29" y="3" width="10" height="10" class="count2" style="animation-delay: 921.3072920656698ms" /><rect x="29.5" y="3.5" width="9" height="9" class="st" style="animation-delay: 921.3072920656698ms" />
<rect x="29" y="16" width="10" height="10" class="count1" style="animation-delay: 952.5616067482287ms" /><rect x="29.5" y="16.5" width="9" height="9" class="st" style="animation-delay: 952.5616067482287ms" />
<rect x="29" y="29" width="10" height="10" class="count2" style="animation-delay: 981.8894346197579ms" /><rect x="29.5" y="29.5" width="9" height="9" class="st" style="animation-delay: 981.8894346197579ms" />
<rect x="29" y="42" width="10" height="10" class="count2" style="animation-delay: 1009.5627341690322ms" /><rect x="29.5" y="42.5" width="9" height="9" class="st" style="animation-delay: 1009.5627341690322ms" />
<rect x="29" y="55" width="10" height="10" class="count1" style="animation-delay: 1035.7967952541233ms" /><rect x="29.5" y="55.5" width="9" height="9" class="st" style="animation-delay: 1035.7967952541233ms" />
<rect x="29" y="68" width="10" height="10" class="count3" style="animation-delay: 1060.7653073502404ms" /><rect x="29.5" y="68.5" width="9" height="9" class="st" style="animation-delay: 1060.7653073502404ms" />
<rect x="29" y="81" width="10" height="10" class="count2" style="animation-delay: 1084.6106708067707ms" /><rect x="29.5" y="81.5" width="9" height="9" class="st" style="animation-delay: 1084.6106708067707ms" />
<rect x="42" y="3" width="10" height="10" class="count1" style="animation-delay: 1107.4512598924196ms" /><rect x="42.5" y="3.5" width="9" height="9" class="st" style="animation-delay: 1107.4512598924196ms" />
<rect x="42" y="16" width="10" height="10" class="count1" style="animation-delay: 1129.3866670523569ms" /><rect x="42.5" y="16.5" width="9" height="9" class="st" style="animation-delay: 1129.3866670523569ms" />
<rect x="42" y="29" width="10" height="10" class="count2" style="animation-delay: 1150.501571670213ms" /><rect x="42.5" y="29.5" width="9" height="9" class="st" style="animation-delay: 1150.501571670213ms" />
<rect x="42" y="42" width="10" height="10" class="count1" style="animation-delay: 1170.8686482343949ms" /><rect x="42.5" y="42.5" width="9" height="9" class="st" style="animation-delay: 1170.8686482343949ms" />
<rect x="42" y="55" width="10" height="10" class="count1" style="animation-delay: 1190.5507889761498ms" /><rect x="42.5" y="55.5" width="9" height="9" class="st" style="animation-delay: 1190.5507889761498ms" />
<rect x="42" y="68" width="10" height="10" class="count1" style="animation-delay: 1209.6028278160268ms" /><rect x="42.5" y="68.5" width="9" height="9" class="st" style="animation-delay: 1209.6028278160268ms" />
<rect x="42" y="81" width="10" height="10" class="count1" style="animation-delay: 1228.0728952838851ms" /><rect x="42.5" y="81.5" width="9" height="9" class="st" style="animation-delay: 1228.0728952838851ms" />
<rect x="55" y="3" width="10" height="10" class="count1" style="animation-delay: 1246.00349614572ms" /><rect x="55.5" y="3.5" width="9" height="9" class="st" style="animation-delay: 1246.00349614572ms" />
<rect x="55" y="16" width="10" height="10" class="count1" style="animation-delay: 1263.432375765636ms" /><rect x="55.5" y="16.5" width="9" height="9" class="st" style="animation-delay: 1263.432375765636ms" />
<rect x="55" y="29" width="10" height="10" class="count2" style="animation-delay: 1280.3932234769688ms" /><rect x="55.5" y="29.5" width="9" height="9" class="st" style="animation-delay: 1280.3932234769688ms" />
<rect x="55" y="42" width="10" height="10" class="count3" style="animation-delay: 1296.9162487603012ms" /><rect x="55.5" y="42.5" width="9" height="9" class="st" style="animation-delay: 1296.9162487603012ms" />
<rect x="55" y="55" width="10" height="10" class="count3" style="animation-delay: 1313.0286571201439ms" /><rect x="55.5" y="55.5" width="9" height="9" class="st" style="animation-delay: 1313.0286571201439ms" />
<rect x="55" y="68" width="10" height="10" class="count1" style="animation-delay: 1328.7550461027943ms" /><rect x="55.5" y="68.5" width="9" height="9" class="st" style="animation-delay: 1328.7550461027943ms" />
<rect x="55" y="81" width="10" height="10" class="count2" style="animation-delay: 1344.1177371657702ms" /><rect x="55.5" y="81.5" width="9" height="9" class="st" style="animation-delay: 1344.1177371657702ms" />
<rect x="68" y="3" width="10" height="10" class="count0" style="animation-delay: 1359.1370555947049ms" /><rect x="68.5" y="3.5" width="9" height="9" class="st" style="animation-delay: 1359.1370555947049ms" />
<rect x="68" y="16" width="10" height="10" class="count2" style="animation-delay: 1373.8315680239675ms" /><rect x="68.5" y="16.5" width="9" height="9" class="st" style="animation-delay: 1373.8315680239675ms" />
<rect x="68" y="29" width="10" height="10" class="count2" style="animation-delay: 1388.2182851140833ms" /><rect x="68.5" y="29.5" width="9" height="9" class="st" style="animation-delay: 1388.2182851140833ms" />
<rect x="68" y="42" width="10" height="10" class="count1" style="animation-delay: 1402.3128354040355ms" /><rect x="68.5" y="42.5" width="9" height="9" class="st" style="animation-delay: 1402.3128354040355ms" />
<rect x="68" y="55" width="10" height="10" class="count2" style="animation-delay: 1416.12961516973ms" /><rect x="68.5" y="55.5" width="9" height="9" class="st" style="animation-delay: 1416.12961516973ms" />
<rect x="68" y="68" width="10" height="10" class="count2" style="animation-delay: 1429.6819181945275ms" /><rect x="68.5" y="68.5" width="9" height="9" class="st" style="animation-delay: 1429.6819181945275ms" />
<rect x="68" y="81" width="10" height="10" class="count1" style="animation-delay: 1442.982048630541ms" /><rect x="68.5" y="81.5" width="9" height="9" class="st" style="animation-delay: 1442.982048630541ms" />
<rect x="81" y="3" width="10" height="10" class="count1" style="animation-delay: 1456.0414195536591ms" /><rect x="81.5" y="3.5" width="9" height="9" class="st" style="animation-delay: 1456.0414195536591ms" />
<rect x="81" y="16" width="10" height="10" class="count3" style="animation-delay: 1468.8706393562907ms" /><rect x="81.5" y="16.5" width="9" height="9" class="st" style="animation-delay: 1468.8706393562907ms" />
<rect x="81" y="29" width="10" height="10" class="count5" style="animation-delay: 1481.4795877535262ms" /><rect x="81.5" y="29.5" width="9" height="9" class="st" style="animation-delay: 1481.4795877535262ms" />
<rect x="81" y="42" width="10" height="10" class="count2" style="animation-delay: 1493.87748288105ms" /><rect x="81.5" y="42.5" width="9" height="9" class="st" style="animation-delay: 1493.87748288105ms" />
<rect x="81" y="55" width="10" height="10" class="count4" style="animation-delay: 1506.12251711895ms" /><rect x="81.5" y="55.5" width="9" height="9" class="st" style="animation-delay: 1506.12251711895ms" />
<rect x="81" y="68" width="10" height="10" class="count5" style="animation-delay: 1518.5204122464738ms" /><rect x="81.5" y="68.5" width="9" height="9" class="st" style="animation-delay: 1518.5204122464738ms" />
<rect x="81" y="81" width="10" height="10" class="count5" style="animation-delay: 1531.1293606437096ms" /><rect x="81.5" y="81.5" width="9" height="9" class="st" style="animation-delay: 1531.1293606437096ms" />
<rect x="94" y="3" width="10" height="10" class="count5" style="animation-delay: 1543.9585804463409ms" /><rect x="94.5" y="3.5" width="9" height="9" class="st" style="animation-delay: 1543.9585804463409ms" />
<rect x="94" y="16" width="10" height="10" class="count3" style="animation-delay: 1557.0179513694593ms" /><rect x="94.5" y="16.5" width="9" height="9" class="st" style="animation-delay: 1557.0179513694593ms" />
<rect x="94" y="29" width="10" height="10" class="count5" style="animation-delay: 1570.3180818054725ms" /><rect x="94.5" y="29.5" width="9" height="9" class="st" style="animation-delay: 1570.3180818054725ms" />
<rect x="94" y="42" width="10" height="10" class="count6" style="animation-delay: 1583.8703848302703ms" /><rect x="94.5" y="42.5" width="9" height="9" class="st" style="animation-delay: 1583.8703848302703ms" />
<rect x="94" y="55" width="10" height="10" class="count2" style="animation-delay: 1597.6871645959643ms" /><rect x="94.5" y="55.5" width="9" height="9" class="st" style="animation-delay: 1597.6871645959643ms" />
<rect x="94" y="68" width="10" height="10" class="count2" style="animation-delay: 1611.781714885917ms" /><rect x="94.5" y="68.5" width="9" height="9" class="st" style="animation-delay: 1611.781714885917ms" />
<rect x="94" y="81" width="10" height="10" class="count1" style="animation-delay: 1626.1684319760325ms" /><rect x="94.5" y="81.5" width="9" height="9" class="st" style="animation-delay: 1626.1684319760325ms" />
<rect x="107" y="3" width="10" height="10" class="count4" style="animation-delay: 1640.8629444052951ms" /><rect x="107.5" y="3.5" width="9" height="9" class="st" style="animation-delay: 1640.8629444052951ms" />
<rect x="107" y="16" width="10" height="10" class="count1" style="animation-delay: 1655.8822628342298ms" /><rect x="107.5" y="16.5" width="9" height="9" class="st" style="animation-delay: 1655.8822628342298ms" />
<rect x="107" y="29" width="10" height="10" class="count0" style="animation-delay: 1671.2449538972057ms" /><rect x="107.5" y="29.5" width="9" height="9" class="st" style="animation-delay: 1671.2449538972057ms" />
<rect x="107" y="42" width="10" height="10" class="count1" style="animation-delay: 1686.9713428798566ms" /><rect x="107.5" y="42.5" width="9" height="9" class="st" style="animation-delay: 1686.9713428798566ms" />
<rect x="107" y="55" width="10" height="10" class="count4" style="animation-delay: 1703.083751239699ms" /><rect x="107.5" y="55.5" width="9" height="9" class="st" style="animation-delay: 1703.083751239699ms" />
<rect x="107" y="68" width="10" height="10" class="count4" style="animation-delay: 1719.6067765230312ms" /><rect x="107.5" y="68.5" width="9" height="9" class="st" style="animation-delay: 1719.6067765230312ms" />
<rect x="107" y="81" width="10" height="10" class="count5" style="animation-delay: 1736.567624234364ms" /><rect x="107.5" y="81.5" width="9" height="9" class="st" style="animation-delay: 1736.567624234364ms" />
<rect x="120" y="3" width="10" height="10" class="count3" style="animation-delay: 1753.99650385428ms" /><rect x="120.5" y="3.5" width="9" height="9" class="st" style="animation-delay: 1753.99650385428ms" />
<rect x="120" y="16" width="10" height="10" class="count4" style="animation-delay: 1771.9271047161149ms" /><rect x="120.5" y="16.5" width="9" height="9" class="st" style="animation-delay: 1771.9271047161149ms" />
<rect x="120" y="29" width="10" height="10" class="count6" style="animation-delay: 1790.3971721839732ms" /><rect x="120.5" y="29.5" width="9" height="9" class="st" style="animation-delay: 1790.3971721839732ms" />
<rect x="120" y="42" width="10" height="10" class="count6" style="animation-delay: 1809.4492110238505ms" /><rect x="120.5" y="42.5" width="9" height="9" class="st" style="animation-delay: 1809.4492110238505ms" />
<rect x="120" y="55" width="10" height="10" class="count6" style="animation-delay: 1829.1313517656054ms" /><rect x="120.5" y="55.5" width="9" height="9" class="st" style="animation-delay: 1829.1313517656054ms" />
<rect x="120" y="68" width="10" height="10" class="count8" style="animation-delay: 1849.4984283297872ms" /><rect x="120.5" y="68.5" width="9" height="9" class="st" style="animation-delay: 1849.4984283297872ms" />
<rect x="120" y="81" width="10" height="10" class="count7" style="animation-delay: 1870.6133329476431ms" /><rect x="120.5" y="81.5" width="9" height="9" class="st" style="animation-delay: 1870.6133329476431ms" />
<rect x="133" y="3" width="10" height="10" class="count5" style="animation-delay: 1892.5487401075807ms" /><rect x="133.5" y="3.5" width="9" height="9" class="st" style="animation-delay: 1892.5487401075807ms" />
<rect x="133" y="16" width="10" height="10" class="count5" style="animation-delay: 1915.3893291932293ms" /><rect x="133.5" y="16.5" width="9" height="9" class="st" style="animation-delay: 1915.3893291932293ms" />
<rect x="133" y="29" width="10" height="10" class="count5" style="animation-delay: 1939.2346926497592ms" /><rect x="133.5" y="29.5" width="9" height="9" class="st" style="animation-delay: 1939.2346926497592ms" />
<rect x="133" y="42" width="10" height="10" class="count5" style="animation-delay: 1964.2032047458767ms" /><rect x="133.5" y="42.5" width="9" height="9" class="st" style="animation-delay: 1964.2032047458767ms" />
<rect x="133" y="55" width="10" height="10" class="count7" style="animation-delay: 1990.4372658309676ms" /><rect x="133.5" y="55.5" width="9" height="9" class="st" style="animation-delay: 1990.4372658309676ms" />
<rect x="133" y="68" width="10" height="10" class="count3" style="animation-delay: 2018.1105653802422ms" /><rect x="133.5" y="68.5" width="9" height="9" class="st" style="animation-delay: 2018.1105653802422ms" />
<rect x="133" y="81" width="10" height="10" class="count5" style="animation-delay: 2047.4383932517715ms" /><rect x="133.5" y="81.5" width="9" height="9" class="st" style="animation-delay: 2047.4383932517715ms" />
<rect x="146" y="3" width="10" height="10" class="count6" style="animation-delay: 2078.6927079343304ms" /><rect x="146.5" y="3.5" width="9" height="9" class="st" style="animation-delay: 2078.6927079343304ms" />
<rect x="146" y="16" width="10" height="10" class="count4" style="animation-delay: 2112.2249229000918ms" /><rect x="146.5" y="16.5" width="9" height="9" class="st" style="animation-delay: 2112.2249229000918ms" />
<rect x="146" y="29" width="10" height="10" class="count3" style="animation-delay: 2148.5018123304917ms" /><rect x="146.5" y="29.5" width="9" height="9" class="st" style="animation-delay: 2148.5018123304917ms" />
<rect x="146" y="42" width="10" height="10" class="count3" style="animation-delay: 2188.165021962995ms" /><rect x="146.5" y="42.5" width="9" height="9" class="st" style="animation-delay: 2188.165021962995ms" />
<rect x="146" y="55" width="10" height="10" class="count3" style="animation-delay: 2232.1361831597765ms" /><rect x="146.5" y="55.5" width="9" height="9" class="st" style="animation-delay: 2232.1361831597765ms" />
<rect x="146" y="68" width="10" height="10" class="count3" style="animation-delay: 2281.8186140742973ms" /><rect x="146.5" y="68.5" width="9" height="9" class="st" style="animation-delay: 2281.8186140742973ms" />
<rect x="146" y="81" width="10" height="10" class="count3" style="animation-delay: 2339.5306704475597ms" /><rect x="146.5" y="81.5" width="9" height="9" class="st" style="animation-delay: 2339.5306704475597ms" />
<rect x="159" y="3" width="10" height="10" class="count1" style="animation-delay: 2409.6041314902136ms" /><rect x="159.5" y="3.5" width="9" height="9" class="st" style="animation-delay: 2409.6041314902136ms" />
<rect x="159" y="16" width="10" height="10" class="count3" style="animation-delay: 2502.04083903965ms" /><rect x="159.5" y="16.5" width="9" height="9" class="st" style="animation-delay: 2502.04083903965ms" />
<rect x="159" y="29" width="10" height="10" class="count1" style="animation-delay: 2654.734401581959ms" /><rect x="159.5" y="29.5" width="9" height="9" class="st" style="animation-delay: 2654.734401581959ms" />
</svg>

  