

<svg height="94" width="354" xmlns="http://www.w3.org/2000/svg" fill='#4FA1A7'>
  <style>
  rect {
  rx: 2;
  ry: 2;
  animation: wow .5s backwards;
  }
  .st {
  
  stroke: rgba(27, 31, 35, 0.06);
  stroke-width: 1;
  fill: none;
  }
  @keyframes wow {
  from {opacity: 0;}
  to{ opacity: 1;}}
  .count0 {fill: #ebedf0}
.count1 {fill: #9be9a8}
.count2 {fill: #9be9a8}
.count3 {fill: #40c463}
.count4 {fill: #40c463}
.count5 {fill: #30a14e}
.count6 {fill: #30a14e}
.count7 {fill: #216e39}
.count8 {fill: #216e39}
  </style>
<rect x="3" y="68" width="10" height="10" class="count3" style="animation-delay: 264.68792523448485ms" /><rect x="3.5" y="68.5" width="9" height="9" class="st" style="animation-delay: 264.68792523448485ms" />
<rect x="3" y="81" width="10" height="10" class="count3" style="animation-delay: 381.7460464349952ms" /><rect x="3.5" y="81.5" width="9" height="9" class="st" style="animation-delay: 381.7460464349952ms" />
<rect x="16" y="3" width="10" height="10" class="count1" style="animation-delay: 452.6099855267289ms" /><rect x="16.5" y="3.5" width="9" height="9" class="st" style="animation-delay: 452.6099855267289ms" />
<rect x="16" y="16" width="10" height="10" class="count2" style="animation-delay: 506.32978588437277ms" /><rect x="16.5" y="16.5" width="9" height="9" class="st" style="animation-delay: 506.32978588437277ms" />
<rect x="16" y="29" width="10" height="10" class="count5" style="animation-delay: 550.5730714374238ms" /><rect x="16.5" y="29.5" width="9" height="9" class="st" style="animation-delay: 550.5730714374238ms" />
<rect x="16" y="42" width="10" height="10" class="count1" style="animation-delay: 588.6606759355938ms" /><rect x="16.5" y="42.5" width="9" height="9" class="st" style="animation-delay: 588.6606759355938ms" />
<rect x="16" y="55" width="10" height="10" class="count3" style="animation-delay: 622.3699000246826ms" /><rect x="16.5" y="55.5" width="9" height="9" class="st" style="animation-delay: 622.3699000246826ms" />
<rect x="16" y="68" width="10" height="10" class="count2" style="animation-delay: 652.7765571427672ms" /><rect x="16.5" y="68.5" width="9" height="9" class="st" style="animation-delay: 652.7765571427672ms" />
<rect x="16" y="81" width="10" height="10" class="count2" style="animation-delay: 680.5871894249542ms" /><rect x="16.5" y="81.5" width="9" height="9" class="st" style="animation-delay: 680.5871894249542ms" />
<rect x="29" y="3" width="10" height="10" class="count2" style="animation-delay: 706.2936960924901ms" /><rect x="29.5" y="3.5" width="9" height="9" class="st" style="animation-delay: 706.2936960924901ms" />
<rect x="29" y="16" width="10" height="10" class="count1" style="animation-delay: 730.2539161255787ms" /><rect x="29.5" y="16.5" width="9" height="9" class="st" style="animation-delay: 730.2539161255787ms" />
<rect x="29" y="29" width="10" height="10" class="count2" style="animation-delay: 752.7372505397713ms" /><rect x="29.5" y="29.5" width="9" height="9" class="st" style="animation-delay: 752.7372505397713ms" />
<rect x="29" y="42" width="10" height="10" class="count2" style="animation-delay: 773.9521884763944ms" /><rect x="29.5" y="42.5" width="9" height="9" class="st" style="animation-delay: 773.9521884763944ms" />
<rect x="29" y="55" width="10" height="10" class="count1" style="animation-delay: 794.0637757034544ms" /><rect x="29.5" y="55.5" width="9" height="9" class="st" style="animation-delay: 794.0637757034544ms" />
<rect x="29" y="68" width="10" height="10" class="count3" style="animation-delay: 813.2051662537853ms" /><rect x="29.5" y="68.5" width="9" height="9" class="st" style="animation-delay: 813.2051662537853ms" />
<rect x="29" y="81" width="10" height="10" class="count2" style="animation-delay: 831.4855272532302ms" /><rect x="29.5" y="81.5" width="9" height="9" class="st" style="animation-delay: 831.4855272532302ms" />
<rect x="42" y="3" width="10" height="10" class="count1" style="animation-delay: 848.9956069249787ms" /><rect x="42.5" y="3.5" width="9" height="9" class="st" style="animation-delay: 848.9956069249787ms" />
<rect x="42" y="16" width="10" height="10" class="count1" style="animation-delay: 865.8117549482396ms" /><rect x="42.5" y="16.5" width="9" height="9" class="st" style="animation-delay: 865.8117549482396ms" />
<rect x="42" y="29" width="10" height="10" class="count2" style="animation-delay: 881.9988883331807ms" /><rect x="42.5" y="29.5" width="9" height="9" class="st" style="animation-delay: 881.9988883331807ms" />
<rect x="42" y="42" width="10" height="10" class="count1" style="animation-delay: 897.6127208828632ms" /><rect x="42.5" y="42.5" width="9" height="9" class="st" style="animation-delay: 897.6127208828632ms" />
<rect x="42" y="55" width="10" height="10" class="count1" style="animation-delay: 912.7014671146858ms" /><rect x="42.5" y="55.5" width="9" height="9" class="st" style="animation-delay: 912.7014671146858ms" />
<rect x="42" y="68" width="10" height="10" class="count1" style="animation-delay: 927.3071638742804ms" /><rect x="42.5" y="68.5" width="9" height="9" class="st" style="animation-delay: 927.3071638742804ms" />
<rect x="42" y="81" width="10" height="10" class="count1" style="animation-delay: 941.4667090459054ms" /><rect x="42.5" y="81.5" width="9" height="9" class="st" style="animation-delay: 941.4667090459054ms" />
<rect x="55" y="3" width="10" height="10" class="count1" style="animation-delay: 955.2126876840098ms" /><rect x="55.5" y="3.5" width="9" height="9" class="st" style="animation-delay: 955.2126876840098ms" />
<rect x="55" y="16" width="10" height="10" class="count1" style="animation-delay: 968.5740361846837ms" /><rect x="55.5" y="16.5" width="9" height="9" class="st" style="animation-delay: 968.5740361846837ms" />
<rect x="55" y="29" width="10" height="10" class="count2" style="animation-delay: 981.576581504867ms" /><rect x="55.5" y="29.5" width="9" height="9" class="st" style="animation-delay: 981.576581504867ms" />
<rect x="55" y="42" width="10" height="10" class="count3" style="animation-delay: 994.2434828726275ms" /><rect x="55.5" y="42.5" width="9" height="9" class="st" style="animation-delay: 994.2434828726275ms" />
<rect x="55" y="55" width="10" height="10" class="count3" style="animation-delay: 1006.5955966043113ms" /><rect x="55.5" y="55.5" width="9" height="9" class="st" style="animation-delay: 1006.5955966043113ms" />
<rect x="55" y="68" width="10" height="10" class="count1" style="animation-delay: 1018.6517797002252ms" /><rect x="55.5" y="68.5" width="9" height="9" class="st" style="animation-delay: 1018.6517797002252ms" />
<rect x="55" y="81" width="10" height="10" class="count2" style="animation-delay: 1030.4291442627791ms" /><rect x="55.5" y="81.5" width="9" height="9" class="st" style="animation-delay: 1030.4291442627791ms" />
<rect x="68" y="3" width="10" height="10" class="count0" style="animation-delay: 1041.9432720867082ms" /><rect x="68.5" y="3.5" width="9" height="9" class="st" style="animation-delay: 1041.9432720867082ms" />
<rect x="68" y="16" width="10" height="10" class="count2" style="animation-delay: 1053.2083967474182ms" /><rect x="68.5" y="16.5" width="9" height="9" class="st" style="animation-delay: 1053.2083967474182ms" />
<rect x="68" y="29" width="10" height="10" class="count2" style="animation-delay: 1064.237558977788ms" /><rect x="68.5" y="29.5" width="9" height="9" class="st" style="animation-delay: 1064.237558977788ms" />
<rect x="68" y="42" width="10" height="10" class="count1" style="animation-delay: 1075.04273994703ms" /><rect x="68.5" y="42.5" width="9" height="9" class="st" style="animation-delay: 1075.04273994703ms" />
<rect x="68" y="55" width="10" height="10" class="count2" style="animation-delay: 1085.634976145365ms" /><rect x="68.5" y="55.5" width="9" height="9" class="st" style="animation-delay: 1085.634976145365ms" />
<rect x="68" y="68" width="10" height="10" class="count2" style="animation-delay: 1096.024458868864ms" /><rect x="68.5" y="68.5" width="9" height="9" class="st" style="animation-delay: 1096.024458868864ms" />
<rect x="68" y="81" width="10" height="10" class="count1" style="animation-delay: 1106.2206207413074ms" /><rect x="68.5" y="81.5" width="9" height="9" class="st" style="animation-delay: 1106.2206207413074ms" />
<rect x="81" y="3" width="10" height="10" class="count1" style="animation-delay: 1116.2322112685583ms" /><rect x="81.5" y="3.5" width="9" height="9" class="st" style="animation-delay: 1116.2322112685583ms" />
<rect x="81" y="16" width="10" height="10" class="count3" style="animation-delay: 1126.0673630690694ms" /><rect x="81.5" y="16.5" width="9" height="9" class="st" style="animation-delay: 1126.0673630690694ms" />
<rect x="81" y="29" width="10" height="10" class="count5" style="animation-delay: 1135.7336501418176ms" /><rect x="81.5" y="29.5" width="9" height="9" class="st" style="animation-delay: 1135.7336501418176ms" />
<rect x="81" y="42" width="10" height="10" class="count2" style="animation-delay: 1145.2381393049855ms" /><rect x="81.5" y="42.5" width="9" height="9" class="st" style="animation-delay: 1145.2381393049855ms" />
<rect x="81" y="55" width="10" height="10" class="count4" style="animation-delay: 1154.5874357535772ms" /><rect x="81.5" y="55.5" width="9" height="9" class="st" style="animation-delay: 1154.5874357535772ms" />
<rect x="81" y="68" width="10" height="10" class="count5" style="animation-delay: 1163.7877235329686ms" /><rect x="81.5" y="68.5" width="9" height="9" class="st" style="animation-delay: 1163.7877235329686ms" />
<rect x="81" y="81" width="10" height="10" class="count5" style="animation-delay: 1172.8448016012865ms" /><rect x="81.5" y="81.5" width="9" height="9" class="st" style="animation-delay: 1172.8448016012865ms" />
<rect x="94" y="3" width="10" height="10" class="count5" style="animation-delay: 1181.764116051113ms" /><rect x="94.5" y="3.5" width="9" height="9" class="st" style="animation-delay: 1181.764116051113ms" />
<rect x="94" y="16" width="10" height="10" class="count3" style="animation-delay: 1190.5507889761498ms" /><rect x="94.5" y="16.5" width="9" height="9" class="st" style="animation-delay: 1190.5507889761498ms" />
<rect x="94" y="29" width="10" height="10" class="count5" style="animation-delay: 1199.2096443978ms" /><rect x="94.5" y="29.5" width="9" height="9" class="st" style="animation-delay: 1199.2096443978ms" />
<rect x="94" y="42" width="10" height="10" class="count6" style="animation-delay: 1207.7452316075394ms" /><rect x="94.5" y="42.5" width="9" height="9" class="st" style="animation-delay: 1207.7452316075394ms" />
<rect x="94" y="55" width="10" height="10" class="count2" style="animation-delay: 1216.1618462313177ms" /><rect x="94.5" y="55.5" width="9" height="9" class="st" style="animation-delay: 1216.1618462313177ms" />
<rect x="94" y="68" width="10" height="10" class="count2" style="animation-delay: 1224.4635492804277ms" /><rect x="94.5" y="68.5" width="9" height="9" class="st" style="animation-delay: 1224.4635492804277ms" />
<rect x="94" y="81" width="10" height="10" class="count1" style="animation-delay: 1232.6541844178666ms" /><rect x="94.5" y="81.5" width="9" height="9" class="st" style="animation-delay: 1232.6541844178666ms" />
<rect x="107" y="3" width="10" height="10" class="count4" style="animation-delay: 1240.7373936391834ms" /><rect x="107.5" y="3.5" width="9" height="9" class="st" style="animation-delay: 1240.7373936391834ms" />
<rect x="107" y="16" width="10" height="10" class="count1" style="animation-delay: 1248.7166315412017ms" /><rect x="107.5" y="16.5" width="9" height="9" class="st" style="animation-delay: 1248.7166315412017ms" />
<rect x="107" y="29" width="10" height="10" class="count0" style="animation-delay: 1256.595178330114ms" /><rect x="107.5" y="29.5" width="9" height="9" class="st" style="animation-delay: 1256.595178330114ms" />
<rect x="107" y="42" width="10" height="10" class="count1" style="animation-delay: 1264.3761517016833ms" /><rect x="107.5" y="42.5" width="9" height="9" class="st" style="animation-delay: 1264.3761517016833ms" />
<rect x="107" y="55" width="10" height="10" class="count4" style="animation-delay: 1272.0625177101417ms" /><rect x="107.5" y="55.5" width="9" height="9" class="st" style="animation-delay: 1272.0625177101417ms" />
<rect x="107" y="68" width="10" height="10" class="count4" style="animation-delay: 1279.6571007284535ms" /><rect x="107.5" y="68.5" width="9" height="9" class="st" style="animation-delay: 1279.6571007284535ms" />
<rect x="107" y="81" width="10" height="10" class="count5" style="animation-delay: 1287.1625925905594ms" /><rect x="107.5" y="81.5" width="9" height="9" class="st" style="animation-delay: 1287.1625925905594ms" />
<rect x="120" y="3" width="10" height="10" class="count3" style="animation-delay: 1294.581560995773ms" /><rect x="120.5" y="3.5" width="9" height="9" class="st" style="animation-delay: 1294.581560995773ms" />
<rect x="120" y="16" width="10" height="10" class="count4" style="animation-delay: 1301.9164572464135ms" /><rect x="120.5" y="16.5" width="9" height="9" class="st" style="animation-delay: 1301.9164572464135ms" />
<rect x="120" y="29" width="10" height="10" class="count6" style="animation-delay: 1309.1696233818363ms" /><rect x="120.5" y="29.5" width="9" height="9" class="st" style="animation-delay: 1309.1696233818363ms" />
<rect x="120" y="42" width="10" height="10" class="count6" style="animation-delay: 1316.3432987650967ms" /><rect x="120.5" y="42.5" width="9" height="9" class="st" style="animation-delay: 1316.3432987650967ms" />
<rect x="120" y="55" width="10" height="10" class="count6" style="animation-delay: 1323.4396261724241ms" /><rect x="120.5" y="55.5" width="9" height="9" class="st" style="animation-delay: 1323.4396261724241ms" />
<rect x="120" y="68" width="10" height="10" class="count8" style="animation-delay: 1330.460657430351ms" /><rect x="120.5" y="68.5" width="9" height="9" class="st" style="animation-delay: 1330.460657430351ms" />
<rect x="120" y="81" width="10" height="10" class="count7" style="animation-delay: 1337.4083586406625ms" /><rect x="120.5" y="81.5" width="9" height="9" class="st" style="animation-delay: 1337.4083586406625ms" />
<rect x="133" y="3" width="10" height="10" class="count5" style="animation-delay: 1344.284615029198ms" /><rect x="133.5" y="3.5" width="9" height="9" class="st" style="animation-delay: 1344.284615029198ms" />
<rect x="133" y="16" width="10" height="10" class="count5" style="animation-delay: 1351.0912354508896ms" /><rect x="133.5" y="16.5" width="9" height="9" class="st" style="animation-delay: 1351.0912354508896ms" />
<rect x="133" y="29" width="10" height="10" class="count5" style="animation-delay: 1357.829956580187ms" /><rect x="133.5" y="29.5" width="9" height="9" class="st" style="animation-delay: 1357.829956580187ms" />
<rect x="133" y="42" width="10" height="10" class="count5" style="animation-delay: 1364.5024468131573ms" /><rect x="133.5" y="42.5" width="9" height="9" class="st" style="animation-delay: 1364.5024468131573ms" />
<rect x="133" y="55" width="10" height="10" class="count7" style="animation-delay: 1371.110309905ms" /><rect x="133.5" y="55.5" width="9" height="9" class="st" style="animation-delay: 1371.110309905ms" />
<rect x="133" y="68" width="10" height="10" class="count3" style="animation-delay: 1377.6550883644477ms" /><rect x="133.5" y="68.5" width="9" height="9" class="st" style="animation-delay: 1377.6550883644477ms" />
<rect x="133" y="81" width="10" height="10" class="count5" style="animation-delay: 1384.1382666245095ms" /><rect x="133.5" y="81.5" width="9" height="9" class="st" style="animation-delay: 1384.1382666245095ms" />
<rect x="146" y="3" width="10" height="10" class="count6" style="animation-delay: 1390.5612740071972ms" /><rect x="146.5" y="3.5" width="9" height="9" class="st" style="animation-delay: 1390.5612740071972ms" />
<rect x="146" y="16" width="10" height="10" class="count4" style="animation-delay: 1396.9254874982723ms" /><rect x="146.5" y="16.5" width="9" height="9" class="st" style="animation-delay: 1396.9254874982723ms" />
<rect x="146" y="29" width="10" height="10" class="count3" style="animation-delay: 1403.2322343465892ms" /><rect x="146.5" y="29.5" width="9" height="9" class="st" style="animation-delay: 1403.2322343465892ms" />
<rect x="146" y="42" width="10" height="10" class="count3" style="animation-delay: 1409.482794501325ms" /><rect x="146.5" y="42.5" width="9" height="9" class="st" style="animation-delay: 1409.482794501325ms" />
<rect x="146" y="55" width="10" height="10" class="count3" style="animation-delay: 1415.6784028992092ms" /><rect x="146.5" y="55.5" width="9" height="9" class="st" style="animation-delay: 1415.6784028992092ms" />
<rect x="146" y="68" width="10" height="10" class="count3" style="animation-delay: 1421.820251612815ms" /><rect x="146.5" y="68.5" width="9" height="9" class="st" style="animation-delay: 1421.820251612815ms" />
<rect x="146" y="81" width="10" height="10" class="count3" style="animation-delay: 1427.909491870033ms" /><rect x="146.5" y="81.5" width="9" height="9" class="st" style="animation-delay: 1427.909491870033ms" />
<rect x="159" y="3" width="10" height="10" class="count1" style="animation-delay: 1433.9472359539882ms" /><rect x="159.5" y="3.5" width="9" height="9" class="st" style="animation-delay: 1433.9472359539882ms" />
<rect x="159" y="16" width="10" height="10" class="count3" style="animation-delay: 1439.934558991881ms" /><rect x="159.5" y="16.5" width="9" height="9" class="st" style="animation-delay: 1439.934558991881ms" />
<rect x="159" y="29" width="10" height="10" class="count1" style="animation-delay: 1445.8725006405493ms" /><rect x="159.5" y="29.5" width="9" height="9" class="st" style="animation-delay: 1445.8725006405493ms" />
<rect x="159" y="42" width="10" height="10" class="count0" style="animation-delay: 1451.7620666758974ms" /><rect x="159.5" y="42.5" width="9" height="9" class="st" style="animation-delay: 1451.7620666758974ms" />
<rect x="159" y="55" width="10" height="10" class="count1" style="animation-delay: 1457.6042304927716ms" /><rect x="159.5" y="55.5" width="9" height="9" class="st" style="animation-delay: 1457.6042304927716ms" />
<rect x="159" y="68" width="10" height="10" class="count0" style="animation-delay: 1463.399934521336ms" /><rect x="159.5" y="68.5" width="9" height="9" class="st" style="animation-delay: 1463.399934521336ms" />
<rect x="159" y="81" width="10" height="10" class="count0" style="animation-delay: 1469.1500915655267ms" /><rect x="159.5" y="81.5" width="9" height="9" class="st" style="animation-delay: 1469.1500915655267ms" />
<rect x="172" y="3" width="10" height="10" class="count0" style="animation-delay: 1474.855586068729ms" /><rect x="172.5" y="3.5" width="9" height="9" class="st" style="animation-delay: 1474.855586068729ms" />
<rect x="172" y="16" width="10" height="10" class="count2" style="animation-delay: 1480.5172753114284ms" /><rect x="172.5" y="16.5" width="9" height="9" class="st" style="animation-delay: 1480.5172753114284ms" />
<rect x="172" y="29" width="10" height="10" class="count0" style="animation-delay: 1486.1359905452234ms" /><rect x="172.5" y="29.5" width="9" height="9" class="st" style="animation-delay: 1486.1359905452234ms" />
<rect x="172" y="42" width="10" height="10" class="count1" style="animation-delay: 1491.712538067261ms" /><rect x="172.5" y="42.5" width="9" height="9" class="st" style="animation-delay: 1491.712538067261ms" />
<rect x="172" y="55" width="10" height="10" class="count1" style="animation-delay: 1497.2477002388518ms" /><rect x="172.5" y="55.5" width="9" height="9" class="st" style="animation-delay: 1497.2477002388518ms" />
<rect x="172" y="68" width="10" height="10" class="count1" style="animation-delay: 1502.7522997611482ms" /><rect x="172.5" y="68.5" width="9" height="9" class="st" style="animation-delay: 1502.7522997611482ms" />
<rect x="172" y="81" width="10" height="10" class="count1" style="animation-delay: 1508.287461932739ms" /><rect x="172.5" y="81.5" width="9" height="9" class="st" style="animation-delay: 1508.287461932739ms" />
<rect x="185" y="3" width="10" height="10" class="count0" style="animation-delay: 1513.8640094547764ms" /><rect x="185.5" y="3.5" width="9" height="9" class="st" style="animation-delay: 1513.8640094547764ms" />
<rect x="185" y="16" width="10" height="10" class="count3" style="animation-delay: 1519.4827246885718ms" /><rect x="185.5" y="16.5" width="9" height="9" class="st" style="animation-delay: 1519.4827246885718ms" />
<rect x="185" y="29" width="10" height="10" class="count0" style="animation-delay: 1525.144413931271ms" /><rect x="185.5" y="29.5" width="9" height="9" class="st" style="animation-delay: 1525.144413931271ms" />
<rect x="185" y="42" width="10" height="10" class="count0" style="animation-delay: 1530.849908434473ms" /><rect x="185.5" y="42.5" width="9" height="9" class="st" style="animation-delay: 1530.849908434473ms" />
<rect x="185" y="55" width="10" height="10" class="count2" style="animation-delay: 1536.6000654786637ms" /><rect x="185.5" y="55.5" width="9" height="9" class="st" style="animation-delay: 1536.6000654786637ms" />
<rect x="185" y="68" width="10" height="10" class="count1" style="animation-delay: 1542.3957695072281ms" /><rect x="185.5" y="68.5" width="9" height="9" class="st" style="animation-delay: 1542.3957695072281ms" />
<rect x="185" y="81" width="10" height="10" class="count0" style="animation-delay: 1548.2379333241026ms" /><rect x="185.5" y="81.5" width="9" height="9" class="st" style="animation-delay: 1548.2379333241026ms" />
<rect x="198" y="3" width="10" height="10" class="count0" style="animation-delay: 1554.127499359451ms" /><rect x="198.5" y="3.5" width="9" height="9" class="st" style="animation-delay: 1554.127499359451ms" />
<rect x="198" y="16" width="10" height="10" class="count0" style="animation-delay: 1560.0654410081193ms" /><rect x="198.5" y="16.5" width="9" height="9" class="st" style="animation-delay: 1560.0654410081193ms" />
<rect x="198" y="29" width="10" height="10" class="count0" style="animation-delay: 1566.0527640460118ms" /><rect x="198.5" y="29.5" width="9" height="9" class="st" style="animation-delay: 1566.0527640460118ms" />
<rect x="198" y="42" width="10" height="10" class="count0" style="animation-delay: 1572.0905081299668ms" /><rect x="198.5" y="42.5" width="9" height="9" class="st" style="animation-delay: 1572.0905081299668ms" />
<rect x="198" y="55" width="10" height="10" class="count0" style="animation-delay: 1578.1797483871853ms" /><rect x="198.5" y="55.5" width="9" height="9" class="st" style="animation-delay: 1578.1797483871853ms" />
<rect x="198" y="68" width="10" height="10" class="count0" style="animation-delay: 1584.3215971007908ms" /><rect x="198.5" y="68.5" width="9" height="9" class="st" style="animation-delay: 1584.3215971007908ms" />
<rect x="198" y="81" width="10" height="10" class="count0" style="animation-delay: 1590.5172054986751ms" /><rect x="198.5" y="81.5" width="9" height="9" class="st" style="animation-delay: 1590.5172054986751ms" />
<rect x="211" y="3" width="10" height="10" class="count0" style="animation-delay: 1596.7677656534106ms" /><rect x="211.5" y="3.5" width="9" height="9" class="st" style="animation-delay: 1596.7677656534106ms" />
<rect x="211" y="16" width="10" height="10" class="count0" style="animation-delay: 1603.0745125017277ms" /><rect x="211.5" y="16.5" width="9" height="9" class="st" style="animation-delay: 1603.0745125017277ms" />
<rect x="211" y="29" width="10" height="10" class="count0" style="animation-delay: 1609.4387259928026ms" /><rect x="211.5" y="29.5" width="9" height="9" class="st" style="animation-delay: 1609.4387259928026ms" />
<rect x="211" y="42" width="10" height="10" class="count0" style="animation-delay: 1615.8617333754905ms" /><rect x="211.5" y="42.5" width="9" height="9" class="st" style="animation-delay: 1615.8617333754905ms" />
<rect x="211" y="55" width="10" height="10" class="count0" style="animation-delay: 1622.3449116355523ms" /><rect x="211.5" y="55.5" width="9" height="9" class="st" style="animation-delay: 1622.3449116355523ms" />
<rect x="211" y="68" width="10" height="10" class="count0" style="animation-delay: 1628.889690095ms" /><rect x="211.5" y="68.5" width="9" height="9" class="st" style="animation-delay: 1628.889690095ms" />
<rect x="211" y="81" width="10" height="10" class="count0" style="animation-delay: 1635.4975531868427ms" /><rect x="211.5" y="81.5" width="9" height="9" class="st" style="animation-delay: 1635.4975531868427ms" />
<rect x="224" y="3" width="10" height="10" class="count0" style="animation-delay: 1642.1700434198133ms" /><rect x="224.5" y="3.5" width="9" height="9" class="st" style="animation-delay: 1642.1700434198133ms" />
<rect x="224" y="16" width="10" height="10" class="count0" style="animation-delay: 1648.9087645491104ms" /><rect x="224.5" y="16.5" width="9" height="9" class="st" style="animation-delay: 1648.9087645491104ms" />
<rect x="224" y="29" width="10" height="10" class="count0" style="animation-delay: 1655.7153849708022ms" /><rect x="224.5" y="29.5" width="9" height="9" class="st" style="animation-delay: 1655.7153849708022ms" />
<rect x="224" y="42" width="10" height="10" class="count0" style="animation-delay: 1662.5916413593377ms" /><rect x="224.5" y="42.5" width="9" height="9" class="st" style="animation-delay: 1662.5916413593377ms" />
<rect x="224" y="55" width="10" height="10" class="count0" style="animation-delay: 1669.539342569649ms" /><rect x="224.5" y="55.5" width="9" height="9" class="st" style="animation-delay: 1669.539342569649ms" />
<rect x="224" y="68" width="10" height="10" class="count0" style="animation-delay: 1676.5603738275759ms" /><rect x="224.5" y="68.5" width="9" height="9" class="st" style="animation-delay: 1676.5603738275759ms" />
<rect x="224" y="81" width="10" height="10" class="count0" style="animation-delay: 1683.656701234903ms" /><rect x="224.5" y="81.5" width="9" height="9" class="st" style="animation-delay: 1683.656701234903ms" />
<rect x="237" y="3" width="10" height="10" class="count1" style="animation-delay: 1690.8303766181639ms" /><rect x="237.5" y="3.5" width="9" height="9" class="st" style="animation-delay: 1690.8303766181639ms" />
<rect x="237" y="16" width="10" height="10" class="count1" style="animation-delay: 1698.0835427535865ms" /><rect x="237.5" y="16.5" width="9" height="9" class="st" style="animation-delay: 1698.0835427535865ms" />
<rect x="237" y="29" width="10" height="10" class="count1" style="animation-delay: 1705.418439004227ms" /><rect x="237.5" y="29.5" width="9" height="9" class="st" style="animation-delay: 1705.418439004227ms" />
<rect x="237" y="42" width="10" height="10" class="count0" style="animation-delay: 1712.8374074094406ms" /><rect x="237.5" y="42.5" width="9" height="9" class="st" style="animation-delay: 1712.8374074094406ms" />
<rect x="237" y="55" width="10" height="10" class="count0" style="animation-delay: 1720.3428992715465ms" /><rect x="237.5" y="55.5" width="9" height="9" class="st" style="animation-delay: 1720.3428992715465ms" />
<rect x="237" y="68" width="10" height="10" class="count0" style="animation-delay: 1727.937482289858ms" /><rect x="237.5" y="68.5" width="9" height="9" class="st" style="animation-delay: 1727.937482289858ms" />
<rect x="237" y="81" width="10" height="10" class="count0" style="animation-delay: 1735.623848298317ms" /><rect x="237.5" y="81.5" width="9" height="9" class="st" style="animation-delay: 1735.623848298317ms" />
<rect x="250" y="3" width="10" height="10" class="count0" style="animation-delay: 1743.404821669886ms" /><rect x="250.5" y="3.5" width="9" height="9" class="st" style="animation-delay: 1743.404821669886ms" />
<rect x="250" y="16" width="10" height="10" class="count0" style="animation-delay: 1751.2833684587983ms" /><rect x="250.5" y="16.5" width="9" height="9" class="st" style="animation-delay: 1751.2833684587983ms" />
<rect x="250" y="29" width="10" height="10" class="count1" style="animation-delay: 1759.2626063608166ms" /><rect x="250.5" y="29.5" width="9" height="9" class="st" style="animation-delay: 1759.2626063608166ms" />
<rect x="250" y="42" width="10" height="10" class="count1" style="animation-delay: 1767.3458155821334ms" /><rect x="250.5" y="42.5" width="9" height="9" class="st" style="animation-delay: 1767.3458155821334ms" />
<rect x="250" y="55" width="10" height="10" class="count0" style="animation-delay: 1775.536450719572ms" /><rect x="250.5" y="55.5" width="9" height="9" class="st" style="animation-delay: 1775.536450719572ms" />
<rect x="250" y="68" width="10" height="10" class="count0" style="animation-delay: 1783.838153768682ms" /><rect x="250.5" y="68.5" width="9" height="9" class="st" style="animation-delay: 1783.838153768682ms" />
<rect x="250" y="81" width="10" height="10" class="count0" style="animation-delay: 1792.254768392461ms" /><rect x="250.5" y="81.5" width="9" height="9" class="st" style="animation-delay: 1792.254768392461ms" />
<rect x="263" y="3" width="10" height="10" class="count0" style="animation-delay: 1800.7903556021997ms" /><rect x="263.5" y="3.5" width="9" height="9" class="st" style="animation-delay: 1800.7903556021997ms" />
<rect x="263" y="16" width="10" height="10" class="count0" style="animation-delay: 1809.4492110238505ms" /><rect x="263.5" y="16.5" width="9" height="9" class="st" style="animation-delay: 1809.4492110238505ms" />
<rect x="263" y="29" width="10" height="10" class="count0" style="animation-delay: 1818.2358839488872ms" /><rect x="263.5" y="29.5" width="9" height="9" class="st" style="animation-delay: 1818.2358839488872ms" />
<rect x="263" y="42" width="10" height="10" class="count2" style="animation-delay: 1827.1551983987135ms" /><rect x="263.5" y="42.5" width="9" height="9" class="st" style="animation-delay: 1827.1551983987135ms" />
<rect x="263" y="55" width="10" height="10" class="count1" style="animation-delay: 1836.2122764670316ms" /><rect x="263.5" y="55.5" width="9" height="9" class="st" style="animation-delay: 1836.2122764670316ms" />
<rect x="263" y="68" width="10" height="10" class="count3" style="animation-delay: 1845.4125642464232ms" /><rect x="263.5" y="68.5" width="9" height="9" class="st" style="animation-delay: 1845.4125642464232ms" />
<rect x="263" y="81" width="10" height="10" class="count0" style="animation-delay: 1854.7618606950148ms" /><rect x="263.5" y="81.5" width="9" height="9" class="st" style="animation-delay: 1854.7618606950148ms" />
<rect x="276" y="3" width="10" height="10" class="count0" style="animation-delay: 1864.2663498581821ms" /><rect x="276.5" y="3.5" width="9" height="9" class="st" style="animation-delay: 1864.2663498581821ms" />
<rect x="276" y="16" width="10" height="10" class="count1" style="animation-delay: 1873.9326369309306ms" /><rect x="276.5" y="16.5" width="9" height="9" class="st" style="animation-delay: 1873.9326369309306ms" />
<rect x="276" y="29" width="10" height="10" class="count0" style="animation-delay: 1883.7677887314417ms" /><rect x="276.5" y="29.5" width="9" height="9" class="st" style="animation-delay: 1883.7677887314417ms" />
<rect x="276" y="42" width="10" height="10" class="count0" style="animation-delay: 1893.7793792586929ms" /><rect x="276.5" y="42.5" width="9" height="9" class="st" style="animation-delay: 1893.7793792586929ms" />
<rect x="276" y="55" width="10" height="10" class="count0" style="animation-delay: 1903.9755411311362ms" /><rect x="276.5" y="55.5" width="9" height="9" class="st" style="animation-delay: 1903.9755411311362ms" />
<rect x="276" y="68" width="10" height="10" class="count0" style="animation-delay: 1914.365023854635ms" /><rect x="276.5" y="68.5" width="9" height="9" class="st" style="animation-delay: 1914.365023854635ms" />
<rect x="276" y="81" width="10" height="10" class="count0" style="animation-delay: 1924.95726005297ms" /><rect x="276.5" y="81.5" width="9" height="9" class="st" style="animation-delay: 1924.95726005297ms" />
<rect x="289" y="3" width="10" height="10" class="count1" style="animation-delay: 1935.762441022212ms" /><rect x="289.5" y="3.5" width="9" height="9" class="st" style="animation-delay: 1935.762441022212ms" />
<rect x="289" y="16" width="10" height="10" class="count0" style="animation-delay: 1946.7916032525818ms" /><rect x="289.5" y="16.5" width="9" height="9" class="st" style="animation-delay: 1946.7916032525818ms" />
<rect x="289" y="29" width="10" height="10" class="count0" style="animation-delay: 1958.056727913292ms" /><rect x="289.5" y="29.5" width="9" height="9" class="st" style="animation-delay: 1958.056727913292ms" />
<rect x="289" y="42" width="10" height="10" class="count0" style="animation-delay: 1969.570855737221ms" /><rect x="289.5" y="42.5" width="9" height="9" class="st" style="animation-delay: 1969.570855737221ms" />
<rect x="289" y="55" width="10" height="10" class="count1" style="animation-delay: 1981.3482202997748ms" /><rect x="289.5" y="55.5" width="9" height="9" class="st" style="animation-delay: 1981.3482202997748ms" />
<rect x="289" y="68" width="10" height="10" class="count0" style="animation-delay: 1993.4044033956886ms" /><rect x="289.5" y="68.5" width="9" height="9" class="st" style="animation-delay: 1993.4044033956886ms" />
<rect x="289" y="81" width="10" height="10" class="count1" style="animation-delay: 2005.7565171273723ms" /><rect x="289.5" y="81.5" width="9" height="9" class="st" style="animation-delay: 2005.7565171273723ms" />
<rect x="302" y="3" width="10" height="10" class="count0" style="animation-delay: 2018.4234184951333ms" /><rect x="302.5" y="3.5" width="9" height="9" class="st" style="animation-delay: 2018.4234184951333ms" />
<rect x="302" y="16" width="10" height="10" class="count0" style="animation-delay: 2031.4259638153164ms" /><rect x="302.5" y="16.5" width="9" height="9" class="st" style="animation-delay: 2031.4259638153164ms" />
<rect x="302" y="29" width="10" height="10" class="count2" style="animation-delay: 2044.7873123159904ms" /><rect x="302.5" y="29.5" width="9" height="9" class="st" style="animation-delay: 2044.7873123159904ms" />
<rect x="302" y="42" width="10" height="10" class="count1" style="animation-delay: 2058.5332909540944ms" /><rect x="302.5" y="42.5" width="9" height="9" class="st" style="animation-delay: 2058.5332909540944ms" />
<rect x="302" y="55" width="10" height="10" class="count0" style="animation-delay: 2072.6928361257196ms" /><rect x="302.5" y="55.5" width="9" height="9" class="st" style="animation-delay: 2072.6928361257196ms" />
<rect x="302" y="68" width="10" height="10" class="count0" style="animation-delay: 2087.298532885314ms" /><rect x="302.5" y="68.5" width="9" height="9" class="st" style="animation-delay: 2087.298532885314ms" />
<rect x="302" y="81" width="10" height="10" class="count0" style="animation-delay: 2102.387279117137ms" /><rect x="302.5" y="81.5" width="9" height="9" class="st" style="animation-delay: 2102.387279117137ms" />
<rect x="315" y="3" width="10" height="10" class="count0" style="animation-delay: 2118.0011116668193ms" /><rect x="315.5" y="3.5" width="9" height="9" class="st" style="animation-delay: 2118.0011116668193ms" />
<rect x="315" y="16" width="10" height="10" class="count0" style="animation-delay: 2134.1882450517605ms" /><rect x="315.5" y="16.5" width="9" height="9" class="st" style="animation-delay: 2134.1882450517605ms" />
<rect x="315" y="29" width="10" height="10" class="count1" style="animation-delay: 2151.004393075021ms" /><rect x="315.5" y="29.5" width="9" height="9" class="st" style="animation-delay: 2151.004393075021ms" />
<rect x="315" y="42" width="10" height="10" class="count2" style="animation-delay: 2168.5144727467696ms" /><rect x="315.5" y="42.5" width="9" height="9" class="st" style="animation-delay: 2168.5144727467696ms" />
<rect x="315" y="55" width="10" height="10" class="count1" style="animation-delay: 2186.7948337462144ms" /><rect x="315.5" y="55.5" width="9" height="9" class="st" style="animation-delay: 2186.7948337462144ms" />
<rect x="315" y="68" width="10" height="10" class="count4" style="animation-delay: 2205.936224296546ms" /><rect x="315.5" y="68.5" width="9" height="9" class="st" style="animation-delay: 2205.936224296546ms" />
<rect x="315" y="81" width="10" height="10" class="count4" style="animation-delay: 2226.0478115236056ms" /><rect x="315.5" y="81.5" width="9" height="9" class="st" style="animation-delay: 2226.0478115236056ms" />
<rect x="328" y="3" width="10" height="10" class="count1" style="animation-delay: 2247.262749460229ms" /><rect x="328.5" y="3.5" width="9" height="9" class="st" style="animation-delay: 2247.262749460229ms" />
<rect x="328" y="16" width="10" height="10" class="count2" style="animation-delay: 2269.7460838744214ms" /><rect x="328.5" y="16.5" width="9" height="9" class="st" style="animation-delay: 2269.7460838744214ms" />
<rect x="328" y="29" width="10" height="10" class="count1" style="animation-delay: 2293.7063039075097ms" /><rect x="328.5" y="29.5" width="9" height="9" class="st" style="animation-delay: 2293.7063039075097ms" />
<rect x="328" y="42" width="10" height="10" class="count2" style="animation-delay: 2319.412810575046ms" /><rect x="328.5" y="42.5" width="9" height="9" class="st" style="animation-delay: 2319.412810575046ms" />
<rect x="328" y="55" width="10" height="10" class="count0" style="animation-delay: 2347.223442857233ms" /><rect x="328.5" y="55.5" width="9" height="9" class="st" style="animation-delay: 2347.223442857233ms" />
<rect x="328" y="68" width="10" height="10" class="count0" style="animation-delay: 2377.6300999753175ms" /><rect x="328.5" y="68.5" width="9" height="9" class="st" style="animation-delay: 2377.6300999753175ms" />
<rect x="328" y="81" width="10" height="10" class="count2" style="animation-delay: 2411.3393240644064ms" /><rect x="328.5" y="81.5" width="9" height="9" class="st" style="animation-delay: 2411.3393240644064ms" />
<rect x="341" y="3" width="10" height="10" class="count2" style="animation-delay: 2449.426928562576ms" /><rect x="341.5" y="3.5" width="9" height="9" class="st" style="animation-delay: 2449.426928562576ms" />
<rect x="341" y="16" width="10" height="10" class="count1" style="animation-delay: 2493.670214115627ms" /><rect x="341.5" y="16.5" width="9" height="9" class="st" style="animation-delay: 2493.670214115627ms" />
<rect x="341" y="29" width="10" height="10" class="count0" style="animation-delay: 2547.3900144732715ms" /><rect x="341.5" y="29.5" width="9" height="9" class="st" style="animation-delay: 2547.3900144732715ms" />
<rect x="341" y="42" width="10" height="10" class="count0" style="animation-delay: 2618.2539535650053ms" /><rect x="341.5" y="42.5" width="9" height="9" class="st" style="animation-delay: 2618.2539535650053ms" />
<rect x="341" y="55" width="10" height="10" class="count2" style="animation-delay: 2735.3120747655153ms" /><rect x="341.5" y="55.5" width="9" height="9" class="st" style="animation-delay: 2735.3120747655153ms" />
</svg>

  