

<svg height="94" width="354" xmlns="http://www.w3.org/2000/svg" fill='#4FA1A7'>
  <style>
  rect {
  rx: 2;
  ry: 2;
  animation: wow .5s backwards;
  }
  .st {
  
  stroke: rgba(27, 31, 35, 0.06);
  stroke-width: 1;
  fill: none;
  }
  @keyframes wow {
  from {opacity: 0;}
  to{ opacity: 1;}}
  .count0 {fill: #ebedf0}
.count1 {fill: #9be9a8}
.count2 {fill: #9be9a8}
.count3 {fill: #40c463}
.count4 {fill: #40c463}
.count5 {fill: #30a14e}
.count6 {fill: #30a14e}
.count7 {fill: #216e39}
.count8 {fill: #216e39}
  </style>
<rect x="3" y="68" width="10" height="10" class="count3" style="animation-delay: 266.1584438823193ms" /><rect x="3.5" y="68.5" width="9" height="9" class="st" style="animation-delay: 266.1584438823193ms" />
<rect x="3" y="81" width="10" height="10" class="count3" style="animation-delay: 383.86690132296354ms" /><rect x="3.5" y="81.5" width="9" height="9" class="st" style="animation-delay: 383.86690132296354ms" />
<rect x="16" y="3" width="10" height="10" class="count1" style="animation-delay: 455.1245370436655ms" /><rect x="16.5" y="3.5" width="9" height="9" class="st" style="animation-delay: 455.1245370436655ms" />
<rect x="16" y="16" width="10" height="10" class="count2" style="animation-delay: 509.14278686066365ms" /><rect x="16.5" y="16.5" width="9" height="9" class="st" style="animation-delay: 509.14278686066365ms" />
<rect x="16" y="29" width="10" height="10" class="count5" style="animation-delay: 553.6318734882805ms" /><rect x="16.5" y="29.5" width="9" height="9" class="st" style="animation-delay: 553.6318734882805ms" />
<rect x="16" y="42" width="10" height="10" class="count1" style="animation-delay: 591.9310801311887ms" /><rect x="16.5" y="42.5" width="9" height="9" class="st" style="animation-delay: 591.9310801311887ms" />
<rect x="16" y="55" width="10" height="10" class="count3" style="animation-delay: 625.8275815302761ms" /><rect x="16.5" y="55.5" width="9" height="9" class="st" style="animation-delay: 625.8275815302761ms" />
<rect x="16" y="68" width="10" height="10" class="count2" style="animation-delay: 656.4031679875848ms" /><rect x="16.5" y="68.5" width="9" height="9" class="st" style="animation-delay: 656.4031679875848ms" />
<rect x="16" y="81" width="10" height="10" class="count2" style="animation-delay: 684.3683069528507ms" /><rect x="16.5" y="81.5" width="9" height="9" class="st" style="animation-delay: 684.3683069528507ms" />
<rect x="29" y="3" width="10" height="10" class="count2" style="animation-delay: 710.2176304768482ms" /><rect x="29.5" y="3.5" width="9" height="9" class="st" style="animation-delay: 710.2176304768482ms" />
<rect x="29" y="16" width="10" height="10" class="count1" style="animation-delay: 734.3109655749086ms" /><rect x="29.5" y="16.5" width="9" height="9" class="st" style="animation-delay: 734.3109655749086ms" />
<rect x="29" y="29" width="10" height="10" class="count2" style="animation-delay: 756.9192099656038ms" /><rect x="29.5" y="29.5" width="9" height="9" class="st" style="animation-delay: 756.9192099656038ms" />
<rect x="29" y="42" width="10" height="10" class="count2" style="animation-delay: 778.2520110870353ms" /><rect x="29.5" y="42.5" width="9" height="9" class="st" style="animation-delay: 778.2520110870353ms" />
<rect x="29" y="55" width="10" height="10" class="count1" style="animation-delay: 798.475331646958ms" /><rect x="29.5" y="55.5" width="9" height="9" class="st" style="animation-delay: 798.475331646958ms" />
<rect x="29" y="68" width="10" height="10" class="count3" style="animation-delay: 817.7230654380121ms" /><rect x="29.5" y="68.5" width="9" height="9" class="st" style="animation-delay: 817.7230654380121ms" />
<rect x="29" y="81" width="10" height="10" class="count2" style="animation-delay: 836.1049860825182ms" /><rect x="29.5" y="81.5" width="9" height="9" class="st" style="animation-delay: 836.1049860825182ms" />
<rect x="42" y="3" width="10" height="10" class="count1" style="animation-delay: 853.712345970807ms" /><rect x="42.5" y="3.5" width="9" height="9" class="st" style="animation-delay: 853.712345970807ms" />
<rect x="42" y="16" width="10" height="10" class="count1" style="animation-delay: 870.621918955675ms" /><rect x="42.5" y="16.5" width="9" height="9" class="st" style="animation-delay: 870.621918955675ms" />
<rect x="42" y="29" width="10" height="10" class="count2" style="animation-delay: 886.8989827047477ms" /><rect x="42.5" y="29.5" width="9" height="9" class="st" style="animation-delay: 886.8989827047477ms" />
<rect x="42" y="42" width="10" height="10" class="count1" style="animation-delay: 902.5995605485653ms" /><rect x="42.5" y="42.5" width="9" height="9" class="st" style="animation-delay: 902.5995605485653ms" />
<rect x="42" y="55" width="10" height="10" class="count1" style="animation-delay: 917.772134868453ms" /><rect x="42.5" y="55.5" width="9" height="9" class="st" style="animation-delay: 917.772134868453ms" />
<rect x="42" y="68" width="10" height="10" class="count1" style="animation-delay: 932.4589760528663ms" /><rect x="42.5" y="68.5" width="9" height="9" class="st" style="animation-delay: 932.4589760528663ms" />
<rect x="42" y="81" width="10" height="10" class="count1" style="animation-delay: 946.6971869785158ms" /><rect x="42.5" y="81.5" width="9" height="9" class="st" style="animation-delay: 946.6971869785158ms" />
<rect x="55" y="3" width="10" height="10" class="count1" style="animation-delay: 960.5195337316452ms" /><rect x="55.5" y="3.5" width="9" height="9" class="st" style="animation-delay: 960.5195337316452ms" />
<rect x="55" y="16" width="10" height="10" class="count1" style="animation-delay: 973.9551134693997ms" /><rect x="55.5" y="16.5" width="9" height="9" class="st" style="animation-delay: 973.9551134693997ms" />
<rect x="55" y="29" width="10" height="10" class="count2" style="animation-delay: 987.0298966347575ms" /><rect x="55.5" y="29.5" width="9" height="9" class="st" style="animation-delay: 987.0298966347575ms" />
<rect x="55" y="42" width="10" height="10" class="count3" style="animation-delay: 999.7671711208047ms" /><rect x="55.5" y="42.5" width="9" height="9" class="st" style="animation-delay: 999.7671711208047ms" />
<rect x="55" y="55" width="10" height="10" class="count3" style="animation-delay: 1012.1879091146891ms" /><rect x="55.5" y="55.5" width="9" height="9" class="st" style="animation-delay: 1012.1879091146891ms" />
<rect x="55" y="68" width="10" height="10" class="count1" style="animation-delay: 1024.31107237998ms" /><rect x="55.5" y="68.5" width="9" height="9" class="st" style="animation-delay: 1024.31107237998ms" />
<rect x="55" y="81" width="10" height="10" class="count2" style="animation-delay: 1036.1538680882734ms" /><rect x="55.5" y="81.5" width="9" height="9" class="st" style="animation-delay: 1036.1538680882734ms" />
<rect x="68" y="3" width="10" height="10" class="count0" style="animation-delay: 1047.7319646016078ms" /><rect x="68.5" y="3.5" width="9" height="9" class="st" style="animation-delay: 1047.7319646016078ms" />
<rect x="68" y="16" width="10" height="10" class="count2" style="animation-delay: 1059.0596745724301ms" /><rect x="68.5" y="16.5" width="9" height="9" class="st" style="animation-delay: 1059.0596745724301ms" />
<rect x="68" y="29" width="10" height="10" class="count2" style="animation-delay: 1070.1501111836214ms" /><rect x="68.5" y="29.5" width="9" height="9" class="st" style="animation-delay: 1070.1501111836214ms" />
<rect x="68" y="42" width="10" height="10" class="count1" style="animation-delay: 1081.015322167812ms" /><rect x="68.5" y="42.5" width="9" height="9" class="st" style="animation-delay: 1081.015322167812ms" />
<rect x="68" y="55" width="10" height="10" class="count2" style="animation-delay: 1091.6664053303152ms" /><rect x="68.5" y="55.5" width="9" height="9" class="st" style="animation-delay: 1091.6664053303152ms" />
<rect x="68" y="68" width="10" height="10" class="count2" style="animation-delay: 1102.1136085866742ms" /><rect x="68.5" y="68.5" width="9" height="9" class="st" style="animation-delay: 1102.1136085866742ms" />
<rect x="68" y="81" width="10" height="10" class="count1" style="animation-delay: 1112.3664169652116ms" /><rect x="68.5" y="81.5" width="9" height="9" class="st" style="animation-delay: 1112.3664169652116ms" />
<rect x="81" y="3" width="10" height="10" class="count1" style="animation-delay: 1122.4336285811532ms" /><rect x="81.5" y="3.5" width="9" height="9" class="st" style="animation-delay: 1122.4336285811532ms" />
<rect x="81" y="16" width="10" height="10" class="count3" style="animation-delay: 1132.3234212350926ms" /><rect x="81.5" y="16.5" width="9" height="9" class="st" style="animation-delay: 1132.3234212350926ms" />
<rect x="81" y="29" width="10" height="10" class="count5" style="animation-delay: 1142.0434110046417ms" /><rect x="81.5" y="29.5" width="9" height="9" class="st" style="animation-delay: 1142.0434110046417ms" />
<rect x="81" y="42" width="10" height="10" class="count2" style="animation-delay: 1151.6007039688907ms" /><rect x="81.5" y="42.5" width="9" height="9" class="st" style="animation-delay: 1151.6007039688907ms" />
<rect x="81" y="55" width="10" height="10" class="count4" style="animation-delay: 1161.0019420191234ms" /><rect x="81.5" y="55.5" width="9" height="9" class="st" style="animation-delay: 1161.0019420191234ms" />
<rect x="81" y="68" width="10" height="10" class="count5" style="animation-delay: 1170.2533435572293ms" /><rect x="81.5" y="68.5" width="9" height="9" class="st" style="animation-delay: 1170.2533435572293ms" />
<rect x="81" y="81" width="10" height="10" class="count5" style="animation-delay: 1179.3607397584296ms" /><rect x="81.5" y="81.5" width="9" height="9" class="st" style="animation-delay: 1179.3607397584296ms" />
<rect x="94" y="3" width="10" height="10" class="count5" style="animation-delay: 1188.3296069719975ms" /><rect x="94.5" y="3.5" width="9" height="9" class="st" style="animation-delay: 1188.3296069719975ms" />
<rect x="94" y="16" width="10" height="10" class="count3" style="animation-delay: 1197.1650957482948ms" /><rect x="94.5" y="16.5" width="9" height="9" class="st" style="animation-delay: 1197.1650957482948ms" />
<rect x="94" y="29" width="10" height="10" class="count5" style="animation-delay: 1205.8720569093935ms" /><rect x="94.5" y="29.5" width="9" height="9" class="st" style="animation-delay: 1205.8720569093935ms" />
<rect x="94" y="42" width="10" height="10" class="count6" style="animation-delay: 1214.455065021129ms" /><rect x="94.5" y="42.5" width="9" height="9" class="st" style="animation-delay: 1214.455065021129ms" />
<rect x="94" y="55" width="10" height="10" class="count2" style="animation-delay: 1222.91843957453ms" /><rect x="94.5" y="55.5" width="9" height="9" class="st" style="animation-delay: 1222.91843957453ms" />
<rect x="94" y="68" width="10" height="10" class="count2" style="animation-delay: 1231.2662641425259ms" /><rect x="94.5" y="68.5" width="9" height="9" class="st" style="animation-delay: 1231.2662641425259ms" />
<rect x="94" y="81" width="10" height="10" class="count1" style="animation-delay: 1239.5024037422347ms" /><rect x="94.5" y="81.5" width="9" height="9" class="st" style="animation-delay: 1239.5024037422347ms" />
<rect x="107" y="3" width="10" height="10" class="count4" style="animation-delay: 1247.6305206029301ms" /><rect x="107.5" y="3.5" width="9" height="9" class="st" style="animation-delay: 1247.6305206029301ms" />
<rect x="107" y="16" width="10" height="10" class="count1" style="animation-delay: 1255.6540885140337ms" /><rect x="107.5" y="16.5" width="9" height="9" class="st" style="animation-delay: 1255.6540885140337ms" />
<rect x="107" y="29" width="10" height="10" class="count0" style="animation-delay: 1263.57640590548ms" /><rect x="107.5" y="29.5" width="9" height="9" class="st" style="animation-delay: 1263.57640590548ms" />
<rect x="107" y="42" width="10" height="10" class="count1" style="animation-delay: 1271.4006077939187ms" /><rect x="107.5" y="42.5" width="9" height="9" class="st" style="animation-delay: 1271.4006077939187ms" />
<rect x="107" y="55" width="10" height="10" class="count4" style="animation-delay: 1279.1296767119998ms" /><rect x="107.5" y="55.5" width="9" height="9" class="st" style="animation-delay: 1279.1296767119998ms" />
<rect x="107" y="68" width="10" height="10" class="count4" style="animation-delay: 1286.7664527239704ms" /><rect x="107.5" y="68.5" width="9" height="9" class="st" style="animation-delay: 1286.7664527239704ms" />
<rect x="107" y="81" width="10" height="10" class="count5" style="animation-delay: 1294.3136426187111ms" /><rect x="107.5" y="81.5" width="9" height="9" class="st" style="animation-delay: 1294.3136426187111ms" />
<rect x="120" y="3" width="10" height="10" class="count3" style="animation-delay: 1301.773828360824ms" /><rect x="120.5" y="3.5" width="9" height="9" class="st" style="animation-delay: 1301.773828360824ms" />
<rect x="120" y="16" width="10" height="10" class="count4" style="animation-delay: 1309.1494748712541ms" /><rect x="120.5" y="16.5" width="9" height="9" class="st" style="animation-delay: 1309.1494748712541ms" />
<rect x="120" y="29" width="10" height="10" class="count6" style="animation-delay: 1316.4429372009536ms" /><rect x="120.5" y="29.5" width="9" height="9" class="st" style="animation-delay: 1316.4429372009536ms" />
<rect x="120" y="42" width="10" height="10" class="count6" style="animation-delay: 1323.6564671541391ms" /><rect x="120.5" y="42.5" width="9" height="9" class="st" style="animation-delay: 1323.6564671541391ms" />
<rect x="120" y="55" width="10" height="10" class="count6" style="animation-delay: 1330.7922194115965ms" /><rect x="120.5" y="55.5" width="9" height="9" class="st" style="animation-delay: 1330.7922194115965ms" />
<rect x="120" y="68" width="10" height="10" class="count8" style="animation-delay: 1337.8522571991289ms" /><rect x="120.5" y="68.5" width="9" height="9" class="st" style="animation-delay: 1337.8522571991289ms" />
<rect x="120" y="81" width="10" height="10" class="count7" style="animation-delay: 1344.8385575415323ms" /><rect x="120.5" y="81.5" width="9" height="9" class="st" style="animation-delay: 1344.8385575415323ms" />
<rect x="133" y="3" width="10" height="10" class="count5" style="animation-delay: 1351.753016138339ms" /><rect x="133.5" y="3.5" width="9" height="9" class="st" style="animation-delay: 1351.753016138339ms" />
<rect x="133" y="16" width="10" height="10" class="count5" style="animation-delay: 1358.5974518938806ms" /><rect x="133.5" y="16.5" width="9" height="9" class="st" style="animation-delay: 1358.5974518938806ms" />
<rect x="133" y="29" width="10" height="10" class="count5" style="animation-delay: 1365.3736111309966ms" /><rect x="133.5" y="29.5" width="9" height="9" class="st" style="animation-delay: 1365.3736111309966ms" />
<rect x="133" y="42" width="10" height="10" class="count5" style="animation-delay: 1372.0831715148113ms" /><rect x="133.5" y="42.5" width="9" height="9" class="st" style="animation-delay: 1372.0831715148113ms" />
<rect x="133" y="55" width="10" height="10" class="count7" style="animation-delay: 1378.7277457104576ms" /><rect x="133.5" y="55.5" width="9" height="9" class="st" style="animation-delay: 1378.7277457104576ms" />
<rect x="133" y="68" width="10" height="10" class="count3" style="animation-delay: 1385.3088847963377ms" /><rect x="133.5" y="68.5" width="9" height="9" class="st" style="animation-delay: 1385.3088847963377ms" />
<rect x="133" y="81" width="10" height="10" class="count5" style="animation-delay: 1391.8280814524792ms" /><rect x="133.5" y="81.5" width="9" height="9" class="st" style="animation-delay: 1391.8280814524792ms" />
<rect x="146" y="3" width="10" height="10" class="count6" style="animation-delay: 1398.2867729417353ms" /><rect x="146.5" y="3.5" width="9" height="9" class="st" style="animation-delay: 1398.2867729417353ms" />
<rect x="146" y="16" width="10" height="10" class="count4" style="animation-delay: 1404.6863438999449ms" /><rect x="146.5" y="16.5" width="9" height="9" class="st" style="animation-delay: 1404.6863438999449ms" />
<rect x="146" y="29" width="10" height="10" class="count3" style="animation-delay: 1411.0281289497188ms" /><rect x="146.5" y="29.5" width="9" height="9" class="st" style="animation-delay: 1411.0281289497188ms" />
<rect x="146" y="42" width="10" height="10" class="count3" style="animation-delay: 1417.313415151209ms" /><rect x="146.5" y="42.5" width="9" height="9" class="st" style="animation-delay: 1417.313415151209ms" />
<rect x="146" y="55" width="10" height="10" class="count3" style="animation-delay: 1423.5434443020447ms" /><rect x="146.5" y="55.5" width="9" height="9" class="st" style="animation-delay: 1423.5434443020447ms" />
<rect x="146" y="68" width="10" height="10" class="count3" style="animation-delay: 1429.7194150975608ms" /><rect x="146.5" y="68.5" width="9" height="9" class="st" style="animation-delay: 1429.7194150975608ms" />
<rect x="146" y="81" width="10" height="10" class="count3" style="animation-delay: 1435.84248516149ms" /><rect x="146.5" y="81.5" width="9" height="9" class="st" style="animation-delay: 1435.84248516149ms" />
<rect x="159" y="3" width="10" height="10" class="count1" style="animation-delay: 1441.9137729564338ms" /><rect x="159.5" y="3.5" width="9" height="9" class="st" style="animation-delay: 1441.9137729564338ms" />
<rect x="159" y="16" width="10" height="10" class="count3" style="animation-delay: 1447.934359582645ms" /><rect x="159.5" y="16.5" width="9" height="9" class="st" style="animation-delay: 1447.934359582645ms" />
<rect x="159" y="29" width="10" height="10" class="count1" style="animation-delay: 1453.9052904729508ms" /><rect x="159.5" y="29.5" width="9" height="9" class="st" style="animation-delay: 1453.9052904729508ms" />
<rect x="159" y="42" width="10" height="10" class="count0" style="animation-delay: 1459.8275769910144ms" /><rect x="159.5" y="42.5" width="9" height="9" class="st" style="animation-delay: 1459.8275769910144ms" />
<rect x="159" y="55" width="10" height="10" class="count1" style="animation-delay: 1465.7021979395422ms" /><rect x="159.5" y="55.5" width="9" height="9" class="st" style="animation-delay: 1465.7021979395422ms" />
<rect x="159" y="68" width="10" height="10" class="count0" style="animation-delay: 1471.5301009845286ms" /><rect x="159.5" y="68.5" width="9" height="9" class="st" style="animation-delay: 1471.5301009845286ms" />
<rect x="159" y="81" width="10" height="10" class="count0" style="animation-delay: 1477.3122040011467ms" /><rect x="159.5" y="81.5" width="9" height="9" class="st" style="animation-delay: 1477.3122040011467ms" />
<rect x="172" y="3" width="10" height="10" class="count0" style="animation-delay: 1483.0493963464573ms" /><rect x="172.5" y="3.5" width="9" height="9" class="st" style="animation-delay: 1483.0493963464573ms" />
<rect x="172" y="16" width="10" height="10" class="count2" style="animation-delay: 1488.742540063713ms" /><rect x="172.5" y="16.5" width="9" height="9" class="st" style="animation-delay: 1488.742540063713ms" />
<rect x="172" y="29" width="10" height="10" class="count0" style="animation-delay: 1494.3924710226715ms" /><rect x="172.5" y="29.5" width="9" height="9" class="st" style="animation-delay: 1494.3924710226715ms" />
<rect x="172" y="42" width="10" height="10" class="count1" style="animation-delay: 1500ms" /><rect x="172.5" y="42.5" width="9" height="9" class="st" style="animation-delay: 1500ms" />
<rect x="172" y="55" width="10" height="10" class="count1" style="animation-delay: 1505.6075289773282ms" /><rect x="172.5" y="55.5" width="9" height="9" class="st" style="animation-delay: 1505.6075289773282ms" />
<rect x="172" y="68" width="10" height="10" class="count1" style="animation-delay: 1511.2574599362872ms" /><rect x="172.5" y="68.5" width="9" height="9" class="st" style="animation-delay: 1511.2574599362872ms" />
<rect x="172" y="81" width="10" height="10" class="count1" style="animation-delay: 1516.9506036535427ms" /><rect x="172.5" y="81.5" width="9" height="9" class="st" style="animation-delay: 1516.9506036535427ms" />
<rect x="185" y="3" width="10" height="10" class="count0" style="animation-delay: 1522.6877959988533ms" /><rect x="185.5" y="3.5" width="9" height="9" class="st" style="animation-delay: 1522.6877959988533ms" />
<rect x="185" y="16" width="10" height="10" class="count3" style="animation-delay: 1528.4698990154714ms" /><rect x="185.5" y="16.5" width="9" height="9" class="st" style="animation-delay: 1528.4698990154714ms" />
<rect x="185" y="29" width="10" height="10" class="count0" style="animation-delay: 1534.2978020604578ms" /><rect x="185.5" y="29.5" width="9" height="9" class="st" style="animation-delay: 1534.2978020604578ms" />
<rect x="185" y="42" width="10" height="10" class="count0" style="animation-delay: 1540.1724230089856ms" /><rect x="185.5" y="42.5" width="9" height="9" class="st" style="animation-delay: 1540.1724230089856ms" />
<rect x="185" y="55" width="10" height="10" class="count2" style="animation-delay: 1546.0947095270492ms" /><rect x="185.5" y="55.5" width="9" height="9" class="st" style="animation-delay: 1546.0947095270492ms" />
<rect x="185" y="68" width="10" height="10" class="count1" style="animation-delay: 1552.065640417355ms" /><rect x="185.5" y="68.5" width="9" height="9" class="st" style="animation-delay: 1552.065640417355ms" />
<rect x="185" y="81" width="10" height="10" class="count0" style="animation-delay: 1558.0862270435662ms" /><rect x="185.5" y="81.5" width="9" height="9" class="st" style="animation-delay: 1558.0862270435662ms" />
<rect x="198" y="3" width="10" height="10" class="count0" style="animation-delay: 1564.15751483851ms" /><rect x="198.5" y="3.5" width="9" height="9" class="st" style="animation-delay: 1564.15751483851ms" />
<rect x="198" y="16" width="10" height="10" class="count0" style="animation-delay: 1570.2805849024392ms" /><rect x="198.5" y="16.5" width="9" height="9" class="st" style="animation-delay: 1570.2805849024392ms" />
<rect x="198" y="29" width="10" height="10" class="count0" style="animation-delay: 1576.456555697955ms" /><rect x="198.5" y="29.5" width="9" height="9" class="st" style="animation-delay: 1576.456555697955ms" />
<rect x="198" y="42" width="10" height="10" class="count0" style="animation-delay: 1582.686584848791ms" /><rect x="198.5" y="42.5" width="9" height="9" class="st" style="animation-delay: 1582.686584848791ms" />
<rect x="198" y="55" width="10" height="10" class="count0" style="animation-delay: 1588.9718710502814ms" /><rect x="198.5" y="55.5" width="9" height="9" class="st" style="animation-delay: 1588.9718710502814ms" />
<rect x="198" y="68" width="10" height="10" class="count0" style="animation-delay: 1595.313656100055ms" /><rect x="198.5" y="68.5" width="9" height="9" class="st" style="animation-delay: 1595.313656100055ms" />
<rect x="198" y="81" width="10" height="10" class="count0" style="animation-delay: 1601.7132270582647ms" /><rect x="198.5" y="81.5" width="9" height="9" class="st" style="animation-delay: 1601.7132270582647ms" />
<rect x="211" y="3" width="10" height="10" class="count0" style="animation-delay: 1608.1719185475208ms" /><rect x="211.5" y="3.5" width="9" height="9" class="st" style="animation-delay: 1608.1719185475208ms" />
<rect x="211" y="16" width="10" height="10" class="count0" style="animation-delay: 1614.6911152036628ms" /><rect x="211.5" y="16.5" width="9" height="9" class="st" style="animation-delay: 1614.6911152036628ms" />
<rect x="211" y="29" width="10" height="10" class="count0" style="animation-delay: 1621.2722542895424ms" /><rect x="211.5" y="29.5" width="9" height="9" class="st" style="animation-delay: 1621.2722542895424ms" />
<rect x="211" y="42" width="10" height="10" class="count0" style="animation-delay: 1627.916828485189ms" /><rect x="211.5" y="42.5" width="9" height="9" class="st" style="animation-delay: 1627.916828485189ms" />
<rect x="211" y="55" width="10" height="10" class="count0" style="animation-delay: 1634.6263888690034ms" /><rect x="211.5" y="55.5" width="9" height="9" class="st" style="animation-delay: 1634.6263888690034ms" />
<rect x="211" y="68" width="10" height="10" class="count0" style="animation-delay: 1641.4025481061192ms" /><rect x="211.5" y="68.5" width="9" height="9" class="st" style="animation-delay: 1641.4025481061192ms" />
<rect x="211" y="81" width="10" height="10" class="count0" style="animation-delay: 1648.246983861661ms" /><rect x="211.5" y="81.5" width="9" height="9" class="st" style="animation-delay: 1648.246983861661ms" />
<rect x="224" y="3" width="10" height="10" class="count0" style="animation-delay: 1655.1614424584677ms" /><rect x="224.5" y="3.5" width="9" height="9" class="st" style="animation-delay: 1655.1614424584677ms" />
<rect x="224" y="16" width="10" height="10" class="count0" style="animation-delay: 1662.1477428008711ms" /><rect x="224.5" y="16.5" width="9" height="9" class="st" style="animation-delay: 1662.1477428008711ms" />
<rect x="224" y="29" width="10" height="10" class="count0" style="animation-delay: 1669.2077805884035ms" /><rect x="224.5" y="29.5" width="9" height="9" class="st" style="animation-delay: 1669.2077805884035ms" />
<rect x="224" y="42" width="10" height="10" class="count0" style="animation-delay: 1676.3435328458606ms" /><rect x="224.5" y="42.5" width="9" height="9" class="st" style="animation-delay: 1676.3435328458606ms" />
<rect x="224" y="55" width="10" height="10" class="count0" style="animation-delay: 1683.5570627990464ms" /><rect x="224.5" y="55.5" width="9" height="9" class="st" style="animation-delay: 1683.5570627990464ms" />
<rect x="224" y="68" width="10" height="10" class="count0" style="animation-delay: 1690.8505251287459ms" /><rect x="224.5" y="68.5" width="9" height="9" class="st" style="animation-delay: 1690.8505251287459ms" />
<rect x="224" y="81" width="10" height="10" class="count0" style="animation-delay: 1698.226171639176ms" /><rect x="224.5" y="81.5" width="9" height="9" class="st" style="animation-delay: 1698.226171639176ms" />
<rect x="237" y="3" width="10" height="10" class="count1" style="animation-delay: 1705.6863573812893ms" /><rect x="237.5" y="3.5" width="9" height="9" class="st" style="animation-delay: 1705.6863573812893ms" />
<rect x="237" y="16" width="10" height="10" class="count1" style="animation-delay: 1713.2335472760296ms" /><rect x="237.5" y="16.5" width="9" height="9" class="st" style="animation-delay: 1713.2335472760296ms" />
<rect x="237" y="29" width="10" height="10" class="count1" style="animation-delay: 1720.8703232880002ms" /><rect x="237.5" y="29.5" width="9" height="9" class="st" style="animation-delay: 1720.8703232880002ms" />
<rect x="237" y="42" width="10" height="10" class="count0" style="animation-delay: 1728.599392206081ms" /><rect x="237.5" y="42.5" width="9" height="9" class="st" style="animation-delay: 1728.599392206081ms" />
<rect x="237" y="55" width="10" height="10" class="count0" style="animation-delay: 1736.42359409452ms" /><rect x="237.5" y="55.5" width="9" height="9" class="st" style="animation-delay: 1736.42359409452ms" />
<rect x="237" y="68" width="10" height="10" class="count0" style="animation-delay: 1744.345911485966ms" /><rect x="237.5" y="68.5" width="9" height="9" class="st" style="animation-delay: 1744.345911485966ms" />
<rect x="237" y="81" width="10" height="10" class="count0" style="animation-delay: 1752.3694793970699ms" /><rect x="237.5" y="81.5" width="9" height="9" class="st" style="animation-delay: 1752.3694793970699ms" />
<rect x="250" y="3" width="10" height="10" class="count0" style="animation-delay: 1760.4975962577653ms" /><rect x="250.5" y="3.5" width="9" height="9" class="st" style="animation-delay: 1760.4975962577653ms" />
<rect x="250" y="16" width="10" height="10" class="count0" style="animation-delay: 1768.733735857474ms" /><rect x="250.5" y="16.5" width="9" height="9" class="st" style="animation-delay: 1768.733735857474ms" />
<rect x="250" y="29" width="10" height="10" class="count1" style="animation-delay: 1777.0815604254701ms" /><rect x="250.5" y="29.5" width="9" height="9" class="st" style="animation-delay: 1777.0815604254701ms" />
<rect x="250" y="42" width="10" height="10" class="count1" style="animation-delay: 1785.544934978871ms" /><rect x="250.5" y="42.5" width="9" height="9" class="st" style="animation-delay: 1785.544934978871ms" />
<rect x="250" y="55" width="10" height="10" class="count0" style="animation-delay: 1794.1279430906063ms" /><rect x="250.5" y="55.5" width="9" height="9" class="st" style="animation-delay: 1794.1279430906063ms" />
<rect x="250" y="68" width="10" height="10" class="count0" style="animation-delay: 1802.8349042517052ms" /><rect x="250.5" y="68.5" width="9" height="9" class="st" style="animation-delay: 1802.8349042517052ms" />
<rect x="250" y="81" width="10" height="10" class="count0" style="animation-delay: 1811.6703930280023ms" /><rect x="250.5" y="81.5" width="9" height="9" class="st" style="animation-delay: 1811.6703930280023ms" />
<rect x="263" y="3" width="10" height="10" class="count0" style="animation-delay: 1820.6392602415704ms" /><rect x="263.5" y="3.5" width="9" height="9" class="st" style="animation-delay: 1820.6392602415704ms" />
<rect x="263" y="16" width="10" height="10" class="count0" style="animation-delay: 1829.746656442771ms" /><rect x="263.5" y="16.5" width="9" height="9" class="st" style="animation-delay: 1829.746656442771ms" />
<rect x="263" y="29" width="10" height="10" class="count0" style="animation-delay: 1838.9980579808769ms" /><rect x="263.5" y="29.5" width="9" height="9" class="st" style="animation-delay: 1838.9980579808769ms" />
<rect x="263" y="42" width="10" height="10" class="count2" style="animation-delay: 1848.3992960311093ms" /><rect x="263.5" y="42.5" width="9" height="9" class="st" style="animation-delay: 1848.3992960311093ms" />
<rect x="263" y="55" width="10" height="10" class="count1" style="animation-delay: 1857.9565889953583ms" /><rect x="263.5" y="55.5" width="9" height="9" class="st" style="animation-delay: 1857.9565889953583ms" />
<rect x="263" y="68" width="10" height="10" class="count3" style="animation-delay: 1867.6765787649074ms" /><rect x="263.5" y="68.5" width="9" height="9" class="st" style="animation-delay: 1867.6765787649074ms" />
<rect x="263" y="81" width="10" height="10" class="count0" style="animation-delay: 1877.5663714188465ms" /><rect x="263.5" y="81.5" width="9" height="9" class="st" style="animation-delay: 1877.5663714188465ms" />
<rect x="276" y="3" width="10" height="10" class="count0" style="animation-delay: 1887.6335830347884ms" /><rect x="276.5" y="3.5" width="9" height="9" class="st" style="animation-delay: 1887.6335830347884ms" />
<rect x="276" y="16" width="10" height="10" class="count1" style="animation-delay: 1897.886391413326ms" /><rect x="276.5" y="16.5" width="9" height="9" class="st" style="animation-delay: 1897.886391413326ms" />
<rect x="276" y="29" width="10" height="10" class="count0" style="animation-delay: 1908.3335946696848ms" /><rect x="276.5" y="29.5" width="9" height="9" class="st" style="animation-delay: 1908.3335946696848ms" />
<rect x="276" y="42" width="10" height="10" class="count0" style="animation-delay: 1918.984677832188ms" /><rect x="276.5" y="42.5" width="9" height="9" class="st" style="animation-delay: 1918.984677832188ms" />
<rect x="276" y="55" width="10" height="10" class="count0" style="animation-delay: 1929.8498888163786ms" /><rect x="276.5" y="55.5" width="9" height="9" class="st" style="animation-delay: 1929.8498888163786ms" />
<rect x="276" y="68" width="10" height="10" class="count0" style="animation-delay: 1940.9403254275699ms" /><rect x="276.5" y="68.5" width="9" height="9" class="st" style="animation-delay: 1940.9403254275699ms" />
<rect x="276" y="81" width="10" height="10" class="count0" style="animation-delay: 1952.2680353983922ms" /><rect x="276.5" y="81.5" width="9" height="9" class="st" style="animation-delay: 1952.2680353983922ms" />
<rect x="289" y="3" width="10" height="10" class="count1" style="animation-delay: 1963.8461319117266ms" /><rect x="289.5" y="3.5" width="9" height="9" class="st" style="animation-delay: 1963.8461319117266ms" />
<rect x="289" y="16" width="10" height="10" class="count0" style="animation-delay: 1975.68892762002ms" /><rect x="289.5" y="16.5" width="9" height="9" class="st" style="animation-delay: 1975.68892762002ms" />
<rect x="289" y="29" width="10" height="10" class="count0" style="animation-delay: 1987.812090885311ms" /><rect x="289.5" y="29.5" width="9" height="9" class="st" style="animation-delay: 1987.812090885311ms" />
<rect x="289" y="42" width="10" height="10" class="count0" style="animation-delay: 2000.2328288791953ms" /><rect x="289.5" y="42.5" width="9" height="9" class="st" style="animation-delay: 2000.2328288791953ms" />
<rect x="289" y="55" width="10" height="10" class="count1" style="animation-delay: 2012.9701033652423ms" /><rect x="289.5" y="55.5" width="9" height="9" class="st" style="animation-delay: 2012.9701033652423ms" />
<rect x="289" y="68" width="10" height="10" class="count0" style="animation-delay: 2026.0448865306005ms" /><rect x="289.5" y="68.5" width="9" height="9" class="st" style="animation-delay: 2026.0448865306005ms" />
<rect x="289" y="81" width="10" height="10" class="count1" style="animation-delay: 2039.480466268355ms" /><rect x="289.5" y="81.5" width="9" height="9" class="st" style="animation-delay: 2039.480466268355ms" />
<rect x="302" y="3" width="10" height="10" class="count0" style="animation-delay: 2053.302813021484ms" /><rect x="302.5" y="3.5" width="9" height="9" class="st" style="animation-delay: 2053.302813021484ms" />
<rect x="302" y="16" width="10" height="10" class="count0" style="animation-delay: 2067.541023947134ms" /><rect x="302.5" y="16.5" width="9" height="9" class="st" style="animation-delay: 2067.541023947134ms" />
<rect x="302" y="29" width="10" height="10" class="count2" style="animation-delay: 2082.227865131547ms" /><rect x="302.5" y="29.5" width="9" height="9" class="st" style="animation-delay: 2082.227865131547ms" />
<rect x="302" y="42" width="10" height="10" class="count1" style="animation-delay: 2097.4004394514345ms" /><rect x="302.5" y="42.5" width="9" height="9" class="st" style="animation-delay: 2097.4004394514345ms" />
<rect x="302" y="55" width="10" height="10" class="count0" style="animation-delay: 2113.1010172952524ms" /><rect x="302.5" y="55.5" width="9" height="9" class="st" style="animation-delay: 2113.1010172952524ms" />
<rect x="302" y="68" width="10" height="10" class="count0" style="animation-delay: 2129.378081044325ms" /><rect x="302.5" y="68.5" width="9" height="9" class="st" style="animation-delay: 2129.378081044325ms" />
<rect x="302" y="81" width="10" height="10" class="count0" style="animation-delay: 2146.287654029193ms" /><rect x="302.5" y="81.5" width="9" height="9" class="st" style="animation-delay: 2146.287654029193ms" />
<rect x="315" y="3" width="10" height="10" class="count0" style="animation-delay: 2163.895013917482ms" /><rect x="315.5" y="3.5" width="9" height="9" class="st" style="animation-delay: 2163.895013917482ms" />
<rect x="315" y="16" width="10" height="10" class="count0" style="animation-delay: 2182.276934561988ms" /><rect x="315.5" y="16.5" width="9" height="9" class="st" style="animation-delay: 2182.276934561988ms" />
<rect x="315" y="29" width="10" height="10" class="count1" style="animation-delay: 2201.5246683530418ms" /><rect x="315.5" y="29.5" width="9" height="9" class="st" style="animation-delay: 2201.5246683530418ms" />
<rect x="315" y="42" width="10" height="10" class="count2" style="animation-delay: 2221.747988912965ms" /><rect x="315.5" y="42.5" width="9" height="9" class="st" style="animation-delay: 2221.747988912965ms" />
<rect x="315" y="55" width="10" height="10" class="count1" style="animation-delay: 2243.0807900343957ms" /><rect x="315.5" y="55.5" width="9" height="9" class="st" style="animation-delay: 2243.0807900343957ms" />
<rect x="315" y="68" width="10" height="10" class="count4" style="animation-delay: 2265.6890344250914ms" /><rect x="315.5" y="68.5" width="9" height="9" class="st" style="animation-delay: 2265.6890344250914ms" />
<rect x="315" y="81" width="10" height="10" class="count4" style="animation-delay: 2289.782369523152ms" /><rect x="315.5" y="81.5" width="9" height="9" class="st" style="animation-delay: 2289.782369523152ms" />
<rect x="328" y="3" width="10" height="10" class="count1" style="animation-delay: 2315.6316930471494ms" /><rect x="328.5" y="3.5" width="9" height="9" class="st" style="animation-delay: 2315.6316930471494ms" />
<rect x="328" y="16" width="10" height="10" class="count2" style="animation-delay: 2343.5968320124152ms" /><rect x="328.5" y="16.5" width="9" height="9" class="st" style="animation-delay: 2343.5968320124152ms" />
<rect x="328" y="29" width="10" height="10" class="count1" style="animation-delay: 2374.172418469724ms" /><rect x="328.5" y="29.5" width="9" height="9" class="st" style="animation-delay: 2374.172418469724ms" />
<rect x="328" y="42" width="10" height="10" class="count2" style="animation-delay: 2408.068919868811ms" /><rect x="328.5" y="42.5" width="9" height="9" class="st" style="animation-delay: 2408.068919868811ms" />
<rect x="328" y="55" width="10" height="10" class="count0" style="animation-delay: 2446.3681265117198ms" /><rect x="328.5" y="55.5" width="9" height="9" class="st" style="animation-delay: 2446.3681265117198ms" />
<rect x="328" y="68" width="10" height="10" class="count0" style="animation-delay: 2490.857213139337ms" /><rect x="328.5" y="68.5" width="9" height="9" class="st" style="animation-delay: 2490.857213139337ms" />
<rect x="328" y="81" width="10" height="10" class="count2" style="animation-delay: 2544.875462956334ms" /><rect x="328.5" y="81.5" width="9" height="9" class="st" style="animation-delay: 2544.875462956334ms" />
<rect x="341" y="3" width="10" height="10" class="count2" style="animation-delay: 2616.133098677037ms" /><rect x="341.5" y="3.5" width="9" height="9" class="st" style="animation-delay: 2616.133098677037ms" />
<rect x="341" y="16" width="10" height="10" class="count1" style="animation-delay: 2733.84155611768ms" /><rect x="341.5" y="16.5" width="9" height="9" class="st" style="animation-delay: 2733.84155611768ms" />
</svg>

  