

<svg height="94" width="172" xmlns="http://www.w3.org/2000/svg" fill='#4FA1A7'>
  <style>
  rect {
  rx: 2;
  ry: 2;
  animation: wow .5s backwards;
  }
  .st {
  
  stroke: rgba(27, 31, 35, 0.06);
  stroke-width: 1;
  fill: none;
  }
  @keyframes wow {
  from {opacity: 0;}
  to{ opacity: 1;}}
  .count0 {fill: #ebedf0}
.count1 {fill: #9be9a8}
.count2 {fill: #9be9a8}
.count3 {fill: #40c463}
.count4 {fill: #40c463}
.count5 {fill: #30a14e}
.count6 {fill: #30a14e}
.count7 {fill: #216e39}
.count8 {fill: #216e39}
  </style>
<rect x="3" y="68" width="10" height="10" class="count3" style="animation-delay: 342.50335529722065ms" /><rect x="3.5" y="68.5" width="9" height="9" class="st" style="animation-delay: 342.50335529722065ms" />
<rect x="3" y="81" width="10" height="10" class="count3" style="animation-delay: 493.9753170062621ms" /><rect x="3.5" y="81.5" width="9" height="9" class="st" style="animation-delay: 493.9753170062621ms" />
<rect x="16" y="3" width="10" height="10" class="count1" style="animation-delay: 585.67249921431ms" /><rect x="16.5" y="3.5" width="9" height="9" class="st" style="animation-delay: 585.67249921431ms" />
<rect x="16" y="16" width="10" height="10" class="count2" style="animation-delay: 655.1853485522241ms" /><rect x="16.5" y="16.5" width="9" height="9" class="st" style="animation-delay: 655.1853485522241ms" />
<rect x="16" y="29" width="10" height="10" class="count5" style="animation-delay: 712.4356886947473ms" /><rect x="16.5" y="29.5" width="9" height="9" class="st" style="animation-delay: 712.4356886947473ms" />
<rect x="16" y="42" width="10" height="10" class="count1" style="animation-delay: 761.7206431342072ms" /><rect x="16.5" y="42.5" width="9" height="9" class="st" style="animation-delay: 761.7206431342072ms" />
<rect x="16" y="55" width="10" height="10" class="count3" style="animation-delay: 805.3400199711022ms" /><rect x="16.5" y="55.5" width="9" height="9" class="st" style="animation-delay: 805.3400199711022ms" />
<rect x="16" y="68" width="10" height="10" class="count2" style="animation-delay: 844.6859103327046ms" /><rect x="16.5" y="68.5" width="9" height="9" class="st" style="animation-delay: 844.6859103327046ms" />
<rect x="16" y="81" width="10" height="10" class="count2" style="animation-delay: 880.6725722144204ms" /><rect x="16.5" y="81.5" width="9" height="9" class="st" style="animation-delay: 880.6725722144204ms" />
<rect x="29" y="3" width="10" height="10" class="count2" style="animation-delay: 913.9365179679018ms" /><rect x="29.5" y="3.5" width="9" height="9" class="st" style="animation-delay: 913.9365179679018ms" />
<rect x="29" y="16" width="10" height="10" class="count1" style="animation-delay: 944.9407874211549ms" /><rect x="29.5" y="16.5" width="9" height="9" class="st" style="animation-delay: 944.9407874211549ms" />
<rect x="29" y="29" width="10" height="10" class="count2" style="animation-delay: 974.0339826181346ms" /><rect x="29.5" y="29.5" width="9" height="9" class="st" style="animation-delay: 974.0339826181346ms" />
<rect x="29" y="42" width="10" height="10" class="count2" style="animation-delay: 1001.4858862864969ms" /><rect x="29.5" y="42.5" width="9" height="9" class="st" style="animation-delay: 1001.4858862864969ms" />
<rect x="29" y="55" width="10" height="10" class="count1" style="animation-delay: 1027.510065891662ms" /><rect x="29.5" y="55.5" width="9" height="9" class="st" style="animation-delay: 1027.510065891662ms" />
<rect x="29" y="68" width="10" height="10" class="count3" style="animation-delay: 1052.278821333509ms" /><rect x="29.5" y="68.5" width="9" height="9" class="st" style="animation-delay: 1052.278821333509ms" />
<rect x="29" y="81" width="10" height="10" class="count2" style="animation-delay: 1075.933413709824ms" /><rect x="29.5" y="81.5" width="9" height="9" class="st" style="animation-delay: 1075.933413709824ms" />
<rect x="42" y="3" width="10" height="10" class="count1" style="animation-delay: 1098.5912702545932ms" /><rect x="42.5" y="3.5" width="9" height="9" class="st" style="animation-delay: 1098.5912702545932ms" />
<rect x="42" y="16" width="10" height="10" class="count1" style="animation-delay: 1120.3511866392912ms" /><rect x="42.5" y="16.5" width="9" height="9" class="st" style="animation-delay: 1120.3511866392912ms" />
<rect x="42" y="29" width="10" height="10" class="count2" style="animation-delay: 1141.2971647834565ms" /><rect x="42.5" y="29.5" width="9" height="9" class="st" style="animation-delay: 1141.2971647834565ms" />
<rect x="42" y="42" width="10" height="10" class="count1" style="animation-delay: 1161.5012977546814ms" /><rect x="42.5" y="42.5" width="9" height="9" class="st" style="animation-delay: 1161.5012977546814ms" />
<rect x="42" y="55" width="10" height="10" class="count1" style="animation-delay: 1181.025974624808ms" /><rect x="42.5" y="55.5" width="9" height="9" class="st" style="animation-delay: 1181.025974624808ms" />
<rect x="42" y="68" width="10" height="10" class="count1" style="animation-delay: 1199.9255906242279ms" /><rect x="42.5" y="68.5" width="9" height="9" class="st" style="animation-delay: 1199.9255906242279ms" />
<rect x="42" y="81" width="10" height="10" class="count1" style="animation-delay: 1218.2478912220654ms" /><rect x="42.5" y="81.5" width="9" height="9" class="st" style="animation-delay: 1218.2478912220654ms" />
<rect x="55" y="3" width="10" height="10" class="count1" style="animation-delay: 1236.0350411316194ms" /><rect x="55.5" y="3.5" width="9" height="9" class="st" style="animation-delay: 1236.0350411316194ms" />
<rect x="55" y="16" width="10" height="10" class="count1" style="animation-delay: 1253.3244837411462ms" /><rect x="55.5" y="16.5" width="9" height="9" class="st" style="animation-delay: 1253.3244837411462ms" />
<rect x="55" y="29" width="10" height="10" class="count2" style="animation-delay: 1270.1496388577677ms" /><rect x="55.5" y="29.5" width="9" height="9" class="st" style="animation-delay: 1270.1496388577677ms" />
<rect x="55" y="42" width="10" height="10" class="count3" style="animation-delay: 1286.5404742758683ms" /><rect x="55.5" y="42.5" width="9" height="9" class="st" style="animation-delay: 1286.5404742758683ms" />
<rect x="55" y="55" width="10" height="10" class="count3" style="animation-delay: 1302.5239778465984ms" /><rect x="55.5" y="55.5" width="9" height="9" class="st" style="animation-delay: 1302.5239778465984ms" />
<rect x="55" y="68" width="10" height="10" class="count1" style="animation-delay: 1318.1245503274554ms" /><rect x="55.5" y="68.5" width="9" height="9" class="st" style="animation-delay: 1318.1245503274554ms" />
<rect x="55" y="81" width="10" height="10" class="count2" style="animation-delay: 1333.364334596646ms" /><rect x="55.5" y="81.5" width="9" height="9" class="st" style="animation-delay: 1333.364334596646ms" />
<rect x="68" y="3" width="10" height="10" class="count0" style="animation-delay: 1348.263493330552ms" /><rect x="68.5" y="3.5" width="9" height="9" class="st" style="animation-delay: 1348.263493330552ms" />
<rect x="68" y="16" width="10" height="10" class="count2" style="animation-delay: 1362.8404446241047ms" /><rect x="68.5" y="16.5" width="9" height="9" class="st" style="animation-delay: 1362.8404446241047ms" />
<rect x="68" y="29" width="10" height="10" class="count2" style="animation-delay: 1377.1120630467153ms" /><rect x="68.5" y="29.5" width="9" height="9" class="st" style="animation-delay: 1377.1120630467153ms" />
<rect x="68" y="42" width="10" height="10" class="count1" style="animation-delay: 1391.0938521036985ms" /><rect x="68.5" y="42.5" width="9" height="9" class="st" style="animation-delay: 1391.0938521036985ms" />
<rect x="68" y="55" width="10" height="10" class="count2" style="animation-delay: 1404.8000928958184ms" /><rect x="68.5" y="55.5" width="9" height="9" class="st" style="animation-delay: 1404.8000928958184ms" />
<rect x="68" y="68" width="10" height="10" class="count2" style="animation-delay: 1418.243972851613ms" /><rect x="68.5" y="68.5" width="9" height="9" class="st" style="animation-delay: 1418.243972851613ms" />
<rect x="68" y="81" width="10" height="10" class="count1" style="animation-delay: 1431.4376976857618ms" /><rect x="68.5" y="81.5" width="9" height="9" class="st" style="animation-delay: 1431.4376976857618ms" />
<rect x="81" y="3" width="10" height="10" class="count1" style="animation-delay: 1444.392589165634ms" /><rect x="81.5" y="3.5" width="9" height="9" class="st" style="animation-delay: 1444.392589165634ms" />
<rect x="81" y="16" width="10" height="10" class="count3" style="animation-delay: 1457.119170812864ms" /><rect x="81.5" y="16.5" width="9" height="9" class="st" style="animation-delay: 1457.119170812864ms" />
<rect x="81" y="29" width="10" height="10" class="count5" style="animation-delay: 1469.627243301435ms" /><rect x="81.5" y="29.5" width="9" height="9" class="st" style="animation-delay: 1469.627243301435ms" />
<rect x="81" y="42" width="10" height="10" class="count2" style="animation-delay: 1481.9259510187865ms" /><rect x="81.5" y="42.5" width="9" height="9" class="st" style="animation-delay: 1481.9259510187865ms" />
<rect x="81" y="55" width="10" height="10" class="count4" style="animation-delay: 1494.0238410168822ms" /><rect x="81.5" y="55.5" width="9" height="9" class="st" style="animation-delay: 1494.0238410168822ms" />
<rect x="81" y="68" width="10" height="10" class="count5" style="animation-delay: 1505.976158983118ms" /><rect x="81.5" y="68.5" width="9" height="9" class="st" style="animation-delay: 1505.976158983118ms" />
<rect x="81" y="81" width="10" height="10" class="count5" style="animation-delay: 1518.0740489812135ms" /><rect x="81.5" y="81.5" width="9" height="9" class="st" style="animation-delay: 1518.0740489812135ms" />
<rect x="94" y="3" width="10" height="10" class="count5" style="animation-delay: 1530.372756698565ms" /><rect x="94.5" y="3.5" width="9" height="9" class="st" style="animation-delay: 1530.372756698565ms" />
<rect x="94" y="16" width="10" height="10" class="count3" style="animation-delay: 1542.880829187136ms" /><rect x="94.5" y="16.5" width="9" height="9" class="st" style="animation-delay: 1542.880829187136ms" />
<rect x="94" y="29" width="10" height="10" class="count5" style="animation-delay: 1555.607410834366ms" /><rect x="94.5" y="29.5" width="9" height="9" class="st" style="animation-delay: 1555.607410834366ms" />
<rect x="94" y="42" width="10" height="10" class="count6" style="animation-delay: 1568.5623023142382ms" /><rect x="94.5" y="42.5" width="9" height="9" class="st" style="animation-delay: 1568.5623023142382ms" />
<rect x="94" y="55" width="10" height="10" class="count2" style="animation-delay: 1581.7560271483867ms" /><rect x="94.5" y="55.5" width="9" height="9" class="st" style="animation-delay: 1581.7560271483867ms" />
<rect x="94" y="68" width="10" height="10" class="count2" style="animation-delay: 1595.1999071041819ms" /><rect x="94.5" y="68.5" width="9" height="9" class="st" style="animation-delay: 1595.1999071041819ms" />
<rect x="94" y="81" width="10" height="10" class="count1" style="animation-delay: 1608.9061478963013ms" /><rect x="94.5" y="81.5" width="9" height="9" class="st" style="animation-delay: 1608.9061478963013ms" />
<rect x="107" y="3" width="10" height="10" class="count4" style="animation-delay: 1622.887936953285ms" /><rect x="107.5" y="3.5" width="9" height="9" class="st" style="animation-delay: 1622.887936953285ms" />
<rect x="107" y="16" width="10" height="10" class="count1" style="animation-delay: 1637.159555375895ms" /><rect x="107.5" y="16.5" width="9" height="9" class="st" style="animation-delay: 1637.159555375895ms" />
<rect x="107" y="29" width="10" height="10" class="count0" style="animation-delay: 1651.736506669448ms" /><rect x="107.5" y="29.5" width="9" height="9" class="st" style="animation-delay: 1651.736506669448ms" />
<rect x="107" y="42" width="10" height="10" class="count1" style="animation-delay: 1666.6356654033543ms" /><rect x="107.5" y="42.5" width="9" height="9" class="st" style="animation-delay: 1666.6356654033543ms" />
<rect x="107" y="55" width="10" height="10" class="count4" style="animation-delay: 1681.8754496725446ms" /><rect x="107.5" y="55.5" width="9" height="9" class="st" style="animation-delay: 1681.8754496725446ms" />
<rect x="107" y="68" width="10" height="10" class="count4" style="animation-delay: 1697.4760221534013ms" /><rect x="107.5" y="68.5" width="9" height="9" class="st" style="animation-delay: 1697.4760221534013ms" />
<rect x="107" y="81" width="10" height="10" class="count5" style="animation-delay: 1713.4595257241317ms" /><rect x="107.5" y="81.5" width="9" height="9" class="st" style="animation-delay: 1713.4595257241317ms" />
<rect x="120" y="3" width="10" height="10" class="count3" style="animation-delay: 1729.8503611422325ms" /><rect x="120.5" y="3.5" width="9" height="9" class="st" style="animation-delay: 1729.8503611422325ms" />
<rect x="120" y="16" width="10" height="10" class="count4" style="animation-delay: 1746.6755162588536ms" /><rect x="120.5" y="16.5" width="9" height="9" class="st" style="animation-delay: 1746.6755162588536ms" />
<rect x="120" y="29" width="10" height="10" class="count6" style="animation-delay: 1763.9649588683806ms" /><rect x="120.5" y="29.5" width="9" height="9" class="st" style="animation-delay: 1763.9649588683806ms" />
<rect x="120" y="42" width="10" height="10" class="count6" style="animation-delay: 1781.7521087779348ms" /><rect x="120.5" y="42.5" width="9" height="9" class="st" style="animation-delay: 1781.7521087779348ms" />
<rect x="120" y="55" width="10" height="10" class="count6" style="animation-delay: 1800.074409375772ms" /><rect x="120.5" y="55.5" width="9" height="9" class="st" style="animation-delay: 1800.074409375772ms" />
<rect x="120" y="68" width="10" height="10" class="count8" style="animation-delay: 1818.9740253751918ms" /><rect x="120.5" y="68.5" width="9" height="9" class="st" style="animation-delay: 1818.9740253751918ms" />
<rect x="120" y="81" width="10" height="10" class="count7" style="animation-delay: 1838.4987022453183ms" /><rect x="120.5" y="81.5" width="9" height="9" class="st" style="animation-delay: 1838.4987022453183ms" />
<rect x="133" y="3" width="10" height="10" class="count5" style="animation-delay: 1858.7028352165432ms" /><rect x="133.5" y="3.5" width="9" height="9" class="st" style="animation-delay: 1858.7028352165432ms" />
<rect x="133" y="16" width="10" height="10" class="count5" style="animation-delay: 1879.6488133607086ms" /><rect x="133.5" y="16.5" width="9" height="9" class="st" style="animation-delay: 1879.6488133607086ms" />
<rect x="133" y="29" width="10" height="10" class="count5" style="animation-delay: 1901.408729745407ms" /><rect x="133.5" y="29.5" width="9" height="9" class="st" style="animation-delay: 1901.408729745407ms" />
<rect x="133" y="42" width="10" height="10" class="count5" style="animation-delay: 1924.066586290176ms" /><rect x="133.5" y="42.5" width="9" height="9" class="st" style="animation-delay: 1924.066586290176ms" />
<rect x="133" y="55" width="10" height="10" class="count7" style="animation-delay: 1947.7211786664911ms" /><rect x="133.5" y="55.5" width="9" height="9" class="st" style="animation-delay: 1947.7211786664911ms" />
<rect x="133" y="68" width="10" height="10" class="count3" style="animation-delay: 1972.489934108338ms" /><rect x="133.5" y="68.5" width="9" height="9" class="st" style="animation-delay: 1972.489934108338ms" />
<rect x="133" y="81" width="10" height="10" class="count5" style="animation-delay: 1998.5141137135029ms" /><rect x="133.5" y="81.5" width="9" height="9" class="st" style="animation-delay: 1998.5141137135029ms" />
<rect x="146" y="3" width="10" height="10" class="count6" style="animation-delay: 2025.9660173818656ms" /><rect x="146.5" y="3.5" width="9" height="9" class="st" style="animation-delay: 2025.9660173818656ms" />
<rect x="146" y="16" width="10" height="10" class="count4" style="animation-delay: 2055.059212578845ms" /><rect x="146.5" y="16.5" width="9" height="9" class="st" style="animation-delay: 2055.059212578845ms" />
<rect x="146" y="29" width="10" height="10" class="count3" style="animation-delay: 2086.063482032098ms" /><rect x="146.5" y="29.5" width="9" height="9" class="st" style="animation-delay: 2086.063482032098ms" />
<rect x="146" y="42" width="10" height="10" class="count3" style="animation-delay: 2119.32742778558ms" /><rect x="146.5" y="42.5" width="9" height="9" class="st" style="animation-delay: 2119.32742778558ms" />
<rect x="146" y="55" width="10" height="10" class="count3" style="animation-delay: 2155.3140896672953ms" /><rect x="146.5" y="55.5" width="9" height="9" class="st" style="animation-delay: 2155.3140896672953ms" />
<rect x="146" y="68" width="10" height="10" class="count3" style="animation-delay: 2194.659980028898ms" /><rect x="146.5" y="68.5" width="9" height="9" class="st" style="animation-delay: 2194.659980028898ms" />
<rect x="146" y="81" width="10" height="10" class="count3" style="animation-delay: 2238.2793568657926ms" /><rect x="146.5" y="81.5" width="9" height="9" class="st" style="animation-delay: 2238.2793568657926ms" />
<rect x="159" y="3" width="10" height="10" class="count1" style="animation-delay: 2287.5643113052524ms" /><rect x="159.5" y="3.5" width="9" height="9" class="st" style="animation-delay: 2287.5643113052524ms" />
<rect x="159" y="16" width="10" height="10" class="count3" style="animation-delay: 2344.8146514477758ms" /><rect x="159.5" y="16.5" width="9" height="9" class="st" style="animation-delay: 2344.8146514477758ms" />
<rect x="159" y="29" width="10" height="10" class="count1" style="animation-delay: 2414.32750078569ms" /><rect x="159.5" y="29.5" width="9" height="9" class="st" style="animation-delay: 2414.32750078569ms" />
<rect x="159" y="42" width="10" height="10" class="count0" style="animation-delay: 2506.0246829937373ms" /><rect x="159.5" y="42.5" width="9" height="9" class="st" style="animation-delay: 2506.0246829937373ms" />
<rect x="159" y="55" width="10" height="10" class="count1" style="animation-delay: 2657.4966447027796ms" /><rect x="159.5" y="55.5" width="9" height="9" class="st" style="animation-delay: 2657.4966447027796ms" />
</svg>

  