

<svg height="94" width="159" xmlns="http://www.w3.org/2000/svg" fill='#4FA1A7'>
  <style>
  rect {
  rx: 2;
  ry: 2;
  animation: wow .5s backwards;
  }
  .st {
  
  stroke: rgba(27, 31, 35, 0.06);
  stroke-width: 1;
  fill: none;
  }
  @keyframes wow {
  from {opacity: 0;}
  to{ opacity: 1;}}
  .count0 {fill: #ebedf0}
.count1 {fill: #9be9a8}
.count2 {fill: #9be9a8}
.count3 {fill: #40c463}
.count4 {fill: #40c463}
.count5 {fill: #30a14e}
.count6 {fill: #30a14e}
.count7 {fill: #216e39}
.count8 {fill: #216e39}
  </style>
<rect x="3" y="29" width="10" height="10" class="count3" style="animation-delay: 349.5818652570084ms" /><rect x="3.5" y="29.5" width="9" height="9" class="st" style="animation-delay: 349.5818652570084ms" />
<rect x="3" y="42" width="10" height="10" class="count3" style="animation-delay: 504.18429495418275ms" /><rect x="3.5" y="42.5" width="9" height="9" class="st" style="animation-delay: 504.18429495418275ms" />
<rect x="3" y="55" width="10" height="10" class="count1" style="animation-delay: 597.7765809838585ms" /><rect x="3.5" y="55.5" width="9" height="9" class="st" style="animation-delay: 597.7765809838585ms" />
<rect x="3" y="68" width="10" height="10" class="count2" style="animation-delay: 668.726050981867ms" /><rect x="3.5" y="68.5" width="9" height="9" class="st" style="animation-delay: 668.726050981867ms" />
<rect x="3" y="81" width="10" height="10" class="count5" style="animation-delay: 727.1595827534137ms" /><rect x="3.5" y="81.5" width="9" height="9" class="st" style="animation-delay: 727.1595827534137ms" />
<rect x="16" y="3" width="10" height="10" class="count1" style="animation-delay: 777.4631083556719ms" /><rect x="16.5" y="3.5" width="9" height="9" class="st" style="animation-delay: 777.4631083556719ms" />
<rect x="16" y="16" width="10" height="10" class="count3" style="animation-delay: 821.9839659769278ms" /><rect x="16.5" y="16.5" width="9" height="9" class="st" style="animation-delay: 821.9839659769278ms" />
<rect x="16" y="29" width="10" height="10" class="count2" style="animation-delay: 862.1430170638017ms" /><rect x="16.5" y="29.5" width="9" height="9" class="st" style="animation-delay: 862.1430170638017ms" />
<rect x="16" y="42" width="10" height="10" class="count2" style="animation-delay: 898.8734145633135ms" /><rect x="16.5" y="42.5" width="9" height="9" class="st" style="animation-delay: 898.8734145633135ms" />
<rect x="16" y="55" width="10" height="10" class="count2" style="animation-delay: 932.824825615094ms" /><rect x="16.5" y="55.5" width="9" height="9" class="st" style="animation-delay: 932.824825615094ms" />
<rect x="16" y="68" width="10" height="10" class="count1" style="animation-delay: 964.4698596819678ms" /><rect x="16.5" y="68.5" width="9" height="9" class="st" style="animation-delay: 964.4698596819678ms" />
<rect x="16" y="81" width="10" height="10" class="count2" style="animation-delay: 994.1643233593255ms" /><rect x="16.5" y="81.5" width="9" height="9" class="st" style="animation-delay: 994.1643233593255ms" />
<rect x="29" y="3" width="10" height="10" class="count2" style="animation-delay: 1022.1835749690326ms" /><rect x="29.5" y="3.5" width="9" height="9" class="st" style="animation-delay: 1022.1835749690326ms" />
<rect x="29" y="16" width="10" height="10" class="count1" style="animation-delay: 1048.7455957710251ms" /><rect x="29.5" y="16.5" width="9" height="9" class="st" style="animation-delay: 1048.7455957710251ms" />
<rect x="29" y="29" width="10" height="10" class="count3" style="animation-delay: 1074.0262465837498ms" /><rect x="29.5" y="29.5" width="9" height="9" class="st" style="animation-delay: 1074.0262465837498ms" />
<rect x="29" y="42" width="10" height="10" class="count2" style="animation-delay: 1098.1697079452613ms" /><rect x="29.5" y="42.5" width="9" height="9" class="st" style="animation-delay: 1098.1697079452613ms" />
<rect x="29" y="55" width="10" height="10" class="count1" style="animation-delay: 1121.2958339558297ms" /><rect x="29.5" y="55.5" width="9" height="9" class="st" style="animation-delay: 1121.2958339558297ms" />
<rect x="29" y="68" width="10" height="10" class="count1" style="animation-delay: 1143.5054620950873ms" /><rect x="29.5" y="68.5" width="9" height="9" class="st" style="animation-delay: 1143.5054620950873ms" />
<rect x="29" y="81" width="10" height="10" class="count2" style="animation-delay: 1164.8843303485546ms" /><rect x="29.5" y="81.5" width="9" height="9" class="st" style="animation-delay: 1164.8843303485546ms" />
<rect x="42" y="3" width="10" height="10" class="count1" style="animation-delay: 1185.5060217298037ms" /><rect x="42.5" y="3.5" width="9" height="9" class="st" style="animation-delay: 1185.5060217298037ms" />
<rect x="42" y="16" width="10" height="10" class="count1" style="animation-delay: 1205.434214704369ms" /><rect x="42.5" y="16.5" width="9" height="9" class="st" style="animation-delay: 1205.434214704369ms" />
<rect x="42" y="29" width="10" height="10" class="count1" style="animation-delay: 1224.7244286877765ms" /><rect x="42.5" y="29.5" width="9" height="9" class="st" style="animation-delay: 1224.7244286877765ms" />
<rect x="42" y="42" width="10" height="10" class="count1" style="animation-delay: 1243.4253959038006ms" /><rect x="42.5" y="42.5" width="9" height="9" class="st" style="animation-delay: 1243.4253959038006ms" />
<rect x="42" y="55" width="10" height="10" class="count1" style="animation-delay: 1261.580152483023ms" /><rect x="42.5" y="55.5" width="9" height="9" class="st" style="animation-delay: 1261.580152483023ms" />
<rect x="42" y="68" width="10" height="10" class="count1" style="animation-delay: 1279.2269156554519ms" /><rect x="42.5" y="68.5" width="9" height="9" class="st" style="animation-delay: 1279.2269156554519ms" />
<rect x="42" y="81" width="10" height="10" class="count2" style="animation-delay: 1296.3997959146918ms" /><rect x="42.5" y="81.5" width="9" height="9" class="st" style="animation-delay: 1296.3997959146918ms" />
<rect x="55" y="3" width="10" height="10" class="count3" style="animation-delay: 1313.129380398931ms" /><rect x="55.5" y="3.5" width="9" height="9" class="st" style="animation-delay: 1313.129380398931ms" />
<rect x="55" y="16" width="10" height="10" class="count3" style="animation-delay: 1329.4432147166974ms" /><rect x="55.5" y="16.5" width="9" height="9" class="st" style="animation-delay: 1329.4432147166974ms" />
<rect x="55" y="29" width="10" height="10" class="count1" style="animation-delay: 1345.3662039154524ms" /><rect x="55.5" y="29.5" width="9" height="9" class="st" style="animation-delay: 1345.3662039154524ms" />
<rect x="55" y="42" width="10" height="10" class="count2" style="animation-delay: 1360.9209484998228ms" /><rect x="55.5" y="42.5" width="9" height="9" class="st" style="animation-delay: 1360.9209484998228ms" />
<rect x="55" y="55" width="10" height="10" class="count0" style="animation-delay: 1376.128027847817ms" /><rect x="55.5" y="55.5" width="9" height="9" class="st" style="animation-delay: 1376.128027847817ms" />
<rect x="55" y="68" width="10" height="10" class="count2" style="animation-delay: 1391.0062407007647ms" /><rect x="55.5" y="68.5" width="9" height="9" class="st" style="animation-delay: 1391.0062407007647ms" />
<rect x="55" y="81" width="10" height="10" class="count2" style="animation-delay: 1405.572810374463ms" /><rect x="55.5" y="81.5" width="9" height="9" class="st" style="animation-delay: 1405.572810374463ms" />
<rect x="68" y="3" width="10" height="10" class="count1" style="animation-delay: 1419.84356078486ms" /><rect x="68.5" y="3.5" width="9" height="9" class="st" style="animation-delay: 1419.84356078486ms" />
<rect x="68" y="16" width="10" height="10" class="count2" style="animation-delay: 1433.8330681799425ms" /><rect x="68.5" y="16.5" width="9" height="9" class="st" style="animation-delay: 1433.8330681799425ms" />
<rect x="68" y="29" width="10" height="10" class="count2" style="animation-delay: 1447.5547925325689ms" /><rect x="68.5" y="29.5" width="9" height="9" class="st" style="animation-delay: 1447.5547925325689ms" />
<rect x="68" y="42" width="10" height="10" class="count1" style="animation-delay: 1461.0211918126777ms" /><rect x="68.5" y="42.5" width="9" height="9" class="st" style="animation-delay: 1461.0211918126777ms" />
<rect x="68" y="55" width="10" height="10" class="count1" style="animation-delay: 1474.243821774378ms" /><rect x="68.5" y="55.5" width="9" height="9" class="st" style="animation-delay: 1474.243821774378ms" />
<rect x="68" y="68" width="10" height="10" class="count3" style="animation-delay: 1487.2334234287134ms" /><rect x="68.5" y="68.5" width="9" height="9" class="st" style="animation-delay: 1487.2334234287134ms" />
<rect x="68" y="81" width="10" height="10" class="count5" style="animation-delay: 1500ms" /><rect x="68.5" y="81.5" width="9" height="9" class="st" style="animation-delay: 1500ms" />
<rect x="81" y="3" width="10" height="10" class="count2" style="animation-delay: 1512.7665765712866ms" /><rect x="81.5" y="3.5" width="9" height="9" class="st" style="animation-delay: 1512.7665765712866ms" />
<rect x="81" y="16" width="10" height="10" class="count4" style="animation-delay: 1525.7561782256219ms" /><rect x="81.5" y="16.5" width="9" height="9" class="st" style="animation-delay: 1525.7561782256219ms" />
<rect x="81" y="29" width="10" height="10" class="count5" style="animation-delay: 1538.9788081873223ms" /><rect x="81.5" y="29.5" width="9" height="9" class="st" style="animation-delay: 1538.9788081873223ms" />
<rect x="81" y="42" width="10" height="10" class="count5" style="animation-delay: 1552.4452074674311ms" /><rect x="81.5" y="42.5" width="9" height="9" class="st" style="animation-delay: 1552.4452074674311ms" />
<rect x="81" y="55" width="10" height="10" class="count5" style="animation-delay: 1566.1669318200575ms" /><rect x="81.5" y="55.5" width="9" height="9" class="st" style="animation-delay: 1566.1669318200575ms" />
<rect x="81" y="68" width="10" height="10" class="count3" style="animation-delay: 1580.15643921514ms" /><rect x="81.5" y="68.5" width="9" height="9" class="st" style="animation-delay: 1580.15643921514ms" />
<rect x="81" y="81" width="10" height="10" class="count5" style="animation-delay: 1594.427189625537ms" /><rect x="81.5" y="81.5" width="9" height="9" class="st" style="animation-delay: 1594.427189625537ms" />
<rect x="94" y="3" width="10" height="10" class="count6" style="animation-delay: 1608.993759299235ms" /><rect x="94.5" y="3.5" width="9" height="9" class="st" style="animation-delay: 1608.993759299235ms" />
<rect x="94" y="16" width="10" height="10" class="count2" style="animation-delay: 1623.871972152183ms" /><rect x="94.5" y="16.5" width="9" height="9" class="st" style="animation-delay: 1623.871972152183ms" />
<rect x="94" y="29" width="10" height="10" class="count2" style="animation-delay: 1639.0790515001772ms" /><rect x="94.5" y="29.5" width="9" height="9" class="st" style="animation-delay: 1639.0790515001772ms" />
<rect x="94" y="42" width="10" height="10" class="count1" style="animation-delay: 1654.6337960845472ms" /><rect x="94.5" y="42.5" width="9" height="9" class="st" style="animation-delay: 1654.6337960845472ms" />
<rect x="94" y="55" width="10" height="10" class="count4" style="animation-delay: 1670.5567852833028ms" /><rect x="94.5" y="55.5" width="9" height="9" class="st" style="animation-delay: 1670.5567852833028ms" />
<rect x="94" y="68" width="10" height="10" class="count1" style="animation-delay: 1686.870619601069ms" /><rect x="94.5" y="68.5" width="9" height="9" class="st" style="animation-delay: 1686.870619601069ms" />
<rect x="94" y="81" width="10" height="10" class="count0" style="animation-delay: 1703.6002040853082ms" /><rect x="94.5" y="81.5" width="9" height="9" class="st" style="animation-delay: 1703.6002040853082ms" />
<rect x="107" y="3" width="10" height="10" class="count1" style="animation-delay: 1720.773084344548ms" /><rect x="107.5" y="3.5" width="9" height="9" class="st" style="animation-delay: 1720.773084344548ms" />
<rect x="107" y="16" width="10" height="10" class="count4" style="animation-delay: 1738.419847516977ms" /><rect x="107.5" y="16.5" width="9" height="9" class="st" style="animation-delay: 1738.419847516977ms" />
<rect x="107" y="29" width="10" height="10" class="count4" style="animation-delay: 1756.5746040961994ms" /><rect x="107.5" y="29.5" width="9" height="9" class="st" style="animation-delay: 1756.5746040961994ms" />
<rect x="107" y="42" width="10" height="10" class="count5" style="animation-delay: 1775.2755713122237ms" /><rect x="107.5" y="42.5" width="9" height="9" class="st" style="animation-delay: 1775.2755713122237ms" />
<rect x="107" y="55" width="10" height="10" class="count3" style="animation-delay: 1794.5657852956308ms" /><rect x="107.5" y="55.5" width="9" height="9" class="st" style="animation-delay: 1794.5657852956308ms" />
<rect x="107" y="68" width="10" height="10" class="count4" style="animation-delay: 1814.4939782701965ms" /><rect x="107.5" y="68.5" width="9" height="9" class="st" style="animation-delay: 1814.4939782701965ms" />
<rect x="107" y="81" width="10" height="10" class="count6" style="animation-delay: 1835.1156696514454ms" /><rect x="107.5" y="81.5" width="9" height="9" class="st" style="animation-delay: 1835.1156696514454ms" />
<rect x="120" y="3" width="10" height="10" class="count6" style="animation-delay: 1856.4945379049127ms" /><rect x="120.5" y="3.5" width="9" height="9" class="st" style="animation-delay: 1856.4945379049127ms" />
<rect x="120" y="16" width="10" height="10" class="count6" style="animation-delay: 1878.7041660441703ms" /><rect x="120.5" y="16.5" width="9" height="9" class="st" style="animation-delay: 1878.7041660441703ms" />
<rect x="120" y="29" width="10" height="10" class="count8" style="animation-delay: 1901.830292054739ms" /><rect x="120.5" y="29.5" width="9" height="9" class="st" style="animation-delay: 1901.830292054739ms" />
<rect x="120" y="42" width="10" height="10" class="count7" style="animation-delay: 1925.9737534162502ms" /><rect x="120.5" y="42.5" width="9" height="9" class="st" style="animation-delay: 1925.9737534162502ms" />
<rect x="120" y="55" width="10" height="10" class="count5" style="animation-delay: 1951.2544042289749ms" /><rect x="120.5" y="55.5" width="9" height="9" class="st" style="animation-delay: 1951.2544042289749ms" />
<rect x="120" y="68" width="10" height="10" class="count5" style="animation-delay: 1977.8164250309674ms" /><rect x="120.5" y="68.5" width="9" height="9" class="st" style="animation-delay: 1977.8164250309674ms" />
<rect x="120" y="81" width="10" height="10" class="count5" style="animation-delay: 2005.8356766406746ms" /><rect x="120.5" y="81.5" width="9" height="9" class="st" style="animation-delay: 2005.8356766406746ms" />
<rect x="133" y="3" width="10" height="10" class="count5" style="animation-delay: 2035.530140318032ms" /><rect x="133.5" y="3.5" width="9" height="9" class="st" style="animation-delay: 2035.530140318032ms" />
<rect x="133" y="16" width="10" height="10" class="count7" style="animation-delay: 2067.175174384906ms" /><rect x="133.5" y="16.5" width="9" height="9" class="st" style="animation-delay: 2067.175174384906ms" />
<rect x="133" y="29" width="10" height="10" class="count3" style="animation-delay: 2101.1265854366866ms" /><rect x="133.5" y="29.5" width="9" height="9" class="st" style="animation-delay: 2101.1265854366866ms" />
<rect x="133" y="42" width="10" height="10" class="count5" style="animation-delay: 2137.8569829361986ms" /><rect x="133.5" y="42.5" width="9" height="9" class="st" style="animation-delay: 2137.8569829361986ms" />
<rect x="133" y="55" width="10" height="10" class="count6" style="animation-delay: 2178.0160340230723ms" /><rect x="133.5" y="55.5" width="9" height="9" class="st" style="animation-delay: 2178.0160340230723ms" />
<rect x="133" y="68" width="10" height="10" class="count4" style="animation-delay: 2222.5368916443276ms" /><rect x="133.5" y="68.5" width="9" height="9" class="st" style="animation-delay: 2222.5368916443276ms" />
<rect x="133" y="81" width="10" height="10" class="count3" style="animation-delay: 2272.840417246586ms" /><rect x="133.5" y="81.5" width="9" height="9" class="st" style="animation-delay: 2272.840417246586ms" />
<rect x="146" y="3" width="10" height="10" class="count3" style="animation-delay: 2331.2739490181325ms" /><rect x="146.5" y="3.5" width="9" height="9" class="st" style="animation-delay: 2331.2739490181325ms" />
<rect x="146" y="16" width="10" height="10" class="count3" style="animation-delay: 2402.223419016142ms" /><rect x="146.5" y="16.5" width="9" height="9" class="st" style="animation-delay: 2402.223419016142ms" />
<rect x="146" y="29" width="10" height="10" class="count3" style="animation-delay: 2495.8157050458176ms" /><rect x="146.5" y="29.5" width="9" height="9" class="st" style="animation-delay: 2495.8157050458176ms" />
<rect x="146" y="42" width="10" height="10" class="count3" style="animation-delay: 2650.418134742991ms" /><rect x="146.5" y="42.5" width="9" height="9" class="st" style="animation-delay: 2650.418134742991ms" />
</svg>

  