

<svg height="94" width="146" xmlns="http://www.w3.org/2000/svg" fill='#4FA1A7'>
  <style>
  rect {
  rx: 2;
  ry: 2;
  animation: wow .5s backwards;
  }
  .st {
  
  stroke: rgba(27, 31, 35, 0.06);
  stroke-width: 1;
  fill: none;
  }
  @keyframes wow {
  from {opacity: 0;}
  to{ opacity: 1;}}
  .count0 {fill: #ebedf0}
.count1 {fill: #9be9a8}
.count2 {fill: #9be9a8}
.count3 {fill: #40c463}
.count4 {fill: #40c463}
.count5 {fill: #30a14e}
.count6 {fill: #30a14e}
.count7 {fill: #216e39}
.count8 {fill: #216e39}
  </style>
<rect x="3" y="29" width="10" height="10" class="count3" style="animation-delay: 357.2843712035788ms" /><rect x="3.5" y="29.5" width="9" height="9" class="st" style="animation-delay: 357.2843712035788ms" />
<rect x="3" y="42" width="10" height="10" class="count3" style="animation-delay: 515.2932308459142ms" /><rect x="3.5" y="42.5" width="9" height="9" class="st" style="animation-delay: 515.2932308459142ms" />
<rect x="3" y="55" width="10" height="10" class="count1" style="animation-delay: 610.9476808816281ms" /><rect x="3.5" y="55.5" width="9" height="9" class="st" style="animation-delay: 610.9476808816281ms" />
<rect x="3" y="68" width="10" height="10" class="count2" style="animation-delay: 683.4604147925513ms" /><rect x="3.5" y="68.5" width="9" height="9" class="st" style="animation-delay: 683.4604147925513ms" />
<rect x="3" y="81" width="10" height="10" class="count5" style="animation-delay: 743.181440769836ms" /><rect x="3.5" y="81.5" width="9" height="9" class="st" style="animation-delay: 743.181440769836ms" />
<rect x="16" y="3" width="10" height="10" class="count1" style="animation-delay: 794.5933282283363ms" /><rect x="16.5" y="3.5" width="9" height="9" class="st" style="animation-delay: 794.5933282283363ms" />
<rect x="16" y="16" width="10" height="10" class="count3" style="animation-delay: 840.0951353914743ms" /><rect x="16.5" y="16.5" width="9" height="9" class="st" style="animation-delay: 840.0951353914743ms" />
<rect x="16" y="29" width="10" height="10" class="count2" style="animation-delay: 881.1390302318358ms" /><rect x="16.5" y="29.5" width="9" height="9" class="st" style="animation-delay: 881.1390302318358ms" />
<rect x="16" y="42" width="10" height="10" class="count2" style="animation-delay: 918.6787263056656ms" /><rect x="16.5" y="42.5" width="9" height="9" class="st" style="animation-delay: 918.6787263056656ms" />
<rect x="16" y="55" width="10" height="10" class="count2" style="animation-delay: 953.3782051822133ms" /><rect x="16.5" y="55.5" width="9" height="9" class="st" style="animation-delay: 953.3782051822133ms" />
<rect x="16" y="68" width="10" height="10" class="count1" style="animation-delay: 985.7204895566804ms" /><rect x="16.5" y="68.5" width="9" height="9" class="st" style="animation-delay: 985.7204895566804ms" />
<rect x="16" y="81" width="10" height="10" class="count2" style="animation-delay: 1016.0692256828873ms" /><rect x="16.5" y="81.5" width="9" height="9" class="st" style="animation-delay: 1016.0692256828873ms" />
<rect x="29" y="3" width="10" height="10" class="count2" style="animation-delay: 1044.7058389854947ms" /><rect x="29.5" y="3.5" width="9" height="9" class="st" style="animation-delay: 1044.7058389854947ms" />
<rect x="29" y="16" width="10" height="10" class="count1" style="animation-delay: 1071.8531136107365ms" /><rect x="29.5" y="16.5" width="9" height="9" class="st" style="animation-delay: 1071.8531136107365ms" />
<rect x="29" y="29" width="10" height="10" class="count3" style="animation-delay: 1097.6907852033432ms" /><rect x="29.5" y="29.5" width="9" height="9" class="st" style="animation-delay: 1097.6907852033432ms" />
<rect x="29" y="42" width="10" height="10" class="count2" style="animation-delay: 1122.366211100747ms" /><rect x="29.5" y="42.5" width="9" height="9" class="st" style="animation-delay: 1122.366211100747ms" />
<rect x="29" y="55" width="10" height="10" class="count1" style="animation-delay: 1146.0018862064514ms" /><rect x="29.5" y="55.5" width="9" height="9" class="st" style="animation-delay: 1146.0018862064514ms" />
<rect x="29" y="68" width="10" height="10" class="count1" style="animation-delay: 1168.700869800941ms" /><rect x="29.5" y="68.5" width="9" height="9" class="st" style="animation-delay: 1168.700869800941ms" />
<rect x="29" y="81" width="10" height="10" class="count2" style="animation-delay: 1190.5507889761498ms" /><rect x="29.5" y="81.5" width="9" height="9" class="st" style="animation-delay: 1190.5507889761498ms" />
<rect x="42" y="3" width="10" height="10" class="count1" style="animation-delay: 1211.6268480356978ms" /><rect x="42.5" y="3.5" width="9" height="9" class="st" style="animation-delay: 1211.6268480356978ms" />
<rect x="42" y="16" width="10" height="10" class="count1" style="animation-delay: 1231.9941285034838ms" /><rect x="42.5" y="16.5" width="9" height="9" class="st" style="animation-delay: 1231.9941285034838ms" />
<rect x="42" y="29" width="10" height="10" class="count1" style="animation-delay: 1251.7093730811084ms" /><rect x="42.5" y="29.5" width="9" height="9" class="st" style="animation-delay: 1251.7093730811084ms" />
<rect x="42" y="42" width="10" height="10" class="count1" style="animation-delay: 1270.8223877329517ms" /><rect x="42.5" y="42.5" width="9" height="9" class="st" style="animation-delay: 1270.8223877329517ms" />
<rect x="42" y="55" width="10" height="10" class="count1" style="animation-delay: 1289.37715682543ms" /><rect x="42.5" y="55.5" width="9" height="9" class="st" style="animation-delay: 1289.37715682543ms" />
<rect x="42" y="68" width="10" height="10" class="count1" style="animation-delay: 1307.4127396472231ms" /><rect x="42.5" y="68.5" width="9" height="9" class="st" style="animation-delay: 1307.4127396472231ms" />
<rect x="42" y="81" width="10" height="10" class="count2" style="animation-delay: 1324.9639982649035ms" /><rect x="42.5" y="81.5" width="9" height="9" class="st" style="animation-delay: 1324.9639982649035ms" />
<rect x="55" y="3" width="10" height="10" class="count3" style="animation-delay: 1342.0621937578367ms" /><rect x="55.5" y="3.5" width="9" height="9" class="st" style="animation-delay: 1342.0621937578367ms" />
<rect x="55" y="16" width="10" height="10" class="count3" style="animation-delay: 1358.7354786602366ms" /><rect x="55.5" y="16.5" width="9" height="9" class="st" style="animation-delay: 1358.7354786602366ms" />
<rect x="55" y="29" width="10" height="10" class="count1" style="animation-delay: 1375.0093067644952ms" /><rect x="55.5" y="29.5" width="9" height="9" class="st" style="animation-delay: 1375.0093067644952ms" />
<rect x="55" y="42" width="10" height="10" class="count2" style="animation-delay: 1390.906776543064ms" /><rect x="55.5" y="42.5" width="9" height="9" class="st" style="animation-delay: 1390.906776543064ms" />
<rect x="55" y="55" width="10" height="10" class="count0" style="animation-delay: 1406.4489208093194ms" /><rect x="55.5" y="55.5" width="9" height="9" class="st" style="animation-delay: 1406.4489208093194ms" />
<rect x="55" y="68" width="10" height="10" class="count2" style="animation-delay: 1421.6549525063306ms" /><rect x="55.5" y="68.5" width="9" height="9" class="st" style="animation-delay: 1421.6549525063306ms" />
<rect x="55" y="81" width="10" height="10" class="count2" style="animation-delay: 1436.5424744395243ms" /><rect x="55.5" y="81.5" width="9" height="9" class="st" style="animation-delay: 1436.5424744395243ms" />
<rect x="68" y="3" width="10" height="10" class="count1" style="animation-delay: 1451.1276591808248ms" /><rect x="68.5" y="3.5" width="9" height="9" class="st" style="animation-delay: 1451.1276591808248ms" />
<rect x="68" y="16" width="10" height="10" class="count2" style="animation-delay: 1465.4254041437255ms" /><rect x="68.5" y="16.5" width="9" height="9" class="st" style="animation-delay: 1465.4254041437255ms" />
<rect x="68" y="29" width="10" height="10" class="count2" style="animation-delay: 1479.4494658711626ms" /><rect x="68.5" y="29.5" width="9" height="9" class="st" style="animation-delay: 1479.4494658711626ms" />
<rect x="68" y="42" width="10" height="10" class="count1" style="animation-delay: 1493.212576825539ms" /><rect x="68.5" y="42.5" width="9" height="9" class="st" style="animation-delay: 1493.212576825539ms" />
<rect x="68" y="55" width="10" height="10" class="count1" style="animation-delay: 1506.7874231744609ms" /><rect x="68.5" y="55.5" width="9" height="9" class="st" style="animation-delay: 1506.7874231744609ms" />
<rect x="68" y="68" width="10" height="10" class="count3" style="animation-delay: 1520.5505341288372ms" /><rect x="68.5" y="68.5" width="9" height="9" class="st" style="animation-delay: 1520.5505341288372ms" />
<rect x="68" y="81" width="10" height="10" class="count5" style="animation-delay: 1534.5745958562745ms" /><rect x="68.5" y="81.5" width="9" height="9" class="st" style="animation-delay: 1534.5745958562745ms" />
<rect x="81" y="3" width="10" height="10" class="count2" style="animation-delay: 1548.872340819175ms" /><rect x="81.5" y="3.5" width="9" height="9" class="st" style="animation-delay: 1548.872340819175ms" />
<rect x="81" y="16" width="10" height="10" class="count4" style="animation-delay: 1563.4575255604761ms" /><rect x="81.5" y="16.5" width="9" height="9" class="st" style="animation-delay: 1563.4575255604761ms" />
<rect x="81" y="29" width="10" height="10" class="count5" style="animation-delay: 1578.3450474936694ms" /><rect x="81.5" y="29.5" width="9" height="9" class="st" style="animation-delay: 1578.3450474936694ms" />
<rect x="81" y="42" width="10" height="10" class="count5" style="animation-delay: 1593.5510791906809ms" /><rect x="81.5" y="42.5" width="9" height="9" class="st" style="animation-delay: 1593.5510791906809ms" />
<rect x="81" y="55" width="10" height="10" class="count5" style="animation-delay: 1609.093223456936ms" /><rect x="81.5" y="55.5" width="9" height="9" class="st" style="animation-delay: 1609.093223456936ms" />
<rect x="81" y="68" width="10" height="10" class="count3" style="animation-delay: 1624.9906932355052ms" /><rect x="81.5" y="68.5" width="9" height="9" class="st" style="animation-delay: 1624.9906932355052ms" />
<rect x="81" y="81" width="10" height="10" class="count5" style="animation-delay: 1641.2645213397634ms" /><rect x="81.5" y="81.5" width="9" height="9" class="st" style="animation-delay: 1641.2645213397634ms" />
<rect x="94" y="3" width="10" height="10" class="count6" style="animation-delay: 1657.9378062421636ms" /><rect x="94.5" y="3.5" width="9" height="9" class="st" style="animation-delay: 1657.9378062421636ms" />
<rect x="94" y="16" width="10" height="10" class="count2" style="animation-delay: 1675.0360017350965ms" /><rect x="94.5" y="16.5" width="9" height="9" class="st" style="animation-delay: 1675.0360017350965ms" />
<rect x="94" y="29" width="10" height="10" class="count2" style="animation-delay: 1692.5872603527769ms" /><rect x="94.5" y="29.5" width="9" height="9" class="st" style="animation-delay: 1692.5872603527769ms" />
<rect x="94" y="42" width="10" height="10" class="count1" style="animation-delay: 1710.62284317457ms" /><rect x="94.5" y="42.5" width="9" height="9" class="st" style="animation-delay: 1710.62284317457ms" />
<rect x="94" y="55" width="10" height="10" class="count4" style="animation-delay: 1729.1776122670483ms" /><rect x="94.5" y="55.5" width="9" height="9" class="st" style="animation-delay: 1729.1776122670483ms" />
<rect x="94" y="68" width="10" height="10" class="count1" style="animation-delay: 1748.2906269188913ms" /><rect x="94.5" y="68.5" width="9" height="9" class="st" style="animation-delay: 1748.2906269188913ms" />
<rect x="94" y="81" width="10" height="10" class="count0" style="animation-delay: 1768.0058714965164ms" /><rect x="94.5" y="81.5" width="9" height="9" class="st" style="animation-delay: 1768.0058714965164ms" />
<rect x="107" y="3" width="10" height="10" class="count1" style="animation-delay: 1788.3731519643022ms" /><rect x="107.5" y="3.5" width="9" height="9" class="st" style="animation-delay: 1788.3731519643022ms" />
<rect x="107" y="16" width="10" height="10" class="count4" style="animation-delay: 1809.4492110238505ms" /><rect x="107.5" y="16.5" width="9" height="9" class="st" style="animation-delay: 1809.4492110238505ms" />
<rect x="107" y="29" width="10" height="10" class="count4" style="animation-delay: 1831.299130199059ms" /><rect x="107.5" y="29.5" width="9" height="9" class="st" style="animation-delay: 1831.299130199059ms" />
<rect x="107" y="42" width="10" height="10" class="count5" style="animation-delay: 1853.9981137935486ms" /><rect x="107.5" y="42.5" width="9" height="9" class="st" style="animation-delay: 1853.9981137935486ms" />
<rect x="107" y="55" width="10" height="10" class="count3" style="animation-delay: 1877.633788899253ms" /><rect x="107.5" y="55.5" width="9" height="9" class="st" style="animation-delay: 1877.633788899253ms" />
<rect x="107" y="68" width="10" height="10" class="count4" style="animation-delay: 1902.3092147966568ms" /><rect x="107.5" y="68.5" width="9" height="9" class="st" style="animation-delay: 1902.3092147966568ms" />
<rect x="107" y="81" width="10" height="10" class="count6" style="animation-delay: 1928.1468863892633ms" /><rect x="107.5" y="81.5" width="9" height="9" class="st" style="animation-delay: 1928.1468863892633ms" />
<rect x="120" y="3" width="10" height="10" class="count6" style="animation-delay: 1955.2941610145053ms" /><rect x="120.5" y="3.5" width="9" height="9" class="st" style="animation-delay: 1955.2941610145053ms" />
<rect x="120" y="16" width="10" height="10" class="count6" style="animation-delay: 1983.9307743171125ms" /><rect x="120.5" y="16.5" width="9" height="9" class="st" style="animation-delay: 1983.9307743171125ms" />
<rect x="120" y="29" width="10" height="10" class="count8" style="animation-delay: 2014.2795104433196ms" /><rect x="120.5" y="29.5" width="9" height="9" class="st" style="animation-delay: 2014.2795104433196ms" />
<rect x="120" y="42" width="10" height="10" class="count7" style="animation-delay: 2046.6217948177868ms" /><rect x="120.5" y="42.5" width="9" height="9" class="st" style="animation-delay: 2046.6217948177868ms" />
<rect x="120" y="55" width="10" height="10" class="count5" style="animation-delay: 2081.321273694334ms" /><rect x="120.5" y="55.5" width="9" height="9" class="st" style="animation-delay: 2081.321273694334ms" />
<rect x="120" y="68" width="10" height="10" class="count5" style="animation-delay: 2118.860969768164ms" /><rect x="120.5" y="68.5" width="9" height="9" class="st" style="animation-delay: 2118.860969768164ms" />
<rect x="120" y="81" width="10" height="10" class="count5" style="animation-delay: 2159.9048646085257ms" /><rect x="120.5" y="81.5" width="9" height="9" class="st" style="animation-delay: 2159.9048646085257ms" />
<rect x="133" y="3" width="10" height="10" class="count5" style="animation-delay: 2205.4066717716637ms" /><rect x="133.5" y="3.5" width="9" height="9" class="st" style="animation-delay: 2205.4066717716637ms" />
<rect x="133" y="16" width="10" height="10" class="count7" style="animation-delay: 2256.818559230164ms" /><rect x="133.5" y="16.5" width="9" height="9" class="st" style="animation-delay: 2256.818559230164ms" />
<rect x="133" y="29" width="10" height="10" class="count3" style="animation-delay: 2316.5395852074485ms" /><rect x="133.5" y="29.5" width="9" height="9" class="st" style="animation-delay: 2316.5395852074485ms" />
<rect x="133" y="42" width="10" height="10" class="count5" style="animation-delay: 2389.052319118372ms" /><rect x="133.5" y="42.5" width="9" height="9" class="st" style="animation-delay: 2389.052319118372ms" />
<rect x="133" y="55" width="10" height="10" class="count6" style="animation-delay: 2484.7067691540856ms" /><rect x="133.5" y="55.5" width="9" height="9" class="st" style="animation-delay: 2484.7067691540856ms" />
<rect x="133" y="68" width="10" height="10" class="count1" style="animation-delay: 2642.7156287964203ms" /><rect x="133.5" y="68.5" width="9" height="9" class="st" style="animation-delay: 2642.7156287964203ms" />
</svg>

  