

<svg height="94" width="198" xmlns="http://www.w3.org/2000/svg" fill='#4FA1A7'>
  <style>
  rect {
  rx: 2;
  ry: 2;
  animation: wow .5s backwards;
  }
  .st {
  
  stroke: rgba(27, 31, 35, 0.06);
  stroke-width: 1;
  fill: none;
  }
  @keyframes wow {
  from {opacity: 0;}
  to{ opacity: 1;}}
  .count0 {fill: #ebedf0}
.count1 {fill: #9be9a8}
.count2 {fill: #9be9a8}
.count3 {fill: #40c463}
.count4 {fill: #40c463}
.count5 {fill: #30a14e}
.count6 {fill: #30a14e}
.count7 {fill: #216e39}
.count8 {fill: #216e39}
  </style>
<rect x="3" y="68" width="10" height="10" class="count3" style="animation-delay: 324.24965862401393ms" /><rect x="3.5" y="68.5" width="9" height="9" class="st" style="animation-delay: 324.24965862401393ms" />
<rect x="3" y="81" width="10" height="10" class="count3" style="animation-delay: 467.648930822808ms" /><rect x="3.5" y="81.5" width="9" height="9" class="st" style="animation-delay: 467.648930822808ms" />
<rect x="16" y="3" width="10" height="10" class="count1" style="animation-delay: 554.4591169651941ms" /><rect x="16.5" y="3.5" width="9" height="9" class="st" style="animation-delay: 554.4591169651941ms" />
<rect x="16" y="16" width="10" height="10" class="count2" style="animation-delay: 620.2672829851784ms" /><rect x="16.5" y="16.5" width="9" height="9" class="st" style="animation-delay: 620.2672829851784ms" />
<rect x="16" y="29" width="10" height="10" class="count5" style="animation-delay: 674.4664695339137ms" /><rect x="16.5" y="29.5" width="9" height="9" class="st" style="animation-delay: 674.4664695339137ms" />
<rect x="16" y="42" width="10" height="10" class="count1" style="animation-delay: 721.1247851537041ms" /><rect x="16.5" y="42.5" width="9" height="9" class="st" style="animation-delay: 721.1247851537041ms" />
<rect x="16" y="55" width="10" height="10" class="count3" style="animation-delay: 762.4194698042581ms" /><rect x="16.5" y="55.5" width="9" height="9" class="st" style="animation-delay: 762.4194698042581ms" />
<rect x="16" y="68" width="10" height="10" class="count2" style="animation-delay: 799.6684231960762ms" /><rect x="16.5" y="68.5" width="9" height="9" class="st" style="animation-delay: 799.6684231960762ms" />
<rect x="16" y="81" width="10" height="10" class="count2" style="animation-delay: 833.7371779971445ms" /><rect x="16.5" y="81.5" width="9" height="9" class="st" style="animation-delay: 833.7371779971445ms" />
<rect x="29" y="3" width="10" height="10" class="count2" style="animation-delay: 865.2283236698466ms" /><rect x="29.5" y="3.5" width="9" height="9" class="st" style="animation-delay: 865.2283236698466ms" />
<rect x="29" y="16" width="10" height="10" class="count1" style="animation-delay: 894.5802223611173ms" /><rect x="29.5" y="16.5" width="9" height="9" class="st" style="animation-delay: 894.5802223611173ms" />
<rect x="29" y="29" width="10" height="10" class="count2" style="animation-delay: 922.1228973889757ms" /><rect x="29.5" y="29.5" width="9" height="9" class="st" style="animation-delay: 922.1228973889757ms" />
<rect x="29" y="42" width="10" height="10" class="count2" style="animation-delay: 948.1117534260832ms" /><rect x="29.5" y="42.5" width="9" height="9" class="st" style="animation-delay: 948.1117534260832ms" />
<rect x="29" y="55" width="10" height="10" class="count1" style="animation-delay: 972.7489758720418ms" /><rect x="29.5" y="55.5" width="9" height="9" class="st" style="animation-delay: 972.7489758720418ms" />
<rect x="29" y="68" width="10" height="10" class="count3" style="animation-delay: 996.1976819134502ms" /><rect x="29.5" y="68.5" width="9" height="9" class="st" style="animation-delay: 996.1976819134502ms" />
<rect x="29" y="81" width="10" height="10" class="count2" style="animation-delay: 1018.5916041459914ms" /><rect x="29.5" y="81.5" width="9" height="9" class="st" style="animation-delay: 1018.5916041459914ms" />
<rect x="42" y="3" width="10" height="10" class="count1" style="animation-delay: 1040.041911525952ms" /><rect x="42.5" y="3.5" width="9" height="9" class="st" style="animation-delay: 1040.041911525952ms" />
<rect x="42" y="16" width="10" height="10" class="count1" style="animation-delay: 1060.6421344151631ms" /><rect x="42.5" y="16.5" width="9" height="9" class="st" style="animation-delay: 1060.6421344151631ms" />
<rect x="42" y="29" width="10" height="10" class="count2" style="animation-delay: 1080.47179785568ms" /><rect x="42.5" y="29.5" width="9" height="9" class="st" style="animation-delay: 1080.47179785568ms" />
<rect x="42" y="42" width="10" height="10" class="count1" style="animation-delay: 1099.5991527191932ms" /><rect x="42.5" y="42.5" width="9" height="9" class="st" style="animation-delay: 1099.5991527191932ms" />
<rect x="42" y="55" width="10" height="10" class="count1" style="animation-delay: 1118.0832630555396ms" /><rect x="42.5" y="55.5" width="9" height="9" class="st" style="animation-delay: 1118.0832630555396ms" />
<rect x="42" y="68" width="10" height="10" class="count1" style="animation-delay: 1135.975625104428ms" /><rect x="42.5" y="68.5" width="9" height="9" class="st" style="animation-delay: 1135.975625104428ms" />
<rect x="42" y="81" width="10" height="10" class="count1" style="animation-delay: 1153.3214397429438ms" /><rect x="42.5" y="81.5" width="9" height="9" class="st" style="animation-delay: 1153.3214397429438ms" />
<rect x="55" y="3" width="10" height="10" class="count1" style="animation-delay: 1170.16062451841ms" /><rect x="55.5" y="3.5" width="9" height="9" class="st" style="animation-delay: 1170.16062451841ms" />
<rect x="55" y="16" width="10" height="10" class="count1" style="animation-delay: 1186.5286272758535ms" /><rect x="55.5" y="16.5" width="9" height="9" class="st" style="animation-delay: 1186.5286272758535ms" />
<rect x="55" y="29" width="10" height="10" class="count2" style="animation-delay: 1202.4570867156926ms" /><rect x="55.5" y="29.5" width="9" height="9" class="st" style="animation-delay: 1202.4570867156926ms" />
<rect x="55" y="42" width="10" height="10" class="count3" style="animation-delay: 1217.9743735004295ms" /><rect x="55.5" y="42.5" width="9" height="9" class="st" style="animation-delay: 1217.9743735004295ms" />
<rect x="55" y="55" width="10" height="10" class="count3" style="animation-delay: 1233.106037165235ms" /><rect x="55.5" y="55.5" width="9" height="9" class="st" style="animation-delay: 1233.106037165235ms" />
<rect x="55" y="68" width="10" height="10" class="count1" style="animation-delay: 1247.8751780306354ms" /><rect x="55.5" y="68.5" width="9" height="9" class="st" style="animation-delay: 1247.8751780306354ms" />
<rect x="55" y="81" width="10" height="10" class="count2" style="animation-delay: 1262.3027588714144ms" /><rect x="55.5" y="81.5" width="9" height="9" class="st" style="animation-delay: 1262.3027588714144ms" />
<rect x="68" y="3" width="10" height="10" class="count0" style="animation-delay: 1276.407867795272ms" /><rect x="68.5" y="3.5" width="9" height="9" class="st" style="animation-delay: 1276.407867795272ms" />
<rect x="68" y="16" width="10" height="10" class="count2" style="animation-delay: 1290.2079413058273ms" /><rect x="68.5" y="16.5" width="9" height="9" class="st" style="animation-delay: 1290.2079413058273ms" />
<rect x="68" y="29" width="10" height="10" class="count2" style="animation-delay: 1303.7189546432817ms" /><rect x="68.5" y="29.5" width="9" height="9" class="st" style="animation-delay: 1303.7189546432817ms" />
<rect x="68" y="42" width="10" height="10" class="count1" style="animation-delay: 1316.9555850545241ms" /><rect x="68.5" y="42.5" width="9" height="9" class="st" style="animation-delay: 1316.9555850545241ms" />
<rect x="68" y="55" width="10" height="10" class="count2" style="animation-delay: 1329.9313525298726ms" /><rect x="68.5" y="55.5" width="9" height="9" class="st" style="animation-delay: 1329.9313525298726ms" />
<rect x="68" y="68" width="10" height="10" class="count2" style="animation-delay: 1342.6587416746179ms" /><rect x="68.5" y="68.5" width="9" height="9" class="st" style="animation-delay: 1342.6587416746179ms" />
<rect x="68" y="81" width="10" height="10" class="count1" style="animation-delay: 1355.1493077005753ms" /><rect x="68.5" y="81.5" width="9" height="9" class="st" style="animation-delay: 1355.1493077005753ms" />
<rect x="81" y="3" width="10" height="10" class="count1" style="animation-delay: 1367.413768982172ms" /><rect x="81.5" y="3.5" width="9" height="9" class="st" style="animation-delay: 1367.413768982172ms" />
<rect x="81" y="16" width="10" height="10" class="count3" style="animation-delay: 1379.4620881905603ms" /><rect x="81.5" y="16.5" width="9" height="9" class="st" style="animation-delay: 1379.4620881905603ms" />
<rect x="81" y="29" width="10" height="10" class="count5" style="animation-delay: 1391.303543673366ms" /><rect x="81.5" y="29.5" width="9" height="9" class="st" style="animation-delay: 1391.303543673366ms" />
<rect x="81" y="42" width="10" height="10" class="count2" style="animation-delay: 1402.946792468424ms" /><rect x="81.5" y="42.5" width="9" height="9" class="st" style="animation-delay: 1402.946792468424ms" />
<rect x="81" y="55" width="10" height="10" class="count4" style="animation-delay: 1414.3999261130543ms" /><rect x="81.5" y="55.5" width="9" height="9" class="st" style="animation-delay: 1414.3999261130543ms" />
<rect x="81" y="68" width="10" height="10" class="count5" style="animation-delay: 1425.670520225225ms" /><rect x="81.5" y="68.5" width="9" height="9" class="st" style="animation-delay: 1425.670520225225ms" />
<rect x="81" y="81" width="10" height="10" class="count5" style="animation-delay: 1436.7656786809098ms" /><rect x="81.5" y="81.5" width="9" height="9" class="st" style="animation-delay: 1436.7656786809098ms" />
<rect x="94" y="3" width="10" height="10" class="count5" style="animation-delay: 1447.6920730865268ms" /><rect x="94.5" y="3.5" width="9" height="9" class="st" style="animation-delay: 1447.6920730865268ms" />
<rect x="94" y="16" width="10" height="10" class="count3" style="animation-delay: 1458.4559781413573ms" /><rect x="94.5" y="16.5" width="9" height="9" class="st" style="animation-delay: 1458.4559781413573ms" />
<rect x="94" y="29" width="10" height="10" class="count5" style="animation-delay: 1469.0633033982901ms" /><rect x="94.5" y="29.5" width="9" height="9" class="st" style="animation-delay: 1469.0633033982901ms" />
<rect x="94" y="42" width="10" height="10" class="count6" style="animation-delay: 1479.5196218588376ms" /><rect x="94.5" y="42.5" width="9" height="9" class="st" style="animation-delay: 1479.5196218588376ms" />
<rect x="94" y="55" width="10" height="10" class="count2" style="animation-delay: 1489.830195777585ms" /><rect x="94.5" y="55.5" width="9" height="9" class="st" style="animation-delay: 1489.830195777585ms" />
<rect x="94" y="68" width="10" height="10" class="count2" style="animation-delay: 1500ms" /><rect x="94.5" y="68.5" width="9" height="9" class="st" style="animation-delay: 1500ms" />
<rect x="94" y="81" width="10" height="10" class="count1" style="animation-delay: 1510.1698042224152ms" /><rect x="94.5" y="81.5" width="9" height="9" class="st" style="animation-delay: 1510.1698042224152ms" />
<rect x="107" y="3" width="10" height="10" class="count4" style="animation-delay: 1520.4803781411626ms" /><rect x="107.5" y="3.5" width="9" height="9" class="st" style="animation-delay: 1520.4803781411626ms" />
<rect x="107" y="16" width="10" height="10" class="count1" style="animation-delay: 1530.9366966017099ms" /><rect x="107.5" y="16.5" width="9" height="9" class="st" style="animation-delay: 1530.9366966017099ms" />
<rect x="107" y="29" width="10" height="10" class="count0" style="animation-delay: 1541.5440218586427ms" /><rect x="107.5" y="29.5" width="9" height="9" class="st" style="animation-delay: 1541.5440218586427ms" />
<rect x="107" y="42" width="10" height="10" class="count1" style="animation-delay: 1552.3079269134732ms" /><rect x="107.5" y="42.5" width="9" height="9" class="st" style="animation-delay: 1552.3079269134732ms" />
<rect x="107" y="55" width="10" height="10" class="count4" style="animation-delay: 1563.2343213190902ms" /><rect x="107.5" y="55.5" width="9" height="9" class="st" style="animation-delay: 1563.2343213190902ms" />
<rect x="107" y="68" width="10" height="10" class="count4" style="animation-delay: 1574.329479774775ms" /><rect x="107.5" y="68.5" width="9" height="9" class="st" style="animation-delay: 1574.329479774775ms" />
<rect x="107" y="81" width="10" height="10" class="count5" style="animation-delay: 1585.600073886946ms" /><rect x="107.5" y="81.5" width="9" height="9" class="st" style="animation-delay: 1585.600073886946ms" />
<rect x="120" y="3" width="10" height="10" class="count3" style="animation-delay: 1597.053207531576ms" /><rect x="120.5" y="3.5" width="9" height="9" class="st" style="animation-delay: 1597.053207531576ms" />
<rect x="120" y="16" width="10" height="10" class="count4" style="animation-delay: 1608.696456326634ms" /><rect x="120.5" y="16.5" width="9" height="9" class="st" style="animation-delay: 1608.696456326634ms" />
<rect x="120" y="29" width="10" height="10" class="count6" style="animation-delay: 1620.53791180944ms" /><rect x="120.5" y="29.5" width="9" height="9" class="st" style="animation-delay: 1620.53791180944ms" />
<rect x="120" y="42" width="10" height="10" class="count6" style="animation-delay: 1632.586231017828ms" /><rect x="120.5" y="42.5" width="9" height="9" class="st" style="animation-delay: 1632.586231017828ms" />
<rect x="120" y="55" width="10" height="10" class="count6" style="animation-delay: 1644.8506922994247ms" /><rect x="120.5" y="55.5" width="9" height="9" class="st" style="animation-delay: 1644.8506922994247ms" />
<rect x="120" y="68" width="10" height="10" class="count8" style="animation-delay: 1657.3412583253821ms" /><rect x="120.5" y="68.5" width="9" height="9" class="st" style="animation-delay: 1657.3412583253821ms" />
<rect x="120" y="81" width="10" height="10" class="count7" style="animation-delay: 1670.0686474701276ms" /><rect x="120.5" y="81.5" width="9" height="9" class="st" style="animation-delay: 1670.0686474701276ms" />
<rect x="133" y="3" width="10" height="10" class="count5" style="animation-delay: 1683.0444149454759ms" /><rect x="133.5" y="3.5" width="9" height="9" class="st" style="animation-delay: 1683.0444149454759ms" />
<rect x="133" y="16" width="10" height="10" class="count5" style="animation-delay: 1696.2810453567183ms" /><rect x="133.5" y="16.5" width="9" height="9" class="st" style="animation-delay: 1696.2810453567183ms" />
<rect x="133" y="29" width="10" height="10" class="count5" style="animation-delay: 1709.7920586941725ms" /><rect x="133.5" y="29.5" width="9" height="9" class="st" style="animation-delay: 1709.7920586941725ms" />
<rect x="133" y="42" width="10" height="10" class="count5" style="animation-delay: 1723.5921322047282ms" /><rect x="133.5" y="42.5" width="9" height="9" class="st" style="animation-delay: 1723.5921322047282ms" />
<rect x="133" y="55" width="10" height="10" class="count7" style="animation-delay: 1737.6972411285851ms" /><rect x="133.5" y="55.5" width="9" height="9" class="st" style="animation-delay: 1737.6972411285851ms" />
<rect x="133" y="68" width="10" height="10" class="count3" style="animation-delay: 1752.1248219693646ms" /><rect x="133.5" y="68.5" width="9" height="9" class="st" style="animation-delay: 1752.1248219693646ms" />
<rect x="133" y="81" width="10" height="10" class="count5" style="animation-delay: 1766.8939628347648ms" /><rect x="133.5" y="81.5" width="9" height="9" class="st" style="animation-delay: 1766.8939628347648ms" />
<rect x="146" y="3" width="10" height="10" class="count6" style="animation-delay: 1782.0256264995705ms" /><rect x="146.5" y="3.5" width="9" height="9" class="st" style="animation-delay: 1782.0256264995705ms" />
<rect x="146" y="16" width="10" height="10" class="count4" style="animation-delay: 1797.5429132843074ms" /><rect x="146.5" y="16.5" width="9" height="9" class="st" style="animation-delay: 1797.5429132843074ms" />
<rect x="146" y="29" width="10" height="10" class="count3" style="animation-delay: 1813.4713727241462ms" /><rect x="146.5" y="29.5" width="9" height="9" class="st" style="animation-delay: 1813.4713727241462ms" />
<rect x="146" y="42" width="10" height="10" class="count3" style="animation-delay: 1829.83937548159ms" /><rect x="146.5" y="42.5" width="9" height="9" class="st" style="animation-delay: 1829.83937548159ms" />
<rect x="146" y="55" width="10" height="10" class="count3" style="animation-delay: 1846.6785602570562ms" /><rect x="146.5" y="55.5" width="9" height="9" class="st" style="animation-delay: 1846.6785602570562ms" />
<rect x="146" y="68" width="10" height="10" class="count3" style="animation-delay: 1864.0243748955722ms" /><rect x="146.5" y="68.5" width="9" height="9" class="st" style="animation-delay: 1864.0243748955722ms" />
<rect x="146" y="81" width="10" height="10" class="count3" style="animation-delay: 1881.9167369444604ms" /><rect x="146.5" y="81.5" width="9" height="9" class="st" style="animation-delay: 1881.9167369444604ms" />
<rect x="159" y="3" width="10" height="10" class="count1" style="animation-delay: 1900.4008472808068ms" /><rect x="159.5" y="3.5" width="9" height="9" class="st" style="animation-delay: 1900.4008472808068ms" />
<rect x="159" y="16" width="10" height="10" class="count3" style="animation-delay: 1919.52820214432ms" /><rect x="159.5" y="16.5" width="9" height="9" class="st" style="animation-delay: 1919.52820214432ms" />
<rect x="159" y="29" width="10" height="10" class="count1" style="animation-delay: 1939.3578655848366ms" /><rect x="159.5" y="29.5" width="9" height="9" class="st" style="animation-delay: 1939.3578655848366ms" />
<rect x="159" y="42" width="10" height="10" class="count0" style="animation-delay: 1959.9580884740483ms" /><rect x="159.5" y="42.5" width="9" height="9" class="st" style="animation-delay: 1959.9580884740483ms" />
<rect x="159" y="55" width="10" height="10" class="count1" style="animation-delay: 1981.4083958540086ms" /><rect x="159.5" y="55.5" width="9" height="9" class="st" style="animation-delay: 1981.4083958540086ms" />
<rect x="159" y="68" width="10" height="10" class="count0" style="animation-delay: 2003.8023180865498ms" /><rect x="159.5" y="68.5" width="9" height="9" class="st" style="animation-delay: 2003.8023180865498ms" />
<rect x="159" y="81" width="10" height="10" class="count0" style="animation-delay: 2027.251024127958ms" /><rect x="159.5" y="81.5" width="9" height="9" class="st" style="animation-delay: 2027.251024127958ms" />
<rect x="172" y="3" width="10" height="10" class="count0" style="animation-delay: 2051.8882465739166ms" /><rect x="172.5" y="3.5" width="9" height="9" class="st" style="animation-delay: 2051.8882465739166ms" />
<rect x="172" y="16" width="10" height="10" class="count2" style="animation-delay: 2077.8771026110244ms" /><rect x="172.5" y="16.5" width="9" height="9" class="st" style="animation-delay: 2077.8771026110244ms" />
<rect x="172" y="29" width="10" height="10" class="count0" style="animation-delay: 2105.4197776388824ms" /><rect x="172.5" y="29.5" width="9" height="9" class="st" style="animation-delay: 2105.4197776388824ms" />
<rect x="172" y="42" width="10" height="10" class="count1" style="animation-delay: 2134.7716763301537ms" /><rect x="172.5" y="42.5" width="9" height="9" class="st" style="animation-delay: 2134.7716763301537ms" />
<rect x="172" y="55" width="10" height="10" class="count1" style="animation-delay: 2166.2628220028555ms" /><rect x="172.5" y="55.5" width="9" height="9" class="st" style="animation-delay: 2166.2628220028555ms" />
<rect x="172" y="68" width="10" height="10" class="count1" style="animation-delay: 2200.331576803924ms" /><rect x="172.5" y="68.5" width="9" height="9" class="st" style="animation-delay: 2200.331576803924ms" />
<rect x="172" y="81" width="10" height="10" class="count1" style="animation-delay: 2237.580530195742ms" /><rect x="172.5" y="81.5" width="9" height="9" class="st" style="animation-delay: 2237.580530195742ms" />
<rect x="185" y="3" width="10" height="10" class="count0" style="animation-delay: 2278.875214846296ms" /><rect x="185.5" y="3.5" width="9" height="9" class="st" style="animation-delay: 2278.875214846296ms" />
<rect x="185" y="16" width="10" height="10" class="count3" style="animation-delay: 2325.533530466086ms" /><rect x="185.5" y="16.5" width="9" height="9" class="st" style="animation-delay: 2325.533530466086ms" />
<rect x="185" y="29" width="10" height="10" class="count0" style="animation-delay: 2379.732717014822ms" /><rect x="185.5" y="29.5" width="9" height="9" class="st" style="animation-delay: 2379.732717014822ms" />
<rect x="185" y="42" width="10" height="10" class="count0" style="animation-delay: 2445.5408830348056ms" /><rect x="185.5" y="42.5" width="9" height="9" class="st" style="animation-delay: 2445.5408830348056ms" />
<rect x="185" y="55" width="10" height="10" class="count2" style="animation-delay: 2532.351069177192ms" /><rect x="185.5" y="55.5" width="9" height="9" class="st" style="animation-delay: 2532.351069177192ms" />
<rect x="185" y="68" width="10" height="10" class="count1" style="animation-delay: 2675.750341375985ms" /><rect x="185.5" y="68.5" width="9" height="9" class="st" style="animation-delay: 2675.750341375985ms" />
</svg>

  