

<svg height="94" width="341" xmlns="http://www.w3.org/2000/svg" fill='#4FA1A7'>
  <style>
  rect {
  rx: 2;
  ry: 2;
  animation: wow .5s backwards;
  }
  .st {
  
  stroke: rgba(27, 31, 35, 0.06);
  stroke-width: 1;
  fill: none;
  }
  @keyframes wow {
  from {opacity: 0;}
  to{ opacity: 1;}}
  .count0 {fill: #ebedf0}
.count1 {fill: #9be9a8}
.count2 {fill: #9be9a8}
.count3 {fill: #40c463}
.count4 {fill: #40c463}
.count5 {fill: #30a14e}
.count6 {fill: #30a14e}
.count7 {fill: #216e39}
.count8 {fill: #216e39}
  </style>
<rect x="3" y="68" width="10" height="10" class="count3" style="animation-delay: 270.24596746861306ms" /><rect x="3.5" y="68.5" width="9" height="9" class="st" style="animation-delay: 270.24596746861306ms" />
<rect x="3" y="81" width="10" height="10" class="count3" style="animation-delay: 389.76213045891706ms" /><rect x="3.5" y="81.5" width="9" height="9" class="st" style="animation-delay: 389.76213045891706ms" />
<rect x="16" y="3" width="10" height="10" class="count1" style="animation-delay: 462.11410405770147ms" /><rect x="16.5" y="3.5" width="9" height="9" class="st" style="animation-delay: 462.11410405770147ms" />
<rect x="16" y="16" width="10" height="10" class="count2" style="animation-delay: 516.9619381892026ms" /><rect x="16.5" y="16.5" width="9" height="9" class="st" style="animation-delay: 516.9619381892026ms" />
<rect x="16" y="29" width="10" height="10" class="count5" style="animation-delay: 562.1342651764731ms" /><rect x="16.5" y="29.5" width="9" height="9" class="st" style="animation-delay: 562.1342651764731ms" />
<rect x="16" y="42" width="10" height="10" class="count1" style="animation-delay: 601.0216512068384ms" /><rect x="16.5" y="42.5" width="9" height="9" class="st" style="animation-delay: 601.0216512068384ms" />
<rect x="16" y="55" width="10" height="10" class="count3" style="animation-delay: 635.4387175256053ms" /><rect x="16.5" y="55.5" width="9" height="9" class="st" style="animation-delay: 635.4387175256053ms" />
<rect x="16" y="68" width="10" height="10" class="count2" style="animation-delay: 666.483868010213ms" /><rect x="16.5" y="68.5" width="9" height="9" class="st" style="animation-delay: 666.483868010213ms" />
<rect x="16" y="81" width="10" height="10" class="count2" style="animation-delay: 694.8784811016691ms" /><rect x="16.5" y="81.5" width="9" height="9" class="st" style="animation-delay: 694.8784811016691ms" />
<rect x="29" y="3" width="10" height="10" class="count2" style="animation-delay: 721.1247851537041ms" /><rect x="29.5" y="3.5" width="9" height="9" class="st" style="animation-delay: 721.1247851537041ms" />
<rect x="29" y="16" width="10" height="10" class="count1" style="animation-delay: 745.5881332186624ms" /><rect x="29.5" y="16.5" width="9" height="9" class="st" style="animation-delay: 745.5881332186624ms" />
<rect x="29" y="29" width="10" height="10" class="count2" style="animation-delay: 768.543583322029ms" /><rect x="29.5" y="29.5" width="9" height="9" class="st" style="animation-delay: 768.543583322029ms" />
<rect x="29" y="42" width="10" height="10" class="count2" style="animation-delay: 790.2040025587216ms" /><rect x="29.5" y="42.5" width="9" height="9" class="st" style="animation-delay: 790.2040025587216ms" />
<rect x="29" y="55" width="10" height="10" class="count1" style="animation-delay: 810.7379024058392ms" /><rect x="29.5" y="55.5" width="9" height="9" class="st" style="animation-delay: 810.7379024058392ms" />
<rect x="29" y="68" width="10" height="10" class="count3" style="animation-delay: 830.28123292757ms" /><rect x="29.5" y="68.5" width="9" height="9" class="st" style="animation-delay: 830.28123292757ms" />
<rect x="29" y="81" width="10" height="10" class="count2" style="animation-delay: 848.945453592695ms" /><rect x="29.5" y="81.5" width="9" height="9" class="st" style="animation-delay: 848.945453592695ms" />
<rect x="42" y="3" width="10" height="10" class="count1" style="animation-delay: 866.8232181985118ms" /><rect x="42.5" y="3.5" width="9" height="9" class="st" style="animation-delay: 866.8232181985118ms" />
<rect x="42" y="16" width="10" height="10" class="count1" style="animation-delay: 883.9924796509018ms" /><rect x="42.5" y="16.5" width="9" height="9" class="st" style="animation-delay: 883.9924796509018ms" />
<rect x="42" y="29" width="10" height="10" class="count2" style="animation-delay: 900.5195181181139ms" /><rect x="42.5" y="29.5" width="9" height="9" class="st" style="animation-delay: 900.5195181181139ms" />
<rect x="42" y="42" width="10" height="10" class="count1" style="animation-delay: 916.4612173079948ms" /><rect x="42.5" y="42.5" width="9" height="9" class="st" style="animation-delay: 916.4612173079948ms" />
<rect x="42" y="55" width="10" height="10" class="count1" style="animation-delay: 931.8668041691822ms" /><rect x="42.5" y="55.5" width="9" height="9" class="st" style="animation-delay: 931.8668041691822ms" />
<rect x="42" y="68" width="10" height="10" class="count1" style="animation-delay: 946.7791982568727ms" /><rect x="42.5" y="68.5" width="9" height="9" class="st" style="animation-delay: 946.7791982568727ms" />
<rect x="42" y="81" width="10" height="10" class="count1" style="animation-delay: 961.2360722545491ms" /><rect x="42.5" y="81.5" width="9" height="9" class="st" style="animation-delay: 961.2360722545491ms" />
<rect x="55" y="3" width="10" height="10" class="count1" style="animation-delay: 975.2706954530441ms" /><rect x="55.5" y="3.5" width="9" height="9" class="st" style="animation-delay: 975.2706954530441ms" />
<rect x="55" y="16" width="10" height="10" class="count1" style="animation-delay: 988.912611868578ms" /><rect x="55.5" y="16.5" width="9" height="9" class="st" style="animation-delay: 988.912611868578ms" />
<rect x="55" y="29" width="10" height="10" class="count2" style="animation-delay: 1002.1881907847469ms" /><rect x="55.5" y="29.5" width="9" height="9" class="st" style="animation-delay: 1002.1881907847469ms" />
<rect x="55" y="42" width="10" height="10" class="count3" style="animation-delay: 1015.1210777380426ms" /><rect x="55.5" y="42.5" width="9" height="9" class="st" style="animation-delay: 1015.1210777380426ms" />
<rect x="55" y="55" width="10" height="10" class="count3" style="animation-delay: 1027.732566995605ms" /><rect x="55.5" y="55.5" width="9" height="9" class="st" style="animation-delay: 1027.732566995605ms" />
<rect x="55" y="68" width="10" height="10" class="count1" style="animation-delay: 1040.041911525952ms" /><rect x="55.5" y="68.5" width="9" height="9" class="st" style="animation-delay: 1040.041911525952ms" />
<rect x="55" y="81" width="10" height="10" class="count2" style="animation-delay: 1052.0665827595124ms" /><rect x="55.5" y="81.5" width="9" height="9" class="st" style="animation-delay: 1052.0665827595124ms" />
<rect x="68" y="3" width="10" height="10" class="count0" style="animation-delay: 1063.822489684917ms" /><rect x="68.5" y="3.5" width="9" height="9" class="st" style="animation-delay: 1063.822489684917ms" />
<rect x="68" y="16" width="10" height="10" class="count2" style="animation-delay: 1075.3241647609186ms" /><rect x="68.5" y="16.5" width="9" height="9" class="st" style="animation-delay: 1075.3241647609186ms" />
<rect x="68" y="29" width="10" height="10" class="count2" style="animation-delay: 1086.5849225558732ms" /><rect x="68.5" y="29.5" width="9" height="9" class="st" style="animation-delay: 1086.5849225558732ms" />
<rect x="68" y="42" width="10" height="10" class="count1" style="animation-delay: 1097.6169958252503ms" /><rect x="68.5" y="42.5" width="9" height="9" class="st" style="animation-delay: 1097.6169958252503ms" />
<rect x="68" y="55" width="10" height="10" class="count2" style="animation-delay: 1108.4316528087122ms" /><rect x="68.5" y="55.5" width="9" height="9" class="st" style="animation-delay: 1108.4316528087122ms" />
<rect x="68" y="68" width="10" height="10" class="count2" style="animation-delay: 1119.039298803984ms" /><rect x="68.5" y="68.5" width="9" height="9" class="st" style="animation-delay: 1119.039298803984ms" />
<rect x="68" y="81" width="10" height="10" class="count1" style="animation-delay: 1129.449564505542ms" /><rect x="68.5" y="81.5" width="9" height="9" class="st" style="animation-delay: 1129.449564505542ms" />
<rect x="81" y="3" width="10" height="10" class="count1" style="animation-delay: 1139.6713831455106ms" /><rect x="81.5" y="3.5" width="9" height="9" class="st" style="animation-delay: 1139.6713831455106ms" />
<rect x="81" y="16" width="10" height="10" class="count3" style="animation-delay: 1149.7130581149117ms" /><rect x="81.5" y="16.5" width="9" height="9" class="st" style="animation-delay: 1149.7130581149117ms" />
<rect x="81" y="29" width="10" height="10" class="count5" style="animation-delay: 1159.582322455134ms" /><rect x="81.5" y="29.5" width="9" height="9" class="st" style="animation-delay: 1159.582322455134ms" />
<rect x="81" y="42" width="10" height="10" class="count2" style="animation-delay: 1169.2863913767512ms" /><rect x="81.5" y="42.5" width="9" height="9" class="st" style="animation-delay: 1169.2863913767512ms" />
<rect x="81" y="55" width="10" height="10" class="count4" style="animation-delay: 1178.8320087737752ms" /><rect x="81.5" y="55.5" width="9" height="9" class="st" style="animation-delay: 1178.8320087737752ms" />
<rect x="81" y="68" width="10" height="10" class="count5" style="animation-delay: 1188.225488547092ms" /><rect x="81.5" y="68.5" width="9" height="9" class="st" style="animation-delay: 1188.225488547092ms" />
<rect x="81" y="81" width="10" height="10" class="count5" style="animation-delay: 1197.4727514240933ms" /><rect x="81.5" y="81.5" width="9" height="9" class="st" style="animation-delay: 1197.4727514240933ms" />
<rect x="94" y="3" width="10" height="10" class="count5" style="animation-delay: 1206.5793578569887ms" /><rect x="94.5" y="3.5" width="9" height="9" class="st" style="animation-delay: 1206.5793578569887ms" />
<rect x="94" y="16" width="10" height="10" class="count3" style="animation-delay: 1215.5505374956263ms" /><rect x="94.5" y="16.5" width="9" height="9" class="st" style="animation-delay: 1215.5505374956263ms" />
<rect x="94" y="29" width="10" height="10" class="count5" style="animation-delay: 1224.3912156584922ms" /><rect x="94.5" y="29.5" width="9" height="9" class="st" style="animation-delay: 1224.3912156584922ms" />
<rect x="94" y="42" width="10" height="10" class="count6" style="animation-delay: 1233.106037165235ms" /><rect x="94.5" y="42.5" width="9" height="9" class="st" style="animation-delay: 1233.106037165235ms" />
<rect x="94" y="55" width="10" height="10" class="count2" style="animation-delay: 1241.6993878433912ms" /><rect x="94.5" y="55.5" width="9" height="9" class="st" style="animation-delay: 1241.6993878433912ms" />
<rect x="94" y="68" width="10" height="10" class="count2" style="animation-delay: 1250.1754139792886ms" /><rect x="94.5" y="68.5" width="9" height="9" class="st" style="animation-delay: 1250.1754139792886ms" />
<rect x="94" y="81" width="10" height="10" class="count1" style="animation-delay: 1258.538039946977ms" /><rect x="94.5" y="81.5" width="9" height="9" class="st" style="animation-delay: 1258.538039946977ms" />
<rect x="107" y="3" width="10" height="10" class="count4" style="animation-delay: 1266.7909842183517ms" /><rect x="107.5" y="3.5" width="9" height="9" class="st" style="animation-delay: 1266.7909842183517ms" />
<rect x="107" y="16" width="10" height="10" class="count1" style="animation-delay: 1274.9377739314934ms" /><rect x="107.5" y="16.5" width="9" height="9" class="st" style="animation-delay: 1274.9377739314934ms" />
<rect x="107" y="29" width="10" height="10" class="count0" style="animation-delay: 1282.9817581719162ms" /><rect x="107.5" y="29.5" width="9" height="9" class="st" style="animation-delay: 1282.9817581719162ms" />
<rect x="107" y="42" width="10" height="10" class="count1" style="animation-delay: 1290.9261201022325ms" /><rect x="107.5" y="42.5" width="9" height="9" class="st" style="animation-delay: 1290.9261201022325ms" />
<rect x="107" y="55" width="10" height="10" class="count4" style="animation-delay: 1298.7738880592842ms" /><rect x="107.5" y="55.5" width="9" height="9" class="st" style="animation-delay: 1298.7738880592842ms" />
<rect x="107" y="68" width="10" height="10" class="count4" style="animation-delay: 1306.5279457235551ms" /><rect x="107.5" y="68.5" width="9" height="9" class="st" style="animation-delay: 1306.5279457235551ms" />
<rect x="107" y="81" width="10" height="10" class="count5" style="animation-delay: 1314.1910414533877ms" /><rect x="107.5" y="81.5" width="9" height="9" class="st" style="animation-delay: 1314.1910414533877ms" />
<rect x="120" y="3" width="10" height="10" class="count3" style="animation-delay: 1321.76579686586ms" /><rect x="120.5" y="3.5" width="9" height="9" class="st" style="animation-delay: 1321.76579686586ms" />
<rect x="120" y="16" width="10" height="10" class="count4" style="animation-delay: 1329.2547147368973ms" /><rect x="120.5" y="16.5" width="9" height="9" class="st" style="animation-delay: 1329.2547147368973ms" />
<rect x="120" y="29" width="10" height="10" class="count6" style="animation-delay: 1336.6601862851041ms" /><rect x="120.5" y="29.5" width="9" height="9" class="st" style="animation-delay: 1336.6601862851041ms" />
<rect x="120" y="42" width="10" height="10" class="count6" style="animation-delay: 1343.9844978967408ms" /><rect x="120.5" y="42.5" width="9" height="9" class="st" style="animation-delay: 1343.9844978967408ms" />
<rect x="120" y="55" width="10" height="10" class="count6" style="animation-delay: 1351.2298373430654ms" /><rect x="120.5" y="55.5" width="9" height="9" class="st" style="animation-delay: 1351.2298373430654ms" />
<rect x="120" y="68" width="10" height="10" class="count8" style="animation-delay: 1358.3982995358342ms" /><rect x="120.5" y="68.5" width="9" height="9" class="st" style="animation-delay: 1358.3982995358342ms" />
<rect x="120" y="81" width="10" height="10" class="count7" style="animation-delay: 1365.4918918619674ms" /><rect x="120.5" y="81.5" width="9" height="9" class="st" style="animation-delay: 1365.4918918619674ms" />
<rect x="133" y="3" width="10" height="10" class="count5" style="animation-delay: 1372.5125391341683ms" /><rect x="133.5" y="3.5" width="9" height="9" class="st" style="animation-delay: 1372.5125391341683ms" />
<rect x="133" y="16" width="10" height="10" class="count5" style="animation-delay: 1379.4620881905603ms" /><rect x="133.5" y="16.5" width="9" height="9" class="st" style="animation-delay: 1379.4620881905603ms" />
<rect x="133" y="29" width="10" height="10" class="count5" style="animation-delay: 1386.3423121731043ms" /><rect x="133.5" y="29.5" width="9" height="9" class="st" style="animation-delay: 1386.3423121731043ms" />
<rect x="133" y="42" width="10" height="10" class="count5" style="animation-delay: 1393.1549145116378ms" /><rect x="133.5" y="42.5" width="9" height="9" class="st" style="animation-delay: 1393.1549145116378ms" />
<rect x="133" y="55" width="10" height="10" class="count7" style="animation-delay: 1399.9015326377694ms" /><rect x="133.5" y="55.5" width="9" height="9" class="st" style="animation-delay: 1399.9015326377694ms" />
<rect x="133" y="68" width="10" height="10" class="count3" style="animation-delay: 1406.5837414505602ms" /><rect x="133.5" y="68.5" width="9" height="9" class="st" style="animation-delay: 1406.5837414505602ms" />
<rect x="133" y="81" width="10" height="10" class="count5" style="animation-delay: 1413.2030565538455ms" /><rect x="133.5" y="81.5" width="9" height="9" class="st" style="animation-delay: 1413.2030565538455ms" />
<rect x="146" y="3" width="10" height="10" class="count6" style="animation-delay: 1419.760937283217ms" /><rect x="146.5" y="3.5" width="9" height="9" class="st" style="animation-delay: 1419.760937283217ms" />
<rect x="146" y="16" width="10" height="10" class="count4" style="animation-delay: 1426.2587895390336ms" /><rect x="146.5" y="16.5" width="9" height="9" class="st" style="animation-delay: 1426.2587895390336ms" />
<rect x="146" y="29" width="10" height="10" class="count3" style="animation-delay: 1432.6979684403495ms" /><rect x="146.5" y="29.5" width="9" height="9" class="st" style="animation-delay: 1432.6979684403495ms" />
<rect x="146" y="42" width="10" height="10" class="count3" style="animation-delay: 1439.0797808133202ms" /><rect x="146.5" y="42.5" width="9" height="9" class="st" style="animation-delay: 1439.0797808133202ms" />
<rect x="146" y="55" width="10" height="10" class="count3" style="animation-delay: 1445.4054875264603ms" /><rect x="146.5" y="55.5" width="9" height="9" class="st" style="animation-delay: 1445.4054875264603ms" />
<rect x="146" y="68" width="10" height="10" class="count3" style="animation-delay: 1451.6763056840464ms" /><rect x="146.5" y="68.5" width="9" height="9" class="st" style="animation-delay: 1451.6763056840464ms" />
<rect x="146" y="81" width="10" height="10" class="count3" style="animation-delay: 1457.8934106879976ms" /><rect x="146.5" y="81.5" width="9" height="9" class="st" style="animation-delay: 1457.8934106879976ms" />
<rect x="159" y="3" width="10" height="10" class="count1" style="animation-delay: 1464.0579381776852ms" /><rect x="159.5" y="3.5" width="9" height="9" class="st" style="animation-delay: 1464.0579381776852ms" />
<rect x="159" y="16" width="10" height="10" class="count3" style="animation-delay: 1470.1709858563393ms" /><rect x="159.5" y="16.5" width="9" height="9" class="st" style="animation-delay: 1470.1709858563393ms" />
<rect x="159" y="29" width="10" height="10" class="count1" style="animation-delay: 1476.2336152120038ms" /><rect x="159.5" y="29.5" width="9" height="9" class="st" style="animation-delay: 1476.2336152120038ms" />
<rect x="159" y="42" width="10" height="10" class="count0" style="animation-delay: 1482.2468531403413ms" /><rect x="159.5" y="42.5" width="9" height="9" class="st" style="animation-delay: 1482.2468531403413ms" />
<rect x="159" y="55" width="10" height="10" class="count1" style="animation-delay: 1488.2116934760031ms" /><rect x="159.5" y="55.5" width="9" height="9" class="st" style="animation-delay: 1488.2116934760031ms" />
<rect x="159" y="68" width="10" height="10" class="count0" style="animation-delay: 1494.1290984387476ms" /><rect x="159.5" y="68.5" width="9" height="9" class="st" style="animation-delay: 1494.1290984387476ms" />
<rect x="159" y="81" width="10" height="10" class="count0" style="animation-delay: 1500ms" /><rect x="159.5" y="81.5" width="9" height="9" class="st" style="animation-delay: 1500ms" />
<rect x="172" y="3" width="10" height="10" class="count0" style="animation-delay: 1505.8709015612521ms" /><rect x="172.5" y="3.5" width="9" height="9" class="st" style="animation-delay: 1505.8709015612521ms" />
<rect x="172" y="16" width="10" height="10" class="count2" style="animation-delay: 1511.7883065239969ms" /><rect x="172.5" y="16.5" width="9" height="9" class="st" style="animation-delay: 1511.7883065239969ms" />
<rect x="172" y="29" width="10" height="10" class="count0" style="animation-delay: 1517.753146859659ms" /><rect x="172.5" y="29.5" width="9" height="9" class="st" style="animation-delay: 1517.753146859659ms" />
<rect x="172" y="42" width="10" height="10" class="count1" style="animation-delay: 1523.766384787996ms" /><rect x="172.5" y="42.5" width="9" height="9" class="st" style="animation-delay: 1523.766384787996ms" />
<rect x="172" y="55" width="10" height="10" class="count1" style="animation-delay: 1529.829014143661ms" /><rect x="172.5" y="55.5" width="9" height="9" class="st" style="animation-delay: 1529.829014143661ms" />
<rect x="172" y="68" width="10" height="10" class="count1" style="animation-delay: 1535.9420618223148ms" /><rect x="172.5" y="68.5" width="9" height="9" class="st" style="animation-delay: 1535.9420618223148ms" />
<rect x="172" y="81" width="10" height="10" class="count1" style="animation-delay: 1542.1065893120024ms" /><rect x="172.5" y="81.5" width="9" height="9" class="st" style="animation-delay: 1542.1065893120024ms" />
<rect x="185" y="3" width="10" height="10" class="count0" style="animation-delay: 1548.3236943159536ms" /><rect x="185.5" y="3.5" width="9" height="9" class="st" style="animation-delay: 1548.3236943159536ms" />
<rect x="185" y="16" width="10" height="10" class="count3" style="animation-delay: 1554.5945124735401ms" /><rect x="185.5" y="16.5" width="9" height="9" class="st" style="animation-delay: 1554.5945124735401ms" />
<rect x="185" y="29" width="10" height="10" class="count0" style="animation-delay: 1560.9202191866796ms" /><rect x="185.5" y="29.5" width="9" height="9" class="st" style="animation-delay: 1560.9202191866796ms" />
<rect x="185" y="42" width="10" height="10" class="count0" style="animation-delay: 1567.3020315596505ms" /><rect x="185.5" y="42.5" width="9" height="9" class="st" style="animation-delay: 1567.3020315596505ms" />
<rect x="185" y="55" width="10" height="10" class="count2" style="animation-delay: 1573.7412104609662ms" /><rect x="185.5" y="55.5" width="9" height="9" class="st" style="animation-delay: 1573.7412104609662ms" />
<rect x="185" y="68" width="10" height="10" class="count1" style="animation-delay: 1580.239062716783ms" /><rect x="185.5" y="68.5" width="9" height="9" class="st" style="animation-delay: 1580.239062716783ms" />
<rect x="185" y="81" width="10" height="10" class="count0" style="animation-delay: 1586.7969434461545ms" /><rect x="185.5" y="81.5" width="9" height="9" class="st" style="animation-delay: 1586.7969434461545ms" />
<rect x="198" y="3" width="10" height="10" class="count0" style="animation-delay: 1593.4162585494398ms" /><rect x="198.5" y="3.5" width="9" height="9" class="st" style="animation-delay: 1593.4162585494398ms" />
<rect x="198" y="16" width="10" height="10" class="count0" style="animation-delay: 1600.0984673622306ms" /><rect x="198.5" y="16.5" width="9" height="9" class="st" style="animation-delay: 1600.0984673622306ms" />
<rect x="198" y="29" width="10" height="10" class="count0" style="animation-delay: 1606.8450854883622ms" /><rect x="198.5" y="29.5" width="9" height="9" class="st" style="animation-delay: 1606.8450854883622ms" />
<rect x="198" y="42" width="10" height="10" class="count0" style="animation-delay: 1613.6576878268957ms" /><rect x="198.5" y="42.5" width="9" height="9" class="st" style="animation-delay: 1613.6576878268957ms" />
<rect x="198" y="55" width="10" height="10" class="count0" style="animation-delay: 1620.53791180944ms" /><rect x="198.5" y="55.5" width="9" height="9" class="st" style="animation-delay: 1620.53791180944ms" />
<rect x="198" y="68" width="10" height="10" class="count0" style="animation-delay: 1627.4874608658317ms" /><rect x="198.5" y="68.5" width="9" height="9" class="st" style="animation-delay: 1627.4874608658317ms" />
<rect x="198" y="81" width="10" height="10" class="count0" style="animation-delay: 1634.5081081380329ms" /><rect x="198.5" y="81.5" width="9" height="9" class="st" style="animation-delay: 1634.5081081380329ms" />
<rect x="211" y="3" width="10" height="10" class="count0" style="animation-delay: 1641.6017004641658ms" /><rect x="211.5" y="3.5" width="9" height="9" class="st" style="animation-delay: 1641.6017004641658ms" />
<rect x="211" y="16" width="10" height="10" class="count0" style="animation-delay: 1648.7701626569346ms" /><rect x="211.5" y="16.5" width="9" height="9" class="st" style="animation-delay: 1648.7701626569346ms" />
<rect x="211" y="29" width="10" height="10" class="count0" style="animation-delay: 1656.0155021032592ms" /><rect x="211.5" y="29.5" width="9" height="9" class="st" style="animation-delay: 1656.0155021032592ms" />
<rect x="211" y="42" width="10" height="10" class="count0" style="animation-delay: 1663.3398137148963ms" /><rect x="211.5" y="42.5" width="9" height="9" class="st" style="animation-delay: 1663.3398137148963ms" />
<rect x="211" y="55" width="10" height="10" class="count0" style="animation-delay: 1670.7452852631027ms" /><rect x="211.5" y="55.5" width="9" height="9" class="st" style="animation-delay: 1670.7452852631027ms" />
<rect x="211" y="68" width="10" height="10" class="count0" style="animation-delay: 1678.23420313414ms" /><rect x="211.5" y="68.5" width="9" height="9" class="st" style="animation-delay: 1678.23420313414ms" />
<rect x="211" y="81" width="10" height="10" class="count0" style="animation-delay: 1685.8089585466123ms" /><rect x="211.5" y="81.5" width="9" height="9" class="st" style="animation-delay: 1685.8089585466123ms" />
<rect x="224" y="3" width="10" height="10" class="count0" style="animation-delay: 1693.472054276445ms" /><rect x="224.5" y="3.5" width="9" height="9" class="st" style="animation-delay: 1693.472054276445ms" />
<rect x="224" y="16" width="10" height="10" class="count0" style="animation-delay: 1701.2261119407158ms" /><rect x="224.5" y="16.5" width="9" height="9" class="st" style="animation-delay: 1701.2261119407158ms" />
<rect x="224" y="29" width="10" height="10" class="count0" style="animation-delay: 1709.0738798977677ms" /><rect x="224.5" y="29.5" width="9" height="9" class="st" style="animation-delay: 1709.0738798977677ms" />
<rect x="224" y="42" width="10" height="10" class="count0" style="animation-delay: 1717.0182418280838ms" /><rect x="224.5" y="42.5" width="9" height="9" class="st" style="animation-delay: 1717.0182418280838ms" />
<rect x="224" y="55" width="10" height="10" class="count0" style="animation-delay: 1725.0622260685066ms" /><rect x="224.5" y="55.5" width="9" height="9" class="st" style="animation-delay: 1725.0622260685066ms" />
<rect x="224" y="68" width="10" height="10" class="count0" style="animation-delay: 1733.2090157816483ms" /><rect x="224.5" y="68.5" width="9" height="9" class="st" style="animation-delay: 1733.2090157816483ms" />
<rect x="224" y="81" width="10" height="10" class="count0" style="animation-delay: 1741.461960053023ms" /><rect x="224.5" y="81.5" width="9" height="9" class="st" style="animation-delay: 1741.461960053023ms" />
<rect x="237" y="3" width="10" height="10" class="count1" style="animation-delay: 1749.8245860207114ms" /><rect x="237.5" y="3.5" width="9" height="9" class="st" style="animation-delay: 1749.8245860207114ms" />
<rect x="237" y="16" width="10" height="10" class="count1" style="animation-delay: 1758.3006121566088ms" /><rect x="237.5" y="16.5" width="9" height="9" class="st" style="animation-delay: 1758.3006121566088ms" />
<rect x="237" y="29" width="10" height="10" class="count1" style="animation-delay: 1766.8939628347648ms" /><rect x="237.5" y="29.5" width="9" height="9" class="st" style="animation-delay: 1766.8939628347648ms" />
<rect x="237" y="42" width="10" height="10" class="count0" style="animation-delay: 1775.6087843415078ms" /><rect x="237.5" y="42.5" width="9" height="9" class="st" style="animation-delay: 1775.6087843415078ms" />
<rect x="237" y="55" width="10" height="10" class="count0" style="animation-delay: 1784.4494625043737ms" /><rect x="237.5" y="55.5" width="9" height="9" class="st" style="animation-delay: 1784.4494625043737ms" />
<rect x="237" y="68" width="10" height="10" class="count0" style="animation-delay: 1793.4206421430113ms" /><rect x="237.5" y="68.5" width="9" height="9" class="st" style="animation-delay: 1793.4206421430113ms" />
<rect x="237" y="81" width="10" height="10" class="count0" style="animation-delay: 1802.527248575907ms" /><rect x="237.5" y="81.5" width="9" height="9" class="st" style="animation-delay: 1802.527248575907ms" />
<rect x="250" y="3" width="10" height="10" class="count0" style="animation-delay: 1811.774511452908ms" /><rect x="250.5" y="3.5" width="9" height="9" class="st" style="animation-delay: 1811.774511452908ms" />
<rect x="250" y="16" width="10" height="10" class="count0" style="animation-delay: 1821.1679912262248ms" /><rect x="250.5" y="16.5" width="9" height="9" class="st" style="animation-delay: 1821.1679912262248ms" />
<rect x="250" y="29" width="10" height="10" class="count1" style="animation-delay: 1830.7136086232488ms" /><rect x="250.5" y="29.5" width="9" height="9" class="st" style="animation-delay: 1830.7136086232488ms" />
<rect x="250" y="42" width="10" height="10" class="count1" style="animation-delay: 1840.4176775448657ms" /><rect x="250.5" y="42.5" width="9" height="9" class="st" style="animation-delay: 1840.4176775448657ms" />
<rect x="250" y="55" width="10" height="10" class="count0" style="animation-delay: 1850.2869418850883ms" /><rect x="250.5" y="55.5" width="9" height="9" class="st" style="animation-delay: 1850.2869418850883ms" />
<rect x="250" y="68" width="10" height="10" class="count0" style="animation-delay: 1860.328616854489ms" /><rect x="250.5" y="68.5" width="9" height="9" class="st" style="animation-delay: 1860.328616854489ms" />
<rect x="250" y="81" width="10" height="10" class="count0" style="animation-delay: 1870.550435494458ms" /><rect x="250.5" y="81.5" width="9" height="9" class="st" style="animation-delay: 1870.550435494458ms" />
<rect x="263" y="3" width="10" height="10" class="count0" style="animation-delay: 1880.960701196016ms" /><rect x="263.5" y="3.5" width="9" height="9" class="st" style="animation-delay: 1880.960701196016ms" />
<rect x="263" y="16" width="10" height="10" class="count0" style="animation-delay: 1891.5683471912878ms" /><rect x="263.5" y="16.5" width="9" height="9" class="st" style="animation-delay: 1891.5683471912878ms" />
<rect x="263" y="29" width="10" height="10" class="count0" style="animation-delay: 1902.3830041747499ms" /><rect x="263.5" y="29.5" width="9" height="9" class="st" style="animation-delay: 1902.3830041747499ms" />
<rect x="263" y="42" width="10" height="10" class="count2" style="animation-delay: 1913.415077444127ms" /><rect x="263.5" y="42.5" width="9" height="9" class="st" style="animation-delay: 1913.415077444127ms" />
<rect x="263" y="55" width="10" height="10" class="count1" style="animation-delay: 1924.6758352390812ms" /><rect x="263.5" y="55.5" width="9" height="9" class="st" style="animation-delay: 1924.6758352390812ms" />
<rect x="263" y="68" width="10" height="10" class="count3" style="animation-delay: 1936.1775103150833ms" /><rect x="263.5" y="68.5" width="9" height="9" class="st" style="animation-delay: 1936.1775103150833ms" />
<rect x="263" y="81" width="10" height="10" class="count0" style="animation-delay: 1947.9334172404874ms" /><rect x="263.5" y="81.5" width="9" height="9" class="st" style="animation-delay: 1947.9334172404874ms" />
<rect x="276" y="3" width="10" height="10" class="count0" style="animation-delay: 1959.9580884740483ms" /><rect x="276.5" y="3.5" width="9" height="9" class="st" style="animation-delay: 1959.9580884740483ms" />
<rect x="276" y="16" width="10" height="10" class="count1" style="animation-delay: 1972.267433004395ms" /><rect x="276.5" y="16.5" width="9" height="9" class="st" style="animation-delay: 1972.267433004395ms" />
<rect x="276" y="29" width="10" height="10" class="count0" style="animation-delay: 1984.8789222619575ms" /><rect x="276.5" y="29.5" width="9" height="9" class="st" style="animation-delay: 1984.8789222619575ms" />
<rect x="276" y="42" width="10" height="10" class="count0" style="animation-delay: 1997.8118092152529ms" /><rect x="276.5" y="42.5" width="9" height="9" class="st" style="animation-delay: 1997.8118092152529ms" />
<rect x="276" y="55" width="10" height="10" class="count0" style="animation-delay: 2011.0873881314221ms" /><rect x="276.5" y="55.5" width="9" height="9" class="st" style="animation-delay: 2011.0873881314221ms" />
<rect x="276" y="68" width="10" height="10" class="count0" style="animation-delay: 2024.729304546956ms" /><rect x="276.5" y="68.5" width="9" height="9" class="st" style="animation-delay: 2024.729304546956ms" />
<rect x="276" y="81" width="10" height="10" class="count0" style="animation-delay: 2038.763927745451ms" /><rect x="276.5" y="81.5" width="9" height="9" class="st" style="animation-delay: 2038.763927745451ms" />
<rect x="289" y="3" width="10" height="10" class="count1" style="animation-delay: 2053.220801743127ms" /><rect x="289.5" y="3.5" width="9" height="9" class="st" style="animation-delay: 2053.220801743127ms" />
<rect x="289" y="16" width="10" height="10" class="count0" style="animation-delay: 2068.1331958308183ms" /><rect x="289.5" y="16.5" width="9" height="9" class="st" style="animation-delay: 2068.1331958308183ms" />
<rect x="289" y="29" width="10" height="10" class="count0" style="animation-delay: 2083.538782692005ms" /><rect x="289.5" y="29.5" width="9" height="9" class="st" style="animation-delay: 2083.538782692005ms" />
<rect x="289" y="42" width="10" height="10" class="count0" style="animation-delay: 2099.480481881886ms" /><rect x="289.5" y="42.5" width="9" height="9" class="st" style="animation-delay: 2099.480481881886ms" />
<rect x="289" y="55" width="10" height="10" class="count1" style="animation-delay: 2116.0075203490983ms" /><rect x="289.5" y="55.5" width="9" height="9" class="st" style="animation-delay: 2116.0075203490983ms" />
<rect x="289" y="68" width="10" height="10" class="count0" style="animation-delay: 2133.1767818014882ms" /><rect x="289.5" y="68.5" width="9" height="9" class="st" style="animation-delay: 2133.1767818014882ms" />
<rect x="289" y="81" width="10" height="10" class="count1" style="animation-delay: 2151.054546407305ms" /><rect x="289.5" y="81.5" width="9" height="9" class="st" style="animation-delay: 2151.054546407305ms" />
<rect x="302" y="3" width="10" height="10" class="count0" style="animation-delay: 2169.71876707243ms" /><rect x="302.5" y="3.5" width="9" height="9" class="st" style="animation-delay: 2169.71876707243ms" />
<rect x="302" y="16" width="10" height="10" class="count0" style="animation-delay: 2189.262097594161ms" /><rect x="302.5" y="16.5" width="9" height="9" class="st" style="animation-delay: 2189.262097594161ms" />
<rect x="302" y="29" width="10" height="10" class="count2" style="animation-delay: 2209.7959974412784ms" /><rect x="302.5" y="29.5" width="9" height="9" class="st" style="animation-delay: 2209.7959974412784ms" />
<rect x="302" y="42" width="10" height="10" class="count1" style="animation-delay: 2231.4564166779705ms" /><rect x="302.5" y="42.5" width="9" height="9" class="st" style="animation-delay: 2231.4564166779705ms" />
<rect x="302" y="55" width="10" height="10" class="count0" style="animation-delay: 2254.4118667813377ms" /><rect x="302.5" y="55.5" width="9" height="9" class="st" style="animation-delay: 2254.4118667813377ms" />
<rect x="302" y="68" width="10" height="10" class="count0" style="animation-delay: 2278.875214846296ms" /><rect x="302.5" y="68.5" width="9" height="9" class="st" style="animation-delay: 2278.875214846296ms" />
<rect x="302" y="81" width="10" height="10" class="count0" style="animation-delay: 2305.121518898331ms" /><rect x="302.5" y="81.5" width="9" height="9" class="st" style="animation-delay: 2305.121518898331ms" />
<rect x="315" y="3" width="10" height="10" class="count0" style="animation-delay: 2333.516131989787ms" /><rect x="315.5" y="3.5" width="9" height="9" class="st" style="animation-delay: 2333.516131989787ms" />
<rect x="315" y="16" width="10" height="10" class="count0" style="animation-delay: 2364.561282474395ms" /><rect x="315.5" y="16.5" width="9" height="9" class="st" style="animation-delay: 2364.561282474395ms" />
<rect x="315" y="29" width="10" height="10" class="count1" style="animation-delay: 2398.9783487931613ms" /><rect x="315.5" y="29.5" width="9" height="9" class="st" style="animation-delay: 2398.9783487931613ms" />
<rect x="315" y="42" width="10" height="10" class="count2" style="animation-delay: 2437.865734823527ms" /><rect x="315.5" y="42.5" width="9" height="9" class="st" style="animation-delay: 2437.865734823527ms" />
<rect x="315" y="55" width="10" height="10" class="count1" style="animation-delay: 2483.038061810797ms" /><rect x="315.5" y="55.5" width="9" height="9" class="st" style="animation-delay: 2483.038061810797ms" />
<rect x="315" y="68" width="10" height="10" class="count4" style="animation-delay: 2537.8858959422987ms" /><rect x="315.5" y="68.5" width="9" height="9" class="st" style="animation-delay: 2537.8858959422987ms" />
<rect x="315" y="81" width="10" height="10" class="count4" style="animation-delay: 2610.2378695410825ms" /><rect x="315.5" y="81.5" width="9" height="9" class="st" style="animation-delay: 2610.2378695410825ms" />
<rect x="328" y="3" width="10" height="10" class="count1" style="animation-delay: 2729.754032531388ms" /><rect x="328.5" y="3.5" width="9" height="9" class="st" style="animation-delay: 2729.754032531388ms" />
</svg>

  