

<svg height="94" width="367" xmlns="http://www.w3.org/2000/svg" fill='#4FA1A7'>
  <style>
  rect {
  rx: 2;
  ry: 2;
  animation: wow .5s backwards;
  }
  .st {
  
  stroke: rgba(27, 31, 35, 0.06);
  stroke-width: 1;
  fill: none;
  }
  @keyframes wow {
  from {opacity: 0;}
  to{ opacity: 1;}}
  .count0 {fill: #ebedf0}
.count1 {fill: #9be9a8}
.count2 {fill: #9be9a8}
.count3 {fill: #40c463}
.count4 {fill: #40c463}
.count5 {fill: #30a14e}
.count6 {fill: #30a14e}
.count7 {fill: #216e39}
.count8 {fill: #216e39}
  </style>
<rect x="3" y="68" width="10" height="10" class="count3" style="animation-delay: 262.7767544169644ms" /><rect x="3.5" y="68.5" width="9" height="9" class="st" style="animation-delay: 262.7767544169644ms" />
<rect x="3" y="81" width="10" height="10" class="count3" style="animation-delay: 378.9896611446424ms" /><rect x="3.5" y="81.5" width="9" height="9" class="st" style="animation-delay: 378.9896611446424ms" />
<rect x="16" y="3" width="10" height="10" class="count1" style="animation-delay: 449.34192939877875ms" /><rect x="16.5" y="3.5" width="9" height="9" class="st" style="animation-delay: 449.34192939877875ms" />
<rect x="16" y="16" width="10" height="10" class="count2" style="animation-delay: 502.6738476319335ms" /><rect x="16.5" y="16.5" width="9" height="9" class="st" style="animation-delay: 502.6738476319335ms" />
<rect x="16" y="29" width="10" height="10" class="count5" style="animation-delay: 546.5976759368108ms" /><rect x="16.5" y="29.5" width="9" height="9" class="st" style="animation-delay: 546.5976759368108ms" />
<rect x="16" y="42" width="10" height="10" class="count1" style="animation-delay: 584.4102700877514ms" /><rect x="16.5" y="42.5" width="9" height="9" class="st" style="animation-delay: 584.4102700877514ms" />
<rect x="16" y="55" width="10" height="10" class="count3" style="animation-delay: 617.8760977872873ms" /><rect x="16.5" y="55.5" width="9" height="9" class="st" style="animation-delay: 617.8760977872873ms" />
<rect x="16" y="68" width="10" height="10" class="count2" style="animation-delay: 648.0632045964904ms" /><rect x="16.5" y="68.5" width="9" height="9" class="st" style="animation-delay: 648.0632045964904ms" />
<rect x="16" y="81" width="10" height="10" class="count2" style="animation-delay: 675.6730310852608ms" /><rect x="16.5" y="81.5" width="9" height="9" class="st" style="animation-delay: 675.6730310852608ms" />
<rect x="29" y="3" width="10" height="10" class="count2" style="animation-delay: 701.1939247320296ms" /><rect x="29.5" y="3.5" width="9" height="9" class="st" style="animation-delay: 701.1939247320296ms" />
<rect x="29" y="16" width="10" height="10" class="count1" style="animation-delay: 724.9811407519277ms" /><rect x="29.5" y="16.5" width="9" height="9" class="st" style="animation-delay: 724.9811407519277ms" />
<rect x="29" y="29" width="10" height="10" class="count2" style="animation-delay: 747.3021349589692ms" /><rect x="29.5" y="29.5" width="9" height="9" class="st" style="animation-delay: 747.3021349589692ms" />
<rect x="29" y="42" width="10" height="10" class="count2" style="animation-delay: 768.3638911052102ms" /><rect x="29.5" y="42.5" width="9" height="9" class="st" style="animation-delay: 768.3638911052102ms" />
<rect x="29" y="55" width="10" height="10" class="count1" style="animation-delay: 788.3302632508934ms" /><rect x="29.5" y="55.5" width="9" height="9" class="st" style="animation-delay: 788.3302632508934ms" />
<rect x="29" y="68" width="10" height="10" class="count3" style="animation-delay: 807.3334439943577ms" /><rect x="29.5" y="68.5" width="9" height="9" class="st" style="animation-delay: 807.3334439943577ms" />
<rect x="29" y="81" width="10" height="10" class="count2" style="animation-delay: 825.4818122236567ms" /><rect x="29.5" y="81.5" width="9" height="9" class="st" style="animation-delay: 825.4818122236567ms" />
<rect x="42" y="3" width="10" height="10" class="count1" style="animation-delay: 842.865460917296ms" /><rect x="42.5" y="3.5" width="9" height="9" class="st" style="animation-delay: 842.865460917296ms" />
<rect x="42" y="16" width="10" height="10" class="count1" style="animation-delay: 859.5601884740332ms" /><rect x="42.5" y="16.5" width="9" height="9" class="st" style="animation-delay: 859.5601884740332ms" />
<rect x="42" y="29" width="10" height="10" class="count2" style="animation-delay: 875.6304431728113ms" /><rect x="42.5" y="29.5" width="9" height="9" class="st" style="animation-delay: 875.6304431728113ms" />
<rect x="42" y="42" width="10" height="10" class="count1" style="animation-delay: 891.1315365369334ms" /><rect x="42.5" y="42.5" width="9" height="9" class="st" style="animation-delay: 891.1315365369334ms" />
<rect x="42" y="55" width="10" height="10" class="count1" style="animation-delay: 906.1113349523956ms" /><rect x="42.5" y="55.5" width="9" height="9" class="st" style="animation-delay: 906.1113349523956ms" />
<rect x="42" y="68" width="10" height="10" class="count1" style="animation-delay: 920.6115717391118ms" /><rect x="42.5" y="68.5" width="9" height="9" class="st" style="animation-delay: 920.6115717391118ms" />
<rect x="42" y="81" width="10" height="10" class="count1" style="animation-delay: 934.6688783613304ms" /><rect x="42.5" y="81.5" width="9" height="9" class="st" style="animation-delay: 934.6688783613304ms" />
<rect x="55" y="3" width="10" height="10" class="count1" style="animation-delay: 948.3156045941423ms" /><rect x="55.5" y="3.5" width="9" height="9" class="st" style="animation-delay: 948.3156045941423ms" />
<rect x="55" y="16" width="10" height="10" class="count1" style="animation-delay: 961.5804778993022ms" /><rect x="55.5" y="16.5" width="9" height="9" class="st" style="animation-delay: 961.5804778993022ms" />
<rect x="55" y="29" width="10" height="10" class="count2" style="animation-delay: 974.4891387510218ms" /><rect x="55.5" y="29.5" width="9" height="9" class="st" style="animation-delay: 974.4891387510218ms" />
<rect x="55" y="42" width="10" height="10" class="count3" style="animation-delay: 987.0645791568928ms" /><rect x="55.5" y="42.5" width="9" height="9" class="st" style="animation-delay: 987.0645791568928ms" />
<rect x="55" y="55" width="10" height="10" class="count3" style="animation-delay: 999.327504840887ms" /><rect x="55.5" y="55.5" width="9" height="9" class="st" style="animation-delay: 999.327504840887ms" />
<rect x="55" y="68" width="10" height="10" class="count1" style="animation-delay: 1011.296636646935ms" /><rect x="55.5" y="68.5" width="9" height="9" class="st" style="animation-delay: 1011.296636646935ms" />
<rect x="55" y="81" width="10" height="10" class="count2" style="animation-delay: 1022.9889631200506ms" /><rect x="55.5" y="81.5" width="9" height="9" class="st" style="animation-delay: 1022.9889631200506ms" />
<rect x="68" y="3" width="10" height="10" class="count0" style="animation-delay: 1034.419953547112ms" /><rect x="68.5" y="3.5" width="9" height="9" class="st" style="animation-delay: 1034.419953547112ms" />
<rect x="68" y="16" width="10" height="10" class="count2" style="animation-delay: 1045.6037387304425ms" /><rect x="68.5" y="16.5" width="9" height="9" class="st" style="animation-delay: 1045.6037387304425ms" />
<rect x="68" y="29" width="10" height="10" class="count2" style="animation-delay: 1056.55326524272ms" /><rect x="68.5" y="29.5" width="9" height="9" class="st" style="animation-delay: 1056.55326524272ms" />
<rect x="68" y="42" width="10" height="10" class="count1" style="animation-delay: 1067.2804277435027ms" /><rect x="68.5" y="42.5" width="9" height="9" class="st" style="animation-delay: 1067.2804277435027ms" />
<rect x="68" y="55" width="10" height="10" class="count2" style="animation-delay: 1077.7961830343822ms" /><rect x="68.5" y="55.5" width="9" height="9" class="st" style="animation-delay: 1077.7961830343822ms" />
<rect x="68" y="68" width="10" height="10" class="count2" style="animation-delay: 1088.1106488254966ms" /><rect x="68.5" y="68.5" width="9" height="9" class="st" style="animation-delay: 1088.1106488254966ms" />
<rect x="68" y="81" width="10" height="10" class="count1" style="animation-delay: 1098.2331896326646ms" /><rect x="68.5" y="81.5" width="9" height="9" class="st" style="animation-delay: 1098.2331896326646ms" />
<rect x="81" y="3" width="10" height="10" class="count1" style="animation-delay: 1108.1724917862177ms" /><rect x="81.5" y="3.5" width="9" height="9" class="st" style="animation-delay: 1108.1724917862177ms" />
<rect x="81" y="16" width="10" height="10" class="count3" style="animation-delay: 1117.9366291832937ms" /><rect x="81.5" y="16.5" width="9" height="9" class="st" style="animation-delay: 1117.9366291832937ms" />
<rect x="81" y="29" width="10" height="10" class="count5" style="animation-delay: 1127.5331211350485ms" /><rect x="81.5" y="29.5" width="9" height="9" class="st" style="animation-delay: 1127.5331211350485ms" />
<rect x="81" y="42" width="10" height="10" class="count2" style="animation-delay: 1136.9689834339272ms" /><rect x="81.5" y="42.5" width="9" height="9" class="st" style="animation-delay: 1136.9689834339272ms" />
<rect x="81" y="55" width="10" height="10" class="count4" style="animation-delay: 1146.2507735823312ms" /><rect x="81.5" y="55.5" width="9" height="9" class="st" style="animation-delay: 1146.2507735823312ms" />
<rect x="81" y="68" width="10" height="10" class="count5" style="animation-delay: 1155.3846309739322ms" /><rect x="81.5" y="68.5" width="9" height="9" class="st" style="animation-delay: 1155.3846309739322ms" />
<rect x="81" y="81" width="10" height="10" class="count5" style="animation-delay: 1164.3763126956626ms" /><rect x="81.5" y="81.5" width="9" height="9" class="st" style="animation-delay: 1164.3763126956626ms" />
<rect x="94" y="3" width="10" height="10" class="count5" style="animation-delay: 1173.2312255167647ms" /><rect x="94.5" y="3.5" width="9" height="9" class="st" style="animation-delay: 1173.2312255167647ms" />
<rect x="94" y="16" width="10" height="10" class="count3" style="animation-delay: 1181.9544545470237ms" /><rect x="94.5" y="16.5" width="9" height="9" class="st" style="animation-delay: 1181.9544545470237ms" />
<rect x="94" y="29" width="10" height="10" class="count5" style="animation-delay: 1190.5507889761498ms" /><rect x="94.5" y="29.5" width="9" height="9" class="st" style="animation-delay: 1190.5507889761498ms" />
<rect x="94" y="42" width="10" height="10" class="count6" style="animation-delay: 1199.0247452476008ms" /><rect x="94.5" y="42.5" width="9" height="9" class="st" style="animation-delay: 1199.0247452476008ms" />
<rect x="94" y="55" width="10" height="10" class="count2" style="animation-delay: 1207.3805879708968ms" /><rect x="94.5" y="55.5" width="9" height="9" class="st" style="animation-delay: 1207.3805879708968ms" />
<rect x="94" y="68" width="10" height="10" class="count2" style="animation-delay: 1215.6223488349258ms" /><rect x="94.5" y="68.5" width="9" height="9" class="st" style="animation-delay: 1215.6223488349258ms" />
<rect x="94" y="81" width="10" height="10" class="count1" style="animation-delay: 1223.753843749637ms" /><rect x="94.5" y="81.5" width="9" height="9" class="st" style="animation-delay: 1223.753843749637ms" />
<rect x="107" y="3" width="10" height="10" class="count4" style="animation-delay: 1231.778688413666ms" /><rect x="107.5" y="3.5" width="9" height="9" class="st" style="animation-delay: 1231.778688413666ms" />
<rect x="107" y="16" width="10" height="10" class="count1" style="animation-delay: 1239.7003124800294ms" /><rect x="107.5" y="16.5" width="9" height="9" class="st" style="animation-delay: 1239.7003124800294ms" />
<rect x="107" y="29" width="10" height="10" class="count0" style="animation-delay: 1247.5219724702933ms" /><rect x="107.5" y="29.5" width="9" height="9" class="st" style="animation-delay: 1247.5219724702933ms" />
<rect x="107" y="42" width="10" height="10" class="count1" style="animation-delay: 1255.2467635689973ms" /><rect x="107.5" y="42.5" width="9" height="9" class="st" style="animation-delay: 1255.2467635689973ms" />
<rect x="107" y="55" width="10" height="10" class="count4" style="animation-delay: 1262.8776304140724ms" /><rect x="107.5" y="55.5" width="9" height="9" class="st" style="animation-delay: 1262.8776304140724ms" />
<rect x="107" y="68" width="10" height="10" class="count4" style="animation-delay: 1270.4173769851875ms" /><rect x="107.5" y="68.5" width="9" height="9" class="st" style="animation-delay: 1270.4173769851875ms" />
<rect x="107" y="81" width="10" height="10" class="count5" style="animation-delay: 1277.8686756799802ms" /><rect x="107.5" y="81.5" width="9" height="9" class="st" style="animation-delay: 1277.8686756799802ms" />
<rect x="120" y="3" width="10" height="10" class="count3" style="animation-delay: 1285.2340756577726ms" /><rect x="120.5" y="3.5" width="9" height="9" class="st" style="animation-delay: 1285.2340756577726ms" />
<rect x="120" y="16" width="10" height="10" class="count4" style="animation-delay: 1292.5160105213333ms" /><rect x="120.5" y="16.5" width="9" height="9" class="st" style="animation-delay: 1292.5160105213333ms" />
<rect x="120" y="29" width="10" height="10" class="count6" style="animation-delay: 1299.7168053993955ms" /><rect x="120.5" y="29.5" width="9" height="9" class="st" style="animation-delay: 1299.7168053993955ms" />
<rect x="120" y="42" width="10" height="10" class="count6" style="animation-delay: 1306.8386834857647ms" /><rect x="120.5" y="42.5" width="9" height="9" class="st" style="animation-delay: 1306.8386834857647ms" />
<rect x="120" y="55" width="10" height="10" class="count6" style="animation-delay: 1313.883772084822ms" /><rect x="120.5" y="55.5" width="9" height="9" class="st" style="animation-delay: 1313.883772084822ms" />
<rect x="120" y="68" width="10" height="10" class="count8" style="animation-delay: 1320.8541082079516ms" /><rect x="120.5" y="68.5" width="9" height="9" class="st" style="animation-delay: 1320.8541082079516ms" />
<rect x="120" y="81" width="10" height="10" class="count7" style="animation-delay: 1327.751643760762ms" /><rect x="120.5" y="81.5" width="9" height="9" class="st" style="animation-delay: 1327.751643760762ms" />
<rect x="133" y="3" width="10" height="10" class="count5" style="animation-delay: 1334.5782503568792ms" /><rect x="133.5" y="3.5" width="9" height="9" class="st" style="animation-delay: 1334.5782503568792ms" />
<rect x="133" y="16" width="10" height="10" class="count5" style="animation-delay: 1341.335723790455ms" /><rect x="133.5" y="16.5" width="9" height="9" class="st" style="animation-delay: 1341.335723790455ms" />
<rect x="133" y="29" width="10" height="10" class="count5" style="animation-delay: 1348.0257881963362ms" /><rect x="133.5" y="29.5" width="9" height="9" class="st" style="animation-delay: 1348.0257881963362ms" />
<rect x="133" y="42" width="10" height="10" class="count5" style="animation-delay: 1354.6500999239888ms" /><rect x="133.5" y="42.5" width="9" height="9" class="st" style="animation-delay: 1354.6500999239888ms" />
<rect x="133" y="55" width="10" height="10" class="count7" style="animation-delay: 1361.2102511487483ms" /><rect x="133.5" y="55.5" width="9" height="9" class="st" style="animation-delay: 1361.2102511487483ms" />
<rect x="133" y="68" width="10" height="10" class="count3" style="animation-delay: 1367.707773241712ms" /><rect x="133.5" y="68.5" width="9" height="9" class="st" style="animation-delay: 1367.707773241712ms" />
<rect x="133" y="81" width="10" height="10" class="count5" style="animation-delay: 1374.1441399175865ms" /><rect x="133.5" y="81.5" width="9" height="9" class="st" style="animation-delay: 1374.1441399175865ms" />
<rect x="146" y="3" width="10" height="10" class="count6" style="animation-delay: 1380.5207701780098ms" /><rect x="146.5" y="3.5" width="9" height="9" class="st" style="animation-delay: 1380.5207701780098ms" />
<rect x="146" y="16" width="10" height="10" class="count4" style="animation-delay: 1386.839031066261ms" /><rect x="146.5" y="16.5" width="9" height="9" class="st" style="animation-delay: 1386.839031066261ms" />
<rect x="146" y="29" width="10" height="10" class="count3" style="animation-delay: 1393.1002402478355ms" /><rect x="146.5" y="29.5" width="9" height="9" class="st" style="animation-delay: 1393.1002402478355ms" />
<rect x="146" y="42" width="10" height="10" class="count3" style="animation-delay: 1399.3056684300786ms" /><rect x="146.5" y="42.5" width="9" height="9" class="st" style="animation-delay: 1399.3056684300786ms" />
<rect x="146" y="55" width="10" height="10" class="count3" style="animation-delay: 1405.4565416328974ms" /><rect x="146.5" y="55.5" width="9" height="9" class="st" style="animation-delay: 1405.4565416328974ms" />
<rect x="146" y="68" width="10" height="10" class="count3" style="animation-delay: 1411.5540433215428ms" /><rect x="146.5" y="68.5" width="9" height="9" class="st" style="animation-delay: 1411.5540433215428ms" />
<rect x="146" y="81" width="10" height="10" class="count3" style="animation-delay: 1417.5993164115011ms" /><rect x="146.5" y="81.5" width="9" height="9" class="st" style="animation-delay: 1417.5993164115011ms" />
<rect x="159" y="3" width="10" height="10" class="count1" style="animation-delay: 1423.5934651546913ms" /><rect x="159.5" y="3.5" width="9" height="9" class="st" style="animation-delay: 1423.5934651546913ms" />
<rect x="159" y="16" width="10" height="10" class="count3" style="animation-delay: 1429.5375569153925ms" /><rect x="159.5" y="16.5" width="9" height="9" class="st" style="animation-delay: 1429.5375569153925ms" />
<rect x="159" y="29" width="10" height="10" class="count1" style="animation-delay: 1435.4326238436329ms" /><rect x="159.5" y="29.5" width="9" height="9" class="st" style="animation-delay: 1435.4326238436329ms" />
<rect x="159" y="42" width="10" height="10" class="count0" style="animation-delay: 1441.2796644531436ms" /><rect x="159.5" y="42.5" width="9" height="9" class="st" style="animation-delay: 1441.2796644531436ms" />
<rect x="159" y="55" width="10" height="10" class="count1" style="animation-delay: 1447.079645110404ms" /><rect x="159.5" y="55.5" width="9" height="9" class="st" style="animation-delay: 1447.079645110404ms" />
<rect x="159" y="68" width="10" height="10" class="count0" style="animation-delay: 1452.8335014407915ms" /><rect x="159.5" y="68.5" width="9" height="9" class="st" style="animation-delay: 1452.8335014407915ms" />
<rect x="159" y="81" width="10" height="10" class="count0" style="animation-delay: 1458.542139657369ms" /><rect x="159.5" y="81.5" width="9" height="9" class="st" style="animation-delay: 1458.542139657369ms" />
<rect x="172" y="3" width="10" height="10" class="count0" style="animation-delay: 1464.2064378174275ms" /><rect x="172.5" y="3.5" width="9" height="9" class="st" style="animation-delay: 1464.2064378174275ms" />
<rect x="172" y="16" width="10" height="10" class="count2" style="animation-delay: 1469.8272470114848ms" /><rect x="172.5" y="16.5" width="9" height="9" class="st" style="animation-delay: 1469.8272470114848ms" />
<rect x="172" y="29" width="10" height="10" class="count0" style="animation-delay: 1475.4053924891143ms" /><rect x="172.5" y="29.5" width="9" height="9" class="st" style="animation-delay: 1475.4053924891143ms" />
<rect x="172" y="42" width="10" height="10" class="count1" style="animation-delay: 1480.9416747256191ms" /><rect x="172.5" y="42.5" width="9" height="9" class="st" style="animation-delay: 1480.9416747256191ms" />
<rect x="172" y="55" width="10" height="10" class="count1" style="animation-delay: 1486.4368704332949ms" /><rect x="172.5" y="55.5" width="9" height="9" class="st" style="animation-delay: 1486.4368704332949ms" />
<rect x="172" y="68" width="10" height="10" class="count1" style="animation-delay: 1491.8917335207318ms" /><rect x="172.5" y="68.5" width="9" height="9" class="st" style="animation-delay: 1491.8917335207318ms" />
<rect x="172" y="81" width="10" height="10" class="count1" style="animation-delay: 1497.3069960033636ms" /><rect x="172.5" y="81.5" width="9" height="9" class="st" style="animation-delay: 1497.3069960033636ms" />
<rect x="185" y="3" width="10" height="10" class="count0" style="animation-delay: 1502.6930039966364ms" /><rect x="185.5" y="3.5" width="9" height="9" class="st" style="animation-delay: 1502.6930039966364ms" />
<rect x="185" y="16" width="10" height="10" class="count3" style="animation-delay: 1508.1082664792682ms" /><rect x="185.5" y="16.5" width="9" height="9" class="st" style="animation-delay: 1508.1082664792682ms" />
<rect x="185" y="29" width="10" height="10" class="count0" style="animation-delay: 1513.5631295667051ms" /><rect x="185.5" y="29.5" width="9" height="9" class="st" style="animation-delay: 1513.5631295667051ms" />
<rect x="185" y="42" width="10" height="10" class="count0" style="animation-delay: 1519.0583252743809ms" /><rect x="185.5" y="42.5" width="9" height="9" class="st" style="animation-delay: 1519.0583252743809ms" />
<rect x="185" y="55" width="10" height="10" class="count2" style="animation-delay: 1524.5946075108857ms" /><rect x="185.5" y="55.5" width="9" height="9" class="st" style="animation-delay: 1524.5946075108857ms" />
<rect x="185" y="68" width="10" height="10" class="count1" style="animation-delay: 1530.172752988515ms" /><rect x="185.5" y="68.5" width="9" height="9" class="st" style="animation-delay: 1530.172752988515ms" />
<rect x="185" y="81" width="10" height="10" class="count0" style="animation-delay: 1535.7935621825725ms" /><rect x="185.5" y="81.5" width="9" height="9" class="st" style="animation-delay: 1535.7935621825725ms" />
<rect x="198" y="3" width="10" height="10" class="count0" style="animation-delay: 1541.457860342631ms" /><rect x="198.5" y="3.5" width="9" height="9" class="st" style="animation-delay: 1541.457860342631ms" />
<rect x="198" y="16" width="10" height="10" class="count0" style="animation-delay: 1547.1664985592085ms" /><rect x="198.5" y="16.5" width="9" height="9" class="st" style="animation-delay: 1547.1664985592085ms" />
<rect x="198" y="29" width="10" height="10" class="count0" style="animation-delay: 1552.9203548895957ms" /><rect x="198.5" y="29.5" width="9" height="9" class="st" style="animation-delay: 1552.9203548895957ms" />
<rect x="198" y="42" width="10" height="10" class="count0" style="animation-delay: 1558.7203355468564ms" /><rect x="198.5" y="42.5" width="9" height="9" class="st" style="animation-delay: 1558.7203355468564ms" />
<rect x="198" y="55" width="10" height="10" class="count0" style="animation-delay: 1564.567376156367ms" /><rect x="198.5" y="55.5" width="9" height="9" class="st" style="animation-delay: 1564.567376156367ms" />
<rect x="198" y="68" width="10" height="10" class="count0" style="animation-delay: 1570.4624430846077ms" /><rect x="198.5" y="68.5" width="9" height="9" class="st" style="animation-delay: 1570.4624430846077ms" />
<rect x="198" y="81" width="10" height="10" class="count0" style="animation-delay: 1576.4065348453084ms" /><rect x="198.5" y="81.5" width="9" height="9" class="st" style="animation-delay: 1576.4065348453084ms" />
<rect x="211" y="3" width="10" height="10" class="count0" style="animation-delay: 1582.4006835884986ms" /><rect x="211.5" y="3.5" width="9" height="9" class="st" style="animation-delay: 1582.4006835884986ms" />
<rect x="211" y="16" width="10" height="10" class="count0" style="animation-delay: 1588.4459566784574ms" /><rect x="211.5" y="16.5" width="9" height="9" class="st" style="animation-delay: 1588.4459566784574ms" />
<rect x="211" y="29" width="10" height="10" class="count0" style="animation-delay: 1594.5434583671026ms" /><rect x="211.5" y="29.5" width="9" height="9" class="st" style="animation-delay: 1594.5434583671026ms" />
<rect x="211" y="42" width="10" height="10" class="count0" style="animation-delay: 1600.6943315699216ms" /><rect x="211.5" y="42.5" width="9" height="9" class="st" style="animation-delay: 1600.6943315699216ms" />
<rect x="211" y="55" width="10" height="10" class="count0" style="animation-delay: 1606.8997597521645ms" /><rect x="211.5" y="55.5" width="9" height="9" class="st" style="animation-delay: 1606.8997597521645ms" />
<rect x="211" y="68" width="10" height="10" class="count0" style="animation-delay: 1613.1609689337392ms" /><rect x="211.5" y="68.5" width="9" height="9" class="st" style="animation-delay: 1613.1609689337392ms" />
<rect x="211" y="81" width="10" height="10" class="count0" style="animation-delay: 1619.47922982199ms" /><rect x="211.5" y="81.5" width="9" height="9" class="st" style="animation-delay: 1619.47922982199ms" />
<rect x="224" y="3" width="10" height="10" class="count0" style="animation-delay: 1625.8558600824135ms" /><rect x="224.5" y="3.5" width="9" height="9" class="st" style="animation-delay: 1625.8558600824135ms" />
<rect x="224" y="16" width="10" height="10" class="count0" style="animation-delay: 1632.292226758288ms" /><rect x="224.5" y="16.5" width="9" height="9" class="st" style="animation-delay: 1632.292226758288ms" />
<rect x="224" y="29" width="10" height="10" class="count0" style="animation-delay: 1638.7897488512515ms" /><rect x="224.5" y="29.5" width="9" height="9" class="st" style="animation-delay: 1638.7897488512515ms" />
<rect x="224" y="42" width="10" height="10" class="count0" style="animation-delay: 1645.3499000760112ms" /><rect x="224.5" y="42.5" width="9" height="9" class="st" style="animation-delay: 1645.3499000760112ms" />
<rect x="224" y="55" width="10" height="10" class="count0" style="animation-delay: 1651.9742118036638ms" /><rect x="224.5" y="55.5" width="9" height="9" class="st" style="animation-delay: 1651.9742118036638ms" />
<rect x="224" y="68" width="10" height="10" class="count0" style="animation-delay: 1658.664276209545ms" /><rect x="224.5" y="68.5" width="9" height="9" class="st" style="animation-delay: 1658.664276209545ms" />
<rect x="224" y="81" width="10" height="10" class="count0" style="animation-delay: 1665.4217496431208ms" /><rect x="224.5" y="81.5" width="9" height="9" class="st" style="animation-delay: 1665.4217496431208ms" />
<rect x="237" y="3" width="10" height="10" class="count1" style="animation-delay: 1672.2483562392379ms" /><rect x="237.5" y="3.5" width="9" height="9" class="st" style="animation-delay: 1672.2483562392379ms" />
<rect x="237" y="16" width="10" height="10" class="count1" style="animation-delay: 1679.1458917920481ms" /><rect x="237.5" y="16.5" width="9" height="9" class="st" style="animation-delay: 1679.1458917920481ms" />
<rect x="237" y="29" width="10" height="10" class="count1" style="animation-delay: 1686.116227915178ms" /><rect x="237.5" y="29.5" width="9" height="9" class="st" style="animation-delay: 1686.116227915178ms" />
<rect x="237" y="42" width="10" height="10" class="count0" style="animation-delay: 1693.161316514235ms" /><rect x="237.5" y="42.5" width="9" height="9" class="st" style="animation-delay: 1693.161316514235ms" />
<rect x="237" y="55" width="10" height="10" class="count0" style="animation-delay: 1700.2831946006045ms" /><rect x="237.5" y="55.5" width="9" height="9" class="st" style="animation-delay: 1700.2831946006045ms" />
<rect x="237" y="68" width="10" height="10" class="count0" style="animation-delay: 1707.4839894786667ms" /><rect x="237.5" y="68.5" width="9" height="9" class="st" style="animation-delay: 1707.4839894786667ms" />
<rect x="237" y="81" width="10" height="10" class="count0" style="animation-delay: 1714.7659243422272ms" /><rect x="237.5" y="81.5" width="9" height="9" class="st" style="animation-delay: 1714.7659243422272ms" />
<rect x="250" y="3" width="10" height="10" class="count0" style="animation-delay: 1722.13132432002ms" /><rect x="250.5" y="3.5" width="9" height="9" class="st" style="animation-delay: 1722.13132432002ms" />
<rect x="250" y="16" width="10" height="10" class="count0" style="animation-delay: 1729.5826230148125ms" /><rect x="250.5" y="16.5" width="9" height="9" class="st" style="animation-delay: 1729.5826230148125ms" />
<rect x="250" y="29" width="10" height="10" class="count1" style="animation-delay: 1737.1223695859276ms" /><rect x="250.5" y="29.5" width="9" height="9" class="st" style="animation-delay: 1737.1223695859276ms" />
<rect x="250" y="42" width="10" height="10" class="count1" style="animation-delay: 1744.7532364310025ms" /><rect x="250.5" y="42.5" width="9" height="9" class="st" style="animation-delay: 1744.7532364310025ms" />
<rect x="250" y="55" width="10" height="10" class="count0" style="animation-delay: 1752.4780275297069ms" /><rect x="250.5" y="55.5" width="9" height="9" class="st" style="animation-delay: 1752.4780275297069ms" />
<rect x="250" y="68" width="10" height="10" class="count0" style="animation-delay: 1760.2996875199708ms" /><rect x="250.5" y="68.5" width="9" height="9" class="st" style="animation-delay: 1760.2996875199708ms" />
<rect x="250" y="81" width="10" height="10" class="count0" style="animation-delay: 1768.2213115863342ms" /><rect x="250.5" y="81.5" width="9" height="9" class="st" style="animation-delay: 1768.2213115863342ms" />
<rect x="263" y="3" width="10" height="10" class="count0" style="animation-delay: 1776.246156250363ms" /><rect x="263.5" y="3.5" width="9" height="9" class="st" style="animation-delay: 1776.246156250363ms" />
<rect x="263" y="16" width="10" height="10" class="count0" style="animation-delay: 1784.3776511650742ms" /><rect x="263.5" y="16.5" width="9" height="9" class="st" style="animation-delay: 1784.3776511650742ms" />
<rect x="263" y="29" width="10" height="10" class="count0" style="animation-delay: 1792.6194120291032ms" /><rect x="263.5" y="29.5" width="9" height="9" class="st" style="animation-delay: 1792.6194120291032ms" />
<rect x="263" y="42" width="10" height="10" class="count2" style="animation-delay: 1800.9752547523992ms" /><rect x="263.5" y="42.5" width="9" height="9" class="st" style="animation-delay: 1800.9752547523992ms" />
<rect x="263" y="55" width="10" height="10" class="count1" style="animation-delay: 1809.4492110238505ms" /><rect x="263.5" y="55.5" width="9" height="9" class="st" style="animation-delay: 1809.4492110238505ms" />
<rect x="263" y="68" width="10" height="10" class="count3" style="animation-delay: 1818.045545452976ms" /><rect x="263.5" y="68.5" width="9" height="9" class="st" style="animation-delay: 1818.045545452976ms" />
<rect x="263" y="81" width="10" height="10" class="count0" style="animation-delay: 1826.7687744832353ms" /><rect x="263.5" y="81.5" width="9" height="9" class="st" style="animation-delay: 1826.7687744832353ms" />
<rect x="276" y="3" width="10" height="10" class="count0" style="animation-delay: 1835.6236873043376ms" /><rect x="276.5" y="3.5" width="9" height="9" class="st" style="animation-delay: 1835.6236873043376ms" />
<rect x="276" y="16" width="10" height="10" class="count1" style="animation-delay: 1844.6153690260678ms" /><rect x="276.5" y="16.5" width="9" height="9" class="st" style="animation-delay: 1844.6153690260678ms" />
<rect x="276" y="29" width="10" height="10" class="count0" style="animation-delay: 1853.7492264176688ms" /><rect x="276.5" y="29.5" width="9" height="9" class="st" style="animation-delay: 1853.7492264176688ms" />
<rect x="276" y="42" width="10" height="10" class="count0" style="animation-delay: 1863.0310165660728ms" /><rect x="276.5" y="42.5" width="9" height="9" class="st" style="animation-delay: 1863.0310165660728ms" />
<rect x="276" y="55" width="10" height="10" class="count0" style="animation-delay: 1872.4668788649512ms" /><rect x="276.5" y="55.5" width="9" height="9" class="st" style="animation-delay: 1872.4668788649512ms" />
<rect x="276" y="68" width="10" height="10" class="count0" style="animation-delay: 1882.063370816706ms" /><rect x="276.5" y="68.5" width="9" height="9" class="st" style="animation-delay: 1882.063370816706ms" />
<rect x="276" y="81" width="10" height="10" class="count0" style="animation-delay: 1891.8275082137823ms" /><rect x="276.5" y="81.5" width="9" height="9" class="st" style="animation-delay: 1891.8275082137823ms" />
<rect x="289" y="3" width="10" height="10" class="count1" style="animation-delay: 1901.7668103673354ms" /><rect x="289.5" y="3.5" width="9" height="9" class="st" style="animation-delay: 1901.7668103673354ms" />
<rect x="289" y="16" width="10" height="10" class="count0" style="animation-delay: 1911.8893511745032ms" /><rect x="289.5" y="16.5" width="9" height="9" class="st" style="animation-delay: 1911.8893511745032ms" />
<rect x="289" y="29" width="10" height="10" class="count0" style="animation-delay: 1922.2038169656178ms" /><rect x="289.5" y="29.5" width="9" height="9" class="st" style="animation-delay: 1922.2038169656178ms" />
<rect x="289" y="42" width="10" height="10" class="count0" style="animation-delay: 1932.7195722564973ms" /><rect x="289.5" y="42.5" width="9" height="9" class="st" style="animation-delay: 1932.7195722564973ms" />
<rect x="289" y="55" width="10" height="10" class="count1" style="animation-delay: 1943.44673475728ms" /><rect x="289.5" y="55.5" width="9" height="9" class="st" style="animation-delay: 1943.44673475728ms" />
<rect x="289" y="68" width="10" height="10" class="count0" style="animation-delay: 1954.3962612695577ms" /><rect x="289.5" y="68.5" width="9" height="9" class="st" style="animation-delay: 1954.3962612695577ms" />
<rect x="289" y="81" width="10" height="10" class="count1" style="animation-delay: 1965.5800464528882ms" /><rect x="289.5" y="81.5" width="9" height="9" class="st" style="animation-delay: 1965.5800464528882ms" />
<rect x="302" y="3" width="10" height="10" class="count0" style="animation-delay: 1977.0110368799494ms" /><rect x="302.5" y="3.5" width="9" height="9" class="st" style="animation-delay: 1977.0110368799494ms" />
<rect x="302" y="16" width="10" height="10" class="count0" style="animation-delay: 1988.7033633530652ms" /><rect x="302.5" y="16.5" width="9" height="9" class="st" style="animation-delay: 1988.7033633530652ms" />
<rect x="302" y="29" width="10" height="10" class="count2" style="animation-delay: 2000.6724951591132ms" /><rect x="302.5" y="29.5" width="9" height="9" class="st" style="animation-delay: 2000.6724951591132ms" />
<rect x="302" y="42" width="10" height="10" class="count1" style="animation-delay: 2012.9354208431073ms" /><rect x="302.5" y="42.5" width="9" height="9" class="st" style="animation-delay: 2012.9354208431073ms" />
<rect x="302" y="55" width="10" height="10" class="count0" style="animation-delay: 2025.5108612489782ms" /><rect x="302.5" y="55.5" width="9" height="9" class="st" style="animation-delay: 2025.5108612489782ms" />
<rect x="302" y="68" width="10" height="10" class="count0" style="animation-delay: 2038.419522100698ms" /><rect x="302.5" y="68.5" width="9" height="9" class="st" style="animation-delay: 2038.419522100698ms" />
<rect x="302" y="81" width="10" height="10" class="count0" style="animation-delay: 2051.6843954058577ms" /><rect x="302.5" y="81.5" width="9" height="9" class="st" style="animation-delay: 2051.6843954058577ms" />
<rect x="315" y="3" width="10" height="10" class="count0" style="animation-delay: 2065.3311216386696ms" /><rect x="315.5" y="3.5" width="9" height="9" class="st" style="animation-delay: 2065.3311216386696ms" />
<rect x="315" y="16" width="10" height="10" class="count0" style="animation-delay: 2079.3884282608883ms" /><rect x="315.5" y="16.5" width="9" height="9" class="st" style="animation-delay: 2079.3884282608883ms" />
<rect x="315" y="29" width="10" height="10" class="count1" style="animation-delay: 2093.8886650476047ms" /><rect x="315.5" y="29.5" width="9" height="9" class="st" style="animation-delay: 2093.8886650476047ms" />
<rect x="315" y="42" width="10" height="10" class="count2" style="animation-delay: 2108.8684634630667ms" /><rect x="315.5" y="42.5" width="9" height="9" class="st" style="animation-delay: 2108.8684634630667ms" />
<rect x="315" y="55" width="10" height="10" class="count1" style="animation-delay: 2124.3695568271887ms" /><rect x="315.5" y="55.5" width="9" height="9" class="st" style="animation-delay: 2124.3695568271887ms" />
<rect x="315" y="68" width="10" height="10" class="count4" style="animation-delay: 2140.4398115259664ms" /><rect x="315.5" y="68.5" width="9" height="9" class="st" style="animation-delay: 2140.4398115259664ms" />
<rect x="315" y="81" width="10" height="10" class="count4" style="animation-delay: 2157.134539082704ms" /><rect x="315.5" y="81.5" width="9" height="9" class="st" style="animation-delay: 2157.134539082704ms" />
<rect x="328" y="3" width="10" height="10" class="count1" style="animation-delay: 2174.5181877763434ms" /><rect x="328.5" y="3.5" width="9" height="9" class="st" style="animation-delay: 2174.5181877763434ms" />
<rect x="328" y="16" width="10" height="10" class="count2" style="animation-delay: 2192.6665560056426ms" /><rect x="328.5" y="16.5" width="9" height="9" class="st" style="animation-delay: 2192.6665560056426ms" />
<rect x="328" y="29" width="10" height="10" class="count1" style="animation-delay: 2211.669736749106ms" /><rect x="328.5" y="29.5" width="9" height="9" class="st" style="animation-delay: 2211.669736749106ms" />
<rect x="328" y="42" width="10" height="10" class="count2" style="animation-delay: 2231.6361088947897ms" /><rect x="328.5" y="42.5" width="9" height="9" class="st" style="animation-delay: 2231.6361088947897ms" />
<rect x="328" y="55" width="10" height="10" class="count0" style="animation-delay: 2252.697865041031ms" /><rect x="328.5" y="55.5" width="9" height="9" class="st" style="animation-delay: 2252.697865041031ms" />
<rect x="328" y="68" width="10" height="10" class="count0" style="animation-delay: 2275.0188592480727ms" /><rect x="328.5" y="68.5" width="9" height="9" class="st" style="animation-delay: 2275.0188592480727ms" />
<rect x="328" y="81" width="10" height="10" class="count2" style="animation-delay: 2298.8060752679708ms" /><rect x="328.5" y="81.5" width="9" height="9" class="st" style="animation-delay: 2298.8060752679708ms" />
<rect x="341" y="3" width="10" height="10" class="count2" style="animation-delay: 2324.326968914739ms" /><rect x="341.5" y="3.5" width="9" height="9" class="st" style="animation-delay: 2324.326968914739ms" />
<rect x="341" y="16" width="10" height="10" class="count1" style="animation-delay: 2351.9367954035097ms" /><rect x="341.5" y="16.5" width="9" height="9" class="st" style="animation-delay: 2351.9367954035097ms" />
<rect x="341" y="29" width="10" height="10" class="count0" style="animation-delay: 2382.123902212713ms" /><rect x="341.5" y="29.5" width="9" height="9" class="st" style="animation-delay: 2382.123902212713ms" />
<rect x="341" y="42" width="10" height="10" class="count0" style="animation-delay: 2415.589729912249ms" /><rect x="341.5" y="42.5" width="9" height="9" class="st" style="animation-delay: 2415.589729912249ms" />
<rect x="341" y="55" width="10" height="10" class="count2" style="animation-delay: 2453.4023240631896ms" /><rect x="341.5" y="55.5" width="9" height="9" class="st" style="animation-delay: 2453.4023240631896ms" />
<rect x="341" y="68" width="10" height="10" class="count0" style="animation-delay: 2497.3261523680667ms" /><rect x="341.5" y="68.5" width="9" height="9" class="st" style="animation-delay: 2497.3261523680667ms" />
<rect x="341" y="81" width="10" height="10" class="count0" style="animation-delay: 2550.6580706012214ms" /><rect x="341.5" y="81.5" width="9" height="9" class="st" style="animation-delay: 2550.6580706012214ms" />
<rect x="354" y="3" width="10" height="10" class="count1" style="animation-delay: 2621.0103388553575ms" /><rect x="354.5" y="3.5" width="9" height="9" class="st" style="animation-delay: 2621.0103388553575ms" />
<rect x="354" y="16" width="10" height="10" class="count1" style="animation-delay: 2737.223245583036ms" /><rect x="354.5" y="16.5" width="9" height="9" class="st" style="animation-delay: 2737.223245583036ms" />
</svg>

  