

<svg height="94" width="133" xmlns="http://www.w3.org/2000/svg" fill='#4FA1A7'>
  <style>
  rect {
  rx: 2;
  ry: 2;
  animation: wow .5s backwards;
  }
  .st {
  
  stroke: rgba(27, 31, 35, 0.06);
  stroke-width: 1;
  fill: none;
  }
  @keyframes wow {
  from {opacity: 0;}
  to{ opacity: 1;}}
  .count0 {fill: #ebedf0}
.count1 {fill: #9be9a8}
.count2 {fill: #40c463}
.count3 {fill: #40c463}
.count4 {fill: #30a14e}
.count5 {fill: #216e39}
.count6 {fill: #216e39}
  </style>
<rect x="3" y="29" width="10" height="10" class="count3" style="animation-delay: 375ms" /><rect x="3.5" y="29.5" width="9" height="9" class="st" style="animation-delay: 375ms" />
<rect x="3" y="42" width="10" height="10" class="count3" style="animation-delay: 540.8435888652781ms" /><rect x="3.5" y="42.5" width="9" height="9" class="st" style="animation-delay: 540.8435888652781ms" />
<rect x="3" y="55" width="10" height="10" class="count1" style="animation-delay: 641.2409800037614ms" /><rect x="3.5" y="55.5" width="9" height="9" class="st" style="animation-delay: 641.2409800037614ms" />
<rect x="3" y="68" width="10" height="10" class="count2" style="animation-delay: 717.349193539646ms" /><rect x="3.5" y="68.5" width="9" height="9" class="st" style="animation-delay: 717.349193539646ms" />
<rect x="3" y="81" width="10" height="10" class="count5" style="animation-delay: 780.0314336444641ms" /><rect x="3.5" y="81.5" width="9" height="9" class="st" style="animation-delay: 780.0314336444641ms" />
<rect x="16" y="3" width="10" height="10" class="count1" style="animation-delay: 833.9925339634934ms" /><rect x="16.5" y="3.5" width="9" height="9" class="st" style="animation-delay: 833.9925339634934ms" />
<rect x="16" y="16" width="10" height="10" class="count3" style="animation-delay: 881.7505078952839ms" /><rect x="16.5" y="16.5" width="9" height="9" class="st" style="animation-delay: 881.7505078952839ms" />
<rect x="16" y="29" width="10" height="10" class="count2" style="animation-delay: 924.8295278739262ms" /><rect x="16.5" y="29.5" width="9" height="9" class="st" style="animation-delay: 924.8295278739262ms" />
<rect x="16" y="42" width="10" height="10" class="count2" style="animation-delay: 964.2305964968382ms" /><rect x="16.5" y="42.5" width="9" height="9" class="st" style="animation-delay: 964.2305964968382ms" />
<rect x="16" y="55" width="10" height="10" class="count2" style="animation-delay: 1000.6506182707293ms" /><rect x="16.5" y="55.5" width="9" height="9" class="st" style="animation-delay: 1000.6506182707293ms" />
<rect x="16" y="68" width="10" height="10" class="count1" style="animation-delay: 1034.5965661429202ms" /><rect x="16.5" y="68.5" width="9" height="9" class="st" style="animation-delay: 1034.5965661429202ms" />
<rect x="16" y="81" width="10" height="10" class="count2" style="animation-delay: 1066.4501174443371ms" /><rect x="16.5" y="81.5" width="9" height="9" class="st" style="animation-delay: 1066.4501174443371ms" />
<rect x="29" y="3" width="10" height="10" class="count2" style="animation-delay: 1096.5066518298247ms" /><rect x="29.5" y="3.5" width="9" height="9" class="st" style="animation-delay: 1096.5066518298247ms" />
<rect x="29" y="16" width="10" height="10" class="count1" style="animation-delay: 1125ms" /><rect x="29.5" y="16.5" width="9" height="9" class="st" style="animation-delay: 1125ms" />
<rect x="29" y="29" width="10" height="10" class="count3" style="animation-delay: 1152.1188096321928ms" /><rect x="29.5" y="29.5" width="9" height="9" class="st" style="animation-delay: 1152.1188096321928ms" />
<rect x="29" y="42" width="10" height="10" class="count2" style="animation-delay: 1178.0177446467724ms" /><rect x="29.5" y="42.5" width="9" height="9" class="st" style="animation-delay: 1178.0177446467724ms" />
<rect x="29" y="55" width="10" height="10" class="count1" style="animation-delay: 1202.825373748435ms" /><rect x="29.5" y="55.5" width="9" height="9" class="st" style="animation-delay: 1202.825373748435ms" />
<rect x="29" y="68" width="10" height="10" class="count1" style="animation-delay: 1226.6498663207212ms" /><rect x="29.5" y="68.5" width="9" height="9" class="st" style="animation-delay: 1226.6498663207212ms" />
<rect x="29" y="81" width="10" height="10" class="count2" style="animation-delay: 1249.5831943672326ms" /><rect x="29.5" y="81.5" width="9" height="9" class="st" style="animation-delay: 1249.5831943672326ms" />
<rect x="42" y="3" width="10" height="10" class="count1" style="animation-delay: 1271.7042911303126ms" /><rect x="42.5" y="3.5" width="9" height="9" class="st" style="animation-delay: 1271.7042911303126ms" />
<rect x="42" y="16" width="10" height="10" class="count1" style="animation-delay: 1293.081465143524ms" /><rect x="42.5" y="16.5" width="9" height="9" class="st" style="animation-delay: 1293.081465143524ms" />
<rect x="42" y="29" width="10" height="10" class="count1" style="animation-delay: 1313.7742726450217ms" /><rect x="42.5" y="29.5" width="9" height="9" class="st" style="animation-delay: 1313.7742726450217ms" />
<rect x="42" y="42" width="10" height="10" class="count1" style="animation-delay: 1333.8349891837734ms" /><rect x="42.5" y="42.5" width="9" height="9" class="st" style="animation-delay: 1333.8349891837734ms" />
<rect x="42" y="55" width="10" height="10" class="count1" style="animation-delay: 1353.3097800520106ms" /><rect x="42.5" y="55.5" width="9" height="9" class="st" style="animation-delay: 1353.3097800520106ms" />
<rect x="42" y="68" width="10" height="10" class="count1" style="animation-delay: 1372.2396412586143ms" /><rect x="42.5" y="68.5" width="9" height="9" class="st" style="animation-delay: 1372.2396412586143ms" />
<rect x="42" y="81" width="10" height="10" class="count2" style="animation-delay: 1390.661163474821ms" /><rect x="42.5" y="81.5" width="9" height="9" class="st" style="animation-delay: 1390.661163474821ms" />
<rect x="55" y="3" width="10" height="10" class="count3" style="animation-delay: 1408.607157832902ms" /><rect x="55.5" y="3.5" width="9" height="9" class="st" style="animation-delay: 1408.607157832902ms" />
<rect x="55" y="16" width="10" height="10" class="count3" style="animation-delay: 1426.107172785522ms" /><rect x="55.5" y="16.5" width="9" height="9" class="st" style="animation-delay: 1426.107172785522ms" />
<rect x="55" y="29" width="10" height="10" class="count1" style="animation-delay: 1443.1879242288019ms" /><rect x="55.5" y="29.5" width="9" height="9" class="st" style="animation-delay: 1443.1879242288019ms" />
<rect x="55" y="42" width="10" height="10" class="count2" style="animation-delay: 1459.8736559524727ms" /><rect x="55.5" y="42.5" width="9" height="9" class="st" style="animation-delay: 1459.8736559524727ms" />
<rect x="55" y="55" width="10" height="10" class="count0" style="animation-delay: 1476.186443663315ms" /><rect x="55.5" y="55.5" width="9" height="9" class="st" style="animation-delay: 1476.186443663315ms" />
<rect x="55" y="68" width="10" height="10" class="count2" style="animation-delay: 1492.146452961147ms" /><rect x="55.5" y="68.5" width="9" height="9" class="st" style="animation-delay: 1492.146452961147ms" />
<rect x="55" y="81" width="10" height="10" class="count2" style="animation-delay: 1507.853547038853ms" /><rect x="55.5" y="81.5" width="9" height="9" class="st" style="animation-delay: 1507.853547038853ms" />
<rect x="68" y="3" width="10" height="10" class="count1" style="animation-delay: 1523.8135563366852ms" /><rect x="68.5" y="3.5" width="9" height="9" class="st" style="animation-delay: 1523.8135563366852ms" />
<rect x="68" y="16" width="10" height="10" class="count2" style="animation-delay: 1540.1263440475273ms" /><rect x="68.5" y="16.5" width="9" height="9" class="st" style="animation-delay: 1540.1263440475273ms" />
<rect x="68" y="29" width="10" height="10" class="count2" style="animation-delay: 1556.8120757711981ms" /><rect x="68.5" y="29.5" width="9" height="9" class="st" style="animation-delay: 1556.8120757711981ms" />
<rect x="68" y="42" width="10" height="10" class="count1" style="animation-delay: 1573.8928272144783ms" /><rect x="68.5" y="42.5" width="9" height="9" class="st" style="animation-delay: 1573.8928272144783ms" />
<rect x="68" y="55" width="10" height="10" class="count1" style="animation-delay: 1591.3928421670983ms" /><rect x="68.5" y="55.5" width="9" height="9" class="st" style="animation-delay: 1591.3928421670983ms" />
<rect x="68" y="68" width="10" height="10" class="count3" style="animation-delay: 1609.338836525179ms" /><rect x="68.5" y="68.5" width="9" height="9" class="st" style="animation-delay: 1609.338836525179ms" />
<rect x="68" y="81" width="10" height="10" class="count5" style="animation-delay: 1627.7603587413855ms" /><rect x="68.5" y="81.5" width="9" height="9" class="st" style="animation-delay: 1627.7603587413855ms" />
<rect x="81" y="3" width="10" height="10" class="count2" style="animation-delay: 1646.6902199479896ms" /><rect x="81.5" y="3.5" width="9" height="9" class="st" style="animation-delay: 1646.6902199479896ms" />
<rect x="81" y="16" width="10" height="10" class="count4" style="animation-delay: 1666.1650108162266ms" /><rect x="81.5" y="16.5" width="9" height="9" class="st" style="animation-delay: 1666.1650108162266ms" />
<rect x="81" y="29" width="10" height="10" class="count5" style="animation-delay: 1686.2257273549785ms" /><rect x="81.5" y="29.5" width="9" height="9" class="st" style="animation-delay: 1686.2257273549785ms" />
<rect x="81" y="42" width="10" height="10" class="count5" style="animation-delay: 1706.918534856476ms" /><rect x="81.5" y="42.5" width="9" height="9" class="st" style="animation-delay: 1706.918534856476ms" />
<rect x="81" y="55" width="10" height="10" class="count5" style="animation-delay: 1728.2957088696874ms" /><rect x="81.5" y="55.5" width="9" height="9" class="st" style="animation-delay: 1728.2957088696874ms" />
<rect x="81" y="68" width="10" height="10" class="count3" style="animation-delay: 1750.4168056327674ms" /><rect x="81.5" y="68.5" width="9" height="9" class="st" style="animation-delay: 1750.4168056327674ms" />
<rect x="81" y="81" width="10" height="10" class="count5" style="animation-delay: 1773.3501336792788ms" /><rect x="81.5" y="81.5" width="9" height="9" class="st" style="animation-delay: 1773.3501336792788ms" />
<rect x="94" y="3" width="10" height="10" class="count6" style="animation-delay: 1797.1746262515649ms" /><rect x="94.5" y="3.5" width="9" height="9" class="st" style="animation-delay: 1797.1746262515649ms" />
<rect x="94" y="16" width="10" height="10" class="count2" style="animation-delay: 1821.9822553532279ms" /><rect x="94.5" y="16.5" width="9" height="9" class="st" style="animation-delay: 1821.9822553532279ms" />
<rect x="94" y="29" width="10" height="10" class="count2" style="animation-delay: 1847.8811903678072ms" /><rect x="94.5" y="29.5" width="9" height="9" class="st" style="animation-delay: 1847.8811903678072ms" />
<rect x="94" y="42" width="10" height="10" class="count1" style="animation-delay: 1875ms" /><rect x="94.5" y="42.5" width="9" height="9" class="st" style="animation-delay: 1875ms" />
<rect x="94" y="55" width="10" height="10" class="count4" style="animation-delay: 1903.4933481701753ms" /><rect x="94.5" y="55.5" width="9" height="9" class="st" style="animation-delay: 1903.4933481701753ms" />
<rect x="94" y="68" width="10" height="10" class="count1" style="animation-delay: 1933.5498825556629ms" /><rect x="94.5" y="68.5" width="9" height="9" class="st" style="animation-delay: 1933.5498825556629ms" />
<rect x="94" y="81" width="10" height="10" class="count0" style="animation-delay: 1965.4034338570798ms" /><rect x="94.5" y="81.5" width="9" height="9" class="st" style="animation-delay: 1965.4034338570798ms" />
<rect x="107" y="3" width="10" height="10" class="count1" style="animation-delay: 1999.3493817292706ms" /><rect x="107.5" y="3.5" width="9" height="9" class="st" style="animation-delay: 1999.3493817292706ms" />
<rect x="107" y="16" width="10" height="10" class="count4" style="animation-delay: 2035.7694035031618ms" /><rect x="107.5" y="16.5" width="9" height="9" class="st" style="animation-delay: 2035.7694035031618ms" />
<rect x="107" y="29" width="10" height="10" class="count4" style="animation-delay: 2075.170472126074ms" /><rect x="107.5" y="29.5" width="9" height="9" class="st" style="animation-delay: 2075.170472126074ms" />
<rect x="107" y="42" width="10" height="10" class="count5" style="animation-delay: 2118.249492104716ms" /><rect x="107.5" y="42.5" width="9" height="9" class="st" style="animation-delay: 2118.249492104716ms" />
<rect x="107" y="55" width="10" height="10" class="count3" style="animation-delay: 2166.0074660365067ms" /><rect x="107.5" y="55.5" width="9" height="9" class="st" style="animation-delay: 2166.0074660365067ms" />
<rect x="107" y="68" width="10" height="10" class="count4" style="animation-delay: 2219.968566355536ms" /><rect x="107.5" y="68.5" width="9" height="9" class="st" style="animation-delay: 2219.968566355536ms" />
<rect x="107" y="81" width="10" height="10" class="count6" style="animation-delay: 2282.650806460354ms" /><rect x="107.5" y="81.5" width="9" height="9" class="st" style="animation-delay: 2282.650806460354ms" />
<rect x="120" y="3" width="10" height="10" class="count6" style="animation-delay: 2358.7590199962387ms" /><rect x="120.5" y="3.5" width="9" height="9" class="st" style="animation-delay: 2358.7590199962387ms" />
<rect x="120" y="16" width="10" height="10" class="count6" style="animation-delay: 2459.1564111347216ms" /><rect x="120.5" y="16.5" width="9" height="9" class="st" style="animation-delay: 2459.1564111347216ms" />
<rect x="120" y="29" width="10" height="10" class="count3" style="animation-delay: 2625ms" /><rect x="120.5" y="29.5" width="9" height="9" class="st" style="animation-delay: 2625ms" />
</svg>

  