

<svg height="94" width="185" xmlns="http://www.w3.org/2000/svg" fill='#4FA1A7'>
  <style>
  rect {
  rx: 2;
  ry: 2;
  animation: wow .5s backwards;
  }
  .st {
  
  stroke: rgba(27, 31, 35, 0.06);
  stroke-width: 1;
  fill: none;
  }
  @keyframes wow {
  from {opacity: 0;}
  to{ opacity: 1;}}
  .count0 {fill: #ebedf0}
.count1 {fill: #9be9a8}
.count2 {fill: #9be9a8}
.count3 {fill: #40c463}
.count4 {fill: #40c463}
.count5 {fill: #30a14e}
.count6 {fill: #30a14e}
.count7 {fill: #216e39}
.count8 {fill: #216e39}
  </style>
<rect x="3" y="68" width="10" height="10" class="count3" style="animation-delay: 334.7164750410848ms" /><rect x="3.5" y="68.5" width="9" height="9" class="st" style="animation-delay: 334.7164750410848ms" />
<rect x="3" y="81" width="10" height="10" class="count3" style="animation-delay: 482.7446923028149ms" /><rect x="3.5" y="81.5" width="9" height="9" class="st" style="animation-delay: 482.7446923028149ms" />
<rect x="16" y="3" width="10" height="10" class="count1" style="animation-delay: 572.3571212766659ms" /><rect x="16.5" y="3.5" width="9" height="9" class="st" style="animation-delay: 572.3571212766659ms" />
<rect x="16" y="16" width="10" height="10" class="count2" style="animation-delay: 640.2895824937472ms" /><rect x="16.5" y="16.5" width="9" height="9" class="st" style="animation-delay: 640.2895824937472ms" />
<rect x="16" y="29" width="10" height="10" class="count5" style="animation-delay: 696.2383250419168ms" /><rect x="16.5" y="29.5" width="9" height="9" class="st" style="animation-delay: 696.2383250419168ms" />
<rect x="16" y="42" width="10" height="10" class="count1" style="animation-delay: 744.4027764769138ms" /><rect x="16.5" y="42.5" width="9" height="9" class="st" style="animation-delay: 744.4027764769138ms" />
<rect x="16" y="55" width="10" height="10" class="count3" style="animation-delay: 787.0304583157216ms" /><rect x="16.5" y="55.5" width="9" height="9" class="st" style="animation-delay: 787.0304583157216ms" />
<rect x="16" y="68" width="10" height="10" class="count2" style="animation-delay: 825.4818122236567ms" /><rect x="16.5" y="68.5" width="9" height="9" class="st" style="animation-delay: 825.4818122236567ms" />
<rect x="16" y="81" width="10" height="10" class="count2" style="animation-delay: 860.6503103631579ms" /><rect x="16.5" y="81.5" width="9" height="9" class="st" style="animation-delay: 860.6503103631579ms" />
<rect x="29" y="3" width="10" height="10" class="count2" style="animation-delay: 893.1579938540283ms" /><rect x="29.5" y="3.5" width="9" height="9" class="st" style="animation-delay: 893.1579938540283ms" />
<rect x="29" y="16" width="10" height="10" class="count1" style="animation-delay: 923.4573752239168ms" /><rect x="29.5" y="16.5" width="9" height="9" class="st" style="animation-delay: 923.4573752239168ms" />
<rect x="29" y="29" width="10" height="10" class="count2" style="animation-delay: 951.8891309816515ms" /><rect x="29.5" y="29.5" width="9" height="9" class="st" style="animation-delay: 951.8891309816515ms" />
<rect x="29" y="42" width="10" height="10" class="count2" style="animation-delay: 978.716910292216ms" /><rect x="29.5" y="42.5" width="9" height="9" class="st" style="animation-delay: 978.716910292216ms" />
<rect x="29" y="55" width="10" height="10" class="count1" style="animation-delay: 1004.1494251232543ms" /><rect x="29.5" y="55.5" width="9" height="9" class="st" style="animation-delay: 1004.1494251232543ms" />
<rect x="29" y="68" width="10" height="10" class="count3" style="animation-delay: 1028.3550581029815ms" /><rect x="29.5" y="68.5" width="9" height="9" class="st" style="animation-delay: 1028.3550581029815ms" />
<rect x="29" y="81" width="10" height="10" class="count2" style="animation-delay: 1051.4718587307102ms" /><rect x="29.5" y="81.5" width="9" height="9" class="st" style="animation-delay: 1051.4718587307102ms" />
<rect x="42" y="3" width="10" height="10" class="count1" style="animation-delay: 1073.6145845094707ms" /><rect x="42.5" y="3.5" width="9" height="9" class="st" style="animation-delay: 1073.6145845094707ms" />
<rect x="42" y="16" width="10" height="10" class="count1" style="animation-delay: 1094.8797849719724ms" /><rect x="42.5" y="16.5" width="9" height="9" class="st" style="animation-delay: 1094.8797849719724ms" />
<rect x="42" y="29" width="10" height="10" class="count2" style="animation-delay: 1115.3495522378098ms" /><rect x="42.5" y="29.5" width="9" height="9" class="st" style="animation-delay: 1115.3495522378098ms" />
<rect x="42" y="42" width="10" height="10" class="count1" style="animation-delay: 1135.0943403246924ms" /><rect x="42.5" y="42.5" width="9" height="9" class="st" style="animation-delay: 1135.0943403246924ms" />
<rect x="42" y="55" width="10" height="10" class="count1" style="animation-delay: 1154.1751198768043ms" /><rect x="42.5" y="55.5" width="9" height="9" class="st" style="animation-delay: 1154.1751198768043ms" />
<rect x="42" y="68" width="10" height="10" class="count1" style="animation-delay: 1172.6450494384178ms" /><rect x="42.5" y="68.5" width="9" height="9" class="st" style="animation-delay: 1172.6450494384178ms" />
<rect x="42" y="81" width="10" height="10" class="count1" style="animation-delay: 1190.5507889761498ms" /><rect x="42.5" y="81.5" width="9" height="9" class="st" style="animation-delay: 1190.5507889761498ms" />
<rect x="55" y="3" width="10" height="10" class="count1" style="animation-delay: 1207.933544580359ms" /><rect x="55.5" y="3.5" width="9" height="9" class="st" style="animation-delay: 1207.933544580359ms" />
<rect x="55" y="16" width="10" height="10" class="count1" style="animation-delay: 1224.8299083566028ms" /><rect x="55.5" y="16.5" width="9" height="9" class="st" style="animation-delay: 1224.8299083566028ms" />
<rect x="55" y="29" width="10" height="10" class="count2" style="animation-delay: 1241.2725403062022ms" /><rect x="55.5" y="29.5" width="9" height="9" class="st" style="animation-delay: 1241.2725403062022ms" />
<rect x="55" y="42" width="10" height="10" class="count3" style="animation-delay: 1257.2907268999197ms" /><rect x="55.5" y="42.5" width="9" height="9" class="st" style="animation-delay: 1257.2907268999197ms" />
<rect x="55" y="55" width="10" height="10" class="count3" style="animation-delay: 1272.9108424148724ms" /><rect x="55.5" y="55.5" width="9" height="9" class="st" style="animation-delay: 1272.9108424148724ms" />
<rect x="55" y="68" width="10" height="10" class="count1" style="animation-delay: 1288.1567328525991ms" /><rect x="55.5" y="68.5" width="9" height="9" class="st" style="animation-delay: 1288.1567328525991ms" />
<rect x="55" y="81" width="10" height="10" class="count2" style="animation-delay: 1303.0500376686748ms" /><rect x="55.5" y="81.5" width="9" height="9" class="st" style="animation-delay: 1303.0500376686748ms" />
<rect x="68" y="3" width="10" height="10" class="count0" style="animation-delay: 1317.610461137119ms" /><rect x="68.5" y="3.5" width="9" height="9" class="st" style="animation-delay: 1317.610461137119ms" />
<rect x="68" y="16" width="10" height="10" class="count2" style="animation-delay: 1331.856002613901ms" /><rect x="68.5" y="16.5" width="9" height="9" class="st" style="animation-delay: 1331.856002613901ms" />
<rect x="68" y="29" width="10" height="10" class="count2" style="animation-delay: 1345.803153021821ms" /><rect x="68.5" y="29.5" width="9" height="9" class="st" style="animation-delay: 1345.803153021821ms" />
<rect x="68" y="42" width="10" height="10" class="count1" style="animation-delay: 1359.4670633909916ms" /><rect x="68.5" y="42.5" width="9" height="9" class="st" style="animation-delay: 1359.4670633909916ms" />
<rect x="68" y="55" width="10" height="10" class="count2" style="animation-delay: 1372.8616901385794ms" /><rect x="68.5" y="55.5" width="9" height="9" class="st" style="animation-delay: 1372.8616901385794ms" />
<rect x="68" y="68" width="10" height="10" class="count2" style="animation-delay: 1385.9999208743752ms" /><rect x="68.5" y="68.5" width="9" height="9" class="st" style="animation-delay: 1385.9999208743752ms" />
<rect x="68" y="81" width="10" height="10" class="count1" style="animation-delay: 1398.8936838137658ms" /><rect x="68.5" y="81.5" width="9" height="9" class="st" style="animation-delay: 1398.8936838137658ms" />
<rect x="81" y="3" width="10" height="10" class="count1" style="animation-delay: 1411.5540433215428ms" /><rect x="81.5" y="3.5" width="9" height="9" class="st" style="animation-delay: 1411.5540433215428ms" />
<rect x="81" y="16" width="10" height="10" class="count3" style="animation-delay: 1423.9912836650328ms" /><rect x="81.5" y="16.5" width="9" height="9" class="st" style="animation-delay: 1423.9912836650328ms" />
<rect x="81" y="29" width="10" height="10" class="count5" style="animation-delay: 1436.2149826979949ms" /><rect x="81.5" y="29.5" width="9" height="9" class="st" style="animation-delay: 1436.2149826979949ms" />
<rect x="81" y="42" width="10" height="10" class="count2" style="animation-delay: 1448.2340769084446ms" /><rect x="81.5" y="42.5" width="9" height="9" class="st" style="animation-delay: 1448.2340769084446ms" />
<rect x="81" y="55" width="10" height="10" class="count4" style="animation-delay: 1460.056919029461ms" /><rect x="81.5" y="55.5" width="9" height="9" class="st" style="animation-delay: 1460.056919029461ms" />
<rect x="81" y="68" width="10" height="10" class="count5" style="animation-delay: 1471.6913292208342ms" /><rect x="81.5" y="68.5" width="9" height="9" class="st" style="animation-delay: 1471.6913292208342ms" />
<rect x="81" y="81" width="10" height="10" class="count5" style="animation-delay: 1483.1446406724754ms" /><rect x="81.5" y="81.5" width="9" height="9" class="st" style="animation-delay: 1483.1446406724754ms" />
<rect x="94" y="3" width="10" height="10" class="count5" style="animation-delay: 1494.4237403510274ms" /><rect x="94.5" y="3.5" width="9" height="9" class="st" style="animation-delay: 1494.4237403510274ms" />
<rect x="94" y="16" width="10" height="10" class="count3" style="animation-delay: 1505.5762596489724ms" /><rect x="94.5" y="16.5" width="9" height="9" class="st" style="animation-delay: 1505.5762596489724ms" />
<rect x="94" y="29" width="10" height="10" class="count5" style="animation-delay: 1516.8553593275249ms" /><rect x="94.5" y="29.5" width="9" height="9" class="st" style="animation-delay: 1516.8553593275249ms" />
<rect x="94" y="42" width="10" height="10" class="count6" style="animation-delay: 1528.3086707791658ms" /><rect x="94.5" y="42.5" width="9" height="9" class="st" style="animation-delay: 1528.3086707791658ms" />
<rect x="94" y="55" width="10" height="10" class="count2" style="animation-delay: 1539.9430809705393ms" /><rect x="94.5" y="55.5" width="9" height="9" class="st" style="animation-delay: 1539.9430809705393ms" />
<rect x="94" y="68" width="10" height="10" class="count2" style="animation-delay: 1551.7659230915554ms" /><rect x="94.5" y="68.5" width="9" height="9" class="st" style="animation-delay: 1551.7659230915554ms" />
<rect x="94" y="81" width="10" height="10" class="count1" style="animation-delay: 1563.7850173020051ms" /><rect x="94.5" y="81.5" width="9" height="9" class="st" style="animation-delay: 1563.7850173020051ms" />
<rect x="107" y="3" width="10" height="10" class="count4" style="animation-delay: 1576.0087163349672ms" /><rect x="107.5" y="3.5" width="9" height="9" class="st" style="animation-delay: 1576.0087163349672ms" />
<rect x="107" y="16" width="10" height="10" class="count1" style="animation-delay: 1588.4459566784574ms" /><rect x="107.5" y="16.5" width="9" height="9" class="st" style="animation-delay: 1588.4459566784574ms" />
<rect x="107" y="29" width="10" height="10" class="count0" style="animation-delay: 1601.1063161862342ms" /><rect x="107.5" y="29.5" width="9" height="9" class="st" style="animation-delay: 1601.1063161862342ms" />
<rect x="107" y="42" width="10" height="10" class="count1" style="animation-delay: 1614.0000791256248ms" /><rect x="107.5" y="42.5" width="9" height="9" class="st" style="animation-delay: 1614.0000791256248ms" />
<rect x="107" y="55" width="10" height="10" class="count4" style="animation-delay: 1627.1383098614206ms" /><rect x="107.5" y="55.5" width="9" height="9" class="st" style="animation-delay: 1627.1383098614206ms" />
<rect x="107" y="68" width="10" height="10" class="count4" style="animation-delay: 1640.5329366090084ms" /><rect x="107.5" y="68.5" width="9" height="9" class="st" style="animation-delay: 1640.5329366090084ms" />
<rect x="107" y="81" width="10" height="10" class="count5" style="animation-delay: 1654.1968469781787ms" /><rect x="107.5" y="81.5" width="9" height="9" class="st" style="animation-delay: 1654.1968469781787ms" />
<rect x="120" y="3" width="10" height="10" class="count3" style="animation-delay: 1668.1439973860993ms" /><rect x="120.5" y="3.5" width="9" height="9" class="st" style="animation-delay: 1668.1439973860993ms" />
<rect x="120" y="16" width="10" height="10" class="count4" style="animation-delay: 1682.389538862881ms" /><rect x="120.5" y="16.5" width="9" height="9" class="st" style="animation-delay: 1682.389538862881ms" />
<rect x="120" y="29" width="10" height="10" class="count6" style="animation-delay: 1696.9499623313254ms" /><rect x="120.5" y="29.5" width="9" height="9" class="st" style="animation-delay: 1696.9499623313254ms" />
<rect x="120" y="42" width="10" height="10" class="count6" style="animation-delay: 1711.8432671474009ms" /><rect x="120.5" y="42.5" width="9" height="9" class="st" style="animation-delay: 1711.8432671474009ms" />
<rect x="120" y="55" width="10" height="10" class="count6" style="animation-delay: 1727.0891575851276ms" /><rect x="120.5" y="55.5" width="9" height="9" class="st" style="animation-delay: 1727.0891575851276ms" />
<rect x="120" y="68" width="10" height="10" class="count8" style="animation-delay: 1742.7092731000803ms" /><rect x="120.5" y="68.5" width="9" height="9" class="st" style="animation-delay: 1742.7092731000803ms" />
<rect x="120" y="81" width="10" height="10" class="count7" style="animation-delay: 1758.7274596937975ms" /><rect x="120.5" y="81.5" width="9" height="9" class="st" style="animation-delay: 1758.7274596937975ms" />
<rect x="133" y="3" width="10" height="10" class="count5" style="animation-delay: 1775.170091643397ms" /><rect x="133.5" y="3.5" width="9" height="9" class="st" style="animation-delay: 1775.170091643397ms" />
<rect x="133" y="16" width="10" height="10" class="count5" style="animation-delay: 1792.066455419641ms" /><rect x="133.5" y="16.5" width="9" height="9" class="st" style="animation-delay: 1792.066455419641ms" />
<rect x="133" y="29" width="10" height="10" class="count5" style="animation-delay: 1809.4492110238505ms" /><rect x="133.5" y="29.5" width="9" height="9" class="st" style="animation-delay: 1809.4492110238505ms" />
<rect x="133" y="42" width="10" height="10" class="count5" style="animation-delay: 1827.3549505615822ms" /><rect x="133.5" y="42.5" width="9" height="9" class="st" style="animation-delay: 1827.3549505615822ms" />
<rect x="133" y="55" width="10" height="10" class="count7" style="animation-delay: 1845.8248801231955ms" /><rect x="133.5" y="55.5" width="9" height="9" class="st" style="animation-delay: 1845.8248801231955ms" />
<rect x="133" y="68" width="10" height="10" class="count3" style="animation-delay: 1864.9056596753076ms" /><rect x="133.5" y="68.5" width="9" height="9" class="st" style="animation-delay: 1864.9056596753076ms" />
<rect x="133" y="81" width="10" height="10" class="count5" style="animation-delay: 1884.65044776219ms" /><rect x="133.5" y="81.5" width="9" height="9" class="st" style="animation-delay: 1884.65044776219ms" />
<rect x="146" y="3" width="10" height="10" class="count6" style="animation-delay: 1905.1202150280276ms" /><rect x="146.5" y="3.5" width="9" height="9" class="st" style="animation-delay: 1905.1202150280276ms" />
<rect x="146" y="16" width="10" height="10" class="count4" style="animation-delay: 1926.3854154905296ms" /><rect x="146.5" y="16.5" width="9" height="9" class="st" style="animation-delay: 1926.3854154905296ms" />
<rect x="146" y="29" width="10" height="10" class="count3" style="animation-delay: 1948.5281412692893ms" /><rect x="146.5" y="29.5" width="9" height="9" class="st" style="animation-delay: 1948.5281412692893ms" />
<rect x="146" y="42" width="10" height="10" class="count3" style="animation-delay: 1971.6449418970185ms" /><rect x="146.5" y="42.5" width="9" height="9" class="st" style="animation-delay: 1971.6449418970185ms" />
<rect x="146" y="55" width="10" height="10" class="count3" style="animation-delay: 1995.850574876746ms" /><rect x="146.5" y="55.5" width="9" height="9" class="st" style="animation-delay: 1995.850574876746ms" />
<rect x="146" y="68" width="10" height="10" class="count3" style="animation-delay: 2021.283089707784ms" /><rect x="146.5" y="68.5" width="9" height="9" class="st" style="animation-delay: 2021.283089707784ms" />
<rect x="146" y="81" width="10" height="10" class="count3" style="animation-delay: 2048.1108690183482ms" /><rect x="146.5" y="81.5" width="9" height="9" class="st" style="animation-delay: 2048.1108690183482ms" />
<rect x="159" y="3" width="10" height="10" class="count1" style="animation-delay: 2076.5426247760834ms" /><rect x="159.5" y="3.5" width="9" height="9" class="st" style="animation-delay: 2076.5426247760834ms" />
<rect x="159" y="16" width="10" height="10" class="count3" style="animation-delay: 2106.842006145972ms" /><rect x="159.5" y="16.5" width="9" height="9" class="st" style="animation-delay: 2106.842006145972ms" />
<rect x="159" y="29" width="10" height="10" class="count1" style="animation-delay: 2139.349689636842ms" /><rect x="159.5" y="29.5" width="9" height="9" class="st" style="animation-delay: 2139.349689636842ms" />
<rect x="159" y="42" width="10" height="10" class="count0" style="animation-delay: 2174.5181877763434ms" /><rect x="159.5" y="42.5" width="9" height="9" class="st" style="animation-delay: 2174.5181877763434ms" />
<rect x="159" y="55" width="10" height="10" class="count1" style="animation-delay: 2212.9695416842783ms" /><rect x="159.5" y="55.5" width="9" height="9" class="st" style="animation-delay: 2212.9695416842783ms" />
<rect x="159" y="68" width="10" height="10" class="count0" style="animation-delay: 2255.5972235230865ms" /><rect x="159.5" y="68.5" width="9" height="9" class="st" style="animation-delay: 2255.5972235230865ms" />
<rect x="159" y="81" width="10" height="10" class="count0" style="animation-delay: 2303.761674958083ms" /><rect x="159.5" y="81.5" width="9" height="9" class="st" style="animation-delay: 2303.761674958083ms" />
<rect x="172" y="3" width="10" height="10" class="count0" style="animation-delay: 2359.7104175062527ms" /><rect x="172.5" y="3.5" width="9" height="9" class="st" style="animation-delay: 2359.7104175062527ms" />
<rect x="172" y="16" width="10" height="10" class="count2" style="animation-delay: 2427.642878723334ms" /><rect x="172.5" y="16.5" width="9" height="9" class="st" style="animation-delay: 2427.642878723334ms" />
<rect x="172" y="29" width="10" height="10" class="count0" style="animation-delay: 2517.2553076971844ms" /><rect x="172.5" y="29.5" width="9" height="9" class="st" style="animation-delay: 2517.2553076971844ms" />
<rect x="172" y="42" width="10" height="10" class="count1" style="animation-delay: 2665.2835249589157ms" /><rect x="172.5" y="42.5" width="9" height="9" class="st" style="animation-delay: 2665.2835249589157ms" />
</svg>

  