

<svg height="94" width="419" xmlns="http://www.w3.org/2000/svg" fill='#4FA1A7'>
  <style>
  rect {
  rx: 2;
  ry: 2;
  animation: wow .5s backwards;
  }
  .st {
  
  stroke: rgba(27, 31, 35, 0.06);
  stroke-width: 1;
  fill: none;
  }
  @keyframes wow {
  from {opacity: 0;}
  to{ opacity: 1;}}
  .count0 {fill: #ebedf0}
.count1 {fill: #9be9a8}
.count2 {fill: #9be9a8}
.count3 {fill: #40c463}
.count4 {fill: #40c463}
.count5 {fill: #30a14e}
.count6 {fill: #30a14e}
.count7 {fill: #216e39}
.count8 {fill: #216e39}
  </style>
<rect x="3" y="68" width="10" height="10" class="count3" style="animation-delay: 250.38699752178007ms" /><rect x="3.5" y="68.5" width="9" height="9" class="st" style="animation-delay: 250.38699752178007ms" />
<rect x="3" y="81" width="10" height="10" class="count3" style="animation-delay: 361.1205395863494ms" /><rect x="3.5" y="81.5" width="9" height="9" class="st" style="animation-delay: 361.1205395863494ms" />
<rect x="16" y="3" width="10" height="10" class="count1" style="animation-delay: 428.15574312284167ms" /><rect x="16.5" y="3.5" width="9" height="9" class="st" style="animation-delay: 428.15574312284167ms" />
<rect x="16" y="16" width="10" height="10" class="count2" style="animation-delay: 478.973095320166ms" /><rect x="16.5" y="16.5" width="9" height="9" class="st" style="animation-delay: 478.973095320166ms" />
<rect x="16" y="29" width="10" height="10" class="count5" style="animation-delay: 520.825943047592ms" /><rect x="16.5" y="29.5" width="9" height="9" class="st" style="animation-delay: 520.825943047592ms" />
<rect x="16" y="42" width="10" height="10" class="count1" style="animation-delay: 556.8556974258674ms" /><rect x="16.5" y="42.5" width="9" height="9" class="st" style="animation-delay: 556.8556974258674ms" />
<rect x="16" y="55" width="10" height="10" class="count3" style="animation-delay: 588.7436326272128ms" /><rect x="16.5" y="55.5" width="9" height="9" class="st" style="animation-delay: 588.7436326272128ms" />
<rect x="16" y="68" width="10" height="10" class="count2" style="animation-delay: 617.5074365435676ms" /><rect x="16.5" y="68.5" width="9" height="9" class="st" style="animation-delay: 617.5074365435676ms" />
<rect x="16" y="81" width="10" height="10" class="count2" style="animation-delay: 643.8154772679424ms" /><rect x="16.5" y="81.5" width="9" height="9" class="st" style="animation-delay: 643.8154772679424ms" />
<rect x="29" y="3" width="10" height="10" class="count2" style="animation-delay: 668.1330770056555ms" /><rect x="29.5" y="3.5" width="9" height="9" class="st" style="animation-delay: 668.1330770056555ms" />
<rect x="29" y="16" width="10" height="10" class="count1" style="animation-delay: 690.7987409143188ms" /><rect x="29.5" y="16.5" width="9" height="9" class="st" style="animation-delay: 690.7987409143188ms" />
<rect x="29" y="29" width="10" height="10" class="count2" style="animation-delay: 712.0673144363661ms" /><rect x="29.5" y="29.5" width="9" height="9" class="st" style="animation-delay: 712.0673144363661ms" />
<rect x="29" y="42" width="10" height="10" class="count2" style="animation-delay: 732.1360221715458ms" /><rect x="29.5" y="42.5" width="9" height="9" class="st" style="animation-delay: 732.1360221715458ms" />
<rect x="29" y="55" width="10" height="10" class="count1" style="animation-delay: 751.1609925653402ms" /><rect x="29.5" y="55.5" width="9" height="9" class="st" style="animation-delay: 751.1609925653402ms" />
<rect x="29" y="68" width="10" height="10" class="count3" style="animation-delay: 769.2681854191254ms" /><rect x="29.5" y="68.5" width="9" height="9" class="st" style="animation-delay: 769.2681854191254ms" />
<rect x="29" y="81" width="10" height="10" class="count2" style="animation-delay: 786.5608696252916ms" /><rect x="29.5" y="81.5" width="9" height="9" class="st" style="animation-delay: 786.5608696252916ms" />
<rect x="42" y="3" width="10" height="10" class="count1" style="animation-delay: 803.1248903356895ms" /><rect x="42.5" y="3.5" width="9" height="9" class="st" style="animation-delay: 803.1248903356895ms" />
<rect x="42" y="16" width="10" height="10" class="count1" style="animation-delay: 819.0324721027688ms" /><rect x="42.5" y="16.5" width="9" height="9" class="st" style="animation-delay: 819.0324721027688ms" />
<rect x="42" y="29" width="10" height="10" class="count2" style="animation-delay: 834.3450245100968ms" /><rect x="42.5" y="29.5" width="9" height="9" class="st" style="animation-delay: 834.3450245100968ms" />
<rect x="42" y="42" width="10" height="10" class="count1" style="animation-delay: 849.1152511778204ms" /><rect x="42.5" y="42.5" width="9" height="9" class="st" style="animation-delay: 849.1152511778204ms" />
<rect x="42" y="55" width="10" height="10" class="count1" style="animation-delay: 863.3887616222701ms" /><rect x="42.5" y="55.5" width="9" height="9" class="st" style="animation-delay: 863.3887616222701ms" />
<rect x="42" y="68" width="10" height="10" class="count1" style="animation-delay: 877.2053214638598ms" /><rect x="42.5" y="68.5" width="9" height="9" class="st" style="animation-delay: 877.2053214638598ms" />
<rect x="42" y="81" width="10" height="10" class="count1" style="animation-delay: 890.5998350165896ms" /><rect x="42.5" y="81.5" width="9" height="9" class="st" style="animation-delay: 890.5998350165896ms" />
<rect x="55" y="3" width="10" height="10" class="count1" style="animation-delay: 903.6031267842226ms" /><rect x="55.5" y="3.5" width="9" height="9" class="st" style="animation-delay: 903.6031267842226ms" />
<rect x="55" y="16" width="10" height="10" class="count1" style="animation-delay: 916.2425697469575ms" /><rect x="55.5" y="16.5" width="9" height="9" class="st" style="animation-delay: 916.2425697469575ms" />
<rect x="55" y="29" width="10" height="10" class="count2" style="animation-delay: 928.5425954469488ms" /><rect x="55.5" y="29.5" width="9" height="9" class="st" style="animation-delay: 928.5425954469488ms" />
<rect x="55" y="42" width="10" height="10" class="count3" style="animation-delay: 940.5251118332493ms" /><rect x="55.5" y="42.5" width="9" height="9" class="st" style="animation-delay: 940.5251118332493ms" />
<rect x="55" y="55" width="10" height="10" class="count3" style="animation-delay: 952.2098483681099ms" /><rect x="55.5" y="55.5" width="9" height="9" class="st" style="animation-delay: 952.2098483681099ms" />
<rect x="55" y="68" width="10" height="10" class="count1" style="animation-delay: 963.6146432195732ms" /><rect x="55.5" y="68.5" width="9" height="9" class="st" style="animation-delay: 963.6146432195732ms" />
<rect x="55" y="81" width="10" height="10" class="count2" style="animation-delay: 974.7556839335568ms" /><rect x="55.5" y="81.5" width="9" height="9" class="st" style="animation-delay: 974.7556839335568ms" />
<rect x="68" y="3" width="10" height="10" class="count0" style="animation-delay: 985.647710429898ms" /><rect x="68.5" y="3.5" width="9" height="9" class="st" style="animation-delay: 985.647710429898ms" />
<rect x="68" y="16" width="10" height="10" class="count2" style="animation-delay: 996.304187252575ms" /><rect x="68.5" y="16.5" width="9" height="9" class="st" style="animation-delay: 996.304187252575ms" />
<rect x="68" y="29" width="10" height="10" class="count2" style="animation-delay: 1006.7374505515958ms" /><rect x="68.5" y="29.5" width="9" height="9" class="st" style="animation-delay: 1006.7374505515958ms" />
<rect x="68" y="42" width="10" height="10" class="count1" style="animation-delay: 1016.958834160883ms" /><rect x="68.5" y="42.5" width="9" height="9" class="st" style="animation-delay: 1016.958834160883ms" />
<rect x="68" y="55" width="10" height="10" class="count2" style="animation-delay: 1026.9787782757992ms" /><rect x="68.5" y="55.5" width="9" height="9" class="st" style="animation-delay: 1026.9787782757992ms" />
<rect x="68" y="68" width="10" height="10" class="count2" style="animation-delay: 1036.806923562883ms" /><rect x="68.5" y="68.5" width="9" height="9" class="st" style="animation-delay: 1036.806923562883ms" />
<rect x="68" y="81" width="10" height="10" class="count1" style="animation-delay: 1046.452193006986ms" /><rect x="68.5" y="81.5" width="9" height="9" class="st" style="animation-delay: 1046.452193006986ms" />
<rect x="81" y="3" width="10" height="10" class="count1" style="animation-delay: 1055.9228633834873ms" /><rect x="81.5" y="3.5" width="9" height="9" class="st" style="animation-delay: 1055.9228633834873ms" />
<rect x="81" y="16" width="10" height="10" class="count3" style="animation-delay: 1065.2266279104083ms" /><rect x="81.5" y="16.5" width="9" height="9" class="st" style="animation-delay: 1065.2266279104083ms" />
<rect x="81" y="29" width="10" height="10" class="count5" style="animation-delay: 1074.3706513681645ms" /><rect x="81.5" y="29.5" width="9" height="9" class="st" style="animation-delay: 1074.3706513681645ms" />
<rect x="81" y="42" width="10" height="10" class="count2" style="animation-delay: 1083.3616187590483ms" /><rect x="81.5" y="42.5" width="9" height="9" class="st" style="animation-delay: 1083.3616187590483ms" />
<rect x="81" y="55" width="10" height="10" class="count4" style="animation-delay: 1092.2057784033918ms" /><rect x="81.5" y="55.5" width="9" height="9" class="st" style="animation-delay: 1092.2057784033918ms" />
<rect x="81" y="68" width="10" height="10" class="count5" style="animation-delay: 1100.908980226359ms" /><rect x="81.5" y="68.5" width="9" height="9" class="st" style="animation-delay: 1100.908980226359ms" />
<rect x="81" y="81" width="10" height="10" class="count5" style="animation-delay: 1109.4767098718935ms" /><rect x="81.5" y="81.5" width="9" height="9" class="st" style="animation-delay: 1109.4767098718935ms" />
<rect x="94" y="3" width="10" height="10" class="count5" style="animation-delay: 1117.9141191835054ms" /><rect x="94.5" y="3.5" width="9" height="9" class="st" style="animation-delay: 1117.9141191835054ms" />
<rect x="94" y="16" width="10" height="10" class="count3" style="animation-delay: 1126.2260535112873ms" /><rect x="94.5" y="16.5" width="9" height="9" class="st" style="animation-delay: 1126.2260535112873ms" />
<rect x="94" y="29" width="10" height="10" class="count5" style="animation-delay: 1134.4170762376982ms" /><rect x="94.5" y="29.5" width="9" height="9" class="st" style="animation-delay: 1134.4170762376982ms" />
<rect x="94" y="42" width="10" height="10" class="count6" style="animation-delay: 1142.4914908587602ms" /><rect x="94.5" y="42.5" width="9" height="9" class="st" style="animation-delay: 1142.4914908587602ms" />
<rect x="94" y="55" width="10" height="10" class="count2" style="animation-delay: 1150.4533609103646ms" /><rect x="94.5" y="55.5" width="9" height="9" class="st" style="animation-delay: 1150.4533609103646ms" />
<rect x="94" y="68" width="10" height="10" class="count2" style="animation-delay: 1158.3065279898326ms" /><rect x="94.5" y="68.5" width="9" height="9" class="st" style="animation-delay: 1158.3065279898326ms" />
<rect x="94" y="81" width="10" height="10" class="count1" style="animation-delay: 1166.0546280893852ms" /><rect x="94.5" y="81.5" width="9" height="9" class="st" style="animation-delay: 1166.0546280893852ms" />
<rect x="107" y="3" width="10" height="10" class="count4" style="animation-delay: 1173.701106429766ms" /><rect x="107.5" y="3.5" width="9" height="9" class="st" style="animation-delay: 1173.701106429766ms" />
<rect x="107" y="16" width="10" height="10" class="count1" style="animation-delay: 1181.2492309580325ms" /><rect x="107.5" y="16.5" width="9" height="9" class="st" style="animation-delay: 1181.2492309580325ms" />
<rect x="107" y="29" width="10" height="10" class="count0" style="animation-delay: 1188.7021046528303ms" /><rect x="107.5" y="29.5" width="9" height="9" class="st" style="animation-delay: 1188.7021046528303ms" />
<rect x="107" y="42" width="10" height="10" class="count1" style="animation-delay: 1196.0626767627148ms" /><rect x="107.5" y="42.5" width="9" height="9" class="st" style="animation-delay: 1196.0626767627148ms" />
<rect x="107" y="55" width="10" height="10" class="count4" style="animation-delay: 1203.3337530878111ms" /><rect x="107.5" y="55.5" width="9" height="9" class="st" style="animation-delay: 1203.3337530878111ms" />
<rect x="107" y="68" width="10" height="10" class="count4" style="animation-delay: 1210.5180054019293ms" /><rect x="107.5" y="68.5" width="9" height="9" class="st" style="animation-delay: 1210.5180054019293ms" />
<rect x="107" y="81" width="10" height="10" class="count5" style="animation-delay: 1217.6179801008584ms" /><rect x="107.5" y="81.5" width="9" height="9" class="st" style="animation-delay: 1217.6179801008584ms" />
<rect x="120" y="3" width="10" height="10" class="count3" style="animation-delay: 1224.6361061526786ms" /><rect x="120.5" y="3.5" width="9" height="9" class="st" style="animation-delay: 1224.6361061526786ms" />
<rect x="120" y="16" width="10" height="10" class="count4" style="animation-delay: 1231.5747024173352ms" /><rect x="120.5" y="16.5" width="9" height="9" class="st" style="animation-delay: 1231.5747024173352ms" />
<rect x="120" y="29" width="10" height="10" class="count6" style="animation-delay: 1238.43598439522ms" /><rect x="120.5" y="29.5" width="9" height="9" class="st" style="animation-delay: 1238.43598439522ms" />
<rect x="120" y="42" width="10" height="10" class="count6" style="animation-delay: 1245.2220704579643ms" /><rect x="120.5" y="42.5" width="9" height="9" class="st" style="animation-delay: 1245.2220704579643ms" />
<rect x="120" y="55" width="10" height="10" class="count6" style="animation-delay: 1251.9349876089004ms" /><rect x="120.5" y="55.5" width="9" height="9" class="st" style="animation-delay: 1251.9349876089004ms" />
<rect x="120" y="68" width="10" height="10" class="count8" style="animation-delay: 1258.57667681562ms" /><rect x="120.5" y="68.5" width="9" height="9" class="st" style="animation-delay: 1258.57667681562ms" />
<rect x="120" y="81" width="10" height="10" class="count7" style="animation-delay: 1265.1489979526239ms" /><rect x="120.5" y="81.5" width="9" height="9" class="st" style="animation-delay: 1265.1489979526239ms" />
<rect x="133" y="3" width="10" height="10" class="count5" style="animation-delay: 1271.6537343881455ms" /><rect x="133.5" y="3.5" width="9" height="9" class="st" style="animation-delay: 1271.6537343881455ms" />
<rect x="133" y="16" width="10" height="10" class="count5" style="animation-delay: 1278.0925972457844ms" /><rect x="133.5" y="16.5" width="9" height="9" class="st" style="animation-delay: 1278.0925972457844ms" />
<rect x="133" y="29" width="10" height="10" class="count5" style="animation-delay: 1284.467229368525ms" /><rect x="133.5" y="29.5" width="9" height="9" class="st" style="animation-delay: 1284.467229368525ms" />
<rect x="133" y="42" width="10" height="10" class="count5" style="animation-delay: 1290.7792090100095ms" /><rect x="133.5" y="42.5" width="9" height="9" class="st" style="animation-delay: 1290.7792090100095ms" />
<rect x="133" y="55" width="10" height="10" class="count7" style="animation-delay: 1297.0300532755186ms" /><rect x="133.5" y="55.5" width="9" height="9" class="st" style="animation-delay: 1297.0300532755186ms" />
<rect x="133" y="68" width="10" height="10" class="count3" style="animation-delay: 1303.2212213329758ms" /><rect x="133.5" y="68.5" width="9" height="9" class="st" style="animation-delay: 1303.2212213329758ms" />
<rect x="133" y="81" width="10" height="10" class="count5" style="animation-delay: 1309.3541174123766ms" /><rect x="133.5" y="81.5" width="9" height="9" class="st" style="animation-delay: 1309.3541174123766ms" />
<rect x="146" y="3" width="10" height="10" class="count6" style="animation-delay: 1315.4300936103339ms" /><rect x="146.5" y="3.5" width="9" height="9" class="st" style="animation-delay: 1315.4300936103339ms" />
<rect x="146" y="16" width="10" height="10" class="count4" style="animation-delay: 1321.450452514905ms" /><rect x="146.5" y="16.5" width="9" height="9" class="st" style="animation-delay: 1321.450452514905ms" />
<rect x="146" y="29" width="10" height="10" class="count3" style="animation-delay: 1327.4164496644958ms" /><rect x="146.5" y="29.5" width="9" height="9" class="st" style="animation-delay: 1327.4164496644958ms" />
<rect x="146" y="42" width="10" height="10" class="count3" style="animation-delay: 1333.3292958534073ms" /><rect x="146.5" y="42.5" width="9" height="9" class="st" style="animation-delay: 1333.3292958534073ms" />
<rect x="146" y="55" width="10" height="10" class="count3" style="animation-delay: 1339.1901592954875ms" /><rect x="146.5" y="55.5" width="9" height="9" class="st" style="animation-delay: 1339.1901592954875ms" />
<rect x="146" y="68" width="10" height="10" class="count3" style="animation-delay: 1345.0001676563538ms" /><rect x="146.5" y="68.5" width="9" height="9" class="st" style="animation-delay: 1345.0001676563538ms" />
<rect x="146" y="81" width="10" height="10" class="count3" style="animation-delay: 1350.7604099637542ms" /><rect x="146.5" y="81.5" width="9" height="9" class="st" style="animation-delay: 1350.7604099637542ms" />
<rect x="159" y="3" width="10" height="10" class="count1" style="animation-delay: 1356.471938404831ms" /><rect x="159.5" y="3.5" width="9" height="9" class="st" style="animation-delay: 1356.471938404831ms" />
<rect x="159" y="16" width="10" height="10" class="count3" style="animation-delay: 1362.1357700183166ms" /><rect x="159.5" y="16.5" width="9" height="9" class="st" style="animation-delay: 1362.1357700183166ms" />
<rect x="159" y="29" width="10" height="10" class="count1" style="animation-delay: 1367.7528882890213ms" /><rect x="159.5" y="29.5" width="9" height="9" class="st" style="animation-delay: 1367.7528882890213ms" />
<rect x="159" y="42" width="10" height="10" class="count0" style="animation-delay: 1373.324244651389ms" /><rect x="159.5" y="42.5" width="9" height="9" class="st" style="animation-delay: 1373.324244651389ms" />
<rect x="159" y="55" width="10" height="10" class="count1" style="animation-delay: 1378.8507599083343ms" /><rect x="159.5" y="55.5" width="9" height="9" class="st" style="animation-delay: 1378.8507599083343ms" />
<rect x="159" y="68" width="10" height="10" class="count0" style="animation-delay: 1384.3333255710918ms" /><rect x="159.5" y="68.5" width="9" height="9" class="st" style="animation-delay: 1384.3333255710918ms" />
<rect x="159" y="81" width="10" height="10" class="count0" style="animation-delay: 1389.7728051253562ms" /><rect x="159.5" y="81.5" width="9" height="9" class="st" style="animation-delay: 1389.7728051253562ms" />
<rect x="172" y="3" width="10" height="10" class="count0" style="animation-delay: 1395.1700352285739ms" /><rect x="172.5" y="3.5" width="9" height="9" class="st" style="animation-delay: 1395.1700352285739ms" />
<rect x="172" y="16" width="10" height="10" class="count2" style="animation-delay: 1400.5258268428872ms" /><rect x="172.5" y="16.5" width="9" height="9" class="st" style="animation-delay: 1400.5258268428872ms" />
<rect x="172" y="29" width="10" height="10" class="count0" style="animation-delay: 1405.8409663078762ms" /><rect x="172.5" y="29.5" width="9" height="9" class="st" style="animation-delay: 1405.8409663078762ms" />
<rect x="172" y="42" width="10" height="10" class="count1" style="animation-delay: 1411.1162163569427ms" /><rect x="172.5" y="42.5" width="9" height="9" class="st" style="animation-delay: 1411.1162163569427ms" />
<rect x="172" y="55" width="10" height="10" class="count1" style="animation-delay: 1416.3523170808915ms" /><rect x="172.5" y="55.5" width="9" height="9" class="st" style="animation-delay: 1416.3523170808915ms" />
<rect x="172" y="68" width="10" height="10" class="count1" style="animation-delay: 1421.5499868420013ms" /><rect x="172.5" y="68.5" width="9" height="9" class="st" style="animation-delay: 1421.5499868420013ms" />
<rect x="172" y="81" width="10" height="10" class="count1" style="animation-delay: 1426.7099231416446ms" /><rect x="172.5" y="81.5" width="9" height="9" class="st" style="animation-delay: 1426.7099231416446ms" />
<rect x="185" y="3" width="10" height="10" class="count0" style="animation-delay: 1431.8328034442854ms" /><rect x="185.5" y="3.5" width="9" height="9" class="st" style="animation-delay: 1431.8328034442854ms" />
<rect x="185" y="16" width="10" height="10" class="count3" style="animation-delay: 1436.919285960498ms" /><rect x="185.5" y="16.5" width="9" height="9" class="st" style="animation-delay: 1436.919285960498ms" />
<rect x="185" y="29" width="10" height="10" class="count0" style="animation-delay: 1441.9700103914486ms" /><rect x="185.5" y="29.5" width="9" height="9" class="st" style="animation-delay: 1441.9700103914486ms" />
<rect x="185" y="42" width="10" height="10" class="count0" style="animation-delay: 1446.9855986371217ms" /><rect x="185.5" y="42.5" width="9" height="9" class="st" style="animation-delay: 1446.9855986371217ms" />
<rect x="185" y="55" width="10" height="10" class="count2" style="animation-delay: 1451.9666554704147ms" /><rect x="185.5" y="55.5" width="9" height="9" class="st" style="animation-delay: 1451.9666554704147ms" />
<rect x="185" y="68" width="10" height="10" class="count1" style="animation-delay: 1456.9137691790725ms" /><rect x="185.5" y="68.5" width="9" height="9" class="st" style="animation-delay: 1456.9137691790725ms" />
<rect x="185" y="81" width="10" height="10" class="count0" style="animation-delay: 1461.8275121773127ms" /><rect x="185.5" y="81.5" width="9" height="9" class="st" style="animation-delay: 1461.8275121773127ms" />
<rect x="198" y="3" width="10" height="10" class="count0" style="animation-delay: 1466.7084415888564ms" /><rect x="198.5" y="3.5" width="9" height="9" class="st" style="animation-delay: 1466.7084415888564ms" />
<rect x="198" y="16" width="10" height="10" class="count0" style="animation-delay: 1471.557099802977ms" /><rect x="198.5" y="16.5" width="9" height="9" class="st" style="animation-delay: 1471.557099802977ms" />
<rect x="198" y="29" width="10" height="10" class="count0" style="animation-delay: 1476.3740150050623ms" /><rect x="198.5" y="29.5" width="9" height="9" class="st" style="animation-delay: 1476.3740150050623ms" />
<rect x="198" y="42" width="10" height="10" class="count0" style="animation-delay: 1481.1597016830985ms" /><rect x="198.5" y="42.5" width="9" height="9" class="st" style="animation-delay: 1481.1597016830985ms" />
<rect x="198" y="55" width="10" height="10" class="count0" style="animation-delay: 1485.9146611113931ms" /><rect x="198.5" y="55.5" width="9" height="9" class="st" style="animation-delay: 1485.9146611113931ms" />
<rect x="198" y="68" width="10" height="10" class="count0" style="animation-delay: 1490.6393818127574ms" /><rect x="198.5" y="68.5" width="9" height="9" class="st" style="animation-delay: 1490.6393818127574ms" />
<rect x="198" y="81" width="10" height="10" class="count0" style="animation-delay: 1495.334340000314ms" /><rect x="198.5" y="81.5" width="9" height="9" class="st" style="animation-delay: 1495.334340000314ms" />
<rect x="211" y="3" width="10" height="10" class="count0" style="animation-delay: 1500ms" /><rect x="211.5" y="3.5" width="9" height="9" class="st" style="animation-delay: 1500ms" />
<rect x="211" y="16" width="10" height="10" class="count0" style="animation-delay: 1504.665659999686ms" /><rect x="211.5" y="16.5" width="9" height="9" class="st" style="animation-delay: 1504.665659999686ms" />
<rect x="211" y="29" width="10" height="10" class="count0" style="animation-delay: 1509.3606181872428ms" /><rect x="211.5" y="29.5" width="9" height="9" class="st" style="animation-delay: 1509.3606181872428ms" />
<rect x="211" y="42" width="10" height="10" class="count0" style="animation-delay: 1514.0853388886069ms" /><rect x="211.5" y="42.5" width="9" height="9" class="st" style="animation-delay: 1514.0853388886069ms" />
<rect x="211" y="55" width="10" height="10" class="count0" style="animation-delay: 1518.8402983169015ms" /><rect x="211.5" y="55.5" width="9" height="9" class="st" style="animation-delay: 1518.8402983169015ms" />
<rect x="211" y="68" width="10" height="10" class="count0" style="animation-delay: 1523.6259849949379ms" /><rect x="211.5" y="68.5" width="9" height="9" class="st" style="animation-delay: 1523.6259849949379ms" />
<rect x="211" y="81" width="10" height="10" class="count0" style="animation-delay: 1528.442900197023ms" /><rect x="211.5" y="81.5" width="9" height="9" class="st" style="animation-delay: 1528.442900197023ms" />
<rect x="224" y="3" width="10" height="10" class="count0" style="animation-delay: 1533.2915584111438ms" /><rect x="224.5" y="3.5" width="9" height="9" class="st" style="animation-delay: 1533.2915584111438ms" />
<rect x="224" y="16" width="10" height="10" class="count0" style="animation-delay: 1538.1724878226873ms" /><rect x="224.5" y="16.5" width="9" height="9" class="st" style="animation-delay: 1538.1724878226873ms" />
<rect x="224" y="29" width="10" height="10" class="count0" style="animation-delay: 1543.0862308209278ms" /><rect x="224.5" y="29.5" width="9" height="9" class="st" style="animation-delay: 1543.0862308209278ms" />
<rect x="224" y="42" width="10" height="10" class="count0" style="animation-delay: 1548.0333445295853ms" /><rect x="224.5" y="42.5" width="9" height="9" class="st" style="animation-delay: 1548.0333445295853ms" />
<rect x="224" y="55" width="10" height="10" class="count0" style="animation-delay: 1553.014401362878ms" /><rect x="224.5" y="55.5" width="9" height="9" class="st" style="animation-delay: 1553.014401362878ms" />
<rect x="224" y="68" width="10" height="10" class="count0" style="animation-delay: 1558.0299896085514ms" /><rect x="224.5" y="68.5" width="9" height="9" class="st" style="animation-delay: 1558.0299896085514ms" />
<rect x="224" y="81" width="10" height="10" class="count0" style="animation-delay: 1563.0807140395018ms" /><rect x="224.5" y="81.5" width="9" height="9" class="st" style="animation-delay: 1563.0807140395018ms" />
<rect x="237" y="3" width="10" height="10" class="count1" style="animation-delay: 1568.1671965557146ms" /><rect x="237.5" y="3.5" width="9" height="9" class="st" style="animation-delay: 1568.1671965557146ms" />
<rect x="237" y="16" width="10" height="10" class="count1" style="animation-delay: 1573.2900768583556ms" /><rect x="237.5" y="16.5" width="9" height="9" class="st" style="animation-delay: 1573.2900768583556ms" />
<rect x="237" y="29" width="10" height="10" class="count1" style="animation-delay: 1578.4500131579987ms" /><rect x="237.5" y="29.5" width="9" height="9" class="st" style="animation-delay: 1578.4500131579987ms" />
<rect x="237" y="42" width="10" height="10" class="count0" style="animation-delay: 1583.6476829191085ms" /><rect x="237.5" y="42.5" width="9" height="9" class="st" style="animation-delay: 1583.6476829191085ms" />
<rect x="237" y="55" width="10" height="10" class="count0" style="animation-delay: 1588.8837836430573ms" /><rect x="237.5" y="55.5" width="9" height="9" class="st" style="animation-delay: 1588.8837836430573ms" />
<rect x="237" y="68" width="10" height="10" class="count0" style="animation-delay: 1594.1590336921236ms" /><rect x="237.5" y="68.5" width="9" height="9" class="st" style="animation-delay: 1594.1590336921236ms" />
<rect x="237" y="81" width="10" height="10" class="count0" style="animation-delay: 1599.4741731571128ms" /><rect x="237.5" y="81.5" width="9" height="9" class="st" style="animation-delay: 1599.4741731571128ms" />
<rect x="250" y="3" width="10" height="10" class="count0" style="animation-delay: 1604.829964771426ms" /><rect x="250.5" y="3.5" width="9" height="9" class="st" style="animation-delay: 1604.829964771426ms" />
<rect x="250" y="16" width="10" height="10" class="count0" style="animation-delay: 1610.227194874644ms" /><rect x="250.5" y="16.5" width="9" height="9" class="st" style="animation-delay: 1610.227194874644ms" />
<rect x="250" y="29" width="10" height="10" class="count1" style="animation-delay: 1615.6666744289082ms" /><rect x="250.5" y="29.5" width="9" height="9" class="st" style="animation-delay: 1615.6666744289082ms" />
<rect x="250" y="42" width="10" height="10" class="count1" style="animation-delay: 1621.1492400916657ms" /><rect x="250.5" y="42.5" width="9" height="9" class="st" style="animation-delay: 1621.1492400916657ms" />
<rect x="250" y="55" width="10" height="10" class="count0" style="animation-delay: 1626.675755348611ms" /><rect x="250.5" y="55.5" width="9" height="9" class="st" style="animation-delay: 1626.675755348611ms" />
<rect x="250" y="68" width="10" height="10" class="count0" style="animation-delay: 1632.2471117109785ms" /><rect x="250.5" y="68.5" width="9" height="9" class="st" style="animation-delay: 1632.2471117109785ms" />
<rect x="250" y="81" width="10" height="10" class="count0" style="animation-delay: 1637.8642299816834ms" /><rect x="250.5" y="81.5" width="9" height="9" class="st" style="animation-delay: 1637.8642299816834ms" />
<rect x="263" y="3" width="10" height="10" class="count0" style="animation-delay: 1643.528061595169ms" /><rect x="263.5" y="3.5" width="9" height="9" class="st" style="animation-delay: 1643.528061595169ms" />
<rect x="263" y="16" width="10" height="10" class="count0" style="animation-delay: 1649.2395900362458ms" /><rect x="263.5" y="16.5" width="9" height="9" class="st" style="animation-delay: 1649.2395900362458ms" />
<rect x="263" y="29" width="10" height="10" class="count0" style="animation-delay: 1654.9998323436462ms" /><rect x="263.5" y="29.5" width="9" height="9" class="st" style="animation-delay: 1654.9998323436462ms" />
<rect x="263" y="42" width="10" height="10" class="count2" style="animation-delay: 1660.8098407045122ms" /><rect x="263.5" y="42.5" width="9" height="9" class="st" style="animation-delay: 1660.8098407045122ms" />
<rect x="263" y="55" width="10" height="10" class="count1" style="animation-delay: 1666.6707041465927ms" /><rect x="263.5" y="55.5" width="9" height="9" class="st" style="animation-delay: 1666.6707041465927ms" />
<rect x="263" y="68" width="10" height="10" class="count3" style="animation-delay: 1672.5835503355045ms" /><rect x="263.5" y="68.5" width="9" height="9" class="st" style="animation-delay: 1672.5835503355045ms" />
<rect x="263" y="81" width="10" height="10" class="count0" style="animation-delay: 1678.5495474850952ms" /><rect x="263.5" y="81.5" width="9" height="9" class="st" style="animation-delay: 1678.5495474850952ms" />
<rect x="276" y="3" width="10" height="10" class="count0" style="animation-delay: 1684.569906389666ms" /><rect x="276.5" y="3.5" width="9" height="9" class="st" style="animation-delay: 1684.569906389666ms" />
<rect x="276" y="16" width="10" height="10" class="count1" style="animation-delay: 1690.6458825876236ms" /><rect x="276.5" y="16.5" width="9" height="9" class="st" style="animation-delay: 1690.6458825876236ms" />
<rect x="276" y="29" width="10" height="10" class="count0" style="animation-delay: 1696.7787786670242ms" /><rect x="276.5" y="29.5" width="9" height="9" class="st" style="animation-delay: 1696.7787786670242ms" />
<rect x="276" y="42" width="10" height="10" class="count0" style="animation-delay: 1702.9699467244814ms" /><rect x="276.5" y="42.5" width="9" height="9" class="st" style="animation-delay: 1702.9699467244814ms" />
<rect x="276" y="55" width="10" height="10" class="count0" style="animation-delay: 1709.2207909899905ms" /><rect x="276.5" y="55.5" width="9" height="9" class="st" style="animation-delay: 1709.2207909899905ms" />
<rect x="276" y="68" width="10" height="10" class="count0" style="animation-delay: 1715.532770631475ms" /><rect x="276.5" y="68.5" width="9" height="9" class="st" style="animation-delay: 1715.532770631475ms" />
<rect x="276" y="81" width="10" height="10" class="count0" style="animation-delay: 1721.9074027542158ms" /><rect x="276.5" y="81.5" width="9" height="9" class="st" style="animation-delay: 1721.9074027542158ms" />
<rect x="289" y="3" width="10" height="10" class="count1" style="animation-delay: 1728.3462656118545ms" /><rect x="289.5" y="3.5" width="9" height="9" class="st" style="animation-delay: 1728.3462656118545ms" />
<rect x="289" y="16" width="10" height="10" class="count0" style="animation-delay: 1734.8510020473761ms" /><rect x="289.5" y="16.5" width="9" height="9" class="st" style="animation-delay: 1734.8510020473761ms" />
<rect x="289" y="29" width="10" height="10" class="count0" style="animation-delay: 1741.4233231843798ms" /><rect x="289.5" y="29.5" width="9" height="9" class="st" style="animation-delay: 1741.4233231843798ms" />
<rect x="289" y="42" width="10" height="10" class="count0" style="animation-delay: 1748.0650123910998ms" /><rect x="289.5" y="42.5" width="9" height="9" class="st" style="animation-delay: 1748.0650123910998ms" />
<rect x="289" y="55" width="10" height="10" class="count1" style="animation-delay: 1754.7779295420357ms" /><rect x="289.5" y="55.5" width="9" height="9" class="st" style="animation-delay: 1754.7779295420357ms" />
<rect x="289" y="68" width="10" height="10" class="count0" style="animation-delay: 1761.5640156047803ms" /><rect x="289.5" y="68.5" width="9" height="9" class="st" style="animation-delay: 1761.5640156047803ms" />
<rect x="289" y="81" width="10" height="10" class="count1" style="animation-delay: 1768.425297582665ms" /><rect x="289.5" y="81.5" width="9" height="9" class="st" style="animation-delay: 1768.425297582665ms" />
<rect x="302" y="3" width="10" height="10" class="count0" style="animation-delay: 1775.3638938473214ms" /><rect x="302.5" y="3.5" width="9" height="9" class="st" style="animation-delay: 1775.3638938473214ms" />
<rect x="302" y="16" width="10" height="10" class="count0" style="animation-delay: 1782.3820198991414ms" /><rect x="302.5" y="16.5" width="9" height="9" class="st" style="animation-delay: 1782.3820198991414ms" />
<rect x="302" y="29" width="10" height="10" class="count2" style="animation-delay: 1789.4819945980707ms" /><rect x="302.5" y="29.5" width="9" height="9" class="st" style="animation-delay: 1789.4819945980707ms" />
<rect x="302" y="42" width="10" height="10" class="count1" style="animation-delay: 1796.6662469121893ms" /><rect x="302.5" y="42.5" width="9" height="9" class="st" style="animation-delay: 1796.6662469121893ms" />
<rect x="302" y="55" width="10" height="10" class="count0" style="animation-delay: 1803.9373232372852ms" /><rect x="302.5" y="55.5" width="9" height="9" class="st" style="animation-delay: 1803.9373232372852ms" />
<rect x="302" y="68" width="10" height="10" class="count0" style="animation-delay: 1811.2978953471697ms" /><rect x="302.5" y="68.5" width="9" height="9" class="st" style="animation-delay: 1811.2978953471697ms" />
<rect x="302" y="81" width="10" height="10" class="count0" style="animation-delay: 1818.7507690419673ms" /><rect x="302.5" y="81.5" width="9" height="9" class="st" style="animation-delay: 1818.7507690419673ms" />
<rect x="315" y="3" width="10" height="10" class="count0" style="animation-delay: 1826.298893570234ms" /><rect x="315.5" y="3.5" width="9" height="9" class="st" style="animation-delay: 1826.298893570234ms" />
<rect x="315" y="16" width="10" height="10" class="count0" style="animation-delay: 1833.9453719106148ms" /><rect x="315.5" y="16.5" width="9" height="9" class="st" style="animation-delay: 1833.9453719106148ms" />
<rect x="315" y="29" width="10" height="10" class="count1" style="animation-delay: 1841.6934720101674ms" /><rect x="315.5" y="29.5" width="9" height="9" class="st" style="animation-delay: 1841.6934720101674ms" />
<rect x="315" y="42" width="10" height="10" class="count2" style="animation-delay: 1849.5466390896352ms" /><rect x="315.5" y="42.5" width="9" height="9" class="st" style="animation-delay: 1849.5466390896352ms" />
<rect x="315" y="55" width="10" height="10" class="count1" style="animation-delay: 1857.50850914124ms" /><rect x="315.5" y="55.5" width="9" height="9" class="st" style="animation-delay: 1857.50850914124ms" />
<rect x="315" y="68" width="10" height="10" class="count4" style="animation-delay: 1865.5829237623018ms" /><rect x="315.5" y="68.5" width="9" height="9" class="st" style="animation-delay: 1865.5829237623018ms" />
<rect x="315" y="81" width="10" height="10" class="count4" style="animation-delay: 1873.7739464887131ms" /><rect x="315.5" y="81.5" width="9" height="9" class="st" style="animation-delay: 1873.7739464887131ms" />
<rect x="328" y="3" width="10" height="10" class="count1" style="animation-delay: 1882.0858808164949ms" /><rect x="328.5" y="3.5" width="9" height="9" class="st" style="animation-delay: 1882.0858808164949ms" />
<rect x="328" y="16" width="10" height="10" class="count2" style="animation-delay: 1890.5232901281063ms" /><rect x="328.5" y="16.5" width="9" height="9" class="st" style="animation-delay: 1890.5232901281063ms" />
<rect x="328" y="29" width="10" height="10" class="count1" style="animation-delay: 1899.0910197736407ms" /><rect x="328.5" y="29.5" width="9" height="9" class="st" style="animation-delay: 1899.0910197736407ms" />
<rect x="328" y="42" width="10" height="10" class="count2" style="animation-delay: 1907.794221596608ms" /><rect x="328.5" y="42.5" width="9" height="9" class="st" style="animation-delay: 1907.794221596608ms" />
<rect x="328" y="55" width="10" height="10" class="count0" style="animation-delay: 1916.6383812409515ms" /><rect x="328.5" y="55.5" width="9" height="9" class="st" style="animation-delay: 1916.6383812409515ms" />
<rect x="328" y="68" width="10" height="10" class="count0" style="animation-delay: 1925.6293486318352ms" /><rect x="328.5" y="68.5" width="9" height="9" class="st" style="animation-delay: 1925.6293486318352ms" />
<rect x="328" y="81" width="10" height="10" class="count2" style="animation-delay: 1934.7733720895917ms" /><rect x="328.5" y="81.5" width="9" height="9" class="st" style="animation-delay: 1934.7733720895917ms" />
<rect x="341" y="3" width="10" height="10" class="count2" style="animation-delay: 1944.0771366165127ms" /><rect x="341.5" y="3.5" width="9" height="9" class="st" style="animation-delay: 1944.0771366165127ms" />
<rect x="341" y="16" width="10" height="10" class="count1" style="animation-delay: 1953.5478069930143ms" /><rect x="341.5" y="16.5" width="9" height="9" class="st" style="animation-delay: 1953.5478069930143ms" />
<rect x="341" y="29" width="10" height="10" class="count0" style="animation-delay: 1963.1930764371173ms" /><rect x="341.5" y="29.5" width="9" height="9" class="st" style="animation-delay: 1963.1930764371173ms" />
<rect x="341" y="42" width="10" height="10" class="count0" style="animation-delay: 1973.0212217242004ms" /><rect x="341.5" y="42.5" width="9" height="9" class="st" style="animation-delay: 1973.0212217242004ms" />
<rect x="341" y="55" width="10" height="10" class="count2" style="animation-delay: 1983.041165839117ms" /><rect x="341.5" y="55.5" width="9" height="9" class="st" style="animation-delay: 1983.041165839117ms" />
<rect x="341" y="68" width="10" height="10" class="count0" style="animation-delay: 1993.2625494484041ms" /><rect x="341.5" y="68.5" width="9" height="9" class="st" style="animation-delay: 1993.2625494484041ms" />
<rect x="341" y="81" width="10" height="10" class="count0" style="animation-delay: 2003.6958127474252ms" /><rect x="341.5" y="81.5" width="9" height="9" class="st" style="animation-delay: 2003.6958127474252ms" />
<rect x="354" y="3" width="10" height="10" class="count1" style="animation-delay: 2014.352289570102ms" /><rect x="354.5" y="3.5" width="9" height="9" class="st" style="animation-delay: 2014.352289570102ms" />
<rect x="354" y="16" width="10" height="10" class="count1" style="animation-delay: 2025.2443160664434ms" /><rect x="354.5" y="16.5" width="9" height="9" class="st" style="animation-delay: 2025.2443160664434ms" />
<rect x="354" y="29" width="10" height="10" class="count0" style="animation-delay: 2036.3853567804267ms" /><rect x="354.5" y="29.5" width="9" height="9" class="st" style="animation-delay: 2036.3853567804267ms" />
<rect x="354" y="42" width="10" height="10" class="count0" style="animation-delay: 2047.79015163189ms" /><rect x="354.5" y="42.5" width="9" height="9" class="st" style="animation-delay: 2047.79015163189ms" />
<rect x="354" y="55" width="10" height="10" class="count0" style="animation-delay: 2059.474888166751ms" /><rect x="354.5" y="55.5" width="9" height="9" class="st" style="animation-delay: 2059.474888166751ms" />
<rect x="354" y="68" width="10" height="10" class="count0" style="animation-delay: 2071.457404553051ms" /><rect x="354.5" y="68.5" width="9" height="9" class="st" style="animation-delay: 2071.457404553051ms" />
<rect x="354" y="81" width="10" height="10" class="count0" style="animation-delay: 2083.7574302530425ms" /><rect x="354.5" y="81.5" width="9" height="9" class="st" style="animation-delay: 2083.7574302530425ms" />
<rect x="367" y="3" width="10" height="10" class="count0" style="animation-delay: 2096.3968732157773ms" /><rect x="367.5" y="3.5" width="9" height="9" class="st" style="animation-delay: 2096.3968732157773ms" />
<rect x="367" y="16" width="10" height="10" class="count0" style="animation-delay: 2109.4001649834104ms" /><rect x="367.5" y="16.5" width="9" height="9" class="st" style="animation-delay: 2109.4001649834104ms" />
<rect x="367" y="29" width="10" height="10" class="count0" style="animation-delay: 2122.7946785361405ms" /><rect x="367.5" y="29.5" width="9" height="9" class="st" style="animation-delay: 2122.7946785361405ms" />
<rect x="367" y="42" width="10" height="10" class="count0" style="animation-delay: 2136.61123837773ms" /><rect x="367.5" y="42.5" width="9" height="9" class="st" style="animation-delay: 2136.61123837773ms" />
<rect x="367" y="55" width="10" height="10" class="count0" style="animation-delay: 2150.8847488221795ms" /><rect x="367.5" y="55.5" width="9" height="9" class="st" style="animation-delay: 2150.8847488221795ms" />
<rect x="367" y="68" width="10" height="10" class="count0" style="animation-delay: 2165.654975489903ms" /><rect x="367.5" y="68.5" width="9" height="9" class="st" style="animation-delay: 2165.654975489903ms" />
<rect x="367" y="81" width="10" height="10" class="count0" style="animation-delay: 2180.9675278972313ms" /><rect x="367.5" y="81.5" width="9" height="9" class="st" style="animation-delay: 2180.9675278972313ms" />
<rect x="380" y="3" width="10" height="10" class="count0" style="animation-delay: 2196.8751096643105ms" /><rect x="380.5" y="3.5" width="9" height="9" class="st" style="animation-delay: 2196.8751096643105ms" />
<rect x="380" y="16" width="10" height="10" class="count0" style="animation-delay: 2213.4391303747084ms" /><rect x="380.5" y="16.5" width="9" height="9" class="st" style="animation-delay: 2213.4391303747084ms" />
<rect x="380" y="29" width="10" height="10" class="count0" style="animation-delay: 2230.7318145808745ms" /><rect x="380.5" y="29.5" width="9" height="9" class="st" style="animation-delay: 2230.7318145808745ms" />
<rect x="380" y="42" width="10" height="10" class="count0" style="animation-delay: 2248.83900743466ms" /><rect x="380.5" y="42.5" width="9" height="9" class="st" style="animation-delay: 2248.83900743466ms" />
<rect x="380" y="55" width="10" height="10" class="count0" style="animation-delay: 2267.863977828454ms" /><rect x="380.5" y="55.5" width="9" height="9" class="st" style="animation-delay: 2267.863977828454ms" />
<rect x="380" y="68" width="10" height="10" class="count0" style="animation-delay: 2287.9326855636336ms" /><rect x="380.5" y="68.5" width="9" height="9" class="st" style="animation-delay: 2287.9326855636336ms" />
<rect x="380" y="81" width="10" height="10" class="count0" style="animation-delay: 2309.201259085681ms" /><rect x="380.5" y="81.5" width="9" height="9" class="st" style="animation-delay: 2309.201259085681ms" />
<rect x="393" y="3" width="10" height="10" class="count0" style="animation-delay: 2331.8669229943443ms" /><rect x="393.5" y="3.5" width="9" height="9" class="st" style="animation-delay: 2331.8669229943443ms" />
<rect x="393" y="16" width="10" height="10" class="count0" style="animation-delay: 2356.1845227320573ms" /><rect x="393.5" y="16.5" width="9" height="9" class="st" style="animation-delay: 2356.1845227320573ms" />
<rect x="393" y="29" width="10" height="10" class="count0" style="animation-delay: 2382.492563456433ms" /><rect x="393.5" y="29.5" width="9" height="9" class="st" style="animation-delay: 2382.492563456433ms" />
<rect x="393" y="42" width="10" height="10" class="count0" style="animation-delay: 2411.2563673727877ms" /><rect x="393.5" y="42.5" width="9" height="9" class="st" style="animation-delay: 2411.2563673727877ms" />
<rect x="393" y="55" width="10" height="10" class="count1" style="animation-delay: 2443.144302574133ms" /><rect x="393.5" y="55.5" width="9" height="9" class="st" style="animation-delay: 2443.144302574133ms" />
<rect x="393" y="68" width="10" height="10" class="count1" style="animation-delay: 2479.174056952408ms" /><rect x="393.5" y="68.5" width="9" height="9" class="st" style="animation-delay: 2479.174056952408ms" />
<rect x="393" y="81" width="10" height="10" class="count1" style="animation-delay: 2521.026904679834ms" /><rect x="393.5" y="81.5" width="9" height="9" class="st" style="animation-delay: 2521.026904679834ms" />
<rect x="406" y="3" width="10" height="10" class="count0" style="animation-delay: 2571.8442568771584ms" /><rect x="406.5" y="3.5" width="9" height="9" class="st" style="animation-delay: 2571.8442568771584ms" />
<rect x="406" y="16" width="10" height="10" class="count0" style="animation-delay: 2638.87946041365ms" /><rect x="406.5" y="16.5" width="9" height="9" class="st" style="animation-delay: 2638.87946041365ms" />
<rect x="406" y="29" width="10" height="10" class="count1" style="animation-delay: 2749.613002478218ms" /><rect x="406.5" y="29.5" width="9" height="9" class="st" style="animation-delay: 2749.613002478218ms" />
</svg>

  