

<svg height="94" width="432" xmlns="http://www.w3.org/2000/svg" fill='#4FA1A7'>
  <style>
  rect {
  rx: 2;
  ry: 2;
  animation: wow .5s backwards;
  }
  .st {
  
  stroke: rgba(27, 31, 35, 0.06);
  stroke-width: 1;
  fill: none;
  }
  @keyframes wow {
  from {opacity: 0;}
  to{ opacity: 1;}}
  .count0 {fill: #ebedf0}
.count1 {fill: #9be9a8}
.count2 {fill: #9be9a8}
.count3 {fill: #40c463}
.count4 {fill: #40c463}
.count5 {fill: #30a14e}
.count6 {fill: #30a14e}
.count7 {fill: #216e39}
.count8 {fill: #216e39}
  </style>
<rect x="3" y="68" width="10" height="10" class="count3" style="animation-delay: 246.25692151513815ms" /><rect x="3.5" y="68.5" width="9" height="9" class="st" style="animation-delay: 246.25692151513815ms" />
<rect x="3" y="81" width="10" height="10" class="count3" style="animation-delay: 355.1639392404332ms" /><rect x="3.5" y="81.5" width="9" height="9" class="st" style="animation-delay: 355.1639392404332ms" />
<rect x="16" y="3" width="10" height="10" class="count1" style="animation-delay: 421.0934124935374ms" /><rect x="16.5" y="3.5" width="9" height="9" class="st" style="animation-delay: 421.0934124935374ms" />
<rect x="16" y="16" width="10" height="10" class="count2" style="animation-delay: 471.0725441398406ms" /><rect x="16.5" y="16.5" width="9" height="9" class="st" style="animation-delay: 471.0725441398406ms" />
<rect x="16" y="29" width="10" height="10" class="count5" style="animation-delay: 512.2350387582012ms" /><rect x="16.5" y="29.5" width="9" height="9" class="st" style="animation-delay: 512.2350387582012ms" />
<rect x="16" y="42" width="10" height="10" class="count1" style="animation-delay: 547.6704906145577ms" /><rect x="16.5" y="42.5" width="9" height="9" class="st" style="animation-delay: 547.6704906145577ms" />
<rect x="16" y="55" width="10" height="10" class="count3" style="animation-delay: 579.0324416498725ms" /><rect x="16.5" y="55.5" width="9" height="9" class="st" style="animation-delay: 579.0324416498725ms" />
<rect x="16" y="68" width="10" height="10" class="count2" style="animation-delay: 607.3217932280846ms" /><rect x="16.5" y="68.5" width="9" height="9" class="st" style="animation-delay: 607.3217932280846ms" />
<rect x="16" y="81" width="10" height="10" class="count2" style="animation-delay: 633.1958888640446ms" /><rect x="16.5" y="81.5" width="9" height="9" class="st" style="animation-delay: 633.1958888640446ms" />
<rect x="29" y="3" width="10" height="10" class="count2" style="animation-delay: 657.1123753801852ms" /><rect x="29.5" y="3.5" width="9" height="9" class="st" style="animation-delay: 657.1123753801852ms" />
<rect x="29" y="16" width="10" height="10" class="count1" style="animation-delay: 679.4041743693027ms" /><rect x="29.5" y="16.5" width="9" height="9" class="st" style="animation-delay: 679.4041743693027ms" />
<rect x="29" y="29" width="10" height="10" class="count2" style="animation-delay: 700.3219276567999ms" /><rect x="29.5" y="29.5" width="9" height="9" class="st" style="animation-delay: 700.3219276567999ms" />
<rect x="29" y="42" width="10" height="10" class="count2" style="animation-delay: 720.0596066679575ms" /><rect x="29.5" y="42.5" width="9" height="9" class="st" style="animation-delay: 720.0596066679575ms" />
<rect x="29" y="55" width="10" height="10" class="count1" style="animation-delay: 738.7707645454144ms" /><rect x="29.5" y="55.5" width="9" height="9" class="st" style="animation-delay: 738.7707645454144ms" />
<rect x="29" y="68" width="10" height="10" class="count3" style="animation-delay: 756.5792834125581ms" /><rect x="29.5" y="68.5" width="9" height="9" class="st" style="animation-delay: 756.5792834125581ms" />
<rect x="29" y="81" width="10" height="10" class="count2" style="animation-delay: 773.5867287651207ms" /><rect x="29.5" y="81.5" width="9" height="9" class="st" style="animation-delay: 773.5867287651207ms" />
<rect x="42" y="3" width="10" height="10" class="count1" style="animation-delay: 789.8775297588935ms" /><rect x="42.5" y="3.5" width="9" height="9" class="st" style="animation-delay: 789.8775297588935ms" />
<rect x="42" y="16" width="10" height="10" class="count1" style="animation-delay: 805.522719618924ms" /><rect x="42.5" y="16.5" width="9" height="9" class="st" style="animation-delay: 805.522719618924ms" />
<rect x="42" y="29" width="10" height="10" class="count2" style="animation-delay: 820.5826949918059ms" /><rect x="42.5" y="29.5" width="9" height="9" class="st" style="animation-delay: 820.5826949918059ms" />
<rect x="42" y="42" width="10" height="10" class="count1" style="animation-delay: 835.1092901635781ms" /><rect x="42.5" y="42.5" width="9" height="9" class="st" style="animation-delay: 835.1092901635781ms" />
<rect x="42" y="55" width="10" height="10" class="count1" style="animation-delay: 849.1473623320763ms" /><rect x="42.5" y="55.5" width="9" height="9" class="st" style="animation-delay: 849.1473623320763ms" />
<rect x="42" y="68" width="10" height="10" class="count1" style="animation-delay: 862.7360211929407ms" /><rect x="42.5" y="68.5" width="9" height="9" class="st" style="animation-delay: 862.7360211929407ms" />
<rect x="42" y="81" width="10" height="10" class="count1" style="animation-delay: 875.9095953215298ms" /><rect x="42.5" y="81.5" width="9" height="9" class="st" style="animation-delay: 875.9095953215298ms" />
<rect x="55" y="3" width="10" height="10" class="count1" style="animation-delay: 888.6984007784981ms" /><rect x="55.5" y="3.5" width="9" height="9" class="st" style="animation-delay: 888.6984007784981ms" />
<rect x="55" y="16" width="10" height="10" class="count1" style="animation-delay: 901.1293590330237ms" /><rect x="55.5" y="16.5" width="9" height="9" class="st" style="animation-delay: 901.1293590330237ms" />
<rect x="55" y="29" width="10" height="10" class="count2" style="animation-delay: 913.2264986345858ms" /><rect x="55.5" y="29.5" width="9" height="9" class="st" style="animation-delay: 913.2264986345858ms" />
<rect x="55" y="42" width="10" height="10" class="count3" style="animation-delay: 925.0113661656501ms" /><rect x="55.5" y="42.5" width="9" height="9" class="st" style="animation-delay: 925.0113661656501ms" />
<rect x="55" y="55" width="10" height="10" class="count3" style="animation-delay: 936.5033656555194ms" /><rect x="55.5" y="55.5" width="9" height="9" class="st" style="animation-delay: 936.5033656555194ms" />
<rect x="55" y="68" width="10" height="10" class="count1" style="animation-delay: 947.7200410357525ms" /><rect x="55.5" y="68.5" width="9" height="9" class="st" style="animation-delay: 947.7200410357525ms" />
<rect x="55" y="81" width="10" height="10" class="count2" style="animation-delay: 958.6773128424156ms" /><rect x="55.5" y="81.5" width="9" height="9" class="st" style="animation-delay: 958.6773128424156ms" />
<rect x="68" y="3" width="10" height="10" class="count0" style="animation-delay: 969.3896778637543ms" /><rect x="68.5" y="3.5" width="9" height="9" class="st" style="animation-delay: 969.3896778637543ms" />
<rect x="68" y="16" width="10" height="10" class="count2" style="animation-delay: 979.8703785491865ms" /><rect x="68.5" y="16.5" width="9" height="9" class="st" style="animation-delay: 979.8703785491865ms" />
<rect x="68" y="29" width="10" height="10" class="count2" style="animation-delay: 990.1315475667598ms" /><rect x="68.5" y="29.5" width="9" height="9" class="st" style="animation-delay: 990.1315475667598ms" />
<rect x="68" y="42" width="10" height="10" class="count1" style="animation-delay: 1000.1843318014102ms" /><rect x="68.5" y="42.5" width="9" height="9" class="st" style="animation-delay: 1000.1843318014102ms" />
<rect x="68" y="55" width="10" height="10" class="count2" style="animation-delay: 1010.0389992398755ms" /><rect x="68.5" y="55.5" width="9" height="9" class="st" style="animation-delay: 1010.0389992398755ms" />
<rect x="68" y="68" width="10" height="10" class="count2" style="animation-delay: 1019.7050315281144ms" /><rect x="68.5" y="68.5" width="9" height="9" class="st" style="animation-delay: 1019.7050315281144ms" />
<rect x="68" y="81" width="10" height="10" class="count1" style="animation-delay: 1029.1912044683936ms" /><rect x="68.5" y="81.5" width="9" height="9" class="st" style="animation-delay: 1029.1912044683936ms" />
<rect x="81" y="3" width="10" height="10" class="count1" style="animation-delay: 1038.5056583125831ms" /><rect x="81.5" y="3.5" width="9" height="9" class="st" style="animation-delay: 1038.5056583125831ms" />
<rect x="81" y="16" width="10" height="10" class="count3" style="animation-delay: 1047.6559593808404ms" /><rect x="81.5" y="16.5" width="9" height="9" class="st" style="animation-delay: 1047.6559593808404ms" />
<rect x="81" y="29" width="10" height="10" class="count5" style="animation-delay: 1056.6491542721744ms" /><rect x="81.5" y="29.5" width="9" height="9" class="st" style="animation-delay: 1056.6491542721744ms" />
<rect x="81" y="42" width="10" height="10" class="count2" style="animation-delay: 1065.4918177212994ms" /><rect x="81.5" y="42.5" width="9" height="9" class="st" style="animation-delay: 1065.4918177212994ms" />
<rect x="81" y="55" width="10" height="10" class="count4" style="animation-delay: 1074.1900949839398ms" /><rect x="81.5" y="55.5" width="9" height="9" class="st" style="animation-delay: 1074.1900949839398ms" />
<rect x="81" y="68" width="10" height="10" class="count5" style="animation-delay: 1082.7497394920872ms" /><rect x="81.5" y="68.5" width="9" height="9" class="st" style="animation-delay: 1082.7497394920872ms" />
<rect x="81" y="81" width="10" height="10" class="count5" style="animation-delay: 1091.1761464052488ms" /><rect x="81.5" y="81.5" width="9" height="9" class="st" style="animation-delay: 1091.1761464052488ms" />
<rect x="94" y="3" width="10" height="10" class="count5" style="animation-delay: 1099.4743825884593ms" /><rect x="94.5" y="3.5" width="9" height="9" class="st" style="animation-delay: 1099.4743825884593ms" />
<rect x="94" y="16" width="10" height="10" class="count3" style="animation-delay: 1107.649213468875ms" /><rect x="94.5" y="16.5" width="9" height="9" class="st" style="animation-delay: 1107.649213468875ms" />
<rect x="94" y="29" width="10" height="10" class="count5" style="animation-delay: 1115.705127157009ms" /><rect x="94.5" y="29.5" width="9" height="9" class="st" style="animation-delay: 1115.705127157009ms" />
<rect x="94" y="42" width="10" height="10" class="count6" style="animation-delay: 1123.6463561637054ms" /><rect x="94.5" y="42.5" width="9" height="9" class="st" style="animation-delay: 1123.6463561637054ms" />
<rect x="94" y="55" width="10" height="10" class="count2" style="animation-delay: 1131.4768969977642ms" /><rect x="94.5" y="55.5" width="9" height="9" class="st" style="animation-delay: 1131.4768969977642ms" />
<rect x="94" y="68" width="10" height="10" class="count2" style="animation-delay: 1139.2005278902413ms" /><rect x="94.5" y="68.5" width="9" height="9" class="st" style="animation-delay: 1139.2005278902413ms" />
<rect x="94" y="81" width="10" height="10" class="count1" style="animation-delay: 1146.8208248585013ms" /><rect x="94.5" y="81.5" width="9" height="9" class="st" style="animation-delay: 1146.8208248585013ms" />
<rect x="107" y="3" width="10" height="10" class="count4" style="animation-delay: 1154.3411762951632ms" /><rect x="107.5" y="3.5" width="9" height="9" class="st" style="animation-delay: 1154.3411762951632ms" />
<rect x="107" y="16" width="10" height="10" class="count1" style="animation-delay: 1161.7647962432482ms" /><rect x="107.5" y="16.5" width="9" height="9" class="st" style="animation-delay: 1161.7647962432482ms" />
<rect x="107" y="29" width="10" height="10" class="count0" style="animation-delay: 1169.0947364984818ms" /><rect x="107.5" y="29.5" width="9" height="9" class="st" style="animation-delay: 1169.0947364984818ms" />
<rect x="107" y="42" width="10" height="10" class="count1" style="animation-delay: 1176.3338976622426ms" /><rect x="107.5" y="42.5" width="9" height="9" class="st" style="animation-delay: 1176.3338976622426ms" />
<rect x="107" y="55" width="10" height="10" class="count4" style="animation-delay: 1183.485039253627ms" /><rect x="107.5" y="55.5" width="9" height="9" class="st" style="animation-delay: 1183.485039253627ms" />
<rect x="107" y="68" width="10" height="10" class="count4" style="animation-delay: 1190.5507889761498ms" /><rect x="107.5" y="68.5" width="9" height="9" class="st" style="animation-delay: 1190.5507889761498ms" />
<rect x="107" y="81" width="10" height="10" class="count5" style="animation-delay: 1197.5336512233857ms" /><rect x="107.5" y="81.5" width="9" height="9" class="st" style="animation-delay: 1197.5336512233857ms" />
<rect x="120" y="3" width="10" height="10" class="count3" style="animation-delay: 1204.4360148981452ms" /><rect x="120.5" y="3.5" width="9" height="9" class="st" style="animation-delay: 1204.4360148981452ms" />
<rect x="120" y="16" width="10" height="10" class="count4" style="animation-delay: 1211.2601606113112ms" /><rect x="120.5" y="16.5" width="9" height="9" class="st" style="animation-delay: 1211.2601606113112ms" />
<rect x="120" y="29" width="10" height="10" class="count6" style="animation-delay: 1218.0082673191055ms" /><rect x="120.5" y="29.5" width="9" height="9" class="st" style="animation-delay: 1218.0082673191055ms" />
<rect x="120" y="42" width="10" height="10" class="count6" style="animation-delay: 1224.682418451106ms" /><rect x="120.5" y="42.5" width="9" height="9" class="st" style="animation-delay: 1224.682418451106ms" />
<rect x="120" y="55" width="10" height="10" class="count6" style="animation-delay: 1231.2846075756906ms" /><rect x="120.5" y="55.5" width="9" height="9" class="st" style="animation-delay: 1231.2846075756906ms" />
<rect x="120" y="68" width="10" height="10" class="count8" style="animation-delay: 1237.8167436446365ms" /><rect x="120.5" y="68.5" width="9" height="9" class="st" style="animation-delay: 1237.8167436446365ms" />
<rect x="120" y="81" width="10" height="10" class="count7" style="animation-delay: 1244.280655854242ms" /><rect x="120.5" y="81.5" width="9" height="9" class="st" style="animation-delay: 1244.280655854242ms" />
<rect x="133" y="3" width="10" height="10" class="count5" style="animation-delay: 1250.6780981564907ms" /><rect x="133.5" y="3.5" width="9" height="9" class="st" style="animation-delay: 1250.6780981564907ms" />
<rect x="133" y="16" width="10" height="10" class="count5" style="animation-delay: 1257.0107534503918ms" /><rect x="133.5" y="16.5" width="9" height="9" class="st" style="animation-delay: 1257.0107534503918ms" />
<rect x="133" y="29" width="10" height="10" class="count5" style="animation-delay: 1263.2802374806122ms" /><rect x="133.5" y="29.5" width="9" height="9" class="st" style="animation-delay: 1263.2802374806122ms" />
<rect x="133" y="42" width="10" height="10" class="count5" style="animation-delay: 1269.4881024678627ms" /><rect x="133.5" y="42.5" width="9" height="9" class="st" style="animation-delay: 1269.4881024678627ms" />
<rect x="133" y="55" width="10" height="10" class="count7" style="animation-delay: 1275.6358404931207ms" /><rect x="133.5" y="55.5" width="9" height="9" class="st" style="animation-delay: 1275.6358404931207ms" />
<rect x="133" y="68" width="10" height="10" class="count3" style="animation-delay: 1281.72488665567ms" /><rect x="133.5" y="68.5" width="9" height="9" class="st" style="animation-delay: 1281.72488665567ms" />
<rect x="133" y="81" width="10" height="10" class="count5" style="animation-delay: 1287.7566220230551ms" /><rect x="133.5" y="81.5" width="9" height="9" class="st" style="animation-delay: 1287.7566220230551ms" />
<rect x="146" y="3" width="10" height="10" class="count6" style="animation-delay: 1293.732376389366ms" /><rect x="146.5" y="3.5" width="9" height="9" class="st" style="animation-delay: 1293.732376389366ms" />
<rect x="146" y="16" width="10" height="10" class="count4" style="animation-delay: 1299.6534308567689ms" /><rect x="146.5" y="16.5" width="9" height="9" class="st" style="animation-delay: 1299.6534308567689ms" />
<rect x="146" y="29" width="10" height="10" class="count3" style="animation-delay: 1305.521020253852ms" /><rect x="146.5" y="29.5" width="9" height="9" class="st" style="animation-delay: 1305.521020253852ms" />
<rect x="146" y="42" width="10" height="10" class="count3" style="animation-delay: 1311.3363354031428ms" /><rect x="146.5" y="42.5" width="9" height="9" class="st" style="animation-delay: 1311.3363354031428ms" />
<rect x="146" y="55" width="10" height="10" class="count3" style="animation-delay: 1317.1005252490706ms" /><rect x="146.5" y="55.5" width="9" height="9" class="st" style="animation-delay: 1317.1005252490706ms" />
<rect x="146" y="68" width="10" height="10" class="count3" style="animation-delay: 1322.8146988566666ms" /><rect x="146.5" y="68.5" width="9" height="9" class="st" style="animation-delay: 1322.8146988566666ms" />
<rect x="146" y="81" width="10" height="10" class="count3" style="animation-delay: 1328.4799272904163ms" /><rect x="146.5" y="81.5" width="9" height="9" class="st" style="animation-delay: 1328.4799272904163ms" />
<rect x="159" y="3" width="10" height="10" class="count1" style="animation-delay: 1334.0972453818774ms" /><rect x="159.5" y="3.5" width="9" height="9" class="st" style="animation-delay: 1334.0972453818774ms" />
<rect x="159" y="16" width="10" height="10" class="count3" style="animation-delay: 1339.667653393962ms" /><rect x="159.5" y="16.5" width="9" height="9" class="st" style="animation-delay: 1339.667653393962ms" />
<rect x="159" y="29" width="10" height="10" class="count1" style="animation-delay: 1345.1921185891238ms" /><rect x="159.5" y="29.5" width="9" height="9" class="st" style="animation-delay: 1345.1921185891238ms" />
<rect x="159" y="42" width="10" height="10" class="count0" style="animation-delay: 1350.6715767081146ms" /><rect x="159.5" y="42.5" width="9" height="9" class="st" style="animation-delay: 1350.6715767081146ms" />
<rect x="159" y="55" width="10" height="10" class="count1" style="animation-delay: 1356.1069333654161ms" /><rect x="159.5" y="55.5" width="9" height="9" class="st" style="animation-delay: 1356.1069333654161ms" />
<rect x="159" y="68" width="10" height="10" class="count0" style="animation-delay: 1361.4990653669904ms" /><rect x="159.5" y="68.5" width="9" height="9" class="st" style="animation-delay: 1361.4990653669904ms" />
<rect x="159" y="81" width="10" height="10" class="count0" style="animation-delay: 1366.8488219555336ms" /><rect x="159.5" y="81.5" width="9" height="9" class="st" style="animation-delay: 1366.8488219555336ms" />
<rect x="172" y="3" width="10" height="10" class="count0" style="animation-delay: 1372.1570259880198ms" /><rect x="172.5" y="3.5" width="9" height="9" class="st" style="animation-delay: 1372.1570259880198ms" />
<rect x="172" y="16" width="10" height="10" class="count2" style="animation-delay: 1377.424475049957ms" /><rect x="172.5" y="16.5" width="9" height="9" class="st" style="animation-delay: 1377.424475049957ms" />
<rect x="172" y="29" width="10" height="10" class="count0" style="animation-delay: 1382.6519425104348ms" /><rect x="172.5" y="29.5" width="9" height="9" class="st" style="animation-delay: 1382.6519425104348ms" />
<rect x="172" y="42" width="10" height="10" class="count1" style="animation-delay: 1387.8401785217422ms" /><rect x="172.5" y="42.5" width="9" height="9" class="st" style="animation-delay: 1387.8401785217422ms" />
<rect x="172" y="55" width="10" height="10" class="count1" style="animation-delay: 1392.9899109670569ms" /><rect x="172.5" y="55.5" width="9" height="9" class="st" style="animation-delay: 1392.9899109670569ms" />
<rect x="172" y="68" width="10" height="10" class="count1" style="animation-delay: 1398.1018463594366ms" /><rect x="172.5" y="68.5" width="9" height="9" class="st" style="animation-delay: 1398.1018463594366ms" />
<rect x="172" y="81" width="10" height="10" class="count1" style="animation-delay: 1403.1766706951285ms" /><rect x="172.5" y="81.5" width="9" height="9" class="st" style="animation-delay: 1403.1766706951285ms" />
<rect x="185" y="3" width="10" height="10" class="count0" style="animation-delay: 1408.2150502639763ms" /><rect x="185.5" y="3.5" width="9" height="9" class="st" style="animation-delay: 1408.2150502639763ms" />
<rect x="185" y="16" width="10" height="10" class="count3" style="animation-delay: 1413.2176324195218ms" /><rect x="185.5" y="16.5" width="9" height="9" class="st" style="animation-delay: 1413.2176324195218ms" />
<rect x="185" y="29" width="10" height="10" class="count0" style="animation-delay: 1418.1850463112075ms" /><rect x="185.5" y="29.5" width="9" height="9" class="st" style="animation-delay: 1418.1850463112075ms" />
<rect x="185" y="42" width="10" height="10" class="count0" style="animation-delay: 1423.117903580921ms" /><rect x="185.5" y="42.5" width="9" height="9" class="st" style="animation-delay: 1423.117903580921ms" />
<rect x="185" y="55" width="10" height="10" class="count2" style="animation-delay: 1428.0167990259688ms" /><rect x="185.5" y="55.5" width="9" height="9" class="st" style="animation-delay: 1428.0167990259688ms" />
<rect x="185" y="68" width="10" height="10" class="count1" style="animation-delay: 1432.8823112304249ms" /><rect x="185.5" y="68.5" width="9" height="9" class="st" style="animation-delay: 1432.8823112304249ms" />
<rect x="185" y="81" width="10" height="10" class="count0" style="animation-delay: 1437.7150031666663ms" /><rect x="185.5" y="81.5" width="9" height="9" class="st" style="animation-delay: 1437.7150031666663ms" />
<rect x="198" y="3" width="10" height="10" class="count0" style="animation-delay: 1442.515422768786ms" /><rect x="198.5" y="3.5" width="9" height="9" class="st" style="animation-delay: 1442.515422768786ms" />
<rect x="198" y="16" width="10" height="10" class="count0" style="animation-delay: 1447.2841034794712ms" /><rect x="198.5" y="16.5" width="9" height="9" class="st" style="animation-delay: 1447.2841034794712ms" />
<rect x="198" y="29" width="10" height="10" class="count0" style="animation-delay: 1452.0215647718123ms" /><rect x="198.5" y="29.5" width="9" height="9" class="st" style="animation-delay: 1452.0215647718123ms" />
<rect x="198" y="42" width="10" height="10" class="count0" style="animation-delay: 1456.7283126474354ms" /><rect x="198.5" y="42.5" width="9" height="9" class="st" style="animation-delay: 1456.7283126474354ms" />
<rect x="198" y="55" width="10" height="10" class="count0" style="animation-delay: 1461.4048401122423ms" /><rect x="198.5" y="55.5" width="9" height="9" class="st" style="animation-delay: 1461.4048401122423ms" />
<rect x="198" y="68" width="10" height="10" class="count0" style="animation-delay: 1466.0516276309736ms" /><rect x="198.5" y="68.5" width="9" height="9" class="st" style="animation-delay: 1466.0516276309736ms" />
<rect x="198" y="81" width="10" height="10" class="count0" style="animation-delay: 1470.6691435617254ms" /><rect x="198.5" y="81.5" width="9" height="9" class="st" style="animation-delay: 1470.6691435617254ms" />
<rect x="211" y="3" width="10" height="10" class="count0" style="animation-delay: 1475.2578445714857ms" /><rect x="211.5" y="3.5" width="9" height="9" class="st" style="animation-delay: 1475.2578445714857ms" />
<rect x="211" y="16" width="10" height="10" class="count0" style="animation-delay: 1479.8181760336856ms" /><rect x="211.5" y="16.5" width="9" height="9" class="st" style="animation-delay: 1479.8181760336856ms" />
<rect x="211" y="29" width="10" height="10" class="count0" style="animation-delay: 1484.3505724087045ms" /><rect x="211.5" y="29.5" width="9" height="9" class="st" style="animation-delay: 1484.3505724087045ms" />
<rect x="211" y="42" width="10" height="10" class="count0" style="animation-delay: 1488.8554576082058ms" /><rect x="211.5" y="42.5" width="9" height="9" class="st" style="animation-delay: 1488.8554576082058ms" />
<rect x="211" y="55" width="10" height="10" class="count0" style="animation-delay: 1493.3332453441317ms" /><rect x="211.5" y="55.5" width="9" height="9" class="st" style="animation-delay: 1493.3332453441317ms" />
<rect x="211" y="68" width="10" height="10" class="count0" style="animation-delay: 1497.7843394631354ms" /><rect x="211.5" y="68.5" width="9" height="9" class="st" style="animation-delay: 1497.7843394631354ms" />
<rect x="211" y="81" width="10" height="10" class="count0" style="animation-delay: 1502.2156605368643ms" /><rect x="211.5" y="81.5" width="9" height="9" class="st" style="animation-delay: 1502.2156605368643ms" />
<rect x="224" y="3" width="10" height="10" class="count0" style="animation-delay: 1506.6667546558683ms" /><rect x="224.5" y="3.5" width="9" height="9" class="st" style="animation-delay: 1506.6667546558683ms" />
<rect x="224" y="16" width="10" height="10" class="count0" style="animation-delay: 1511.1445423917944ms" /><rect x="224.5" y="16.5" width="9" height="9" class="st" style="animation-delay: 1511.1445423917944ms" />
<rect x="224" y="29" width="10" height="10" class="count0" style="animation-delay: 1515.6494275912955ms" /><rect x="224.5" y="29.5" width="9" height="9" class="st" style="animation-delay: 1515.6494275912955ms" />
<rect x="224" y="42" width="10" height="10" class="count0" style="animation-delay: 1520.1818239663144ms" /><rect x="224.5" y="42.5" width="9" height="9" class="st" style="animation-delay: 1520.1818239663144ms" />
<rect x="224" y="55" width="10" height="10" class="count0" style="animation-delay: 1524.7421554285143ms" /><rect x="224.5" y="55.5" width="9" height="9" class="st" style="animation-delay: 1524.7421554285143ms" />
<rect x="224" y="68" width="10" height="10" class="count0" style="animation-delay: 1529.3308564382746ms" /><rect x="224.5" y="68.5" width="9" height="9" class="st" style="animation-delay: 1529.3308564382746ms" />
<rect x="224" y="81" width="10" height="10" class="count0" style="animation-delay: 1533.9483723690266ms" /><rect x="224.5" y="81.5" width="9" height="9" class="st" style="animation-delay: 1533.9483723690266ms" />
<rect x="237" y="3" width="10" height="10" class="count1" style="animation-delay: 1538.5951598877577ms" /><rect x="237.5" y="3.5" width="9" height="9" class="st" style="animation-delay: 1538.5951598877577ms" />
<rect x="237" y="16" width="10" height="10" class="count1" style="animation-delay: 1543.2716873525646ms" /><rect x="237.5" y="16.5" width="9" height="9" class="st" style="animation-delay: 1543.2716873525646ms" />
<rect x="237" y="29" width="10" height="10" class="count1" style="animation-delay: 1547.978435228188ms" /><rect x="237.5" y="29.5" width="9" height="9" class="st" style="animation-delay: 1547.978435228188ms" />
<rect x="237" y="42" width="10" height="10" class="count0" style="animation-delay: 1552.7158965205288ms" /><rect x="237.5" y="42.5" width="9" height="9" class="st" style="animation-delay: 1552.7158965205288ms" />
<rect x="237" y="55" width="10" height="10" class="count0" style="animation-delay: 1557.484577231214ms" /><rect x="237.5" y="55.5" width="9" height="9" class="st" style="animation-delay: 1557.484577231214ms" />
<rect x="237" y="68" width="10" height="10" class="count0" style="animation-delay: 1562.2849968333337ms" /><rect x="237.5" y="68.5" width="9" height="9" class="st" style="animation-delay: 1562.2849968333337ms" />
<rect x="237" y="81" width="10" height="10" class="count0" style="animation-delay: 1567.1176887695751ms" /><rect x="237.5" y="81.5" width="9" height="9" class="st" style="animation-delay: 1567.1176887695751ms" />
<rect x="250" y="3" width="10" height="10" class="count0" style="animation-delay: 1571.9832009740312ms" /><rect x="250.5" y="3.5" width="9" height="9" class="st" style="animation-delay: 1571.9832009740312ms" />
<rect x="250" y="16" width="10" height="10" class="count0" style="animation-delay: 1576.882096419079ms" /><rect x="250.5" y="16.5" width="9" height="9" class="st" style="animation-delay: 1576.882096419079ms" />
<rect x="250" y="29" width="10" height="10" class="count1" style="animation-delay: 1581.8149536887922ms" /><rect x="250.5" y="29.5" width="9" height="9" class="st" style="animation-delay: 1581.8149536887922ms" />
<rect x="250" y="42" width="10" height="10" class="count1" style="animation-delay: 1586.782367580478ms" /><rect x="250.5" y="42.5" width="9" height="9" class="st" style="animation-delay: 1586.782367580478ms" />
<rect x="250" y="55" width="10" height="10" class="count0" style="animation-delay: 1591.7849497360237ms" /><rect x="250.5" y="55.5" width="9" height="9" class="st" style="animation-delay: 1591.7849497360237ms" />
<rect x="250" y="68" width="10" height="10" class="count0" style="animation-delay: 1596.8233293048715ms" /><rect x="250.5" y="68.5" width="9" height="9" class="st" style="animation-delay: 1596.8233293048715ms" />
<rect x="250" y="81" width="10" height="10" class="count0" style="animation-delay: 1601.8981536405634ms" /><rect x="250.5" y="81.5" width="9" height="9" class="st" style="animation-delay: 1601.8981536405634ms" />
<rect x="263" y="3" width="10" height="10" class="count0" style="animation-delay: 1607.0100890329434ms" /><rect x="263.5" y="3.5" width="9" height="9" class="st" style="animation-delay: 1607.0100890329434ms" />
<rect x="263" y="16" width="10" height="10" class="count0" style="animation-delay: 1612.1598214782578ms" /><rect x="263.5" y="16.5" width="9" height="9" class="st" style="animation-delay: 1612.1598214782578ms" />
<rect x="263" y="29" width="10" height="10" class="count0" style="animation-delay: 1617.3480574895652ms" /><rect x="263.5" y="29.5" width="9" height="9" class="st" style="animation-delay: 1617.3480574895652ms" />
<rect x="263" y="42" width="10" height="10" class="count2" style="animation-delay: 1622.575524950043ms" /><rect x="263.5" y="42.5" width="9" height="9" class="st" style="animation-delay: 1622.575524950043ms" />
<rect x="263" y="55" width="10" height="10" class="count1" style="animation-delay: 1627.8429740119802ms" /><rect x="263.5" y="55.5" width="9" height="9" class="st" style="animation-delay: 1627.8429740119802ms" />
<rect x="263" y="68" width="10" height="10" class="count3" style="animation-delay: 1633.1511780444664ms" /><rect x="263.5" y="68.5" width="9" height="9" class="st" style="animation-delay: 1633.1511780444664ms" />
<rect x="263" y="81" width="10" height="10" class="count0" style="animation-delay: 1638.5009346330098ms" /><rect x="263.5" y="81.5" width="9" height="9" class="st" style="animation-delay: 1638.5009346330098ms" />
<rect x="276" y="3" width="10" height="10" class="count0" style="animation-delay: 1643.8930666345836ms" /><rect x="276.5" y="3.5" width="9" height="9" class="st" style="animation-delay: 1643.8930666345836ms" />
<rect x="276" y="16" width="10" height="10" class="count1" style="animation-delay: 1649.3284232918854ms" /><rect x="276.5" y="16.5" width="9" height="9" class="st" style="animation-delay: 1649.3284232918854ms" />
<rect x="276" y="29" width="10" height="10" class="count0" style="animation-delay: 1654.8078814108762ms" /><rect x="276.5" y="29.5" width="9" height="9" class="st" style="animation-delay: 1654.8078814108762ms" />
<rect x="276" y="42" width="10" height="10" class="count0" style="animation-delay: 1660.332346606038ms" /><rect x="276.5" y="42.5" width="9" height="9" class="st" style="animation-delay: 1660.332346606038ms" />
<rect x="276" y="55" width="10" height="10" class="count0" style="animation-delay: 1665.9027546181226ms" /><rect x="276.5" y="55.5" width="9" height="9" class="st" style="animation-delay: 1665.9027546181226ms" />
<rect x="276" y="68" width="10" height="10" class="count0" style="animation-delay: 1671.5200727095835ms" /><rect x="276.5" y="68.5" width="9" height="9" class="st" style="animation-delay: 1671.5200727095835ms" />
<rect x="276" y="81" width="10" height="10" class="count0" style="animation-delay: 1677.1853011433334ms" /><rect x="276.5" y="81.5" width="9" height="9" class="st" style="animation-delay: 1677.1853011433334ms" />
<rect x="289" y="3" width="10" height="10" class="count1" style="animation-delay: 1682.8994747509296ms" /><rect x="289.5" y="3.5" width="9" height="9" class="st" style="animation-delay: 1682.8994747509296ms" />
<rect x="289" y="16" width="10" height="10" class="count0" style="animation-delay: 1688.6636645968572ms" /><rect x="289.5" y="16.5" width="9" height="9" class="st" style="animation-delay: 1688.6636645968572ms" />
<rect x="289" y="29" width="10" height="10" class="count0" style="animation-delay: 1694.478979746148ms" /><rect x="289.5" y="29.5" width="9" height="9" class="st" style="animation-delay: 1694.478979746148ms" />
<rect x="289" y="42" width="10" height="10" class="count0" style="animation-delay: 1700.3465691432311ms" /><rect x="289.5" y="42.5" width="9" height="9" class="st" style="animation-delay: 1700.3465691432311ms" />
<rect x="289" y="55" width="10" height="10" class="count1" style="animation-delay: 1706.267623610634ms" /><rect x="289.5" y="55.5" width="9" height="9" class="st" style="animation-delay: 1706.267623610634ms" />
<rect x="289" y="68" width="10" height="10" class="count0" style="animation-delay: 1712.243377976945ms" /><rect x="289.5" y="68.5" width="9" height="9" class="st" style="animation-delay: 1712.243377976945ms" />
<rect x="289" y="81" width="10" height="10" class="count1" style="animation-delay: 1718.27511334433ms" /><rect x="289.5" y="81.5" width="9" height="9" class="st" style="animation-delay: 1718.27511334433ms" />
<rect x="302" y="3" width="10" height="10" class="count0" style="animation-delay: 1724.3641595068793ms" /><rect x="302.5" y="3.5" width="9" height="9" class="st" style="animation-delay: 1724.3641595068793ms" />
<rect x="302" y="16" width="10" height="10" class="count0" style="animation-delay: 1730.5118975321375ms" /><rect x="302.5" y="16.5" width="9" height="9" class="st" style="animation-delay: 1730.5118975321375ms" />
<rect x="302" y="29" width="10" height="10" class="count2" style="animation-delay: 1736.7197625193878ms" /><rect x="302.5" y="29.5" width="9" height="9" class="st" style="animation-delay: 1736.7197625193878ms" />
<rect x="302" y="42" width="10" height="10" class="count1" style="animation-delay: 1742.9892465496084ms" /><rect x="302.5" y="42.5" width="9" height="9" class="st" style="animation-delay: 1742.9892465496084ms" />
<rect x="302" y="55" width="10" height="10" class="count0" style="animation-delay: 1749.3219018435093ms" /><rect x="302.5" y="55.5" width="9" height="9" class="st" style="animation-delay: 1749.3219018435093ms" />
<rect x="302" y="68" width="10" height="10" class="count0" style="animation-delay: 1755.719344145758ms" /><rect x="302.5" y="68.5" width="9" height="9" class="st" style="animation-delay: 1755.719344145758ms" />
<rect x="302" y="81" width="10" height="10" class="count0" style="animation-delay: 1762.1832563553633ms" /><rect x="302.5" y="81.5" width="9" height="9" class="st" style="animation-delay: 1762.1832563553633ms" />
<rect x="315" y="3" width="10" height="10" class="count0" style="animation-delay: 1768.7153924243091ms" /><rect x="315.5" y="3.5" width="9" height="9" class="st" style="animation-delay: 1768.7153924243091ms" />
<rect x="315" y="16" width="10" height="10" class="count0" style="animation-delay: 1775.3175815488937ms" /><rect x="315.5" y="16.5" width="9" height="9" class="st" style="animation-delay: 1775.3175815488937ms" />
<rect x="315" y="29" width="10" height="10" class="count1" style="animation-delay: 1781.9917326808943ms" /><rect x="315.5" y="29.5" width="9" height="9" class="st" style="animation-delay: 1781.9917326808943ms" />
<rect x="315" y="42" width="10" height="10" class="count2" style="animation-delay: 1788.7398393886888ms" /><rect x="315.5" y="42.5" width="9" height="9" class="st" style="animation-delay: 1788.7398393886888ms" />
<rect x="315" y="55" width="10" height="10" class="count1" style="animation-delay: 1795.563985101855ms" /><rect x="315.5" y="55.5" width="9" height="9" class="st" style="animation-delay: 1795.563985101855ms" />
<rect x="315" y="68" width="10" height="10" class="count4" style="animation-delay: 1802.4663487766143ms" /><rect x="315.5" y="68.5" width="9" height="9" class="st" style="animation-delay: 1802.4663487766143ms" />
<rect x="315" y="81" width="10" height="10" class="count4" style="animation-delay: 1809.4492110238505ms" /><rect x="315.5" y="81.5" width="9" height="9" class="st" style="animation-delay: 1809.4492110238505ms" />
<rect x="328" y="3" width="10" height="10" class="count1" style="animation-delay: 1816.514960746373ms" /><rect x="328.5" y="3.5" width="9" height="9" class="st" style="animation-delay: 1816.514960746373ms" />
<rect x="328" y="16" width="10" height="10" class="count2" style="animation-delay: 1823.6661023377571ms" /><rect x="328.5" y="16.5" width="9" height="9" class="st" style="animation-delay: 1823.6661023377571ms" />
<rect x="328" y="29" width="10" height="10" class="count1" style="animation-delay: 1830.9052635015182ms" /><rect x="328.5" y="29.5" width="9" height="9" class="st" style="animation-delay: 1830.9052635015182ms" />
<rect x="328" y="42" width="10" height="10" class="count2" style="animation-delay: 1838.2352037567518ms" /><rect x="328.5" y="42.5" width="9" height="9" class="st" style="animation-delay: 1838.2352037567518ms" />
<rect x="328" y="55" width="10" height="10" class="count0" style="animation-delay: 1845.658823704837ms" /><rect x="328.5" y="55.5" width="9" height="9" class="st" style="animation-delay: 1845.658823704837ms" />
<rect x="328" y="68" width="10" height="10" class="count0" style="animation-delay: 1853.1791751414987ms" /><rect x="328.5" y="68.5" width="9" height="9" class="st" style="animation-delay: 1853.1791751414987ms" />
<rect x="328" y="81" width="10" height="10" class="count2" style="animation-delay: 1860.7994721097587ms" /><rect x="328.5" y="81.5" width="9" height="9" class="st" style="animation-delay: 1860.7994721097587ms" />
<rect x="341" y="3" width="10" height="10" class="count2" style="animation-delay: 1868.523103002236ms" /><rect x="341.5" y="3.5" width="9" height="9" class="st" style="animation-delay: 1868.523103002236ms" />
<rect x="341" y="16" width="10" height="10" class="count1" style="animation-delay: 1876.3536438362949ms" /><rect x="341.5" y="16.5" width="9" height="9" class="st" style="animation-delay: 1876.3536438362949ms" />
<rect x="341" y="29" width="10" height="10" class="count0" style="animation-delay: 1884.2948728429908ms" /><rect x="341.5" y="29.5" width="9" height="9" class="st" style="animation-delay: 1884.2948728429908ms" />
<rect x="341" y="42" width="10" height="10" class="count0" style="animation-delay: 1892.3507865311253ms" /><rect x="341.5" y="42.5" width="9" height="9" class="st" style="animation-delay: 1892.3507865311253ms" />
<rect x="341" y="55" width="10" height="10" class="count2" style="animation-delay: 1900.5256174115407ms" /><rect x="341.5" y="55.5" width="9" height="9" class="st" style="animation-delay: 1900.5256174115407ms" />
<rect x="341" y="68" width="10" height="10" class="count0" style="animation-delay: 1908.823853594751ms" /><rect x="341.5" y="68.5" width="9" height="9" class="st" style="animation-delay: 1908.823853594751ms" />
<rect x="341" y="81" width="10" height="10" class="count0" style="animation-delay: 1917.250260507913ms" /><rect x="341.5" y="81.5" width="9" height="9" class="st" style="animation-delay: 1917.250260507913ms" />
<rect x="354" y="3" width="10" height="10" class="count1" style="animation-delay: 1925.8099050160602ms" /><rect x="354.5" y="3.5" width="9" height="9" class="st" style="animation-delay: 1925.8099050160602ms" />
<rect x="354" y="16" width="10" height="10" class="count1" style="animation-delay: 1934.5081822787006ms" /><rect x="354.5" y="16.5" width="9" height="9" class="st" style="animation-delay: 1934.5081822787006ms" />
<rect x="354" y="29" width="10" height="10" class="count0" style="animation-delay: 1943.3508457278256ms" /><rect x="354.5" y="29.5" width="9" height="9" class="st" style="animation-delay: 1943.3508457278256ms" />
<rect x="354" y="42" width="10" height="10" class="count0" style="animation-delay: 1952.3440406191596ms" /><rect x="354.5" y="42.5" width="9" height="9" class="st" style="animation-delay: 1952.3440406191596ms" />
<rect x="354" y="55" width="10" height="10" class="count0" style="animation-delay: 1961.4943416874166ms" /><rect x="354.5" y="55.5" width="9" height="9" class="st" style="animation-delay: 1961.4943416874166ms" />
<rect x="354" y="68" width="10" height="10" class="count0" style="animation-delay: 1970.8087955316064ms" /><rect x="354.5" y="68.5" width="9" height="9" class="st" style="animation-delay: 1970.8087955316064ms" />
<rect x="354" y="81" width="10" height="10" class="count0" style="animation-delay: 1980.2949684718856ms" /><rect x="354.5" y="81.5" width="9" height="9" class="st" style="animation-delay: 1980.2949684718856ms" />
<rect x="367" y="3" width="10" height="10" class="count0" style="animation-delay: 1989.9610007601245ms" /><rect x="367.5" y="3.5" width="9" height="9" class="st" style="animation-delay: 1989.9610007601245ms" />
<rect x="367" y="16" width="10" height="10" class="count0" style="animation-delay: 1999.8156681985902ms" /><rect x="367.5" y="16.5" width="9" height="9" class="st" style="animation-delay: 1999.8156681985902ms" />
<rect x="367" y="29" width="10" height="10" class="count0" style="animation-delay: 2009.8684524332402ms" /><rect x="367.5" y="29.5" width="9" height="9" class="st" style="animation-delay: 2009.8684524332402ms" />
<rect x="367" y="42" width="10" height="10" class="count0" style="animation-delay: 2020.1296214508136ms" /><rect x="367.5" y="42.5" width="9" height="9" class="st" style="animation-delay: 2020.1296214508136ms" />
<rect x="367" y="55" width="10" height="10" class="count0" style="animation-delay: 2030.610322136246ms" /><rect x="367.5" y="55.5" width="9" height="9" class="st" style="animation-delay: 2030.610322136246ms" />
<rect x="367" y="68" width="10" height="10" class="count0" style="animation-delay: 2041.3226871575841ms" /><rect x="367.5" y="68.5" width="9" height="9" class="st" style="animation-delay: 2041.3226871575841ms" />
<rect x="367" y="81" width="10" height="10" class="count0" style="animation-delay: 2052.2799589642477ms" /><rect x="367.5" y="81.5" width="9" height="9" class="st" style="animation-delay: 2052.2799589642477ms" />
<rect x="380" y="3" width="10" height="10" class="count0" style="animation-delay: 2063.4966343444803ms" /><rect x="380.5" y="3.5" width="9" height="9" class="st" style="animation-delay: 2063.4966343444803ms" />
<rect x="380" y="16" width="10" height="10" class="count0" style="animation-delay: 2074.98863383435ms" /><rect x="380.5" y="16.5" width="9" height="9" class="st" style="animation-delay: 2074.98863383435ms" />
<rect x="380" y="29" width="10" height="10" class="count0" style="animation-delay: 2086.773501365414ms" /><rect x="380.5" y="29.5" width="9" height="9" class="st" style="animation-delay: 2086.773501365414ms" />
<rect x="380" y="42" width="10" height="10" class="count0" style="animation-delay: 2098.870640966976ms" /><rect x="380.5" y="42.5" width="9" height="9" class="st" style="animation-delay: 2098.870640966976ms" />
<rect x="380" y="55" width="10" height="10" class="count0" style="animation-delay: 2111.301599221502ms" /><rect x="380.5" y="55.5" width="9" height="9" class="st" style="animation-delay: 2111.301599221502ms" />
<rect x="380" y="68" width="10" height="10" class="count0" style="animation-delay: 2124.0904046784703ms" /><rect x="380.5" y="68.5" width="9" height="9" class="st" style="animation-delay: 2124.0904046784703ms" />
<rect x="380" y="81" width="10" height="10" class="count0" style="animation-delay: 2137.263978807059ms" /><rect x="380.5" y="81.5" width="9" height="9" class="st" style="animation-delay: 2137.263978807059ms" />
<rect x="393" y="3" width="10" height="10" class="count0" style="animation-delay: 2150.8526376679242ms" /><rect x="393.5" y="3.5" width="9" height="9" class="st" style="animation-delay: 2150.8526376679242ms" />
<rect x="393" y="16" width="10" height="10" class="count0" style="animation-delay: 2164.8907098364225ms" /><rect x="393.5" y="16.5" width="9" height="9" class="st" style="animation-delay: 2164.8907098364225ms" />
<rect x="393" y="29" width="10" height="10" class="count0" style="animation-delay: 2179.417305008194ms" /><rect x="393.5" y="29.5" width="9" height="9" class="st" style="animation-delay: 2179.417305008194ms" />
<rect x="393" y="42" width="10" height="10" class="count0" style="animation-delay: 2194.477280381076ms" /><rect x="393.5" y="42.5" width="9" height="9" class="st" style="animation-delay: 2194.477280381076ms" />
<rect x="393" y="55" width="10" height="10" class="count1" style="animation-delay: 2210.122470241107ms" /><rect x="393.5" y="55.5" width="9" height="9" class="st" style="animation-delay: 2210.122470241107ms" />
<rect x="393" y="68" width="10" height="10" class="count1" style="animation-delay: 2226.413271234879ms" /><rect x="393.5" y="68.5" width="9" height="9" class="st" style="animation-delay: 2226.413271234879ms" />
<rect x="393" y="81" width="10" height="10" class="count1" style="animation-delay: 2243.420716587442ms" /><rect x="393.5" y="81.5" width="9" height="9" class="st" style="animation-delay: 2243.420716587442ms" />
<rect x="406" y="3" width="10" height="10" class="count0" style="animation-delay: 2261.2292354545853ms" /><rect x="406.5" y="3.5" width="9" height="9" class="st" style="animation-delay: 2261.2292354545853ms" />
<rect x="406" y="16" width="10" height="10" class="count0" style="animation-delay: 2279.9403933320427ms" /><rect x="406.5" y="16.5" width="9" height="9" class="st" style="animation-delay: 2279.9403933320427ms" />
<rect x="406" y="29" width="10" height="10" class="count1" style="animation-delay: 2299.6780723432003ms" /><rect x="406.5" y="29.5" width="9" height="9" class="st" style="animation-delay: 2299.6780723432003ms" />
<rect x="406" y="42" width="10" height="10" class="count3" style="animation-delay: 2320.595825630697ms" /><rect x="406.5" y="42.5" width="9" height="9" class="st" style="animation-delay: 2320.595825630697ms" />
<rect x="406" y="55" width="10" height="10" class="count2" style="animation-delay: 2342.8876246198147ms" /><rect x="406.5" y="55.5" width="9" height="9" class="st" style="animation-delay: 2342.8876246198147ms" />
<rect x="406" y="68" width="10" height="10" class="count0" style="animation-delay: 2366.8041111359553ms" /><rect x="406.5" y="68.5" width="9" height="9" class="st" style="animation-delay: 2366.8041111359553ms" />
<rect x="406" y="81" width="10" height="10" class="count2" style="animation-delay: 2392.6782067719155ms" /><rect x="406.5" y="81.5" width="9" height="9" class="st" style="animation-delay: 2392.6782067719155ms" />
<rect x="419" y="3" width="10" height="10" class="count0" style="animation-delay: 2420.9675583501275ms" /><rect x="419.5" y="3.5" width="9" height="9" class="st" style="animation-delay: 2420.9675583501275ms" />
<rect x="419" y="16" width="10" height="10" class="count0" style="animation-delay: 2452.329509385442ms" /><rect x="419.5" y="16.5" width="9" height="9" class="st" style="animation-delay: 2452.329509385442ms" />
<rect x="419" y="29" width="10" height="10" class="count0" style="animation-delay: 2487.764961241799ms" /><rect x="419.5" y="29.5" width="9" height="9" class="st" style="animation-delay: 2487.764961241799ms" />
<rect x="419" y="42" width="10" height="10" class="count3" style="animation-delay: 2528.9274558601596ms" /><rect x="419.5" y="42.5" width="9" height="9" class="st" style="animation-delay: 2528.9274558601596ms" />
<rect x="419" y="55" width="10" height="10" class="count0" style="animation-delay: 2578.906587506463ms" /><rect x="419.5" y="55.5" width="9" height="9" class="st" style="animation-delay: 2578.906587506463ms" />
<rect x="419" y="68" width="10" height="10" class="count0" style="animation-delay: 2644.8360607595678ms" /><rect x="419.5" y="68.5" width="9" height="9" class="st" style="animation-delay: 2644.8360607595678ms" />
<rect x="419" y="81" width="10" height="10" class="count2" style="animation-delay: 2753.743078484864ms" /><rect x="419.5" y="81.5" width="9" height="9" class="st" style="animation-delay: 2753.743078484864ms" />
</svg>

  