

<svg height="94" width="133" xmlns="http://www.w3.org/2000/svg" fill='#4FA1A7'>
  <style>
  rect {
  rx: 2;
  ry: 2;
  animation: wow .5s backwards;
  }
  .st {
  
  stroke: rgba(27, 31, 35, 0.06);
  stroke-width: 1;
  fill: none;
  }
  @keyframes wow {
  from {opacity: 0;}
  to{ opacity: 1;}}
  .count0 {fill: #ebedf0}
.count1 {fill: #9be9a8}
.count2 {fill: #40c463}
.count3 {fill: #40c463}
.count4 {fill: #30a14e}
.count5 {fill: #216e39}
.count6 {fill: #216e39}
  </style>
<rect x="3" y="29" width="10" height="10" class="count3" style="animation-delay: 378.9896611446424ms" /><rect x="3.5" y="29.5" width="9" height="9" class="st" style="animation-delay: 378.9896611446424ms" />
<rect x="3" y="42" width="10" height="10" class="count3" style="animation-delay: 546.5976759368108ms" /><rect x="3.5" y="42.5" width="9" height="9" class="st" style="animation-delay: 546.5976759368108ms" />
<rect x="3" y="55" width="10" height="10" class="count1" style="animation-delay: 648.0632045964904ms" /><rect x="3.5" y="55.5" width="9" height="9" class="st" style="animation-delay: 648.0632045964904ms" />
<rect x="3" y="68" width="10" height="10" class="count2" style="animation-delay: 724.9811407519277ms" /><rect x="3.5" y="68.5" width="9" height="9" class="st" style="animation-delay: 724.9811407519277ms" />
<rect x="3" y="81" width="10" height="10" class="count5" style="animation-delay: 788.3302632508934ms" /><rect x="3.5" y="81.5" width="9" height="9" class="st" style="animation-delay: 788.3302632508934ms" />
<rect x="16" y="3" width="10" height="10" class="count1" style="animation-delay: 842.865460917296ms" /><rect x="16.5" y="3.5" width="9" height="9" class="st" style="animation-delay: 842.865460917296ms" />
<rect x="16" y="16" width="10" height="10" class="count3" style="animation-delay: 891.1315365369334ms" /><rect x="16.5" y="16.5" width="9" height="9" class="st" style="animation-delay: 891.1315365369334ms" />
<rect x="16" y="29" width="10" height="10" class="count2" style="animation-delay: 934.6688783613304ms" /><rect x="16.5" y="29.5" width="9" height="9" class="st" style="animation-delay: 934.6688783613304ms" />
<rect x="16" y="42" width="10" height="10" class="count2" style="animation-delay: 974.4891387510218ms" /><rect x="16.5" y="42.5" width="9" height="9" class="st" style="animation-delay: 974.4891387510218ms" />
<rect x="16" y="55" width="10" height="10" class="count2" style="animation-delay: 1011.296636646935ms" /><rect x="16.5" y="55.5" width="9" height="9" class="st" style="animation-delay: 1011.296636646935ms" />
<rect x="16" y="68" width="10" height="10" class="count1" style="animation-delay: 1045.6037387304425ms" /><rect x="16.5" y="68.5" width="9" height="9" class="st" style="animation-delay: 1045.6037387304425ms" />
<rect x="16" y="81" width="10" height="10" class="count2" style="animation-delay: 1077.7961830343822ms" /><rect x="16.5" y="81.5" width="9" height="9" class="st" style="animation-delay: 1077.7961830343822ms" />
<rect x="29" y="3" width="10" height="10" class="count2" style="animation-delay: 1108.1724917862177ms" /><rect x="29.5" y="3.5" width="9" height="9" class="st" style="animation-delay: 1108.1724917862177ms" />
<rect x="29" y="16" width="10" height="10" class="count1" style="animation-delay: 1136.9689834339272ms" /><rect x="29.5" y="16.5" width="9" height="9" class="st" style="animation-delay: 1136.9689834339272ms" />
<rect x="29" y="29" width="10" height="10" class="count3" style="animation-delay: 1164.3763126956626ms" /><rect x="29.5" y="29.5" width="9" height="9" class="st" style="animation-delay: 1164.3763126956626ms" />
<rect x="29" y="42" width="10" height="10" class="count2" style="animation-delay: 1190.5507889761498ms" /><rect x="29.5" y="42.5" width="9" height="9" class="st" style="animation-delay: 1190.5507889761498ms" />
<rect x="29" y="55" width="10" height="10" class="count1" style="animation-delay: 1215.6223488349258ms" /><rect x="29.5" y="55.5" width="9" height="9" class="st" style="animation-delay: 1215.6223488349258ms" />
<rect x="29" y="68" width="10" height="10" class="count1" style="animation-delay: 1239.7003124800294ms" /><rect x="29.5" y="68.5" width="9" height="9" class="st" style="animation-delay: 1239.7003124800294ms" />
<rect x="29" y="81" width="10" height="10" class="count2" style="animation-delay: 1262.8776304140724ms" /><rect x="29.5" y="81.5" width="9" height="9" class="st" style="animation-delay: 1262.8776304140724ms" />
<rect x="42" y="3" width="10" height="10" class="count1" style="animation-delay: 1285.2340756577726ms" /><rect x="42.5" y="3.5" width="9" height="9" class="st" style="animation-delay: 1285.2340756577726ms" />
<rect x="42" y="16" width="10" height="10" class="count1" style="animation-delay: 1306.8386834857647ms" /><rect x="42.5" y="16.5" width="9" height="9" class="st" style="animation-delay: 1306.8386834857647ms" />
<rect x="42" y="29" width="10" height="10" class="count1" style="animation-delay: 1327.751643760762ms" /><rect x="42.5" y="29.5" width="9" height="9" class="st" style="animation-delay: 1327.751643760762ms" />
<rect x="42" y="42" width="10" height="10" class="count1" style="animation-delay: 1348.0257881963362ms" /><rect x="42.5" y="42.5" width="9" height="9" class="st" style="animation-delay: 1348.0257881963362ms" />
<rect x="42" y="55" width="10" height="10" class="count1" style="animation-delay: 1367.707773241712ms" /><rect x="42.5" y="55.5" width="9" height="9" class="st" style="animation-delay: 1367.707773241712ms" />
<rect x="42" y="68" width="10" height="10" class="count1" style="animation-delay: 1386.839031066261ms" /><rect x="42.5" y="68.5" width="9" height="9" class="st" style="animation-delay: 1386.839031066261ms" />
<rect x="42" y="81" width="10" height="10" class="count2" style="animation-delay: 1405.4565416328974ms" /><rect x="42.5" y="81.5" width="9" height="9" class="st" style="animation-delay: 1405.4565416328974ms" />
<rect x="55" y="3" width="10" height="10" class="count3" style="animation-delay: 1423.5934651546913ms" /><rect x="55.5" y="3.5" width="9" height="9" class="st" style="animation-delay: 1423.5934651546913ms" />
<rect x="55" y="16" width="10" height="10" class="count3" style="animation-delay: 1441.2796644531436ms" /><rect x="55.5" y="16.5" width="9" height="9" class="st" style="animation-delay: 1441.2796644531436ms" />
<rect x="55" y="29" width="10" height="10" class="count1" style="animation-delay: 1458.542139657369ms" /><rect x="55.5" y="29.5" width="9" height="9" class="st" style="animation-delay: 1458.542139657369ms" />
<rect x="55" y="42" width="10" height="10" class="count2" style="animation-delay: 1475.4053924891143ms" /><rect x="55.5" y="42.5" width="9" height="9" class="st" style="animation-delay: 1475.4053924891143ms" />
<rect x="55" y="55" width="10" height="10" class="count0" style="animation-delay: 1491.8917335207318ms" /><rect x="55.5" y="55.5" width="9" height="9" class="st" style="animation-delay: 1491.8917335207318ms" />
<rect x="55" y="68" width="10" height="10" class="count2" style="animation-delay: 1508.1082664792682ms" /><rect x="55.5" y="68.5" width="9" height="9" class="st" style="animation-delay: 1508.1082664792682ms" />
<rect x="55" y="81" width="10" height="10" class="count2" style="animation-delay: 1524.5946075108857ms" /><rect x="55.5" y="81.5" width="9" height="9" class="st" style="animation-delay: 1524.5946075108857ms" />
<rect x="68" y="3" width="10" height="10" class="count1" style="animation-delay: 1541.457860342631ms" /><rect x="68.5" y="3.5" width="9" height="9" class="st" style="animation-delay: 1541.457860342631ms" />
<rect x="68" y="16" width="10" height="10" class="count2" style="animation-delay: 1558.7203355468564ms" /><rect x="68.5" y="16.5" width="9" height="9" class="st" style="animation-delay: 1558.7203355468564ms" />
<rect x="68" y="29" width="10" height="10" class="count2" style="animation-delay: 1576.4065348453084ms" /><rect x="68.5" y="29.5" width="9" height="9" class="st" style="animation-delay: 1576.4065348453084ms" />
<rect x="68" y="42" width="10" height="10" class="count1" style="animation-delay: 1594.5434583671026ms" /><rect x="68.5" y="42.5" width="9" height="9" class="st" style="animation-delay: 1594.5434583671026ms" />
<rect x="68" y="55" width="10" height="10" class="count1" style="animation-delay: 1613.1609689337392ms" /><rect x="68.5" y="55.5" width="9" height="9" class="st" style="animation-delay: 1613.1609689337392ms" />
<rect x="68" y="68" width="10" height="10" class="count3" style="animation-delay: 1632.292226758288ms" /><rect x="68.5" y="68.5" width="9" height="9" class="st" style="animation-delay: 1632.292226758288ms" />
<rect x="68" y="81" width="10" height="10" class="count5" style="animation-delay: 1651.9742118036638ms" /><rect x="68.5" y="81.5" width="9" height="9" class="st" style="animation-delay: 1651.9742118036638ms" />
<rect x="81" y="3" width="10" height="10" class="count2" style="animation-delay: 1672.2483562392379ms" /><rect x="81.5" y="3.5" width="9" height="9" class="st" style="animation-delay: 1672.2483562392379ms" />
<rect x="81" y="16" width="10" height="10" class="count4" style="animation-delay: 1693.161316514235ms" /><rect x="81.5" y="16.5" width="9" height="9" class="st" style="animation-delay: 1693.161316514235ms" />
<rect x="81" y="29" width="10" height="10" class="count5" style="animation-delay: 1714.7659243422272ms" /><rect x="81.5" y="29.5" width="9" height="9" class="st" style="animation-delay: 1714.7659243422272ms" />
<rect x="81" y="42" width="10" height="10" class="count5" style="animation-delay: 1737.1223695859276ms" /><rect x="81.5" y="42.5" width="9" height="9" class="st" style="animation-delay: 1737.1223695859276ms" />
<rect x="81" y="55" width="10" height="10" class="count5" style="animation-delay: 1760.2996875199708ms" /><rect x="81.5" y="55.5" width="9" height="9" class="st" style="animation-delay: 1760.2996875199708ms" />
<rect x="81" y="68" width="10" height="10" class="count3" style="animation-delay: 1784.3776511650742ms" /><rect x="81.5" y="68.5" width="9" height="9" class="st" style="animation-delay: 1784.3776511650742ms" />
<rect x="81" y="81" width="10" height="10" class="count5" style="animation-delay: 1809.4492110238505ms" /><rect x="81.5" y="81.5" width="9" height="9" class="st" style="animation-delay: 1809.4492110238505ms" />
<rect x="94" y="3" width="10" height="10" class="count6" style="animation-delay: 1835.6236873043376ms" /><rect x="94.5" y="3.5" width="9" height="9" class="st" style="animation-delay: 1835.6236873043376ms" />
<rect x="94" y="16" width="10" height="10" class="count2" style="animation-delay: 1863.0310165660728ms" /><rect x="94.5" y="16.5" width="9" height="9" class="st" style="animation-delay: 1863.0310165660728ms" />
<rect x="94" y="29" width="10" height="10" class="count2" style="animation-delay: 1891.8275082137823ms" /><rect x="94.5" y="29.5" width="9" height="9" class="st" style="animation-delay: 1891.8275082137823ms" />
<rect x="94" y="42" width="10" height="10" class="count1" style="animation-delay: 1922.2038169656178ms" /><rect x="94.5" y="42.5" width="9" height="9" class="st" style="animation-delay: 1922.2038169656178ms" />
<rect x="94" y="55" width="10" height="10" class="count4" style="animation-delay: 1954.3962612695577ms" /><rect x="94.5" y="55.5" width="9" height="9" class="st" style="animation-delay: 1954.3962612695577ms" />
<rect x="94" y="68" width="10" height="10" class="count1" style="animation-delay: 1988.7033633530652ms" /><rect x="94.5" y="68.5" width="9" height="9" class="st" style="animation-delay: 1988.7033633530652ms" />
<rect x="94" y="81" width="10" height="10" class="count0" style="animation-delay: 2025.5108612489782ms" /><rect x="94.5" y="81.5" width="9" height="9" class="st" style="animation-delay: 2025.5108612489782ms" />
<rect x="107" y="3" width="10" height="10" class="count1" style="animation-delay: 2065.3311216386696ms" /><rect x="107.5" y="3.5" width="9" height="9" class="st" style="animation-delay: 2065.3311216386696ms" />
<rect x="107" y="16" width="10" height="10" class="count4" style="animation-delay: 2108.8684634630667ms" /><rect x="107.5" y="16.5" width="9" height="9" class="st" style="animation-delay: 2108.8684634630667ms" />
<rect x="107" y="29" width="10" height="10" class="count4" style="animation-delay: 2157.134539082704ms" /><rect x="107.5" y="29.5" width="9" height="9" class="st" style="animation-delay: 2157.134539082704ms" />
<rect x="107" y="42" width="10" height="10" class="count5" style="animation-delay: 2211.669736749106ms" /><rect x="107.5" y="42.5" width="9" height="9" class="st" style="animation-delay: 2211.669736749106ms" />
<rect x="107" y="55" width="10" height="10" class="count3" style="animation-delay: 2275.0188592480727ms" /><rect x="107.5" y="55.5" width="9" height="9" class="st" style="animation-delay: 2275.0188592480727ms" />
<rect x="107" y="68" width="10" height="10" class="count4" style="animation-delay: 2351.9367954035097ms" /><rect x="107.5" y="68.5" width="9" height="9" class="st" style="animation-delay: 2351.9367954035097ms" />
<rect x="107" y="81" width="10" height="10" class="count6" style="animation-delay: 2453.4023240631896ms" /><rect x="107.5" y="81.5" width="9" height="9" class="st" style="animation-delay: 2453.4023240631896ms" />
<rect x="120" y="3" width="10" height="10" class="count6" style="animation-delay: 2621.0103388553575ms" /><rect x="120.5" y="3.5" width="9" height="9" class="st" style="animation-delay: 2621.0103388553575ms" />
</svg>

  