

<svg height="94" width="432" xmlns="http://www.w3.org/2000/svg" fill='#4FA1A7'>
  <style>
  rect {
  rx: 2;
  ry: 2;
  animation: wow .5s backwards;
  }
  .st {
  
  stroke: rgba(27, 31, 35, 0.06);
  stroke-width: 1;
  fill: none;
  }
  @keyframes wow {
  from {opacity: 0;}
  to{ opacity: 1;}}
  .count0 {fill: #ebedf0}
.count1 {fill: #9be9a8}
.count2 {fill: #9be9a8}
.count3 {fill: #40c463}
.count4 {fill: #40c463}
.count5 {fill: #30a14e}
.count6 {fill: #30a14e}
.count7 {fill: #216e39}
.count8 {fill: #216e39}
  </style>
<rect x="3" y="68" width="10" height="10" class="count3" style="animation-delay: 247.35629734646673ms" /><rect x="3.5" y="68.5" width="9" height="9" class="st" style="animation-delay: 247.35629734646673ms" />
<rect x="3" y="81" width="10" height="10" class="count3" style="animation-delay: 356.7495135607732ms" /><rect x="3.5" y="81.5" width="9" height="9" class="st" style="animation-delay: 356.7495135607732ms" />
<rect x="16" y="3" width="10" height="10" class="count1" style="animation-delay: 422.97331872146697ms" /><rect x="16.5" y="3.5" width="9" height="9" class="st" style="animation-delay: 422.97331872146697ms" />
<rect x="16" y="16" width="10" height="10" class="count2" style="animation-delay: 473.17557444917543ms" /><rect x="16.5" y="16.5" width="9" height="9" class="st" style="animation-delay: 473.17557444917543ms" />
<rect x="16" y="29" width="10" height="10" class="count5" style="animation-delay: 514.5218326404021ms" /><rect x="16.5" y="29.5" width="9" height="9" class="st" style="animation-delay: 514.5218326404021ms" />
<rect x="16" y="42" width="10" height="10" class="count1" style="animation-delay: 550.1154805754857ms" /><rect x="16.5" y="42.5" width="9" height="9" class="st" style="animation-delay: 550.1154805754857ms" />
<rect x="16" y="55" width="10" height="10" class="count3" style="animation-delay: 581.6174421769172ms" /><rect x="16.5" y="55.5" width="9" height="9" class="st" style="animation-delay: 581.6174421769172ms" />
<rect x="16" y="68" width="10" height="10" class="count2" style="animation-delay: 610.0330871775343ms" /><rect x="16.5" y="68.5" width="9" height="9" class="st" style="animation-delay: 610.0330871775343ms" />
<rect x="16" y="81" width="10" height="10" class="count2" style="animation-delay: 636.0226937003544ms" /><rect x="16.5" y="81.5" width="9" height="9" class="st" style="animation-delay: 636.0226937003544ms" />
<rect x="29" y="3" width="10" height="10" class="count2" style="animation-delay: 660.0459516610674ms" /><rect x="29.5" y="3.5" width="9" height="9" class="st" style="animation-delay: 660.0459516610674ms" />
<rect x="29" y="16" width="10" height="10" class="count1" style="animation-delay: 682.4372689292843ms" /><rect x="29.5" y="16.5" width="9" height="9" class="st" style="animation-delay: 682.4372689292843ms" />
<rect x="29" y="29" width="10" height="10" class="count2" style="animation-delay: 703.4484062819622ms" /><rect x="29.5" y="29.5" width="9" height="9" class="st" style="animation-delay: 703.4484062819622ms" />
<rect x="29" y="42" width="10" height="10" class="count2" style="animation-delay: 723.2742010997248ms" /><rect x="29.5" y="42.5" width="9" height="9" class="st" style="animation-delay: 723.2742010997248ms" />
<rect x="29" y="55" width="10" height="10" class="count1" style="animation-delay: 742.0688920394001ms" /><rect x="29.5" y="55.5" width="9" height="9" class="st" style="animation-delay: 742.0688920394001ms" />
<rect x="29" y="68" width="10" height="10" class="count3" style="animation-delay: 759.9569142769012ms" /><rect x="29.5" y="68.5" width="9" height="9" class="st" style="animation-delay: 759.9569142769012ms" />
<rect x="29" y="81" width="10" height="10" class="count2" style="animation-delay: 777.0402867313632ms" /><rect x="29.5" y="81.5" width="9" height="9" class="st" style="animation-delay: 777.0402867313632ms" />
<rect x="42" y="3" width="10" height="10" class="count1" style="animation-delay: 793.4038154794476ms" /><rect x="42.5" y="3.5" width="9" height="9" class="st" style="animation-delay: 793.4038154794476ms" />
<rect x="42" y="16" width="10" height="10" class="count1" style="animation-delay: 809.1188508630186ms" /><rect x="42.5" y="16.5" width="9" height="9" class="st" style="animation-delay: 809.1188508630186ms" />
<rect x="42" y="29" width="10" height="10" class="count2" style="animation-delay: 824.2460591601304ms" /><rect x="42.5" y="29.5" width="9" height="9" class="st" style="animation-delay: 824.2460591601304ms" />
<rect x="42" y="42" width="10" height="10" class="count1" style="animation-delay: 838.8375060629528ms" /><rect x="42.5" y="42.5" width="9" height="9" class="st" style="animation-delay: 838.8375060629528ms" />
<rect x="42" y="55" width="10" height="10" class="count1" style="animation-delay: 852.9382490273235ms" /><rect x="42.5" y="55.5" width="9" height="9" class="st" style="animation-delay: 852.9382490273235ms" />
<rect x="42" y="68" width="10" height="10" class="count1" style="animation-delay: 866.5875723480533ms" /><rect x="42.5" y="68.5" width="9" height="9" class="st" style="animation-delay: 866.5875723480533ms" />
<rect x="42" y="81" width="10" height="10" class="count1" style="animation-delay: 879.8199578551006ms" /><rect x="42.5" y="81.5" width="9" height="9" class="st" style="animation-delay: 879.8199578551006ms" />
<rect x="55" y="3" width="10" height="10" class="count1" style="animation-delay: 892.6658569504709ms" /><rect x="55.5" y="3.5" width="9" height="9" class="st" style="animation-delay: 892.6658569504709ms" />
<rect x="55" y="16" width="10" height="10" class="count1" style="animation-delay: 905.1523112900658ms" /><rect x="55.5" y="16.5" width="9" height="9" class="st" style="animation-delay: 905.1523112900658ms" />
<rect x="55" y="29" width="10" height="10" class="count2" style="animation-delay: 917.3034566950965ms" /><rect x="55.5" y="29.5" width="9" height="9" class="st" style="animation-delay: 917.3034566950965ms" />
<rect x="55" y="42" width="10" height="10" class="count3" style="animation-delay: 929.1409359394045ms" /><rect x="55.5" y="42.5" width="9" height="9" class="st" style="animation-delay: 929.1409359394045ms" />
<rect x="55" y="55" width="10" height="10" class="count3" style="animation-delay: 940.6842396785721ms" /><rect x="55.5" y="55.5" width="9" height="9" class="st" style="animation-delay: 940.6842396785721ms" />
<rect x="55" y="68" width="10" height="10" class="count1" style="animation-delay: 951.950990166319ms" /><rect x="55.5" y="68.5" width="9" height="9" class="st" style="animation-delay: 951.950990166319ms" />
<rect x="55" y="81" width="10" height="10" class="count2" style="animation-delay: 962.9571790134755ms" /><rect x="55.5" y="81.5" width="9" height="9" class="st" style="animation-delay: 962.9571790134755ms" />
<rect x="68" y="3" width="10" height="10" class="count0" style="animation-delay: 973.71736772695ms" /><rect x="68.5" y="3.5" width="9" height="9" class="st" style="animation-delay: 973.71736772695ms" />
<rect x="68" y="16" width="10" height="10" class="count2" style="animation-delay: 984.2448578750216ms" /><rect x="68.5" y="16.5" width="9" height="9" class="st" style="animation-delay: 984.2448578750216ms" />
<rect x="68" y="29" width="10" height="10" class="count2" style="animation-delay: 994.551836290153ms" /><rect x="68.5" y="29.5" width="9" height="9" class="st" style="animation-delay: 994.551836290153ms" />
<rect x="68" y="42" width="10" height="10" class="count1" style="animation-delay: 1004.6494996208187ms" /><rect x="68.5" y="42.5" width="9" height="9" class="st" style="animation-delay: 1004.6494996208187ms" />
<rect x="68" y="55" width="10" height="10" class="count2" style="animation-delay: 1014.548161693591ms" /><rect x="68.5" y="55.5" width="9" height="9" class="st" style="animation-delay: 1014.548161693591ms" />
<rect x="68" y="68" width="10" height="10" class="count2" style="animation-delay: 1024.2573464837665ms" /><rect x="68.5" y="68.5" width="9" height="9" class="st" style="animation-delay: 1024.2573464837665ms" />
<rect x="68" y="81" width="10" height="10" class="count1" style="animation-delay: 1033.7858689718194ms" /><rect x="68.5" y="81.5" width="9" height="9" class="st" style="animation-delay: 1033.7858689718194ms" />
<rect x="81" y="3" width="10" height="10" class="count1" style="animation-delay: 1043.1419057505123ms" /><rect x="81.5" y="3.5" width="9" height="9" class="st" style="animation-delay: 1043.1419057505123ms" />
<rect x="81" y="16" width="10" height="10" class="count3" style="animation-delay: 1052.3330569186649ms" /><rect x="81.5" y="16.5" width="9" height="9" class="st" style="animation-delay: 1052.3330569186649ms" />
<rect x="81" y="29" width="10" height="10" class="count5" style="animation-delay: 1061.3664005337348ms" /><rect x="81.5" y="29.5" width="9" height="9" class="st" style="animation-delay: 1061.3664005337348ms" />
<rect x="81" y="42" width="10" height="10" class="count2" style="animation-delay: 1070.2485406823196ms" /><rect x="81.5" y="42.5" width="9" height="9" class="st" style="animation-delay: 1070.2485406823196ms" />
<rect x="81" y="55" width="10" height="10" class="count4" style="animation-delay: 1078.9856500546846ms" /><rect x="81.5" y="55.5" width="9" height="9" class="st" style="animation-delay: 1078.9856500546846ms" />
<rect x="81" y="68" width="10" height="10" class="count5" style="animation-delay: 1087.5835077681265ms" /><rect x="81.5" y="68.5" width="9" height="9" class="st" style="animation-delay: 1087.5835077681265ms" />
<rect x="81" y="81" width="10" height="10" class="count5" style="animation-delay: 1096.047533068005ms" /><rect x="81.5" y="81.5" width="9" height="9" class="st" style="animation-delay: 1096.047533068005ms" />
<rect x="94" y="3" width="10" height="10" class="count5" style="animation-delay: 1104.3828154395878ms" /><rect x="94.5" y="3.5" width="9" height="9" class="st" style="animation-delay: 1104.3828154395878ms" />
<rect x="94" y="16" width="10" height="10" class="count3" style="animation-delay: 1112.5941415845418ms" /><rect x="94.5" y="16.5" width="9" height="9" class="st" style="animation-delay: 1112.5941415845418ms" />
<rect x="94" y="29" width="10" height="10" class="count5" style="animation-delay: 1120.6860196498537ms" /><rect x="94.5" y="29.5" width="9" height="9" class="st" style="animation-delay: 1120.6860196498537ms" />
<rect x="94" y="42" width="10" height="10" class="count6" style="animation-delay: 1128.6627010417553ms" /><rect x="94.5" y="42.5" width="9" height="9" class="st" style="animation-delay: 1128.6627010417553ms" />
<rect x="94" y="55" width="10" height="10" class="count2" style="animation-delay: 1136.5282001108405ms" /><rect x="94.5" y="55.5" width="9" height="9" class="st" style="animation-delay: 1136.5282001108405ms" />
<rect x="94" y="68" width="10" height="10" class="count2" style="animation-delay: 1144.2863119554918ms" /><rect x="94.5" y="68.5" width="9" height="9" class="st" style="animation-delay: 1144.2863119554918ms" />
<rect x="94" y="81" width="10" height="10" class="count1" style="animation-delay: 1151.9406285576483ms" /><rect x="94.5" y="81.5" width="9" height="9" class="st" style="animation-delay: 1151.9406285576483ms" />
<rect x="107" y="3" width="10" height="10" class="count4" style="animation-delay: 1159.4945534368826ms" /><rect x="107.5" y="3.5" width="9" height="9" class="st" style="animation-delay: 1159.4945534368826ms" />
<rect x="107" y="16" width="10" height="10" class="count1" style="animation-delay: 1166.9513149848126ms" /><rect x="107.5" y="16.5" width="9" height="9" class="st" style="animation-delay: 1166.9513149848126ms" />
<rect x="107" y="29" width="10" height="10" class="count0" style="animation-delay: 1174.3139786214322ms" /><rect x="107.5" y="29.5" width="9" height="9" class="st" style="animation-delay: 1174.3139786214322ms" />
<rect x="107" y="42" width="10" height="10" class="count1" style="animation-delay: 1181.5854578974051ms" /><rect x="107.5" y="42.5" width="9" height="9" class="st" style="animation-delay: 1181.5854578974051ms" />
<rect x="107" y="55" width="10" height="10" class="count4" style="animation-delay: 1188.7685246512729ms" /><rect x="107.5" y="55.5" width="9" height="9" class="st" style="animation-delay: 1188.7685246512729ms" />
<rect x="107" y="68" width="10" height="10" class="count4" style="animation-delay: 1195.8658183175244ms" /><rect x="107.5" y="68.5" width="9" height="9" class="st" style="animation-delay: 1195.8658183175244ms" />
<rect x="107" y="81" width="10" height="10" class="count5" style="animation-delay: 1202.879854470212ms" /><rect x="107.5" y="81.5" width="9" height="9" class="st" style="animation-delay: 1202.879854470212ms" />
<rect x="120" y="3" width="10" height="10" class="count3" style="animation-delay: 1209.8130326770315ms" /><rect x="120.5" y="3.5" width="9" height="9" class="st" style="animation-delay: 1209.8130326770315ms" />
<rect x="120" y="16" width="10" height="10" class="count4" style="animation-delay: 1216.6676437303ms" /><rect x="120.5" y="16.5" width="9" height="9" class="st" style="animation-delay: 1216.6676437303ms" />
<rect x="120" y="29" width="10" height="10" class="count6" style="animation-delay: 1223.4458763138512ms" /><rect x="120.5" y="29.5" width="9" height="9" class="st" style="animation-delay: 1223.4458763138512ms" />
<rect x="120" y="42" width="10" height="10" class="count6" style="animation-delay: 1230.149823158411ms" /><rect x="120.5" y="42.5" width="9" height="9" class="st" style="animation-delay: 1230.149823158411ms" />
<rect x="120" y="55" width="10" height="10" class="count6" style="animation-delay: 1236.7814867323336ms" /><rect x="120.5" y="55.5" width="9" height="9" class="st" style="animation-delay: 1236.7814867323336ms" />
<rect x="120" y="68" width="10" height="10" class="count8" style="animation-delay: 1243.3427845096164ms" /><rect x="120.5" y="68.5" width="9" height="9" class="st" style="animation-delay: 1243.3427845096164ms" />
<rect x="120" y="81" width="10" height="10" class="count7" style="animation-delay: 1249.83555385272ms" /><rect x="120.5" y="81.5" width="9" height="9" class="st" style="animation-delay: 1249.83555385272ms" />
<rect x="133" y="3" width="10" height="10" class="count5" style="animation-delay: 1256.2615565438755ms" /><rect x="133.5" y="3.5" width="9" height="9" class="st" style="animation-delay: 1256.2615565438755ms" />
<rect x="133" y="16" width="10" height="10" class="count5" style="animation-delay: 1262.622482995133ms" /><rect x="133.5" y="16.5" width="9" height="9" class="st" style="animation-delay: 1262.622482995133ms" />
<rect x="133" y="29" width="10" height="10" class="count5" style="animation-delay: 1268.919956164401ms" /><rect x="133.5" y="29.5" width="9" height="9" class="st" style="animation-delay: 1268.919956164401ms" />
<rect x="133" y="42" width="10" height="10" class="count5" style="animation-delay: 1275.155535202039ms" /><rect x="133.5" y="42.5" width="9" height="9" class="st" style="animation-delay: 1275.155535202039ms" />
<rect x="133" y="55" width="10" height="10" class="count7" style="animation-delay: 1281.3307188501883ms" /><rect x="133.5" y="55.5" width="9" height="9" class="st" style="animation-delay: 1281.3307188501883ms" />
<rect x="133" y="68" width="10" height="10" class="count3" style="animation-delay: 1287.4469486149112ms" /><rect x="133.5" y="68.5" width="9" height="9" class="st" style="animation-delay: 1287.4469486149112ms" />
<rect x="133" y="81" width="10" height="10" class="count5" style="animation-delay: 1293.5056117293138ms" /><rect x="133.5" y="81.5" width="9" height="9" class="st" style="animation-delay: 1293.5056117293138ms" />
<rect x="146" y="3" width="10" height="10" class="count6" style="animation-delay: 1299.5080439241458ms" /><rect x="146.5" y="3.5" width="9" height="9" class="st" style="animation-delay: 1299.5080439241458ms" />
<rect x="146" y="16" width="10" height="10" class="count4" style="animation-delay: 1305.455532020855ms" /><rect x="146.5" y="16.5" width="9" height="9" class="st" style="animation-delay: 1305.455532020855ms" />
<rect x="146" y="29" width="10" height="10" class="count3" style="animation-delay: 1311.3493163607302ms" /><rect x="146.5" y="29.5" width="9" height="9" class="st" style="animation-delay: 1311.3493163607302ms" />
<rect x="146" y="42" width="10" height="10" class="count3" style="animation-delay: 1317.190593082542ms" /><rect x="146.5" y="42.5" width="9" height="9" class="st" style="animation-delay: 1317.190593082542ms" />
<rect x="146" y="55" width="10" height="10" class="count3" style="animation-delay: 1322.9805162600035ms" /><rect x="146.5" y="55.5" width="9" height="9" class="st" style="animation-delay: 1322.9805162600035ms" />
<rect x="146" y="68" width="10" height="10" class="count3" style="animation-delay: 1328.7201999093945ms" /><rect x="146.5" y="68.5" width="9" height="9" class="st" style="animation-delay: 1328.7201999093945ms" />
<rect x="146" y="81" width="10" height="10" class="count3" style="animation-delay: 1334.4107198768024ms" /><rect x="146.5" y="81.5" width="9" height="9" class="st" style="animation-delay: 1334.4107198768024ms" />
<rect x="159" y="3" width="10" height="10" class="count1" style="animation-delay: 1340.0531156136294ms" /><rect x="159.5" y="3.5" width="9" height="9" class="st" style="animation-delay: 1340.0531156136294ms" />
<rect x="159" y="16" width="10" height="10" class="count3" style="animation-delay: 1345.648391848306ms" /><rect x="159.5" y="16.5" width="9" height="9" class="st" style="animation-delay: 1345.648391848306ms" />
<rect x="159" y="29" width="10" height="10" class="count1" style="animation-delay: 1351.1975201614798ms" /><rect x="159.5" y="29.5" width="9" height="9" class="st" style="animation-delay: 1351.1975201614798ms" />
<rect x="159" y="42" width="10" height="10" class="count0" style="animation-delay: 1356.7014404713718ms" /><rect x="159.5" y="42.5" width="9" height="9" class="st" style="animation-delay: 1356.7014404713718ms" />
<rect x="159" y="55" width="10" height="10" class="count1" style="animation-delay: 1362.161062435439ms" /><rect x="159.5" y="55.5" width="9" height="9" class="st" style="animation-delay: 1362.161062435439ms" />
<rect x="159" y="68" width="10" height="10" class="count0" style="animation-delay: 1367.5772667740073ms" /><rect x="159.5" y="68.5" width="9" height="9" class="st" style="animation-delay: 1367.5772667740073ms" />
<rect x="159" y="81" width="10" height="10" class="count0" style="animation-delay: 1372.9509065210855ms" /><rect x="159.5" y="81.5" width="9" height="9" class="st" style="animation-delay: 1372.9509065210855ms" />
<rect x="172" y="3" width="10" height="10" class="count0" style="animation-delay: 1378.2828082071653ms" /><rect x="172.5" y="3.5" width="9" height="9" class="st" style="animation-delay: 1378.2828082071653ms" />
<rect x="172" y="16" width="10" height="10" class="count2" style="animation-delay: 1383.5737729784514ms" /><rect x="172.5" y="16.5" width="9" height="9" class="st" style="animation-delay: 1383.5737729784514ms" />
<rect x="172" y="29" width="10" height="10" class="count0" style="animation-delay: 1388.824577656619ms" /><rect x="172.5" y="29.5" width="9" height="9" class="st" style="animation-delay: 1388.824577656619ms" />
<rect x="172" y="42" width="10" height="10" class="count1" style="animation-delay: 1394.0359757428969ms" /><rect x="172.5" y="42.5" width="9" height="9" class="st" style="animation-delay: 1394.0359757428969ms" />
<rect x="172" y="55" width="10" height="10" class="count1" style="animation-delay: 1399.208698369983ms" /><rect x="172.5" y="55.5" width="9" height="9" class="st" style="animation-delay: 1399.208698369983ms" />
<rect x="172" y="68" width="10" height="10" class="count1" style="animation-delay: 1404.3434552050542ms" /><rect x="172.5" y="68.5" width="9" height="9" class="st" style="animation-delay: 1404.3434552050542ms" />
<rect x="172" y="81" width="10" height="10" class="count1" style="animation-delay: 1409.4409353068806ms" /><rect x="172.5" y="81.5" width="9" height="9" class="st" style="animation-delay: 1409.4409353068806ms" />
<rect x="185" y="3" width="10" height="10" class="count0" style="animation-delay: 1414.5018079398542ms" /><rect x="185.5" y="3.5" width="9" height="9" class="st" style="animation-delay: 1414.5018079398542ms" />
<rect x="185" y="16" width="10" height="10" class="count3" style="animation-delay: 1419.5267233475263ms" /><rect x="185.5" y="16.5" width="9" height="9" class="st" style="animation-delay: 1419.5267233475263ms" />
<rect x="185" y="29" width="10" height="10" class="count0" style="animation-delay: 1424.5163134880788ms" /><rect x="185.5" y="29.5" width="9" height="9" class="st" style="animation-delay: 1424.5163134880788ms" />
<rect x="185" y="42" width="10" height="10" class="count0" style="animation-delay: 1429.4711927339802ms" /><rect x="185.5" y="42.5" width="9" height="9" class="st" style="animation-delay: 1429.4711927339802ms" />
<rect x="185" y="55" width="10" height="10" class="count2" style="animation-delay: 1434.3919585379172ms" /><rect x="185.5" y="55.5" width="9" height="9" class="st" style="animation-delay: 1434.3919585379172ms" />
<rect x="185" y="68" width="10" height="10" class="count1" style="animation-delay: 1439.2791920669629ms" /><rect x="185.5" y="68.5" width="9" height="9" class="st" style="animation-delay: 1439.2791920669629ms" />
<rect x="185" y="81" width="10" height="10" class="count0" style="animation-delay: 1444.1334588067964ms" /><rect x="185.5" y="81.5" width="9" height="9" class="st" style="animation-delay: 1444.1334588067964ms" />
<rect x="198" y="3" width="10" height="10" class="count0" style="animation-delay: 1448.9553091376786ms" /><rect x="198.5" y="3.5" width="9" height="9" class="st" style="animation-delay: 1448.9553091376786ms" />
<rect x="198" y="16" width="10" height="10" class="count0" style="animation-delay: 1453.745278883768ms" /><rect x="198.5" y="16.5" width="9" height="9" class="st" style="animation-delay: 1453.745278883768ms" />
<rect x="198" y="29" width="10" height="10" class="count0" style="animation-delay: 1458.503889837262ms" /><rect x="198.5" y="29.5" width="9" height="9" class="st" style="animation-delay: 1458.503889837262ms" />
<rect x="198" y="42" width="10" height="10" class="count0" style="animation-delay: 1463.231650258753ms" /><rect x="198.5" y="42.5" width="9" height="9" class="st" style="animation-delay: 1463.231650258753ms" />
<rect x="198" y="55" width="10" height="10" class="count0" style="animation-delay: 1467.929055355091ms" /><rect x="198.5" y="55.5" width="9" height="9" class="st" style="animation-delay: 1467.929055355091ms" />
<rect x="198" y="68" width="10" height="10" class="count0" style="animation-delay: 1472.5965877359765ms" /><rect x="198.5" y="68.5" width="9" height="9" class="st" style="animation-delay: 1472.5965877359765ms" />
<rect x="198" y="81" width="10" height="10" class="count0" style="animation-delay: 1477.2347178504185ms" /><rect x="198.5" y="81.5" width="9" height="9" class="st" style="animation-delay: 1477.2347178504185ms" />
<rect x="211" y="3" width="10" height="10" class="count0" style="animation-delay: 1481.8439044041231ms" /><rect x="211.5" y="3.5" width="9" height="9" class="st" style="animation-delay: 1481.8439044041231ms" />
<rect x="211" y="16" width="10" height="10" class="count0" style="animation-delay: 1486.4245947588226ms" /><rect x="211.5" y="16.5" width="9" height="9" class="st" style="animation-delay: 1486.4245947588226ms" />
<rect x="211" y="29" width="10" height="10" class="count0" style="animation-delay: 1490.9772253144772ms" /><rect x="211.5" y="29.5" width="9" height="9" class="st" style="animation-delay: 1490.9772253144772ms" />
<rect x="211" y="42" width="10" height="10" class="count0" style="animation-delay: 1495.5022218752379ms" /><rect x="211.5" y="42.5" width="9" height="9" class="st" style="animation-delay: 1495.5022218752379ms" />
<rect x="211" y="55" width="10" height="10" class="count0" style="animation-delay: 1500ms" /><rect x="211.5" y="55.5" width="9" height="9" class="st" style="animation-delay: 1500ms" />
<rect x="211" y="68" width="10" height="10" class="count0" style="animation-delay: 1504.4977781247624ms" /><rect x="211.5" y="68.5" width="9" height="9" class="st" style="animation-delay: 1504.4977781247624ms" />
<rect x="211" y="81" width="10" height="10" class="count0" style="animation-delay: 1509.0227746855228ms" /><rect x="211.5" y="81.5" width="9" height="9" class="st" style="animation-delay: 1509.0227746855228ms" />
<rect x="224" y="3" width="10" height="10" class="count0" style="animation-delay: 1513.5754052411774ms" /><rect x="224.5" y="3.5" width="9" height="9" class="st" style="animation-delay: 1513.5754052411774ms" />
<rect x="224" y="16" width="10" height="10" class="count0" style="animation-delay: 1518.156095595877ms" /><rect x="224.5" y="16.5" width="9" height="9" class="st" style="animation-delay: 1518.156095595877ms" />
<rect x="224" y="29" width="10" height="10" class="count0" style="animation-delay: 1522.7652821495817ms" /><rect x="224.5" y="29.5" width="9" height="9" class="st" style="animation-delay: 1522.7652821495817ms" />
<rect x="224" y="42" width="10" height="10" class="count0" style="animation-delay: 1527.4034122640232ms" /><rect x="224.5" y="42.5" width="9" height="9" class="st" style="animation-delay: 1527.4034122640232ms" />
<rect x="224" y="55" width="10" height="10" class="count0" style="animation-delay: 1532.0709446449093ms" /><rect x="224.5" y="55.5" width="9" height="9" class="st" style="animation-delay: 1532.0709446449093ms" />
<rect x="224" y="68" width="10" height="10" class="count0" style="animation-delay: 1536.768349741247ms" /><rect x="224.5" y="68.5" width="9" height="9" class="st" style="animation-delay: 1536.768349741247ms" />
<rect x="224" y="81" width="10" height="10" class="count0" style="animation-delay: 1541.4961101627378ms" /><rect x="224.5" y="81.5" width="9" height="9" class="st" style="animation-delay: 1541.4961101627378ms" />
<rect x="237" y="3" width="10" height="10" class="count1" style="animation-delay: 1546.254721116232ms" /><rect x="237.5" y="3.5" width="9" height="9" class="st" style="animation-delay: 1546.254721116232ms" />
<rect x="237" y="16" width="10" height="10" class="count1" style="animation-delay: 1551.0446908623212ms" /><rect x="237.5" y="16.5" width="9" height="9" class="st" style="animation-delay: 1551.0446908623212ms" />
<rect x="237" y="29" width="10" height="10" class="count1" style="animation-delay: 1555.8665411932036ms" /><rect x="237.5" y="29.5" width="9" height="9" class="st" style="animation-delay: 1555.8665411932036ms" />
<rect x="237" y="42" width="10" height="10" class="count0" style="animation-delay: 1560.7208079330373ms" /><rect x="237.5" y="42.5" width="9" height="9" class="st" style="animation-delay: 1560.7208079330373ms" />
<rect x="237" y="55" width="10" height="10" class="count0" style="animation-delay: 1565.608041462083ms" /><rect x="237.5" y="55.5" width="9" height="9" class="st" style="animation-delay: 1565.608041462083ms" />
<rect x="237" y="68" width="10" height="10" class="count0" style="animation-delay: 1570.5288072660198ms" /><rect x="237.5" y="68.5" width="9" height="9" class="st" style="animation-delay: 1570.5288072660198ms" />
<rect x="237" y="81" width="10" height="10" class="count0" style="animation-delay: 1575.4836865119212ms" /><rect x="237.5" y="81.5" width="9" height="9" class="st" style="animation-delay: 1575.4836865119212ms" />
<rect x="250" y="3" width="10" height="10" class="count0" style="animation-delay: 1580.4732766524737ms" /><rect x="250.5" y="3.5" width="9" height="9" class="st" style="animation-delay: 1580.4732766524737ms" />
<rect x="250" y="16" width="10" height="10" class="count0" style="animation-delay: 1585.4981920601458ms" /><rect x="250.5" y="16.5" width="9" height="9" class="st" style="animation-delay: 1585.4981920601458ms" />
<rect x="250" y="29" width="10" height="10" class="count1" style="animation-delay: 1590.5590646931191ms" /><rect x="250.5" y="29.5" width="9" height="9" class="st" style="animation-delay: 1590.5590646931191ms" />
<rect x="250" y="42" width="10" height="10" class="count1" style="animation-delay: 1595.6565447949458ms" /><rect x="250.5" y="42.5" width="9" height="9" class="st" style="animation-delay: 1595.6565447949458ms" />
<rect x="250" y="55" width="10" height="10" class="count0" style="animation-delay: 1600.791301630017ms" /><rect x="250.5" y="55.5" width="9" height="9" class="st" style="animation-delay: 1600.791301630017ms" />
<rect x="250" y="68" width="10" height="10" class="count0" style="animation-delay: 1605.964024257103ms" /><rect x="250.5" y="68.5" width="9" height="9" class="st" style="animation-delay: 1605.964024257103ms" />
<rect x="250" y="81" width="10" height="10" class="count0" style="animation-delay: 1611.175422343381ms" /><rect x="250.5" y="81.5" width="9" height="9" class="st" style="animation-delay: 1611.175422343381ms" />
<rect x="263" y="3" width="10" height="10" class="count0" style="animation-delay: 1616.4262270215484ms" /><rect x="263.5" y="3.5" width="9" height="9" class="st" style="animation-delay: 1616.4262270215484ms" />
<rect x="263" y="16" width="10" height="10" class="count0" style="animation-delay: 1621.7171917928347ms" /><rect x="263.5" y="16.5" width="9" height="9" class="st" style="animation-delay: 1621.7171917928347ms" />
<rect x="263" y="29" width="10" height="10" class="count0" style="animation-delay: 1627.0490934789145ms" /><rect x="263.5" y="29.5" width="9" height="9" class="st" style="animation-delay: 1627.0490934789145ms" />
<rect x="263" y="42" width="10" height="10" class="count2" style="animation-delay: 1632.4227332259927ms" /><rect x="263.5" y="42.5" width="9" height="9" class="st" style="animation-delay: 1632.4227332259927ms" />
<rect x="263" y="55" width="10" height="10" class="count1" style="animation-delay: 1637.8389375645615ms" /><rect x="263.5" y="55.5" width="9" height="9" class="st" style="animation-delay: 1637.8389375645615ms" />
<rect x="263" y="68" width="10" height="10" class="count3" style="animation-delay: 1643.298559528628ms" /><rect x="263.5" y="68.5" width="9" height="9" class="st" style="animation-delay: 1643.298559528628ms" />
<rect x="263" y="81" width="10" height="10" class="count0" style="animation-delay: 1648.8024798385202ms" /><rect x="263.5" y="81.5" width="9" height="9" class="st" style="animation-delay: 1648.8024798385202ms" />
<rect x="276" y="3" width="10" height="10" class="count0" style="animation-delay: 1654.3516081516939ms" /><rect x="276.5" y="3.5" width="9" height="9" class="st" style="animation-delay: 1654.3516081516939ms" />
<rect x="276" y="16" width="10" height="10" class="count1" style="animation-delay: 1659.9468843863706ms" /><rect x="276.5" y="16.5" width="9" height="9" class="st" style="animation-delay: 1659.9468843863706ms" />
<rect x="276" y="29" width="10" height="10" class="count0" style="animation-delay: 1665.5892801231976ms" /><rect x="276.5" y="29.5" width="9" height="9" class="st" style="animation-delay: 1665.5892801231976ms" />
<rect x="276" y="42" width="10" height="10" class="count0" style="animation-delay: 1671.2798000906052ms" /><rect x="276.5" y="42.5" width="9" height="9" class="st" style="animation-delay: 1671.2798000906052ms" />
<rect x="276" y="55" width="10" height="10" class="count0" style="animation-delay: 1677.0194837399965ms" /><rect x="276.5" y="55.5" width="9" height="9" class="st" style="animation-delay: 1677.0194837399965ms" />
<rect x="276" y="68" width="10" height="10" class="count0" style="animation-delay: 1682.809406917458ms" /><rect x="276.5" y="68.5" width="9" height="9" class="st" style="animation-delay: 1682.809406917458ms" />
<rect x="276" y="81" width="10" height="10" class="count0" style="animation-delay: 1688.6506836392698ms" /><rect x="276.5" y="81.5" width="9" height="9" class="st" style="animation-delay: 1688.6506836392698ms" />
<rect x="289" y="3" width="10" height="10" class="count1" style="animation-delay: 1694.5444679791456ms" /><rect x="289.5" y="3.5" width="9" height="9" class="st" style="animation-delay: 1694.5444679791456ms" />
<rect x="289" y="16" width="10" height="10" class="count0" style="animation-delay: 1700.4919560758544ms" /><rect x="289.5" y="16.5" width="9" height="9" class="st" style="animation-delay: 1700.4919560758544ms" />
<rect x="289" y="29" width="10" height="10" class="count0" style="animation-delay: 1706.494388270686ms" /><rect x="289.5" y="29.5" width="9" height="9" class="st" style="animation-delay: 1706.494388270686ms" />
<rect x="289" y="42" width="10" height="10" class="count0" style="animation-delay: 1712.5530513850888ms" /><rect x="289.5" y="42.5" width="9" height="9" class="st" style="animation-delay: 1712.5530513850888ms" />
<rect x="289" y="55" width="10" height="10" class="count1" style="animation-delay: 1718.6692811498117ms" /><rect x="289.5" y="55.5" width="9" height="9" class="st" style="animation-delay: 1718.6692811498117ms" />
<rect x="289" y="68" width="10" height="10" class="count0" style="animation-delay: 1724.8444647979609ms" /><rect x="289.5" y="68.5" width="9" height="9" class="st" style="animation-delay: 1724.8444647979609ms" />
<rect x="289" y="81" width="10" height="10" class="count1" style="animation-delay: 1731.0800438355989ms" /><rect x="289.5" y="81.5" width="9" height="9" class="st" style="animation-delay: 1731.0800438355989ms" />
<rect x="302" y="3" width="10" height="10" class="count0" style="animation-delay: 1737.3775170048668ms" /><rect x="302.5" y="3.5" width="9" height="9" class="st" style="animation-delay: 1737.3775170048668ms" />
<rect x="302" y="16" width="10" height="10" class="count0" style="animation-delay: 1743.7384434561243ms" /><rect x="302.5" y="16.5" width="9" height="9" class="st" style="animation-delay: 1743.7384434561243ms" />
<rect x="302" y="29" width="10" height="10" class="count2" style="animation-delay: 1750.16444614728ms" /><rect x="302.5" y="29.5" width="9" height="9" class="st" style="animation-delay: 1750.16444614728ms" />
<rect x="302" y="42" width="10" height="10" class="count1" style="animation-delay: 1756.6572154903836ms" /><rect x="302.5" y="42.5" width="9" height="9" class="st" style="animation-delay: 1756.6572154903836ms" />
<rect x="302" y="55" width="10" height="10" class="count0" style="animation-delay: 1763.2185132676661ms" /><rect x="302.5" y="55.5" width="9" height="9" class="st" style="animation-delay: 1763.2185132676661ms" />
<rect x="302" y="68" width="10" height="10" class="count0" style="animation-delay: 1769.8501768415892ms" /><rect x="302.5" y="68.5" width="9" height="9" class="st" style="animation-delay: 1769.8501768415892ms" />
<rect x="302" y="81" width="10" height="10" class="count0" style="animation-delay: 1776.554123686149ms" /><rect x="302.5" y="81.5" width="9" height="9" class="st" style="animation-delay: 1776.554123686149ms" />
<rect x="315" y="3" width="10" height="10" class="count0" style="animation-delay: 1783.3323562697003ms" /><rect x="315.5" y="3.5" width="9" height="9" class="st" style="animation-delay: 1783.3323562697003ms" />
<rect x="315" y="16" width="10" height="10" class="count0" style="animation-delay: 1790.1869673229685ms" /><rect x="315.5" y="16.5" width="9" height="9" class="st" style="animation-delay: 1790.1869673229685ms" />
<rect x="315" y="29" width="10" height="10" class="count1" style="animation-delay: 1797.1201455297883ms" /><rect x="315.5" y="29.5" width="9" height="9" class="st" style="animation-delay: 1797.1201455297883ms" />
<rect x="315" y="42" width="10" height="10" class="count2" style="animation-delay: 1804.1341816824756ms" /><rect x="315.5" y="42.5" width="9" height="9" class="st" style="animation-delay: 1804.1341816824756ms" />
<rect x="315" y="55" width="10" height="10" class="count1" style="animation-delay: 1811.2314753487271ms" /><rect x="315.5" y="55.5" width="9" height="9" class="st" style="animation-delay: 1811.2314753487271ms" />
<rect x="315" y="68" width="10" height="10" class="count4" style="animation-delay: 1818.414542102595ms" /><rect x="315.5" y="68.5" width="9" height="9" class="st" style="animation-delay: 1818.414542102595ms" />
<rect x="315" y="81" width="10" height="10" class="count4" style="animation-delay: 1825.6860213785678ms" /><rect x="315.5" y="81.5" width="9" height="9" class="st" style="animation-delay: 1825.6860213785678ms" />
<rect x="328" y="3" width="10" height="10" class="count1" style="animation-delay: 1833.0486850151872ms" /><rect x="328.5" y="3.5" width="9" height="9" class="st" style="animation-delay: 1833.0486850151872ms" />
<rect x="328" y="16" width="10" height="10" class="count2" style="animation-delay: 1840.5054465631174ms" /><rect x="328.5" y="16.5" width="9" height="9" class="st" style="animation-delay: 1840.5054465631174ms" />
<rect x="328" y="29" width="10" height="10" class="count1" style="animation-delay: 1848.0593714423517ms" /><rect x="328.5" y="29.5" width="9" height="9" class="st" style="animation-delay: 1848.0593714423517ms" />
<rect x="328" y="42" width="10" height="10" class="count2" style="animation-delay: 1855.7136880445082ms" /><rect x="328.5" y="42.5" width="9" height="9" class="st" style="animation-delay: 1855.7136880445082ms" />
<rect x="328" y="55" width="10" height="10" class="count0" style="animation-delay: 1863.4717998891595ms" /><rect x="328.5" y="55.5" width="9" height="9" class="st" style="animation-delay: 1863.4717998891595ms" />
<rect x="328" y="68" width="10" height="10" class="count0" style="animation-delay: 1871.3372989582451ms" /><rect x="328.5" y="68.5" width="9" height="9" class="st" style="animation-delay: 1871.3372989582451ms" />
<rect x="328" y="81" width="10" height="10" class="count2" style="animation-delay: 1879.313980350146ms" /><rect x="328.5" y="81.5" width="9" height="9" class="st" style="animation-delay: 1879.313980350146ms" />
<rect x="341" y="3" width="10" height="10" class="count2" style="animation-delay: 1887.405858415458ms" /><rect x="341.5" y="3.5" width="9" height="9" class="st" style="animation-delay: 1887.405858415458ms" />
<rect x="341" y="16" width="10" height="10" class="count1" style="animation-delay: 1895.6171845604122ms" /><rect x="341.5" y="16.5" width="9" height="9" class="st" style="animation-delay: 1895.6171845604122ms" />
<rect x="341" y="29" width="10" height="10" class="count0" style="animation-delay: 1903.952466931995ms" /><rect x="341.5" y="29.5" width="9" height="9" class="st" style="animation-delay: 1903.952466931995ms" />
<rect x="341" y="42" width="10" height="10" class="count0" style="animation-delay: 1912.4164922318735ms" /><rect x="341.5" y="42.5" width="9" height="9" class="st" style="animation-delay: 1912.4164922318735ms" />
<rect x="341" y="55" width="10" height="10" class="count2" style="animation-delay: 1921.0143499453156ms" /><rect x="341.5" y="55.5" width="9" height="9" class="st" style="animation-delay: 1921.0143499453156ms" />
<rect x="341" y="68" width="10" height="10" class="count0" style="animation-delay: 1929.7514593176804ms" /><rect x="341.5" y="68.5" width="9" height="9" class="st" style="animation-delay: 1929.7514593176804ms" />
<rect x="341" y="81" width="10" height="10" class="count0" style="animation-delay: 1938.6335994662652ms" /><rect x="341.5" y="81.5" width="9" height="9" class="st" style="animation-delay: 1938.6335994662652ms" />
<rect x="354" y="3" width="10" height="10" class="count1" style="animation-delay: 1947.666943081335ms" /><rect x="354.5" y="3.5" width="9" height="9" class="st" style="animation-delay: 1947.666943081335ms" />
<rect x="354" y="16" width="10" height="10" class="count1" style="animation-delay: 1956.8580942494877ms" /><rect x="354.5" y="16.5" width="9" height="9" class="st" style="animation-delay: 1956.8580942494877ms" />
<rect x="354" y="29" width="10" height="10" class="count0" style="animation-delay: 1966.2141310281809ms" /><rect x="354.5" y="29.5" width="9" height="9" class="st" style="animation-delay: 1966.2141310281809ms" />
<rect x="354" y="42" width="10" height="10" class="count0" style="animation-delay: 1975.7426535162335ms" /><rect x="354.5" y="42.5" width="9" height="9" class="st" style="animation-delay: 1975.7426535162335ms" />
<rect x="354" y="55" width="10" height="10" class="count0" style="animation-delay: 1985.451838306409ms" /><rect x="354.5" y="55.5" width="9" height="9" class="st" style="animation-delay: 1985.451838306409ms" />
<rect x="354" y="68" width="10" height="10" class="count0" style="animation-delay: 1995.350500379181ms" /><rect x="354.5" y="68.5" width="9" height="9" class="st" style="animation-delay: 1995.350500379181ms" />
<rect x="354" y="81" width="10" height="10" class="count0" style="animation-delay: 2005.448163709847ms" /><rect x="354.5" y="81.5" width="9" height="9" class="st" style="animation-delay: 2005.448163709847ms" />
<rect x="367" y="3" width="10" height="10" class="count0" style="animation-delay: 2015.7551421249786ms" /><rect x="367.5" y="3.5" width="9" height="9" class="st" style="animation-delay: 2015.7551421249786ms" />
<rect x="367" y="16" width="10" height="10" class="count0" style="animation-delay: 2026.28263227305ms" /><rect x="367.5" y="16.5" width="9" height="9" class="st" style="animation-delay: 2026.28263227305ms" />
<rect x="367" y="29" width="10" height="10" class="count0" style="animation-delay: 2037.0428209865245ms" /><rect x="367.5" y="29.5" width="9" height="9" class="st" style="animation-delay: 2037.0428209865245ms" />
<rect x="367" y="42" width="10" height="10" class="count0" style="animation-delay: 2048.049009833681ms" /><rect x="367.5" y="42.5" width="9" height="9" class="st" style="animation-delay: 2048.049009833681ms" />
<rect x="367" y="55" width="10" height="10" class="count0" style="animation-delay: 2059.3157603214277ms" /><rect x="367.5" y="55.5" width="9" height="9" class="st" style="animation-delay: 2059.3157603214277ms" />
<rect x="367" y="68" width="10" height="10" class="count0" style="animation-delay: 2070.8590640605953ms" /><rect x="367.5" y="68.5" width="9" height="9" class="st" style="animation-delay: 2070.8590640605953ms" />
<rect x="367" y="81" width="10" height="10" class="count0" style="animation-delay: 2082.6965433049036ms" /><rect x="367.5" y="81.5" width="9" height="9" class="st" style="animation-delay: 2082.6965433049036ms" />
<rect x="380" y="3" width="10" height="10" class="count0" style="animation-delay: 2094.847688709934ms" /><rect x="380.5" y="3.5" width="9" height="9" class="st" style="animation-delay: 2094.847688709934ms" />
<rect x="380" y="16" width="10" height="10" class="count0" style="animation-delay: 2107.3341430495293ms" /><rect x="380.5" y="16.5" width="9" height="9" class="st" style="animation-delay: 2107.3341430495293ms" />
<rect x="380" y="29" width="10" height="10" class="count0" style="animation-delay: 2120.1800421448997ms" /><rect x="380.5" y="29.5" width="9" height="9" class="st" style="animation-delay: 2120.1800421448997ms" />
<rect x="380" y="42" width="10" height="10" class="count0" style="animation-delay: 2133.412427651947ms" /><rect x="380.5" y="42.5" width="9" height="9" class="st" style="animation-delay: 2133.412427651947ms" />
<rect x="380" y="55" width="10" height="10" class="count0" style="animation-delay: 2147.0617509726762ms" /><rect x="380.5" y="55.5" width="9" height="9" class="st" style="animation-delay: 2147.0617509726762ms" />
<rect x="380" y="68" width="10" height="10" class="count0" style="animation-delay: 2161.162493937047ms" /><rect x="380.5" y="68.5" width="9" height="9" class="st" style="animation-delay: 2161.162493937047ms" />
<rect x="380" y="81" width="10" height="10" class="count0" style="animation-delay: 2175.7539408398698ms" /><rect x="380.5" y="81.5" width="9" height="9" class="st" style="animation-delay: 2175.7539408398698ms" />
<rect x="393" y="3" width="10" height="10" class="count0" style="animation-delay: 2190.881149136981ms" /><rect x="393.5" y="3.5" width="9" height="9" class="st" style="animation-delay: 2190.881149136981ms" />
<rect x="393" y="16" width="10" height="10" class="count0" style="animation-delay: 2206.5961845205525ms" /><rect x="393.5" y="16.5" width="9" height="9" class="st" style="animation-delay: 2206.5961845205525ms" />
<rect x="393" y="29" width="10" height="10" class="count0" style="animation-delay: 2222.959713268637ms" /><rect x="393.5" y="29.5" width="9" height="9" class="st" style="animation-delay: 2222.959713268637ms" />
<rect x="393" y="42" width="10" height="10" class="count0" style="animation-delay: 2240.043085723099ms" /><rect x="393.5" y="42.5" width="9" height="9" class="st" style="animation-delay: 2240.043085723099ms" />
<rect x="393" y="55" width="10" height="10" class="count1" style="animation-delay: 2257.9311079606ms" /><rect x="393.5" y="55.5" width="9" height="9" class="st" style="animation-delay: 2257.9311079606ms" />
<rect x="393" y="68" width="10" height="10" class="count1" style="animation-delay: 2276.725798900275ms" /><rect x="393.5" y="68.5" width="9" height="9" class="st" style="animation-delay: 2276.725798900275ms" />
<rect x="393" y="81" width="10" height="10" class="count1" style="animation-delay: 2296.5515937180376ms" /><rect x="393.5" y="81.5" width="9" height="9" class="st" style="animation-delay: 2296.5515937180376ms" />
<rect x="406" y="3" width="10" height="10" class="count0" style="animation-delay: 2317.5627310707155ms" /><rect x="406.5" y="3.5" width="9" height="9" class="st" style="animation-delay: 2317.5627310707155ms" />
<rect x="406" y="16" width="10" height="10" class="count0" style="animation-delay: 2339.9540483389324ms" /><rect x="406.5" y="16.5" width="9" height="9" class="st" style="animation-delay: 2339.9540483389324ms" />
<rect x="406" y="29" width="10" height="10" class="count1" style="animation-delay: 2363.9773062996455ms" /><rect x="406.5" y="29.5" width="9" height="9" class="st" style="animation-delay: 2363.9773062996455ms" />
<rect x="406" y="42" width="10" height="10" class="count3" style="animation-delay: 2389.966912822466ms" /><rect x="406.5" y="42.5" width="9" height="9" class="st" style="animation-delay: 2389.966912822466ms" />
<rect x="406" y="55" width="10" height="10" class="count2" style="animation-delay: 2418.382557823083ms" /><rect x="406.5" y="55.5" width="9" height="9" class="st" style="animation-delay: 2418.382557823083ms" />
<rect x="406" y="68" width="10" height="10" class="count0" style="animation-delay: 2449.884519424515ms" /><rect x="406.5" y="68.5" width="9" height="9" class="st" style="animation-delay: 2449.884519424515ms" />
<rect x="406" y="81" width="10" height="10" class="count2" style="animation-delay: 2485.4781673595985ms" /><rect x="406.5" y="81.5" width="9" height="9" class="st" style="animation-delay: 2485.4781673595985ms" />
<rect x="419" y="3" width="10" height="10" class="count0" style="animation-delay: 2526.824425550824ms" /><rect x="419.5" y="3.5" width="9" height="9" class="st" style="animation-delay: 2526.824425550824ms" />
<rect x="419" y="16" width="10" height="10" class="count0" style="animation-delay: 2577.0266812785326ms" /><rect x="419.5" y="16.5" width="9" height="9" class="st" style="animation-delay: 2577.0266812785326ms" />
<rect x="419" y="29" width="10" height="10" class="count0" style="animation-delay: 2643.2504864392267ms" /><rect x="419.5" y="29.5" width="9" height="9" class="st" style="animation-delay: 2643.2504864392267ms" />
<rect x="419" y="42" width="10" height="10" class="count3" style="animation-delay: 2752.643702653533ms" /><rect x="419.5" y="42.5" width="9" height="9" class="st" style="animation-delay: 2752.643702653533ms" />
</svg>

  