

<svg height="94" width="315" xmlns="http://www.w3.org/2000/svg" fill='#4FA1A7'>
  <style>
  rect {
  rx: 2;
  ry: 2;
  animation: wow .5s backwards;
  }
  .st {
  
  stroke: rgba(27, 31, 35, 0.06);
  stroke-width: 1;
  fill: none;
  }
  @keyframes wow {
  from {opacity: 0;}
  to{ opacity: 1;}}
  .count0 {fill: #ebedf0}
.count1 {fill: #9be9a8}
.count2 {fill: #9be9a8}
.count3 {fill: #40c463}
.count4 {fill: #40c463}
.count5 {fill: #30a14e}
.count6 {fill: #30a14e}
.count7 {fill: #216e39}
.count8 {fill: #216e39}
  </style>
<rect x="3" y="68" width="10" height="10" class="count3" style="animation-delay: 276.302362398029ms" /><rect x="3.5" y="68.5" width="9" height="9" class="st" style="animation-delay: 276.302362398029ms" />
<rect x="3" y="81" width="10" height="10" class="count3" style="animation-delay: 398.49696344347916ms" /><rect x="3.5" y="81.5" width="9" height="9" class="st" style="animation-delay: 398.49696344347916ms" />
<rect x="16" y="3" width="10" height="10" class="count1" style="animation-delay: 472.47039371057747ms" /><rect x="16.5" y="3.5" width="9" height="9" class="st" style="animation-delay: 472.47039371057747ms" />
<rect x="16" y="16" width="10" height="10" class="count2" style="animation-delay: 528.5474049048669ms" /><rect x="16.5" y="16.5" width="9" height="9" class="st" style="animation-delay: 528.5474049048669ms" />
<rect x="16" y="29" width="10" height="10" class="count5" style="animation-delay: 574.7320742951648ms" /><rect x="16.5" y="29.5" width="9" height="9" class="st" style="animation-delay: 574.7320742951648ms" />
<rect x="16" y="42" width="10" height="10" class="count1" style="animation-delay: 614.4909529504844ms" /><rect x="16.5" y="42.5" width="9" height="9" class="st" style="animation-delay: 614.4909529504844ms" />
<rect x="16" y="55" width="10" height="10" class="count3" style="animation-delay: 649.6793290056771ms" /><rect x="16.5" y="55.5" width="9" height="9" class="st" style="animation-delay: 649.6793290056771ms" />
<rect x="16" y="68" width="10" height="10" class="count2" style="animation-delay: 681.4202223120524ms" /><rect x="16.5" y="68.5" width="9" height="9" class="st" style="animation-delay: 681.4202223120524ms" />
<rect x="16" y="81" width="10" height="10" class="count2" style="animation-delay: 710.4511778894322ms" /><rect x="16.5" y="81.5" width="9" height="9" class="st" style="animation-delay: 710.4511778894322ms" />
<rect x="29" y="3" width="10" height="10" class="count2" style="animation-delay: 737.2856793686689ms" /><rect x="29.5" y="3.5" width="9" height="9" class="st" style="animation-delay: 737.2856793686689ms" />
<rect x="29" y="16" width="10" height="10" class="count1" style="animation-delay: 762.2972676111401ms" /><rect x="29.5" y="16.5" width="9" height="9" class="st" style="animation-delay: 762.2972676111401ms" />
<rect x="29" y="29" width="10" height="10" class="count2" style="animation-delay: 785.7671648787355ms" /><rect x="29.5" y="29.5" width="9" height="9" class="st" style="animation-delay: 785.7671648787355ms" />
<rect x="29" y="42" width="10" height="10" class="count2" style="animation-delay: 807.9130087619565ms" /><rect x="29.5" y="42.5" width="9" height="9" class="st" style="animation-delay: 807.9130087619565ms" />
<rect x="29" y="55" width="10" height="10" class="count1" style="animation-delay: 828.907087194087ms" /><rect x="29.5" y="55.5" width="9" height="9" class="st" style="animation-delay: 828.907087194087ms" />
<rect x="29" y="68" width="10" height="10" class="count3" style="animation-delay: 848.8883969722131ms" /><rect x="29.5" y="68.5" width="9" height="9" class="st" style="animation-delay: 848.8883969722131ms" />
<rect x="29" y="81" width="10" height="10" class="count2" style="animation-delay: 867.9708954472035ms" /><rect x="29.5" y="81.5" width="9" height="9" class="st" style="animation-delay: 867.9708954472035ms" />
<rect x="42" y="3" width="10" height="10" class="count1" style="animation-delay: 886.2493128506259ms" /><rect x="42.5" y="3.5" width="9" height="9" class="st" style="animation-delay: 886.2493128506259ms" />
<rect x="42" y="16" width="10" height="10" class="count1" style="animation-delay: 903.8033490657114ms" /><rect x="42.5" y="16.5" width="9" height="9" class="st" style="animation-delay: 903.8033490657114ms" />
<rect x="42" y="29" width="10" height="10" class="count2" style="animation-delay: 920.7007696441115ms" /><rect x="42.5" y="29.5" width="9" height="9" class="st" style="animation-delay: 920.7007696441115ms" />
<rect x="42" y="42" width="10" height="10" class="count1" style="animation-delay: 936.9997330960431ms" /><rect x="42.5" y="42.5" width="9" height="9" class="st" style="animation-delay: 936.9997330960431ms" />
<rect x="42" y="55" width="10" height="10" class="count1" style="animation-delay: 952.7505695793607ms" /><rect x="42.5" y="55.5" width="9" height="9" class="st" style="animation-delay: 952.7505695793607ms" />
<rect x="42" y="68" width="10" height="10" class="count1" style="animation-delay: 967.9971605055246ms" /><rect x="42.5" y="68.5" width="9" height="9" class="st" style="animation-delay: 967.9971605055246ms" />
<rect x="42" y="81" width="10" height="10" class="count1" style="animation-delay: 982.7780228283361ms" /><rect x="42.5" y="81.5" width="9" height="9" class="st" style="animation-delay: 982.7780228283361ms" />
<rect x="55" y="3" width="10" height="10" class="count1" style="animation-delay: 997.12717142594ms" /><rect x="55.5" y="3.5" width="9" height="9" class="st" style="animation-delay: 997.12717142594ms" />
<rect x="55" y="16" width="10" height="10" class="count1" style="animation-delay: 1011.0748124159439ms" /><rect x="55.5" y="16.5" width="9" height="9" class="st" style="animation-delay: 1011.0748124159439ms" />
<rect x="55" y="29" width="10" height="10" class="count2" style="animation-delay: 1024.6479060354256ms" /><rect x="55.5" y="29.5" width="9" height="9" class="st" style="animation-delay: 1024.6479060354256ms" />
<rect x="55" y="42" width="10" height="10" class="count3" style="animation-delay: 1037.8706277333445ms" /><rect x="55.5" y="42.5" width="9" height="9" class="st" style="animation-delay: 1037.8706277333445ms" />
<rect x="55" y="55" width="10" height="10" class="count3" style="animation-delay: 1050.76474899577ms" /><rect x="55.5" y="55.5" width="9" height="9" class="st" style="animation-delay: 1050.76474899577ms" />
<rect x="55" y="68" width="10" height="10" class="count1" style="animation-delay: 1063.3499542632685ms" /><rect x="55.5" y="68.5" width="9" height="9" class="st" style="animation-delay: 1063.3499542632685ms" />
<rect x="55" y="81" width="10" height="10" class="count2" style="animation-delay: 1075.6441065128417ms" /><rect x="55.5" y="81.5" width="9" height="9" class="st" style="animation-delay: 1075.6441065128417ms" />
<rect x="68" y="3" width="10" height="10" class="count0" style="animation-delay: 1087.663471264317ms" /><rect x="68.5" y="3.5" width="9" height="9" class="st" style="animation-delay: 1087.663471264317ms" />
<rect x="68" y="16" width="10" height="10" class="count2" style="animation-delay: 1099.4229066586781ms" /><rect x="68.5" y="16.5" width="9" height="9" class="st" style="animation-delay: 1099.4229066586781ms" />
<rect x="68" y="29" width="10" height="10" class="count2" style="animation-delay: 1110.936025652764ms" /><rect x="68.5" y="29.5" width="9" height="9" class="st" style="animation-delay: 1110.936025652764ms" />
<rect x="68" y="42" width="10" height="10" class="count1" style="animation-delay: 1122.2153351463685ms" /><rect x="68.5" y="42.5" width="9" height="9" class="st" style="animation-delay: 1122.2153351463685ms" />
<rect x="68" y="55" width="10" height="10" class="count2" style="animation-delay: 1133.2723559080266ms" /><rect x="68.5" y="55.5" width="9" height="9" class="st" style="animation-delay: 1133.2723559080266ms" />
<rect x="68" y="68" width="10" height="10" class="count2" style="animation-delay: 1144.117726425224ms" /><rect x="68.5" y="68.5" width="9" height="9" class="st" style="animation-delay: 1144.117726425224ms" />
<rect x="68" y="81" width="10" height="10" class="count1" style="animation-delay: 1154.7612932228144ms" /><rect x="68.5" y="81.5" width="9" height="9" class="st" style="animation-delay: 1154.7612932228144ms" />
<rect x="81" y="3" width="10" height="10" class="count1" style="animation-delay: 1165.212189732697ms" /><rect x="81.5" y="3.5" width="9" height="9" class="st" style="animation-delay: 1165.212189732697ms" />
<rect x="81" y="16" width="10" height="10" class="count3" style="animation-delay: 1175.4789054305027ms" /><rect x="81.5" y="16.5" width="9" height="9" class="st" style="animation-delay: 1175.4789054305027ms" />
<rect x="81" y="29" width="10" height="10" class="count5" style="animation-delay: 1185.5693466603086ms" /><rect x="81.5" y="29.5" width="9" height="9" class="st" style="animation-delay: 1185.5693466603086ms" />
<rect x="81" y="42" width="10" height="10" class="count2" style="animation-delay: 1195.4908903304374ms" /><rect x="81.5" y="42.5" width="9" height="9" class="st" style="animation-delay: 1195.4908903304374ms" />
<rect x="81" y="55" width="10" height="10" class="count4" style="animation-delay: 1205.2504314701282ms" /><rect x="81.5" y="55.5" width="9" height="9" class="st" style="animation-delay: 1205.2504314701282ms" />
<rect x="81" y="68" width="10" height="10" class="count5" style="animation-delay: 1214.8544254790563ms" /><rect x="81.5" y="68.5" width="9" height="9" class="st" style="animation-delay: 1214.8544254790563ms" />
<rect x="81" y="81" width="10" height="10" class="count5" style="animation-delay: 1224.308925772119ms" /><rect x="81.5" y="81.5" width="9" height="9" class="st" style="animation-delay: 1224.308925772119ms" />
<rect x="94" y="3" width="10" height="10" class="count5" style="animation-delay: 1233.6196174150214ms" /><rect x="94.5" y="3.5" width="9" height="9" class="st" style="animation-delay: 1233.6196174150214ms" />
<rect x="94" y="16" width="10" height="10" class="count3" style="animation-delay: 1242.791847257602ms" /><rect x="94.5" y="16.5" width="9" height="9" class="st" style="animation-delay: 1242.791847257602ms" />
<rect x="94" y="29" width="10" height="10" class="count5" style="animation-delay: 1251.8306509980657ms" /><rect x="94.5" y="29.5" width="9" height="9" class="st" style="animation-delay: 1251.8306509980657ms" />
<rect x="94" y="42" width="10" height="10" class="count6" style="animation-delay: 1260.7407775496113ms" /><rect x="94.5" y="42.5" width="9" height="9" class="st" style="animation-delay: 1260.7407775496113ms" />
<rect x="94" y="55" width="10" height="10" class="count2" style="animation-delay: 1269.5267110291365ms" /><rect x="94.5" y="55.5" width="9" height="9" class="st" style="animation-delay: 1269.5267110291365ms" />
<rect x="94" y="68" width="10" height="10" class="count2" style="animation-delay: 1278.1926906440513ms" /><rect x="94.5" y="68.5" width="9" height="9" class="st" style="animation-delay: 1278.1926906440513ms" />
<rect x="94" y="81" width="10" height="10" class="count1" style="animation-delay: 1286.742728716282ms" /><rect x="94.5" y="81.5" width="9" height="9" class="st" style="animation-delay: 1286.742728716282ms" />
<rect x="107" y="3" width="10" height="10" class="count4" style="animation-delay: 1295.1806270511938ms" /><rect x="107.5" y="3.5" width="9" height="9" class="st" style="animation-delay: 1295.1806270511938ms" />
<rect x="107" y="16" width="10" height="10" class="count1" style="animation-delay: 1303.5099918324186ms" /><rect x="107.5" y="16.5" width="9" height="9" class="st" style="animation-delay: 1303.5099918324186ms" />
<rect x="107" y="29" width="10" height="10" class="count0" style="animation-delay: 1311.7342472007413ms" /><rect x="107.5" y="29.5" width="9" height="9" class="st" style="animation-delay: 1311.7342472007413ms" />
<rect x="107" y="42" width="10" height="10" class="count1" style="animation-delay: 1319.856647655602ms" /><rect x="107.5" y="42.5" width="9" height="9" class="st" style="animation-delay: 1319.856647655602ms" />
<rect x="107" y="55" width="10" height="10" class="count4" style="animation-delay: 1327.8802894009198ms" /><rect x="107.5" y="55.5" width="9" height="9" class="st" style="animation-delay: 1327.8802894009198ms" />
<rect x="107" y="68" width="10" height="10" class="count4" style="animation-delay: 1335.8081207424084ms" /><rect x="107.5" y="68.5" width="9" height="9" class="st" style="animation-delay: 1335.8081207424084ms" />
<rect x="107" y="81" width="10" height="10" class="count5" style="animation-delay: 1343.64295163098ms" /><rect x="107.5" y="81.5" width="9" height="9" class="st" style="animation-delay: 1343.64295163098ms" />
<rect x="120" y="3" width="10" height="10" class="count3" style="animation-delay: 1351.3874624359246ms" /><rect x="120.5" y="3.5" width="9" height="9" class="st" style="animation-delay: 1351.3874624359246ms" />
<rect x="120" y="16" width="10" height="10" class="count4" style="animation-delay: 1359.0442120220687ms" /><rect x="120.5" y="16.5" width="9" height="9" class="st" style="animation-delay: 1359.0442120220687ms" />
<rect x="120" y="29" width="10" height="10" class="count6" style="animation-delay: 1366.6156451968432ms" /><rect x="120.5" y="29.5" width="9" height="9" class="st" style="animation-delay: 1366.6156451968432ms" />
<rect x="120" y="42" width="10" height="10" class="count6" style="animation-delay: 1374.1040995859717ms" /><rect x="120.5" y="42.5" width="9" height="9" class="st" style="animation-delay: 1374.1040995859717ms" />
<rect x="120" y="55" width="10" height="10" class="count6" style="animation-delay: 1381.5118119901451ms" /><rect x="120.5" y="55.5" width="9" height="9" class="st" style="animation-delay: 1381.5118119901451ms" />
<rect x="120" y="68" width="10" height="10" class="count8" style="animation-delay: 1388.8409242695095ms" /><rect x="120.5" y="68.5" width="9" height="9" class="st" style="animation-delay: 1388.8409242695095ms" />
<rect x="120" y="81" width="10" height="10" class="count7" style="animation-delay: 1396.0934887978842ms" /><rect x="120.5" y="81.5" width="9" height="9" class="st" style="animation-delay: 1396.0934887978842ms" />
<rect x="133" y="3" width="10" height="10" class="count5" style="animation-delay: 1403.2714735243267ms" /><rect x="133.5" y="3.5" width="9" height="9" class="st" style="animation-delay: 1403.2714735243267ms" />
<rect x="133" y="16" width="10" height="10" class="count5" style="animation-delay: 1410.3767666758522ms" /><rect x="133.5" y="16.5" width="9" height="9" class="st" style="animation-delay: 1410.3767666758522ms" />
<rect x="133" y="29" width="10" height="10" class="count5" style="animation-delay: 1417.4111811317323ms" /><rect x="133.5" y="29.5" width="9" height="9" class="st" style="animation-delay: 1417.4111811317323ms" />
<rect x="133" y="42" width="10" height="10" class="count5" style="animation-delay: 1424.376458496819ms" /><rect x="133.5" y="42.5" width="9" height="9" class="st" style="animation-delay: 1424.376458496819ms" />
<rect x="133" y="55" width="10" height="10" class="count7" style="animation-delay: 1431.2742728986714ms" /><rect x="133.5" y="55.5" width="9" height="9" class="st" style="animation-delay: 1431.2742728986714ms" />
<rect x="133" y="68" width="10" height="10" class="count3" style="animation-delay: 1438.1062345309035ms" /><rect x="133.5" y="68.5" width="9" height="9" class="st" style="animation-delay: 1438.1062345309035ms" />
<rect x="133" y="81" width="10" height="10" class="count5" style="animation-delay: 1444.8738929630579ms" /><rect x="133.5" y="81.5" width="9" height="9" class="st" style="animation-delay: 1444.8738929630579ms" />
<rect x="146" y="3" width="10" height="10" class="count6" style="animation-delay: 1451.578740235424ms" /><rect x="146.5" y="3.5" width="9" height="9" class="st" style="animation-delay: 1451.578740235424ms" />
<rect x="146" y="16" width="10" height="10" class="count4" style="animation-delay: 1458.2222137555386ms" /><rect x="146.5" y="16.5" width="9" height="9" class="st" style="animation-delay: 1458.2222137555386ms" />
<rect x="146" y="29" width="10" height="10" class="count3" style="animation-delay: 1464.8056990115906ms" /><rect x="146.5" y="29.5" width="9" height="9" class="st" style="animation-delay: 1464.8056990115906ms" />
<rect x="146" y="42" width="10" height="10" class="count3" style="animation-delay: 1471.3305321165938ms" /><rect x="146.5" y="42.5" width="9" height="9" class="st" style="animation-delay: 1471.3305321165938ms" />
<rect x="146" y="55" width="10" height="10" class="count3" style="animation-delay: 1477.7980021959786ms" /><rect x="146.5" y="55.5" width="9" height="9" class="st" style="animation-delay: 1477.7980021959786ms" />
<rect x="146" y="68" width="10" height="10" class="count3" style="animation-delay: 1484.2093536301522ms" /><rect x="146.5" y="68.5" width="9" height="9" class="st" style="animation-delay: 1484.2093536301522ms" />
<rect x="146" y="81" width="10" height="10" class="count3" style="animation-delay: 1490.5657881625852ms" /><rect x="146.5" y="81.5" width="9" height="9" class="st" style="animation-delay: 1490.5657881625852ms" />
<rect x="159" y="3" width="10" height="10" class="count1" style="animation-delay: 1496.868466883096ms" /><rect x="159.5" y="3.5" width="9" height="9" class="st" style="animation-delay: 1496.868466883096ms" />
<rect x="159" y="16" width="10" height="10" class="count3" style="animation-delay: 1503.131533116904ms" /><rect x="159.5" y="16.5" width="9" height="9" class="st" style="animation-delay: 1503.131533116904ms" />
<rect x="159" y="29" width="10" height="10" class="count1" style="animation-delay: 1509.4342118374148ms" /><rect x="159.5" y="29.5" width="9" height="9" class="st" style="animation-delay: 1509.4342118374148ms" />
<rect x="159" y="42" width="10" height="10" class="count0" style="animation-delay: 1515.7906463698478ms" /><rect x="159.5" y="42.5" width="9" height="9" class="st" style="animation-delay: 1515.7906463698478ms" />
<rect x="159" y="55" width="10" height="10" class="count1" style="animation-delay: 1522.2019978040214ms" /><rect x="159.5" y="55.5" width="9" height="9" class="st" style="animation-delay: 1522.2019978040214ms" />
<rect x="159" y="68" width="10" height="10" class="count0" style="animation-delay: 1528.6694678834062ms" /><rect x="159.5" y="68.5" width="9" height="9" class="st" style="animation-delay: 1528.6694678834062ms" />
<rect x="159" y="81" width="10" height="10" class="count0" style="animation-delay: 1535.1943009884094ms" /><rect x="159.5" y="81.5" width="9" height="9" class="st" style="animation-delay: 1535.1943009884094ms" />
<rect x="172" y="3" width="10" height="10" class="count0" style="animation-delay: 1541.7777862444614ms" /><rect x="172.5" y="3.5" width="9" height="9" class="st" style="animation-delay: 1541.7777862444614ms" />
<rect x="172" y="16" width="10" height="10" class="count2" style="animation-delay: 1548.421259764576ms" /><rect x="172.5" y="16.5" width="9" height="9" class="st" style="animation-delay: 1548.421259764576ms" />
<rect x="172" y="29" width="10" height="10" class="count0" style="animation-delay: 1555.1261070369421ms" /><rect x="172.5" y="29.5" width="9" height="9" class="st" style="animation-delay: 1555.1261070369421ms" />
<rect x="172" y="42" width="10" height="10" class="count1" style="animation-delay: 1561.8937654690963ms" /><rect x="172.5" y="42.5" width="9" height="9" class="st" style="animation-delay: 1561.8937654690963ms" />
<rect x="172" y="55" width="10" height="10" class="count1" style="animation-delay: 1568.7257271013286ms" /><rect x="172.5" y="55.5" width="9" height="9" class="st" style="animation-delay: 1568.7257271013286ms" />
<rect x="172" y="68" width="10" height="10" class="count1" style="animation-delay: 1575.6235415031813ms" /><rect x="172.5" y="68.5" width="9" height="9" class="st" style="animation-delay: 1575.6235415031813ms" />
<rect x="172" y="81" width="10" height="10" class="count1" style="animation-delay: 1582.5888188682677ms" /><rect x="172.5" y="81.5" width="9" height="9" class="st" style="animation-delay: 1582.5888188682677ms" />
<rect x="185" y="3" width="10" height="10" class="count0" style="animation-delay: 1589.623233324148ms" /><rect x="185.5" y="3.5" width="9" height="9" class="st" style="animation-delay: 1589.623233324148ms" />
<rect x="185" y="16" width="10" height="10" class="count3" style="animation-delay: 1596.7285264756729ms" /><rect x="185.5" y="16.5" width="9" height="9" class="st" style="animation-delay: 1596.7285264756729ms" />
<rect x="185" y="29" width="10" height="10" class="count0" style="animation-delay: 1603.906511202116ms" /><rect x="185.5" y="29.5" width="9" height="9" class="st" style="animation-delay: 1603.906511202116ms" />
<rect x="185" y="42" width="10" height="10" class="count0" style="animation-delay: 1611.1590757304905ms" /><rect x="185.5" y="42.5" width="9" height="9" class="st" style="animation-delay: 1611.1590757304905ms" />
<rect x="185" y="55" width="10" height="10" class="count2" style="animation-delay: 1618.4881880098549ms" /><rect x="185.5" y="55.5" width="9" height="9" class="st" style="animation-delay: 1618.4881880098549ms" />
<rect x="185" y="68" width="10" height="10" class="count1" style="animation-delay: 1625.8959004140283ms" /><rect x="185.5" y="68.5" width="9" height="9" class="st" style="animation-delay: 1625.8959004140283ms" />
<rect x="185" y="81" width="10" height="10" class="count0" style="animation-delay: 1633.3843548031566ms" /><rect x="185.5" y="81.5" width="9" height="9" class="st" style="animation-delay: 1633.3843548031566ms" />
<rect x="198" y="3" width="10" height="10" class="count0" style="animation-delay: 1640.9557879779318ms" /><rect x="198.5" y="3.5" width="9" height="9" class="st" style="animation-delay: 1640.9557879779318ms" />
<rect x="198" y="16" width="10" height="10" class="count0" style="animation-delay: 1648.6125375640752ms" /><rect x="198.5" y="16.5" width="9" height="9" class="st" style="animation-delay: 1648.6125375640752ms" />
<rect x="198" y="29" width="10" height="10" class="count0" style="animation-delay: 1656.3570483690203ms" /><rect x="198.5" y="29.5" width="9" height="9" class="st" style="animation-delay: 1656.3570483690203ms" />
<rect x="198" y="42" width="10" height="10" class="count0" style="animation-delay: 1664.1918792575914ms" /><rect x="198.5" y="42.5" width="9" height="9" class="st" style="animation-delay: 1664.1918792575914ms" />
<rect x="198" y="55" width="10" height="10" class="count0" style="animation-delay: 1672.11971059908ms" /><rect x="198.5" y="55.5" width="9" height="9" class="st" style="animation-delay: 1672.11971059908ms" />
<rect x="198" y="68" width="10" height="10" class="count0" style="animation-delay: 1680.1433523443977ms" /><rect x="198.5" y="68.5" width="9" height="9" class="st" style="animation-delay: 1680.1433523443977ms" />
<rect x="198" y="81" width="10" height="10" class="count0" style="animation-delay: 1688.2657527992585ms" /><rect x="198.5" y="81.5" width="9" height="9" class="st" style="animation-delay: 1688.2657527992585ms" />
<rect x="211" y="3" width="10" height="10" class="count0" style="animation-delay: 1696.4900081675817ms" /><rect x="211.5" y="3.5" width="9" height="9" class="st" style="animation-delay: 1696.4900081675817ms" />
<rect x="211" y="16" width="10" height="10" class="count0" style="animation-delay: 1704.819372948806ms" /><rect x="211.5" y="16.5" width="9" height="9" class="st" style="animation-delay: 1704.819372948806ms" />
<rect x="211" y="29" width="10" height="10" class="count0" style="animation-delay: 1713.257271283718ms" /><rect x="211.5" y="29.5" width="9" height="9" class="st" style="animation-delay: 1713.257271283718ms" />
<rect x="211" y="42" width="10" height="10" class="count0" style="animation-delay: 1721.8073093559487ms" /><rect x="211.5" y="42.5" width="9" height="9" class="st" style="animation-delay: 1721.8073093559487ms" />
<rect x="211" y="55" width="10" height="10" class="count0" style="animation-delay: 1730.4732889708635ms" /><rect x="211.5" y="55.5" width="9" height="9" class="st" style="animation-delay: 1730.4732889708635ms" />
<rect x="211" y="68" width="10" height="10" class="count0" style="animation-delay: 1739.2592224503887ms" /><rect x="211.5" y="68.5" width="9" height="9" class="st" style="animation-delay: 1739.2592224503887ms" />
<rect x="211" y="81" width="10" height="10" class="count0" style="animation-delay: 1748.1693490019343ms" /><rect x="211.5" y="81.5" width="9" height="9" class="st" style="animation-delay: 1748.1693490019343ms" />
<rect x="224" y="3" width="10" height="10" class="count0" style="animation-delay: 1757.2081527423982ms" /><rect x="224.5" y="3.5" width="9" height="9" class="st" style="animation-delay: 1757.2081527423982ms" />
<rect x="224" y="16" width="10" height="10" class="count0" style="animation-delay: 1766.3803825849786ms" /><rect x="224.5" y="16.5" width="9" height="9" class="st" style="animation-delay: 1766.3803825849786ms" />
<rect x="224" y="29" width="10" height="10" class="count0" style="animation-delay: 1775.6910742278808ms" /><rect x="224.5" y="29.5" width="9" height="9" class="st" style="animation-delay: 1775.6910742278808ms" />
<rect x="224" y="42" width="10" height="10" class="count0" style="animation-delay: 1785.1455745209437ms" /><rect x="224.5" y="42.5" width="9" height="9" class="st" style="animation-delay: 1785.1455745209437ms" />
<rect x="224" y="55" width="10" height="10" class="count0" style="animation-delay: 1794.7495685298716ms" /><rect x="224.5" y="55.5" width="9" height="9" class="st" style="animation-delay: 1794.7495685298716ms" />
<rect x="224" y="68" width="10" height="10" class="count0" style="animation-delay: 1804.5091096695623ms" /><rect x="224.5" y="68.5" width="9" height="9" class="st" style="animation-delay: 1804.5091096695623ms" />
<rect x="224" y="81" width="10" height="10" class="count0" style="animation-delay: 1814.4306533396916ms" /><rect x="224.5" y="81.5" width="9" height="9" class="st" style="animation-delay: 1814.4306533396916ms" />
<rect x="237" y="3" width="10" height="10" class="count1" style="animation-delay: 1824.5210945694973ms" /><rect x="237.5" y="3.5" width="9" height="9" class="st" style="animation-delay: 1824.5210945694973ms" />
<rect x="237" y="16" width="10" height="10" class="count1" style="animation-delay: 1834.7878102673033ms" /><rect x="237.5" y="16.5" width="9" height="9" class="st" style="animation-delay: 1834.7878102673033ms" />
<rect x="237" y="29" width="10" height="10" class="count1" style="animation-delay: 1845.2387067771854ms" /><rect x="237.5" y="29.5" width="9" height="9" class="st" style="animation-delay: 1845.2387067771854ms" />
<rect x="237" y="42" width="10" height="10" class="count0" style="animation-delay: 1855.8822735747758ms" /><rect x="237.5" y="42.5" width="9" height="9" class="st" style="animation-delay: 1855.8822735747758ms" />
<rect x="237" y="55" width="10" height="10" class="count0" style="animation-delay: 1866.7276440919732ms" /><rect x="237.5" y="55.5" width="9" height="9" class="st" style="animation-delay: 1866.7276440919732ms" />
<rect x="237" y="68" width="10" height="10" class="count0" style="animation-delay: 1877.7846648536315ms" /><rect x="237.5" y="68.5" width="9" height="9" class="st" style="animation-delay: 1877.7846648536315ms" />
<rect x="237" y="81" width="10" height="10" class="count0" style="animation-delay: 1889.0639743472361ms" /><rect x="237.5" y="81.5" width="9" height="9" class="st" style="animation-delay: 1889.0639743472361ms" />
<rect x="250" y="3" width="10" height="10" class="count0" style="animation-delay: 1900.5770933413216ms" /><rect x="250.5" y="3.5" width="9" height="9" class="st" style="animation-delay: 1900.5770933413216ms" />
<rect x="250" y="16" width="10" height="10" class="count0" style="animation-delay: 1912.3365287356828ms" /><rect x="250.5" y="16.5" width="9" height="9" class="st" style="animation-delay: 1912.3365287356828ms" />
<rect x="250" y="29" width="10" height="10" class="count1" style="animation-delay: 1924.3558934871585ms" /><rect x="250.5" y="29.5" width="9" height="9" class="st" style="animation-delay: 1924.3558934871585ms" />
<rect x="250" y="42" width="10" height="10" class="count1" style="animation-delay: 1936.6500457367315ms" /><rect x="250.5" y="42.5" width="9" height="9" class="st" style="animation-delay: 1936.6500457367315ms" />
<rect x="250" y="55" width="10" height="10" class="count0" style="animation-delay: 1949.23525100423ms" /><rect x="250.5" y="55.5" width="9" height="9" class="st" style="animation-delay: 1949.23525100423ms" />
<rect x="250" y="68" width="10" height="10" class="count0" style="animation-delay: 1962.1293722666555ms" /><rect x="250.5" y="68.5" width="9" height="9" class="st" style="animation-delay: 1962.1293722666555ms" />
<rect x="250" y="81" width="10" height="10" class="count0" style="animation-delay: 1975.3520939645744ms" /><rect x="250.5" y="81.5" width="9" height="9" class="st" style="animation-delay: 1975.3520939645744ms" />
<rect x="263" y="3" width="10" height="10" class="count0" style="animation-delay: 1988.9251875840562ms" /><rect x="263.5" y="3.5" width="9" height="9" class="st" style="animation-delay: 1988.9251875840562ms" />
<rect x="263" y="16" width="10" height="10" class="count0" style="animation-delay: 2002.8728285740601ms" /><rect x="263.5" y="16.5" width="9" height="9" class="st" style="animation-delay: 2002.8728285740601ms" />
<rect x="263" y="29" width="10" height="10" class="count0" style="animation-delay: 2017.2219771716639ms" /><rect x="263.5" y="29.5" width="9" height="9" class="st" style="animation-delay: 2017.2219771716639ms" />
<rect x="263" y="42" width="10" height="10" class="count2" style="animation-delay: 2032.0028394944757ms" /><rect x="263.5" y="42.5" width="9" height="9" class="st" style="animation-delay: 2032.0028394944757ms" />
<rect x="263" y="55" width="10" height="10" class="count1" style="animation-delay: 2047.2494304206393ms" /><rect x="263.5" y="55.5" width="9" height="9" class="st" style="animation-delay: 2047.2494304206393ms" />
<rect x="263" y="68" width="10" height="10" class="count3" style="animation-delay: 2063.000266903957ms" /><rect x="263.5" y="68.5" width="9" height="9" class="st" style="animation-delay: 2063.000266903957ms" />
<rect x="263" y="81" width="10" height="10" class="count0" style="animation-delay: 2079.2992303558885ms" /><rect x="263.5" y="81.5" width="9" height="9" class="st" style="animation-delay: 2079.2992303558885ms" />
<rect x="276" y="3" width="10" height="10" class="count0" style="animation-delay: 2096.1966509342888ms" /><rect x="276.5" y="3.5" width="9" height="9" class="st" style="animation-delay: 2096.1966509342888ms" />
<rect x="276" y="16" width="10" height="10" class="count1" style="animation-delay: 2113.7506871493742ms" /><rect x="276.5" y="16.5" width="9" height="9" class="st" style="animation-delay: 2113.7506871493742ms" />
<rect x="276" y="29" width="10" height="10" class="count0" style="animation-delay: 2132.0291045527965ms" /><rect x="276.5" y="29.5" width="9" height="9" class="st" style="animation-delay: 2132.0291045527965ms" />
<rect x="276" y="42" width="10" height="10" class="count0" style="animation-delay: 2151.1116030277867ms" /><rect x="276.5" y="42.5" width="9" height="9" class="st" style="animation-delay: 2151.1116030277867ms" />
<rect x="276" y="55" width="10" height="10" class="count0" style="animation-delay: 2171.092912805913ms" /><rect x="276.5" y="55.5" width="9" height="9" class="st" style="animation-delay: 2171.092912805913ms" />
<rect x="276" y="68" width="10" height="10" class="count0" style="animation-delay: 2192.0869912380435ms" /><rect x="276.5" y="68.5" width="9" height="9" class="st" style="animation-delay: 2192.0869912380435ms" />
<rect x="276" y="81" width="10" height="10" class="count0" style="animation-delay: 2214.2328351212645ms" /><rect x="276.5" y="81.5" width="9" height="9" class="st" style="animation-delay: 2214.2328351212645ms" />
<rect x="289" y="3" width="10" height="10" class="count1" style="animation-delay: 2237.7027323888597ms" /><rect x="289.5" y="3.5" width="9" height="9" class="st" style="animation-delay: 2237.7027323888597ms" />
<rect x="289" y="16" width="10" height="10" class="count0" style="animation-delay: 2262.7143206313312ms" /><rect x="289.5" y="16.5" width="9" height="9" class="st" style="animation-delay: 2262.7143206313312ms" />
<rect x="289" y="29" width="10" height="10" class="count0" style="animation-delay: 2289.548822110568ms" /><rect x="289.5" y="29.5" width="9" height="9" class="st" style="animation-delay: 2289.548822110568ms" />
<rect x="289" y="42" width="10" height="10" class="count0" style="animation-delay: 2318.5797776879476ms" /><rect x="289.5" y="42.5" width="9" height="9" class="st" style="animation-delay: 2318.5797776879476ms" />
<rect x="289" y="55" width="10" height="10" class="count1" style="animation-delay: 2350.320670994323ms" /><rect x="289.5" y="55.5" width="9" height="9" class="st" style="animation-delay: 2350.320670994323ms" />
<rect x="289" y="68" width="10" height="10" class="count0" style="animation-delay: 2385.509047049515ms" /><rect x="289.5" y="68.5" width="9" height="9" class="st" style="animation-delay: 2385.509047049515ms" />
<rect x="289" y="81" width="10" height="10" class="count1" style="animation-delay: 2425.2679257048353ms" /><rect x="289.5" y="81.5" width="9" height="9" class="st" style="animation-delay: 2425.2679257048353ms" />
<rect x="302" y="3" width="10" height="10" class="count0" style="animation-delay: 2471.4525950951333ms" /><rect x="302.5" y="3.5" width="9" height="9" class="st" style="animation-delay: 2471.4525950951333ms" />
<rect x="302" y="16" width="10" height="10" class="count0" style="animation-delay: 2527.5296062894226ms" /><rect x="302.5" y="16.5" width="9" height="9" class="st" style="animation-delay: 2527.5296062894226ms" />
<rect x="302" y="29" width="10" height="10" class="count2" style="animation-delay: 2601.5030365565203ms" /><rect x="302.5" y="29.5" width="9" height="9" class="st" style="animation-delay: 2601.5030365565203ms" />
<rect x="302" y="42" width="10" height="10" class="count1" style="animation-delay: 2723.6976376019697ms" /><rect x="302.5" y="42.5" width="9" height="9" class="st" style="animation-delay: 2723.6976376019697ms" />
</svg>

  