

<svg height="94" width="302" xmlns="http://www.w3.org/2000/svg" fill='#4FA1A7'>
  <style>
  rect {
  rx: 2;
  ry: 2;
  animation: wow .5s backwards;
  }
  .st {
  
  stroke: rgba(27, 31, 35, 0.06);
  stroke-width: 1;
  fill: none;
  }
  @keyframes wow {
  from {opacity: 0;}
  to{ opacity: 1;}}
  .count0 {fill: #ebedf0}
.count1 {fill: #9be9a8}
.count2 {fill: #9be9a8}
.count3 {fill: #40c463}
.count4 {fill: #40c463}
.count5 {fill: #30a14e}
.count6 {fill: #30a14e}
.count7 {fill: #216e39}
.count8 {fill: #216e39}
  </style>
<rect x="3" y="68" width="10" height="10" class="count3" style="animation-delay: 278.64401948976536ms" /><rect x="3.5" y="68.5" width="9" height="9" class="st" style="animation-delay: 278.64401948976536ms" />
<rect x="3" y="81" width="10" height="10" class="count3" style="animation-delay: 401.8742173778433ms" /><rect x="3.5" y="81.5" width="9" height="9" class="st" style="animation-delay: 401.8742173778433ms" />
<rect x="16" y="3" width="10" height="10" class="count1" style="animation-delay: 476.47457101281157ms" /><rect x="16.5" y="3.5" width="9" height="9" class="st" style="animation-delay: 476.47457101281157ms" />
<rect x="16" y="16" width="10" height="10" class="count2" style="animation-delay: 533.0268337750095ms" /><rect x="16.5" y="16.5" width="9" height="9" class="st" style="animation-delay: 533.0268337750095ms" />
<rect x="16" y="29" width="10" height="10" class="count5" style="animation-delay: 579.6029173308204ms" /><rect x="16.5" y="29.5" width="9" height="9" class="st" style="animation-delay: 579.6029173308204ms" />
<rect x="16" y="42" width="10" height="10" class="count1" style="animation-delay: 619.6987517014466ms" /><rect x="16.5" y="42.5" width="9" height="9" class="st" style="animation-delay: 619.6987517014466ms" />
<rect x="16" y="55" width="10" height="10" class="count3" style="animation-delay: 655.1853485522241ms" /><rect x="16.5" y="55.5" width="9" height="9" class="st" style="animation-delay: 655.1853485522241ms" />
<rect x="16" y="68" width="10" height="10" class="count2" style="animation-delay: 687.1952453056342ms" /><rect x="16.5" y="68.5" width="9" height="9" class="st" style="animation-delay: 687.1952453056342ms" />
<rect x="16" y="81" width="10" height="10" class="count2" style="animation-delay: 716.4722376610483ms" /><rect x="16.5" y="81.5" width="9" height="9" class="st" style="animation-delay: 716.4722376610483ms" />
<rect x="29" y="3" width="10" height="10" class="count2" style="animation-delay: 743.5341610129997ms" /><rect x="29.5" y="3.5" width="9" height="9" class="st" style="animation-delay: 743.5341610129997ms" />
<rect x="29" y="16" width="10" height="10" class="count1" style="animation-delay: 768.7577219743259ms" /><rect x="29.5" y="16.5" width="9" height="9" class="st" style="animation-delay: 768.7577219743259ms" />
<rect x="29" y="29" width="10" height="10" class="count2" style="animation-delay: 792.4265261600598ms" /><rect x="29.5" y="29.5" width="9" height="9" class="st" style="animation-delay: 792.4265261600598ms" />
<rect x="29" y="42" width="10" height="10" class="count2" style="animation-delay: 814.7600556350055ms" /><rect x="29.5" y="42.5" width="9" height="9" class="st" style="animation-delay: 814.7600556350055ms" />
<rect x="29" y="55" width="10" height="10" class="count1" style="animation-delay: 835.9320584692961ms" /><rect x="29.5" y="55.5" width="9" height="9" class="st" style="animation-delay: 835.9320584692961ms" />
<rect x="29" y="68" width="10" height="10" class="count3" style="animation-delay: 856.0827094551414ms" /><rect x="29.5" y="68.5" width="9" height="9" class="st" style="animation-delay: 856.0827094551414ms" />
<rect x="29" y="81" width="10" height="10" class="count2" style="animation-delay: 875.3269317297191ms" /><rect x="29.5" y="81.5" width="9" height="9" class="st" style="animation-delay: 875.3269317297191ms" />
<rect x="42" y="3" width="10" height="10" class="count1" style="animation-delay: 893.7602583614487ms" /><rect x="42.5" y="3.5" width="9" height="9" class="st" style="animation-delay: 893.7602583614487ms" />
<rect x="42" y="16" width="10" height="10" class="count1" style="animation-delay: 911.4630646885045ms" /><rect x="42.5" y="16.5" width="9" height="9" class="st" style="animation-delay: 911.4630646885045ms" />
<rect x="42" y="29" width="10" height="10" class="count2" style="animation-delay: 928.503690574257ms" /><rect x="42.5" y="29.5" width="9" height="9" class="st" style="animation-delay: 928.503690574257ms" />
<rect x="42" y="42" width="10" height="10" class="count1" style="animation-delay: 944.9407874211549ms" /><rect x="42.5" y="42.5" width="9" height="9" class="st" style="animation-delay: 944.9407874211549ms" />
<rect x="42" y="55" width="10" height="10" class="count1" style="animation-delay: 960.8251119341505ms" /><rect x="42.5" y="55.5" width="9" height="9" class="st" style="animation-delay: 960.8251119341505ms" />
<rect x="42" y="68" width="10" height="10" class="count1" style="animation-delay: 976.2009174188047ms" /><rect x="42.5" y="68.5" width="9" height="9" class="st" style="animation-delay: 976.2009174188047ms" />
<rect x="42" y="81" width="10" height="10" class="count1" style="animation-delay: 991.107047259345ms" /><rect x="42.5" y="81.5" width="9" height="9" class="st" style="animation-delay: 991.107047259345ms" />
<rect x="55" y="3" width="10" height="10" class="count1" style="animation-delay: 1005.5778046093401ms" /><rect x="55.5" y="3.5" width="9" height="9" class="st" style="animation-delay: 1005.5778046093401ms" />
<rect x="55" y="16" width="10" height="10" class="count1" style="animation-delay: 1019.6436515826506ms" /><rect x="55.5" y="16.5" width="9" height="9" class="st" style="animation-delay: 1019.6436515826506ms" />
<rect x="55" y="29" width="10" height="10" class="count2" style="animation-delay: 1033.3317769038342ms" /><rect x="55.5" y="29.5" width="9" height="9" class="st" style="animation-delay: 1033.3317769038342ms" />
<rect x="55" y="42" width="10" height="10" class="count3" style="animation-delay: 1046.6665609083045ms" /><rect x="55.5" y="42.5" width="9" height="9" class="st" style="animation-delay: 1046.6665609083045ms" />
<rect x="55" y="55" width="10" height="10" class="count3" style="animation-delay: 1059.6699595950483ms" /><rect x="55.5" y="55.5" width="9" height="9" class="st" style="animation-delay: 1059.6699595950483ms" />
<rect x="55" y="68" width="10" height="10" class="count1" style="animation-delay: 1072.3618242298783ms" /><rect x="55.5" y="68.5" width="9" height="9" class="st" style="animation-delay: 1072.3618242298783ms" />
<rect x="55" y="81" width="10" height="10" class="count2" style="animation-delay: 1084.7601691781756ms" /><rect x="55.5" y="81.5" width="9" height="9" class="st" style="animation-delay: 1084.7601691781756ms" />
<rect x="68" y="3" width="10" height="10" class="count0" style="animation-delay: 1096.8813978097285ms" /><rect x="68.5" y="3.5" width="9" height="9" class="st" style="animation-delay: 1096.8813978097285ms" />
<rect x="68" y="16" width="10" height="10" class="count2" style="animation-delay: 1108.7404941879736ms" /><rect x="68.5" y="16.5" width="9" height="9" class="st" style="animation-delay: 1108.7404941879736ms" />
<rect x="68" y="29" width="10" height="10" class="count2" style="animation-delay: 1120.3511866392912ms" /><rect x="68.5" y="29.5" width="9" height="9" class="st" style="animation-delay: 1120.3511866392912ms" />
<rect x="68" y="42" width="10" height="10" class="count1" style="animation-delay: 1131.7260880592055ms" /><rect x="68.5" y="42.5" width="9" height="9" class="st" style="animation-delay: 1131.7260880592055ms" />
<rect x="68" y="55" width="10" height="10" class="count2" style="animation-delay: 1142.8768168545384ms" /><rect x="68.5" y="55.5" width="9" height="9" class="st" style="animation-delay: 1142.8768168545384ms" />
<rect x="68" y="68" width="10" height="10" class="count2" style="animation-delay: 1153.814101673748ms" /><rect x="68.5" y="68.5" width="9" height="9" class="st" style="animation-delay: 1153.814101673748ms" />
<rect x="68" y="81" width="10" height="10" class="count1" style="animation-delay: 1164.5478724907923ms" /><rect x="68.5" y="81.5" width="9" height="9" class="st" style="animation-delay: 1164.5478724907923ms" />
<rect x="81" y="3" width="10" height="10" class="count1" style="animation-delay: 1175.0873401432268ms" /><rect x="81.5" y="3.5" width="9" height="9" class="st" style="animation-delay: 1175.0873401432268ms" />
<rect x="81" y="16" width="10" height="10" class="count3" style="animation-delay: 1185.4410660548212ms" /><rect x="81.5" y="16.5" width="9" height="9" class="st" style="animation-delay: 1185.4410660548212ms" />
<rect x="81" y="29" width="10" height="10" class="count5" style="animation-delay: 1195.6170235757636ms" /><rect x="81.5" y="29.5" width="9" height="9" class="st" style="animation-delay: 1195.6170235757636ms" />
<rect x="81" y="42" width="10" height="10" class="count2" style="animation-delay: 1205.6226521335298ms" /><rect x="81.5" y="42.5" width="9" height="9" class="st" style="animation-delay: 1205.6226521335298ms" />
<rect x="81" y="55" width="10" height="10" class="count4" style="animation-delay: 1215.4649051925958ms" /><rect x="81.5" y="55.5" width="9" height="9" class="st" style="animation-delay: 1215.4649051925958ms" />
<rect x="81" y="68" width="10" height="10" class="count5" style="animation-delay: 1225.1502928620225ms" /><rect x="81.5" y="68.5" width="9" height="9" class="st" style="animation-delay: 1225.1502928620225ms" />
<rect x="81" y="81" width="10" height="10" class="count5" style="animation-delay: 1234.6849198592795ms" /><rect x="81.5" y="81.5" width="9" height="9" class="st" style="animation-delay: 1234.6849198592795ms" />
<rect x="94" y="3" width="10" height="10" class="count5" style="animation-delay: 1244.0745194308925ms" /><rect x="94.5" y="3.5" width="9" height="9" class="st" style="animation-delay: 1244.0745194308925ms" />
<rect x="94" y="16" width="10" height="10" class="count3" style="animation-delay: 1253.3244837411462ms" /><rect x="94.5" y="16.5" width="9" height="9" class="st" style="animation-delay: 1253.3244837411462ms" />
<rect x="94" y="29" width="10" height="10" class="count5" style="animation-delay: 1262.4398911656897ms" /><rect x="94.5" y="29.5" width="9" height="9" class="st" style="animation-delay: 1262.4398911656897ms" />
<rect x="94" y="42" width="10" height="10" class="count6" style="animation-delay: 1271.4255308646677ms" /><rect x="94.5" y="42.5" width="9" height="9" class="st" style="animation-delay: 1271.4255308646677ms" />
<rect x="94" y="55" width="10" height="10" class="count2" style="animation-delay: 1280.2859249577807ms" /><rect x="94.5" y="55.5" width="9" height="9" class="st" style="animation-delay: 1280.2859249577807ms" />
<rect x="94" y="68" width="10" height="10" class="count2" style="animation-delay: 1289.0253485796375ms" /><rect x="94.5" y="68.5" width="9" height="9" class="st" style="animation-delay: 1289.0253485796375ms" />
<rect x="94" y="81" width="10" height="10" class="count1" style="animation-delay: 1297.6478480565147ms" /><rect x="94.5" y="81.5" width="9" height="9" class="st" style="animation-delay: 1297.6478480565147ms" />
<rect x="107" y="3" width="10" height="10" class="count4" style="animation-delay: 1306.1572574140027ms" /><rect x="107.5" y="3.5" width="9" height="9" class="st" style="animation-delay: 1306.1572574140027ms" />
<rect x="107" y="16" width="10" height="10" class="count1" style="animation-delay: 1314.557213398069ms" /><rect x="107.5" y="16.5" width="9" height="9" class="st" style="animation-delay: 1314.557213398069ms" />
<rect x="107" y="29" width="10" height="10" class="count0" style="animation-delay: 1322.8511691690244ms" /><rect x="107.5" y="29.5" width="9" height="9" class="st" style="animation-delay: 1322.8511691690244ms" />
<rect x="107" y="42" width="10" height="10" class="count1" style="animation-delay: 1331.0424068081275ms" /><rect x="107.5" y="42.5" width="9" height="9" class="st" style="animation-delay: 1331.0424068081275ms" />
<rect x="107" y="55" width="10" height="10" class="count4" style="animation-delay: 1339.1340487595653ms" /><rect x="107.5" y="55.5" width="9" height="9" class="st" style="animation-delay: 1339.1340487595653ms" />
<rect x="107" y="68" width="10" height="10" class="count4" style="animation-delay: 1347.1290683158838ms" /><rect x="107.5" y="68.5" width="9" height="9" class="st" style="animation-delay: 1347.1290683158838ms" />
<rect x="107" y="81" width="10" height="10" class="count5" style="animation-delay: 1355.0302992422749ms" /><rect x="107.5" y="81.5" width="9" height="9" class="st" style="animation-delay: 1355.0302992422749ms" />
<rect x="120" y="3" width="10" height="10" class="count3" style="animation-delay: 1362.8404446241047ms" /><rect x="120.5" y="3.5" width="9" height="9" class="st" style="animation-delay: 1362.8404446241047ms" />
<rect x="120" y="16" width="10" height="10" class="count4" style="animation-delay: 1370.5620850125292ms" /><rect x="120.5" y="16.5" width="9" height="9" class="st" style="animation-delay: 1370.5620850125292ms" />
<rect x="120" y="29" width="10" height="10" class="count6" style="animation-delay: 1378.1976859346748ms" /><rect x="120.5" y="29.5" width="9" height="9" class="st" style="animation-delay: 1378.1976859346748ms" />
<rect x="120" y="42" width="10" height="10" class="count6" style="animation-delay: 1385.7496048275962ms" /><rect x="120.5" y="42.5" width="9" height="9" class="st" style="animation-delay: 1385.7496048275962ms" />
<rect x="120" y="55" width="10" height="10" class="count6" style="animation-delay: 1393.220097448827ms" /><rect x="120.5" y="55.5" width="9" height="9" class="st" style="animation-delay: 1393.220097448827ms" />
<rect x="120" y="68" width="10" height="10" class="count8" style="animation-delay: 1400.6113238107355ms" /><rect x="120.5" y="68.5" width="9" height="9" class="st" style="animation-delay: 1400.6113238107355ms" />
<rect x="120" y="81" width="10" height="10" class="count7" style="animation-delay: 1407.9253536809688ms" /><rect x="120.5" y="81.5" width="9" height="9" class="st" style="animation-delay: 1407.9253536809688ms" />
<rect x="133" y="3" width="10" height="10" class="count5" style="animation-delay: 1415.1641716869144ms" /><rect x="133.5" y="3.5" width="9" height="9" class="st" style="animation-delay: 1415.1641716869144ms" />
<rect x="133" y="16" width="10" height="10" class="count5" style="animation-delay: 1422.3296820582734ms" /><rect x="133.5" y="16.5" width="9" height="9" class="st" style="animation-delay: 1422.3296820582734ms" />
<rect x="133" y="29" width="10" height="10" class="count5" style="animation-delay: 1429.4237130384347ms" /><rect x="133.5" y="29.5" width="9" height="9" class="st" style="animation-delay: 1429.4237130384347ms" />
<rect x="133" y="42" width="10" height="10" class="count5" style="animation-delay: 1436.4480209923165ms" /><rect x="133.5" y="42.5" width="9" height="9" class="st" style="animation-delay: 1436.4480209923165ms" />
<rect x="133" y="55" width="10" height="10" class="count7" style="animation-delay: 1443.4042942356764ms" /><rect x="133.5" y="55.5" width="9" height="9" class="st" style="animation-delay: 1443.4042942356764ms" />
<rect x="133" y="68" width="10" height="10" class="count3" style="animation-delay: 1450.2941566084878ms" /><rect x="133.5" y="68.5" width="9" height="9" class="st" style="animation-delay: 1450.2941566084878ms" />
<rect x="133" y="81" width="10" height="10" class="count5" style="animation-delay: 1457.119170812864ms" /><rect x="133.5" y="81.5" width="9" height="9" class="st" style="animation-delay: 1457.119170812864ms" />
<rect x="146" y="3" width="10" height="10" class="count6" style="animation-delay: 1463.880841534107ms" /><rect x="146.5" y="3.5" width="9" height="9" class="st" style="animation-delay: 1463.880841534107ms" />
<rect x="146" y="16" width="10" height="10" class="count4" style="animation-delay: 1470.5806183617547ms" /><rect x="146.5" y="16.5" width="9" height="9" class="st" style="animation-delay: 1470.5806183617547ms" />
<rect x="146" y="29" width="10" height="10" class="count3" style="animation-delay: 1477.2198985259806ms" /><rect x="146.5" y="29.5" width="9" height="9" class="st" style="animation-delay: 1477.2198985259806ms" />
<rect x="146" y="42" width="10" height="10" class="count3" style="animation-delay: 1483.8000294633298ms" /><rect x="146.5" y="42.5" width="9" height="9" class="st" style="animation-delay: 1483.8000294633298ms" />
<rect x="146" y="55" width="10" height="10" class="count3" style="animation-delay: 1490.3223112245455ms" /><rect x="146.5" y="55.5" width="9" height="9" class="st" style="animation-delay: 1490.3223112245455ms" />
<rect x="146" y="68" width="10" height="10" class="count3" style="animation-delay: 1496.7879987361353ms" /><rect x="146.5" y="68.5" width="9" height="9" class="st" style="animation-delay: 1496.7879987361353ms" />
<rect x="146" y="81" width="10" height="10" class="count3" style="animation-delay: 1503.212001263865ms" /><rect x="146.5" y="81.5" width="9" height="9" class="st" style="animation-delay: 1503.212001263865ms" />
<rect x="159" y="3" width="10" height="10" class="count1" style="animation-delay: 1509.6776887754545ms" /><rect x="159.5" y="3.5" width="9" height="9" class="st" style="animation-delay: 1509.6776887754545ms" />
<rect x="159" y="16" width="10" height="10" class="count3" style="animation-delay: 1516.1999705366704ms" /><rect x="159.5" y="16.5" width="9" height="9" class="st" style="animation-delay: 1516.1999705366704ms" />
<rect x="159" y="29" width="10" height="10" class="count1" style="animation-delay: 1522.7801014740196ms" /><rect x="159.5" y="29.5" width="9" height="9" class="st" style="animation-delay: 1522.7801014740196ms" />
<rect x="159" y="42" width="10" height="10" class="count0" style="animation-delay: 1529.419381638245ms" /><rect x="159.5" y="42.5" width="9" height="9" class="st" style="animation-delay: 1529.419381638245ms" />
<rect x="159" y="55" width="10" height="10" class="count1" style="animation-delay: 1536.1191584658932ms" /><rect x="159.5" y="55.5" width="9" height="9" class="st" style="animation-delay: 1536.1191584658932ms" />
<rect x="159" y="68" width="10" height="10" class="count0" style="animation-delay: 1542.880829187136ms" /><rect x="159.5" y="68.5" width="9" height="9" class="st" style="animation-delay: 1542.880829187136ms" />
<rect x="159" y="81" width="10" height="10" class="count0" style="animation-delay: 1549.7058433915124ms" /><rect x="159.5" y="81.5" width="9" height="9" class="st" style="animation-delay: 1549.7058433915124ms" />
<rect x="172" y="3" width="10" height="10" class="count0" style="animation-delay: 1556.5957057643234ms" /><rect x="172.5" y="3.5" width="9" height="9" class="st" style="animation-delay: 1556.5957057643234ms" />
<rect x="172" y="16" width="10" height="10" class="count2" style="animation-delay: 1563.5519790076835ms" /><rect x="172.5" y="16.5" width="9" height="9" class="st" style="animation-delay: 1563.5519790076835ms" />
<rect x="172" y="29" width="10" height="10" class="count0" style="animation-delay: 1570.5762869615653ms" /><rect x="172.5" y="29.5" width="9" height="9" class="st" style="animation-delay: 1570.5762869615653ms" />
<rect x="172" y="42" width="10" height="10" class="count1" style="animation-delay: 1577.6703179417266ms" /><rect x="172.5" y="42.5" width="9" height="9" class="st" style="animation-delay: 1577.6703179417266ms" />
<rect x="172" y="55" width="10" height="10" class="count1" style="animation-delay: 1584.8358283130856ms" /><rect x="172.5" y="55.5" width="9" height="9" class="st" style="animation-delay: 1584.8358283130856ms" />
<rect x="172" y="68" width="10" height="10" class="count1" style="animation-delay: 1592.0746463190312ms" /><rect x="172.5" y="68.5" width="9" height="9" class="st" style="animation-delay: 1592.0746463190312ms" />
<rect x="172" y="81" width="10" height="10" class="count1" style="animation-delay: 1599.3886761892645ms" /><rect x="172.5" y="81.5" width="9" height="9" class="st" style="animation-delay: 1599.3886761892645ms" />
<rect x="185" y="3" width="10" height="10" class="count0" style="animation-delay: 1606.779902551173ms" /><rect x="185.5" y="3.5" width="9" height="9" class="st" style="animation-delay: 1606.779902551173ms" />
<rect x="185" y="16" width="10" height="10" class="count3" style="animation-delay: 1614.2503951724038ms" /><rect x="185.5" y="16.5" width="9" height="9" class="st" style="animation-delay: 1614.2503951724038ms" />
<rect x="185" y="29" width="10" height="10" class="count0" style="animation-delay: 1621.8023140653252ms" /><rect x="185.5" y="29.5" width="9" height="9" class="st" style="animation-delay: 1621.8023140653252ms" />
<rect x="185" y="42" width="10" height="10" class="count0" style="animation-delay: 1629.4379149874708ms" /><rect x="185.5" y="42.5" width="9" height="9" class="st" style="animation-delay: 1629.4379149874708ms" />
<rect x="185" y="55" width="10" height="10" class="count2" style="animation-delay: 1637.159555375895ms" /><rect x="185.5" y="55.5" width="9" height="9" class="st" style="animation-delay: 1637.159555375895ms" />
<rect x="185" y="68" width="10" height="10" class="count1" style="animation-delay: 1644.9697007577251ms" /><rect x="185.5" y="68.5" width="9" height="9" class="st" style="animation-delay: 1644.9697007577251ms" />
<rect x="185" y="81" width="10" height="10" class="count0" style="animation-delay: 1652.8709316841162ms" /><rect x="185.5" y="81.5" width="9" height="9" class="st" style="animation-delay: 1652.8709316841162ms" />
<rect x="198" y="3" width="10" height="10" class="count0" style="animation-delay: 1660.8659512404352ms" /><rect x="198.5" y="3.5" width="9" height="9" class="st" style="animation-delay: 1660.8659512404352ms" />
<rect x="198" y="16" width="10" height="10" class="count0" style="animation-delay: 1668.9575931918723ms" /><rect x="198.5" y="16.5" width="9" height="9" class="st" style="animation-delay: 1668.9575931918723ms" />
<rect x="198" y="29" width="10" height="10" class="count0" style="animation-delay: 1677.1488308309758ms" /><rect x="198.5" y="29.5" width="9" height="9" class="st" style="animation-delay: 1677.1488308309758ms" />
<rect x="198" y="42" width="10" height="10" class="count0" style="animation-delay: 1685.442786601931ms" /><rect x="198.5" y="42.5" width="9" height="9" class="st" style="animation-delay: 1685.442786601931ms" />
<rect x="198" y="55" width="10" height="10" class="count0" style="animation-delay: 1693.8427425859973ms" /><rect x="198.5" y="55.5" width="9" height="9" class="st" style="animation-delay: 1693.8427425859973ms" />
<rect x="198" y="68" width="10" height="10" class="count0" style="animation-delay: 1702.3521519434855ms" /><rect x="198.5" y="68.5" width="9" height="9" class="st" style="animation-delay: 1702.3521519434855ms" />
<rect x="198" y="81" width="10" height="10" class="count0" style="animation-delay: 1710.9746514203625ms" /><rect x="198.5" y="81.5" width="9" height="9" class="st" style="animation-delay: 1710.9746514203625ms" />
<rect x="211" y="3" width="10" height="10" class="count0" style="animation-delay: 1719.7140750422193ms" /><rect x="211.5" y="3.5" width="9" height="9" class="st" style="animation-delay: 1719.7140750422193ms" />
<rect x="211" y="16" width="10" height="10" class="count0" style="animation-delay: 1728.574469135332ms" /><rect x="211.5" y="16.5" width="9" height="9" class="st" style="animation-delay: 1728.574469135332ms" />
<rect x="211" y="29" width="10" height="10" class="count0" style="animation-delay: 1737.56010883431ms" /><rect x="211.5" y="29.5" width="9" height="9" class="st" style="animation-delay: 1737.56010883431ms" />
<rect x="211" y="42" width="10" height="10" class="count0" style="animation-delay: 1746.6755162588536ms" /><rect x="211.5" y="42.5" width="9" height="9" class="st" style="animation-delay: 1746.6755162588536ms" />
<rect x="211" y="55" width="10" height="10" class="count0" style="animation-delay: 1755.9254805691078ms" /><rect x="211.5" y="55.5" width="9" height="9" class="st" style="animation-delay: 1755.9254805691078ms" />
<rect x="211" y="68" width="10" height="10" class="count0" style="animation-delay: 1765.3150801407203ms" /><rect x="211.5" y="68.5" width="9" height="9" class="st" style="animation-delay: 1765.3150801407203ms" />
<rect x="211" y="81" width="10" height="10" class="count0" style="animation-delay: 1774.8497071379775ms" /><rect x="211.5" y="81.5" width="9" height="9" class="st" style="animation-delay: 1774.8497071379775ms" />
<rect x="224" y="3" width="10" height="10" class="count0" style="animation-delay: 1784.5350948074042ms" /><rect x="224.5" y="3.5" width="9" height="9" class="st" style="animation-delay: 1784.5350948074042ms" />
<rect x="224" y="16" width="10" height="10" class="count0" style="animation-delay: 1794.3773478664702ms" /><rect x="224.5" y="16.5" width="9" height="9" class="st" style="animation-delay: 1794.3773478664702ms" />
<rect x="224" y="29" width="10" height="10" class="count0" style="animation-delay: 1804.3829764242364ms" /><rect x="224.5" y="29.5" width="9" height="9" class="st" style="animation-delay: 1804.3829764242364ms" />
<rect x="224" y="42" width="10" height="10" class="count0" style="animation-delay: 1814.5589339451788ms" /><rect x="224.5" y="42.5" width="9" height="9" class="st" style="animation-delay: 1814.5589339451788ms" />
<rect x="224" y="55" width="10" height="10" class="count0" style="animation-delay: 1824.9126598567732ms" /><rect x="224.5" y="55.5" width="9" height="9" class="st" style="animation-delay: 1824.9126598567732ms" />
<rect x="224" y="68" width="10" height="10" class="count0" style="animation-delay: 1835.4521275092075ms" /><rect x="224.5" y="68.5" width="9" height="9" class="st" style="animation-delay: 1835.4521275092075ms" />
<rect x="224" y="81" width="10" height="10" class="count0" style="animation-delay: 1846.185898326252ms" /><rect x="224.5" y="81.5" width="9" height="9" class="st" style="animation-delay: 1846.185898326252ms" />
<rect x="237" y="3" width="10" height="10" class="count1" style="animation-delay: 1857.1231831454613ms" /><rect x="237.5" y="3.5" width="9" height="9" class="st" style="animation-delay: 1857.1231831454613ms" />
<rect x="237" y="16" width="10" height="10" class="count1" style="animation-delay: 1868.2739119407945ms" /><rect x="237.5" y="16.5" width="9" height="9" class="st" style="animation-delay: 1868.2739119407945ms" />
<rect x="237" y="29" width="10" height="10" class="count1" style="animation-delay: 1879.6488133607086ms" /><rect x="237.5" y="29.5" width="9" height="9" class="st" style="animation-delay: 1879.6488133607086ms" />
<rect x="237" y="42" width="10" height="10" class="count0" style="animation-delay: 1891.2595058120264ms" /><rect x="237.5" y="42.5" width="9" height="9" class="st" style="animation-delay: 1891.2595058120264ms" />
<rect x="237" y="55" width="10" height="10" class="count0" style="animation-delay: 1903.1186021902718ms" /><rect x="237.5" y="55.5" width="9" height="9" class="st" style="animation-delay: 1903.1186021902718ms" />
<rect x="237" y="68" width="10" height="10" class="count0" style="animation-delay: 1915.2398308218244ms" /><rect x="237.5" y="68.5" width="9" height="9" class="st" style="animation-delay: 1915.2398308218244ms" />
<rect x="237" y="81" width="10" height="10" class="count0" style="animation-delay: 1927.638175770122ms" /><rect x="237.5" y="81.5" width="9" height="9" class="st" style="animation-delay: 1927.638175770122ms" />
<rect x="250" y="3" width="10" height="10" class="count0" style="animation-delay: 1940.3300404049517ms" /><rect x="250.5" y="3.5" width="9" height="9" class="st" style="animation-delay: 1940.3300404049517ms" />
<rect x="250" y="16" width="10" height="10" class="count0" style="animation-delay: 1953.3334390916957ms" /><rect x="250.5" y="16.5" width="9" height="9" class="st" style="animation-delay: 1953.3334390916957ms" />
<rect x="250" y="29" width="10" height="10" class="count1" style="animation-delay: 1966.6682230961655ms" /><rect x="250.5" y="29.5" width="9" height="9" class="st" style="animation-delay: 1966.6682230961655ms" />
<rect x="250" y="42" width="10" height="10" class="count1" style="animation-delay: 1980.3563484173492ms" /><rect x="250.5" y="42.5" width="9" height="9" class="st" style="animation-delay: 1980.3563484173492ms" />
<rect x="250" y="55" width="10" height="10" class="count0" style="animation-delay: 1994.42219539066ms" /><rect x="250.5" y="55.5" width="9" height="9" class="st" style="animation-delay: 1994.42219539066ms" />
<rect x="250" y="68" width="10" height="10" class="count0" style="animation-delay: 2008.892952740655ms" /><rect x="250.5" y="68.5" width="9" height="9" class="st" style="animation-delay: 2008.892952740655ms" />
<rect x="250" y="81" width="10" height="10" class="count0" style="animation-delay: 2023.7990825811953ms" /><rect x="250.5" y="81.5" width="9" height="9" class="st" style="animation-delay: 2023.7990825811953ms" />
<rect x="263" y="3" width="10" height="10" class="count0" style="animation-delay: 2039.1748880658495ms" /><rect x="263.5" y="3.5" width="9" height="9" class="st" style="animation-delay: 2039.1748880658495ms" />
<rect x="263" y="16" width="10" height="10" class="count0" style="animation-delay: 2055.059212578845ms" /><rect x="263.5" y="16.5" width="9" height="9" class="st" style="animation-delay: 2055.059212578845ms" />
<rect x="263" y="29" width="10" height="10" class="count0" style="animation-delay: 2071.4963094257428ms" /><rect x="263.5" y="29.5" width="9" height="9" class="st" style="animation-delay: 2071.4963094257428ms" />
<rect x="263" y="42" width="10" height="10" class="count2" style="animation-delay: 2088.5369353114957ms" /><rect x="263.5" y="42.5" width="9" height="9" class="st" style="animation-delay: 2088.5369353114957ms" />
<rect x="263" y="55" width="10" height="10" class="count1" style="animation-delay: 2106.2397416385515ms" /><rect x="263.5" y="55.5" width="9" height="9" class="st" style="animation-delay: 2106.2397416385515ms" />
<rect x="263" y="68" width="10" height="10" class="count3" style="animation-delay: 2124.673068270281ms" /><rect x="263.5" y="68.5" width="9" height="9" class="st" style="animation-delay: 2124.673068270281ms" />
<rect x="263" y="81" width="10" height="10" class="count0" style="animation-delay: 2143.9172905448586ms" /><rect x="263.5" y="81.5" width="9" height="9" class="st" style="animation-delay: 2143.9172905448586ms" />
<rect x="276" y="3" width="10" height="10" class="count0" style="animation-delay: 2164.0679415307036ms" /><rect x="276.5" y="3.5" width="9" height="9" class="st" style="animation-delay: 2164.0679415307036ms" />
<rect x="276" y="16" width="10" height="10" class="count1" style="animation-delay: 2185.2399443649942ms" /><rect x="276.5" y="16.5" width="9" height="9" class="st" style="animation-delay: 2185.2399443649942ms" />
<rect x="276" y="29" width="10" height="10" class="count0" style="animation-delay: 2207.57347383994ms" /><rect x="276.5" y="29.5" width="9" height="9" class="st" style="animation-delay: 2207.57347383994ms" />
<rect x="276" y="42" width="10" height="10" class="count0" style="animation-delay: 2231.2422780256743ms" /><rect x="276.5" y="42.5" width="9" height="9" class="st" style="animation-delay: 2231.2422780256743ms" />
<rect x="276" y="55" width="10" height="10" class="count0" style="animation-delay: 2256.465838987ms" /><rect x="276.5" y="55.5" width="9" height="9" class="st" style="animation-delay: 2256.465838987ms" />
<rect x="276" y="68" width="10" height="10" class="count0" style="animation-delay: 2283.5277623389516ms" /><rect x="276.5" y="68.5" width="9" height="9" class="st" style="animation-delay: 2283.5277623389516ms" />
<rect x="276" y="81" width="10" height="10" class="count0" style="animation-delay: 2312.804754694366ms" /><rect x="276.5" y="81.5" width="9" height="9" class="st" style="animation-delay: 2312.804754694366ms" />
<rect x="289" y="3" width="10" height="10" class="count1" style="animation-delay: 2344.8146514477758ms" /><rect x="289.5" y="3.5" width="9" height="9" class="st" style="animation-delay: 2344.8146514477758ms" />
<rect x="289" y="16" width="10" height="10" class="count0" style="animation-delay: 2380.3012482985537ms" /><rect x="289.5" y="16.5" width="9" height="9" class="st" style="animation-delay: 2380.3012482985537ms" />
<rect x="289" y="29" width="10" height="10" class="count0" style="animation-delay: 2420.39708266918ms" /><rect x="289.5" y="29.5" width="9" height="9" class="st" style="animation-delay: 2420.39708266918ms" />
<rect x="289" y="42" width="10" height="10" class="count0" style="animation-delay: 2466.97316622499ms" /><rect x="289.5" y="42.5" width="9" height="9" class="st" style="animation-delay: 2466.97316622499ms" />
<rect x="289" y="55" width="10" height="10" class="count1" style="animation-delay: 2523.5254289871878ms" /><rect x="289.5" y="55.5" width="9" height="9" class="st" style="animation-delay: 2523.5254289871878ms" />
<rect x="289" y="68" width="10" height="10" class="count0" style="animation-delay: 2598.125782622157ms" /><rect x="289.5" y="68.5" width="9" height="9" class="st" style="animation-delay: 2598.125782622157ms" />
<rect x="289" y="81" width="10" height="10" class="count1" style="animation-delay: 2721.355980510235ms" /><rect x="289.5" y="81.5" width="9" height="9" class="st" style="animation-delay: 2721.355980510235ms" />
</svg>

  