

<svg height="94" width="302" xmlns="http://www.w3.org/2000/svg" fill='#4FA1A7'>
  <style>
  rect {
  rx: 2;
  ry: 2;
  animation: wow .5s backwards;
  }
  .st {
  
  stroke: rgba(27, 31, 35, 0.06);
  stroke-width: 1;
  fill: none;
  }
  @keyframes wow {
  from {opacity: 0;}
  to{ opacity: 1;}}
  .count0 {fill: #ebedf0}
.count1 {fill: #9be9a8}
.count2 {fill: #9be9a8}
.count3 {fill: #40c463}
.count4 {fill: #40c463}
.count5 {fill: #30a14e}
.count6 {fill: #30a14e}
.count7 {fill: #216e39}
.count8 {fill: #216e39}
  </style>
<rect x="3" y="68" width="10" height="10" class="count3" style="animation-delay: 279.8450861425483ms" /><rect x="3.5" y="68.5" width="9" height="9" class="st" style="animation-delay: 279.8450861425483ms" />
<rect x="3" y="81" width="10" height="10" class="count3" style="animation-delay: 403.60645524173ms" /><rect x="3.5" y="81.5" width="9" height="9" class="st" style="animation-delay: 403.60645524173ms" />
<rect x="16" y="3" width="10" height="10" class="count1" style="animation-delay: 478.52836609942597ms" /><rect x="16.5" y="3.5" width="9" height="9" class="st" style="animation-delay: 478.52836609942597ms" />
<rect x="16" y="16" width="10" height="10" class="count2" style="animation-delay: 535.3243916277061ms" /><rect x="16.5" y="16.5" width="9" height="9" class="st" style="animation-delay: 535.3243916277061ms" />
<rect x="16" y="29" width="10" height="10" class="count5" style="animation-delay: 582.1012366456814ms" /><rect x="16.5" y="29.5" width="9" height="9" class="st" style="animation-delay: 582.1012366456814ms" />
<rect x="16" y="42" width="10" height="10" class="count1" style="animation-delay: 622.3699000246826ms" /><rect x="16.5" y="42.5" width="9" height="9" class="st" style="animation-delay: 622.3699000246826ms" />
<rect x="16" y="55" width="10" height="10" class="count3" style="animation-delay: 658.0094582351774ms" /><rect x="16.5" y="55.5" width="9" height="9" class="st" style="animation-delay: 658.0094582351774ms" />
<rect x="16" y="68" width="10" height="10" class="count2" style="animation-delay: 690.1573303868032ms" /><rect x="16.5" y="68.5" width="9" height="9" class="st" style="animation-delay: 690.1573303868032ms" />
<rect x="16" y="81" width="10" height="10" class="count2" style="animation-delay: 719.5605182345025ms" /><rect x="16.5" y="81.5" width="9" height="9" class="st" style="animation-delay: 719.5605182345025ms" />
<rect x="29" y="3" width="10" height="10" class="count2" style="animation-delay: 746.7390892495107ms" /><rect x="29.5" y="3.5" width="9" height="9" class="st" style="animation-delay: 746.7390892495107ms" />
<rect x="29" y="16" width="10" height="10" class="count1" style="animation-delay: 772.071373800134ms" /><rect x="29.5" y="16.5" width="9" height="9" class="st" style="animation-delay: 772.071373800134ms" />
<rect x="29" y="29" width="10" height="10" class="count2" style="animation-delay: 795.8421999545101ms" /><rect x="29.5" y="29.5" width="9" height="9" class="st" style="animation-delay: 795.8421999545101ms" />
<rect x="29" y="42" width="10" height="10" class="count2" style="animation-delay: 818.2719958325189ms" /><rect x="29.5" y="42.5" width="9" height="9" class="st" style="animation-delay: 818.2719958325189ms" />
<rect x="29" y="55" width="10" height="10" class="count1" style="animation-delay: 839.535258427645ms" /><rect x="29.5" y="55.5" width="9" height="9" class="st" style="animation-delay: 839.535258427645ms" />
<rect x="29" y="68" width="10" height="10" class="count3" style="animation-delay: 859.7727667412566ms" /><rect x="29.5" y="68.5" width="9" height="9" class="st" style="animation-delay: 859.7727667412566ms" />
<rect x="29" y="81" width="10" height="10" class="count2" style="animation-delay: 879.0999392750041ms" /><rect x="29.5" y="81.5" width="9" height="9" class="st" style="animation-delay: 879.0999392750041ms" />
<rect x="42" y="3" width="10" height="10" class="count1" style="animation-delay: 897.6127208828632ms" /><rect x="42.5" y="3.5" width="9" height="9" class="st" style="animation-delay: 897.6127208828632ms" />
<rect x="42" y="16" width="10" height="10" class="count1" style="animation-delay: 915.3918333527137ms" /><rect x="42.5" y="16.5" width="9" height="9" class="st" style="animation-delay: 915.3918333527137ms" />
<rect x="42" y="29" width="10" height="10" class="count2" style="animation-delay: 932.5059111199438ms" /><rect x="42.5" y="29.5" width="9" height="9" class="st" style="animation-delay: 932.5059111199438ms" />
<rect x="42" y="42" width="10" height="10" class="count1" style="animation-delay: 949.0138583978952ms" /><rect x="42.5" y="42.5" width="9" height="9" class="st" style="animation-delay: 949.0138583978952ms" />
<rect x="42" y="55" width="10" height="10" class="count1" style="animation-delay: 964.9666506731254ms" /><rect x="42.5" y="55.5" width="9" height="9" class="st" style="animation-delay: 964.9666506731254ms" />
<rect x="42" y="68" width="10" height="10" class="count1" style="animation-delay: 980.4087320005596ms" /><rect x="42.5" y="68.5" width="9" height="9" class="st" style="animation-delay: 980.4087320005596ms" />
<rect x="42" y="81" width="10" height="10" class="count1" style="animation-delay: 995.379113194875ms" /><rect x="42.5" y="81.5" width="9" height="9" class="st" style="animation-delay: 995.379113194875ms" />
<rect x="55" y="3" width="10" height="10" class="count1" style="animation-delay: 1009.9122452698881ms" /><rect x="55.5" y="3.5" width="9" height="9" class="st" style="animation-delay: 1009.9122452698881ms" />
<rect x="55" y="16" width="10" height="10" class="count1" style="animation-delay: 1024.0387216432975ms" /><rect x="55.5" y="16.5" width="9" height="9" class="st" style="animation-delay: 1024.0387216432975ms" />
<rect x="55" y="29" width="10" height="10" class="count2" style="animation-delay: 1037.7858482338875ms" /><rect x="55.5" y="29.5" width="9" height="9" class="st" style="animation-delay: 1037.7858482338875ms" />
<rect x="55" y="42" width="10" height="10" class="count3" style="animation-delay: 1051.178110466023ms" /><rect x="55.5" y="42.5" width="9" height="9" class="st" style="animation-delay: 1051.178110466023ms" />
<rect x="55" y="55" width="10" height="10" class="count3" style="animation-delay: 1064.237558977788ms" /><rect x="55.5" y="55.5" width="9" height="9" class="st" style="animation-delay: 1064.237558977788ms" />
<rect x="55" y="68" width="10" height="10" class="count1" style="animation-delay: 1076.9841306018525ms" /><rect x="55.5" y="68.5" width="9" height="9" class="st" style="animation-delay: 1076.9841306018525ms" />
<rect x="55" y="81" width="10" height="10" class="count2" style="animation-delay: 1089.4359173526846ms" /><rect x="55.5" y="81.5" width="9" height="9" class="st" style="animation-delay: 1089.4359173526846ms" />
<rect x="68" y="3" width="10" height="10" class="count0" style="animation-delay: 1101.6093933051266ms" /><rect x="68.5" y="3.5" width="9" height="9" class="st" style="animation-delay: 1101.6093933051266ms" />
<rect x="68" y="16" width="10" height="10" class="count2" style="animation-delay: 1113.5196071098937ms" /><rect x="68.5" y="16.5" width="9" height="9" class="st" style="animation-delay: 1113.5196071098937ms" />
<rect x="68" y="29" width="10" height="10" class="count2" style="animation-delay: 1125.180346267918ms" /><rect x="68.5" y="29.5" width="9" height="9" class="st" style="animation-delay: 1125.180346267918ms" />
<rect x="68" y="42" width="10" height="10" class="count1" style="animation-delay: 1136.604278041325ms" /><rect x="68.5" y="42.5" width="9" height="9" class="st" style="animation-delay: 1136.604278041325ms" />
<rect x="68" y="55" width="10" height="10" class="count2" style="animation-delay: 1147.803070916895ms" /><rect x="68.5" y="55.5" width="9" height="9" class="st" style="animation-delay: 1147.803070916895ms" />
<rect x="68" y="68" width="10" height="10" class="count2" style="animation-delay: 1158.7874997878316ms" /><rect x="68.5" y="68.5" width="9" height="9" class="st" style="animation-delay: 1158.7874997878316ms" />
<rect x="68" y="81" width="10" height="10" class="count1" style="animation-delay: 1169.5675374302346ms" /><rect x="68.5" y="81.5" width="9" height="9" class="st" style="animation-delay: 1169.5675374302346ms" />
<rect x="81" y="3" width="10" height="10" class="count1" style="animation-delay: 1180.1524343840358ms" /><rect x="81.5" y="3.5" width="9" height="9" class="st" style="animation-delay: 1180.1524343840358ms" />
<rect x="81" y="16" width="10" height="10" class="count3" style="animation-delay: 1190.5507889761498ms" /><rect x="81.5" y="16.5" width="9" height="9" class="st" style="animation-delay: 1190.5507889761498ms" />
<rect x="81" y="29" width="10" height="10" class="count5" style="animation-delay: 1200.770608925078ms" /><rect x="81.5" y="29.5" width="9" height="9" class="st" style="animation-delay: 1200.770608925078ms" />
<rect x="81" y="42" width="10" height="10" class="count2" style="animation-delay: 1210.8193657251902ms" /><rect x="81.5" y="42.5" width="9" height="9" class="st" style="animation-delay: 1210.8193657251902ms" />
<rect x="81" y="55" width="10" height="10" class="count4" style="animation-delay: 1220.7040428131627ms" /><rect x="81.5" y="55.5" width="9" height="9" class="st" style="animation-delay: 1220.7040428131627ms" />
<rect x="81" y="68" width="10" height="10" class="count5" style="animation-delay: 1230.4311783592184ms" /><rect x="81.5" y="68.5" width="9" height="9" class="st" style="animation-delay: 1230.4311783592184ms" />
<rect x="81" y="81" width="10" height="10" class="count5" style="animation-delay: 1240.0069033945892ms" /><rect x="81.5" y="81.5" width="9" height="9" class="st" style="animation-delay: 1240.0069033945892ms" />
<rect x="94" y="3" width="10" height="10" class="count5" style="animation-delay: 1249.4369758783753ms" /><rect x="94.5" y="3.5" width="9" height="9" class="st" style="animation-delay: 1249.4369758783753ms" />
<rect x="94" y="16" width="10" height="10" class="count3" style="animation-delay: 1258.726811217237ms" /><rect x="94.5" y="16.5" width="9" height="9" class="st" style="animation-delay: 1258.726811217237ms" />
<rect x="94" y="29" width="10" height="10" class="count5" style="animation-delay: 1267.8815096766434ms" /><rect x="94.5" y="29.5" width="9" height="9" class="st" style="animation-delay: 1267.8815096766434ms" />
<rect x="94" y="42" width="10" height="10" class="count6" style="animation-delay: 1276.9058810599267ms" /><rect x="94.5" y="42.5" width="9" height="9" class="st" style="animation-delay: 1276.9058810599267ms" />
<rect x="94" y="55" width="10" height="10" class="count2" style="animation-delay: 1285.8044669789228ms" /><rect x="94.5" y="55.5" width="9" height="9" class="st" style="animation-delay: 1285.8044669789228ms" />
<rect x="94" y="68" width="10" height="10" class="count2" style="animation-delay: 1294.581560995773ms" /><rect x="94.5" y="68.5" width="9" height="9" class="st" style="animation-delay: 1294.581560995773ms" />
<rect x="94" y="81" width="10" height="10" class="count1" style="animation-delay: 1303.241226878031ms" /><rect x="94.5" y="81.5" width="9" height="9" class="st" style="animation-delay: 1303.241226878031ms" />
<rect x="107" y="3" width="10" height="10" class="count4" style="animation-delay: 1311.787315177464ms" /><rect x="107.5" y="3.5" width="9" height="9" class="st" style="animation-delay: 1311.787315177464ms" />
<rect x="107" y="16" width="10" height="10" class="count1" style="animation-delay: 1320.2234783158622ms" /><rect x="107.5" y="16.5" width="9" height="9" class="st" style="animation-delay: 1320.2234783158622ms" />
<rect x="107" y="29" width="10" height="10" class="count0" style="animation-delay: 1328.5531843380318ms" /><rect x="107.5" y="29.5" width="9" height="9" class="st" style="animation-delay: 1328.5531843380318ms" />
<rect x="107" y="42" width="10" height="10" class="count1" style="animation-delay: 1336.7797294723089ms" /><rect x="107.5" y="42.5" width="9" height="9" class="st" style="animation-delay: 1336.7797294723089ms" />
<rect x="107" y="55" width="10" height="10" class="count4" style="animation-delay: 1344.9062496218573ms" /><rect x="107.5" y="55.5" width="9" height="9" class="st" style="animation-delay: 1344.9062496218573ms" />
<rect x="107" y="68" width="10" height="10" class="count4" style="animation-delay: 1352.9357308952983ms" /><rect x="107.5" y="68.5" width="9" height="9" class="st" style="animation-delay: 1352.9357308952983ms" />
<rect x="107" y="81" width="10" height="10" class="count5" style="animation-delay: 1360.8710192724786ms" /><rect x="107.5" y="81.5" width="9" height="9" class="st" style="animation-delay: 1360.8710192724786ms" />
<rect x="120" y="3" width="10" height="10" class="count3" style="animation-delay: 1368.7148294901401ms" /><rect x="120.5" y="3.5" width="9" height="9" class="st" style="animation-delay: 1368.7148294901401ms" />
<rect x="120" y="16" width="10" height="10" class="count4" style="animation-delay: 1376.4697532226403ms" /><rect x="120.5" y="16.5" width="9" height="9" class="st" style="animation-delay: 1376.4697532226403ms" />
<rect x="120" y="29" width="10" height="10" class="count6" style="animation-delay: 1384.1382666245095ms" /><rect x="120.5" y="29.5" width="9" height="9" class="st" style="animation-delay: 1384.1382666245095ms" />
<rect x="120" y="42" width="10" height="10" class="count6" style="animation-delay: 1391.7227372942943ms" /><rect x="120.5" y="42.5" width="9" height="9" class="st" style="animation-delay: 1391.7227372942943ms" />
<rect x="120" y="55" width="10" height="10" class="count6" style="animation-delay: 1399.2254307127419ms" /><rect x="120.5" y="55.5" width="9" height="9" class="st" style="animation-delay: 1399.2254307127419ms" />
<rect x="120" y="68" width="10" height="10" class="count8" style="animation-delay: 1406.6485162027332ms" /><rect x="120.5" y="68.5" width="9" height="9" class="st" style="animation-delay: 1406.6485162027332ms" />
<rect x="120" y="81" width="10" height="10" class="count7" style="animation-delay: 1413.9940724534383ms" /><rect x="120.5" y="81.5" width="9" height="9" class="st" style="animation-delay: 1413.9940724534383ms" />
<rect x="133" y="3" width="10" height="10" class="count5" style="animation-delay: 1421.2640926467782ms" /><rect x="133.5" y="3.5" width="9" height="9" class="st" style="animation-delay: 1421.2640926467782ms" />
<rect x="133" y="16" width="10" height="10" class="count5" style="animation-delay: 1428.4604892204432ms" /><rect x="133.5" y="16.5" width="9" height="9" class="st" style="animation-delay: 1428.4604892204432ms" />
<rect x="133" y="29" width="10" height="10" class="count5" style="animation-delay: 1435.585098298278ms" /><rect x="133.5" y="29.5" width="9" height="9" class="st" style="animation-delay: 1435.585098298278ms" />
<rect x="133" y="42" width="10" height="10" class="count5" style="animation-delay: 1442.639683815833ms" /><rect x="133.5" y="42.5" width="9" height="9" class="st" style="animation-delay: 1442.639683815833ms" />
<rect x="133" y="55" width="10" height="10" class="count7" style="animation-delay: 1449.625941366179ms" /><rect x="133.5" y="55.5" width="9" height="9" class="st" style="animation-delay: 1449.625941366179ms" />
<rect x="133" y="68" width="10" height="10" class="count3" style="animation-delay: 1456.5455017886861ms" /><rect x="133.5" y="68.5" width="9" height="9" class="st" style="animation-delay: 1456.5455017886861ms" />
<rect x="133" y="81" width="10" height="10" class="count5" style="animation-delay: 1463.399934521336ms" /><rect x="133.5" y="81.5" width="9" height="9" class="st" style="animation-delay: 1463.399934521336ms" />
<rect x="146" y="3" width="10" height="10" class="count6" style="animation-delay: 1470.1907507352234ms" /><rect x="146.5" y="3.5" width="9" height="9" class="st" style="animation-delay: 1470.1907507352234ms" />
<rect x="146" y="16" width="10" height="10" class="count4" style="animation-delay: 1476.9194062681936ms" /><rect x="146.5" y="16.5" width="9" height="9" class="st" style="animation-delay: 1476.9194062681936ms" />
<rect x="146" y="29" width="10" height="10" class="count3" style="animation-delay: 1483.587304373039ms" /><rect x="146.5" y="29.5" width="9" height="9" class="st" style="animation-delay: 1483.587304373039ms" />
<rect x="146" y="42" width="10" height="10" class="count3" style="animation-delay: 1490.1957982942924ms" /><rect x="146.5" y="42.5" width="9" height="9" class="st" style="animation-delay: 1490.1957982942924ms" />
<rect x="146" y="55" width="10" height="10" class="count3" style="animation-delay: 1496.7461936864336ms" /><rect x="146.5" y="55.5" width="9" height="9" class="st" style="animation-delay: 1496.7461936864336ms" />
<rect x="146" y="68" width="10" height="10" class="count3" style="animation-delay: 1503.2538063135662ms" /><rect x="146.5" y="68.5" width="9" height="9" class="st" style="animation-delay: 1503.2538063135662ms" />
<rect x="146" y="81" width="10" height="10" class="count3" style="animation-delay: 1509.8042017057076ms" /><rect x="146.5" y="81.5" width="9" height="9" class="st" style="animation-delay: 1509.8042017057076ms" />
<rect x="159" y="3" width="10" height="10" class="count1" style="animation-delay: 1516.4126956269613ms" /><rect x="159.5" y="3.5" width="9" height="9" class="st" style="animation-delay: 1516.4126956269613ms" />
<rect x="159" y="16" width="10" height="10" class="count3" style="animation-delay: 1523.0805937318064ms" /><rect x="159.5" y="16.5" width="9" height="9" class="st" style="animation-delay: 1523.0805937318064ms" />
<rect x="159" y="29" width="10" height="10" class="count1" style="animation-delay: 1529.8092492647768ms" /><rect x="159.5" y="29.5" width="9" height="9" class="st" style="animation-delay: 1529.8092492647768ms" />
<rect x="159" y="42" width="10" height="10" class="count0" style="animation-delay: 1536.6000654786637ms" /><rect x="159.5" y="42.5" width="9" height="9" class="st" style="animation-delay: 1536.6000654786637ms" />
<rect x="159" y="55" width="10" height="10" class="count1" style="animation-delay: 1543.4544982113139ms" /><rect x="159.5" y="55.5" width="9" height="9" class="st" style="animation-delay: 1543.4544982113139ms" />
<rect x="159" y="68" width="10" height="10" class="count0" style="animation-delay: 1550.374058633821ms" /><rect x="159.5" y="68.5" width="9" height="9" class="st" style="animation-delay: 1550.374058633821ms" />
<rect x="159" y="81" width="10" height="10" class="count0" style="animation-delay: 1557.360316184167ms" /><rect x="159.5" y="81.5" width="9" height="9" class="st" style="animation-delay: 1557.360316184167ms" />
<rect x="172" y="3" width="10" height="10" class="count0" style="animation-delay: 1564.414901701722ms" /><rect x="172.5" y="3.5" width="9" height="9" class="st" style="animation-delay: 1564.414901701722ms" />
<rect x="172" y="16" width="10" height="10" class="count2" style="animation-delay: 1571.5395107795568ms" /><rect x="172.5" y="16.5" width="9" height="9" class="st" style="animation-delay: 1571.5395107795568ms" />
<rect x="172" y="29" width="10" height="10" class="count0" style="animation-delay: 1578.7359073532218ms" /><rect x="172.5" y="29.5" width="9" height="9" class="st" style="animation-delay: 1578.7359073532218ms" />
<rect x="172" y="42" width="10" height="10" class="count1" style="animation-delay: 1586.0059275465617ms" /><rect x="172.5" y="42.5" width="9" height="9" class="st" style="animation-delay: 1586.0059275465617ms" />
<rect x="172" y="55" width="10" height="10" class="count1" style="animation-delay: 1593.3514837972668ms" /><rect x="172.5" y="55.5" width="9" height="9" class="st" style="animation-delay: 1593.3514837972668ms" />
<rect x="172" y="68" width="10" height="10" class="count1" style="animation-delay: 1600.7745692872581ms" /><rect x="172.5" y="68.5" width="9" height="9" class="st" style="animation-delay: 1600.7745692872581ms" />
<rect x="172" y="81" width="10" height="10" class="count1" style="animation-delay: 1608.2772627057057ms" /><rect x="172.5" y="81.5" width="9" height="9" class="st" style="animation-delay: 1608.2772627057057ms" />
<rect x="185" y="3" width="10" height="10" class="count0" style="animation-delay: 1615.8617333754905ms" /><rect x="185.5" y="3.5" width="9" height="9" class="st" style="animation-delay: 1615.8617333754905ms" />
<rect x="185" y="16" width="10" height="10" class="count3" style="animation-delay: 1623.5302467773597ms" /><rect x="185.5" y="16.5" width="9" height="9" class="st" style="animation-delay: 1623.5302467773597ms" />
<rect x="185" y="29" width="10" height="10" class="count0" style="animation-delay: 1631.2851705098599ms" /><rect x="185.5" y="29.5" width="9" height="9" class="st" style="animation-delay: 1631.2851705098599ms" />
<rect x="185" y="42" width="10" height="10" class="count0" style="animation-delay: 1639.1289807275211ms" /><rect x="185.5" y="42.5" width="9" height="9" class="st" style="animation-delay: 1639.1289807275211ms" />
<rect x="185" y="55" width="10" height="10" class="count2" style="animation-delay: 1647.064269104702ms" /><rect x="185.5" y="55.5" width="9" height="9" class="st" style="animation-delay: 1647.064269104702ms" />
<rect x="185" y="68" width="10" height="10" class="count1" style="animation-delay: 1655.0937503781429ms" /><rect x="185.5" y="68.5" width="9" height="9" class="st" style="animation-delay: 1655.0937503781429ms" />
<rect x="185" y="81" width="10" height="10" class="count0" style="animation-delay: 1663.2202705276911ms" /><rect x="185.5" y="81.5" width="9" height="9" class="st" style="animation-delay: 1663.2202705276911ms" />
<rect x="198" y="3" width="10" height="10" class="count0" style="animation-delay: 1671.4468156619682ms" /><rect x="198.5" y="3.5" width="9" height="9" class="st" style="animation-delay: 1671.4468156619682ms" />
<rect x="198" y="16" width="10" height="10" class="count0" style="animation-delay: 1679.776521684138ms" /><rect x="198.5" y="16.5" width="9" height="9" class="st" style="animation-delay: 1679.776521684138ms" />
<rect x="198" y="29" width="10" height="10" class="count0" style="animation-delay: 1688.212684822536ms" /><rect x="198.5" y="29.5" width="9" height="9" class="st" style="animation-delay: 1688.212684822536ms" />
<rect x="198" y="42" width="10" height="10" class="count0" style="animation-delay: 1696.758773121969ms" /><rect x="198.5" y="42.5" width="9" height="9" class="st" style="animation-delay: 1696.758773121969ms" />
<rect x="198" y="55" width="10" height="10" class="count0" style="animation-delay: 1705.418439004227ms" /><rect x="198.5" y="55.5" width="9" height="9" class="st" style="animation-delay: 1705.418439004227ms" />
<rect x="198" y="68" width="10" height="10" class="count0" style="animation-delay: 1714.195533021077ms" /><rect x="198.5" y="68.5" width="9" height="9" class="st" style="animation-delay: 1714.195533021077ms" />
<rect x="198" y="81" width="10" height="10" class="count0" style="animation-delay: 1723.0941189400737ms" /><rect x="198.5" y="81.5" width="9" height="9" class="st" style="animation-delay: 1723.0941189400737ms" />
<rect x="211" y="3" width="10" height="10" class="count0" style="animation-delay: 1732.1184903233566ms" /><rect x="211.5" y="3.5" width="9" height="9" class="st" style="animation-delay: 1732.1184903233566ms" />
<rect x="211" y="16" width="10" height="10" class="count0" style="animation-delay: 1741.273188782763ms" /><rect x="211.5" y="16.5" width="9" height="9" class="st" style="animation-delay: 1741.273188782763ms" />
<rect x="211" y="29" width="10" height="10" class="count0" style="animation-delay: 1750.5630241216245ms" /><rect x="211.5" y="29.5" width="9" height="9" class="st" style="animation-delay: 1750.5630241216245ms" />
<rect x="211" y="42" width="10" height="10" class="count0" style="animation-delay: 1759.993096605411ms" /><rect x="211.5" y="42.5" width="9" height="9" class="st" style="animation-delay: 1759.993096605411ms" />
<rect x="211" y="55" width="10" height="10" class="count0" style="animation-delay: 1769.5688216407818ms" /><rect x="211.5" y="55.5" width="9" height="9" class="st" style="animation-delay: 1769.5688216407818ms" />
<rect x="211" y="68" width="10" height="10" class="count0" style="animation-delay: 1779.2959571868373ms" /><rect x="211.5" y="68.5" width="9" height="9" class="st" style="animation-delay: 1779.2959571868373ms" />
<rect x="211" y="81" width="10" height="10" class="count0" style="animation-delay: 1789.18063427481ms" /><rect x="211.5" y="81.5" width="9" height="9" class="st" style="animation-delay: 1789.18063427481ms" />
<rect x="224" y="3" width="10" height="10" class="count0" style="animation-delay: 1799.2293910749222ms" /><rect x="224.5" y="3.5" width="9" height="9" class="st" style="animation-delay: 1799.2293910749222ms" />
<rect x="224" y="16" width="10" height="10" class="count0" style="animation-delay: 1809.4492110238505ms" /><rect x="224.5" y="16.5" width="9" height="9" class="st" style="animation-delay: 1809.4492110238505ms" />
<rect x="224" y="29" width="10" height="10" class="count0" style="animation-delay: 1819.847565615964ms" /><rect x="224.5" y="29.5" width="9" height="9" class="st" style="animation-delay: 1819.847565615964ms" />
<rect x="224" y="42" width="10" height="10" class="count0" style="animation-delay: 1830.4324625697652ms" /><rect x="224.5" y="42.5" width="9" height="9" class="st" style="animation-delay: 1830.4324625697652ms" />
<rect x="224" y="55" width="10" height="10" class="count0" style="animation-delay: 1841.2125002121684ms" /><rect x="224.5" y="55.5" width="9" height="9" class="st" style="animation-delay: 1841.2125002121684ms" />
<rect x="224" y="68" width="10" height="10" class="count0" style="animation-delay: 1852.196929083105ms" /><rect x="224.5" y="68.5" width="9" height="9" class="st" style="animation-delay: 1852.196929083105ms" />
<rect x="224" y="81" width="10" height="10" class="count0" style="animation-delay: 1863.395721958675ms" /><rect x="224.5" y="81.5" width="9" height="9" class="st" style="animation-delay: 1863.395721958675ms" />
<rect x="237" y="3" width="10" height="10" class="count1" style="animation-delay: 1874.8196537320819ms" /><rect x="237.5" y="3.5" width="9" height="9" class="st" style="animation-delay: 1874.8196537320819ms" />
<rect x="237" y="16" width="10" height="10" class="count1" style="animation-delay: 1886.4803928901065ms" /><rect x="237.5" y="16.5" width="9" height="9" class="st" style="animation-delay: 1886.4803928901065ms" />
<rect x="237" y="29" width="10" height="10" class="count1" style="animation-delay: 1898.3906066948737ms" /><rect x="237.5" y="29.5" width="9" height="9" class="st" style="animation-delay: 1898.3906066948737ms" />
<rect x="237" y="42" width="10" height="10" class="count0" style="animation-delay: 1910.5640826473154ms" /><rect x="237.5" y="42.5" width="9" height="9" class="st" style="animation-delay: 1910.5640826473154ms" />
<rect x="237" y="55" width="10" height="10" class="count0" style="animation-delay: 1923.0158693981475ms" /><rect x="237.5" y="55.5" width="9" height="9" class="st" style="animation-delay: 1923.0158693981475ms" />
<rect x="237" y="68" width="10" height="10" class="count0" style="animation-delay: 1935.762441022212ms" /><rect x="237.5" y="68.5" width="9" height="9" class="st" style="animation-delay: 1935.762441022212ms" />
<rect x="237" y="81" width="10" height="10" class="count0" style="animation-delay: 1948.821889533977ms" /><rect x="237.5" y="81.5" width="9" height="9" class="st" style="animation-delay: 1948.821889533977ms" />
<rect x="250" y="3" width="10" height="10" class="count0" style="animation-delay: 1962.2141517661123ms" /><rect x="250.5" y="3.5" width="9" height="9" class="st" style="animation-delay: 1962.2141517661123ms" />
<rect x="250" y="16" width="10" height="10" class="count0" style="animation-delay: 1975.9612783567025ms" /><rect x="250.5" y="16.5" width="9" height="9" class="st" style="animation-delay: 1975.9612783567025ms" />
<rect x="250" y="29" width="10" height="10" class="count1" style="animation-delay: 1990.087754730112ms" /><rect x="250.5" y="29.5" width="9" height="9" class="st" style="animation-delay: 1990.087754730112ms" />
<rect x="250" y="42" width="10" height="10" class="count1" style="animation-delay: 2004.620886805125ms" /><rect x="250.5" y="42.5" width="9" height="9" class="st" style="animation-delay: 2004.620886805125ms" />
<rect x="250" y="55" width="10" height="10" class="count0" style="animation-delay: 2019.59126799944ms" /><rect x="250.5" y="55.5" width="9" height="9" class="st" style="animation-delay: 2019.59126799944ms" />
<rect x="250" y="68" width="10" height="10" class="count0" style="animation-delay: 2035.0333493268745ms" /><rect x="250.5" y="68.5" width="9" height="9" class="st" style="animation-delay: 2035.0333493268745ms" />
<rect x="250" y="81" width="10" height="10" class="count0" style="animation-delay: 2050.986141602105ms" /><rect x="250.5" y="81.5" width="9" height="9" class="st" style="animation-delay: 2050.986141602105ms" />
<rect x="263" y="3" width="10" height="10" class="count0" style="animation-delay: 2067.494088880056ms" /><rect x="263.5" y="3.5" width="9" height="9" class="st" style="animation-delay: 2067.494088880056ms" />
<rect x="263" y="16" width="10" height="10" class="count0" style="animation-delay: 2084.6081666472865ms" /><rect x="263.5" y="16.5" width="9" height="9" class="st" style="animation-delay: 2084.6081666472865ms" />
<rect x="263" y="29" width="10" height="10" class="count0" style="animation-delay: 2102.387279117137ms" /><rect x="263.5" y="29.5" width="9" height="9" class="st" style="animation-delay: 2102.387279117137ms" />
<rect x="263" y="42" width="10" height="10" class="count2" style="animation-delay: 2120.900060724996ms" /><rect x="263.5" y="42.5" width="9" height="9" class="st" style="animation-delay: 2120.900060724996ms" />
<rect x="263" y="55" width="10" height="10" class="count1" style="animation-delay: 2140.2272332587436ms" /><rect x="263.5" y="55.5" width="9" height="9" class="st" style="animation-delay: 2140.2272332587436ms" />
<rect x="263" y="68" width="10" height="10" class="count3" style="animation-delay: 2160.464741572355ms" /><rect x="263.5" y="68.5" width="9" height="9" class="st" style="animation-delay: 2160.464741572355ms" />
<rect x="263" y="81" width="10" height="10" class="count0" style="animation-delay: 2181.7280041674812ms" /><rect x="263.5" y="81.5" width="9" height="9" class="st" style="animation-delay: 2181.7280041674812ms" />
<rect x="276" y="3" width="10" height="10" class="count0" style="animation-delay: 2204.1578000454897ms" /><rect x="276.5" y="3.5" width="9" height="9" class="st" style="animation-delay: 2204.1578000454897ms" />
<rect x="276" y="16" width="10" height="10" class="count1" style="animation-delay: 2227.9286261998654ms" /><rect x="276.5" y="16.5" width="9" height="9" class="st" style="animation-delay: 2227.9286261998654ms" />
<rect x="276" y="29" width="10" height="10" class="count0" style="animation-delay: 2253.2609107504895ms" /><rect x="276.5" y="29.5" width="9" height="9" class="st" style="animation-delay: 2253.2609107504895ms" />
<rect x="276" y="42" width="10" height="10" class="count0" style="animation-delay: 2280.4394817654975ms" /><rect x="276.5" y="42.5" width="9" height="9" class="st" style="animation-delay: 2280.4394817654975ms" />
<rect x="276" y="55" width="10" height="10" class="count0" style="animation-delay: 2309.842669613197ms" /><rect x="276.5" y="55.5" width="9" height="9" class="st" style="animation-delay: 2309.842669613197ms" />
<rect x="276" y="68" width="10" height="10" class="count0" style="animation-delay: 2341.9905417648224ms" /><rect x="276.5" y="68.5" width="9" height="9" class="st" style="animation-delay: 2341.9905417648224ms" />
<rect x="276" y="81" width="10" height="10" class="count0" style="animation-delay: 2377.6300999753175ms" /><rect x="276.5" y="81.5" width="9" height="9" class="st" style="animation-delay: 2377.6300999753175ms" />
<rect x="289" y="3" width="10" height="10" class="count1" style="animation-delay: 2417.8987633543184ms" /><rect x="289.5" y="3.5" width="9" height="9" class="st" style="animation-delay: 2417.8987633543184ms" />
<rect x="289" y="16" width="10" height="10" class="count0" style="animation-delay: 2464.675608372294ms" /><rect x="289.5" y="16.5" width="9" height="9" class="st" style="animation-delay: 2464.675608372294ms" />
<rect x="289" y="29" width="10" height="10" class="count0" style="animation-delay: 2521.4716339005736ms" /><rect x="289.5" y="29.5" width="9" height="9" class="st" style="animation-delay: 2521.4716339005736ms" />
<rect x="289" y="42" width="10" height="10" class="count0" style="animation-delay: 2596.3935447582703ms" /><rect x="289.5" y="42.5" width="9" height="9" class="st" style="animation-delay: 2596.3935447582703ms" />
<rect x="289" y="55" width="10" height="10" class="count1" style="animation-delay: 2720.154913857451ms" /><rect x="289.5" y="55.5" width="9" height="9" class="st" style="animation-delay: 2720.154913857451ms" />
</svg>

  