

<svg height="94" width="107" xmlns="http://www.w3.org/2000/svg" fill='#4FA1A7'>
  <style>
  rect {
  rx: 2;
  ry: 2;
  animation: wow .5s backwards;
  }
  .st {
  
  stroke: rgba(27, 31, 35, 0.06);
  stroke-width: 1;
  fill: none;
  }
  @keyframes wow {
  from {opacity: 0;}
  to{ opacity: 1;}}
  .count0 {fill: #ebedf0}
.count1 {fill: #9be9a8}
.count2 {fill: #40c463}
.count3 {fill: #40c463}
.count4 {fill: #30a14e}
.count5 {fill: #216e39}
.count6 {fill: #216e39}
  </style>
<rect x="3" y="29" width="10" height="10" class="count3" style="animation-delay: 387.50911983511907ms" /><rect x="3.5" y="29.5" width="9" height="9" class="st" style="animation-delay: 387.50911983511907ms" />
<rect x="3" y="42" width="10" height="10" class="count3" style="animation-delay: 558.8848615724025ms" /><rect x="3.5" y="42.5" width="9" height="9" class="st" style="animation-delay: 558.8848615724025ms" />
<rect x="3" y="55" width="10" height="10" class="count1" style="animation-delay: 662.6312740359114ms" /><rect x="3.5" y="55.5" width="9" height="9" class="st" style="animation-delay: 662.6312740359114ms" />
<rect x="3" y="68" width="10" height="10" class="count2" style="animation-delay: 741.2782789412818ms" /><rect x="3.5" y="68.5" width="9" height="9" class="st" style="animation-delay: 741.2782789412818ms" />
<rect x="3" y="81" width="10" height="10" class="count5" style="animation-delay: 806.0514514541129ms" /><rect x="3.5" y="81.5" width="9" height="9" class="st" style="animation-delay: 806.0514514541129ms" />
<rect x="16" y="3" width="10" height="10" class="count1" style="animation-delay: 861.8125674273438ms" /><rect x="16.5" y="3.5" width="9" height="9" class="st" style="animation-delay: 861.8125674273438ms" />
<rect x="16" y="16" width="10" height="10" class="count3" style="animation-delay: 911.1636352764554ms" /><rect x="16.5" y="16.5" width="9" height="9" class="st" style="animation-delay: 911.1636352764554ms" />
<rect x="16" y="29" width="10" height="10" class="count2" style="animation-delay: 955.6796702505438ms" /><rect x="16.5" y="29.5" width="9" height="9" class="st" style="animation-delay: 955.6796702505438ms" />
<rect x="16" y="42" width="10" height="10" class="count2" style="animation-delay: 996.3950660442175ms" /><rect x="16.5" y="42.5" width="9" height="9" class="st" style="animation-delay: 996.3950660442175ms" />
<rect x="16" y="55" width="10" height="10" class="count2" style="animation-delay: 1034.0299742628215ms" /><rect x="16.5" y="55.5" width="9" height="9" class="st" style="animation-delay: 1034.0299742628215ms" />
<rect x="16" y="68" width="10" height="10" class="count1" style="animation-delay: 1069.1082792812788ms" /><rect x="16.5" y="68.5" width="9" height="9" class="st" style="animation-delay: 1069.1082792812788ms" />
<rect x="16" y="81" width="10" height="10" class="count2" style="animation-delay: 1102.0243902904385ms" /><rect x="16.5" y="81.5" width="9" height="9" class="st" style="animation-delay: 1102.0243902904385ms" />
<rect x="29" y="3" width="10" height="10" class="count2" style="animation-delay: 1133.0835401171432ms" /><rect x="29.5" y="3.5" width="9" height="9" class="st" style="animation-delay: 1133.0835401171432ms" />
<rect x="29" y="16" width="10" height="10" class="count1" style="animation-delay: 1162.527359505357ms" /><rect x="29.5" y="16.5" width="9" height="9" class="st" style="animation-delay: 1162.527359505357ms" />
<rect x="29" y="29" width="10" height="10" class="count3" style="animation-delay: 1190.5507889761498ms" /><rect x="29.5" y="29.5" width="9" height="9" class="st" style="animation-delay: 1190.5507889761498ms" />
<rect x="29" y="42" width="10" height="10" class="count2" style="animation-delay: 1217.3136516752606ms" /><rect x="29.5" y="42.5" width="9" height="9" class="st" style="animation-delay: 1217.3136516752606ms" />
<rect x="29" y="55" width="10" height="10" class="count1" style="animation-delay: 1242.948805057611ms" /><rect x="29.5" y="55.5" width="9" height="9" class="st" style="animation-delay: 1242.948805057611ms" />
<rect x="29" y="68" width="10" height="10" class="count1" style="animation-delay: 1267.568026783491ms" /><rect x="29.5" y="68.5" width="9" height="9" class="st" style="animation-delay: 1267.568026783491ms" />
<rect x="29" y="81" width="10" height="10" class="count2" style="animation-delay: 1291.2663568266742ms" /><rect x="29.5" y="81.5" width="9" height="9" class="st" style="animation-delay: 1291.2663568266742ms" />
<rect x="42" y="3" width="10" height="10" class="count1" style="animation-delay: 1314.1253614572038ms" /><rect x="42.5" y="3.5" width="9" height="9" class="st" style="animation-delay: 1314.1253614572038ms" />
<rect x="42" y="16" width="10" height="10" class="count1" style="animation-delay: 1336.215627820995ms" /><rect x="42.5" y="16.5" width="9" height="9" class="st" style="animation-delay: 1336.215627820995ms" />
<rect x="42" y="29" width="10" height="10" class="count1" style="animation-delay: 1357.5986988125228ms" /><rect x="42.5" y="29.5" width="9" height="9" class="st" style="animation-delay: 1357.5986988125228ms" />
<rect x="42" y="42" width="10" height="10" class="count1" style="animation-delay: 1378.3285937703724ms" /><rect x="42.5" y="42.5" width="9" height="9" class="st" style="animation-delay: 1378.3285937703724ms" />
<rect x="42" y="55" width="10" height="10" class="count1" style="animation-delay: 1398.4530179525684ms" /><rect x="42.5" y="55.5" width="9" height="9" class="st" style="animation-delay: 1398.4530179525684ms" />
<rect x="42" y="68" width="10" height="10" class="count1" style="animation-delay: 1418.014334898627ms" /><rect x="42.5" y="68.5" width="9" height="9" class="st" style="animation-delay: 1418.014334898627ms" />
<rect x="42" y="81" width="10" height="10" class="count2" style="animation-delay: 1437.0503558586947ms" /><rect x="42.5" y="81.5" width="9" height="9" class="st" style="animation-delay: 1437.0503558586947ms" />
<rect x="55" y="3" width="10" height="10" class="count3" style="animation-delay: 1455.594986467404ms" /><rect x="55.5" y="3.5" width="9" height="9" class="st" style="animation-delay: 1455.594986467404ms" />
<rect x="55" y="16" width="10" height="10" class="count3" style="animation-delay: 1473.6787608444472ms" /><rect x="55.5" y="16.5" width="9" height="9" class="st" style="animation-delay: 1473.6787608444472ms" />
<rect x="55" y="29" width="10" height="10" class="count1" style="animation-delay: 1491.3292860655347ms" /><rect x="55.5" y="29.5" width="9" height="9" class="st" style="animation-delay: 1491.3292860655347ms" />
<rect x="55" y="42" width="10" height="10" class="count2" style="animation-delay: 1508.670713934465ms" /><rect x="55.5" y="42.5" width="9" height="9" class="st" style="animation-delay: 1508.670713934465ms" />
<rect x="55" y="55" width="10" height="10" class="count0" style="animation-delay: 1526.3212391555528ms" /><rect x="55.5" y="55.5" width="9" height="9" class="st" style="animation-delay: 1526.3212391555528ms" />
<rect x="55" y="68" width="10" height="10" class="count2" style="animation-delay: 1544.4050135325963ms" /><rect x="55.5" y="68.5" width="9" height="9" class="st" style="animation-delay: 1544.4050135325963ms" />
<rect x="55" y="81" width="10" height="10" class="count2" style="animation-delay: 1562.9496441413053ms" /><rect x="55.5" y="81.5" width="9" height="9" class="st" style="animation-delay: 1562.9496441413053ms" />
<rect x="68" y="3" width="10" height="10" class="count1" style="animation-delay: 1581.985665101373ms" /><rect x="68.5" y="3.5" width="9" height="9" class="st" style="animation-delay: 1581.985665101373ms" />
<rect x="68" y="16" width="10" height="10" class="count2" style="animation-delay: 1601.5469820474316ms" /><rect x="68.5" y="16.5" width="9" height="9" class="st" style="animation-delay: 1601.5469820474316ms" />
<rect x="68" y="29" width="10" height="10" class="count2" style="animation-delay: 1621.6714062296278ms" /><rect x="68.5" y="29.5" width="9" height="9" class="st" style="animation-delay: 1621.6714062296278ms" />
<rect x="68" y="42" width="10" height="10" class="count1" style="animation-delay: 1642.4013011874774ms" /><rect x="68.5" y="42.5" width="9" height="9" class="st" style="animation-delay: 1642.4013011874774ms" />
<rect x="68" y="55" width="10" height="10" class="count1" style="animation-delay: 1663.784372179005ms" /><rect x="68.5" y="55.5" width="9" height="9" class="st" style="animation-delay: 1663.784372179005ms" />
<rect x="68" y="68" width="10" height="10" class="count3" style="animation-delay: 1685.8746385427964ms" /><rect x="68.5" y="68.5" width="9" height="9" class="st" style="animation-delay: 1685.8746385427964ms" />
<rect x="68" y="81" width="10" height="10" class="count5" style="animation-delay: 1708.7336431733258ms" /><rect x="68.5" y="81.5" width="9" height="9" class="st" style="animation-delay: 1708.7336431733258ms" />
<rect x="81" y="3" width="10" height="10" class="count2" style="animation-delay: 1732.431973216509ms" /><rect x="81.5" y="3.5" width="9" height="9" class="st" style="animation-delay: 1732.431973216509ms" />
<rect x="81" y="16" width="10" height="10" class="count4" style="animation-delay: 1757.051194942389ms" /><rect x="81.5" y="16.5" width="9" height="9" class="st" style="animation-delay: 1757.051194942389ms" />
<rect x="81" y="29" width="10" height="10" class="count5" style="animation-delay: 1782.6863483247394ms" /><rect x="81.5" y="29.5" width="9" height="9" class="st" style="animation-delay: 1782.6863483247394ms" />
<rect x="81" y="42" width="10" height="10" class="count5" style="animation-delay: 1809.4492110238505ms" /><rect x="81.5" y="42.5" width="9" height="9" class="st" style="animation-delay: 1809.4492110238505ms" />
<rect x="81" y="55" width="10" height="10" class="count5" style="animation-delay: 1837.472640494643ms" /><rect x="81.5" y="55.5" width="9" height="9" class="st" style="animation-delay: 1837.472640494643ms" />
<rect x="81" y="68" width="10" height="10" class="count3" style="animation-delay: 1866.9164598828565ms" /><rect x="81.5" y="68.5" width="9" height="9" class="st" style="animation-delay: 1866.9164598828565ms" />
<rect x="81" y="81" width="10" height="10" class="count5" style="animation-delay: 1897.9756097095615ms" /><rect x="81.5" y="81.5" width="9" height="9" class="st" style="animation-delay: 1897.9756097095615ms" />
<rect x="94" y="3" width="10" height="10" class="count6" style="animation-delay: 1930.8917207187212ms" /><rect x="94.5" y="3.5" width="9" height="9" class="st" style="animation-delay: 1930.8917207187212ms" />
<rect x="94" y="16" width="10" height="10" class="count2" style="animation-delay: 1965.9700257371785ms" /><rect x="94.5" y="16.5" width="9" height="9" class="st" style="animation-delay: 1965.9700257371785ms" />
<rect x="94" y="29" width="10" height="10" class="count2" style="animation-delay: 2003.6049339557824ms" /><rect x="94.5" y="29.5" width="9" height="9" class="st" style="animation-delay: 2003.6049339557824ms" />
<rect x="94" y="42" width="10" height="10" class="count1" style="animation-delay: 2044.3203297494565ms" /><rect x="94.5" y="42.5" width="9" height="9" class="st" style="animation-delay: 2044.3203297494565ms" />
<rect x="94" y="55" width="10" height="10" class="count4" style="animation-delay: 2088.8363647235446ms" /><rect x="94.5" y="55.5" width="9" height="9" class="st" style="animation-delay: 2088.8363647235446ms" />
<rect x="94" y="68" width="10" height="10" class="count1" style="animation-delay: 2138.1874325726562ms" /><rect x="94.5" y="68.5" width="9" height="9" class="st" style="animation-delay: 2138.1874325726562ms" />
<rect x="94" y="81" width="10" height="10" class="count0" style="animation-delay: 2193.9485485458868ms" /><rect x="94.5" y="81.5" width="9" height="9" class="st" style="animation-delay: 2193.9485485458868ms" />
<rect x="107" y="3" width="10" height="10" class="count1" style="animation-delay: 2258.7217210587182ms" /><rect x="107.5" y="3.5" width="9" height="9" class="st" style="animation-delay: 2258.7217210587182ms" />
<rect x="107" y="16" width="10" height="10" class="count4" style="animation-delay: 2337.3687259640883ms" /><rect x="107.5" y="16.5" width="9" height="9" class="st" style="animation-delay: 2337.3687259640883ms" />
<rect x="107" y="29" width="10" height="10" class="count4" style="animation-delay: 2441.1151384275972ms" /><rect x="107.5" y="29.5" width="9" height="9" class="st" style="animation-delay: 2441.1151384275972ms" />
<rect x="107" y="42" width="10" height="10" class="count5" style="animation-delay: 2612.4908801648817ms" /><rect x="107.5" y="42.5" width="9" height="9" class="st" style="animation-delay: 2612.4908801648817ms" />
</svg>

  