

<svg height="94" width="146" xmlns="http://www.w3.org/2000/svg" fill='#4FA1A7'>
  <style>
  rect {
  rx: 2;
  ry: 2;
  animation: wow .5s backwards;
  }
  .st {
  
  stroke: rgba(27, 31, 35, 0.06);
  stroke-width: 1;
  fill: none;
  }
  @keyframes wow {
  from {opacity: 0;}
  to{ opacity: 1;}}
  .count0 {fill: #ebedf0}
.count1 {fill: #9be9a8}
.count2 {fill: #9be9a8}
.count3 {fill: #40c463}
.count4 {fill: #40c463}
.count5 {fill: #30a14e}
.count6 {fill: #30a14e}
.count7 {fill: #216e39}
.count8 {fill: #216e39}
  </style>
<rect x="3" y="29" width="10" height="10" class="count3" style="animation-delay: 355.68933044900626ms" /><rect x="3.5" y="29.5" width="9" height="9" class="st" style="animation-delay: 355.68933044900626ms" />
<rect x="3" y="42" width="10" height="10" class="count3" style="animation-delay: 512.9927840030091ms" /><rect x="3.5" y="42.5" width="9" height="9" class="st" style="animation-delay: 512.9927840030091ms" />
<rect x="3" y="55" width="10" height="10" class="count1" style="animation-delay: 608.22019955734ms" /><rect x="3.5" y="55.5" width="9" height="9" class="st" style="animation-delay: 608.22019955734ms" />
<rect x="3" y="68" width="10" height="10" class="count2" style="animation-delay: 680.4092115953367ms" /><rect x="3.5" y="68.5" width="9" height="9" class="st" style="animation-delay: 680.4092115953367ms" />
<rect x="3" y="81" width="10" height="10" class="count5" style="animation-delay: 739.863622299141ms" /><rect x="3.5" y="81.5" width="9" height="9" class="st" style="animation-delay: 739.863622299141ms" />
<rect x="16" y="3" width="10" height="10" class="count1" style="animation-delay: 791.0459893465202ms" /><rect x="16.5" y="3.5" width="9" height="9" class="st" style="animation-delay: 791.0459893465202ms" />
<rect x="16" y="16" width="10" height="10" class="count3" style="animation-delay: 836.3446607369195ms" /><rect x="16.5" y="16.5" width="9" height="9" class="st" style="animation-delay: 836.3446607369195ms" />
<rect x="16" y="29" width="10" height="10" class="count2" style="animation-delay: 877.2053214638598ms" /><rect x="16.5" y="29.5" width="9" height="9" class="st" style="animation-delay: 877.2053214638598ms" />
<rect x="16" y="42" width="10" height="10" class="count2" style="animation-delay: 914.5774273770835ms" /><rect x="16.5" y="42.5" width="9" height="9" class="st" style="animation-delay: 914.5774273770835ms" />
<rect x="16" y="55" width="10" height="10" class="count2" style="animation-delay: 949.1219958029332ms" /><rect x="16.5" y="55.5" width="9" height="9" class="st" style="animation-delay: 949.1219958029332ms" />
<rect x="16" y="68" width="10" height="10" class="count1" style="animation-delay: 981.319893056577ms" /><rect x="16.5" y="68.5" width="9" height="9" class="st" style="animation-delay: 981.319893056577ms" />
<rect x="16" y="81" width="10" height="10" class="count2" style="animation-delay: 1011.533141949441ms" /><rect x="16.5" y="81.5" width="9" height="9" class="st" style="animation-delay: 1011.533141949441ms" />
<rect x="29" y="3" width="10" height="10" class="count2" style="animation-delay: 1040.041911525952ms" /><rect x="29.5" y="3.5" width="9" height="9" class="st" style="animation-delay: 1040.041911525952ms" />
<rect x="29" y="16" width="10" height="10" class="count1" style="animation-delay: 1067.067991347019ms" /><rect x="29.5" y="16.5" width="9" height="9" class="st" style="animation-delay: 1067.067991347019ms" />
<rect x="29" y="29" width="10" height="10" class="count3" style="animation-delay: 1092.7903146554154ms" /><rect x="29.5" y="29.5" width="9" height="9" class="st" style="animation-delay: 1092.7903146554154ms" />
<rect x="29" y="42" width="10" height="10" class="count2" style="animation-delay: 1117.355580934557ms" /><rect x="29.5" y="42.5" width="9" height="9" class="st" style="animation-delay: 1117.355580934557ms" />
<rect x="29" y="55" width="10" height="10" class="count1" style="animation-delay: 1140.8857382284175ms" /><rect x="29.5" y="55.5" width="9" height="9" class="st" style="animation-delay: 1140.8857382284175ms" />
<rect x="29" y="68" width="10" height="10" class="count1" style="animation-delay: 1163.4833857252809ms" /><rect x="29.5" y="68.5" width="9" height="9" class="st" style="animation-delay: 1163.4833857252809ms" />
<rect x="29" y="81" width="10" height="10" class="count2" style="animation-delay: 1185.235759319497ms" /><rect x="29.5" y="81.5" width="9" height="9" class="st" style="animation-delay: 1185.235759319497ms" />
<rect x="42" y="3" width="10" height="10" class="count1" style="animation-delay: 1206.2177275767174ms" /><rect x="42.5" y="3.5" width="9" height="9" class="st" style="animation-delay: 1206.2177275767174ms" />
<rect x="42" y="16" width="10" height="10" class="count1" style="animation-delay: 1226.4940814744534ms" /><rect x="42.5" y="16.5" width="9" height="9" class="st" style="animation-delay: 1226.4940814744534ms" />
<rect x="42" y="29" width="10" height="10" class="count1" style="animation-delay: 1246.1213103953012ms" /><rect x="42.5" y="29.5" width="9" height="9" class="st" style="animation-delay: 1246.1213103953012ms" />
<rect x="42" y="42" width="10" height="10" class="count1" style="animation-delay: 1265.1489979526239ms" /><rect x="42.5" y="42.5" width="9" height="9" class="st" style="animation-delay: 1265.1489979526239ms" />
<rect x="42" y="55" width="10" height="10" class="count1" style="animation-delay: 1283.620932151444ms" /><rect x="42.5" y="55.5" width="9" height="9" class="st" style="animation-delay: 1283.620932151444ms" />
<rect x="42" y="68" width="10" height="10" class="count1" style="animation-delay: 1301.5759979062964ms" /><rect x="42.5" y="68.5" width="9" height="9" class="st" style="animation-delay: 1301.5759979062964ms" />
<rect x="42" y="81" width="10" height="10" class="count2" style="animation-delay: 1319.048901647454ms" /><rect x="42.5" y="81.5" width="9" height="9" class="st" style="animation-delay: 1319.048901647454ms" />
<rect x="55" y="3" width="10" height="10" class="count3" style="animation-delay: 1336.0707648940336ms" /><rect x="55.5" y="3.5" width="9" height="9" class="st" style="animation-delay: 1336.0707648940336ms" />
<rect x="55" y="16" width="10" height="10" class="count3" style="animation-delay: 1352.6696144976202ms" /><rect x="55.5" y="16.5" width="9" height="9" class="st" style="animation-delay: 1352.6696144976202ms" />
<rect x="55" y="29" width="10" height="10" class="count1" style="animation-delay: 1368.87079061609ms" /><rect x="55.5" y="29.5" width="9" height="9" class="st" style="animation-delay: 1368.87079061609ms" />
<rect x="55" y="42" width="10" height="10" class="count2" style="animation-delay: 1384.6972886023414ms" /><rect x="55.5" y="42.5" width="9" height="9" class="st" style="animation-delay: 1384.6972886023414ms" />
<rect x="55" y="55" width="10" height="10" class="count0" style="animation-delay: 1400.1700473720114ms" /><rect x="55.5" y="55.5" width="9" height="9" class="st" style="animation-delay: 1400.1700473720114ms" />
<rect x="55" y="68" width="10" height="10" class="count2" style="animation-delay: 1415.30819409496ms" /><rect x="55.5" y="68.5" width="9" height="9" class="st" style="animation-delay: 1415.30819409496ms" />
<rect x="55" y="81" width="10" height="10" class="count2" style="animation-delay: 1430.129252991615ms" /><rect x="55.5" y="81.5" width="9" height="9" class="st" style="animation-delay: 1430.129252991615ms" />
<rect x="68" y="3" width="10" height="10" class="count1" style="animation-delay: 1444.6493244339572ms" /><rect x="68.5" y="3.5" width="9" height="9" class="st" style="animation-delay: 1444.6493244339572ms" />
<rect x="68" y="16" width="10" height="10" class="count2" style="animation-delay: 1458.883239328284ms" /><rect x="68.5" y="16.5" width="9" height="9" class="st" style="animation-delay: 1458.883239328284ms" />
<rect x="68" y="29" width="10" height="10" class="count2" style="animation-delay: 1472.8446928035758ms" /><rect x="68.5" y="29.5" width="9" height="9" class="st" style="animation-delay: 1472.8446928035758ms" />
<rect x="68" y="42" width="10" height="10" class="count1" style="animation-delay: 1486.5463604801284ms" /><rect x="68.5" y="42.5" width="9" height="9" class="st" style="animation-delay: 1486.5463604801284ms" />
<rect x="68" y="55" width="10" height="10" class="count1" style="animation-delay: 1500ms" /><rect x="68.5" y="55.5" width="9" height="9" class="st" style="animation-delay: 1500ms" />
<rect x="68" y="68" width="10" height="10" class="count3" style="animation-delay: 1513.4536395198716ms" /><rect x="68.5" y="68.5" width="9" height="9" class="st" style="animation-delay: 1513.4536395198716ms" />
<rect x="68" y="81" width="10" height="10" class="count5" style="animation-delay: 1527.1553071964242ms" /><rect x="68.5" y="81.5" width="9" height="9" class="st" style="animation-delay: 1527.1553071964242ms" />
<rect x="81" y="3" width="10" height="10" class="count2" style="animation-delay: 1541.116760671716ms" /><rect x="81.5" y="3.5" width="9" height="9" class="st" style="animation-delay: 1541.116760671716ms" />
<rect x="81" y="16" width="10" height="10" class="count4" style="animation-delay: 1555.3506755660426ms" /><rect x="81.5" y="16.5" width="9" height="9" class="st" style="animation-delay: 1555.3506755660426ms" />
<rect x="81" y="29" width="10" height="10" class="count5" style="animation-delay: 1569.8707470083853ms" /><rect x="81.5" y="29.5" width="9" height="9" class="st" style="animation-delay: 1569.8707470083853ms" />
<rect x="81" y="42" width="10" height="10" class="count5" style="animation-delay: 1584.6918059050402ms" /><rect x="81.5" y="42.5" width="9" height="9" class="st" style="animation-delay: 1584.6918059050402ms" />
<rect x="81" y="55" width="10" height="10" class="count5" style="animation-delay: 1599.8299526279889ms" /><rect x="81.5" y="55.5" width="9" height="9" class="st" style="animation-delay: 1599.8299526279889ms" />
<rect x="81" y="68" width="10" height="10" class="count3" style="animation-delay: 1615.3027113976586ms" /><rect x="81.5" y="68.5" width="9" height="9" class="st" style="animation-delay: 1615.3027113976586ms" />
<rect x="81" y="81" width="10" height="10" class="count5" style="animation-delay: 1631.1292093839097ms" /><rect x="81.5" y="81.5" width="9" height="9" class="st" style="animation-delay: 1631.1292093839097ms" />
<rect x="94" y="3" width="10" height="10" class="count6" style="animation-delay: 1647.33038550238ms" /><rect x="94.5" y="3.5" width="9" height="9" class="st" style="animation-delay: 1647.33038550238ms" />
<rect x="94" y="16" width="10" height="10" class="count2" style="animation-delay: 1663.929235105966ms" /><rect x="94.5" y="16.5" width="9" height="9" class="st" style="animation-delay: 1663.929235105966ms" />
<rect x="94" y="29" width="10" height="10" class="count2" style="animation-delay: 1680.9510983525463ms" /><rect x="94.5" y="29.5" width="9" height="9" class="st" style="animation-delay: 1680.9510983525463ms" />
<rect x="94" y="42" width="10" height="10" class="count1" style="animation-delay: 1698.4240020937036ms" /><rect x="94.5" y="42.5" width="9" height="9" class="st" style="animation-delay: 1698.4240020937036ms" />
<rect x="94" y="55" width="10" height="10" class="count4" style="animation-delay: 1716.379067848556ms" /><rect x="94.5" y="55.5" width="9" height="9" class="st" style="animation-delay: 1716.379067848556ms" />
<rect x="94" y="68" width="10" height="10" class="count1" style="animation-delay: 1734.8510020473761ms" /><rect x="94.5" y="68.5" width="9" height="9" class="st" style="animation-delay: 1734.8510020473761ms" />
<rect x="94" y="81" width="10" height="10" class="count0" style="animation-delay: 1753.878689604699ms" /><rect x="94.5" y="81.5" width="9" height="9" class="st" style="animation-delay: 1753.878689604699ms" />
<rect x="107" y="3" width="10" height="10" class="count1" style="animation-delay: 1773.5059185255466ms" /><rect x="107.5" y="3.5" width="9" height="9" class="st" style="animation-delay: 1773.5059185255466ms" />
<rect x="107" y="16" width="10" height="10" class="count4" style="animation-delay: 1793.7822724232824ms" /><rect x="107.5" y="16.5" width="9" height="9" class="st" style="animation-delay: 1793.7822724232824ms" />
<rect x="107" y="29" width="10" height="10" class="count4" style="animation-delay: 1814.7642406805028ms" /><rect x="107.5" y="29.5" width="9" height="9" class="st" style="animation-delay: 1814.7642406805028ms" />
<rect x="107" y="42" width="10" height="10" class="count5" style="animation-delay: 1836.516614274719ms" /><rect x="107.5" y="42.5" width="9" height="9" class="st" style="animation-delay: 1836.516614274719ms" />
<rect x="107" y="55" width="10" height="10" class="count3" style="animation-delay: 1859.1142617715825ms" /><rect x="107.5" y="55.5" width="9" height="9" class="st" style="animation-delay: 1859.1142617715825ms" />
<rect x="107" y="68" width="10" height="10" class="count4" style="animation-delay: 1882.644419065443ms" /><rect x="107.5" y="68.5" width="9" height="9" class="st" style="animation-delay: 1882.644419065443ms" />
<rect x="107" y="81" width="10" height="10" class="count6" style="animation-delay: 1907.2096853445848ms" /><rect x="107.5" y="81.5" width="9" height="9" class="st" style="animation-delay: 1907.2096853445848ms" />
<rect x="120" y="3" width="10" height="10" class="count6" style="animation-delay: 1932.932008652981ms" /><rect x="120.5" y="3.5" width="9" height="9" class="st" style="animation-delay: 1932.932008652981ms" />
<rect x="120" y="16" width="10" height="10" class="count6" style="animation-delay: 1959.9580884740483ms" /><rect x="120.5" y="16.5" width="9" height="9" class="st" style="animation-delay: 1959.9580884740483ms" />
<rect x="120" y="29" width="10" height="10" class="count8" style="animation-delay: 1988.466858050559ms" /><rect x="120.5" y="29.5" width="9" height="9" class="st" style="animation-delay: 1988.466858050559ms" />
<rect x="120" y="42" width="10" height="10" class="count7" style="animation-delay: 2018.6801069434227ms" /><rect x="120.5" y="42.5" width="9" height="9" class="st" style="animation-delay: 2018.6801069434227ms" />
<rect x="120" y="55" width="10" height="10" class="count5" style="animation-delay: 2050.8780041970667ms" /><rect x="120.5" y="55.5" width="9" height="9" class="st" style="animation-delay: 2050.8780041970667ms" />
<rect x="120" y="68" width="10" height="10" class="count5" style="animation-delay: 2085.4225726229165ms" /><rect x="120.5" y="68.5" width="9" height="9" class="st" style="animation-delay: 2085.4225726229165ms" />
<rect x="120" y="81" width="10" height="10" class="count5" style="animation-delay: 2122.7946785361405ms" /><rect x="120.5" y="81.5" width="9" height="9" class="st" style="animation-delay: 2122.7946785361405ms" />
<rect x="133" y="3" width="10" height="10" class="count5" style="animation-delay: 2163.6553392630804ms" /><rect x="133.5" y="3.5" width="9" height="9" class="st" style="animation-delay: 2163.6553392630804ms" />
<rect x="133" y="16" width="10" height="10" class="count7" style="animation-delay: 2208.9540106534796ms" /><rect x="133.5" y="16.5" width="9" height="9" class="st" style="animation-delay: 2208.9540106534796ms" />
<rect x="133" y="29" width="10" height="10" class="count3" style="animation-delay: 2260.1363777008587ms" /><rect x="133.5" y="29.5" width="9" height="9" class="st" style="animation-delay: 2260.1363777008587ms" />
<rect x="133" y="42" width="10" height="10" class="count5" style="animation-delay: 2319.5907884046633ms" /><rect x="133.5" y="42.5" width="9" height="9" class="st" style="animation-delay: 2319.5907884046633ms" />
<rect x="133" y="55" width="10" height="10" class="count6" style="animation-delay: 2391.77980044266ms" /><rect x="133.5" y="55.5" width="9" height="9" class="st" style="animation-delay: 2391.77980044266ms" />
<rect x="133" y="68" width="10" height="10" class="count4" style="animation-delay: 2487.007215996991ms" /><rect x="133.5" y="68.5" width="9" height="9" class="st" style="animation-delay: 2487.007215996991ms" />
<rect x="133" y="81" width="10" height="10" class="count3" style="animation-delay: 2644.3106695509928ms" /><rect x="133.5" y="81.5" width="9" height="9" class="st" style="animation-delay: 2644.3106695509928ms" />
</svg>

  