

<svg height="94" width="146" xmlns="http://www.w3.org/2000/svg" fill='#4FA1A7'>
  <style>
  rect {
  rx: 2;
  ry: 2;
  animation: wow .5s backwards;
  }
  .st {
  
  stroke: rgba(27, 31, 35, 0.06);
  stroke-width: 1;
  fill: none;
  }
  @keyframes wow {
  from {opacity: 0;}
  to{ opacity: 1;}}
  .count0 {fill: #ebedf0}
.count1 {fill: #9be9a8}
.count2 {fill: #9be9a8}
.count3 {fill: #40c463}
.count4 {fill: #40c463}
.count5 {fill: #30a14e}
.count6 {fill: #30a14e}
.count7 {fill: #216e39}
.count8 {fill: #216e39}
  </style>
<rect x="3" y="29" width="10" height="10" class="count3" style="animation-delay: 360.56239257685206ms" /><rect x="3.5" y="29.5" width="9" height="9" class="st" style="animation-delay: 360.56239257685206ms" />
<rect x="3" y="42" width="10" height="10" class="count3" style="animation-delay: 520.020955762976ms" /><rect x="3.5" y="42.5" width="9" height="9" class="st" style="animation-delay: 520.020955762976ms" />
<rect x="3" y="55" width="10" height="10" class="count1" style="animation-delay: 616.5530185826175ms" /><rect x="3.5" y="55.5" width="9" height="9" class="st" style="animation-delay: 616.5530185826175ms" />
<rect x="3" y="68" width="10" height="10" class="count2" style="animation-delay: 689.7310440952801ms" /><rect x="3.5" y="68.5" width="9" height="9" class="st" style="animation-delay: 689.7310440952801ms" />
<rect x="3" y="81" width="10" height="10" class="count5" style="animation-delay: 750ms" /><rect x="3.5" y="81.5" width="9" height="9" class="st" style="animation-delay: 750ms" />
<rect x="16" y="3" width="10" height="10" class="count1" style="animation-delay: 801.8835824989567ms" /><rect x="16.5" y="3.5" width="9" height="9" class="st" style="animation-delay: 801.8835824989567ms" />
<rect x="16" y="16" width="10" height="10" class="count3" style="animation-delay: 847.8028607535417ms" /><rect x="16.5" y="16.5" width="9" height="9" class="st" style="animation-delay: 847.8028607535417ms" />
<rect x="16" y="29" width="10" height="10" class="count2" style="animation-delay: 889.2233261225157ms" /><rect x="16.5" y="29.5" width="9" height="9" class="st" style="animation-delay: 889.2233261225157ms" />
<rect x="16" y="42" width="10" height="10" class="count2" style="animation-delay: 927.1074423165473ms" /><rect x="16.5" y="42.5" width="9" height="9" class="st" style="animation-delay: 927.1074423165473ms" />
<rect x="16" y="55" width="10" height="10" class="count2" style="animation-delay: 962.1252828192013ms" /><rect x="16.5" y="55.5" width="9" height="9" class="st" style="animation-delay: 962.1252828192013ms" />
<rect x="16" y="68" width="10" height="10" class="count1" style="animation-delay: 994.7643019740981ms" /><rect x="16.5" y="68.5" width="9" height="9" class="st" style="animation-delay: 994.7643019740981ms" />
<rect x="16" y="81" width="10" height="10" class="count2" style="animation-delay: 1025.391482425587ms" /><rect x="16.5" y="81.5" width="9" height="9" class="st" style="animation-delay: 1025.391482425587ms" />
<rect x="29" y="3" width="10" height="10" class="count2" style="animation-delay: 1054.2908316271864ms" /><rect x="29.5" y="3.5" width="9" height="9" class="st" style="animation-delay: 1054.2908316271864ms" />
<rect x="29" y="16" width="10" height="10" class="count1" style="animation-delay: 1081.6871777305562ms" /><rect x="29.5" y="16.5" width="9" height="9" class="st" style="animation-delay: 1081.6871777305562ms" />
<rect x="29" y="29" width="10" height="10" class="count3" style="animation-delay: 1107.7619054234085ms" /><rect x="29.5" y="29.5" width="9" height="9" class="st" style="animation-delay: 1107.7619054234085ms" />
<rect x="29" y="42" width="10" height="10" class="count2" style="animation-delay: 1132.6637240208731ms" /><rect x="29.5" y="42.5" width="9" height="9" class="st" style="animation-delay: 1132.6637240208731ms" />
<rect x="29" y="55" width="10" height="10" class="count1" style="animation-delay: 1156.5162522956855ms" /><rect x="29.5" y="55.5" width="9" height="9" class="st" style="animation-delay: 1156.5162522956855ms" />
<rect x="29" y="68" width="10" height="10" class="count1" style="animation-delay: 1179.4234950791333ms" /><rect x="29.5" y="68.5" width="9" height="9" class="st" style="animation-delay: 1179.4234950791333ms" />
<rect x="29" y="81" width="10" height="10" class="count2" style="animation-delay: 1201.4738834263333ms" /><rect x="29.5" y="81.5" width="9" height="9" class="st" style="animation-delay: 1201.4738834263333ms" />
<rect x="42" y="3" width="10" height="10" class="count1" style="animation-delay: 1222.743311627187ms" /><rect x="42.5" y="3.5" width="9" height="9" class="st" style="animation-delay: 1222.743311627187ms" />
<rect x="42" y="16" width="10" height="10" class="count1" style="animation-delay: 1243.2974583171476ms" /><rect x="42.5" y="16.5" width="9" height="9" class="st" style="animation-delay: 1243.2974583171476ms" />
<rect x="42" y="29" width="10" height="10" class="count1" style="animation-delay: 1263.19358680214ms" /><rect x="42.5" y="29.5" width="9" height="9" class="st" style="animation-delay: 1263.19358680214ms" />
<rect x="42" y="42" width="10" height="10" class="count1" style="animation-delay: 1282.4819600075227ms" /><rect x="42.5" y="42.5" width="9" height="9" class="st" style="animation-delay: 1282.4819600075227ms" />
<rect x="42" y="55" width="10" height="10" class="count1" style="animation-delay: 1301.2069658485505ms" /><rect x="42.5" y="55.5" width="9" height="9" class="st" style="animation-delay: 1301.2069658485505ms" />
<rect x="42" y="68" width="10" height="10" class="count1" style="animation-delay: 1319.4080219760192ms" /><rect x="42.5" y="68.5" width="9" height="9" class="st" style="animation-delay: 1319.4080219760192ms" />
<rect x="42" y="81" width="10" height="10" class="count2" style="animation-delay: 1337.120310309841ms" /><rect x="42.5" y="81.5" width="9" height="9" class="st" style="animation-delay: 1337.120310309841ms" />
<rect x="55" y="3" width="10" height="10" class="count3" style="animation-delay: 1354.3753787442952ms" /><rect x="55.5" y="3.5" width="9" height="9" class="st" style="animation-delay: 1354.3753787442952ms" />
<rect x="55" y="16" width="10" height="10" class="count3" style="animation-delay: 1371.2016381081546ms" /><rect x="55.5" y="16.5" width="9" height="9" class="st" style="animation-delay: 1371.2016381081546ms" />
<rect x="55" y="29" width="10" height="10" class="count1" style="animation-delay: 1387.6247757278868ms" /><rect x="55.5" y="29.5" width="9" height="9" class="st" style="animation-delay: 1387.6247757278868ms" />
<rect x="55" y="42" width="10" height="10" class="count2" style="animation-delay: 1403.6681020003728ms" /><rect x="55.5" y="42.5" width="9" height="9" class="st" style="animation-delay: 1403.6681020003728ms" />
<rect x="55" y="55" width="10" height="10" class="count0" style="animation-delay: 1419.352842711358ms" /><rect x="55.5" y="55.5" width="9" height="9" class="st" style="animation-delay: 1419.352842711358ms" />
<rect x="55" y="68" width="10" height="10" class="count2" style="animation-delay: 1434.698387079292ms" /><rect x="55.5" y="68.5" width="9" height="9" class="st" style="animation-delay: 1434.698387079292ms" />
<rect x="55" y="81" width="10" height="10" class="count2" style="animation-delay: 1449.7224994122494ms" /><rect x="55.5" y="81.5" width="9" height="9" class="st" style="animation-delay: 1449.7224994122494ms" />
<rect x="68" y="3" width="10" height="10" class="count1" style="animation-delay: 1464.4415006626632ms" /><rect x="68.5" y="3.5" width="9" height="9" class="st" style="animation-delay: 1464.4415006626632ms" />
<rect x="68" y="16" width="10" height="10" class="count2" style="animation-delay: 1478.8704249251791ms" /><rect x="68.5" y="16.5" width="9" height="9" class="st" style="animation-delay: 1478.8704249251791ms" />
<rect x="68" y="29" width="10" height="10" class="count2" style="animation-delay: 1493.0231549566001ms" /><rect x="68.5" y="29.5" width="9" height="9" class="st" style="animation-delay: 1493.0231549566001ms" />
<rect x="68" y="42" width="10" height="10" class="count1" style="animation-delay: 1506.9768450433999ms" /><rect x="68.5" y="42.5" width="9" height="9" class="st" style="animation-delay: 1506.9768450433999ms" />
<rect x="68" y="55" width="10" height="10" class="count1" style="animation-delay: 1521.1295750748209ms" /><rect x="68.5" y="55.5" width="9" height="9" class="st" style="animation-delay: 1521.1295750748209ms" />
<rect x="68" y="68" width="10" height="10" class="count3" style="animation-delay: 1535.558499337337ms" /><rect x="68.5" y="68.5" width="9" height="9" class="st" style="animation-delay: 1535.558499337337ms" />
<rect x="68" y="81" width="10" height="10" class="count5" style="animation-delay: 1550.2775005877504ms" /><rect x="68.5" y="81.5" width="9" height="9" class="st" style="animation-delay: 1550.2775005877504ms" />
<rect x="81" y="3" width="10" height="10" class="count2" style="animation-delay: 1565.301612920708ms" /><rect x="81.5" y="3.5" width="9" height="9" class="st" style="animation-delay: 1565.301612920708ms" />
<rect x="81" y="16" width="10" height="10" class="count4" style="animation-delay: 1580.647157288642ms" /><rect x="81.5" y="16.5" width="9" height="9" class="st" style="animation-delay: 1580.647157288642ms" />
<rect x="81" y="29" width="10" height="10" class="count5" style="animation-delay: 1596.331897999627ms" /><rect x="81.5" y="29.5" width="9" height="9" class="st" style="animation-delay: 1596.331897999627ms" />
<rect x="81" y="42" width="10" height="10" class="count5" style="animation-delay: 1612.375224272113ms" /><rect x="81.5" y="42.5" width="9" height="9" class="st" style="animation-delay: 1612.375224272113ms" />
<rect x="81" y="55" width="10" height="10" class="count5" style="animation-delay: 1628.7983618918454ms" /><rect x="81.5" y="55.5" width="9" height="9" class="st" style="animation-delay: 1628.7983618918454ms" />
<rect x="81" y="68" width="10" height="10" class="count3" style="animation-delay: 1645.6246212557048ms" /><rect x="81.5" y="68.5" width="9" height="9" class="st" style="animation-delay: 1645.6246212557048ms" />
<rect x="81" y="81" width="10" height="10" class="count5" style="animation-delay: 1662.8796896901595ms" /><rect x="81.5" y="81.5" width="9" height="9" class="st" style="animation-delay: 1662.8796896901595ms" />
<rect x="94" y="3" width="10" height="10" class="count6" style="animation-delay: 1680.5919780239806ms" /><rect x="94.5" y="3.5" width="9" height="9" class="st" style="animation-delay: 1680.5919780239806ms" />
<rect x="94" y="16" width="10" height="10" class="count2" style="animation-delay: 1698.7930341514498ms" /><rect x="94.5" y="16.5" width="9" height="9" class="st" style="animation-delay: 1698.7930341514498ms" />
<rect x="94" y="29" width="10" height="10" class="count2" style="animation-delay: 1717.5180399924773ms" /><rect x="94.5" y="29.5" width="9" height="9" class="st" style="animation-delay: 1717.5180399924773ms" />
<rect x="94" y="42" width="10" height="10" class="count1" style="animation-delay: 1736.8064131978597ms" /><rect x="94.5" y="42.5" width="9" height="9" class="st" style="animation-delay: 1736.8064131978597ms" />
<rect x="94" y="55" width="10" height="10" class="count4" style="animation-delay: 1756.7025416828526ms" /><rect x="94.5" y="55.5" width="9" height="9" class="st" style="animation-delay: 1756.7025416828526ms" />
<rect x="94" y="68" width="10" height="10" class="count1" style="animation-delay: 1777.2566883728127ms" /><rect x="94.5" y="68.5" width="9" height="9" class="st" style="animation-delay: 1777.2566883728127ms" />
<rect x="94" y="81" width="10" height="10" class="count0" style="animation-delay: 1798.5261165736667ms" /><rect x="94.5" y="81.5" width="9" height="9" class="st" style="animation-delay: 1798.5261165736667ms" />
<rect x="107" y="3" width="10" height="10" class="count1" style="animation-delay: 1820.5765049208665ms" /><rect x="107.5" y="3.5" width="9" height="9" class="st" style="animation-delay: 1820.5765049208665ms" />
<rect x="107" y="16" width="10" height="10" class="count4" style="animation-delay: 1843.4837477043145ms" /><rect x="107.5" y="16.5" width="9" height="9" class="st" style="animation-delay: 1843.4837477043145ms" />
<rect x="107" y="29" width="10" height="10" class="count4" style="animation-delay: 1867.3362759791269ms" /><rect x="107.5" y="29.5" width="9" height="9" class="st" style="animation-delay: 1867.3362759791269ms" />
<rect x="107" y="42" width="10" height="10" class="count5" style="animation-delay: 1892.2380945765917ms" /><rect x="107.5" y="42.5" width="9" height="9" class="st" style="animation-delay: 1892.2380945765917ms" />
<rect x="107" y="55" width="10" height="10" class="count3" style="animation-delay: 1918.3128222694438ms" /><rect x="107.5" y="55.5" width="9" height="9" class="st" style="animation-delay: 1918.3128222694438ms" />
<rect x="107" y="68" width="10" height="10" class="count4" style="animation-delay: 1945.709168372813ms" /><rect x="107.5" y="68.5" width="9" height="9" class="st" style="animation-delay: 1945.709168372813ms" />
<rect x="107" y="81" width="10" height="10" class="count6" style="animation-delay: 1974.608517574413ms" /><rect x="107.5" y="81.5" width="9" height="9" class="st" style="animation-delay: 1974.608517574413ms" />
<rect x="120" y="3" width="10" height="10" class="count6" style="animation-delay: 2005.235698025902ms" /><rect x="120.5" y="3.5" width="9" height="9" class="st" style="animation-delay: 2005.235698025902ms" />
<rect x="120" y="16" width="10" height="10" class="count6" style="animation-delay: 2037.8747171807988ms" /><rect x="120.5" y="16.5" width="9" height="9" class="st" style="animation-delay: 2037.8747171807988ms" />
<rect x="120" y="29" width="10" height="10" class="count8" style="animation-delay: 2072.8925576834527ms" /><rect x="120.5" y="29.5" width="9" height="9" class="st" style="animation-delay: 2072.8925576834527ms" />
<rect x="120" y="42" width="10" height="10" class="count7" style="animation-delay: 2110.7766738774844ms" /><rect x="120.5" y="42.5" width="9" height="9" class="st" style="animation-delay: 2110.7766738774844ms" />
<rect x="120" y="55" width="10" height="10" class="count5" style="animation-delay: 2152.197139246458ms" /><rect x="120.5" y="55.5" width="9" height="9" class="st" style="animation-delay: 2152.197139246458ms" />
<rect x="120" y="68" width="10" height="10" class="count5" style="animation-delay: 2198.1164175010435ms" /><rect x="120.5" y="68.5" width="9" height="9" class="st" style="animation-delay: 2198.1164175010435ms" />
<rect x="120" y="81" width="10" height="10" class="count5" style="animation-delay: 2250ms" /><rect x="120.5" y="81.5" width="9" height="9" class="st" style="animation-delay: 2250ms" />
<rect x="133" y="3" width="10" height="10" class="count5" style="animation-delay: 2310.2689559047194ms" /><rect x="133.5" y="3.5" width="9" height="9" class="st" style="animation-delay: 2310.2689559047194ms" />
<rect x="133" y="16" width="10" height="10" class="count7" style="animation-delay: 2383.4469814173826ms" /><rect x="133.5" y="16.5" width="9" height="9" class="st" style="animation-delay: 2383.4469814173826ms" />
<rect x="133" y="29" width="10" height="10" class="count3" style="animation-delay: 2479.9790442370236ms" /><rect x="133.5" y="29.5" width="9" height="9" class="st" style="animation-delay: 2479.9790442370236ms" />
<rect x="133" y="42" width="10" height="10" class="count2" style="animation-delay: 2639.437607423148ms" /><rect x="133.5" y="42.5" width="9" height="9" class="st" style="animation-delay: 2639.437607423148ms" />
</svg>

  