

<svg height="94" width="185" xmlns="http://www.w3.org/2000/svg" fill='#4FA1A7'>
  <style>
  rect {
  rx: 2;
  ry: 2;
  animation: wow .5s backwards;
  }
  .st {
  
  stroke: rgba(27, 31, 35, 0.06);
  stroke-width: 1;
  fill: none;
  }
  @keyframes wow {
  from {opacity: 0;}
  to{ opacity: 1;}}
  .count0 {fill: #ebedf0}
.count1 {fill: #9be9a8}
.count2 {fill: #9be9a8}
.count3 {fill: #40c463}
.count4 {fill: #40c463}
.count5 {fill: #30a14e}
.count6 {fill: #30a14e}
.count7 {fill: #216e39}
.count8 {fill: #216e39}
  </style>
<rect x="3" y="68" width="10" height="10" class="count3" style="animation-delay: 331.07796431298914ms" /><rect x="3.5" y="68.5" width="9" height="9" class="st" style="animation-delay: 331.07796431298914ms" />
<rect x="3" y="81" width="10" height="10" class="count3" style="animation-delay: 477.49705176866007ms" /><rect x="3.5" y="81.5" width="9" height="9" class="st" style="animation-delay: 477.49705176866007ms" />
<rect x="16" y="3" width="10" height="10" class="count1" style="animation-delay: 566.1353554498972ms" /><rect x="16.5" y="3.5" width="9" height="9" class="st" style="animation-delay: 566.1353554498972ms" />
<rect x="16" y="16" width="10" height="10" class="count2" style="animation-delay: 633.3293618631211ms" /><rect x="16.5" y="16.5" width="9" height="9" class="st" style="animation-delay: 633.3293618631211ms" />
<rect x="16" y="29" width="10" height="10" class="count5" style="animation-delay: 688.6699177364042ms" /><rect x="16.5" y="29.5" width="9" height="9" class="st" style="animation-delay: 688.6699177364042ms" />
<rect x="16" y="42" width="10" height="10" class="count1" style="animation-delay: 736.3108010583061ms" /><rect x="16.5" y="42.5" width="9" height="9" class="st" style="animation-delay: 736.3108010583061ms" />
<rect x="16" y="55" width="10" height="10" class="count3" style="animation-delay: 778.4751018291064ms" /><rect x="16.5" y="55.5" width="9" height="9" class="st" style="animation-delay: 778.4751018291064ms" />
<rect x="16" y="68" width="10" height="10" class="count2" style="animation-delay: 816.5084731334462ms" /><rect x="16.5" y="68.5" width="9" height="9" class="st" style="animation-delay: 816.5084731334462ms" />
<rect x="16" y="81" width="10" height="10" class="count2" style="animation-delay: 851.2946747105931ms" /><rect x="16.5" y="81.5" width="9" height="9" class="st" style="animation-delay: 851.2946747105931ms" />
<rect x="29" y="3" width="10" height="10" class="count2" style="animation-delay: 883.4489858282853ms" /><rect x="29.5" y="3.5" width="9" height="9" class="st" style="animation-delay: 883.4489858282853ms" />
<rect x="29" y="16" width="10" height="10" class="count1" style="animation-delay: 913.4190000101515ms" /><rect x="29.5" y="16.5" width="9" height="9" class="st" style="animation-delay: 913.4190000101515ms" />
<rect x="29" y="29" width="10" height="10" class="count2" style="animation-delay: 941.5416904661847ms" /><rect x="29.5" y="29.5" width="9" height="9" class="st" style="animation-delay: 941.5416904661847ms" />
<rect x="29" y="42" width="10" height="10" class="count2" style="animation-delay: 968.0778403825864ms" /><rect x="29.5" y="42.5" width="9" height="9" class="st" style="animation-delay: 968.0778403825864ms" />
<rect x="29" y="55" width="10" height="10" class="count1" style="animation-delay: 993.2338929389674ms" /><rect x="29.5" y="55.5" width="9" height="9" class="st" style="animation-delay: 993.2338929389674ms" />
<rect x="29" y="68" width="10" height="10" class="count3" style="animation-delay: 1017.1764003726149ms" /><rect x="29.5" y="68.5" width="9" height="9" class="st" style="animation-delay: 1017.1764003726149ms" />
<rect x="29" y="81" width="10" height="10" class="count2" style="animation-delay: 1040.041911525952ms" /><rect x="29.5" y="81.5" width="9" height="9" class="st" style="animation-delay: 1040.041911525952ms" />
<rect x="42" y="3" width="10" height="10" class="count1" style="animation-delay: 1061.9439364390455ms" /><rect x="42.5" y="3.5" width="9" height="9" class="st" style="animation-delay: 1061.9439364390455ms" />
<rect x="42" y="16" width="10" height="10" class="count1" style="animation-delay: 1082.9779751100389ms" /><rect x="42.5" y="16.5" width="9" height="9" class="st" style="animation-delay: 1082.9779751100389ms" />
<rect x="42" y="29" width="10" height="10" class="count2" style="animation-delay: 1103.2252272822013ms" /><rect x="42.5" y="29.5" width="9" height="9" class="st" style="animation-delay: 1103.2252272822013ms" />
<rect x="42" y="42" width="10" height="10" class="count1" style="animation-delay: 1122.7553811080445ms" /><rect x="42.5" y="42.5" width="9" height="9" class="st" style="animation-delay: 1122.7553811080445ms" />
<rect x="42" y="55" width="10" height="10" class="count1" style="animation-delay: 1141.6287444548673ms" /><rect x="42.5" y="55.5" width="9" height="9" class="st" style="animation-delay: 1141.6287444548673ms" />
<rect x="42" y="68" width="10" height="10" class="count1" style="animation-delay: 1159.897898010911ms" /><rect x="42.5" y="68.5" width="9" height="9" class="st" style="animation-delay: 1159.897898010911ms" />
<rect x="42" y="81" width="10" height="10" class="count1" style="animation-delay: 1177.608994529071ms" /><rect x="42.5" y="81.5" width="9" height="9" class="st" style="animation-delay: 1177.608994529071ms" />
<rect x="55" y="3" width="10" height="10" class="count1" style="animation-delay: 1194.802792171943ms" /><rect x="55.5" y="3.5" width="9" height="9" class="st" style="animation-delay: 1194.802792171943ms" />
<rect x="55" y="16" width="10" height="10" class="count1" style="animation-delay: 1211.5154852733026ms" /><rect x="55.5" y="16.5" width="9" height="9" class="st" style="animation-delay: 1211.5154852733026ms" />
<rect x="55" y="29" width="10" height="10" class="count2" style="animation-delay: 1227.779378806338ms" /><rect x="55.5" y="29.5" width="9" height="9" class="st" style="animation-delay: 1227.779378806338ms" />
<rect x="55" y="42" width="10" height="10" class="count3" style="animation-delay: 1243.6234408853934ms" /><rect x="55.5" y="42.5" width="9" height="9" class="st" style="animation-delay: 1243.6234408853934ms" />
<rect x="55" y="55" width="10" height="10" class="count3" style="animation-delay: 1259.0737590879542ms" /><rect x="55.5" y="55.5" width="9" height="9" class="st" style="animation-delay: 1259.0737590879542ms" />
<rect x="55" y="68" width="10" height="10" class="count1" style="animation-delay: 1274.1539201993603ms" /><rect x="55.5" y="68.5" width="9" height="9" class="st" style="animation-delay: 1274.1539201993603ms" />
<rect x="55" y="81" width="10" height="10" class="count2" style="animation-delay: 1288.8853284450818ms" /><rect x="55.5" y="81.5" width="9" height="9" class="st" style="animation-delay: 1288.8853284450818ms" />
<rect x="68" y="3" width="10" height="10" class="count0" style="animation-delay: 1303.2874739052834ms" /><rect x="68.5" y="3.5" width="9" height="9" class="st" style="animation-delay: 1303.2874739052834ms" />
<rect x="68" y="16" width="10" height="10" class="count2" style="animation-delay: 1317.3781602752638ms" /><rect x="68.5" y="16.5" width="9" height="9" class="st" style="animation-delay: 1317.3781602752638ms" />
<rect x="68" y="29" width="10" height="10" class="count2" style="animation-delay: 1331.1736992144642ms" /><rect x="68.5" y="29.5" width="9" height="9" class="st" style="animation-delay: 1331.1736992144642ms" />
<rect x="68" y="42" width="10" height="10" class="count1" style="animation-delay: 1344.6890770548434ms" /><rect x="68.5" y="42.5" width="9" height="9" class="st" style="animation-delay: 1344.6890770548434ms" />
<rect x="68" y="55" width="10" height="10" class="count2" style="animation-delay: 1357.9380985013656ms" /><rect x="68.5" y="55.5" width="9" height="9" class="st" style="animation-delay: 1357.9380985013656ms" />
<rect x="68" y="68" width="10" height="10" class="count2" style="animation-delay: 1370.9335110700113ms" /><rect x="68.5" y="68.5" width="9" height="9" class="st" style="animation-delay: 1370.9335110700113ms" />
<rect x="68" y="81" width="10" height="10" class="count1" style="animation-delay: 1383.687113311382ms" /><rect x="68.5" y="81.5" width="9" height="9" class="st" style="animation-delay: 1383.687113311382ms" />
<rect x="81" y="3" width="10" height="10" class="count1" style="animation-delay: 1396.2098493159092ms" /><rect x="81.5" y="3.5" width="9" height="9" class="st" style="animation-delay: 1396.2098493159092ms" />
<rect x="81" y="16" width="10" height="10" class="count3" style="animation-delay: 1408.5118915565508ms" /><rect x="81.5" y="16.5" width="9" height="9" class="st" style="animation-delay: 1408.5118915565508ms" />
<rect x="81" y="29" width="10" height="10" class="count5" style="animation-delay: 1420.6027137717135ms" /><rect x="81.5" y="29.5" width="9" height="9" class="st" style="animation-delay: 1420.6027137717135ms" />
<rect x="81" y="42" width="10" height="10" class="count2" style="animation-delay: 1432.49115530598ms" /><rect x="81.5" y="42.5" width="9" height="9" class="st" style="animation-delay: 1432.49115530598ms" />
<rect x="81" y="55" width="10" height="10" class="count4" style="animation-delay: 1444.185478094661ms" /><rect x="81.5" y="55.5" width="9" height="9" class="st" style="animation-delay: 1444.185478094661ms" />
<rect x="81" y="68" width="10" height="10" class="count5" style="animation-delay: 1455.6934172890772ms" /><rect x="81.5" y="68.5" width="9" height="9" class="st" style="animation-delay: 1455.6934172890772ms" />
<rect x="81" y="81" width="10" height="10" class="count5" style="animation-delay: 1467.0222263642402ms" /><rect x="81.5" y="81.5" width="9" height="9" class="st" style="animation-delay: 1467.0222263642402ms" />
<rect x="94" y="3" width="10" height="10" class="count5" style="animation-delay: 1478.1787174225308ms" /><rect x="94.5" y="3.5" width="9" height="9" class="st" style="animation-delay: 1478.1787174225308ms" />
<rect x="94" y="16" width="10" height="10" class="count3" style="animation-delay: 1489.1692973008085ms" /><rect x="94.5" y="16.5" width="9" height="9" class="st" style="animation-delay: 1489.1692973008085ms" />
<rect x="94" y="29" width="10" height="10" class="count5" style="animation-delay: 1500ms" /><rect x="94.5" y="29.5" width="9" height="9" class="st" style="animation-delay: 1500ms" />
<rect x="94" y="42" width="10" height="10" class="count6" style="animation-delay: 1510.8307026991915ms" /><rect x="94.5" y="42.5" width="9" height="9" class="st" style="animation-delay: 1510.8307026991915ms" />
<rect x="94" y="55" width="10" height="10" class="count2" style="animation-delay: 1521.8212825774692ms" /><rect x="94.5" y="55.5" width="9" height="9" class="st" style="animation-delay: 1521.8212825774692ms" />
<rect x="94" y="68" width="10" height="10" class="count2" style="animation-delay: 1532.9777736357598ms" /><rect x="94.5" y="68.5" width="9" height="9" class="st" style="animation-delay: 1532.9777736357598ms" />
<rect x="94" y="81" width="10" height="10" class="count1" style="animation-delay: 1544.3065827109228ms" /><rect x="94.5" y="81.5" width="9" height="9" class="st" style="animation-delay: 1544.3065827109228ms" />
<rect x="107" y="3" width="10" height="10" class="count4" style="animation-delay: 1555.8145219053388ms" /><rect x="107.5" y="3.5" width="9" height="9" class="st" style="animation-delay: 1555.8145219053388ms" />
<rect x="107" y="16" width="10" height="10" class="count1" style="animation-delay: 1567.5088446940197ms" /><rect x="107.5" y="16.5" width="9" height="9" class="st" style="animation-delay: 1567.5088446940197ms" />
<rect x="107" y="29" width="10" height="10" class="count0" style="animation-delay: 1579.3972862282865ms" /><rect x="107.5" y="29.5" width="9" height="9" class="st" style="animation-delay: 1579.3972862282865ms" />
<rect x="107" y="42" width="10" height="10" class="count1" style="animation-delay: 1591.4881084434492ms" /><rect x="107.5" y="42.5" width="9" height="9" class="st" style="animation-delay: 1591.4881084434492ms" />
<rect x="107" y="55" width="10" height="10" class="count4" style="animation-delay: 1603.790150684091ms" /><rect x="107.5" y="55.5" width="9" height="9" class="st" style="animation-delay: 1603.790150684091ms" />
<rect x="107" y="68" width="10" height="10" class="count4" style="animation-delay: 1616.3128866886182ms" /><rect x="107.5" y="68.5" width="9" height="9" class="st" style="animation-delay: 1616.3128866886182ms" />
<rect x="107" y="81" width="10" height="10" class="count5" style="animation-delay: 1629.0664889299887ms" /><rect x="107.5" y="81.5" width="9" height="9" class="st" style="animation-delay: 1629.0664889299887ms" />
<rect x="120" y="3" width="10" height="10" class="count3" style="animation-delay: 1642.0619014986344ms" /><rect x="120.5" y="3.5" width="9" height="9" class="st" style="animation-delay: 1642.0619014986344ms" />
<rect x="120" y="16" width="10" height="10" class="count4" style="animation-delay: 1655.3109229451566ms" /><rect x="120.5" y="16.5" width="9" height="9" class="st" style="animation-delay: 1655.3109229451566ms" />
<rect x="120" y="29" width="10" height="10" class="count6" style="animation-delay: 1668.8263007855355ms" /><rect x="120.5" y="29.5" width="9" height="9" class="st" style="animation-delay: 1668.8263007855355ms" />
<rect x="120" y="42" width="10" height="10" class="count6" style="animation-delay: 1682.6218397247362ms" /><rect x="120.5" y="42.5" width="9" height="9" class="st" style="animation-delay: 1682.6218397247362ms" />
<rect x="120" y="55" width="10" height="10" class="count6" style="animation-delay: 1696.7125260947164ms" /><rect x="120.5" y="55.5" width="9" height="9" class="st" style="animation-delay: 1696.7125260947164ms" />
<rect x="120" y="68" width="10" height="10" class="count8" style="animation-delay: 1711.114671554918ms" /><rect x="120.5" y="68.5" width="9" height="9" class="st" style="animation-delay: 1711.114671554918ms" />
<rect x="120" y="81" width="10" height="10" class="count7" style="animation-delay: 1725.8460798006397ms" /><rect x="120.5" y="81.5" width="9" height="9" class="st" style="animation-delay: 1725.8460798006397ms" />
<rect x="133" y="3" width="10" height="10" class="count5" style="animation-delay: 1740.926240912046ms" /><rect x="133.5" y="3.5" width="9" height="9" class="st" style="animation-delay: 1740.926240912046ms" />
<rect x="133" y="16" width="10" height="10" class="count5" style="animation-delay: 1756.3765591146064ms" /><rect x="133.5" y="16.5" width="9" height="9" class="st" style="animation-delay: 1756.3765591146064ms" />
<rect x="133" y="29" width="10" height="10" class="count5" style="animation-delay: 1772.220621193662ms" /><rect x="133.5" y="29.5" width="9" height="9" class="st" style="animation-delay: 1772.220621193662ms" />
<rect x="133" y="42" width="10" height="10" class="count5" style="animation-delay: 1788.4845147266972ms" /><rect x="133.5" y="42.5" width="9" height="9" class="st" style="animation-delay: 1788.4845147266972ms" />
<rect x="133" y="55" width="10" height="10" class="count7" style="animation-delay: 1805.1972078280567ms" /><rect x="133.5" y="55.5" width="9" height="9" class="st" style="animation-delay: 1805.1972078280567ms" />
<rect x="133" y="68" width="10" height="10" class="count3" style="animation-delay: 1822.3910054709288ms" /><rect x="133.5" y="68.5" width="9" height="9" class="st" style="animation-delay: 1822.3910054709288ms" />
<rect x="133" y="81" width="10" height="10" class="count5" style="animation-delay: 1840.1021019890886ms" /><rect x="133.5" y="81.5" width="9" height="9" class="st" style="animation-delay: 1840.1021019890886ms" />
<rect x="146" y="3" width="10" height="10" class="count6" style="animation-delay: 1858.3712555451325ms" /><rect x="146.5" y="3.5" width="9" height="9" class="st" style="animation-delay: 1858.3712555451325ms" />
<rect x="146" y="16" width="10" height="10" class="count4" style="animation-delay: 1877.2446188919553ms" /><rect x="146.5" y="16.5" width="9" height="9" class="st" style="animation-delay: 1877.2446188919553ms" />
<rect x="146" y="29" width="10" height="10" class="count3" style="animation-delay: 1896.7747727177984ms" /><rect x="146.5" y="29.5" width="9" height="9" class="st" style="animation-delay: 1896.7747727177984ms" />
<rect x="146" y="42" width="10" height="10" class="count3" style="animation-delay: 1917.0220248899611ms" /><rect x="146.5" y="42.5" width="9" height="9" class="st" style="animation-delay: 1917.0220248899611ms" />
<rect x="146" y="55" width="10" height="10" class="count3" style="animation-delay: 1938.0560635609545ms" /><rect x="146.5" y="55.5" width="9" height="9" class="st" style="animation-delay: 1938.0560635609545ms" />
<rect x="146" y="68" width="10" height="10" class="count3" style="animation-delay: 1959.9580884740483ms" /><rect x="146.5" y="68.5" width="9" height="9" class="st" style="animation-delay: 1959.9580884740483ms" />
<rect x="146" y="81" width="10" height="10" class="count3" style="animation-delay: 1982.8235996273852ms" /><rect x="146.5" y="81.5" width="9" height="9" class="st" style="animation-delay: 1982.8235996273852ms" />
<rect x="159" y="3" width="10" height="10" class="count1" style="animation-delay: 2006.7661070610327ms" /><rect x="159.5" y="3.5" width="9" height="9" class="st" style="animation-delay: 2006.7661070610327ms" />
<rect x="159" y="16" width="10" height="10" class="count3" style="animation-delay: 2031.9221596174136ms" /><rect x="159.5" y="16.5" width="9" height="9" class="st" style="animation-delay: 2031.9221596174136ms" />
<rect x="159" y="29" width="10" height="10" class="count1" style="animation-delay: 2058.4583095338153ms" /><rect x="159.5" y="29.5" width="9" height="9" class="st" style="animation-delay: 2058.4583095338153ms" />
<rect x="159" y="42" width="10" height="10" class="count0" style="animation-delay: 2086.5809999898484ms" /><rect x="159.5" y="42.5" width="9" height="9" class="st" style="animation-delay: 2086.5809999898484ms" />
<rect x="159" y="55" width="10" height="10" class="count1" style="animation-delay: 2116.5510141717145ms" /><rect x="159.5" y="55.5" width="9" height="9" class="st" style="animation-delay: 2116.5510141717145ms" />
<rect x="159" y="68" width="10" height="10" class="count0" style="animation-delay: 2148.7053252894066ms" /><rect x="159.5" y="68.5" width="9" height="9" class="st" style="animation-delay: 2148.7053252894066ms" />
<rect x="159" y="81" width="10" height="10" class="count0" style="animation-delay: 2183.4915268665536ms" /><rect x="159.5" y="81.5" width="9" height="9" class="st" style="animation-delay: 2183.4915268665536ms" />
<rect x="172" y="3" width="10" height="10" class="count0" style="animation-delay: 2221.5248981708933ms" /><rect x="172.5" y="3.5" width="9" height="9" class="st" style="animation-delay: 2221.5248981708933ms" />
<rect x="172" y="16" width="10" height="10" class="count2" style="animation-delay: 2263.689198941694ms" /><rect x="172.5" y="16.5" width="9" height="9" class="st" style="animation-delay: 2263.689198941694ms" />
<rect x="172" y="29" width="10" height="10" class="count0" style="animation-delay: 2311.330082263596ms" /><rect x="172.5" y="29.5" width="9" height="9" class="st" style="animation-delay: 2311.330082263596ms" />
<rect x="172" y="42" width="10" height="10" class="count1" style="animation-delay: 2366.670638136879ms" /><rect x="172.5" y="42.5" width="9" height="9" class="st" style="animation-delay: 2366.670638136879ms" />
<rect x="172" y="55" width="10" height="10" class="count1" style="animation-delay: 2433.864644550103ms" /><rect x="172.5" y="55.5" width="9" height="9" class="st" style="animation-delay: 2433.864644550103ms" />
<rect x="172" y="68" width="10" height="10" class="count1" style="animation-delay: 2522.50294823134ms" /><rect x="172.5" y="68.5" width="9" height="9" class="st" style="animation-delay: 2522.50294823134ms" />
<rect x="172" y="81" width="10" height="10" class="count1" style="animation-delay: 2668.922035687011ms" /><rect x="172.5" y="81.5" width="9" height="9" class="st" style="animation-delay: 2668.922035687011ms" />
</svg>

  