

<svg height="94" width="198" xmlns="http://www.w3.org/2000/svg" fill='#4FA1A7'>
  <style>
  rect {
  rx: 2;
  ry: 2;
  animation: wow .5s backwards;
  }
  .st {
  
  stroke: rgba(27, 31, 35, 0.06);
  stroke-width: 1;
  fill: none;
  }
  @keyframes wow {
  from {opacity: 0;}
  to{ opacity: 1;}}
  .count0 {fill: #ebedf0}
.count1 {fill: #9be9a8}
.count2 {fill: #9be9a8}
.count3 {fill: #40c463}
.count4 {fill: #40c463}
.count5 {fill: #30a14e}
.count6 {fill: #30a14e}
.count7 {fill: #216e39}
.count8 {fill: #216e39}
  </style>
<rect x="3" y="68" width="10" height="10" class="count3" style="animation-delay: 328.7381125266525ms" /><rect x="3.5" y="68.5" width="9" height="9" class="st" style="animation-delay: 328.7381125266525ms" />
<rect x="3" y="81" width="10" height="10" class="count3" style="animation-delay: 474.12240153523305ms" /><rect x="3.5" y="81.5" width="9" height="9" class="st" style="animation-delay: 474.12240153523305ms" />
<rect x="16" y="3" width="10" height="10" class="count1" style="animation-delay: 562.1342651764731ms" /><rect x="16.5" y="3.5" width="9" height="9" class="st" style="animation-delay: 562.1342651764731ms" />
<rect x="16" y="16" width="10" height="10" class="count2" style="animation-delay: 628.8533864179722ms" /><rect x="16.5" y="16.5" width="9" height="9" class="st" style="animation-delay: 628.8533864179722ms" />
<rect x="16" y="29" width="10" height="10" class="count5" style="animation-delay: 683.8028298873064ms" /><rect x="16.5" y="29.5" width="9" height="9" class="st" style="animation-delay: 683.8028298873064ms" />
<rect x="16" y="42" width="10" height="10" class="count1" style="animation-delay: 731.1070172706105ms" /><rect x="16.5" y="42.5" width="9" height="9" class="st" style="animation-delay: 731.1070172706105ms" />
<rect x="16" y="55" width="10" height="10" class="count3" style="animation-delay: 772.9733271597678ms" /><rect x="16.5" y="55.5" width="9" height="9" class="st" style="animation-delay: 772.9733271597678ms" />
<rect x="16" y="68" width="10" height="10" class="count2" style="animation-delay: 810.7379024058392ms" /><rect x="16.5" y="68.5" width="9" height="9" class="st" style="animation-delay: 810.7379024058392ms" />
<rect x="16" y="81" width="10" height="10" class="count2" style="animation-delay: 845.278256887517ms" /><rect x="16.5" y="81.5" width="9" height="9" class="st" style="animation-delay: 845.278256887517ms" />
<rect x="29" y="3" width="10" height="10" class="count2" style="animation-delay: 877.2053214638598ms" /><rect x="29.5" y="3.5" width="9" height="9" class="st" style="animation-delay: 877.2053214638598ms" />
<rect x="29" y="16" width="10" height="10" class="count1" style="animation-delay: 906.9635263476789ms" /><rect x="29.5" y="16.5" width="9" height="9" class="st" style="animation-delay: 906.9635263476789ms" />
<rect x="29" y="29" width="10" height="10" class="count2" style="animation-delay: 934.8874632332754ms" /><rect x="29.5" y="29.5" width="9" height="9" class="st" style="animation-delay: 934.8874632332754ms" />
<rect x="29" y="42" width="10" height="10" class="count2" style="animation-delay: 961.2360722545491ms" /><rect x="29.5" y="42.5" width="9" height="9" class="st" style="animation-delay: 961.2360722545491ms" />
<rect x="29" y="55" width="10" height="10" class="count1" style="animation-delay: 986.2143375799576ms" /><rect x="29.5" y="55.5" width="9" height="9" class="st" style="animation-delay: 986.2143375799576ms" />
<rect x="29" y="68" width="10" height="10" class="count3" style="animation-delay: 1009.9876343598419ms" /><rect x="29.5" y="68.5" width="9" height="9" class="st" style="animation-delay: 1009.9876343598419ms" />
<rect x="29" y="81" width="10" height="10" class="count2" style="animation-delay: 1032.691546394891ms" /><rect x="29.5" y="81.5" width="9" height="9" class="st" style="animation-delay: 1032.691546394891ms" />
<rect x="42" y="3" width="10" height="10" class="count1" style="animation-delay: 1054.438781507269ms" /><rect x="42.5" y="3.5" width="9" height="9" class="st" style="animation-delay: 1054.438781507269ms" />
<rect x="42" y="16" width="10" height="10" class="count1" style="animation-delay: 1075.3241647609186ms" /><rect x="42.5" y="16.5" width="9" height="9" class="st" style="animation-delay: 1075.3241647609186ms" />
<rect x="42" y="29" width="10" height="10" class="count2" style="animation-delay: 1095.4283220301577ms" /><rect x="42.5" y="29.5" width="9" height="9" class="st" style="animation-delay: 1095.4283220301577ms" />
<rect x="42" y="42" width="10" height="10" class="count1" style="animation-delay: 1114.820448955263ms" /><rect x="42.5" y="42.5" width="9" height="9" class="st" style="animation-delay: 1114.820448955263ms" />
<rect x="42" y="55" width="10" height="10" class="count1" style="animation-delay: 1133.5604271852812ms" /><rect x="42.5" y="55.5" width="9" height="9" class="st" style="animation-delay: 1133.5604271852812ms" />
<rect x="42" y="68" width="10" height="10" class="count1" style="animation-delay: 1151.7004658010671ms" /><rect x="42.5" y="68.5" width="9" height="9" class="st" style="animation-delay: 1151.7004658010671ms" />
<rect x="42" y="81" width="10" height="10" class="count1" style="animation-delay: 1169.2863913767512ms" /><rect x="42.5" y="81.5" width="9" height="9" class="st" style="animation-delay: 1169.2863913767512ms" />
<rect x="55" y="3" width="10" height="10" class="count1" style="animation-delay: 1186.3586740217524ms" /><rect x="55.5" y="3.5" width="9" height="9" class="st" style="animation-delay: 1186.3586740217524ms" />
<rect x="55" y="16" width="10" height="10" class="count1" style="animation-delay: 1202.9532522709537ms" /><rect x="55.5" y="16.5" width="9" height="9" class="st" style="animation-delay: 1202.9532522709537ms" />
<rect x="55" y="29" width="10" height="10" class="count2" style="animation-delay: 1219.1022027862168ms" /><rect x="55.5" y="29.5" width="9" height="9" class="st" style="animation-delay: 1219.1022027862168ms" />
<rect x="55" y="42" width="10" height="10" class="count3" style="animation-delay: 1234.8342889533885ms" /><rect x="55.5" y="42.5" width="9" height="9" class="st" style="animation-delay: 1234.8342889533885ms" />
<rect x="55" y="55" width="10" height="10" class="count3" style="animation-delay: 1250.1754139792886ms" /><rect x="55.5" y="55.5" width="9" height="9" class="st" style="animation-delay: 1250.1754139792886ms" />
<rect x="55" y="68" width="10" height="10" class="count1" style="animation-delay: 1265.1489979526239ms" /><rect x="55.5" y="68.5" width="9" height="9" class="st" style="animation-delay: 1265.1489979526239ms" />
<rect x="55" y="81" width="10" height="10" class="count2" style="animation-delay: 1279.776293827199ms" /><rect x="55.5" y="81.5" width="9" height="9" class="st" style="animation-delay: 1279.776293827199ms" />
<rect x="68" y="3" width="10" height="10" class="count0" style="animation-delay: 1294.0766539394929ms" /><rect x="68.5" y="3.5" width="9" height="9" class="st" style="animation-delay: 1294.0766539394929ms" />
<rect x="68" y="16" width="10" height="10" class="count2" style="animation-delay: 1308.0677561594318ms" /><rect x="68.5" y="16.5" width="9" height="9" class="st" style="animation-delay: 1308.0677561594318ms" />
<rect x="68" y="29" width="10" height="10" class="count2" style="animation-delay: 1321.76579686586ms" /><rect x="68.5" y="29.5" width="9" height="9" class="st" style="animation-delay: 1321.76579686586ms" />
<rect x="68" y="42" width="10" height="10" class="count1" style="animation-delay: 1335.1856564767238ms" /><rect x="68.5" y="42.5" width="9" height="9" class="st" style="animation-delay: 1335.1856564767238ms" />
<rect x="68" y="55" width="10" height="10" class="count2" style="animation-delay: 1348.3410421339745ms" /><rect x="68.5" y="55.5" width="9" height="9" class="st" style="animation-delay: 1348.3410421339745ms" />
<rect x="68" y="68" width="10" height="10" class="count2" style="animation-delay: 1361.24461126213ms" /><rect x="68.5" y="68.5" width="9" height="9" class="st" style="animation-delay: 1361.24461126213ms" />
<rect x="68" y="81" width="10" height="10" class="count1" style="animation-delay: 1373.908079027023ms" /><rect x="68.5" y="81.5" width="9" height="9" class="st" style="animation-delay: 1373.908079027023ms" />
<rect x="81" y="3" width="10" height="10" class="count1" style="animation-delay: 1386.3423121731043ms" /><rect x="81.5" y="3.5" width="9" height="9" class="st" style="animation-delay: 1386.3423121731043ms" />
<rect x="81" y="16" width="10" height="10" class="count3" style="animation-delay: 1398.5574112806626ms" /><rect x="81.5" y="16.5" width="9" height="9" class="st" style="animation-delay: 1398.5574112806626ms" />
<rect x="81" y="29" width="10" height="10" class="count5" style="animation-delay: 1410.562783133651ms" /><rect x="81.5" y="29.5" width="9" height="9" class="st" style="animation-delay: 1410.562783133651ms" />
<rect x="81" y="42" width="10" height="10" class="count2" style="animation-delay: 1422.367204605699ms" /><rect x="81.5" y="42.5" width="9" height="9" class="st" style="animation-delay: 1422.367204605699ms" />
<rect x="81" y="55" width="10" height="10" class="count4" style="animation-delay: 1433.978879241931ms" /><rect x="81.5" y="55.5" width="9" height="9" class="st" style="animation-delay: 1433.978879241931ms" />
<rect x="81" y="68" width="10" height="10" class="count5" style="animation-delay: 1445.4054875264603ms" /><rect x="81.5" y="68.5" width="9" height="9" class="st" style="animation-delay: 1445.4054875264603ms" />
<rect x="81" y="81" width="10" height="10" class="count5" style="animation-delay: 1456.6542316712778ms" /><rect x="81.5" y="81.5" width="9" height="9" class="st" style="animation-delay: 1456.6542316712778ms" />
<rect x="94" y="3" width="10" height="10" class="count5" style="animation-delay: 1467.7318756350896ms" /><rect x="94.5" y="3.5" width="9" height="9" class="st" style="animation-delay: 1467.7318756350896ms" />
<rect x="94" y="16" width="10" height="10" class="count3" style="animation-delay: 1478.6447809752433ms" /><rect x="94.5" y="16.5" width="9" height="9" class="st" style="animation-delay: 1478.6447809752433ms" />
<rect x="94" y="29" width="10" height="10" class="count5" style="animation-delay: 1489.3989390481245ms" /><rect x="94.5" y="29.5" width="9" height="9" class="st" style="animation-delay: 1489.3989390481245ms" />
<rect x="94" y="42" width="10" height="10" class="count6" style="animation-delay: 1500ms" /><rect x="94.5" y="42.5" width="9" height="9" class="st" style="animation-delay: 1500ms" />
<rect x="94" y="55" width="10" height="10" class="count2" style="animation-delay: 1510.6010609518758ms" /><rect x="94.5" y="55.5" width="9" height="9" class="st" style="animation-delay: 1510.6010609518758ms" />
<rect x="94" y="68" width="10" height="10" class="count2" style="animation-delay: 1521.3552190247563ms" /><rect x="94.5" y="68.5" width="9" height="9" class="st" style="animation-delay: 1521.3552190247563ms" />
<rect x="94" y="81" width="10" height="10" class="count1" style="animation-delay: 1532.2681243649104ms" /><rect x="94.5" y="81.5" width="9" height="9" class="st" style="animation-delay: 1532.2681243649104ms" />
<rect x="107" y="3" width="10" height="10" class="count4" style="animation-delay: 1543.3457683287222ms" /><rect x="107.5" y="3.5" width="9" height="9" class="st" style="animation-delay: 1543.3457683287222ms" />
<rect x="107" y="16" width="10" height="10" class="count1" style="animation-delay: 1554.5945124735401ms" /><rect x="107.5" y="16.5" width="9" height="9" class="st" style="animation-delay: 1554.5945124735401ms" />
<rect x="107" y="29" width="10" height="10" class="count0" style="animation-delay: 1566.021120758069ms" /><rect x="107.5" y="29.5" width="9" height="9" class="st" style="animation-delay: 1566.021120758069ms" />
<rect x="107" y="42" width="10" height="10" class="count1" style="animation-delay: 1577.632795394301ms" /><rect x="107.5" y="42.5" width="9" height="9" class="st" style="animation-delay: 1577.632795394301ms" />
<rect x="107" y="55" width="10" height="10" class="count4" style="animation-delay: 1589.4372168663488ms" /><rect x="107.5" y="55.5" width="9" height="9" class="st" style="animation-delay: 1589.4372168663488ms" />
<rect x="107" y="68" width="10" height="10" class="count4" style="animation-delay: 1601.4425887193372ms" /><rect x="107.5" y="68.5" width="9" height="9" class="st" style="animation-delay: 1601.4425887193372ms" />
<rect x="107" y="81" width="10" height="10" class="count5" style="animation-delay: 1613.6576878268957ms" /><rect x="107.5" y="81.5" width="9" height="9" class="st" style="animation-delay: 1613.6576878268957ms" />
<rect x="120" y="3" width="10" height="10" class="count3" style="animation-delay: 1626.091920972977ms" /><rect x="120.5" y="3.5" width="9" height="9" class="st" style="animation-delay: 1626.091920972977ms" />
<rect x="120" y="16" width="10" height="10" class="count4" style="animation-delay: 1638.75538873787ms" /><rect x="120.5" y="16.5" width="9" height="9" class="st" style="animation-delay: 1638.75538873787ms" />
<rect x="120" y="29" width="10" height="10" class="count6" style="animation-delay: 1651.6589578660255ms" /><rect x="120.5" y="29.5" width="9" height="9" class="st" style="animation-delay: 1651.6589578660255ms" />
<rect x="120" y="42" width="10" height="10" class="count6" style="animation-delay: 1664.8143435232762ms" /><rect x="120.5" y="42.5" width="9" height="9" class="st" style="animation-delay: 1664.8143435232762ms" />
<rect x="120" y="55" width="10" height="10" class="count6" style="animation-delay: 1678.23420313414ms" /><rect x="120.5" y="55.5" width="9" height="9" class="st" style="animation-delay: 1678.23420313414ms" />
<rect x="120" y="68" width="10" height="10" class="count8" style="animation-delay: 1691.9322438405682ms" /><rect x="120.5" y="68.5" width="9" height="9" class="st" style="animation-delay: 1691.9322438405682ms" />
<rect x="120" y="81" width="10" height="10" class="count7" style="animation-delay: 1705.9233460605071ms" /><rect x="120.5" y="81.5" width="9" height="9" class="st" style="animation-delay: 1705.9233460605071ms" />
<rect x="133" y="3" width="10" height="10" class="count5" style="animation-delay: 1720.2237061728013ms" /><rect x="133.5" y="3.5" width="9" height="9" class="st" style="animation-delay: 1720.2237061728013ms" />
<rect x="133" y="16" width="10" height="10" class="count5" style="animation-delay: 1734.8510020473761ms" /><rect x="133.5" y="16.5" width="9" height="9" class="st" style="animation-delay: 1734.8510020473761ms" />
<rect x="133" y="29" width="10" height="10" class="count5" style="animation-delay: 1749.8245860207114ms" /><rect x="133.5" y="29.5" width="9" height="9" class="st" style="animation-delay: 1749.8245860207114ms" />
<rect x="133" y="42" width="10" height="10" class="count5" style="animation-delay: 1765.1657110466115ms" /><rect x="133.5" y="42.5" width="9" height="9" class="st" style="animation-delay: 1765.1657110466115ms" />
<rect x="133" y="55" width="10" height="10" class="count7" style="animation-delay: 1780.8977972137836ms" /><rect x="133.5" y="55.5" width="9" height="9" class="st" style="animation-delay: 1780.8977972137836ms" />
<rect x="133" y="68" width="10" height="10" class="count3" style="animation-delay: 1797.0467477290463ms" /><rect x="133.5" y="68.5" width="9" height="9" class="st" style="animation-delay: 1797.0467477290463ms" />
<rect x="133" y="81" width="10" height="10" class="count5" style="animation-delay: 1813.6413259782476ms" /><rect x="133.5" y="81.5" width="9" height="9" class="st" style="animation-delay: 1813.6413259782476ms" />
<rect x="146" y="3" width="10" height="10" class="count6" style="animation-delay: 1830.7136086232488ms" /><rect x="146.5" y="3.5" width="9" height="9" class="st" style="animation-delay: 1830.7136086232488ms" />
<rect x="146" y="16" width="10" height="10" class="count4" style="animation-delay: 1848.2995341989329ms" /><rect x="146.5" y="16.5" width="9" height="9" class="st" style="animation-delay: 1848.2995341989329ms" />
<rect x="146" y="29" width="10" height="10" class="count3" style="animation-delay: 1866.4395728147188ms" /><rect x="146.5" y="29.5" width="9" height="9" class="st" style="animation-delay: 1866.4395728147188ms" />
<rect x="146" y="42" width="10" height="10" class="count3" style="animation-delay: 1885.179551044737ms" /><rect x="146.5" y="42.5" width="9" height="9" class="st" style="animation-delay: 1885.179551044737ms" />
<rect x="146" y="55" width="10" height="10" class="count3" style="animation-delay: 1904.5716779698423ms" /><rect x="146.5" y="55.5" width="9" height="9" class="st" style="animation-delay: 1904.5716779698423ms" />
<rect x="146" y="68" width="10" height="10" class="count3" style="animation-delay: 1924.6758352390812ms" /><rect x="146.5" y="68.5" width="9" height="9" class="st" style="animation-delay: 1924.6758352390812ms" />
<rect x="146" y="81" width="10" height="10" class="count3" style="animation-delay: 1945.561218492731ms" /><rect x="146.5" y="81.5" width="9" height="9" class="st" style="animation-delay: 1945.561218492731ms" />
<rect x="159" y="3" width="10" height="10" class="count1" style="animation-delay: 1967.308453605109ms" /><rect x="159.5" y="3.5" width="9" height="9" class="st" style="animation-delay: 1967.308453605109ms" />
<rect x="159" y="16" width="10" height="10" class="count3" style="animation-delay: 1990.012365640158ms" /><rect x="159.5" y="16.5" width="9" height="9" class="st" style="animation-delay: 1990.012365640158ms" />
<rect x="159" y="29" width="10" height="10" class="count1" style="animation-delay: 2013.7856624200424ms" /><rect x="159.5" y="29.5" width="9" height="9" class="st" style="animation-delay: 2013.7856624200424ms" />
<rect x="159" y="42" width="10" height="10" class="count0" style="animation-delay: 2038.763927745451ms" /><rect x="159.5" y="42.5" width="9" height="9" class="st" style="animation-delay: 2038.763927745451ms" />
<rect x="159" y="55" width="10" height="10" class="count1" style="animation-delay: 2065.1125367667246ms" /><rect x="159.5" y="55.5" width="9" height="9" class="st" style="animation-delay: 2065.1125367667246ms" />
<rect x="159" y="68" width="10" height="10" class="count0" style="animation-delay: 2093.036473652321ms" /><rect x="159.5" y="68.5" width="9" height="9" class="st" style="animation-delay: 2093.036473652321ms" />
<rect x="159" y="81" width="10" height="10" class="count0" style="animation-delay: 2122.7946785361405ms" /><rect x="159.5" y="81.5" width="9" height="9" class="st" style="animation-delay: 2122.7946785361405ms" />
<rect x="172" y="3" width="10" height="10" class="count0" style="animation-delay: 2154.721743112483ms" /><rect x="172.5" y="3.5" width="9" height="9" class="st" style="animation-delay: 2154.721743112483ms" />
<rect x="172" y="16" width="10" height="10" class="count2" style="animation-delay: 2189.262097594161ms" /><rect x="172.5" y="16.5" width="9" height="9" class="st" style="animation-delay: 2189.262097594161ms" />
<rect x="172" y="29" width="10" height="10" class="count0" style="animation-delay: 2227.0266728402325ms" /><rect x="172.5" y="29.5" width="9" height="9" class="st" style="animation-delay: 2227.0266728402325ms" />
<rect x="172" y="42" width="10" height="10" class="count1" style="animation-delay: 2268.8929827293896ms" /><rect x="172.5" y="42.5" width="9" height="9" class="st" style="animation-delay: 2268.8929827293896ms" />
<rect x="172" y="55" width="10" height="10" class="count1" style="animation-delay: 2316.1971701126936ms" /><rect x="172.5" y="55.5" width="9" height="9" class="st" style="animation-delay: 2316.1971701126936ms" />
<rect x="172" y="68" width="10" height="10" class="count1" style="animation-delay: 2371.146613582028ms" /><rect x="172.5" y="68.5" width="9" height="9" class="st" style="animation-delay: 2371.146613582028ms" />
<rect x="172" y="81" width="10" height="10" class="count1" style="animation-delay: 2437.865734823527ms" /><rect x="172.5" y="81.5" width="9" height="9" class="st" style="animation-delay: 2437.865734823527ms" />
<rect x="185" y="3" width="10" height="10" class="count0" style="animation-delay: 2525.8775984647664ms" /><rect x="185.5" y="3.5" width="9" height="9" class="st" style="animation-delay: 2525.8775984647664ms" />
<rect x="185" y="16" width="10" height="10" class="count3" style="animation-delay: 2671.261887473347ms" /><rect x="185.5" y="16.5" width="9" height="9" class="st" style="animation-delay: 2671.261887473347ms" />
</svg>

  