

<svg height="94" width="185" xmlns="http://www.w3.org/2000/svg" fill='#4FA1A7'>
  <style>
  rect {
  rx: 2;
  ry: 2;
  animation: wow .5s backwards;
  }
  .st {
  
  stroke: rgba(27, 31, 35, 0.06);
  stroke-width: 1;
  fill: none;
  }
  @keyframes wow {
  from {opacity: 0;}
  to{ opacity: 1;}}
  .count0 {fill: #ebedf0}
.count1 {fill: #9be9a8}
.count2 {fill: #9be9a8}
.count3 {fill: #40c463}
.count4 {fill: #40c463}
.count5 {fill: #30a14e}
.count6 {fill: #30a14e}
.count7 {fill: #216e39}
.count8 {fill: #216e39}
  </style>
<rect x="3" y="68" width="10" height="10" class="count3" style="animation-delay: 337.23323476695685ms" /><rect x="3.5" y="68.5" width="9" height="9" class="st" style="animation-delay: 337.23323476695685ms" />
<rect x="3" y="81" width="10" height="10" class="count3" style="animation-delay: 486.3744879360209ms" /><rect x="3.5" y="81.5" width="9" height="9" class="st" style="animation-delay: 486.3744879360209ms" />
<rect x="16" y="3" width="10" height="10" class="count1" style="animation-delay: 576.6607198714719ms" /><rect x="16.5" y="3.5" width="9" height="9" class="st" style="animation-delay: 576.6607198714719ms" />
<rect x="16" y="16" width="10" height="10" class="count2" style="animation-delay: 645.1039706529136ms" /><rect x="16.5" y="16.5" width="9" height="9" class="st" style="animation-delay: 645.1039706529136ms" />
<rect x="16" y="29" width="10" height="10" class="count5" style="animation-delay: 701.473396234212ms" /><rect x="16.5" y="29.5" width="9" height="9" class="st" style="animation-delay: 701.473396234212ms" />
<rect x="16" y="42" width="10" height="10" class="count1" style="animation-delay: 750ms" /><rect x="16.5" y="42.5" width="9" height="9" class="st" style="animation-delay: 750ms" />
<rect x="16" y="55" width="10" height="10" class="count3" style="animation-delay: 792.9482027598234ms" /><rect x="16.5" y="55.5" width="9" height="9" class="st" style="animation-delay: 792.9482027598234ms" />
<rect x="16" y="68" width="10" height="10" class="count2" style="animation-delay: 831.6886754477912ms" /><rect x="16.5" y="68.5" width="9" height="9" class="st" style="animation-delay: 831.6886754477912ms" />
<rect x="16" y="81" width="10" height="10" class="count2" style="animation-delay: 867.121608314403ms" /><rect x="16.5" y="81.5" width="9" height="9" class="st" style="animation-delay: 867.121608314403ms" />
<rect x="29" y="3" width="10" height="10" class="count2" style="animation-delay: 899.8737196559825ms" /><rect x="29.5" y="3.5" width="9" height="9" class="st" style="animation-delay: 899.8737196559825ms" />
<rect x="29" y="16" width="10" height="10" class="count1" style="animation-delay: 930.4009244777676ms" /><rect x="29.5" y="16.5" width="9" height="9" class="st" style="animation-delay: 930.4009244777676ms" />
<rect x="29" y="29" width="10" height="10" class="count2" style="animation-delay: 959.0464608622796ms" /><rect x="29.5" y="29.5" width="9" height="9" class="st" style="animation-delay: 959.0464608622796ms" />
<rect x="29" y="42" width="10" height="10" class="count2" style="animation-delay: 986.0759603734857ms" /><rect x="29.5" y="42.5" width="9" height="9" class="st" style="animation-delay: 986.0759603734857ms" />
<rect x="29" y="55" width="10" height="10" class="count1" style="animation-delay: 1011.6997043008706ms" /><rect x="29.5" y="55.5" width="9" height="9" class="st" style="animation-delay: 1011.6997043008706ms" />
<rect x="29" y="68" width="10" height="10" class="count3" style="animation-delay: 1036.087341354987ms" /><rect x="29.5" y="68.5" width="9" height="9" class="st" style="animation-delay: 1036.087341354987ms" />
<rect x="29" y="81" width="10" height="10" class="count2" style="animation-delay: 1059.3779590402828ms" /><rect x="29.5" y="81.5" width="9" height="9" class="st" style="animation-delay: 1059.3779590402828ms" />
<rect x="42" y="3" width="10" height="10" class="count1" style="animation-delay: 1081.6871777305562ms" /><rect x="42.5" y="3.5" width="9" height="9" class="st" style="animation-delay: 1081.6871777305562ms" />
<rect x="42" y="16" width="10" height="10" class="count1" style="animation-delay: 1103.112272922112ms" /><rect x="42.5" y="16.5" width="9" height="9" class="st" style="animation-delay: 1103.112272922112ms" />
<rect x="42" y="29" width="10" height="10" class="count2" style="animation-delay: 1123.7359539917036ms" /><rect x="42.5" y="29.5" width="9" height="9" class="st" style="animation-delay: 1123.7359539917036ms" />
<rect x="42" y="42" width="10" height="10" class="count1" style="animation-delay: 1143.629204706387ms" /><rect x="42.5" y="42.5" width="9" height="9" class="st" style="animation-delay: 1143.629204706387ms" />
<rect x="42" y="55" width="10" height="10" class="count1" style="animation-delay: 1162.8534541534575ms" /><rect x="42.5" y="55.5" width="9" height="9" class="st" style="animation-delay: 1162.8534541534575ms" />
<rect x="42" y="68" width="10" height="10" class="count1" style="animation-delay: 1181.4622605804975ms" /><rect x="42.5" y="68.5" width="9" height="9" class="st" style="animation-delay: 1181.4622605804975ms" />
<rect x="42" y="81" width="10" height="10" class="count1" style="animation-delay: 1199.5026347941143ms" /><rect x="42.5" y="81.5" width="9" height="9" class="st" style="animation-delay: 1199.5026347941143ms" />
<rect x="55" y="3" width="10" height="10" class="count1" style="animation-delay: 1217.016092716529ms" /><rect x="55.5" y="3.5" width="9" height="9" class="st" style="animation-delay: 1217.016092716529ms" />
<rect x="55" y="16" width="10" height="10" class="count1" style="animation-delay: 1234.0395015922425ms" /><rect x="55.5" y="16.5" width="9" height="9" class="st" style="animation-delay: 1234.0395015922425ms" />
<rect x="55" y="29" width="10" height="10" class="count2" style="animation-delay: 1250.6057669957165ms" /><rect x="55.5" y="29.5" width="9" height="9" class="st" style="animation-delay: 1250.6057669957165ms" />
<rect x="55" y="42" width="10" height="10" class="count3" style="animation-delay: 1266.7443956050104ms" /><rect x="55.5" y="42.5" width="9" height="9" class="st" style="animation-delay: 1266.7443956050104ms" />
<rect x="55" y="55" width="10" height="10" class="count3" style="animation-delay: 1282.4819600075227ms" /><rect x="55.5" y="55.5" width="9" height="9" class="st" style="animation-delay: 1282.4819600075227ms" />
<rect x="55" y="68" width="10" height="10" class="count1" style="animation-delay: 1297.84248550477ms" /><rect x="55.5" y="68.5" width="9" height="9" class="st" style="animation-delay: 1297.84248550477ms" />
<rect x="55" y="81" width="10" height="10" class="count2" style="animation-delay: 1312.847774261109ms" /><rect x="55.5" y="81.5" width="9" height="9" class="st" style="animation-delay: 1312.847774261109ms" />
<rect x="68" y="3" width="10" height="10" class="count0" style="animation-delay: 1327.5176787085595ms" /><rect x="68.5" y="3.5" width="9" height="9" class="st" style="animation-delay: 1327.5176787085595ms" />
<rect x="68" y="16" width="10" height="10" class="count2" style="animation-delay: 1341.8703335416758ms" /><rect x="68.5" y="16.5" width="9" height="9" class="st" style="animation-delay: 1341.8703335416758ms" />
<rect x="68" y="29" width="10" height="10" class="count2" style="animation-delay: 1355.9223536798145ms" /><rect x="68.5" y="29.5" width="9" height="9" class="st" style="animation-delay: 1355.9223536798145ms" />
<rect x="68" y="42" width="10" height="10" class="count1" style="animation-delay: 1369.6890040748858ms" /><rect x="68.5" y="42.5" width="9" height="9" class="st" style="animation-delay: 1369.6890040748858ms" />
<rect x="68" y="55" width="10" height="10" class="count2" style="animation-delay: 1383.1843460834634ms" /><rect x="68.5" y="55.5" width="9" height="9" class="st" style="animation-delay: 1383.1843460834634ms" />
<rect x="68" y="68" width="10" height="10" class="count2" style="animation-delay: 1396.421364218299ms" /><rect x="68.5" y="68.5" width="9" height="9" class="st" style="animation-delay: 1396.421364218299ms" />
<rect x="68" y="81" width="10" height="10" class="count1" style="animation-delay: 1409.412076383977ms" /><rect x="68.5" y="81.5" width="9" height="9" class="st" style="animation-delay: 1409.412076383977ms" />
<rect x="81" y="3" width="10" height="10" class="count1" style="animation-delay: 1422.1676301391249ms" /><rect x="81.5" y="3.5" width="9" height="9" class="st" style="animation-delay: 1422.1676301391249ms" />
<rect x="81" y="16" width="10" height="10" class="count3" style="animation-delay: 1434.698387079292ms" /><rect x="81.5" y="16.5" width="9" height="9" class="st" style="animation-delay: 1434.698387079292ms" />
<rect x="81" y="29" width="10" height="10" class="count5" style="animation-delay: 1447.0139970748785ms" /><rect x="81.5" y="29.5" width="9" height="9" class="st" style="animation-delay: 1447.0139970748785ms" />
<rect x="81" y="42" width="10" height="10" class="count2" style="animation-delay: 1459.1234638080628ms" /><rect x="81.5" y="42.5" width="9" height="9" class="st" style="animation-delay: 1459.1234638080628ms" />
<rect x="81" y="55" width="10" height="10" class="count4" style="animation-delay: 1471.0352028167865ms" /><rect x="81.5" y="55.5" width="9" height="9" class="st" style="animation-delay: 1471.0352028167865ms" />
<rect x="81" y="68" width="10" height="10" class="count5" style="animation-delay: 1482.7570930612412ms" /><rect x="81.5" y="68.5" width="9" height="9" class="st" style="animation-delay: 1482.7570930612412ms" />
<rect x="81" y="81" width="10" height="10" class="count5" style="animation-delay: 1494.2965228701753ms" /><rect x="81.5" y="81.5" width="9" height="9" class="st" style="animation-delay: 1494.2965228701753ms" />
<rect x="94" y="3" width="10" height="10" class="count5" style="animation-delay: 1505.7034771298247ms" /><rect x="94.5" y="3.5" width="9" height="9" class="st" style="animation-delay: 1505.7034771298247ms" />
<rect x="94" y="16" width="10" height="10" class="count3" style="animation-delay: 1517.2429069387588ms" /><rect x="94.5" y="16.5" width="9" height="9" class="st" style="animation-delay: 1517.2429069387588ms" />
<rect x="94" y="29" width="10" height="10" class="count5" style="animation-delay: 1528.9647971832135ms" /><rect x="94.5" y="29.5" width="9" height="9" class="st" style="animation-delay: 1528.9647971832135ms" />
<rect x="94" y="42" width="10" height="10" class="count6" style="animation-delay: 1540.876536191937ms" /><rect x="94.5" y="42.5" width="9" height="9" class="st" style="animation-delay: 1540.876536191937ms" />
<rect x="94" y="55" width="10" height="10" class="count2" style="animation-delay: 1552.9860029251217ms" /><rect x="94.5" y="55.5" width="9" height="9" class="st" style="animation-delay: 1552.9860029251217ms" />
<rect x="94" y="68" width="10" height="10" class="count2" style="animation-delay: 1565.301612920708ms" /><rect x="94.5" y="68.5" width="9" height="9" class="st" style="animation-delay: 1565.301612920708ms" />
<rect x="94" y="81" width="10" height="10" class="count1" style="animation-delay: 1577.8323698608751ms" /><rect x="94.5" y="81.5" width="9" height="9" class="st" style="animation-delay: 1577.8323698608751ms" />
<rect x="107" y="3" width="10" height="10" class="count4" style="animation-delay: 1590.587923616023ms" /><rect x="107.5" y="3.5" width="9" height="9" class="st" style="animation-delay: 1590.587923616023ms" />
<rect x="107" y="16" width="10" height="10" class="count1" style="animation-delay: 1603.5786357817008ms" /><rect x="107.5" y="16.5" width="9" height="9" class="st" style="animation-delay: 1603.5786357817008ms" />
<rect x="107" y="29" width="10" height="10" class="count0" style="animation-delay: 1616.8156539165366ms" /><rect x="107.5" y="29.5" width="9" height="9" class="st" style="animation-delay: 1616.8156539165366ms" />
<rect x="107" y="42" width="10" height="10" class="count1" style="animation-delay: 1630.3109959251142ms" /><rect x="107.5" y="42.5" width="9" height="9" class="st" style="animation-delay: 1630.3109959251142ms" />
<rect x="107" y="55" width="10" height="10" class="count4" style="animation-delay: 1644.0776463201855ms" /><rect x="107.5" y="55.5" width="9" height="9" class="st" style="animation-delay: 1644.0776463201855ms" />
<rect x="107" y="68" width="10" height="10" class="count4" style="animation-delay: 1658.1296664583242ms" /><rect x="107.5" y="68.5" width="9" height="9" class="st" style="animation-delay: 1658.1296664583242ms" />
<rect x="107" y="81" width="10" height="10" class="count5" style="animation-delay: 1672.4823212914405ms" /><rect x="107.5" y="81.5" width="9" height="9" class="st" style="animation-delay: 1672.4823212914405ms" />
<rect x="120" y="3" width="10" height="10" class="count3" style="animation-delay: 1687.1522257388908ms" /><rect x="120.5" y="3.5" width="9" height="9" class="st" style="animation-delay: 1687.1522257388908ms" />
<rect x="120" y="16" width="10" height="10" class="count4" style="animation-delay: 1702.15751449523ms" /><rect x="120.5" y="16.5" width="9" height="9" class="st" style="animation-delay: 1702.15751449523ms" />
<rect x="120" y="29" width="10" height="10" class="count6" style="animation-delay: 1717.5180399924773ms" /><rect x="120.5" y="29.5" width="9" height="9" class="st" style="animation-delay: 1717.5180399924773ms" />
<rect x="120" y="42" width="10" height="10" class="count6" style="animation-delay: 1733.2556043949894ms" /><rect x="120.5" y="42.5" width="9" height="9" class="st" style="animation-delay: 1733.2556043949894ms" />
<rect x="120" y="55" width="10" height="10" class="count6" style="animation-delay: 1749.3942330042835ms" /><rect x="120.5" y="55.5" width="9" height="9" class="st" style="animation-delay: 1749.3942330042835ms" />
<rect x="120" y="68" width="10" height="10" class="count8" style="animation-delay: 1765.9604984077575ms" /><rect x="120.5" y="68.5" width="9" height="9" class="st" style="animation-delay: 1765.9604984077575ms" />
<rect x="120" y="81" width="10" height="10" class="count7" style="animation-delay: 1782.9839072834707ms" /><rect x="120.5" y="81.5" width="9" height="9" class="st" style="animation-delay: 1782.9839072834707ms" />
<rect x="133" y="3" width="10" height="10" class="count5" style="animation-delay: 1800.4973652058852ms" /><rect x="133.5" y="3.5" width="9" height="9" class="st" style="animation-delay: 1800.4973652058852ms" />
<rect x="133" y="16" width="10" height="10" class="count5" style="animation-delay: 1818.5377394195023ms" /><rect x="133.5" y="16.5" width="9" height="9" class="st" style="animation-delay: 1818.5377394195023ms" />
<rect x="133" y="29" width="10" height="10" class="count5" style="animation-delay: 1837.1465458465425ms" /><rect x="133.5" y="29.5" width="9" height="9" class="st" style="animation-delay: 1837.1465458465425ms" />
<rect x="133" y="42" width="10" height="10" class="count5" style="animation-delay: 1856.370795293613ms" /><rect x="133.5" y="42.5" width="9" height="9" class="st" style="animation-delay: 1856.370795293613ms" />
<rect x="133" y="55" width="10" height="10" class="count7" style="animation-delay: 1876.2640460082966ms" /><rect x="133.5" y="55.5" width="9" height="9" class="st" style="animation-delay: 1876.2640460082966ms" />
<rect x="133" y="68" width="10" height="10" class="count3" style="animation-delay: 1896.887727077888ms" /><rect x="133.5" y="68.5" width="9" height="9" class="st" style="animation-delay: 1896.887727077888ms" />
<rect x="133" y="81" width="10" height="10" class="count5" style="animation-delay: 1918.3128222694438ms" /><rect x="133.5" y="81.5" width="9" height="9" class="st" style="animation-delay: 1918.3128222694438ms" />
<rect x="146" y="3" width="10" height="10" class="count6" style="animation-delay: 1940.6220409597172ms" /><rect x="146.5" y="3.5" width="9" height="9" class="st" style="animation-delay: 1940.6220409597172ms" />
<rect x="146" y="16" width="10" height="10" class="count4" style="animation-delay: 1963.9126586450132ms" /><rect x="146.5" y="16.5" width="9" height="9" class="st" style="animation-delay: 1963.9126586450132ms" />
<rect x="146" y="29" width="10" height="10" class="count3" style="animation-delay: 1988.3002956991293ms" /><rect x="146.5" y="29.5" width="9" height="9" class="st" style="animation-delay: 1988.3002956991293ms" />
<rect x="146" y="42" width="10" height="10" class="count3" style="animation-delay: 2013.924039626514ms" /><rect x="146.5" y="42.5" width="9" height="9" class="st" style="animation-delay: 2013.924039626514ms" />
<rect x="146" y="55" width="10" height="10" class="count3" style="animation-delay: 2040.9535391377203ms" /><rect x="146.5" y="55.5" width="9" height="9" class="st" style="animation-delay: 2040.9535391377203ms" />
<rect x="146" y="68" width="10" height="10" class="count3" style="animation-delay: 2069.5990755222324ms" /><rect x="146.5" y="68.5" width="9" height="9" class="st" style="animation-delay: 2069.5990755222324ms" />
<rect x="146" y="81" width="10" height="10" class="count3" style="animation-delay: 2100.1262803440177ms" /><rect x="146.5" y="81.5" width="9" height="9" class="st" style="animation-delay: 2100.1262803440177ms" />
<rect x="159" y="3" width="10" height="10" class="count1" style="animation-delay: 2132.8783916855973ms" /><rect x="159.5" y="3.5" width="9" height="9" class="st" style="animation-delay: 2132.8783916855973ms" />
<rect x="159" y="16" width="10" height="10" class="count3" style="animation-delay: 2168.311324552209ms" /><rect x="159.5" y="16.5" width="9" height="9" class="st" style="animation-delay: 2168.311324552209ms" />
<rect x="159" y="29" width="10" height="10" class="count1" style="animation-delay: 2207.0517972401763ms" /><rect x="159.5" y="29.5" width="9" height="9" class="st" style="animation-delay: 2207.0517972401763ms" />
<rect x="159" y="42" width="10" height="10" class="count0" style="animation-delay: 2250ms" /><rect x="159.5" y="42.5" width="9" height="9" class="st" style="animation-delay: 2250ms" />
<rect x="159" y="55" width="10" height="10" class="count1" style="animation-delay: 2298.526603765788ms" /><rect x="159.5" y="55.5" width="9" height="9" class="st" style="animation-delay: 2298.526603765788ms" />
<rect x="159" y="68" width="10" height="10" class="count0" style="animation-delay: 2354.8960293470864ms" /><rect x="159.5" y="68.5" width="9" height="9" class="st" style="animation-delay: 2354.8960293470864ms" />
<rect x="159" y="81" width="10" height="10" class="count0" style="animation-delay: 2423.339280128528ms" /><rect x="159.5" y="81.5" width="9" height="9" class="st" style="animation-delay: 2423.339280128528ms" />
<rect x="172" y="3" width="10" height="10" class="count0" style="animation-delay: 2513.6255120639785ms" /><rect x="172.5" y="3.5" width="9" height="9" class="st" style="animation-delay: 2513.6255120639785ms" />
<rect x="172" y="16" width="10" height="10" class="count2" style="animation-delay: 2662.766765233042ms" /><rect x="172.5" y="16.5" width="9" height="9" class="st" style="animation-delay: 2662.766765233042ms" />
</svg>

  