

<svg height="94" width="159" xmlns="http://www.w3.org/2000/svg" fill='#4FA1A7'>
  <style>
  rect {
  rx: 2;
  ry: 2;
  animation: wow .5s backwards;
  }
  .st {
  
  stroke: rgba(27, 31, 35, 0.06);
  stroke-width: 1;
  fill: none;
  }
  @keyframes wow {
  from {opacity: 0;}
  to{ opacity: 1;}}
  .count0 {fill: #ebedf0}
.count1 {fill: #9be9a8}
.count2 {fill: #9be9a8}
.count3 {fill: #40c463}
.count4 {fill: #40c463}
.count5 {fill: #30a14e}
.count6 {fill: #30a14e}
.count7 {fill: #216e39}
.count8 {fill: #216e39}
  </style>
<rect x="3" y="29" width="10" height="10" class="count3" style="animation-delay: 346.6806371753173ms" /><rect x="3.5" y="29.5" width="9" height="9" class="st" style="animation-delay: 346.6806371753173ms" />
<rect x="3" y="42" width="10" height="10" class="count3" style="animation-delay: 500ms" /><rect x="3.5" y="42.5" width="9" height="9" class="st" style="animation-delay: 500ms" />
<rect x="3" y="55" width="10" height="10" class="count1" style="animation-delay: 592.8155507483438ms" /><rect x="3.5" y="55.5" width="9" height="9" class="st" style="animation-delay: 592.8155507483438ms" />
<rect x="3" y="68" width="10" height="10" class="count2" style="animation-delay: 663.1762013160653ms" /><rect x="3.5" y="68.5" width="9" height="9" class="st" style="animation-delay: 663.1762013160653ms" />
<rect x="3" y="81" width="10" height="10" class="count5" style="animation-delay: 721.1247851537041ms" /><rect x="3.5" y="81.5" width="9" height="9" class="st" style="animation-delay: 721.1247851537041ms" />
<rect x="16" y="3" width="10" height="10" class="count1" style="animation-delay: 771.0108348637904ms" /><rect x="16.5" y="3.5" width="9" height="9" class="st" style="animation-delay: 771.0108348637904ms" />
<rect x="16" y="16" width="10" height="10" class="count3" style="animation-delay: 815.162207751458ms" /><rect x="16.5" y="16.5" width="9" height="9" class="st" style="animation-delay: 815.162207751458ms" />
<rect x="16" y="29" width="10" height="10" class="count2" style="animation-delay: 854.9879733383485ms" /><rect x="16.5" y="29.5" width="9" height="9" class="st" style="animation-delay: 854.9879733383485ms" />
<rect x="16" y="42" width="10" height="10" class="count2" style="animation-delay: 891.4135402065606ms" /><rect x="16.5" y="42.5" width="9" height="9" class="st" style="animation-delay: 891.4135402065606ms" />
<rect x="16" y="55" width="10" height="10" class="count2" style="animation-delay: 925.0831838185911ms" /><rect x="16.5" y="55.5" width="9" height="9" class="st" style="animation-delay: 925.0831838185911ms" />
<rect x="16" y="68" width="10" height="10" class="count1" style="animation-delay: 956.4655913861945ms" /><rect x="16.5" y="68.5" width="9" height="9" class="st" style="animation-delay: 956.4655913861945ms" />
<rect x="16" y="81" width="10" height="10" class="count2" style="animation-delay: 985.9136166167862ms" /><rect x="16.5" y="81.5" width="9" height="9" class="st" style="animation-delay: 985.9136166167862ms" />
<rect x="29" y="3" width="10" height="10" class="count2" style="animation-delay: 1013.7003325955667ms" /><rect x="29.5" y="3.5" width="9" height="9" class="st" style="animation-delay: 1013.7003325955667ms" />
<rect x="29" y="16" width="10" height="10" class="count1" style="animation-delay: 1040.041911525952ms" /><rect x="29.5" y="16.5" width="9" height="9" class="st" style="animation-delay: 1040.041911525952ms" />
<rect x="29" y="29" width="10" height="10" class="count3" style="animation-delay: 1065.1127547332178ms" /><rect x="29.5" y="29.5" width="9" height="9" class="st" style="animation-delay: 1065.1127547332178ms" />
<rect x="29" y="42" width="10" height="10" class="count2" style="animation-delay: 1089.0558461812623ms" /><rect x="29.5" y="42.5" width="9" height="9" class="st" style="animation-delay: 1089.0558461812623ms" />
<rect x="29" y="55" width="10" height="10" class="count1" style="animation-delay: 1111.9900452846578ms" /><rect x="29.5" y="55.5" width="9" height="9" class="st" style="animation-delay: 1111.9900452846578ms" />
<rect x="29" y="68" width="10" height="10" class="count1" style="animation-delay: 1134.0153526588945ms" /><rect x="29.5" y="68.5" width="9" height="9" class="st" style="animation-delay: 1134.0153526588945ms" />
<rect x="29" y="81" width="10" height="10" class="count2" style="animation-delay: 1155.216794738135ms" /><rect x="29.5" y="81.5" width="9" height="9" class="st" style="animation-delay: 1155.216794738135ms" />
<rect x="42" y="3" width="10" height="10" class="count1" style="animation-delay: 1175.6673438603787ms" /><rect x="42.5" y="3.5" width="9" height="9" class="st" style="animation-delay: 1175.6673438603787ms" />
<rect x="42" y="16" width="10" height="10" class="count1" style="animation-delay: 1195.4301500147994ms" /><rect x="42.5" y="16.5" width="9" height="9" class="st" style="animation-delay: 1195.4301500147994ms" />
<rect x="42" y="29" width="10" height="10" class="count1" style="animation-delay: 1214.5602718536404ms" /><rect x="42.5" y="29.5" width="9" height="9" class="st" style="animation-delay: 1214.5602718536404ms" />
<rect x="42" y="42" width="10" height="10" class="count1" style="animation-delay: 1233.106037165235ms" /><rect x="42.5" y="42.5" width="9" height="9" class="st" style="animation-delay: 1233.106037165235ms" />
<rect x="42" y="55" width="10" height="10" class="count1" style="animation-delay: 1251.1101249173855ms" /><rect x="42.5" y="55.5" width="9" height="9" class="st" style="animation-delay: 1251.1101249173855ms" />
<rect x="42" y="68" width="10" height="10" class="count1" style="animation-delay: 1268.610435170041ms" /><rect x="42.5" y="68.5" width="9" height="9" class="st" style="animation-delay: 1268.610435170041ms" />
<rect x="42" y="81" width="10" height="10" class="count2" style="animation-delay: 1285.6407953291177ms" /><rect x="42.5" y="81.5" width="9" height="9" class="st" style="animation-delay: 1285.6407953291177ms" />
<rect x="55" y="3" width="10" height="10" class="count3" style="animation-delay: 1302.2315386859289ms" /><rect x="55.5" y="3.5" width="9" height="9" class="st" style="animation-delay: 1302.2315386859289ms" />
<rect x="55" y="16" width="10" height="10" class="count3" style="animation-delay: 1318.4099822442004ms" /><rect x="55.5" y="16.5" width="9" height="9" class="st" style="animation-delay: 1318.4099822442004ms" />
<rect x="55" y="29" width="10" height="10" class="count1" style="animation-delay: 1334.2008243609723ms" /><rect x="55.5" y="29.5" width="9" height="9" class="st" style="animation-delay: 1334.2008243609723ms" />
<rect x="55" y="42" width="10" height="10" class="count2" style="animation-delay: 1349.6264779761686ms" /><rect x="55.5" y="42.5" width="9" height="9" class="st" style="animation-delay: 1349.6264779761686ms" />
<rect x="55" y="55" width="10" height="10" class="count0" style="animation-delay: 1364.7073516767034ms" /><rect x="55.5" y="55.5" width="9" height="9" class="st" style="animation-delay: 1364.7073516767034ms" />
<rect x="55" y="68" width="10" height="10" class="count2" style="animation-delay: 1379.4620881905603ms" /><rect x="55.5" y="68.5" width="9" height="9" class="st" style="animation-delay: 1379.4620881905603ms" />
<rect x="55" y="81" width="10" height="10" class="count2" style="animation-delay: 1393.9077678948659ms" /><rect x="55.5" y="81.5" width="9" height="9" class="st" style="animation-delay: 1393.9077678948659ms" />
<rect x="68" y="3" width="10" height="10" class="count1" style="animation-delay: 1408.0600833807082ms" /><rect x="68.5" y="3.5" width="9" height="9" class="st" style="animation-delay: 1408.0600833807082ms" />
<rect x="68" y="16" width="10" height="10" class="count2" style="animation-delay: 1421.9334899257829ms" /><rect x="68.5" y="16.5" width="9" height="9" class="st" style="animation-delay: 1421.9334899257829ms" />
<rect x="68" y="29" width="10" height="10" class="count2" style="animation-delay: 1435.5413357967784ms" /><rect x="68.5" y="29.5" width="9" height="9" class="st" style="animation-delay: 1435.5413357967784ms" />
<rect x="68" y="42" width="10" height="10" class="count1" style="animation-delay: 1448.8959755732244ms" /><rect x="68.5" y="42.5" width="9" height="9" class="st" style="animation-delay: 1448.8959755732244ms" />
<rect x="68" y="55" width="10" height="10" class="count1" style="animation-delay: 1462.008869106433ms" /><rect x="68.5" y="55.5" width="9" height="9" class="st" style="animation-delay: 1462.008869106433ms" />
<rect x="68" y="68" width="10" height="10" class="count3" style="animation-delay: 1474.8906682663176ms" /><rect x="68.5" y="68.5" width="9" height="9" class="st" style="animation-delay: 1474.8906682663176ms" />
<rect x="68" y="81" width="10" height="10" class="count5" style="animation-delay: 1487.5512932590561ms" /><rect x="68.5" y="81.5" width="9" height="9" class="st" style="animation-delay: 1487.5512932590561ms" />
<rect x="81" y="3" width="10" height="10" class="count2" style="animation-delay: 1500ms" /><rect x="81.5" y="3.5" width="9" height="9" class="st" style="animation-delay: 1500ms" />
<rect x="81" y="16" width="10" height="10" class="count4" style="animation-delay: 1512.4487067409439ms" /><rect x="81.5" y="16.5" width="9" height="9" class="st" style="animation-delay: 1512.4487067409439ms" />
<rect x="81" y="29" width="10" height="10" class="count5" style="animation-delay: 1525.1093317336824ms" /><rect x="81.5" y="29.5" width="9" height="9" class="st" style="animation-delay: 1525.1093317336824ms" />
<rect x="81" y="42" width="10" height="10" class="count5" style="animation-delay: 1537.9911308935673ms" /><rect x="81.5" y="42.5" width="9" height="9" class="st" style="animation-delay: 1537.9911308935673ms" />
<rect x="81" y="55" width="10" height="10" class="count5" style="animation-delay: 1551.1040244267756ms" /><rect x="81.5" y="55.5" width="9" height="9" class="st" style="animation-delay: 1551.1040244267756ms" />
<rect x="81" y="68" width="10" height="10" class="count3" style="animation-delay: 1564.4586642032214ms" /><rect x="81.5" y="68.5" width="9" height="9" class="st" style="animation-delay: 1564.4586642032214ms" />
<rect x="81" y="81" width="10" height="10" class="count5" style="animation-delay: 1578.0665100742171ms" /><rect x="81.5" y="81.5" width="9" height="9" class="st" style="animation-delay: 1578.0665100742171ms" />
<rect x="94" y="3" width="10" height="10" class="count6" style="animation-delay: 1591.9399166192918ms" /><rect x="94.5" y="3.5" width="9" height="9" class="st" style="animation-delay: 1591.9399166192918ms" />
<rect x="94" y="16" width="10" height="10" class="count2" style="animation-delay: 1606.0922321051344ms" /><rect x="94.5" y="16.5" width="9" height="9" class="st" style="animation-delay: 1606.0922321051344ms" />
<rect x="94" y="29" width="10" height="10" class="count2" style="animation-delay: 1620.53791180944ms" /><rect x="94.5" y="29.5" width="9" height="9" class="st" style="animation-delay: 1620.53791180944ms" />
<rect x="94" y="42" width="10" height="10" class="count1" style="animation-delay: 1635.2926483232966ms" /><rect x="94.5" y="42.5" width="9" height="9" class="st" style="animation-delay: 1635.2926483232966ms" />
<rect x="94" y="55" width="10" height="10" class="count4" style="animation-delay: 1650.3735220238311ms" /><rect x="94.5" y="55.5" width="9" height="9" class="st" style="animation-delay: 1650.3735220238311ms" />
<rect x="94" y="68" width="10" height="10" class="count1" style="animation-delay: 1665.7991756390277ms" /><rect x="94.5" y="68.5" width="9" height="9" class="st" style="animation-delay: 1665.7991756390277ms" />
<rect x="94" y="81" width="10" height="10" class="count0" style="animation-delay: 1681.5900177557996ms" /><rect x="94.5" y="81.5" width="9" height="9" class="st" style="animation-delay: 1681.5900177557996ms" />
<rect x="107" y="3" width="10" height="10" class="count1" style="animation-delay: 1697.7684613140714ms" /><rect x="107.5" y="3.5" width="9" height="9" class="st" style="animation-delay: 1697.7684613140714ms" />
<rect x="107" y="16" width="10" height="10" class="count4" style="animation-delay: 1714.3592046708823ms" /><rect x="107.5" y="16.5" width="9" height="9" class="st" style="animation-delay: 1714.3592046708823ms" />
<rect x="107" y="29" width="10" height="10" class="count4" style="animation-delay: 1731.389564829959ms" /><rect x="107.5" y="29.5" width="9" height="9" class="st" style="animation-delay: 1731.389564829959ms" />
<rect x="107" y="42" width="10" height="10" class="count5" style="animation-delay: 1748.8898750826147ms" /><rect x="107.5" y="42.5" width="9" height="9" class="st" style="animation-delay: 1748.8898750826147ms" />
<rect x="107" y="55" width="10" height="10" class="count3" style="animation-delay: 1766.8939628347648ms" /><rect x="107.5" y="55.5" width="9" height="9" class="st" style="animation-delay: 1766.8939628347648ms" />
<rect x="107" y="68" width="10" height="10" class="count4" style="animation-delay: 1785.4397281463596ms" /><rect x="107.5" y="68.5" width="9" height="9" class="st" style="animation-delay: 1785.4397281463596ms" />
<rect x="107" y="81" width="10" height="10" class="count6" style="animation-delay: 1804.5698499852006ms" /><rect x="107.5" y="81.5" width="9" height="9" class="st" style="animation-delay: 1804.5698499852006ms" />
<rect x="120" y="3" width="10" height="10" class="count6" style="animation-delay: 1824.3326561396213ms" /><rect x="120.5" y="3.5" width="9" height="9" class="st" style="animation-delay: 1824.3326561396213ms" />
<rect x="120" y="16" width="10" height="10" class="count6" style="animation-delay: 1844.783205261865ms" /><rect x="120.5" y="16.5" width="9" height="9" class="st" style="animation-delay: 1844.783205261865ms" />
<rect x="120" y="29" width="10" height="10" class="count8" style="animation-delay: 1865.9846473411055ms" /><rect x="120.5" y="29.5" width="9" height="9" class="st" style="animation-delay: 1865.9846473411055ms" />
<rect x="120" y="42" width="10" height="10" class="count7" style="animation-delay: 1888.0099547153422ms" /><rect x="120.5" y="42.5" width="9" height="9" class="st" style="animation-delay: 1888.0099547153422ms" />
<rect x="120" y="55" width="10" height="10" class="count5" style="animation-delay: 1910.944153818738ms" /><rect x="120.5" y="55.5" width="9" height="9" class="st" style="animation-delay: 1910.944153818738ms" />
<rect x="120" y="68" width="10" height="10" class="count5" style="animation-delay: 1934.8872452667817ms" /><rect x="120.5" y="68.5" width="9" height="9" class="st" style="animation-delay: 1934.8872452667817ms" />
<rect x="120" y="81" width="10" height="10" class="count5" style="animation-delay: 1959.9580884740483ms" /><rect x="120.5" y="81.5" width="9" height="9" class="st" style="animation-delay: 1959.9580884740483ms" />
<rect x="133" y="3" width="10" height="10" class="count5" style="animation-delay: 1986.2996674044334ms" /><rect x="133.5" y="3.5" width="9" height="9" class="st" style="animation-delay: 1986.2996674044334ms" />
<rect x="133" y="16" width="10" height="10" class="count7" style="animation-delay: 2014.0863833832138ms" /><rect x="133.5" y="16.5" width="9" height="9" class="st" style="animation-delay: 2014.0863833832138ms" />
<rect x="133" y="29" width="10" height="10" class="count3" style="animation-delay: 2043.5344086138052ms" /><rect x="133.5" y="29.5" width="9" height="9" class="st" style="animation-delay: 2043.5344086138052ms" />
<rect x="133" y="42" width="10" height="10" class="count5" style="animation-delay: 2074.9168161814086ms" /><rect x="133.5" y="42.5" width="9" height="9" class="st" style="animation-delay: 2074.9168161814086ms" />
<rect x="133" y="55" width="10" height="10" class="count6" style="animation-delay: 2108.5864597934396ms" /><rect x="133.5" y="55.5" width="9" height="9" class="st" style="animation-delay: 2108.5864597934396ms" />
<rect x="133" y="68" width="10" height="10" class="count4" style="animation-delay: 2145.0120266616514ms" /><rect x="133.5" y="68.5" width="9" height="9" class="st" style="animation-delay: 2145.0120266616514ms" />
<rect x="133" y="81" width="10" height="10" class="count3" style="animation-delay: 2184.837792248542ms" /><rect x="133.5" y="81.5" width="9" height="9" class="st" style="animation-delay: 2184.837792248542ms" />
<rect x="146" y="3" width="10" height="10" class="count3" style="animation-delay: 2228.98916513621ms" /><rect x="146.5" y="3.5" width="9" height="9" class="st" style="animation-delay: 2228.98916513621ms" />
<rect x="146" y="16" width="10" height="10" class="count3" style="animation-delay: 2278.875214846296ms" /><rect x="146.5" y="16.5" width="9" height="9" class="st" style="animation-delay: 2278.875214846296ms" />
<rect x="146" y="29" width="10" height="10" class="count3" style="animation-delay: 2336.8237986839345ms" /><rect x="146.5" y="29.5" width="9" height="9" class="st" style="animation-delay: 2336.8237986839345ms" />
<rect x="146" y="42" width="10" height="10" class="count3" style="animation-delay: 2407.184449251656ms" /><rect x="146.5" y="42.5" width="9" height="9" class="st" style="animation-delay: 2407.184449251656ms" />
<rect x="146" y="55" width="10" height="10" class="count1" style="animation-delay: 2500.0000000000005ms" /><rect x="146.5" y="55.5" width="9" height="9" class="st" style="animation-delay: 2500.0000000000005ms" />
<rect x="146" y="68" width="10" height="10" class="count1" style="animation-delay: 2653.3193628246822ms" /><rect x="146.5" y="68.5" width="9" height="9" class="st" style="animation-delay: 2653.3193628246822ms" />
</svg>

  