

<svg height="94" width="289" xmlns="http://www.w3.org/2000/svg" fill='#4FA1A7'>
  <style>
  rect {
  rx: 2;
  ry: 2;
  animation: wow .5s backwards;
  }
  .st {
  
  stroke: rgba(27, 31, 35, 0.06);
  stroke-width: 1;
  fill: none;
  }
  @keyframes wow {
  from {opacity: 0;}
  to{ opacity: 1;}}
  .count0 {fill: #ebedf0}
.count1 {fill: #9be9a8}
.count2 {fill: #9be9a8}
.count3 {fill: #40c463}
.count4 {fill: #40c463}
.count5 {fill: #30a14e}
.count6 {fill: #30a14e}
.count7 {fill: #216e39}
.count8 {fill: #216e39}
  </style>
<rect x="3" y="68" width="10" height="10" class="count3" style="animation-delay: 286.17856063833295ms" /><rect x="3.5" y="68.5" width="9" height="9" class="st" style="animation-delay: 286.17856063833295ms" />
<rect x="3" y="81" width="10" height="10" class="count3" style="animation-delay: 412.74090611182834ms" /><rect x="3.5" y="81.5" width="9" height="9" class="st" style="animation-delay: 412.74090611182834ms" />
<rect x="16" y="3" width="10" height="10" class="count1" style="animation-delay: 489.358455146108ms" /><rect x="16.5" y="3.5" width="9" height="9" class="st" style="animation-delay: 489.358455146108ms" />
<rect x="16" y="16" width="10" height="10" class="count2" style="animation-delay: 547.4398924859862ms" /><rect x="16.5" y="16.5" width="9" height="9" class="st" style="animation-delay: 547.4398924859862ms" />
<rect x="16" y="29" width="10" height="10" class="count5" style="animation-delay: 595.2753944880749ms" /><rect x="16.5" y="29.5" width="9" height="9" class="st" style="animation-delay: 595.2753944880749ms" />
<rect x="16" y="42" width="10" height="10" class="count1" style="animation-delay: 636.4554212074362ms" /><rect x="16.5" y="42.5" width="9" height="9" class="st" style="animation-delay: 636.4554212074362ms" />
<rect x="16" y="55" width="10" height="10" class="count3" style="animation-delay: 672.9015765109104ms" /><rect x="16.5" y="55.5" width="9" height="9" class="st" style="animation-delay: 672.9015765109104ms" />
<rect x="16" y="68" width="10" height="10" class="count2" style="animation-delay: 705.7770216607714ms" /><rect x="16.5" y="68.5" width="9" height="9" class="st" style="animation-delay: 705.7770216607714ms" />
<rect x="16" y="81" width="10" height="10" class="count2" style="animation-delay: 735.8456646104171ms" /><rect x="16.5" y="81.5" width="9" height="9" class="st" style="animation-delay: 735.8456646104171ms" />
<rect x="29" y="3" width="10" height="10" class="count2" style="animation-delay: 763.6393430362008ms" /><rect x="29.5" y="3.5" width="9" height="9" class="st" style="animation-delay: 763.6393430362008ms" />
<rect x="29" y="16" width="10" height="10" class="count1" style="animation-delay: 789.5449497070473ms" /><rect x="29.5" y="16.5" width="9" height="9" class="st" style="animation-delay: 789.5449497070473ms" />
<rect x="29" y="29" width="10" height="10" class="count2" style="animation-delay: 813.853758940804ms" /><rect x="29.5" y="29.5" width="9" height="9" class="st" style="animation-delay: 813.853758940804ms" />
<rect x="29" y="42" width="10" height="10" class="count2" style="animation-delay: 836.7911876027118ms" /><rect x="29.5" y="42.5" width="9" height="9" class="st" style="animation-delay: 836.7911876027118ms" />
<rect x="29" y="55" width="10" height="10" class="count1" style="animation-delay: 858.5356819149989ms" /><rect x="29.5" y="55.5" width="9" height="9" class="st" style="animation-delay: 858.5356819149989ms" />
<rect x="29" y="68" width="10" height="10" class="count3" style="animation-delay: 879.231206999708ms" /><rect x="29.5" y="68.5" width="9" height="9" class="st" style="animation-delay: 879.231206999708ms" />
<rect x="29" y="81" width="10" height="10" class="count2" style="animation-delay: 898.9957935184763ms" /><rect x="29.5" y="81.5" width="9" height="9" class="st" style="animation-delay: 898.9957935184763ms" />
<rect x="42" y="3" width="10" height="10" class="count1" style="animation-delay: 917.9275577562453ms" /><rect x="42.5" y="3.5" width="9" height="9" class="st" style="animation-delay: 917.9275577562453ms" />
<rect x="42" y="16" width="10" height="10" class="count1" style="animation-delay: 936.1090484023134ms" /><rect x="42.5" y="16.5" width="9" height="9" class="st" style="animation-delay: 936.1090484023134ms" />
<rect x="42" y="29" width="10" height="10" class="count2" style="animation-delay: 953.6104532316396ms" /><rect x="42.5" y="29.5" width="9" height="9" class="st" style="animation-delay: 953.6104532316396ms" />
<rect x="42" y="42" width="10" height="10" class="count1" style="animation-delay: 970.4920095820385ms" /><rect x="42.5" y="42.5" width="9" height="9" class="st" style="animation-delay: 970.4920095820385ms" />
<rect x="42" y="55" width="10" height="10" class="count1" style="animation-delay: 986.8058466210144ms" /><rect x="42.5" y="55.5" width="9" height="9" class="st" style="animation-delay: 986.8058466210144ms" />
<rect x="42" y="68" width="10" height="10" class="count1" style="animation-delay: 1002.5974142646002ms" /><rect x="42.5" y="68.5" width="9" height="9" class="st" style="animation-delay: 1002.5974142646002ms" />
<rect x="42" y="81" width="10" height="10" class="count1" style="animation-delay: 1017.9066062230899ms" /><rect x="42.5" y="81.5" width="9" height="9" class="st" style="animation-delay: 1017.9066062230899ms" />
<rect x="55" y="3" width="10" height="10" class="count1" style="animation-delay: 1032.7686532081689ms" /><rect x="55.5" y="3.5" width="9" height="9" class="st" style="animation-delay: 1032.7686532081689ms" />
<rect x="55" y="16" width="10" height="10" class="count1" style="animation-delay: 1047.214841030007ms" /><rect x="55.5" y="16.5" width="9" height="9" class="st" style="animation-delay: 1047.214841030007ms" />
<rect x="55" y="29" width="10" height="10" class="count2" style="animation-delay: 1061.2730935969435ms" /><rect x="55.5" y="29.5" width="9" height="9" class="st" style="animation-delay: 1061.2730935969435ms" />
<rect x="55" y="42" width="10" height="10" class="count3" style="animation-delay: 1074.9684504892614ms" /><rect x="55.5" y="42.5" width="9" height="9" class="st" style="animation-delay: 1074.9684504892614ms" />
<rect x="55" y="55" width="10" height="10" class="count3" style="animation-delay: 1088.3234613967015ms" /><rect x="55.5" y="55.5" width="9" height="9" class="st" style="animation-delay: 1088.3234613967015ms" />
<rect x="55" y="68" width="10" height="10" class="count1" style="animation-delay: 1101.3585143637922ms" /><rect x="55.5" y="68.5" width="9" height="9" class="st" style="animation-delay: 1101.3585143637922ms" />
<rect x="55" y="81" width="10" height="10" class="count2" style="animation-delay: 1114.0921108647988ms" /><rect x="55.5" y="81.5" width="9" height="9" class="st" style="animation-delay: 1114.0921108647988ms" />
<rect x="68" y="3" width="10" height="10" class="count0" style="animation-delay: 1126.5410978170323ms" /><rect x="68.5" y="3.5" width="9" height="9" class="st" style="animation-delay: 1126.5410978170323ms" />
<rect x="68" y="16" width="10" height="10" class="count2" style="animation-delay: 1138.7208644533735ms" /><rect x="68.5" y="16.5" width="9" height="9" class="st" style="animation-delay: 1138.7208644533735ms" />
<rect x="68" y="29" width="10" height="10" class="count2" style="animation-delay: 1150.645510314486ms" /><rect x="68.5" y="29.5" width="9" height="9" class="st" style="animation-delay: 1150.645510314486ms" />
<rect x="68" y="42" width="10" height="10" class="count1" style="animation-delay: 1162.3279893489002ms" /><rect x="68.5" y="42.5" width="9" height="9" class="st" style="animation-delay: 1162.3279893489002ms" />
<rect x="68" y="55" width="10" height="10" class="count2" style="animation-delay: 1173.780234125444ms" /><rect x="68.5" y="55.5" width="9" height="9" class="st" style="animation-delay: 1173.780234125444ms" />
<rect x="68" y="68" width="10" height="10" class="count2" style="animation-delay: 1185.0132633954934ms" /><rect x="68.5" y="68.5" width="9" height="9" class="st" style="animation-delay: 1185.0132633954934ms" />
<rect x="68" y="81" width="10" height="10" class="count1" style="animation-delay: 1196.037275639748ms" /><rect x="68.5" y="81.5" width="9" height="9" class="st" style="animation-delay: 1196.037275639748ms" />
<rect x="81" y="3" width="10" height="10" class="count1" style="animation-delay: 1206.8617307570373ms" /><rect x="81.5" y="3.5" width="9" height="9" class="st" style="animation-delay: 1206.8617307570373ms" />
<rect x="81" y="16" width="10" height="10" class="count3" style="animation-delay: 1217.49542167224ms" /><rect x="81.5" y="16.5" width="9" height="9" class="st" style="animation-delay: 1217.49542167224ms" />
<rect x="81" y="29" width="10" height="10" class="count5" style="animation-delay: 1227.94653733513ms" /><rect x="81.5" y="29.5" width="9" height="9" class="st" style="animation-delay: 1227.94653733513ms" />
<rect x="81" y="42" width="10" height="10" class="count2" style="animation-delay: 1238.222718335485ms" /><rect x="81.5" y="42.5" width="9" height="9" class="st" style="animation-delay: 1238.222718335485ms" />
<rect x="81" y="55" width="10" height="10" class="count4" style="animation-delay: 1248.331106159632ms" /><rect x="81.5" y="55.5" width="9" height="9" class="st" style="animation-delay: 1248.331106159632ms" />
<rect x="81" y="68" width="10" height="10" class="count5" style="animation-delay: 1258.278386950141ms" /><rect x="81.5" y="68.5" width="9" height="9" class="st" style="animation-delay: 1258.278386950141ms" />
<rect x="81" y="81" width="10" height="10" class="count5" style="animation-delay: 1268.0708304961927ms" /><rect x="81.5" y="81.5" width="9" height="9" class="st" style="animation-delay: 1268.0708304961927ms" />
<rect x="94" y="3" width="10" height="10" class="count5" style="animation-delay: 1277.7143250714394ms" /><rect x="94.5" y="3.5" width="9" height="9" class="st" style="animation-delay: 1277.7143250714394ms" />
<rect x="94" y="16" width="10" height="10" class="count3" style="animation-delay: 1287.2144086444212ms" /><rect x="94.5" y="16.5" width="9" height="9" class="st" style="animation-delay: 1287.2144086444212ms" />
<rect x="94" y="29" width="10" height="10" class="count5" style="animation-delay: 1296.57629691019ms" /><rect x="94.5" y="29.5" width="9" height="9" class="st" style="animation-delay: 1296.57629691019ms" />
<rect x="94" y="42" width="10" height="10" class="count6" style="animation-delay: 1305.8049085278983ms" /><rect x="94.5" y="42.5" width="9" height="9" class="st" style="animation-delay: 1305.8049085278983ms" />
<rect x="94" y="55" width="10" height="10" class="count2" style="animation-delay: 1314.904887895475ms" /><rect x="94.5" y="55.5" width="9" height="9" class="st" style="animation-delay: 1314.904887895475ms" />
<rect x="94" y="68" width="10" height="10" class="count2" style="animation-delay: 1323.8806257472736ms" /><rect x="94.5" y="68.5" width="9" height="9" class="st" style="animation-delay: 1323.8806257472736ms" />
<rect x="94" y="81" width="10" height="10" class="count1" style="animation-delay: 1332.736277822333ms" /><rect x="94.5" y="81.5" width="9" height="9" class="st" style="animation-delay: 1332.736277822333ms" />
<rect x="107" y="3" width="10" height="10" class="count4" style="animation-delay: 1341.4757818183905ms" /><rect x="107.5" y="3.5" width="9" height="9" class="st" style="animation-delay: 1341.4757818183905ms" />
<rect x="107" y="16" width="10" height="10" class="count1" style="animation-delay: 1350.1028728191134ms" /><rect x="107.5" y="16.5" width="9" height="9" class="st" style="animation-delay: 1350.1028728191134ms" />
<rect x="107" y="29" width="10" height="10" class="count0" style="animation-delay: 1358.6210973583527ms" /><rect x="107.5" y="29.5" width="9" height="9" class="st" style="animation-delay: 1358.6210973583527ms" />
<rect x="107" y="42" width="10" height="10" class="count1" style="animation-delay: 1367.0338262649252ms" /><rect x="107.5" y="42.5" width="9" height="9" class="st" style="animation-delay: 1367.0338262649252ms" />
<rect x="107" y="55" width="10" height="10" class="count4" style="animation-delay: 1375.3442664139852ms" /><rect x="107.5" y="55.5" width="9" height="9" class="st" style="animation-delay: 1375.3442664139852ms" />
<rect x="107" y="68" width="10" height="10" class="count4" style="animation-delay: 1383.5554714959828ms" /><rect x="107.5" y="68.5" width="9" height="9" class="st" style="animation-delay: 1383.5554714959828ms" />
<rect x="107" y="81" width="10" height="10" class="count5" style="animation-delay: 1391.6703519011899ms" /><rect x="107.5" y="81.5" width="9" height="9" class="st" style="animation-delay: 1391.6703519011899ms" />
<rect x="120" y="3" width="10" height="10" class="count3" style="animation-delay: 1399.691683806468ms" /><rect x="120.5" y="3.5" width="9" height="9" class="st" style="animation-delay: 1399.691683806468ms" />
<rect x="120" y="16" width="10" height="10" class="count4" style="animation-delay: 1407.6221175411397ms" /><rect x="120.5" y="16.5" width="9" height="9" class="st" style="animation-delay: 1407.6221175411397ms" />
<rect x="120" y="29" width="10" height="10" class="count6" style="animation-delay: 1415.4641853002456ms" /><rect x="120.5" y="29.5" width="9" height="9" class="st" style="animation-delay: 1415.4641853002456ms" />
<rect x="120" y="42" width="10" height="10" class="count6" style="animation-delay: 1423.2203082659964ms" /><rect x="120.5" y="42.5" width="9" height="9" class="st" style="animation-delay: 1423.2203082659964ms" />
<rect x="120" y="55" width="10" height="10" class="count6" style="animation-delay: 1430.8928031916648ms" /><rect x="120.5" y="55.5" width="9" height="9" class="st" style="animation-delay: 1430.8928031916648ms" />
<rect x="120" y="68" width="10" height="10" class="count8" style="animation-delay: 1438.4838884964072ms" /><rect x="120.5" y="68.5" width="9" height="9" class="st" style="animation-delay: 1438.4838884964072ms" />
<rect x="120" y="81" width="10" height="10" class="count7" style="animation-delay: 1445.9956899144386ms" /><rect x="120.5" y="81.5" width="9" height="9" class="st" style="animation-delay: 1445.9956899144386ms" />
<rect x="133" y="3" width="10" height="10" class="count5" style="animation-delay: 1453.4302457375193ms" /><rect x="133.5" y="3.5" width="9" height="9" class="st" style="animation-delay: 1453.4302457375193ms" />
<rect x="133" y="16" width="10" height="10" class="count5" style="animation-delay: 1460.7895116857696ms" /><rect x="133.5" y="16.5" width="9" height="9" class="st" style="animation-delay: 1460.7895116857696ms" />
<rect x="133" y="29" width="10" height="10" class="count5" style="animation-delay: 1468.0753654383238ms" /><rect x="133.5" y="29.5" width="9" height="9" class="st" style="animation-delay: 1468.0753654383238ms" />
<rect x="133" y="42" width="10" height="10" class="count5" style="animation-delay: 1475.2896108522511ms" /><rect x="133.5" y="42.5" width="9" height="9" class="st" style="animation-delay: 1475.2896108522511ms" />
<rect x="133" y="55" width="10" height="10" class="count7" style="animation-delay: 1482.4339818954086ms" /><rect x="133.5" y="55.5" width="9" height="9" class="st" style="animation-delay: 1482.4339818954086ms" />
<rect x="133" y="68" width="10" height="10" class="count3" style="animation-delay: 1489.5101463164426ms" /><rect x="133.5" y="68.5" width="9" height="9" class="st" style="animation-delay: 1489.5101463164426ms" />
<rect x="133" y="81" width="10" height="10" class="count5" style="animation-delay: 1496.5197090729698ms" /><rect x="133.5" y="81.5" width="9" height="9" class="st" style="animation-delay: 1496.5197090729698ms" />
<rect x="146" y="3" width="10" height="10" class="count6" style="animation-delay: 1503.48029092703ms" /><rect x="146.5" y="3.5" width="9" height="9" class="st" style="animation-delay: 1503.48029092703ms" />
<rect x="146" y="16" width="10" height="10" class="count4" style="animation-delay: 1510.4898536835574ms" /><rect x="146.5" y="16.5" width="9" height="9" class="st" style="animation-delay: 1510.4898536835574ms" />
<rect x="146" y="29" width="10" height="10" class="count3" style="animation-delay: 1517.5660181045914ms" /><rect x="146.5" y="29.5" width="9" height="9" class="st" style="animation-delay: 1517.5660181045914ms" />
<rect x="146" y="42" width="10" height="10" class="count3" style="animation-delay: 1524.7103891477486ms" /><rect x="146.5" y="42.5" width="9" height="9" class="st" style="animation-delay: 1524.7103891477486ms" />
<rect x="146" y="55" width="10" height="10" class="count3" style="animation-delay: 1531.9246345616764ms" /><rect x="146.5" y="55.5" width="9" height="9" class="st" style="animation-delay: 1531.9246345616764ms" />
<rect x="146" y="68" width="10" height="10" class="count3" style="animation-delay: 1539.2104883142301ms" /><rect x="146.5" y="68.5" width="9" height="9" class="st" style="animation-delay: 1539.2104883142301ms" />
<rect x="146" y="81" width="10" height="10" class="count3" style="animation-delay: 1546.5697542624807ms" /><rect x="146.5" y="81.5" width="9" height="9" class="st" style="animation-delay: 1546.5697542624807ms" />
<rect x="159" y="3" width="10" height="10" class="count1" style="animation-delay: 1554.0043100855619ms" /><rect x="159.5" y="3.5" width="9" height="9" class="st" style="animation-delay: 1554.0043100855619ms" />
<rect x="159" y="16" width="10" height="10" class="count3" style="animation-delay: 1561.5161115035928ms" /><rect x="159.5" y="16.5" width="9" height="9" class="st" style="animation-delay: 1561.5161115035928ms" />
<rect x="159" y="29" width="10" height="10" class="count1" style="animation-delay: 1569.107196808335ms" /><rect x="159.5" y="29.5" width="9" height="9" class="st" style="animation-delay: 1569.107196808335ms" />
<rect x="159" y="42" width="10" height="10" class="count0" style="animation-delay: 1576.7796917340036ms" /><rect x="159.5" y="42.5" width="9" height="9" class="st" style="animation-delay: 1576.7796917340036ms" />
<rect x="159" y="55" width="10" height="10" class="count1" style="animation-delay: 1584.5358146997546ms" /><rect x="159.5" y="55.5" width="9" height="9" class="st" style="animation-delay: 1584.5358146997546ms" />
<rect x="159" y="68" width="10" height="10" class="count0" style="animation-delay: 1592.3778824588603ms" /><rect x="159.5" y="68.5" width="9" height="9" class="st" style="animation-delay: 1592.3778824588603ms" />
<rect x="159" y="81" width="10" height="10" class="count0" style="animation-delay: 1600.3083161935322ms" /><rect x="159.5" y="81.5" width="9" height="9" class="st" style="animation-delay: 1600.3083161935322ms" />
<rect x="172" y="3" width="10" height="10" class="count0" style="animation-delay: 1608.3296480988101ms" /><rect x="172.5" y="3.5" width="9" height="9" class="st" style="animation-delay: 1608.3296480988101ms" />
<rect x="172" y="16" width="10" height="10" class="count2" style="animation-delay: 1616.4445285040172ms" /><rect x="172.5" y="16.5" width="9" height="9" class="st" style="animation-delay: 1616.4445285040172ms" />
<rect x="172" y="29" width="10" height="10" class="count0" style="animation-delay: 1624.655733586015ms" /><rect x="172.5" y="29.5" width="9" height="9" class="st" style="animation-delay: 1624.655733586015ms" />
<rect x="172" y="42" width="10" height="10" class="count1" style="animation-delay: 1632.966173735075ms" /><rect x="172.5" y="42.5" width="9" height="9" class="st" style="animation-delay: 1632.966173735075ms" />
<rect x="172" y="55" width="10" height="10" class="count1" style="animation-delay: 1641.3789026416475ms" /><rect x="172.5" y="55.5" width="9" height="9" class="st" style="animation-delay: 1641.3789026416475ms" />
<rect x="172" y="68" width="10" height="10" class="count1" style="animation-delay: 1649.8971271808866ms" /><rect x="172.5" y="68.5" width="9" height="9" class="st" style="animation-delay: 1649.8971271808866ms" />
<rect x="172" y="81" width="10" height="10" class="count1" style="animation-delay: 1658.5242181816093ms" /><rect x="172.5" y="81.5" width="9" height="9" class="st" style="animation-delay: 1658.5242181816093ms" />
<rect x="185" y="3" width="10" height="10" class="count0" style="animation-delay: 1667.2637221776668ms" /><rect x="185.5" y="3.5" width="9" height="9" class="st" style="animation-delay: 1667.2637221776668ms" />
<rect x="185" y="16" width="10" height="10" class="count3" style="animation-delay: 1676.1193742527264ms" /><rect x="185.5" y="16.5" width="9" height="9" class="st" style="animation-delay: 1676.1193742527264ms" />
<rect x="185" y="29" width="10" height="10" class="count0" style="animation-delay: 1685.0951121045252ms" /><rect x="185.5" y="29.5" width="9" height="9" class="st" style="animation-delay: 1685.0951121045252ms" />
<rect x="185" y="42" width="10" height="10" class="count0" style="animation-delay: 1694.1950914721017ms" /><rect x="185.5" y="42.5" width="9" height="9" class="st" style="animation-delay: 1694.1950914721017ms" />
<rect x="185" y="55" width="10" height="10" class="count2" style="animation-delay: 1703.4237030898098ms" /><rect x="185.5" y="55.5" width="9" height="9" class="st" style="animation-delay: 1703.4237030898098ms" />
<rect x="185" y="68" width="10" height="10" class="count1" style="animation-delay: 1712.7855913555788ms" /><rect x="185.5" y="68.5" width="9" height="9" class="st" style="animation-delay: 1712.7855913555788ms" />
<rect x="185" y="81" width="10" height="10" class="count0" style="animation-delay: 1722.2856749285604ms" /><rect x="185.5" y="81.5" width="9" height="9" class="st" style="animation-delay: 1722.2856749285604ms" />
<rect x="198" y="3" width="10" height="10" class="count0" style="animation-delay: 1731.929169503807ms" /><rect x="198.5" y="3.5" width="9" height="9" class="st" style="animation-delay: 1731.929169503807ms" />
<rect x="198" y="16" width="10" height="10" class="count0" style="animation-delay: 1741.721613049859ms" /><rect x="198.5" y="16.5" width="9" height="9" class="st" style="animation-delay: 1741.721613049859ms" />
<rect x="198" y="29" width="10" height="10" class="count0" style="animation-delay: 1751.6688938403681ms" /><rect x="198.5" y="29.5" width="9" height="9" class="st" style="animation-delay: 1751.6688938403681ms" />
<rect x="198" y="42" width="10" height="10" class="count0" style="animation-delay: 1761.777281664515ms" /><rect x="198.5" y="42.5" width="9" height="9" class="st" style="animation-delay: 1761.777281664515ms" />
<rect x="198" y="55" width="10" height="10" class="count0" style="animation-delay: 1772.0534626648698ms" /><rect x="198.5" y="55.5" width="9" height="9" class="st" style="animation-delay: 1772.0534626648698ms" />
<rect x="198" y="68" width="10" height="10" class="count0" style="animation-delay: 1782.50457832776ms" /><rect x="198.5" y="68.5" width="9" height="9" class="st" style="animation-delay: 1782.50457832776ms" />
<rect x="198" y="81" width="10" height="10" class="count0" style="animation-delay: 1793.138269242963ms" /><rect x="198.5" y="81.5" width="9" height="9" class="st" style="animation-delay: 1793.138269242963ms" />
<rect x="211" y="3" width="10" height="10" class="count0" style="animation-delay: 1803.962724360252ms" /><rect x="211.5" y="3.5" width="9" height="9" class="st" style="animation-delay: 1803.962724360252ms" />
<rect x="211" y="16" width="10" height="10" class="count0" style="animation-delay: 1814.9867366045066ms" /><rect x="211.5" y="16.5" width="9" height="9" class="st" style="animation-delay: 1814.9867366045066ms" />
<rect x="211" y="29" width="10" height="10" class="count0" style="animation-delay: 1826.219765874556ms" /><rect x="211.5" y="29.5" width="9" height="9" class="st" style="animation-delay: 1826.219765874556ms" />
<rect x="211" y="42" width="10" height="10" class="count0" style="animation-delay: 1837.6720106511002ms" /><rect x="211.5" y="42.5" width="9" height="9" class="st" style="animation-delay: 1837.6720106511002ms" />
<rect x="211" y="55" width="10" height="10" class="count0" style="animation-delay: 1849.354489685514ms" /><rect x="211.5" y="55.5" width="9" height="9" class="st" style="animation-delay: 1849.354489685514ms" />
<rect x="211" y="68" width="10" height="10" class="count0" style="animation-delay: 1861.2791355466265ms" /><rect x="211.5" y="68.5" width="9" height="9" class="st" style="animation-delay: 1861.2791355466265ms" />
<rect x="211" y="81" width="10" height="10" class="count0" style="animation-delay: 1873.458902182968ms" /><rect x="211.5" y="81.5" width="9" height="9" class="st" style="animation-delay: 1873.458902182968ms" />
<rect x="224" y="3" width="10" height="10" class="count0" style="animation-delay: 1885.9078891352012ms" /><rect x="224.5" y="3.5" width="9" height="9" class="st" style="animation-delay: 1885.9078891352012ms" />
<rect x="224" y="16" width="10" height="10" class="count0" style="animation-delay: 1898.6414856362078ms" /><rect x="224.5" y="16.5" width="9" height="9" class="st" style="animation-delay: 1898.6414856362078ms" />
<rect x="224" y="29" width="10" height="10" class="count0" style="animation-delay: 1911.6765386032985ms" /><rect x="224.5" y="29.5" width="9" height="9" class="st" style="animation-delay: 1911.6765386032985ms" />
<rect x="224" y="42" width="10" height="10" class="count0" style="animation-delay: 1925.0315495107384ms" /><rect x="224.5" y="42.5" width="9" height="9" class="st" style="animation-delay: 1925.0315495107384ms" />
<rect x="224" y="55" width="10" height="10" class="count0" style="animation-delay: 1938.7269064030565ms" /><rect x="224.5" y="55.5" width="9" height="9" class="st" style="animation-delay: 1938.7269064030565ms" />
<rect x="224" y="68" width="10" height="10" class="count0" style="animation-delay: 1952.785158969993ms" /><rect x="224.5" y="68.5" width="9" height="9" class="st" style="animation-delay: 1952.785158969993ms" />
<rect x="224" y="81" width="10" height="10" class="count0" style="animation-delay: 1967.2313467918311ms" /><rect x="224.5" y="81.5" width="9" height="9" class="st" style="animation-delay: 1967.2313467918311ms" />
<rect x="237" y="3" width="10" height="10" class="count1" style="animation-delay: 1982.0933937769103ms" /><rect x="237.5" y="3.5" width="9" height="9" class="st" style="animation-delay: 1982.0933937769103ms" />
<rect x="237" y="16" width="10" height="10" class="count1" style="animation-delay: 1997.4025857353997ms" /><rect x="237.5" y="16.5" width="9" height="9" class="st" style="animation-delay: 1997.4025857353997ms" />
<rect x="237" y="29" width="10" height="10" class="count1" style="animation-delay: 2013.1941533789854ms" /><rect x="237.5" y="29.5" width="9" height="9" class="st" style="animation-delay: 2013.1941533789854ms" />
<rect x="237" y="42" width="10" height="10" class="count0" style="animation-delay: 2029.5079904179615ms" /><rect x="237.5" y="42.5" width="9" height="9" class="st" style="animation-delay: 2029.5079904179615ms" />
<rect x="237" y="55" width="10" height="10" class="count0" style="animation-delay: 2046.3895467683606ms" /><rect x="237.5" y="55.5" width="9" height="9" class="st" style="animation-delay: 2046.3895467683606ms" />
<rect x="237" y="68" width="10" height="10" class="count0" style="animation-delay: 2063.8909515976866ms" /><rect x="237.5" y="68.5" width="9" height="9" class="st" style="animation-delay: 2063.8909515976866ms" />
<rect x="237" y="81" width="10" height="10" class="count0" style="animation-delay: 2082.0724422437547ms" /><rect x="237.5" y="81.5" width="9" height="9" class="st" style="animation-delay: 2082.0724422437547ms" />
<rect x="250" y="3" width="10" height="10" class="count0" style="animation-delay: 2101.004206481524ms" /><rect x="250.5" y="3.5" width="9" height="9" class="st" style="animation-delay: 2101.004206481524ms" />
<rect x="250" y="16" width="10" height="10" class="count0" style="animation-delay: 2120.768793000292ms" /><rect x="250.5" y="16.5" width="9" height="9" class="st" style="animation-delay: 2120.768793000292ms" />
<rect x="250" y="29" width="10" height="10" class="count1" style="animation-delay: 2141.464318085001ms" /><rect x="250.5" y="29.5" width="9" height="9" class="st" style="animation-delay: 2141.464318085001ms" />
<rect x="250" y="42" width="10" height="10" class="count1" style="animation-delay: 2163.208812397288ms" /><rect x="250.5" y="42.5" width="9" height="9" class="st" style="animation-delay: 2163.208812397288ms" />
<rect x="250" y="55" width="10" height="10" class="count0" style="animation-delay: 2186.1462410591957ms" /><rect x="250.5" y="55.5" width="9" height="9" class="st" style="animation-delay: 2186.1462410591957ms" />
<rect x="250" y="68" width="10" height="10" class="count0" style="animation-delay: 2210.455050292953ms" /><rect x="250.5" y="68.5" width="9" height="9" class="st" style="animation-delay: 2210.455050292953ms" />
<rect x="250" y="81" width="10" height="10" class="count0" style="animation-delay: 2236.360656963799ms" /><rect x="250.5" y="81.5" width="9" height="9" class="st" style="animation-delay: 2236.360656963799ms" />
<rect x="263" y="3" width="10" height="10" class="count0" style="animation-delay: 2264.1543353895827ms" /><rect x="263.5" y="3.5" width="9" height="9" class="st" style="animation-delay: 2264.1543353895827ms" />
<rect x="263" y="16" width="10" height="10" class="count0" style="animation-delay: 2294.2229783392286ms" /><rect x="263.5" y="16.5" width="9" height="9" class="st" style="animation-delay: 2294.2229783392286ms" />
<rect x="263" y="29" width="10" height="10" class="count0" style="animation-delay: 2327.09842348909ms" /><rect x="263.5" y="29.5" width="9" height="9" class="st" style="animation-delay: 2327.09842348909ms" />
<rect x="263" y="42" width="10" height="10" class="count2" style="animation-delay: 2363.544578792564ms" /><rect x="263.5" y="42.5" width="9" height="9" class="st" style="animation-delay: 2363.544578792564ms" />
<rect x="263" y="55" width="10" height="10" class="count1" style="animation-delay: 2404.7246055119253ms" /><rect x="263.5" y="55.5" width="9" height="9" class="st" style="animation-delay: 2404.7246055119253ms" />
<rect x="263" y="68" width="10" height="10" class="count3" style="animation-delay: 2452.560107514014ms" /><rect x="263.5" y="68.5" width="9" height="9" class="st" style="animation-delay: 2452.560107514014ms" />
<rect x="263" y="81" width="10" height="10" class="count0" style="animation-delay: 2510.641544853892ms" /><rect x="263.5" y="81.5" width="9" height="9" class="st" style="animation-delay: 2510.641544853892ms" />
<rect x="276" y="3" width="10" height="10" class="count0" style="animation-delay: 2587.259093888172ms" /><rect x="276.5" y="3.5" width="9" height="9" class="st" style="animation-delay: 2587.259093888172ms" />
<rect x="276" y="16" width="10" height="10" class="count1" style="animation-delay: 2713.8214393616677ms" /><rect x="276.5" y="16.5" width="9" height="9" class="st" style="animation-delay: 2713.8214393616677ms" />
</svg>

  