

<svg height="94" width="328" xmlns="http://www.w3.org/2000/svg" fill='#4FA1A7'>
  <style>
  rect {
  rx: 2;
  ry: 2;
  animation: wow .5s backwards;
  }
  .st {
  
  stroke: rgba(27, 31, 35, 0.06);
  stroke-width: 1;
  fill: none;
  }
  @keyframes wow {
  from {opacity: 0;}
  to{ opacity: 1;}}
  .count0 {fill: #ebedf0}
.count1 {fill: #9be9a8}
.count2 {fill: #9be9a8}
.count3 {fill: #40c463}
.count4 {fill: #40c463}
.count5 {fill: #30a14e}
.count6 {fill: #30a14e}
.count7 {fill: #216e39}
.count8 {fill: #216e39}
  </style>
<rect x="3" y="68" width="10" height="10" class="count3" style="animation-delay: 271.84509325072304ms" /><rect x="3.5" y="68.5" width="9" height="9" class="st" style="animation-delay: 271.84509325072304ms" />
<rect x="3" y="81" width="10" height="10" class="count3" style="animation-delay: 392.06846893103267ms" /><rect x="3.5" y="81.5" width="9" height="9" class="st" style="animation-delay: 392.06846893103267ms" />
<rect x="16" y="3" width="10" height="10" class="count1" style="animation-delay: 464.8485706808201ms" /><rect x="16.5" y="3.5" width="9" height="9" class="st" style="animation-delay: 464.8485706808201ms" />
<rect x="16" y="16" width="10" height="10" class="count2" style="animation-delay: 520.020955762976ms" /><rect x="16.5" y="16.5" width="9" height="9" class="st" style="animation-delay: 520.020955762976ms" />
<rect x="16" y="29" width="10" height="10" class="count5" style="animation-delay: 565.4605808468654ms" /><rect x="16.5" y="29.5" width="9" height="9" class="st" style="animation-delay: 565.4605808468654ms" />
<rect x="16" y="42" width="10" height="10" class="count1" style="animation-delay: 604.5780751085671ms" /><rect x="16.5" y="42.5" width="9" height="9" class="st" style="animation-delay: 604.5780751085671ms" />
<rect x="16" y="55" width="10" height="10" class="count3" style="animation-delay: 639.198797447109ms" /><rect x="16.5" y="55.5" width="9" height="9" class="st" style="animation-delay: 639.198797447109ms" />
<rect x="16" y="68" width="10" height="10" class="count2" style="animation-delay: 670.4276513224257ms" /><rect x="16.5" y="68.5" width="9" height="9" class="st" style="animation-delay: 670.4276513224257ms" />
<rect x="16" y="81" width="10" height="10" class="count2" style="animation-delay: 698.9902837863555ms" /><rect x="16.5" y="81.5" width="9" height="9" class="st" style="animation-delay: 698.9902837863555ms" />
<rect x="29" y="3" width="10" height="10" class="count2" style="animation-delay: 725.3918950272002ms" /><rect x="29.5" y="3.5" width="9" height="9" class="st" style="animation-delay: 725.3918950272002ms" />
<rect x="29" y="16" width="10" height="10" class="count1" style="animation-delay: 750ms" /><rect x="29.5" y="16.5" width="9" height="9" class="st" style="animation-delay: 750ms" />
<rect x="29" y="29" width="10" height="10" class="count2" style="animation-delay: 773.0912843304009ms" /><rect x="29.5" y="29.5" width="9" height="9" class="st" style="animation-delay: 773.0912843304009ms" />
<rect x="29" y="42" width="10" height="10" class="count2" style="animation-delay: 794.8798747112448ms" /><rect x="29.5" y="42.5" width="9" height="9" class="st" style="animation-delay: 794.8798747112448ms" />
<rect x="29" y="55" width="10" height="10" class="count1" style="animation-delay: 815.5352797521691ms" /><rect x="29.5" y="55.5" width="9" height="9" class="st" style="animation-delay: 815.5352797521691ms" />
<rect x="29" y="68" width="10" height="10" class="count3" style="animation-delay: 835.1942539743345ms" /><rect x="29.5" y="68.5" width="9" height="9" class="st" style="animation-delay: 835.1942539743345ms" />
<rect x="29" y="81" width="10" height="10" class="count2" style="animation-delay: 853.9689163853553ms" /><rect x="29.5" y="81.5" width="9" height="9" class="st" style="animation-delay: 853.9689163853553ms" />
<rect x="42" y="3" width="10" height="10" class="count1" style="animation-delay: 871.9524690426109ms" /><rect x="42.5" y="3.5" width="9" height="9" class="st" style="animation-delay: 871.9524690426109ms" />
<rect x="42" y="16" width="10" height="10" class="count1" style="animation-delay: 889.2233261225157ms" /><rect x="42.5" y="16.5" width="9" height="9" class="st" style="animation-delay: 889.2233261225157ms" />
<rect x="42" y="29" width="10" height="10" class="count2" style="animation-delay: 905.8481599927912ms" /><rect x="42.5" y="29.5" width="9" height="9" class="st" style="animation-delay: 905.8481599927912ms" />
<rect x="42" y="42" width="10" height="10" class="count1" style="animation-delay: 921.8841909591051ms" /><rect x="42.5" y="42.5" width="9" height="9" class="st" style="animation-delay: 921.8841909591051ms" />
<rect x="42" y="55" width="10" height="10" class="count1" style="animation-delay: 937.3809372605942ms" /><rect x="42.5" y="55.5" width="9" height="9" class="st" style="animation-delay: 937.3809372605942ms" />
<rect x="42" y="68" width="10" height="10" class="count1" style="animation-delay: 952.3815724202312ms" /><rect x="42.5" y="68.5" width="9" height="9" class="st" style="animation-delay: 952.3815724202312ms" />
<rect x="42" y="81" width="10" height="10" class="count1" style="animation-delay: 966.9239920419735ms" /><rect x="42.5" y="81.5" width="9" height="9" class="st" style="animation-delay: 966.9239920419735ms" />
<rect x="55" y="3" width="10" height="10" class="count1" style="animation-delay: 981.0416622809447ms" /><rect x="55.5" y="3.5" width="9" height="9" class="st" style="animation-delay: 981.0416622809447ms" />
<rect x="55" y="16" width="10" height="10" class="count1" style="animation-delay: 994.7643019740981ms" /><rect x="55.5" y="16.5" width="9" height="9" class="st" style="animation-delay: 994.7643019740981ms" />
<rect x="55" y="29" width="10" height="10" class="count2" style="animation-delay: 1008.1184364399246ms" /><rect x="55.5" y="29.5" width="9" height="9" class="st" style="animation-delay: 1008.1184364399246ms" />
<rect x="55" y="42" width="10" height="10" class="count3" style="animation-delay: 1021.1278511325899ms" /><rect x="55.5" y="42.5" width="9" height="9" class="st" style="animation-delay: 1021.1278511325899ms" />
<rect x="55" y="55" width="10" height="10" class="count3" style="animation-delay: 1033.8139663237473ms" /><rect x="55.5" y="55.5" width="9" height="9" class="st" style="animation-delay: 1033.8139663237473ms" />
<rect x="55" y="68" width="10" height="10" class="count1" style="animation-delay: 1046.196148907456ms" /><rect x="55.5" y="68.5" width="9" height="9" class="st" style="animation-delay: 1046.196148907456ms" />
<rect x="55" y="81" width="10" height="10" class="count2" style="animation-delay: 1058.291973697797ms" /><rect x="55.5" y="81.5" width="9" height="9" class="st" style="animation-delay: 1058.291973697797ms" />
<rect x="68" y="3" width="10" height="10" class="count0" style="animation-delay: 1070.117443821619ms" /><rect x="68.5" y="3.5" width="9" height="9" class="st" style="animation-delay: 1070.117443821619ms" />
<rect x="68" y="16" width="10" height="10" class="count2" style="animation-delay: 1081.6871777305562ms" /><rect x="68.5" y="16.5" width="9" height="9" class="st" style="animation-delay: 1081.6871777305562ms" />
<rect x="68" y="29" width="10" height="10" class="count2" style="animation-delay: 1093.0145687792265ms" /><rect x="68.5" y="29.5" width="9" height="9" class="st" style="animation-delay: 1093.0145687792265ms" />
<rect x="68" y="42" width="10" height="10" class="count1" style="animation-delay: 1104.1119221079528ms" /><rect x="68.5" y="42.5" width="9" height="9" class="st" style="animation-delay: 1104.1119221079528ms" />
<rect x="68" y="55" width="10" height="10" class="count2" style="animation-delay: 1114.9905726339232ms" /><rect x="68.5" y="55.5" width="9" height="9" class="st" style="animation-delay: 1114.9905726339232ms" />
<rect x="68" y="68" width="10" height="10" class="count2" style="animation-delay: 1125.6609872261047ms" /><rect x="68.5" y="68.5" width="9" height="9" class="st" style="animation-delay: 1125.6609872261047ms" />
<rect x="68" y="81" width="10" height="10" class="count1" style="animation-delay: 1136.132853566658ms" /><rect x="68.5" y="81.5" width="9" height="9" class="st" style="animation-delay: 1136.132853566658ms" />
<rect x="81" y="3" width="10" height="10" class="count1" style="animation-delay: 1146.4151577482994ms" /><rect x="81.5" y="3.5" width="9" height="9" class="st" style="animation-delay: 1146.4151577482994ms" />
<rect x="81" y="16" width="10" height="10" class="count3" style="animation-delay: 1156.5162522956855ms" /><rect x="81.5" y="16.5" width="9" height="9" class="st" style="animation-delay: 1156.5162522956855ms" />
<rect x="81" y="29" width="10" height="10" class="count5" style="animation-delay: 1166.4439160089114ms" /><rect x="81.5" y="29.5" width="9" height="9" class="st" style="animation-delay: 1166.4439160089114ms" />
<rect x="81" y="42" width="10" height="10" class="count2" style="animation-delay: 1176.2054067930978ms" /><rect x="81.5" y="42.5" width="9" height="9" class="st" style="animation-delay: 1176.2054067930978ms" />
<rect x="81" y="55" width="10" height="10" class="count4" style="animation-delay: 1185.8075084478844ms" /><rect x="81.5" y="55.5" width="9" height="9" class="st" style="animation-delay: 1185.8075084478844ms" />
<rect x="81" y="68" width="10" height="10" class="count5" style="animation-delay: 1195.256572235386ms" /><rect x="81.5" y="68.5" width="9" height="9" class="st" style="animation-delay: 1195.256572235386ms" />
<rect x="81" y="81" width="10" height="10" class="count5" style="animation-delay: 1204.5585539177005ms" /><rect x="81.5" y="81.5" width="9" height="9" class="st" style="animation-delay: 1204.5585539177005ms" />
<rect x="94" y="3" width="10" height="10" class="count5" style="animation-delay: 1213.719046849887ms" /><rect x="94.5" y="3.5" width="9" height="9" class="st" style="animation-delay: 1213.719046849887ms" />
<rect x="94" y="16" width="10" height="10" class="count3" style="animation-delay: 1222.743311627187ms" /><rect x="94.5" y="16.5" width="9" height="9" class="st" style="animation-delay: 1222.743311627187ms" />
<rect x="94" y="29" width="10" height="10" class="count5" style="animation-delay: 1231.636302712662ms" /><rect x="94.5" y="29.5" width="9" height="9" class="st" style="animation-delay: 1231.636302712662ms" />
<rect x="94" y="42" width="10" height="10" class="count6" style="animation-delay: 1240.4026924107397ms" /><rect x="94.5" y="42.5" width="9" height="9" class="st" style="animation-delay: 1240.4026924107397ms" />
<rect x="94" y="55" width="10" height="10" class="count2" style="animation-delay: 1249.046892501203ms" /><rect x="94.5" y="55.5" width="9" height="9" class="st" style="animation-delay: 1249.046892501203ms" />
<rect x="94" y="68" width="10" height="10" class="count2" style="animation-delay: 1257.5730738051893ms" /><rect x="94.5" y="68.5" width="9" height="9" class="st" style="animation-delay: 1257.5730738051893ms" />
<rect x="94" y="81" width="10" height="10" class="count1" style="animation-delay: 1265.9851839184375ms" /><rect x="94.5" y="81.5" width="9" height="9" class="st" style="animation-delay: 1265.9851839184375ms" />
<rect x="107" y="3" width="10" height="10" class="count4" style="animation-delay: 1274.2869633161463ms" /><rect x="107.5" y="3.5" width="9" height="9" class="st" style="animation-delay: 1274.2869633161463ms" />
<rect x="107" y="16" width="10" height="10" class="count1" style="animation-delay: 1282.4819600075227ms" /><rect x="107.5" y="16.5" width="9" height="9" class="st" style="animation-delay: 1282.4819600075227ms" />
<rect x="107" y="29" width="10" height="10" class="count0" style="animation-delay: 1290.5735428956152ms" /><rect x="107.5" y="29.5" width="9" height="9" class="st" style="animation-delay: 1290.5735428956152ms" />
<rect x="107" y="42" width="10" height="10" class="count1" style="animation-delay: 1298.5649139787567ms" /><rect x="107.5" y="42.5" width="9" height="9" class="st" style="animation-delay: 1298.5649139787567ms" />
<rect x="107" y="55" width="10" height="10" class="count4" style="animation-delay: 1306.4591195133596ms" /><rect x="107.5" y="55.5" width="9" height="9" class="st" style="animation-delay: 1306.4591195133596ms" />
<rect x="107" y="68" width="10" height="10" class="count4" style="animation-delay: 1314.259060243502ms" /><rect x="107.5" y="68.5" width="9" height="9" class="st" style="animation-delay: 1314.259060243502ms" />
<rect x="107" y="81" width="10" height="10" class="count5" style="animation-delay: 1321.9675007903809ms" /><rect x="107.5" y="81.5" width="9" height="9" class="st" style="animation-delay: 1321.9675007903809ms" />
<rect x="120" y="3" width="10" height="10" class="count3" style="animation-delay: 1329.5870782839622ms" /><rect x="120.5" y="3.5" width="9" height="9" class="st" style="animation-delay: 1329.5870782839622ms" />
<rect x="120" y="16" width="10" height="10" class="count4" style="animation-delay: 1337.120310309841ms" /><rect x="120.5" y="16.5" width="9" height="9" class="st" style="animation-delay: 1337.120310309841ms" />
<rect x="120" y="29" width="10" height="10" class="count6" style="animation-delay: 1344.5696022361733ms" /><rect x="120.5" y="29.5" width="9" height="9" class="st" style="animation-delay: 1344.5696022361733ms" />
<rect x="120" y="42" width="10" height="10" class="count6" style="animation-delay: 1351.9372539784476ms" /><rect x="120.5" y="42.5" width="9" height="9" class="st" style="animation-delay: 1351.9372539784476ms" />
<rect x="120" y="55" width="10" height="10" class="count6" style="animation-delay: 1359.2254662536152ms" /><rect x="120.5" y="55.5" width="9" height="9" class="st" style="animation-delay: 1359.2254662536152ms" />
<rect x="120" y="68" width="10" height="10" class="count8" style="animation-delay: 1366.4363463696482ms" /><rect x="120.5" y="68.5" width="9" height="9" class="st" style="animation-delay: 1366.4363463696482ms" />
<rect x="120" y="81" width="10" height="10" class="count7" style="animation-delay: 1373.5719135917725ms" /><rect x="120.5" y="81.5" width="9" height="9" class="st" style="animation-delay: 1373.5719135917725ms" />
<rect x="133" y="3" width="10" height="10" class="count5" style="animation-delay: 1380.634104122381ms" /><rect x="133.5" y="3.5" width="9" height="9" class="st" style="animation-delay: 1380.634104122381ms" />
<rect x="133" y="16" width="10" height="10" class="count5" style="animation-delay: 1387.6247757278868ms" /><rect x="133.5" y="16.5" width="9" height="9" class="st" style="animation-delay: 1387.6247757278868ms" />
<rect x="133" y="29" width="10" height="10" class="count5" style="animation-delay: 1394.5457120424603ms" /><rect x="133.5" y="29.5" width="9" height="9" class="st" style="animation-delay: 1394.5457120424603ms" />
<rect x="133" y="42" width="10" height="10" class="count5" style="animation-delay: 1401.3986265756391ms" /><rect x="133.5" y="42.5" width="9" height="9" class="st" style="animation-delay: 1401.3986265756391ms" />
<rect x="133" y="55" width="10" height="10" class="count7" style="animation-delay: 1408.1851664482028ms" /><rect x="133.5" y="55.5" width="9" height="9" class="st" style="animation-delay: 1408.1851664482028ms" />
<rect x="133" y="68" width="10" height="10" class="count3" style="animation-delay: 1414.9069158783582ms" /><rect x="133.5" y="68.5" width="9" height="9" class="st" style="animation-delay: 1414.9069158783582ms" />
<rect x="133" y="81" width="10" height="10" class="count5" style="animation-delay: 1421.5653994382192ms" /><rect x="133.5" y="81.5" width="9" height="9" class="st" style="animation-delay: 1421.5653994382192ms" />
<rect x="146" y="3" width="10" height="10" class="count6" style="animation-delay: 1428.1620850987006ms" /><rect x="146.5" y="3.5" width="9" height="9" class="st" style="animation-delay: 1428.1620850987006ms" />
<rect x="146" y="16" width="10" height="10" class="count4" style="animation-delay: 1434.698387079292ms" /><rect x="146.5" y="16.5" width="9" height="9" class="st" style="animation-delay: 1434.698387079292ms" />
<rect x="146" y="29" width="10" height="10" class="count3" style="animation-delay: 1441.1756685176897ms" /><rect x="146.5" y="29.5" width="9" height="9" class="st" style="animation-delay: 1441.1756685176897ms" />
<rect x="146" y="42" width="10" height="10" class="count3" style="animation-delay: 1447.5952439729288ms" /><rect x="146.5" y="42.5" width="9" height="9" class="st" style="animation-delay: 1447.5952439729288ms" />
<rect x="146" y="55" width="10" height="10" class="count3" style="animation-delay: 1453.9583817744576ms" /><rect x="146.5" y="55.5" width="9" height="9" class="st" style="animation-delay: 1453.9583817744576ms" />
<rect x="146" y="68" width="10" height="10" class="count3" style="animation-delay: 1460.2663062285212ms" /><rect x="146.5" y="68.5" width="9" height="9" class="st" style="animation-delay: 1460.2663062285212ms" />
<rect x="146" y="81" width="10" height="10" class="count3" style="animation-delay: 1466.5201996922412ms" /><rect x="146.5" y="81.5" width="9" height="9" class="st" style="animation-delay: 1466.5201996922412ms" />
<rect x="159" y="3" width="10" height="10" class="count1" style="animation-delay: 1472.721204524905ms" /><rect x="159.5" y="3.5" width="9" height="9" class="st" style="animation-delay: 1472.721204524905ms" />
<rect x="159" y="16" width="10" height="10" class="count3" style="animation-delay: 1478.8704249251791ms" /><rect x="159.5" y="16.5" width="9" height="9" class="st" style="animation-delay: 1478.8704249251791ms" />
<rect x="159" y="29" width="10" height="10" class="count1" style="animation-delay: 1484.9689286622483ms" /><rect x="159.5" y="29.5" width="9" height="9" class="st" style="animation-delay: 1484.9689286622483ms" />
<rect x="159" y="42" width="10" height="10" class="count0" style="animation-delay: 1491.017748708222ms" /><rect x="159.5" y="42.5" width="9" height="9" class="st" style="animation-delay: 1491.017748708222ms" />
<rect x="159" y="55" width="10" height="10" class="count1" style="animation-delay: 1497.017884778567ms" /><rect x="159.5" y="55.5" width="9" height="9" class="st" style="animation-delay: 1497.017884778567ms" />
<rect x="159" y="68" width="10" height="10" class="count0" style="animation-delay: 1502.982115221433ms" /><rect x="159.5" y="68.5" width="9" height="9" class="st" style="animation-delay: 1502.982115221433ms" />
<rect x="159" y="81" width="10" height="10" class="count0" style="animation-delay: 1508.9822512917779ms" /><rect x="159.5" y="81.5" width="9" height="9" class="st" style="animation-delay: 1508.9822512917779ms" />
<rect x="172" y="3" width="10" height="10" class="count0" style="animation-delay: 1515.0310713377517ms" /><rect x="172.5" y="3.5" width="9" height="9" class="st" style="animation-delay: 1515.0310713377517ms" />
<rect x="172" y="16" width="10" height="10" class="count2" style="animation-delay: 1521.1295750748209ms" /><rect x="172.5" y="16.5" width="9" height="9" class="st" style="animation-delay: 1521.1295750748209ms" />
<rect x="172" y="29" width="10" height="10" class="count0" style="animation-delay: 1527.278795475095ms" /><rect x="172.5" y="29.5" width="9" height="9" class="st" style="animation-delay: 1527.278795475095ms" />
<rect x="172" y="42" width="10" height="10" class="count1" style="animation-delay: 1533.4798003077588ms" /><rect x="172.5" y="42.5" width="9" height="9" class="st" style="animation-delay: 1533.4798003077588ms" />
<rect x="172" y="55" width="10" height="10" class="count1" style="animation-delay: 1539.7336937714788ms" /><rect x="172.5" y="55.5" width="9" height="9" class="st" style="animation-delay: 1539.7336937714788ms" />
<rect x="172" y="68" width="10" height="10" class="count1" style="animation-delay: 1546.0416182255422ms" /><rect x="172.5" y="68.5" width="9" height="9" class="st" style="animation-delay: 1546.0416182255422ms" />
<rect x="172" y="81" width="10" height="10" class="count1" style="animation-delay: 1552.404756027071ms" /><rect x="172.5" y="81.5" width="9" height="9" class="st" style="animation-delay: 1552.404756027071ms" />
<rect x="185" y="3" width="10" height="10" class="count0" style="animation-delay: 1558.8243314823105ms" /><rect x="185.5" y="3.5" width="9" height="9" class="st" style="animation-delay: 1558.8243314823105ms" />
<rect x="185" y="16" width="10" height="10" class="count3" style="animation-delay: 1565.301612920708ms" /><rect x="185.5" y="16.5" width="9" height="9" class="st" style="animation-delay: 1565.301612920708ms" />
<rect x="185" y="29" width="10" height="10" class="count0" style="animation-delay: 1571.8379149012994ms" /><rect x="185.5" y="29.5" width="9" height="9" class="st" style="animation-delay: 1571.8379149012994ms" />
<rect x="185" y="42" width="10" height="10" class="count0" style="animation-delay: 1578.4346005617808ms" /><rect x="185.5" y="42.5" width="9" height="9" class="st" style="animation-delay: 1578.4346005617808ms" />
<rect x="185" y="55" width="10" height="10" class="count2" style="animation-delay: 1585.093084121642ms" /><rect x="185.5" y="55.5" width="9" height="9" class="st" style="animation-delay: 1585.093084121642ms" />
<rect x="185" y="68" width="10" height="10" class="count1" style="animation-delay: 1591.8148335517974ms" /><rect x="185.5" y="68.5" width="9" height="9" class="st" style="animation-delay: 1591.8148335517974ms" />
<rect x="185" y="81" width="10" height="10" class="count0" style="animation-delay: 1598.6013734243606ms" /><rect x="185.5" y="81.5" width="9" height="9" class="st" style="animation-delay: 1598.6013734243606ms" />
<rect x="198" y="3" width="10" height="10" class="count0" style="animation-delay: 1605.4542879575397ms" /><rect x="198.5" y="3.5" width="9" height="9" class="st" style="animation-delay: 1605.4542879575397ms" />
<rect x="198" y="16" width="10" height="10" class="count0" style="animation-delay: 1612.375224272113ms" /><rect x="198.5" y="16.5" width="9" height="9" class="st" style="animation-delay: 1612.375224272113ms" />
<rect x="198" y="29" width="10" height="10" class="count0" style="animation-delay: 1619.3658958776193ms" /><rect x="198.5" y="29.5" width="9" height="9" class="st" style="animation-delay: 1619.3658958776193ms" />
<rect x="198" y="42" width="10" height="10" class="count0" style="animation-delay: 1626.4280864082275ms" /><rect x="198.5" y="42.5" width="9" height="9" class="st" style="animation-delay: 1626.4280864082275ms" />
<rect x="198" y="55" width="10" height="10" class="count0" style="animation-delay: 1633.5636536303518ms" /><rect x="198.5" y="55.5" width="9" height="9" class="st" style="animation-delay: 1633.5636536303518ms" />
<rect x="198" y="68" width="10" height="10" class="count0" style="animation-delay: 1640.7745337463846ms" /><rect x="198.5" y="68.5" width="9" height="9" class="st" style="animation-delay: 1640.7745337463846ms" />
<rect x="198" y="81" width="10" height="10" class="count0" style="animation-delay: 1648.0627460215521ms" /><rect x="198.5" y="81.5" width="9" height="9" class="st" style="animation-delay: 1648.0627460215521ms" />
<rect x="211" y="3" width="10" height="10" class="count0" style="animation-delay: 1655.4303977638267ms" /><rect x="211.5" y="3.5" width="9" height="9" class="st" style="animation-delay: 1655.4303977638267ms" />
<rect x="211" y="16" width="10" height="10" class="count0" style="animation-delay: 1662.8796896901595ms" /><rect x="211.5" y="16.5" width="9" height="9" class="st" style="animation-delay: 1662.8796896901595ms" />
<rect x="211" y="29" width="10" height="10" class="count0" style="animation-delay: 1670.4129217160378ms" /><rect x="211.5" y="29.5" width="9" height="9" class="st" style="animation-delay: 1670.4129217160378ms" />
<rect x="211" y="42" width="10" height="10" class="count0" style="animation-delay: 1678.0324992096191ms" /><rect x="211.5" y="42.5" width="9" height="9" class="st" style="animation-delay: 1678.0324992096191ms" />
<rect x="211" y="55" width="10" height="10" class="count0" style="animation-delay: 1685.7409397564977ms" /><rect x="211.5" y="55.5" width="9" height="9" class="st" style="animation-delay: 1685.7409397564977ms" />
<rect x="211" y="68" width="10" height="10" class="count0" style="animation-delay: 1693.5408804866406ms" /><rect x="211.5" y="68.5" width="9" height="9" class="st" style="animation-delay: 1693.5408804866406ms" />
<rect x="211" y="81" width="10" height="10" class="count0" style="animation-delay: 1701.4350860212433ms" /><rect x="211.5" y="81.5" width="9" height="9" class="st" style="animation-delay: 1701.4350860212433ms" />
<rect x="224" y="3" width="10" height="10" class="count0" style="animation-delay: 1709.426457104385ms" /><rect x="224.5" y="3.5" width="9" height="9" class="st" style="animation-delay: 1709.426457104385ms" />
<rect x="224" y="16" width="10" height="10" class="count0" style="animation-delay: 1717.5180399924773ms" /><rect x="224.5" y="16.5" width="9" height="9" class="st" style="animation-delay: 1717.5180399924773ms" />
<rect x="224" y="29" width="10" height="10" class="count0" style="animation-delay: 1725.7130366838535ms" /><rect x="224.5" y="29.5" width="9" height="9" class="st" style="animation-delay: 1725.7130366838535ms" />
<rect x="224" y="42" width="10" height="10" class="count0" style="animation-delay: 1734.0148160815625ms" /><rect x="224.5" y="42.5" width="9" height="9" class="st" style="animation-delay: 1734.0148160815625ms" />
<rect x="224" y="55" width="10" height="10" class="count0" style="animation-delay: 1742.4269261948104ms" /><rect x="224.5" y="55.5" width="9" height="9" class="st" style="animation-delay: 1742.4269261948104ms" />
<rect x="224" y="68" width="10" height="10" class="count0" style="animation-delay: 1750.953107498797ms" /><rect x="224.5" y="68.5" width="9" height="9" class="st" style="animation-delay: 1750.953107498797ms" />
<rect x="224" y="81" width="10" height="10" class="count0" style="animation-delay: 1759.5973075892603ms" /><rect x="224.5" y="81.5" width="9" height="9" class="st" style="animation-delay: 1759.5973075892603ms" />
<rect x="237" y="3" width="10" height="10" class="count1" style="animation-delay: 1768.3636972873378ms" /><rect x="237.5" y="3.5" width="9" height="9" class="st" style="animation-delay: 1768.3636972873378ms" />
<rect x="237" y="16" width="10" height="10" class="count1" style="animation-delay: 1777.2566883728127ms" /><rect x="237.5" y="16.5" width="9" height="9" class="st" style="animation-delay: 1777.2566883728127ms" />
<rect x="237" y="29" width="10" height="10" class="count1" style="animation-delay: 1786.2809531501132ms" /><rect x="237.5" y="29.5" width="9" height="9" class="st" style="animation-delay: 1786.2809531501132ms" />
<rect x="237" y="42" width="10" height="10" class="count0" style="animation-delay: 1795.4414460822995ms" /><rect x="237.5" y="42.5" width="9" height="9" class="st" style="animation-delay: 1795.4414460822995ms" />
<rect x="237" y="55" width="10" height="10" class="count0" style="animation-delay: 1804.743427764614ms" /><rect x="237.5" y="55.5" width="9" height="9" class="st" style="animation-delay: 1804.743427764614ms" />
<rect x="237" y="68" width="10" height="10" class="count0" style="animation-delay: 1814.1924915521156ms" /><rect x="237.5" y="68.5" width="9" height="9" class="st" style="animation-delay: 1814.1924915521156ms" />
<rect x="237" y="81" width="10" height="10" class="count0" style="animation-delay: 1823.7945932069017ms" /><rect x="237.5" y="81.5" width="9" height="9" class="st" style="animation-delay: 1823.7945932069017ms" />
<rect x="250" y="3" width="10" height="10" class="count0" style="animation-delay: 1833.5560839910886ms" /><rect x="250.5" y="3.5" width="9" height="9" class="st" style="animation-delay: 1833.5560839910886ms" />
<rect x="250" y="16" width="10" height="10" class="count0" style="animation-delay: 1843.4837477043145ms" /><rect x="250.5" y="16.5" width="9" height="9" class="st" style="animation-delay: 1843.4837477043145ms" />
<rect x="250" y="29" width="10" height="10" class="count1" style="animation-delay: 1853.5848422517006ms" /><rect x="250.5" y="29.5" width="9" height="9" class="st" style="animation-delay: 1853.5848422517006ms" />
<rect x="250" y="42" width="10" height="10" class="count1" style="animation-delay: 1863.867146433342ms" /><rect x="250.5" y="42.5" width="9" height="9" class="st" style="animation-delay: 1863.867146433342ms" />
<rect x="250" y="55" width="10" height="10" class="count0" style="animation-delay: 1874.3390127738955ms" /><rect x="250.5" y="55.5" width="9" height="9" class="st" style="animation-delay: 1874.3390127738955ms" />
<rect x="250" y="68" width="10" height="10" class="count0" style="animation-delay: 1885.0094273660766ms" /><rect x="250.5" y="68.5" width="9" height="9" class="st" style="animation-delay: 1885.0094273660766ms" />
<rect x="250" y="81" width="10" height="10" class="count0" style="animation-delay: 1895.8880778920475ms" /><rect x="250.5" y="81.5" width="9" height="9" class="st" style="animation-delay: 1895.8880778920475ms" />
<rect x="263" y="3" width="10" height="10" class="count0" style="animation-delay: 1906.9854312207735ms" /><rect x="263.5" y="3.5" width="9" height="9" class="st" style="animation-delay: 1906.9854312207735ms" />
<rect x="263" y="16" width="10" height="10" class="count0" style="animation-delay: 1918.3128222694438ms" /><rect x="263.5" y="16.5" width="9" height="9" class="st" style="animation-delay: 1918.3128222694438ms" />
<rect x="263" y="29" width="10" height="10" class="count0" style="animation-delay: 1929.882556178381ms" /><rect x="263.5" y="29.5" width="9" height="9" class="st" style="animation-delay: 1929.882556178381ms" />
<rect x="263" y="42" width="10" height="10" class="count2" style="animation-delay: 1941.7080263022028ms" /><rect x="263.5" y="42.5" width="9" height="9" class="st" style="animation-delay: 1941.7080263022028ms" />
<rect x="263" y="55" width="10" height="10" class="count1" style="animation-delay: 1953.803851092544ms" /><rect x="263.5" y="55.5" width="9" height="9" class="st" style="animation-delay: 1953.803851092544ms" />
<rect x="263" y="68" width="10" height="10" class="count3" style="animation-delay: 1966.1860336762531ms" /><rect x="263.5" y="68.5" width="9" height="9" class="st" style="animation-delay: 1966.1860336762531ms" />
<rect x="263" y="81" width="10" height="10" class="count0" style="animation-delay: 1978.8721488674103ms" /><rect x="263.5" y="81.5" width="9" height="9" class="st" style="animation-delay: 1978.8721488674103ms" />
<rect x="276" y="3" width="10" height="10" class="count0" style="animation-delay: 1991.8815635600754ms" /><rect x="276.5" y="3.5" width="9" height="9" class="st" style="animation-delay: 1991.8815635600754ms" />
<rect x="276" y="16" width="10" height="10" class="count1" style="animation-delay: 2005.235698025902ms" /><rect x="276.5" y="16.5" width="9" height="9" class="st" style="animation-delay: 2005.235698025902ms" />
<rect x="276" y="29" width="10" height="10" class="count0" style="animation-delay: 2018.9583377190554ms" /><rect x="276.5" y="29.5" width="9" height="9" class="st" style="animation-delay: 2018.9583377190554ms" />
<rect x="276" y="42" width="10" height="10" class="count0" style="animation-delay: 2033.0760079580268ms" /><rect x="276.5" y="42.5" width="9" height="9" class="st" style="animation-delay: 2033.0760079580268ms" />
<rect x="276" y="55" width="10" height="10" class="count0" style="animation-delay: 2047.6184275797686ms" /><rect x="276.5" y="55.5" width="9" height="9" class="st" style="animation-delay: 2047.6184275797686ms" />
<rect x="276" y="68" width="10" height="10" class="count0" style="animation-delay: 2062.6190627394058ms" /><rect x="276.5" y="68.5" width="9" height="9" class="st" style="animation-delay: 2062.6190627394058ms" />
<rect x="276" y="81" width="10" height="10" class="count0" style="animation-delay: 2078.115809040895ms" /><rect x="276.5" y="81.5" width="9" height="9" class="st" style="animation-delay: 2078.115809040895ms" />
<rect x="289" y="3" width="10" height="10" class="count1" style="animation-delay: 2094.1518400072086ms" /><rect x="289.5" y="3.5" width="9" height="9" class="st" style="animation-delay: 2094.1518400072086ms" />
<rect x="289" y="16" width="10" height="10" class="count0" style="animation-delay: 2110.7766738774844ms" /><rect x="289.5" y="16.5" width="9" height="9" class="st" style="animation-delay: 2110.7766738774844ms" />
<rect x="289" y="29" width="10" height="10" class="count0" style="animation-delay: 2128.0475309573894ms" /><rect x="289.5" y="29.5" width="9" height="9" class="st" style="animation-delay: 2128.0475309573894ms" />
<rect x="289" y="42" width="10" height="10" class="count0" style="animation-delay: 2146.0310836146446ms" /><rect x="289.5" y="42.5" width="9" height="9" class="st" style="animation-delay: 2146.0310836146446ms" />
<rect x="289" y="55" width="10" height="10" class="count1" style="animation-delay: 2164.8057460256655ms" /><rect x="289.5" y="55.5" width="9" height="9" class="st" style="animation-delay: 2164.8057460256655ms" />
<rect x="289" y="68" width="10" height="10" class="count0" style="animation-delay: 2184.464720247831ms" /><rect x="289.5" y="68.5" width="9" height="9" class="st" style="animation-delay: 2184.464720247831ms" />
<rect x="289" y="81" width="10" height="10" class="count1" style="animation-delay: 2205.120125288755ms" /><rect x="289.5" y="81.5" width="9" height="9" class="st" style="animation-delay: 2205.120125288755ms" />
<rect x="302" y="3" width="10" height="10" class="count0" style="animation-delay: 2226.908715669599ms" /><rect x="302.5" y="3.5" width="9" height="9" class="st" style="animation-delay: 2226.908715669599ms" />
<rect x="302" y="16" width="10" height="10" class="count0" style="animation-delay: 2250ms" /><rect x="302.5" y="16.5" width="9" height="9" class="st" style="animation-delay: 2250ms" />
<rect x="302" y="29" width="10" height="10" class="count2" style="animation-delay: 2274.6081049727995ms" /><rect x="302.5" y="29.5" width="9" height="9" class="st" style="animation-delay: 2274.6081049727995ms" />
<rect x="302" y="42" width="10" height="10" class="count1" style="animation-delay: 2301.0097162136444ms" /><rect x="302.5" y="42.5" width="9" height="9" class="st" style="animation-delay: 2301.0097162136444ms" />
<rect x="302" y="55" width="10" height="10" class="count0" style="animation-delay: 2329.5723486775746ms" /><rect x="302.5" y="55.5" width="9" height="9" class="st" style="animation-delay: 2329.5723486775746ms" />
<rect x="302" y="68" width="10" height="10" class="count0" style="animation-delay: 2360.801202552891ms" /><rect x="302.5" y="68.5" width="9" height="9" class="st" style="animation-delay: 2360.801202552891ms" />
<rect x="302" y="81" width="10" height="10" class="count0" style="animation-delay: 2395.421924891433ms" /><rect x="302.5" y="81.5" width="9" height="9" class="st" style="animation-delay: 2395.421924891433ms" />
<rect x="315" y="3" width="10" height="10" class="count0" style="animation-delay: 2434.5394191531345ms" /><rect x="315.5" y="3.5" width="9" height="9" class="st" style="animation-delay: 2434.5394191531345ms" />
<rect x="315" y="16" width="10" height="10" class="count0" style="animation-delay: 2479.9790442370236ms" /><rect x="315.5" y="16.5" width="9" height="9" class="st" style="animation-delay: 2479.9790442370236ms" />
<rect x="315" y="29" width="10" height="10" class="count1" style="animation-delay: 2535.151429319181ms" /><rect x="315.5" y="29.5" width="9" height="9" class="st" style="animation-delay: 2535.151429319181ms" />
<rect x="315" y="42" width="10" height="10" class="count2" style="animation-delay: 2607.9315310689676ms" /><rect x="315.5" y="42.5" width="9" height="9" class="st" style="animation-delay: 2607.9315310689676ms" />
<rect x="315" y="55" width="10" height="10" class="count1" style="animation-delay: 2728.154906749277ms" /><rect x="315.5" y="55.5" width="9" height="9" class="st" style="animation-delay: 2728.154906749277ms" />
</svg>

  