

<svg height="94" width="159" xmlns="http://www.w3.org/2000/svg" fill='#4FA1A7'>
  <style>
  rect {
  rx: 2;
  ry: 2;
  animation: wow .5s backwards;
  }
  .st {
  
  stroke: rgba(27, 31, 35, 0.06);
  stroke-width: 1;
  fill: none;
  }
  @keyframes wow {
  from {opacity: 0;}
  to{ opacity: 1;}}
  .count0 {fill: #ebedf0}
.count1 {fill: #9be9a8}
.count2 {fill: #9be9a8}
.count3 {fill: #40c463}
.count4 {fill: #40c463}
.count5 {fill: #30a14e}
.count6 {fill: #30a14e}
.count7 {fill: #216e39}
.count8 {fill: #216e39}
  </style>
<rect x="3" y="29" width="10" height="10" class="count3" style="animation-delay: 352.58271474064077ms" /><rect x="3.5" y="29.5" width="9" height="9" class="st" style="animation-delay: 352.58271474064077ms" />
<rect x="3" y="42" width="10" height="10" class="count3" style="animation-delay: 508.51226883250865ms" /><rect x="3.5" y="42.5" width="9" height="9" class="st" style="animation-delay: 508.51226883250865ms" />
<rect x="3" y="55" width="10" height="10" class="count1" style="animation-delay: 602.9079614204669ms" /><rect x="3.5" y="55.5" width="9" height="9" class="st" style="animation-delay: 602.9079614204669ms" />
<rect x="3" y="68" width="10" height="10" class="count2" style="animation-delay: 674.4664695339137ms" /><rect x="3.5" y="68.5" width="9" height="9" class="st" style="animation-delay: 674.4664695339137ms" />
<rect x="3" y="81" width="10" height="10" class="count5" style="animation-delay: 733.4016012197309ms" /><rect x="3.5" y="81.5" width="9" height="9" class="st" style="animation-delay: 733.4016012197309ms" />
<rect x="16" y="3" width="10" height="10" class="count1" style="animation-delay: 784.1369378620653ms" /><rect x="16.5" y="3.5" width="9" height="9" class="st" style="animation-delay: 784.1369378620653ms" />
<rect x="16" y="16" width="10" height="10" class="count3" style="animation-delay: 829.0399674604214ms" /><rect x="16.5" y="16.5" width="9" height="9" class="st" style="animation-delay: 829.0399674604214ms" />
<rect x="16" y="29" width="10" height="10" class="count2" style="animation-delay: 869.5437482935839ms" /><rect x="16.5" y="29.5" width="9" height="9" class="st" style="animation-delay: 869.5437482935839ms" />
<rect x="16" y="42" width="10" height="10" class="count2" style="animation-delay: 906.5894435969136ms" /><rect x="16.5" y="42.5" width="9" height="9" class="st" style="animation-delay: 906.5894435969136ms" />
<rect x="16" y="55" width="10" height="10" class="count2" style="animation-delay: 940.8322973247849ms" /><rect x="16.5" y="55.5" width="9" height="9" class="st" style="animation-delay: 940.8322973247849ms" />
<rect x="16" y="68" width="10" height="10" class="count1" style="animation-delay: 972.7489758720418ms" /><rect x="16.5" y="68.5" width="9" height="9" class="st" style="animation-delay: 972.7489758720418ms" />
<rect x="16" y="81" width="10" height="10" class="count2" style="animation-delay: 1002.698340117332ms" /><rect x="16.5" y="81.5" width="9" height="9" class="st" style="animation-delay: 1002.698340117332ms" />
<rect x="29" y="3" width="10" height="10" class="count2" style="animation-delay: 1030.9581120888804ms" /><rect x="29.5" y="3.5" width="9" height="9" class="st" style="animation-delay: 1030.9581120888804ms" />
<rect x="29" y="16" width="10" height="10" class="count1" style="animation-delay: 1057.7481442219223ms" /><rect x="29.5" y="16.5" width="9" height="9" class="st" style="animation-delay: 1057.7481442219223ms" />
<rect x="29" y="29" width="10" height="10" class="count3" style="animation-delay: 1083.2458069436639ms" /><rect x="29.5" y="29.5" width="9" height="9" class="st" style="animation-delay: 1083.2458069436639ms" />
<rect x="29" y="42" width="10" height="10" class="count2" style="animation-delay: 1107.5965184538825ms" /><rect x="29.5" y="42.5" width="9" height="9" class="st" style="animation-delay: 1107.5965184538825ms" />
<rect x="29" y="55" width="10" height="10" class="count1" style="animation-delay: 1130.9211616937307ms" /><rect x="29.5" y="55.5" width="9" height="9" class="st" style="animation-delay: 1130.9211616937307ms" />
<rect x="29" y="68" width="10" height="10" class="count1" style="animation-delay: 1153.3214397429438ms" /><rect x="29.5" y="68.5" width="9" height="9" class="st" style="animation-delay: 1153.3214397429438ms" />
<rect x="29" y="81" width="10" height="10" class="count2" style="animation-delay: 1174.8838265714148ms" /><rect x="29.5" y="81.5" width="9" height="9" class="st" style="animation-delay: 1174.8838265714148ms" />
<rect x="42" y="3" width="10" height="10" class="count1" style="animation-delay: 1195.6825368374605ms" /><rect x="42.5" y="3.5" width="9" height="9" class="st" style="animation-delay: 1195.6825368374605ms" />
<rect x="42" y="16" width="10" height="10" class="count1" style="animation-delay: 1215.7817956296237ms" /><rect x="42.5" y="16.5" width="9" height="9" class="st" style="animation-delay: 1215.7817956296237ms" />
<rect x="42" y="29" width="10" height="10" class="count1" style="animation-delay: 1235.2375989482464ms" /><rect x="42.5" y="29.5" width="9" height="9" class="st" style="animation-delay: 1235.2375989482464ms" />
<rect x="42" y="42" width="10" height="10" class="count1" style="animation-delay: 1254.0990973399148ms" /><rect x="42.5" y="42.5" width="9" height="9" class="st" style="animation-delay: 1254.0990973399148ms" />
<rect x="42" y="55" width="10" height="10" class="count1" style="animation-delay: 1272.409696362126ms" /><rect x="42.5" y="55.5" width="9" height="9" class="st" style="animation-delay: 1272.409696362126ms" />
<rect x="42" y="68" width="10" height="10" class="count1" style="animation-delay: 1290.2079413058273ms" /><rect x="42.5" y="68.5" width="9" height="9" class="st" style="animation-delay: 1290.2079413058273ms" />
<rect x="42" y="81" width="10" height="10" class="count2" style="animation-delay: 1307.528235472881ms" /><rect x="42.5" y="81.5" width="9" height="9" class="st" style="animation-delay: 1307.528235472881ms" />
<rect x="55" y="3" width="10" height="10" class="count3" style="animation-delay: 1324.4014285648607ms" /><rect x="55.5" y="3.5" width="9" height="9" class="st" style="animation-delay: 1324.4014285648607ms" />
<rect x="55" y="16" width="10" height="10" class="count3" style="animation-delay: 1340.8553026448515ms" /><rect x="55.5" y="16.5" width="9" height="9" class="st" style="animation-delay: 1340.8553026448515ms" />
<rect x="55" y="29" width="10" height="10" class="count1" style="animation-delay: 1356.914976548003ms" /><rect x="55.5" y="29.5" width="9" height="9" class="st" style="animation-delay: 1356.914976548003ms" />
<rect x="55" y="42" width="10" height="10" class="count2" style="animation-delay: 1372.6032447841785ms" /><rect x="55.5" y="42.5" width="9" height="9" class="st" style="animation-delay: 1372.6032447841785ms" />
<rect x="55" y="55" width="10" height="10" class="count0" style="animation-delay: 1387.9408633870494ms" /><rect x="55.5" y="55.5" width="9" height="9" class="st" style="animation-delay: 1387.9408633870494ms" />
<rect x="55" y="68" width="10" height="10" class="count2" style="animation-delay: 1402.946792468424ms" /><rect x="55.5" y="68.5" width="9" height="9" class="st" style="animation-delay: 1402.946792468424ms" />
<rect x="55" y="81" width="10" height="10" class="count2" style="animation-delay: 1417.6384031909522ms" /><rect x="55.5" y="81.5" width="9" height="9" class="st" style="animation-delay: 1417.6384031909522ms" />
<rect x="68" y="3" width="10" height="10" class="count1" style="animation-delay: 1432.0316553048303ms" /><rect x="68.5" y="3.5" width="9" height="9" class="st" style="animation-delay: 1432.0316553048303ms" />
<rect x="68" y="16" width="10" height="10" class="count2" style="animation-delay: 1446.1412501821737ms" /><rect x="68.5" y="16.5" width="9" height="9" class="st" style="animation-delay: 1446.1412501821737ms" />
<rect x="68" y="29" width="10" height="10" class="count2" style="animation-delay: 1459.9807633377397ms" /><rect x="68.5" y="29.5" width="9" height="9" class="st" style="animation-delay: 1459.9807633377397ms" />
<rect x="68" y="42" width="10" height="10" class="count1" style="animation-delay: 1473.5627596820625ms" /><rect x="68.5" y="42.5" width="9" height="9" class="st" style="animation-delay: 1473.5627596820625ms" />
<rect x="68" y="55" width="10" height="10" class="count1" style="animation-delay: 1486.8988941651248ms" /><rect x="68.5" y="55.5" width="9" height="9" class="st" style="animation-delay: 1486.8988941651248ms" />
<rect x="68" y="68" width="10" height="10" class="count3" style="animation-delay: 1500ms" /><rect x="68.5" y="68.5" width="9" height="9" class="st" style="animation-delay: 1500ms" />
<rect x="68" y="81" width="10" height="10" class="count5" style="animation-delay: 1513.1011058348752ms" /><rect x="68.5" y="81.5" width="9" height="9" class="st" style="animation-delay: 1513.1011058348752ms" />
<rect x="81" y="3" width="10" height="10" class="count2" style="animation-delay: 1526.4372403179375ms" /><rect x="81.5" y="3.5" width="9" height="9" class="st" style="animation-delay: 1526.4372403179375ms" />
<rect x="81" y="16" width="10" height="10" class="count4" style="animation-delay: 1540.01923666226ms" /><rect x="81.5" y="16.5" width="9" height="9" class="st" style="animation-delay: 1540.01923666226ms" />
<rect x="81" y="29" width="10" height="10" class="count5" style="animation-delay: 1553.8587498178263ms" /><rect x="81.5" y="29.5" width="9" height="9" class="st" style="animation-delay: 1553.8587498178263ms" />
<rect x="81" y="42" width="10" height="10" class="count5" style="animation-delay: 1567.9683446951697ms" /><rect x="81.5" y="42.5" width="9" height="9" class="st" style="animation-delay: 1567.9683446951697ms" />
<rect x="81" y="55" width="10" height="10" class="count5" style="animation-delay: 1582.3615968090476ms" /><rect x="81.5" y="55.5" width="9" height="9" class="st" style="animation-delay: 1582.3615968090476ms" />
<rect x="81" y="68" width="10" height="10" class="count3" style="animation-delay: 1597.053207531576ms" /><rect x="81.5" y="68.5" width="9" height="9" class="st" style="animation-delay: 1597.053207531576ms" />
<rect x="81" y="81" width="10" height="10" class="count5" style="animation-delay: 1612.0591366129509ms" /><rect x="81.5" y="81.5" width="9" height="9" class="st" style="animation-delay: 1612.0591366129509ms" />
<rect x="94" y="3" width="10" height="10" class="count6" style="animation-delay: 1627.3967552158213ms" /><rect x="94.5" y="3.5" width="9" height="9" class="st" style="animation-delay: 1627.3967552158213ms" />
<rect x="94" y="16" width="10" height="10" class="count2" style="animation-delay: 1643.0850234519971ms" /><rect x="94.5" y="16.5" width="9" height="9" class="st" style="animation-delay: 1643.0850234519971ms" />
<rect x="94" y="29" width="10" height="10" class="count2" style="animation-delay: 1659.1446973551485ms" /><rect x="94.5" y="29.5" width="9" height="9" class="st" style="animation-delay: 1659.1446973551485ms" />
<rect x="94" y="42" width="10" height="10" class="count1" style="animation-delay: 1675.5985714351393ms" /><rect x="94.5" y="42.5" width="9" height="9" class="st" style="animation-delay: 1675.5985714351393ms" />
<rect x="94" y="55" width="10" height="10" class="count4" style="animation-delay: 1692.471764527119ms" /><rect x="94.5" y="55.5" width="9" height="9" class="st" style="animation-delay: 1692.471764527119ms" />
<rect x="94" y="68" width="10" height="10" class="count1" style="animation-delay: 1709.7920586941725ms" /><rect x="94.5" y="68.5" width="9" height="9" class="st" style="animation-delay: 1709.7920586941725ms" />
<rect x="94" y="81" width="10" height="10" class="count0" style="animation-delay: 1727.5903036378736ms" /><rect x="94.5" y="81.5" width="9" height="9" class="st" style="animation-delay: 1727.5903036378736ms" />
<rect x="107" y="3" width="10" height="10" class="count1" style="animation-delay: 1745.900902660085ms" /><rect x="107.5" y="3.5" width="9" height="9" class="st" style="animation-delay: 1745.900902660085ms" />
<rect x="107" y="16" width="10" height="10" class="count4" style="animation-delay: 1764.7624010517534ms" /><rect x="107.5" y="16.5" width="9" height="9" class="st" style="animation-delay: 1764.7624010517534ms" />
<rect x="107" y="29" width="10" height="10" class="count4" style="animation-delay: 1784.2182043703765ms" /><rect x="107.5" y="29.5" width="9" height="9" class="st" style="animation-delay: 1784.2182043703765ms" />
<rect x="107" y="42" width="10" height="10" class="count5" style="animation-delay: 1804.317463162539ms" /><rect x="107.5" y="42.5" width="9" height="9" class="st" style="animation-delay: 1804.317463162539ms" />
<rect x="107" y="55" width="10" height="10" class="count3" style="animation-delay: 1825.1161734285852ms" /><rect x="107.5" y="55.5" width="9" height="9" class="st" style="animation-delay: 1825.1161734285852ms" />
<rect x="107" y="68" width="10" height="10" class="count4" style="animation-delay: 1846.6785602570562ms" /><rect x="107.5" y="68.5" width="9" height="9" class="st" style="animation-delay: 1846.6785602570562ms" />
<rect x="107" y="81" width="10" height="10" class="count6" style="animation-delay: 1869.0788383062693ms" /><rect x="107.5" y="81.5" width="9" height="9" class="st" style="animation-delay: 1869.0788383062693ms" />
<rect x="120" y="3" width="10" height="10" class="count6" style="animation-delay: 1892.4034815461175ms" /><rect x="120.5" y="3.5" width="9" height="9" class="st" style="animation-delay: 1892.4034815461175ms" />
<rect x="120" y="16" width="10" height="10" class="count6" style="animation-delay: 1916.754193056336ms" /><rect x="120.5" y="16.5" width="9" height="9" class="st" style="animation-delay: 1916.754193056336ms" />
<rect x="120" y="29" width="10" height="10" class="count8" style="animation-delay: 1942.2518557780777ms" /><rect x="120.5" y="29.5" width="9" height="9" class="st" style="animation-delay: 1942.2518557780777ms" />
<rect x="120" y="42" width="10" height="10" class="count7" style="animation-delay: 1969.0418879111194ms" /><rect x="120.5" y="42.5" width="9" height="9" class="st" style="animation-delay: 1969.0418879111194ms" />
<rect x="120" y="55" width="10" height="10" class="count5" style="animation-delay: 1997.3016598826678ms" /><rect x="120.5" y="55.5" width="9" height="9" class="st" style="animation-delay: 1997.3016598826678ms" />
<rect x="120" y="68" width="10" height="10" class="count5" style="animation-delay: 2027.251024127958ms" /><rect x="120.5" y="68.5" width="9" height="9" class="st" style="animation-delay: 2027.251024127958ms" />
<rect x="120" y="81" width="10" height="10" class="count5" style="animation-delay: 2059.167702675215ms" /><rect x="120.5" y="81.5" width="9" height="9" class="st" style="animation-delay: 2059.167702675215ms" />
<rect x="133" y="3" width="10" height="10" class="count5" style="animation-delay: 2093.410556403086ms" /><rect x="133.5" y="3.5" width="9" height="9" class="st" style="animation-delay: 2093.410556403086ms" />
<rect x="133" y="16" width="10" height="10" class="count7" style="animation-delay: 2130.456251706416ms" /><rect x="133.5" y="16.5" width="9" height="9" class="st" style="animation-delay: 2130.456251706416ms" />
<rect x="133" y="29" width="10" height="10" class="count3" style="animation-delay: 2170.9600325395786ms" /><rect x="133.5" y="29.5" width="9" height="9" class="st" style="animation-delay: 2170.9600325395786ms" />
<rect x="133" y="42" width="10" height="10" class="count5" style="animation-delay: 2215.863062137935ms" /><rect x="133.5" y="42.5" width="9" height="9" class="st" style="animation-delay: 2215.863062137935ms" />
<rect x="133" y="55" width="10" height="10" class="count6" style="animation-delay: 2266.5983987802692ms" /><rect x="133.5" y="55.5" width="9" height="9" class="st" style="animation-delay: 2266.5983987802692ms" />
<rect x="133" y="68" width="10" height="10" class="count4" style="animation-delay: 2325.533530466086ms" /><rect x="133.5" y="68.5" width="9" height="9" class="st" style="animation-delay: 2325.533530466086ms" />
<rect x="133" y="81" width="10" height="10" class="count3" style="animation-delay: 2397.0920385795334ms" /><rect x="133.5" y="81.5" width="9" height="9" class="st" style="animation-delay: 2397.0920385795334ms" />
<rect x="146" y="3" width="10" height="10" class="count3" style="animation-delay: 2491.487731167492ms" /><rect x="146.5" y="3.5" width="9" height="9" class="st" style="animation-delay: 2491.487731167492ms" />
<rect x="146" y="16" width="10" height="10" class="count3" style="animation-delay: 2647.41728525936ms" /><rect x="146.5" y="16.5" width="9" height="9" class="st" style="animation-delay: 2647.41728525936ms" />
</svg>

  