

<svg height="94" width="341" xmlns="http://www.w3.org/2000/svg" fill='#4FA1A7'>
  <style>
  rect {
  rx: 2;
  ry: 2;
  animation: wow .5s backwards;
  }
  .st {
  
  stroke: rgba(27, 31, 35, 0.06);
  stroke-width: 1;
  fill: none;
  }
  @keyframes wow {
  from {opacity: 0;}
  to{ opacity: 1;}}
  .count0 {fill: #ebedf0}
.count1 {fill: #9be9a8}
.count2 {fill: #9be9a8}
.count3 {fill: #40c463}
.count4 {fill: #40c463}
.count5 {fill: #30a14e}
.count6 {fill: #30a14e}
.count7 {fill: #216e39}
.count8 {fill: #216e39}
  </style>
<rect x="3" y="68" width="10" height="10" class="count3" style="animation-delay: 268.68381715137093ms" /><rect x="3.5" y="68.5" width="9" height="9" class="st" style="animation-delay: 268.68381715137093ms" />
<rect x="3" y="81" width="10" height="10" class="count3" style="animation-delay: 387.50911983511907ms" /><rect x="3.5" y="81.5" width="9" height="9" class="st" style="animation-delay: 387.50911983511907ms" />
<rect x="16" y="3" width="10" height="10" class="count1" style="animation-delay: 459.44286459012415ms" /><rect x="16.5" y="3.5" width="9" height="9" class="st" style="animation-delay: 459.44286459012415ms" />
<rect x="16" y="16" width="10" height="10" class="count2" style="animation-delay: 513.9736521351724ms" /><rect x="16.5" y="16.5" width="9" height="9" class="st" style="animation-delay: 513.9736521351724ms" />
<rect x="16" y="29" width="10" height="10" class="count5" style="animation-delay: 558.8848615724025ms" /><rect x="16.5" y="29.5" width="9" height="9" class="st" style="animation-delay: 558.8848615724025ms" />
<rect x="16" y="42" width="10" height="10" class="count1" style="animation-delay: 597.5474600028155ms" /><rect x="16.5" y="42.5" width="9" height="9" class="st" style="animation-delay: 597.5474600028155ms" />
<rect x="16" y="55" width="10" height="10" class="count3" style="animation-delay: 631.7655792972399ms" /><rect x="16.5" y="55.5" width="9" height="9" class="st" style="animation-delay: 631.7655792972399ms" />
<rect x="16" y="68" width="10" height="10" class="count2" style="animation-delay: 662.6312740359114ms" /><rect x="16.5" y="68.5" width="9" height="9" class="st" style="animation-delay: 662.6312740359114ms" />
<rect x="16" y="81" width="10" height="10" class="count2" style="animation-delay: 690.8617527491036ms" /><rect x="16.5" y="81.5" width="9" height="9" class="st" style="animation-delay: 690.8617527491036ms" />
<rect x="29" y="3" width="10" height="10" class="count2" style="animation-delay: 716.9563406716239ms" /><rect x="29.5" y="3.5" width="9" height="9" class="st" style="animation-delay: 716.9563406716239ms" />
<rect x="29" y="16" width="10" height="10" class="count1" style="animation-delay: 741.2782789412818ms" /><rect x="29.5" y="16.5" width="9" height="9" class="st" style="animation-delay: 741.2782789412818ms" />
<rect x="29" y="29" width="10" height="10" class="count2" style="animation-delay: 764.1010356172595ms" /><rect x="29.5" y="29.5" width="9" height="9" class="st" style="animation-delay: 764.1010356172595ms" />
<rect x="29" y="42" width="10" height="10" class="count2" style="animation-delay: 785.636247321351ms" /><rect x="29.5" y="42.5" width="9" height="9" class="st" style="animation-delay: 785.636247321351ms" />
<rect x="29" y="55" width="10" height="10" class="count1" style="animation-delay: 806.0514514541129ms" /><rect x="29.5" y="55.5" width="9" height="9" class="st" style="animation-delay: 806.0514514541129ms" />
<rect x="29" y="68" width="10" height="10" class="count3" style="animation-delay: 825.4818122236567ms" /><rect x="29.5" y="68.5" width="9" height="9" class="st" style="animation-delay: 825.4818122236567ms" />
<rect x="29" y="81" width="10" height="10" class="count2" style="animation-delay: 844.0381448099835ms" /><rect x="29.5" y="81.5" width="9" height="9" class="st" style="animation-delay: 844.0381448099835ms" />
<rect x="42" y="3" width="10" height="10" class="count1" style="animation-delay: 861.8125674273438ms" /><rect x="42.5" y="3.5" width="9" height="9" class="st" style="animation-delay: 861.8125674273438ms" />
<rect x="42" y="16" width="10" height="10" class="count1" style="animation-delay: 878.8825823767207ms" /><rect x="42.5" y="16.5" width="9" height="9" class="st" style="animation-delay: 878.8825823767207ms" />
<rect x="42" y="29" width="10" height="10" class="count2" style="animation-delay: 895.3140866954441ms" /><rect x="42.5" y="29.5" width="9" height="9" class="st" style="animation-delay: 895.3140866954441ms" />
<rect x="42" y="42" width="10" height="10" class="count1" style="animation-delay: 911.1636352764554ms" /><rect x="42.5" y="42.5" width="9" height="9" class="st" style="animation-delay: 911.1636352764554ms" />
<rect x="42" y="55" width="10" height="10" class="count1" style="animation-delay: 926.4801705131985ms" /><rect x="42.5" y="55.5" width="9" height="9" class="st" style="animation-delay: 926.4801705131985ms" />
<rect x="42" y="68" width="10" height="10" class="count1" style="animation-delay: 941.3063638654143ms" /><rect x="42.5" y="68.5" width="9" height="9" class="st" style="animation-delay: 941.3063638654143ms" />
<rect x="42" y="81" width="10" height="10" class="count1" style="animation-delay: 955.6796702505438ms" /><rect x="42.5" y="81.5" width="9" height="9" class="st" style="animation-delay: 955.6796702505438ms" />
<rect x="55" y="3" width="10" height="10" class="count1" style="animation-delay: 969.6331666470838ms" /><rect x="55.5" y="3.5" width="9" height="9" class="st" style="animation-delay: 969.6331666470838ms" />
<rect x="55" y="16" width="10" height="10" class="count1" style="animation-delay: 983.1962262927798ms" /><rect x="55.5" y="16.5" width="9" height="9" class="st" style="animation-delay: 983.1962262927798ms" />
<rect x="55" y="29" width="10" height="10" class="count2" style="animation-delay: 996.3950660442175ms" /><rect x="55.5" y="29.5" width="9" height="9" class="st" style="animation-delay: 996.3950660442175ms" />
<rect x="55" y="42" width="10" height="10" class="count3" style="animation-delay: 1009.2531947554342ms" /><rect x="55.5" y="42.5" width="9" height="9" class="st" style="animation-delay: 1009.2531947554342ms" />
<rect x="55" y="55" width="10" height="10" class="count3" style="animation-delay: 1021.7917836025699ms" /><rect x="55.5" y="55.5" width="9" height="9" class="st" style="animation-delay: 1021.7917836025699ms" />
<rect x="55" y="68" width="10" height="10" class="count1" style="animation-delay: 1034.0299742628215ms" /><rect x="55.5" y="68.5" width="9" height="9" class="st" style="animation-delay: 1034.0299742628215ms" />
<rect x="55" y="81" width="10" height="10" class="count2" style="animation-delay: 1045.9851371734337ms" /><rect x="55.5" y="81.5" width="9" height="9" class="st" style="animation-delay: 1045.9851371734337ms" />
<rect x="68" y="3" width="10" height="10" class="count0" style="animation-delay: 1057.673089361511ms" /><rect x="68.5" y="3.5" width="9" height="9" class="st" style="animation-delay: 1057.673089361511ms" />
<rect x="68" y="16" width="10" height="10" class="count2" style="animation-delay: 1069.1082792812788ms" /><rect x="68.5" y="16.5" width="9" height="9" class="st" style="animation-delay: 1069.1082792812788ms" />
<rect x="68" y="29" width="10" height="10" class="count2" style="animation-delay: 1080.3039445365498ms" /><rect x="68.5" y="29.5" width="9" height="9" class="st" style="animation-delay: 1080.3039445365498ms" />
<rect x="68" y="42" width="10" height="10" class="count1" style="animation-delay: 1091.2722471716452ms" /><rect x="68.5" y="42.5" width="9" height="9" class="st" style="animation-delay: 1091.2722471716452ms" />
<rect x="68" y="55" width="10" height="10" class="count2" style="animation-delay: 1102.0243902904385ms" /><rect x="68.5" y="55.5" width="9" height="9" class="st" style="animation-delay: 1102.0243902904385ms" />
<rect x="68" y="68" width="10" height="10" class="count2" style="animation-delay: 1112.5707190430815ms" /><rect x="68.5" y="68.5" width="9" height="9" class="st" style="animation-delay: 1112.5707190430815ms" />
<rect x="68" y="81" width="10" height="10" class="count1" style="animation-delay: 1122.9208084540526ms" /><rect x="68.5" y="81.5" width="9" height="9" class="st" style="animation-delay: 1122.9208084540526ms" />
<rect x="81" y="3" width="10" height="10" class="count1" style="animation-delay: 1133.0835401171432ms" /><rect x="81.5" y="3.5" width="9" height="9" class="st" style="animation-delay: 1133.0835401171432ms" />
<rect x="81" y="16" width="10" height="10" class="count3" style="animation-delay: 1143.0671694258226ms" /><rect x="81.5" y="16.5" width="9" height="9" class="st" style="animation-delay: 1143.0671694258226ms" />
<rect x="81" y="29" width="10" height="10" class="count5" style="animation-delay: 1152.87938472082ms" /><rect x="81.5" y="29.5" width="9" height="9" class="st" style="animation-delay: 1152.87938472082ms" />
<rect x="81" y="42" width="10" height="10" class="count2" style="animation-delay: 1162.527359505357ms" /><rect x="81.5" y="42.5" width="9" height="9" class="st" style="animation-delay: 1162.527359505357ms" />
<rect x="81" y="55" width="10" height="10" class="count4" style="animation-delay: 1172.0177986905296ms" /><rect x="81.5" y="55.5" width="9" height="9" class="st" style="animation-delay: 1172.0177986905296ms" />
<rect x="81" y="68" width="10" height="10" class="count5" style="animation-delay: 1181.3569796798706ms" /><rect x="81.5" y="68.5" width="9" height="9" class="st" style="animation-delay: 1181.3569796798706ms" />
<rect x="81" y="81" width="10" height="10" class="count5" style="animation-delay: 1190.5507889761498ms" /><rect x="81.5" y="81.5" width="9" height="9" class="st" style="animation-delay: 1190.5507889761498ms" />
<rect x="94" y="3" width="10" height="10" class="count5" style="animation-delay: 1199.6047548895162ms" /><rect x="94.5" y="3.5" width="9" height="9" class="st" style="animation-delay: 1199.6047548895162ms" />
<rect x="94" y="16" width="10" height="10" class="count3" style="animation-delay: 1208.5240768399526ms" /><rect x="94.5" y="16.5" width="9" height="9" class="st" style="animation-delay: 1208.5240768399526ms" />
<rect x="94" y="29" width="10" height="10" class="count5" style="animation-delay: 1217.3136516752606ms" /><rect x="94.5" y="29.5" width="9" height="9" class="st" style="animation-delay: 1217.3136516752606ms" />
<rect x="94" y="42" width="10" height="10" class="count6" style="animation-delay: 1225.9780973658205ms" /><rect x="94.5" y="42.5" width="9" height="9" class="st" style="animation-delay: 1225.9780973658205ms" />
<rect x="94" y="55" width="10" height="10" class="count2" style="animation-delay: 1234.5217743869973ms" /><rect x="94.5" y="55.5" width="9" height="9" class="st" style="animation-delay: 1234.5217743869973ms" />
<rect x="94" y="68" width="10" height="10" class="count2" style="animation-delay: 1242.948805057611ms" /><rect x="94.5" y="68.5" width="9" height="9" class="st" style="animation-delay: 1242.948805057611ms" />
<rect x="94" y="81" width="10" height="10" class="count1" style="animation-delay: 1251.2630910669618ms" /><rect x="94.5" y="81.5" width="9" height="9" class="st" style="animation-delay: 1251.2630910669618ms" />
<rect x="107" y="3" width="10" height="10" class="count4" style="animation-delay: 1259.468329392407ms" /><rect x="107.5" y="3.5" width="9" height="9" class="st" style="animation-delay: 1259.468329392407ms" />
<rect x="107" y="16" width="10" height="10" class="count1" style="animation-delay: 1267.568026783491ms" /><rect x="107.5" y="16.5" width="9" height="9" class="st" style="animation-delay: 1267.568026783491ms" />
<rect x="107" y="29" width="10" height="10" class="count0" style="animation-delay: 1275.5655129664187ms" /><rect x="107.5" y="29.5" width="9" height="9" class="st" style="animation-delay: 1275.5655129664187ms" />
<rect x="107" y="42" width="10" height="10" class="count1" style="animation-delay: 1283.4639527036086ms" /><rect x="107.5" y="42.5" width="9" height="9" class="st" style="animation-delay: 1283.4639527036086ms" />
<rect x="107" y="55" width="10" height="10" class="count4" style="animation-delay: 1291.2663568266742ms" /><rect x="107.5" y="55.5" width="9" height="9" class="st" style="animation-delay: 1291.2663568266742ms" />
<rect x="107" y="68" width="10" height="10" class="count4" style="animation-delay: 1298.9755923470527ms" /><rect x="107.5" y="68.5" width="9" height="9" class="st" style="animation-delay: 1298.9755923470527ms" />
<rect x="107" y="81" width="10" height="10" class="count5" style="animation-delay: 1306.594391736268ms" /><rect x="107.5" y="81.5" width="9" height="9" class="st" style="animation-delay: 1306.594391736268ms" />
<rect x="120" y="3" width="10" height="10" class="count3" style="animation-delay: 1314.1253614572038ms" /><rect x="120.5" y="3.5" width="9" height="9" class="st" style="animation-delay: 1314.1253614572038ms" />
<rect x="120" y="16" width="10" height="10" class="count4" style="animation-delay: 1321.5709898185487ms" /><rect x="120.5" y="16.5" width="9" height="9" class="st" style="animation-delay: 1321.5709898185487ms" />
<rect x="120" y="29" width="10" height="10" class="count6" style="animation-delay: 1328.9336542165258ms" /><rect x="120.5" y="29.5" width="9" height="9" class="st" style="animation-delay: 1328.9336542165258ms" />
<rect x="120" y="42" width="10" height="10" class="count6" style="animation-delay: 1336.215627820995ms" /><rect x="120.5" y="42.5" width="9" height="9" class="st" style="animation-delay: 1336.215627820995ms" />
<rect x="120" y="55" width="10" height="10" class="count6" style="animation-delay: 1343.4190857568549ms" /><rect x="120.5" y="55.5" width="9" height="9" class="st" style="animation-delay: 1343.4190857568549ms" />
<rect x="120" y="68" width="10" height="10" class="count8" style="animation-delay: 1350.5461108262748ms" /><rect x="120.5" y="68.5" width="9" height="9" class="st" style="animation-delay: 1350.5461108262748ms" />
<rect x="120" y="81" width="10" height="10" class="count7" style="animation-delay: 1357.5986988125228ms" /><rect x="120.5" y="81.5" width="9" height="9" class="st" style="animation-delay: 1357.5986988125228ms" />
<rect x="133" y="3" width="10" height="10" class="count5" style="animation-delay: 1364.5787634019691ms" /><rect x="133.5" y="3.5" width="9" height="9" class="st" style="animation-delay: 1364.5787634019691ms" />
<rect x="133" y="16" width="10" height="10" class="count5" style="animation-delay: 1371.4881407571334ms" /><rect x="133.5" y="16.5" width="9" height="9" class="st" style="animation-delay: 1371.4881407571334ms" />
<rect x="133" y="29" width="10" height="10" class="count5" style="animation-delay: 1378.3285937703724ms" /><rect x="133.5" y="29.5" width="9" height="9" class="st" style="animation-delay: 1378.3285937703724ms" />
<rect x="133" y="42" width="10" height="10" class="count5" style="animation-delay: 1385.1018160248877ms" /><rect x="133.5" y="42.5" width="9" height="9" class="st" style="animation-delay: 1385.1018160248877ms" />
<rect x="133" y="55" width="10" height="10" class="count7" style="animation-delay: 1391.809435487155ms" /><rect x="133.5" y="55.5" width="9" height="9" class="st" style="animation-delay: 1391.809435487155ms" />
<rect x="133" y="68" width="10" height="10" class="count3" style="animation-delay: 1398.4530179525684ms" /><rect x="133.5" y="68.5" width="9" height="9" class="st" style="animation-delay: 1398.4530179525684ms" />
<rect x="133" y="81" width="10" height="10" class="count5" style="animation-delay: 1405.0340702640517ms" /><rect x="133.5" y="81.5" width="9" height="9" class="st" style="animation-delay: 1405.0340702640517ms" />
<rect x="146" y="3" width="10" height="10" class="count6" style="animation-delay: 1411.5540433215428ms" /><rect x="146.5" y="3.5" width="9" height="9" class="st" style="animation-delay: 1411.5540433215428ms" />
<rect x="146" y="16" width="10" height="10" class="count4" style="animation-delay: 1418.014334898627ms" /><rect x="146.5" y="16.5" width="9" height="9" class="st" style="animation-delay: 1418.014334898627ms" />
<rect x="146" y="29" width="10" height="10" class="count3" style="animation-delay: 1424.4162922811256ms" /><rect x="146.5" y="29.5" width="9" height="9" class="st" style="animation-delay: 1424.4162922811256ms" />
<rect x="146" y="42" width="10" height="10" class="count3" style="animation-delay: 1430.7612147411166ms" /><rect x="146.5" y="42.5" width="9" height="9" class="st" style="animation-delay: 1430.7612147411166ms" />
<rect x="146" y="55" width="10" height="10" class="count3" style="animation-delay: 1437.0503558586947ms" /><rect x="146.5" y="55.5" width="9" height="9" class="st" style="animation-delay: 1437.0503558586947ms" />
<rect x="146" y="68" width="10" height="10" class="count3" style="animation-delay: 1443.2849257026944ms" /><rect x="146.5" y="68.5" width="9" height="9" class="st" style="animation-delay: 1443.2849257026944ms" />
<rect x="146" y="81" width="10" height="10" class="count3" style="animation-delay: 1449.4660928806527ms" /><rect x="146.5" y="81.5" width="9" height="9" class="st" style="animation-delay: 1449.4660928806527ms" />
<rect x="159" y="3" width="10" height="10" class="count1" style="animation-delay: 1455.594986467404ms" /><rect x="159.5" y="3.5" width="9" height="9" class="st" style="animation-delay: 1455.594986467404ms" />
<rect x="159" y="16" width="10" height="10" class="count3" style="animation-delay: 1461.672697820932ms" /><rect x="159.5" y="16.5" width="9" height="9" class="st" style="animation-delay: 1461.672697820932ms" />
<rect x="159" y="29" width="10" height="10" class="count1" style="animation-delay: 1467.700282293374ms" /><rect x="159.5" y="29.5" width="9" height="9" class="st" style="animation-delay: 1467.700282293374ms" />
<rect x="159" y="42" width="10" height="10" class="count0" style="animation-delay: 1473.6787608444472ms" /><rect x="159.5" y="42.5" width="9" height="9" class="st" style="animation-delay: 1473.6787608444472ms" />
<rect x="159" y="55" width="10" height="10" class="count1" style="animation-delay: 1479.6091215639653ms" /><rect x="159.5" y="55.5" width="9" height="9" class="st" style="animation-delay: 1479.6091215639653ms" />
<rect x="159" y="68" width="10" height="10" class="count0" style="animation-delay: 1485.4923211095993ms" /><rect x="159.5" y="68.5" width="9" height="9" class="st" style="animation-delay: 1485.4923211095993ms" />
<rect x="159" y="81" width="10" height="10" class="count0" style="animation-delay: 1491.3292860655347ms" /><rect x="159.5" y="81.5" width="9" height="9" class="st" style="animation-delay: 1491.3292860655347ms" />
<rect x="172" y="3" width="10" height="10" class="count0" style="animation-delay: 1497.1209142272596ms" /><rect x="172.5" y="3.5" width="9" height="9" class="st" style="animation-delay: 1497.1209142272596ms" />
<rect x="172" y="16" width="10" height="10" class="count2" style="animation-delay: 1502.8790857727404ms" /><rect x="172.5" y="16.5" width="9" height="9" class="st" style="animation-delay: 1502.8790857727404ms" />
<rect x="172" y="29" width="10" height="10" class="count0" style="animation-delay: 1508.670713934465ms" /><rect x="172.5" y="29.5" width="9" height="9" class="st" style="animation-delay: 1508.670713934465ms" />
<rect x="172" y="42" width="10" height="10" class="count1" style="animation-delay: 1514.5076788904007ms" /><rect x="172.5" y="42.5" width="9" height="9" class="st" style="animation-delay: 1514.5076788904007ms" />
<rect x="172" y="55" width="10" height="10" class="count1" style="animation-delay: 1520.3908784360347ms" /><rect x="172.5" y="55.5" width="9" height="9" class="st" style="animation-delay: 1520.3908784360347ms" />
<rect x="172" y="68" width="10" height="10" class="count1" style="animation-delay: 1526.3212391555528ms" /><rect x="172.5" y="68.5" width="9" height="9" class="st" style="animation-delay: 1526.3212391555528ms" />
<rect x="172" y="81" width="10" height="10" class="count1" style="animation-delay: 1532.299717706626ms" /><rect x="172.5" y="81.5" width="9" height="9" class="st" style="animation-delay: 1532.299717706626ms" />
<rect x="185" y="3" width="10" height="10" class="count0" style="animation-delay: 1538.327302179068ms" /><rect x="185.5" y="3.5" width="9" height="9" class="st" style="animation-delay: 1538.327302179068ms" />
<rect x="185" y="16" width="10" height="10" class="count3" style="animation-delay: 1544.4050135325963ms" /><rect x="185.5" y="16.5" width="9" height="9" class="st" style="animation-delay: 1544.4050135325963ms" />
<rect x="185" y="29" width="10" height="10" class="count0" style="animation-delay: 1550.5339071193473ms" /><rect x="185.5" y="29.5" width="9" height="9" class="st" style="animation-delay: 1550.5339071193473ms" />
<rect x="185" y="42" width="10" height="10" class="count0" style="animation-delay: 1556.7150742973056ms" /><rect x="185.5" y="42.5" width="9" height="9" class="st" style="animation-delay: 1556.7150742973056ms" />
<rect x="185" y="55" width="10" height="10" class="count2" style="animation-delay: 1562.9496441413053ms" /><rect x="185.5" y="55.5" width="9" height="9" class="st" style="animation-delay: 1562.9496441413053ms" />
<rect x="185" y="68" width="10" height="10" class="count1" style="animation-delay: 1569.2387852588834ms" /><rect x="185.5" y="68.5" width="9" height="9" class="st" style="animation-delay: 1569.2387852588834ms" />
<rect x="185" y="81" width="10" height="10" class="count0" style="animation-delay: 1575.5837077188744ms" /><rect x="185.5" y="81.5" width="9" height="9" class="st" style="animation-delay: 1575.5837077188744ms" />
<rect x="198" y="3" width="10" height="10" class="count0" style="animation-delay: 1581.985665101373ms" /><rect x="198.5" y="3.5" width="9" height="9" class="st" style="animation-delay: 1581.985665101373ms" />
<rect x="198" y="16" width="10" height="10" class="count0" style="animation-delay: 1588.4459566784574ms" /><rect x="198.5" y="16.5" width="9" height="9" class="st" style="animation-delay: 1588.4459566784574ms" />
<rect x="198" y="29" width="10" height="10" class="count0" style="animation-delay: 1594.9659297359483ms" /><rect x="198.5" y="29.5" width="9" height="9" class="st" style="animation-delay: 1594.9659297359483ms" />
<rect x="198" y="42" width="10" height="10" class="count0" style="animation-delay: 1601.5469820474316ms" /><rect x="198.5" y="42.5" width="9" height="9" class="st" style="animation-delay: 1601.5469820474316ms" />
<rect x="198" y="55" width="10" height="10" class="count0" style="animation-delay: 1608.1905645128452ms" /><rect x="198.5" y="55.5" width="9" height="9" class="st" style="animation-delay: 1608.1905645128452ms" />
<rect x="198" y="68" width="10" height="10" class="count0" style="animation-delay: 1614.8981839751123ms" /><rect x="198.5" y="68.5" width="9" height="9" class="st" style="animation-delay: 1614.8981839751123ms" />
<rect x="198" y="81" width="10" height="10" class="count0" style="animation-delay: 1621.6714062296278ms" /><rect x="198.5" y="81.5" width="9" height="9" class="st" style="animation-delay: 1621.6714062296278ms" />
<rect x="211" y="3" width="10" height="10" class="count0" style="animation-delay: 1628.5118592428666ms" /><rect x="211.5" y="3.5" width="9" height="9" class="st" style="animation-delay: 1628.5118592428666ms" />
<rect x="211" y="16" width="10" height="10" class="count0" style="animation-delay: 1635.421236598031ms" /><rect x="211.5" y="16.5" width="9" height="9" class="st" style="animation-delay: 1635.421236598031ms" />
<rect x="211" y="29" width="10" height="10" class="count0" style="animation-delay: 1642.4013011874774ms" /><rect x="211.5" y="29.5" width="9" height="9" class="st" style="animation-delay: 1642.4013011874774ms" />
<rect x="211" y="42" width="10" height="10" class="count0" style="animation-delay: 1649.4538891737257ms" /><rect x="211.5" y="42.5" width="9" height="9" class="st" style="animation-delay: 1649.4538891737257ms" />
<rect x="211" y="55" width="10" height="10" class="count0" style="animation-delay: 1656.5809142431451ms" /><rect x="211.5" y="55.5" width="9" height="9" class="st" style="animation-delay: 1656.5809142431451ms" />
<rect x="211" y="68" width="10" height="10" class="count0" style="animation-delay: 1663.784372179005ms" /><rect x="211.5" y="68.5" width="9" height="9" class="st" style="animation-delay: 1663.784372179005ms" />
<rect x="211" y="81" width="10" height="10" class="count0" style="animation-delay: 1671.0663457834742ms" /><rect x="211.5" y="81.5" width="9" height="9" class="st" style="animation-delay: 1671.0663457834742ms" />
<rect x="224" y="3" width="10" height="10" class="count0" style="animation-delay: 1678.4290101814513ms" /><rect x="224.5" y="3.5" width="9" height="9" class="st" style="animation-delay: 1678.4290101814513ms" />
<rect x="224" y="16" width="10" height="10" class="count0" style="animation-delay: 1685.8746385427964ms" /><rect x="224.5" y="16.5" width="9" height="9" class="st" style="animation-delay: 1685.8746385427964ms" />
<rect x="224" y="29" width="10" height="10" class="count0" style="animation-delay: 1693.4056082637321ms" /><rect x="224.5" y="29.5" width="9" height="9" class="st" style="animation-delay: 1693.4056082637321ms" />
<rect x="224" y="42" width="10" height="10" class="count0" style="animation-delay: 1701.0244076529473ms" /><rect x="224.5" y="42.5" width="9" height="9" class="st" style="animation-delay: 1701.0244076529473ms" />
<rect x="224" y="55" width="10" height="10" class="count0" style="animation-delay: 1708.7336431733258ms" /><rect x="224.5" y="55.5" width="9" height="9" class="st" style="animation-delay: 1708.7336431733258ms" />
<rect x="224" y="68" width="10" height="10" class="count0" style="animation-delay: 1716.5360472963914ms" /><rect x="224.5" y="68.5" width="9" height="9" class="st" style="animation-delay: 1716.5360472963914ms" />
<rect x="224" y="81" width="10" height="10" class="count0" style="animation-delay: 1724.4344870335808ms" /><rect x="224.5" y="81.5" width="9" height="9" class="st" style="animation-delay: 1724.4344870335808ms" />
<rect x="237" y="3" width="10" height="10" class="count1" style="animation-delay: 1732.431973216509ms" /><rect x="237.5" y="3.5" width="9" height="9" class="st" style="animation-delay: 1732.431973216509ms" />
<rect x="237" y="16" width="10" height="10" class="count1" style="animation-delay: 1740.531670607593ms" /><rect x="237.5" y="16.5" width="9" height="9" class="st" style="animation-delay: 1740.531670607593ms" />
<rect x="237" y="29" width="10" height="10" class="count1" style="animation-delay: 1748.7369089330382ms" /><rect x="237.5" y="29.5" width="9" height="9" class="st" style="animation-delay: 1748.7369089330382ms" />
<rect x="237" y="42" width="10" height="10" class="count0" style="animation-delay: 1757.051194942389ms" /><rect x="237.5" y="42.5" width="9" height="9" class="st" style="animation-delay: 1757.051194942389ms" />
<rect x="237" y="55" width="10" height="10" class="count0" style="animation-delay: 1765.4782256130027ms" /><rect x="237.5" y="55.5" width="9" height="9" class="st" style="animation-delay: 1765.4782256130027ms" />
<rect x="237" y="68" width="10" height="10" class="count0" style="animation-delay: 1774.0219026341795ms" /><rect x="237.5" y="68.5" width="9" height="9" class="st" style="animation-delay: 1774.0219026341795ms" />
<rect x="237" y="81" width="10" height="10" class="count0" style="animation-delay: 1782.6863483247394ms" /><rect x="237.5" y="81.5" width="9" height="9" class="st" style="animation-delay: 1782.6863483247394ms" />
<rect x="250" y="3" width="10" height="10" class="count0" style="animation-delay: 1791.4759231600474ms" /><rect x="250.5" y="3.5" width="9" height="9" class="st" style="animation-delay: 1791.4759231600474ms" />
<rect x="250" y="16" width="10" height="10" class="count0" style="animation-delay: 1800.3952451104838ms" /><rect x="250.5" y="16.5" width="9" height="9" class="st" style="animation-delay: 1800.3952451104838ms" />
<rect x="250" y="29" width="10" height="10" class="count1" style="animation-delay: 1809.4492110238505ms" /><rect x="250.5" y="29.5" width="9" height="9" class="st" style="animation-delay: 1809.4492110238505ms" />
<rect x="250" y="42" width="10" height="10" class="count1" style="animation-delay: 1818.6430203201294ms" /><rect x="250.5" y="42.5" width="9" height="9" class="st" style="animation-delay: 1818.6430203201294ms" />
<rect x="250" y="55" width="10" height="10" class="count0" style="animation-delay: 1827.9822013094704ms" /><rect x="250.5" y="55.5" width="9" height="9" class="st" style="animation-delay: 1827.9822013094704ms" />
<rect x="250" y="68" width="10" height="10" class="count0" style="animation-delay: 1837.472640494643ms" /><rect x="250.5" y="68.5" width="9" height="9" class="st" style="animation-delay: 1837.472640494643ms" />
<rect x="250" y="81" width="10" height="10" class="count0" style="animation-delay: 1847.1206152791801ms" /><rect x="250.5" y="81.5" width="9" height="9" class="st" style="animation-delay: 1847.1206152791801ms" />
<rect x="263" y="3" width="10" height="10" class="count0" style="animation-delay: 1856.9328305741772ms" /><rect x="263.5" y="3.5" width="9" height="9" class="st" style="animation-delay: 1856.9328305741772ms" />
<rect x="263" y="16" width="10" height="10" class="count0" style="animation-delay: 1866.9164598828565ms" /><rect x="263.5" y="16.5" width="9" height="9" class="st" style="animation-delay: 1866.9164598828565ms" />
<rect x="263" y="29" width="10" height="10" class="count0" style="animation-delay: 1877.0791915459472ms" /><rect x="263.5" y="29.5" width="9" height="9" class="st" style="animation-delay: 1877.0791915459472ms" />
<rect x="263" y="42" width="10" height="10" class="count2" style="animation-delay: 1887.4292809569188ms" /><rect x="263.5" y="42.5" width="9" height="9" class="st" style="animation-delay: 1887.4292809569188ms" />
<rect x="263" y="55" width="10" height="10" class="count1" style="animation-delay: 1897.9756097095615ms" /><rect x="263.5" y="55.5" width="9" height="9" class="st" style="animation-delay: 1897.9756097095615ms" />
<rect x="263" y="68" width="10" height="10" class="count3" style="animation-delay: 1908.727752828355ms" /><rect x="263.5" y="68.5" width="9" height="9" class="st" style="animation-delay: 1908.727752828355ms" />
<rect x="263" y="81" width="10" height="10" class="count0" style="animation-delay: 1919.6960554634504ms" /><rect x="263.5" y="81.5" width="9" height="9" class="st" style="animation-delay: 1919.6960554634504ms" />
<rect x="276" y="3" width="10" height="10" class="count0" style="animation-delay: 1930.8917207187212ms" /><rect x="276.5" y="3.5" width="9" height="9" class="st" style="animation-delay: 1930.8917207187212ms" />
<rect x="276" y="16" width="10" height="10" class="count1" style="animation-delay: 1942.326910638489ms" /><rect x="276.5" y="16.5" width="9" height="9" class="st" style="animation-delay: 1942.326910638489ms" />
<rect x="276" y="29" width="10" height="10" class="count0" style="animation-delay: 1954.014862826566ms" /><rect x="276.5" y="29.5" width="9" height="9" class="st" style="animation-delay: 1954.014862826566ms" />
<rect x="276" y="42" width="10" height="10" class="count0" style="animation-delay: 1965.9700257371785ms" /><rect x="276.5" y="42.5" width="9" height="9" class="st" style="animation-delay: 1965.9700257371785ms" />
<rect x="276" y="55" width="10" height="10" class="count0" style="animation-delay: 1978.20821639743ms" /><rect x="276.5" y="55.5" width="9" height="9" class="st" style="animation-delay: 1978.20821639743ms" />
<rect x="276" y="68" width="10" height="10" class="count0" style="animation-delay: 1990.746805244566ms" /><rect x="276.5" y="68.5" width="9" height="9" class="st" style="animation-delay: 1990.746805244566ms" />
<rect x="276" y="81" width="10" height="10" class="count0" style="animation-delay: 2003.6049339557824ms" /><rect x="276.5" y="81.5" width="9" height="9" class="st" style="animation-delay: 2003.6049339557824ms" />
<rect x="289" y="3" width="10" height="10" class="count1" style="animation-delay: 2016.8037737072204ms" /><rect x="289.5" y="3.5" width="9" height="9" class="st" style="animation-delay: 2016.8037737072204ms" />
<rect x="289" y="16" width="10" height="10" class="count0" style="animation-delay: 2030.366833352916ms" /><rect x="289.5" y="16.5" width="9" height="9" class="st" style="animation-delay: 2030.366833352916ms" />
<rect x="289" y="29" width="10" height="10" class="count0" style="animation-delay: 2044.3203297494565ms" /><rect x="289.5" y="29.5" width="9" height="9" class="st" style="animation-delay: 2044.3203297494565ms" />
<rect x="289" y="42" width="10" height="10" class="count0" style="animation-delay: 2058.6936361345856ms" /><rect x="289.5" y="42.5" width="9" height="9" class="st" style="animation-delay: 2058.6936361345856ms" />
<rect x="289" y="55" width="10" height="10" class="count1" style="animation-delay: 2073.5198294868014ms" /><rect x="289.5" y="55.5" width="9" height="9" class="st" style="animation-delay: 2073.5198294868014ms" />
<rect x="289" y="68" width="10" height="10" class="count0" style="animation-delay: 2088.8363647235446ms" /><rect x="289.5" y="68.5" width="9" height="9" class="st" style="animation-delay: 2088.8363647235446ms" />
<rect x="289" y="81" width="10" height="10" class="count1" style="animation-delay: 2104.685913304556ms" /><rect x="289.5" y="81.5" width="9" height="9" class="st" style="animation-delay: 2104.685913304556ms" />
<rect x="302" y="3" width="10" height="10" class="count0" style="animation-delay: 2121.1174176232794ms" /><rect x="302.5" y="3.5" width="9" height="9" class="st" style="animation-delay: 2121.1174176232794ms" />
<rect x="302" y="16" width="10" height="10" class="count0" style="animation-delay: 2138.1874325726562ms" /><rect x="302.5" y="16.5" width="9" height="9" class="st" style="animation-delay: 2138.1874325726562ms" />
<rect x="302" y="29" width="10" height="10" class="count2" style="animation-delay: 2155.961855190016ms" /><rect x="302.5" y="29.5" width="9" height="9" class="st" style="animation-delay: 2155.961855190016ms" />
<rect x="302" y="42" width="10" height="10" class="count1" style="animation-delay: 2174.5181877763434ms" /><rect x="302.5" y="42.5" width="9" height="9" class="st" style="animation-delay: 2174.5181877763434ms" />
<rect x="302" y="55" width="10" height="10" class="count0" style="animation-delay: 2193.9485485458868ms" /><rect x="302.5" y="55.5" width="9" height="9" class="st" style="animation-delay: 2193.9485485458868ms" />
<rect x="302" y="68" width="10" height="10" class="count0" style="animation-delay: 2214.363752678649ms" /><rect x="302.5" y="68.5" width="9" height="9" class="st" style="animation-delay: 2214.363752678649ms" />
<rect x="302" y="81" width="10" height="10" class="count0" style="animation-delay: 2235.8989643827404ms" /><rect x="302.5" y="81.5" width="9" height="9" class="st" style="animation-delay: 2235.8989643827404ms" />
<rect x="315" y="3" width="10" height="10" class="count0" style="animation-delay: 2258.7217210587182ms" /><rect x="315.5" y="3.5" width="9" height="9" class="st" style="animation-delay: 2258.7217210587182ms" />
<rect x="315" y="16" width="10" height="10" class="count0" style="animation-delay: 2283.043659328376ms" /><rect x="315.5" y="16.5" width="9" height="9" class="st" style="animation-delay: 2283.043659328376ms" />
<rect x="315" y="29" width="10" height="10" class="count1" style="animation-delay: 2309.1382472508967ms" /><rect x="315.5" y="29.5" width="9" height="9" class="st" style="animation-delay: 2309.1382472508967ms" />
<rect x="315" y="42" width="10" height="10" class="count2" style="animation-delay: 2337.3687259640883ms" /><rect x="315.5" y="42.5" width="9" height="9" class="st" style="animation-delay: 2337.3687259640883ms" />
<rect x="315" y="55" width="10" height="10" class="count1" style="animation-delay: 2368.23442070276ms" /><rect x="315.5" y="55.5" width="9" height="9" class="st" style="animation-delay: 2368.23442070276ms" />
<rect x="315" y="68" width="10" height="10" class="count4" style="animation-delay: 2402.452539997184ms" /><rect x="315.5" y="68.5" width="9" height="9" class="st" style="animation-delay: 2402.452539997184ms" />
<rect x="315" y="81" width="10" height="10" class="count4" style="animation-delay: 2441.1151384275972ms" /><rect x="315.5" y="81.5" width="9" height="9" class="st" style="animation-delay: 2441.1151384275972ms" />
<rect x="328" y="3" width="10" height="10" class="count1" style="animation-delay: 2486.026347864828ms" /><rect x="328.5" y="3.5" width="9" height="9" class="st" style="animation-delay: 2486.026347864828ms" />
<rect x="328" y="16" width="10" height="10" class="count2" style="animation-delay: 2540.557135409876ms" /><rect x="328.5" y="16.5" width="9" height="9" class="st" style="animation-delay: 2540.557135409876ms" />
<rect x="328" y="29" width="10" height="10" class="count1" style="animation-delay: 2612.4908801648817ms" /><rect x="328.5" y="29.5" width="9" height="9" class="st" style="animation-delay: 2612.4908801648817ms" />
<rect x="328" y="42" width="10" height="10" class="count2" style="animation-delay: 2731.316182848628ms" /><rect x="328.5" y="42.5" width="9" height="9" class="st" style="animation-delay: 2731.316182848628ms" />
</svg>

  