{
	"asset":{
		"generator":"Khronos glTF Blender I/O v4.3.47",
		"version":"2.0"
	},
	"scene":0,
	"scenes":[
		{
			"name":"Scene",
			"nodes":[
				0
			]
		}
	],
	"nodes":[
		{
			"mesh":0,
			"name":"Cube"
		}
	],
	"materials":[
		{
			"doubleSided":true,
			"name":"Material",
			"pbrMetallicRoughness":{
				"metallicFactor":0,
				"roughnessFactor":0.5
			}
		}
	],
	"meshes":[
		{
			"name":"Cube",
			"primitives":[
				{
					"attributes":{
						"POSITION":0,
						"NORMAL":1,
						"TEXCOORD_0":2,
						"COLOR_0":3
					},
					"indices":4,
					"material":0
				}
			]
		}
	],
	"accessors":[
		{
			"bufferView":0,
			"componentType":5126,
			"count":2904,
			"max":[
				1.1343364715576172,
				1.0947750806808472,
				1.1035224199295044
			],
			"min":[
				-1.106871247291565,
				-1.1412172317504883,
				-1.1264736652374268
			],
			"type":"VEC3"
		},
		{
			"bufferView":1,
			"componentType":5126,
			"count":2904,
			"type":"VEC3"
		},
		{
			"bufferView":2,
			"componentType":5126,
			"count":2904,
			"type":"VEC2"
		},
		{
			"bufferView":3,
			"componentType":5126,
			"count":2904,
			"type":"VEC3"
		},
		{
			"bufferView":4,
			"componentType":5123,
			"count":4356,
			"type":"SCALAR"
		}
	],
	"bufferViews":[
		{
			"buffer":0,
			"byteLength":34848,
			"byteOffset":0,
			"target":34962
		},
		{
			"buffer":0,
			"byteLength":34848,
			"byteOffset":34848,
			"target":34962
		},
		{
			"buffer":0,
			"byteLength":23232,
			"byteOffset":69696,
			"target":34962
		},
		{
			"buffer":0,
			"byteLength":34848,
			"byteOffset":92928,
			"target":34962
		},
		{
			"buffer":0,
			"byteLength":8712,
			"byteOffset":127776,
			"target":34963
		}
	],
	"buffers":[
		{
			"byteLength":136488,
			"uri":"notacube.bin"
		}
	]
}
